G04 #@! TF.GenerationSoftware,KiCad,Pcbnew,8.0.7*
G04 #@! TF.CreationDate,2024-12-25T17:49:53-08:00*
G04 #@! TF.ProjectId,RP2040_minimal_r2,52503230-3430-45f6-9d69-6e696d616c5f,REV2*
G04 #@! TF.SameCoordinates,Original*
G04 #@! TF.FileFunction,Soldermask,Bot*
G04 #@! TF.FilePolarity,Negative*
%FSLAX46Y46*%
G04 Gerber Fmt 4.6, Leading zero omitted, Abs format (unit mm)*
G04 Created by KiCad (PCBNEW 8.0.7) date 2024-12-25 17:49:53*
%MOMM*%
%LPD*%
G01*
G04 APERTURE LIST*
%ADD10O,1.300000X1.800000*%
%ADD11O,1.050000X1.450000*%
%ADD12R,1.700000X1.700000*%
%ADD13O,1.700000X1.700000*%
%ADD14C,2.700000*%
G04 APERTURE END LIST*
D10*
X102725000Y-71700000D03*
D11*
X102425000Y-74730000D03*
X97575000Y-74730000D03*
D10*
X97275000Y-71700000D03*
D12*
X91110000Y-76540000D03*
D13*
X91110000Y-74000000D03*
D12*
X75870000Y-74000000D03*
D13*
X78410000Y-74000000D03*
X75870000Y-76540000D03*
X78410000Y-76540000D03*
X75870000Y-79080000D03*
X78410000Y-79080000D03*
X75870000Y-81620000D03*
X78410000Y-81620000D03*
X75870000Y-84160000D03*
X78410000Y-84160000D03*
X75870000Y-86700000D03*
X78410000Y-86700000D03*
X75870000Y-89240000D03*
X78410000Y-89240000D03*
X75870000Y-91780000D03*
X78410000Y-91780000D03*
X75870000Y-94320000D03*
X78410000Y-94320000D03*
X75870000Y-96860000D03*
X78410000Y-96860000D03*
X75870000Y-99400000D03*
X78410000Y-99400000D03*
X75870000Y-101940000D03*
X78410000Y-101940000D03*
X75870000Y-104480000D03*
X78410000Y-104480000D03*
X75870000Y-107020000D03*
X78410000Y-107020000D03*
X75870000Y-109560000D03*
X78410000Y-109560000D03*
X75870000Y-112100000D03*
X78410000Y-112100000D03*
X75870000Y-114640000D03*
X78410000Y-114640000D03*
X75870000Y-117180000D03*
X78410000Y-117180000D03*
D12*
X121590000Y-74000000D03*
D13*
X124130000Y-74000000D03*
X121590000Y-76540000D03*
X124130000Y-76540000D03*
X121590000Y-79080000D03*
X124130000Y-79080000D03*
X121590000Y-81620000D03*
X124130000Y-81620000D03*
X121590000Y-84160000D03*
X124130000Y-84160000D03*
X121590000Y-86700000D03*
X124130000Y-86700000D03*
X121590000Y-89240000D03*
X124130000Y-89240000D03*
X121590000Y-91780000D03*
X124130000Y-91780000D03*
X121590000Y-94320000D03*
X124130000Y-94320000D03*
X121590000Y-96860000D03*
X124130000Y-96860000D03*
X121590000Y-99400000D03*
X124130000Y-99400000D03*
X121590000Y-101940000D03*
X124130000Y-101940000D03*
X121590000Y-104480000D03*
X124130000Y-104480000D03*
X121590000Y-107020000D03*
X124130000Y-107020000D03*
X121590000Y-109560000D03*
X124130000Y-109560000D03*
X121590000Y-112100000D03*
X124130000Y-112100000D03*
X121590000Y-114640000D03*
X124130000Y-114640000D03*
X121590000Y-117180000D03*
X124130000Y-117180000D03*
D14*
X113970000Y-74000000D03*
X113970000Y-117180000D03*
X86030000Y-74000000D03*
X86030000Y-117180000D03*
M02*
