G04 #@! TF.GenerationSoftware,KiCad,Pcbnew,8.0.7*
G04 #@! TF.CreationDate,2025-01-03T21:38:38-08:00*
G04 #@! TF.ProjectId,RP2040_minimal_r2,52503230-3430-45f6-9d69-6e696d616c5f,REV2*
G04 #@! TF.SameCoordinates,PX5f5e100PY5f5e100*
G04 #@! TF.FileFunction,Paste,Top*
G04 #@! TF.FilePolarity,Positive*
%FSLAX46Y46*%
G04 Gerber Fmt 4.6, Leading zero omitted, Abs format (unit mm)*
G04 Created by KiCad (PCBNEW 8.0.7) date 2025-01-03 21:38:38*
%MOMM*%
%LPD*%
G01*
G04 APERTURE LIST*
G04 Aperture macros list*
%AMRoundRect*
0 Rectangle with rounded corners*
0 $1 Rounding radius*
0 $2 $3 $4 $5 $6 $7 $8 $9 X,Y pos of 4 corners*
0 Add a 4 corners polygon primitive as box body*
4,1,4,$2,$3,$4,$5,$6,$7,$8,$9,$2,$3,0*
0 Add four circle primitives for the rounded corners*
1,1,$1+$1,$2,$3*
1,1,$1+$1,$4,$5*
1,1,$1+$1,$6,$7*
1,1,$1+$1,$8,$9*
0 Add four rect primitives between the rounded corners*
20,1,$1+$1,$2,$3,$4,$5,0*
20,1,$1+$1,$4,$5,$6,$7,0*
20,1,$1+$1,$6,$7,$8,$9,0*
20,1,$1+$1,$8,$9,$2,$3,0*%
G04 Aperture macros list end*
%ADD10RoundRect,0.250000X0.250000X0.475000X-0.250000X0.475000X-0.250000X-0.475000X0.250000X-0.475000X0*%
%ADD11RoundRect,0.140000X0.170000X-0.140000X0.170000X0.140000X-0.170000X0.140000X-0.170000X-0.140000X0*%
%ADD12RoundRect,0.140000X0.140000X0.170000X-0.140000X0.170000X-0.140000X-0.170000X0.140000X-0.170000X0*%
%ADD13RoundRect,0.140000X-0.140000X-0.170000X0.140000X-0.170000X0.140000X0.170000X-0.140000X0.170000X0*%
%ADD14RoundRect,0.135000X-0.135000X-0.185000X0.135000X-0.185000X0.135000X0.185000X-0.135000X0.185000X0*%
%ADD15RoundRect,0.125000X-0.250000X-0.125000X0.250000X-0.125000X0.250000X0.125000X-0.250000X0.125000X0*%
%ADD16RoundRect,0.250000X-0.435000X-0.615000X0.435000X-0.615000X0.435000X0.615000X-0.435000X0.615000X0*%
%ADD17RoundRect,0.140000X-0.170000X0.140000X-0.170000X-0.140000X0.170000X-0.140000X0.170000X0.140000X0*%
%ADD18RoundRect,0.135000X-0.185000X0.135000X-0.185000X-0.135000X0.185000X-0.135000X0.185000X0.135000X0*%
%ADD19RoundRect,0.250000X-0.250000X-0.475000X0.250000X-0.475000X0.250000X0.475000X-0.250000X0.475000X0*%
%ADD20RoundRect,0.050000X-0.050000X-0.387500X0.050000X-0.387500X0.050000X0.387500X-0.050000X0.387500X0*%
%ADD21RoundRect,0.050000X-0.387500X-0.050000X0.387500X-0.050000X0.387500X0.050000X-0.387500X0.050000X0*%
%ADD22RoundRect,0.250000X-0.292217X-0.292217X0.292217X-0.292217X0.292217X0.292217X-0.292217X0.292217X0*%
%ADD23RoundRect,0.150000X0.150000X0.625000X-0.150000X0.625000X-0.150000X-0.625000X0.150000X-0.625000X0*%
%ADD24RoundRect,0.250000X0.350000X0.650000X-0.350000X0.650000X-0.350000X-0.650000X0.350000X-0.650000X0*%
%ADD25R,0.900000X1.700000*%
%ADD26RoundRect,0.250000X-0.350000X-0.650000X0.350000X-0.650000X0.350000X0.650000X-0.350000X0.650000X0*%
%ADD27RoundRect,0.150000X-0.150000X-0.625000X0.150000X-0.625000X0.150000X0.625000X-0.150000X0.625000X0*%
%ADD28R,0.700000X0.700000*%
%ADD29RoundRect,0.250000X-0.650000X0.350000X-0.650000X-0.350000X0.650000X-0.350000X0.650000X0.350000X0*%
%ADD30RoundRect,0.150000X-0.625000X0.150000X-0.625000X-0.150000X0.625000X-0.150000X0.625000X0.150000X0*%
%ADD31R,1.400000X1.200000*%
%ADD32R,1.300000X3.400000*%
%ADD33RoundRect,0.150000X-0.150000X0.512500X-0.150000X-0.512500X0.150000X-0.512500X0.150000X0.512500X0*%
G04 APERTURE END LIST*
D10*
X8600000Y20400000D03*
X10500000Y20400000D03*
D11*
X2500000Y19230000D03*
X2500000Y20190000D03*
X1500000Y19230000D03*
X1500000Y20190000D03*
D12*
X-7280000Y12000000D03*
X-6320000Y12000000D03*
D13*
X-3980000Y23600000D03*
X-3020000Y23600000D03*
D14*
X-13010000Y23600000D03*
X-11990000Y23600000D03*
D15*
X-5300000Y23570000D03*
X-5300000Y22300000D03*
X-5300000Y21030000D03*
X-5300000Y19760000D03*
X-10700000Y19760000D03*
X-10700000Y21030000D03*
X-10700000Y22300000D03*
X-10700000Y23570000D03*
D16*
X-7150000Y20590000D03*
X-7150000Y22740000D03*
X-8850000Y20590000D03*
X-8850000Y22740000D03*
D14*
X-14200000Y25000000D03*
X-13180000Y25000000D03*
D11*
X-1500000Y19220000D03*
X-1500000Y20180000D03*
D13*
X3420000Y12000000D03*
X4380000Y12000000D03*
D17*
X-1119000Y7220000D03*
X-1119000Y6260000D03*
D18*
X-500000Y20220000D03*
X-500000Y19200000D03*
D17*
X0Y7220000D03*
X0Y6260000D03*
D19*
X8600000Y28200000D03*
X10500000Y28200000D03*
D12*
X-6220000Y16000000D03*
X-7180000Y16000000D03*
D13*
X3420000Y17200000D03*
X4380000Y17200000D03*
D20*
X-4100000Y16662500D03*
X-3700000Y16662500D03*
X-3300000Y16662500D03*
X-2900000Y16662500D03*
X-2500000Y16662500D03*
X-2100000Y16662500D03*
X-1700000Y16662500D03*
X-1300000Y16662500D03*
X-900000Y16662500D03*
X-500000Y16662500D03*
X-100000Y16662500D03*
X300000Y16662500D03*
X700000Y16662500D03*
X1100000Y16662500D03*
D21*
X1937500Y15825000D03*
X1937500Y15425000D03*
X1937500Y15025000D03*
X1937500Y14625000D03*
X1937500Y14225000D03*
X1937500Y13825000D03*
X1937500Y13425000D03*
X1937500Y13025000D03*
X1937500Y12625000D03*
X1937500Y12225000D03*
X1937500Y11825000D03*
X1937500Y11425000D03*
X1937500Y11025000D03*
X1937500Y10625000D03*
D20*
X1100000Y9787500D03*
X700000Y9787500D03*
X300000Y9787500D03*
X-100000Y9787500D03*
X-500000Y9787500D03*
X-900000Y9787500D03*
X-1300000Y9787500D03*
X-1700000Y9787500D03*
X-2100000Y9787500D03*
X-2500000Y9787500D03*
X-2900000Y9787500D03*
X-3300000Y9787500D03*
X-3700000Y9787500D03*
X-4100000Y9787500D03*
D21*
X-4937500Y10625000D03*
X-4937500Y11025000D03*
X-4937500Y11425000D03*
X-4937500Y11825000D03*
X-4937500Y12225000D03*
X-4937500Y12625000D03*
X-4937500Y13025000D03*
X-4937500Y13425000D03*
X-4937500Y13825000D03*
X-4937500Y14225000D03*
X-4937500Y14625000D03*
X-4937500Y15025000D03*
X-4937500Y15425000D03*
X-4937500Y15825000D03*
D22*
X-862500Y12587500D03*
X-862500Y13862500D03*
X-2137500Y12587500D03*
X-2137500Y13862500D03*
D18*
X500000Y20220000D03*
X500000Y19200000D03*
D11*
X-2500000Y19220000D03*
X-2500000Y20180000D03*
D13*
X3420000Y16100000D03*
X4380000Y16100000D03*
D10*
X-13350000Y28100000D03*
X-15250000Y28100000D03*
D23*
X-14500000Y8025000D03*
X-15500000Y8025000D03*
X-16500000Y8025000D03*
X-17500000Y8025000D03*
X-18500000Y8025000D03*
X-19500000Y8025000D03*
D24*
X-13200000Y5500000D03*
X-20800000Y5500000D03*
X-20800000Y12700000D03*
X-13200000Y12700000D03*
D23*
X-19500000Y15225000D03*
X-18500000Y15225000D03*
X-17500000Y15225000D03*
X-16500000Y15225000D03*
X-15500000Y15225000D03*
X-14500000Y15225000D03*
D24*
X-20800000Y-1700000D03*
X-13200000Y-1700000D03*
D23*
X-19500000Y825000D03*
X-18500000Y825000D03*
X-17500000Y825000D03*
X-16500000Y825000D03*
X-15500000Y825000D03*
X-14500000Y825000D03*
D25*
X-3200000Y-1800000D03*
X200000Y-1800000D03*
D11*
X-4300000Y2940000D03*
X-4300000Y3900000D03*
D26*
X20800000Y15375000D03*
X13200000Y15375000D03*
D27*
X19500000Y12850000D03*
X18500000Y12850000D03*
X17500000Y12850000D03*
X16500000Y12850000D03*
X15500000Y12850000D03*
X14500000Y12850000D03*
D25*
X-7900000Y26500000D03*
X-11300000Y26500000D03*
D17*
X1300000Y3980000D03*
X1300000Y3020000D03*
D28*
X-7085000Y-2050000D03*
X-7085000Y-950000D03*
X-8915000Y-950000D03*
X-8915000Y-2050000D03*
D29*
X16500000Y-2300000D03*
X16500000Y1300000D03*
D30*
X13975000Y-1000000D03*
X13975000Y0D03*
D31*
X-2600000Y2600000D03*
X-400000Y2600000D03*
X-400000Y4300000D03*
X-2600000Y4300000D03*
D29*
X10100000Y5200000D03*
X10100000Y8800000D03*
D30*
X7575000Y6500000D03*
X7575000Y7500000D03*
D32*
X12550000Y23100000D03*
X21250000Y23100000D03*
D27*
X-19500000Y19700000D03*
X-18500000Y19700000D03*
X-17500000Y19700000D03*
X-16500000Y19700000D03*
D26*
X-20800000Y22225000D03*
X-15200000Y22225000D03*
D29*
X21000000Y5200000D03*
X21000000Y8800000D03*
D30*
X18475000Y6500000D03*
X18475000Y7500000D03*
D29*
X11100000Y-2300000D03*
X11100000Y1300000D03*
D30*
X8575000Y-1000000D03*
X8575000Y0D03*
D18*
X-2300000Y7210000D03*
X-2300000Y6190000D03*
D29*
X5700000Y-2300000D03*
X5700000Y1300000D03*
D30*
X3175000Y-1000000D03*
X3175000Y0D03*
D29*
X15600000Y5200000D03*
X15600000Y8800000D03*
D30*
X13075000Y6500000D03*
X13075000Y7500000D03*
D33*
X10500000Y25437500D03*
X9550000Y25437500D03*
X8600000Y25437500D03*
X8600000Y23162500D03*
X10500000Y23162500D03*
M02*
