G04 #@! TF.GenerationSoftware,KiCad,Pcbnew,8.0.7*
G04 #@! TF.CreationDate,2025-01-15T14:58:02-08:00*
G04 #@! TF.ProjectId,RP2040_minimal_r2,52503230-3430-45f6-9d69-6e696d616c5f,REV2*
G04 #@! TF.SameCoordinates,PX5f5e100PY5f5e100*
G04 #@! TF.FileFunction,Legend,Bot*
G04 #@! TF.FilePolarity,Positive*
%FSLAX46Y46*%
G04 Gerber Fmt 4.6, Leading zero omitted, Abs format (unit mm)*
G04 Created by KiCad (PCBNEW 8.0.7) date 2025-01-15 14:58:02*
%MOMM*%
%LPD*%
G01*
G04 APERTURE LIST*
%ADD10C,0.150000*%
G04 APERTURE END LIST*
D10*
X3369819Y25887031D02*
X3369819Y26363221D01*
X3369819Y26363221D02*
X3846009Y26410840D01*
X3846009Y26410840D02*
X3798390Y26363221D01*
X3798390Y26363221D02*
X3750771Y26267983D01*
X3750771Y26267983D02*
X3750771Y26029888D01*
X3750771Y26029888D02*
X3798390Y25934650D01*
X3798390Y25934650D02*
X3846009Y25887031D01*
X3846009Y25887031D02*
X3941247Y25839412D01*
X3941247Y25839412D02*
X4179342Y25839412D01*
X4179342Y25839412D02*
X4274580Y25887031D01*
X4274580Y25887031D02*
X4322200Y25934650D01*
X4322200Y25934650D02*
X4369819Y26029888D01*
X4369819Y26029888D02*
X4369819Y26267983D01*
X4369819Y26267983D02*
X4322200Y26363221D01*
X4322200Y26363221D02*
X4274580Y26410840D01*
X3369819Y25553697D02*
X4369819Y25220364D01*
X4369819Y25220364D02*
X3369819Y24887031D01*
X-730181Y26363221D02*
X-1730181Y26363221D01*
X-1730181Y26363221D02*
X-1730181Y26125126D01*
X-1730181Y26125126D02*
X-1682562Y25982269D01*
X-1682562Y25982269D02*
X-1587324Y25887031D01*
X-1587324Y25887031D02*
X-1492086Y25839412D01*
X-1492086Y25839412D02*
X-1301610Y25791793D01*
X-1301610Y25791793D02*
X-1158753Y25791793D01*
X-1158753Y25791793D02*
X-968277Y25839412D01*
X-968277Y25839412D02*
X-873039Y25887031D01*
X-873039Y25887031D02*
X-777800Y25982269D01*
X-777800Y25982269D02*
X-730181Y26125126D01*
X-730181Y26125126D02*
X-730181Y26363221D01*
X-1111134Y25363221D02*
X-1111134Y24601316D01*
X-730181Y24982269D02*
X-1492086Y24982269D01*
X17857144Y19896848D02*
X17857144Y19087324D01*
X17857144Y19087324D02*
X17904763Y18992086D01*
X17904763Y18992086D02*
X17952382Y18944467D01*
X17952382Y18944467D02*
X18047620Y18896848D01*
X18047620Y18896848D02*
X18190477Y18896848D01*
X18190477Y18896848D02*
X18285715Y18944467D01*
X17857144Y19277800D02*
X17952382Y19230181D01*
X17952382Y19230181D02*
X18142858Y19230181D01*
X18142858Y19230181D02*
X18238096Y19277800D01*
X18238096Y19277800D02*
X18285715Y19325420D01*
X18285715Y19325420D02*
X18333334Y19420658D01*
X18333334Y19420658D02*
X18333334Y19706372D01*
X18333334Y19706372D02*
X18285715Y19801610D01*
X18285715Y19801610D02*
X18238096Y19849229D01*
X18238096Y19849229D02*
X18142858Y19896848D01*
X18142858Y19896848D02*
X17952382Y19896848D01*
X17952382Y19896848D02*
X17857144Y19849229D01*
X17380953Y19230181D02*
X17380953Y19896848D01*
X17380953Y20230181D02*
X17428572Y20182562D01*
X17428572Y20182562D02*
X17380953Y20134943D01*
X17380953Y20134943D02*
X17333334Y20182562D01*
X17333334Y20182562D02*
X17380953Y20230181D01*
X17380953Y20230181D02*
X17380953Y20134943D01*
X17047620Y19896848D02*
X16666668Y19896848D01*
X16904763Y20230181D02*
X16904763Y19373039D01*
X16904763Y19373039D02*
X16857144Y19277800D01*
X16857144Y19277800D02*
X16761906Y19230181D01*
X16761906Y19230181D02*
X16666668Y19230181D01*
X16333334Y19230181D02*
X16333334Y20230181D01*
X15904763Y19230181D02*
X15904763Y19753991D01*
X15904763Y19753991D02*
X15952382Y19849229D01*
X15952382Y19849229D02*
X16047620Y19896848D01*
X16047620Y19896848D02*
X16190477Y19896848D01*
X16190477Y19896848D02*
X16285715Y19849229D01*
X16285715Y19849229D02*
X16333334Y19801610D01*
X15000001Y19896848D02*
X15000001Y19230181D01*
X15428572Y19896848D02*
X15428572Y19373039D01*
X15428572Y19373039D02*
X15380953Y19277800D01*
X15380953Y19277800D02*
X15285715Y19230181D01*
X15285715Y19230181D02*
X15142858Y19230181D01*
X15142858Y19230181D02*
X15047620Y19277800D01*
X15047620Y19277800D02*
X15000001Y19325420D01*
X14523810Y19230181D02*
X14523810Y20230181D01*
X14523810Y19849229D02*
X14428572Y19896848D01*
X14428572Y19896848D02*
X14238096Y19896848D01*
X14238096Y19896848D02*
X14142858Y19849229D01*
X14142858Y19849229D02*
X14095239Y19801610D01*
X14095239Y19801610D02*
X14047620Y19706372D01*
X14047620Y19706372D02*
X14047620Y19420658D01*
X14047620Y19420658D02*
X14095239Y19325420D01*
X14095239Y19325420D02*
X14142858Y19277800D01*
X14142858Y19277800D02*
X14238096Y19230181D01*
X14238096Y19230181D02*
X14428572Y19230181D01*
X14428572Y19230181D02*
X14523810Y19277800D01*
X13619048Y19325420D02*
X13571429Y19277800D01*
X13571429Y19277800D02*
X13619048Y19230181D01*
X13619048Y19230181D02*
X13666667Y19277800D01*
X13666667Y19277800D02*
X13619048Y19325420D01*
X13619048Y19325420D02*
X13619048Y19230181D01*
X12714287Y19277800D02*
X12809525Y19230181D01*
X12809525Y19230181D02*
X13000001Y19230181D01*
X13000001Y19230181D02*
X13095239Y19277800D01*
X13095239Y19277800D02*
X13142858Y19325420D01*
X13142858Y19325420D02*
X13190477Y19420658D01*
X13190477Y19420658D02*
X13190477Y19706372D01*
X13190477Y19706372D02*
X13142858Y19801610D01*
X13142858Y19801610D02*
X13095239Y19849229D01*
X13095239Y19849229D02*
X13000001Y19896848D01*
X13000001Y19896848D02*
X12809525Y19896848D01*
X12809525Y19896848D02*
X12714287Y19849229D01*
X12142858Y19230181D02*
X12238096Y19277800D01*
X12238096Y19277800D02*
X12285715Y19325420D01*
X12285715Y19325420D02*
X12333334Y19420658D01*
X12333334Y19420658D02*
X12333334Y19706372D01*
X12333334Y19706372D02*
X12285715Y19801610D01*
X12285715Y19801610D02*
X12238096Y19849229D01*
X12238096Y19849229D02*
X12142858Y19896848D01*
X12142858Y19896848D02*
X12000001Y19896848D01*
X12000001Y19896848D02*
X11904763Y19849229D01*
X11904763Y19849229D02*
X11857144Y19801610D01*
X11857144Y19801610D02*
X11809525Y19706372D01*
X11809525Y19706372D02*
X11809525Y19420658D01*
X11809525Y19420658D02*
X11857144Y19325420D01*
X11857144Y19325420D02*
X11904763Y19277800D01*
X11904763Y19277800D02*
X12000001Y19230181D01*
X12000001Y19230181D02*
X12142858Y19230181D01*
X11380953Y19230181D02*
X11380953Y19896848D01*
X11380953Y19801610D02*
X11333334Y19849229D01*
X11333334Y19849229D02*
X11238096Y19896848D01*
X11238096Y19896848D02*
X11095239Y19896848D01*
X11095239Y19896848D02*
X11000001Y19849229D01*
X11000001Y19849229D02*
X10952382Y19753991D01*
X10952382Y19753991D02*
X10952382Y19230181D01*
X10952382Y19753991D02*
X10904763Y19849229D01*
X10904763Y19849229D02*
X10809525Y19896848D01*
X10809525Y19896848D02*
X10666668Y19896848D01*
X10666668Y19896848D02*
X10571429Y19849229D01*
X10571429Y19849229D02*
X10523810Y19753991D01*
X10523810Y19753991D02*
X10523810Y19230181D01*
X9333335Y20277800D02*
X10190477Y18992086D01*
X9000001Y19230181D02*
X9000001Y19896848D01*
X9000001Y19801610D02*
X8952382Y19849229D01*
X8952382Y19849229D02*
X8857144Y19896848D01*
X8857144Y19896848D02*
X8714287Y19896848D01*
X8714287Y19896848D02*
X8619049Y19849229D01*
X8619049Y19849229D02*
X8571430Y19753991D01*
X8571430Y19753991D02*
X8571430Y19230181D01*
X8571430Y19753991D02*
X8523811Y19849229D01*
X8523811Y19849229D02*
X8428573Y19896848D01*
X8428573Y19896848D02*
X8285716Y19896848D01*
X8285716Y19896848D02*
X8190477Y19849229D01*
X8190477Y19849229D02*
X8142858Y19753991D01*
X8142858Y19753991D02*
X8142858Y19230181D01*
X7523811Y19230181D02*
X7619049Y19277800D01*
X7619049Y19277800D02*
X7666668Y19325420D01*
X7666668Y19325420D02*
X7714287Y19420658D01*
X7714287Y19420658D02*
X7714287Y19706372D01*
X7714287Y19706372D02*
X7666668Y19801610D01*
X7666668Y19801610D02*
X7619049Y19849229D01*
X7619049Y19849229D02*
X7523811Y19896848D01*
X7523811Y19896848D02*
X7380954Y19896848D01*
X7380954Y19896848D02*
X7285716Y19849229D01*
X7285716Y19849229D02*
X7238097Y19801610D01*
X7238097Y19801610D02*
X7190478Y19706372D01*
X7190478Y19706372D02*
X7190478Y19420658D01*
X7190478Y19420658D02*
X7238097Y19325420D01*
X7238097Y19325420D02*
X7285716Y19277800D01*
X7285716Y19277800D02*
X7380954Y19230181D01*
X7380954Y19230181D02*
X7523811Y19230181D01*
X6761906Y19896848D02*
X6761906Y19230181D01*
X6761906Y19801610D02*
X6714287Y19849229D01*
X6714287Y19849229D02*
X6619049Y19896848D01*
X6619049Y19896848D02*
X6476192Y19896848D01*
X6476192Y19896848D02*
X6380954Y19849229D01*
X6380954Y19849229D02*
X6333335Y19753991D01*
X6333335Y19753991D02*
X6333335Y19230181D01*
X5857144Y19230181D02*
X5857144Y19896848D01*
X5857144Y19706372D02*
X5809525Y19801610D01*
X5809525Y19801610D02*
X5761906Y19849229D01*
X5761906Y19849229D02*
X5666668Y19896848D01*
X5666668Y19896848D02*
X5571430Y19896848D01*
X5095239Y19230181D02*
X5190477Y19277800D01*
X5190477Y19277800D02*
X5238096Y19325420D01*
X5238096Y19325420D02*
X5285715Y19420658D01*
X5285715Y19420658D02*
X5285715Y19706372D01*
X5285715Y19706372D02*
X5238096Y19801610D01*
X5238096Y19801610D02*
X5190477Y19849229D01*
X5190477Y19849229D02*
X5095239Y19896848D01*
X5095239Y19896848D02*
X4952382Y19896848D01*
X4952382Y19896848D02*
X4857144Y19849229D01*
X4857144Y19849229D02*
X4809525Y19801610D01*
X4809525Y19801610D02*
X4761906Y19706372D01*
X4761906Y19706372D02*
X4761906Y19420658D01*
X4761906Y19420658D02*
X4809525Y19325420D01*
X4809525Y19325420D02*
X4857144Y19277800D01*
X4857144Y19277800D02*
X4952382Y19230181D01*
X4952382Y19230181D02*
X5095239Y19230181D01*
X3952382Y19277800D02*
X4047620Y19230181D01*
X4047620Y19230181D02*
X4238096Y19230181D01*
X4238096Y19230181D02*
X4333334Y19277800D01*
X4333334Y19277800D02*
X4380953Y19373039D01*
X4380953Y19373039D02*
X4380953Y19753991D01*
X4380953Y19753991D02*
X4333334Y19849229D01*
X4333334Y19849229D02*
X4238096Y19896848D01*
X4238096Y19896848D02*
X4047620Y19896848D01*
X4047620Y19896848D02*
X3952382Y19849229D01*
X3952382Y19849229D02*
X3904763Y19753991D01*
X3904763Y19753991D02*
X3904763Y19658753D01*
X3904763Y19658753D02*
X4380953Y19563515D01*
X3571429Y19896848D02*
X3380953Y19230181D01*
X3380953Y19230181D02*
X3190477Y19706372D01*
X3190477Y19706372D02*
X3000001Y19230181D01*
X3000001Y19230181D02*
X2809525Y19896848D01*
X2428572Y19230181D02*
X2428572Y19896848D01*
X2428572Y20230181D02*
X2476191Y20182562D01*
X2476191Y20182562D02*
X2428572Y20134943D01*
X2428572Y20134943D02*
X2380953Y20182562D01*
X2380953Y20182562D02*
X2428572Y20230181D01*
X2428572Y20230181D02*
X2428572Y20134943D01*
X1809525Y19230181D02*
X1904763Y19277800D01*
X1904763Y19277800D02*
X1952382Y19373039D01*
X1952382Y19373039D02*
X1952382Y20230181D01*
X1285715Y19230181D02*
X1380953Y19277800D01*
X1380953Y19277800D02*
X1428572Y19373039D01*
X1428572Y19373039D02*
X1428572Y20230181D01*
X904762Y19230181D02*
X904762Y19896848D01*
X904762Y20230181D02*
X952381Y20182562D01*
X952381Y20182562D02*
X904762Y20134943D01*
X904762Y20134943D02*
X857143Y20182562D01*
X857143Y20182562D02*
X904762Y20230181D01*
X904762Y20230181D02*
X904762Y20134943D01*
X1Y19230181D02*
X1Y19753991D01*
X1Y19753991D02*
X47620Y19849229D01*
X47620Y19849229D02*
X142858Y19896848D01*
X142858Y19896848D02*
X333334Y19896848D01*
X333334Y19896848D02*
X428572Y19849229D01*
X1Y19277800D02*
X95239Y19230181D01*
X95239Y19230181D02*
X333334Y19230181D01*
X333334Y19230181D02*
X428572Y19277800D01*
X428572Y19277800D02*
X476191Y19373039D01*
X476191Y19373039D02*
X476191Y19468277D01*
X476191Y19468277D02*
X428572Y19563515D01*
X428572Y19563515D02*
X333334Y19611134D01*
X333334Y19611134D02*
X95239Y19611134D01*
X95239Y19611134D02*
X1Y19658753D01*
X-476190Y19230181D02*
X-476190Y19896848D01*
X-476190Y19801610D02*
X-523809Y19849229D01*
X-523809Y19849229D02*
X-619047Y19896848D01*
X-619047Y19896848D02*
X-761904Y19896848D01*
X-761904Y19896848D02*
X-857142Y19849229D01*
X-857142Y19849229D02*
X-904761Y19753991D01*
X-904761Y19753991D02*
X-904761Y19230181D01*
X-904761Y19753991D02*
X-952380Y19849229D01*
X-952380Y19849229D02*
X-1047618Y19896848D01*
X-1047618Y19896848D02*
X-1190475Y19896848D01*
X-1190475Y19896848D02*
X-1285714Y19849229D01*
X-1285714Y19849229D02*
X-1333333Y19753991D01*
X-1333333Y19753991D02*
X-1333333Y19230181D01*
X-1761904Y19277800D02*
X-1857142Y19230181D01*
X-1857142Y19230181D02*
X-2047618Y19230181D01*
X-2047618Y19230181D02*
X-2142856Y19277800D01*
X-2142856Y19277800D02*
X-2190475Y19373039D01*
X-2190475Y19373039D02*
X-2190475Y19420658D01*
X-2190475Y19420658D02*
X-2142856Y19515896D01*
X-2142856Y19515896D02*
X-2047618Y19563515D01*
X-2047618Y19563515D02*
X-1904761Y19563515D01*
X-1904761Y19563515D02*
X-1809523Y19611134D01*
X-1809523Y19611134D02*
X-1761904Y19706372D01*
X-1761904Y19706372D02*
X-1761904Y19753991D01*
X-1761904Y19753991D02*
X-1809523Y19849229D01*
X-1809523Y19849229D02*
X-1904761Y19896848D01*
X-1904761Y19896848D02*
X-2047618Y19896848D01*
X-2047618Y19896848D02*
X-2142856Y19849229D01*
X-3333332Y20277800D02*
X-2476190Y18992086D01*
X-3666666Y19230181D02*
X-3666666Y19896848D01*
X-3666666Y19706372D02*
X-3714285Y19801610D01*
X-3714285Y19801610D02*
X-3761904Y19849229D01*
X-3761904Y19849229D02*
X-3857142Y19896848D01*
X-3857142Y19896848D02*
X-3952380Y19896848D01*
X-4285714Y19896848D02*
X-4285714Y18896848D01*
X-4285714Y19849229D02*
X-4380952Y19896848D01*
X-4380952Y19896848D02*
X-4571428Y19896848D01*
X-4571428Y19896848D02*
X-4666666Y19849229D01*
X-4666666Y19849229D02*
X-4714285Y19801610D01*
X-4714285Y19801610D02*
X-4761904Y19706372D01*
X-4761904Y19706372D02*
X-4761904Y19420658D01*
X-4761904Y19420658D02*
X-4714285Y19325420D01*
X-4714285Y19325420D02*
X-4666666Y19277800D01*
X-4666666Y19277800D02*
X-4571428Y19230181D01*
X-4571428Y19230181D02*
X-4380952Y19230181D01*
X-4380952Y19230181D02*
X-4285714Y19277800D01*
X-5142857Y20134943D02*
X-5190476Y20182562D01*
X-5190476Y20182562D02*
X-5285714Y20230181D01*
X-5285714Y20230181D02*
X-5523809Y20230181D01*
X-5523809Y20230181D02*
X-5619047Y20182562D01*
X-5619047Y20182562D02*
X-5666666Y20134943D01*
X-5666666Y20134943D02*
X-5714285Y20039705D01*
X-5714285Y20039705D02*
X-5714285Y19944467D01*
X-5714285Y19944467D02*
X-5666666Y19801610D01*
X-5666666Y19801610D02*
X-5095238Y19230181D01*
X-5095238Y19230181D02*
X-5714285Y19230181D01*
X-6333333Y20230181D02*
X-6428571Y20230181D01*
X-6428571Y20230181D02*
X-6523809Y20182562D01*
X-6523809Y20182562D02*
X-6571428Y20134943D01*
X-6571428Y20134943D02*
X-6619047Y20039705D01*
X-6619047Y20039705D02*
X-6666666Y19849229D01*
X-6666666Y19849229D02*
X-6666666Y19611134D01*
X-6666666Y19611134D02*
X-6619047Y19420658D01*
X-6619047Y19420658D02*
X-6571428Y19325420D01*
X-6571428Y19325420D02*
X-6523809Y19277800D01*
X-6523809Y19277800D02*
X-6428571Y19230181D01*
X-6428571Y19230181D02*
X-6333333Y19230181D01*
X-6333333Y19230181D02*
X-6238095Y19277800D01*
X-6238095Y19277800D02*
X-6190476Y19325420D01*
X-6190476Y19325420D02*
X-6142857Y19420658D01*
X-6142857Y19420658D02*
X-6095238Y19611134D01*
X-6095238Y19611134D02*
X-6095238Y19849229D01*
X-6095238Y19849229D02*
X-6142857Y20039705D01*
X-6142857Y20039705D02*
X-6190476Y20134943D01*
X-6190476Y20134943D02*
X-6238095Y20182562D01*
X-6238095Y20182562D02*
X-6333333Y20230181D01*
X-7523809Y19896848D02*
X-7523809Y19230181D01*
X-7285714Y20277800D02*
X-7047619Y19563515D01*
X-7047619Y19563515D02*
X-7666666Y19563515D01*
X-8238095Y20230181D02*
X-8333333Y20230181D01*
X-8333333Y20230181D02*
X-8428571Y20182562D01*
X-8428571Y20182562D02*
X-8476190Y20134943D01*
X-8476190Y20134943D02*
X-8523809Y20039705D01*
X-8523809Y20039705D02*
X-8571428Y19849229D01*
X-8571428Y19849229D02*
X-8571428Y19611134D01*
X-8571428Y19611134D02*
X-8523809Y19420658D01*
X-8523809Y19420658D02*
X-8476190Y19325420D01*
X-8476190Y19325420D02*
X-8428571Y19277800D01*
X-8428571Y19277800D02*
X-8333333Y19230181D01*
X-8333333Y19230181D02*
X-8238095Y19230181D01*
X-8238095Y19230181D02*
X-8142857Y19277800D01*
X-8142857Y19277800D02*
X-8095238Y19325420D01*
X-8095238Y19325420D02*
X-8047619Y19420658D01*
X-8047619Y19420658D02*
X-8000000Y19611134D01*
X-8000000Y19611134D02*
X-8000000Y19849229D01*
X-8000000Y19849229D02*
X-8047619Y20039705D01*
X-8047619Y20039705D02*
X-8095238Y20134943D01*
X-8095238Y20134943D02*
X-8142857Y20182562D01*
X-8142857Y20182562D02*
X-8238095Y20230181D01*
X-8761904Y19134943D02*
X-9523809Y19134943D01*
X-9761905Y19230181D02*
X-9761905Y19896848D01*
X-9761905Y19801610D02*
X-9809524Y19849229D01*
X-9809524Y19849229D02*
X-9904762Y19896848D01*
X-9904762Y19896848D02*
X-10047619Y19896848D01*
X-10047619Y19896848D02*
X-10142857Y19849229D01*
X-10142857Y19849229D02*
X-10190476Y19753991D01*
X-10190476Y19753991D02*
X-10190476Y19230181D01*
X-10190476Y19753991D02*
X-10238095Y19849229D01*
X-10238095Y19849229D02*
X-10333333Y19896848D01*
X-10333333Y19896848D02*
X-10476190Y19896848D01*
X-10476190Y19896848D02*
X-10571429Y19849229D01*
X-10571429Y19849229D02*
X-10619048Y19753991D01*
X-10619048Y19753991D02*
X-10619048Y19230181D01*
X-11000000Y19896848D02*
X-11190476Y19230181D01*
X-11190476Y19230181D02*
X-11380952Y19706372D01*
X-11380952Y19706372D02*
X-11571428Y19230181D01*
X-11571428Y19230181D02*
X-11761904Y19896848D01*
X-12000000Y19896848D02*
X-12380952Y19896848D01*
X-12142857Y20230181D02*
X-12142857Y19373039D01*
X-12142857Y19373039D02*
X-12190476Y19277800D01*
X-12190476Y19277800D02*
X-12285714Y19230181D01*
X-12285714Y19230181D02*
X-12380952Y19230181D01*
X-12714286Y19230181D02*
X-12714286Y19896848D01*
X-12714286Y19706372D02*
X-12761905Y19801610D01*
X-12761905Y19801610D02*
X-12809524Y19849229D01*
X-12809524Y19849229D02*
X-12904762Y19896848D01*
X-12904762Y19896848D02*
X-13000000Y19896848D01*
X-13761905Y19230181D02*
X-13761905Y19753991D01*
X-13761905Y19753991D02*
X-13714286Y19849229D01*
X-13714286Y19849229D02*
X-13619048Y19896848D01*
X-13619048Y19896848D02*
X-13428572Y19896848D01*
X-13428572Y19896848D02*
X-13333334Y19849229D01*
X-13761905Y19277800D02*
X-13666667Y19230181D01*
X-13666667Y19230181D02*
X-13428572Y19230181D01*
X-13428572Y19230181D02*
X-13333334Y19277800D01*
X-13333334Y19277800D02*
X-13285715Y19373039D01*
X-13285715Y19373039D02*
X-13285715Y19468277D01*
X-13285715Y19468277D02*
X-13333334Y19563515D01*
X-13333334Y19563515D02*
X-13428572Y19611134D01*
X-13428572Y19611134D02*
X-13666667Y19611134D01*
X-13666667Y19611134D02*
X-13761905Y19658753D01*
X-14666667Y19277800D02*
X-14571429Y19230181D01*
X-14571429Y19230181D02*
X-14380953Y19230181D01*
X-14380953Y19230181D02*
X-14285715Y19277800D01*
X-14285715Y19277800D02*
X-14238096Y19325420D01*
X-14238096Y19325420D02*
X-14190477Y19420658D01*
X-14190477Y19420658D02*
X-14190477Y19706372D01*
X-14190477Y19706372D02*
X-14238096Y19801610D01*
X-14238096Y19801610D02*
X-14285715Y19849229D01*
X-14285715Y19849229D02*
X-14380953Y19896848D01*
X-14380953Y19896848D02*
X-14571429Y19896848D01*
X-14571429Y19896848D02*
X-14666667Y19849229D01*
X-15095239Y19230181D02*
X-15095239Y20230181D01*
X-15190477Y19611134D02*
X-15476191Y19230181D01*
X-15476191Y19896848D02*
X-15095239Y19515896D01*
X-15904763Y19230181D02*
X-15904763Y20230181D01*
X-15904763Y19849229D02*
X-16000001Y19896848D01*
X-16000001Y19896848D02*
X-16190477Y19896848D01*
X-16190477Y19896848D02*
X-16285715Y19849229D01*
X-16285715Y19849229D02*
X-16333334Y19801610D01*
X-16333334Y19801610D02*
X-16380953Y19706372D01*
X-16380953Y19706372D02*
X-16380953Y19420658D01*
X-16380953Y19420658D02*
X-16333334Y19325420D01*
X-16333334Y19325420D02*
X-16285715Y19277800D01*
X-16285715Y19277800D02*
X-16190477Y19230181D01*
X-16190477Y19230181D02*
X-16000001Y19230181D01*
X-16000001Y19230181D02*
X-15904763Y19277800D01*
X-17238096Y19230181D02*
X-17238096Y19753991D01*
X-17238096Y19753991D02*
X-17190477Y19849229D01*
X-17190477Y19849229D02*
X-17095239Y19896848D01*
X-17095239Y19896848D02*
X-16904763Y19896848D01*
X-16904763Y19896848D02*
X-16809525Y19849229D01*
X-17238096Y19277800D02*
X-17142858Y19230181D01*
X-17142858Y19230181D02*
X-16904763Y19230181D01*
X-16904763Y19230181D02*
X-16809525Y19277800D01*
X-16809525Y19277800D02*
X-16761906Y19373039D01*
X-16761906Y19373039D02*
X-16761906Y19468277D01*
X-16761906Y19468277D02*
X-16809525Y19563515D01*
X-16809525Y19563515D02*
X-16904763Y19611134D01*
X-16904763Y19611134D02*
X-17142858Y19611134D01*
X-17142858Y19611134D02*
X-17238096Y19658753D01*
X-17857144Y19230181D02*
X-17761906Y19277800D01*
X-17761906Y19277800D02*
X-17714287Y19373039D01*
X-17714287Y19373039D02*
X-17714287Y20230181D01*
X-18380954Y19230181D02*
X-18285716Y19277800D01*
X-18285716Y19277800D02*
X-18238097Y19373039D01*
X-18238097Y19373039D02*
X-18238097Y20230181D01*
X-4182562Y25739412D02*
X-4230181Y25834650D01*
X-4230181Y25834650D02*
X-4230181Y25977507D01*
X-4230181Y25977507D02*
X-4182562Y26120364D01*
X-4182562Y26120364D02*
X-4087324Y26215602D01*
X-4087324Y26215602D02*
X-3992086Y26263221D01*
X-3992086Y26263221D02*
X-3801610Y26310840D01*
X-3801610Y26310840D02*
X-3658753Y26310840D01*
X-3658753Y26310840D02*
X-3468277Y26263221D01*
X-3468277Y26263221D02*
X-3373039Y26215602D01*
X-3373039Y26215602D02*
X-3277800Y26120364D01*
X-3277800Y26120364D02*
X-3230181Y25977507D01*
X-3230181Y25977507D02*
X-3230181Y25882269D01*
X-3230181Y25882269D02*
X-3277800Y25739412D01*
X-3277800Y25739412D02*
X-3325420Y25691793D01*
X-3325420Y25691793D02*
X-3658753Y25691793D01*
X-3658753Y25691793D02*
X-3658753Y25882269D01*
X-3230181Y25263221D02*
X-4230181Y25263221D01*
X-4230181Y25263221D02*
X-3230181Y24691793D01*
X-3230181Y24691793D02*
X-4230181Y24691793D01*
X-3230181Y24215602D02*
X-4230181Y24215602D01*
X-4230181Y24215602D02*
X-4230181Y23977507D01*
X-4230181Y23977507D02*
X-4182562Y23834650D01*
X-4182562Y23834650D02*
X-4087324Y23739412D01*
X-4087324Y23739412D02*
X-3992086Y23691793D01*
X-3992086Y23691793D02*
X-3801610Y23644174D01*
X-3801610Y23644174D02*
X-3658753Y23644174D01*
X-3658753Y23644174D02*
X-3468277Y23691793D01*
X-3468277Y23691793D02*
X-3373039Y23739412D01*
X-3373039Y23739412D02*
X-3277800Y23834650D01*
X-3277800Y23834650D02*
X-3230181Y23977507D01*
X-3230181Y23977507D02*
X-3230181Y24215602D01*
X1769819Y26363221D02*
X769819Y26363221D01*
X769819Y26363221D02*
X769819Y26125126D01*
X769819Y26125126D02*
X817438Y25982269D01*
X817438Y25982269D02*
X912676Y25887031D01*
X912676Y25887031D02*
X1007914Y25839412D01*
X1007914Y25839412D02*
X1198390Y25791793D01*
X1198390Y25791793D02*
X1341247Y25791793D01*
X1341247Y25791793D02*
X1531723Y25839412D01*
X1531723Y25839412D02*
X1626961Y25887031D01*
X1626961Y25887031D02*
X1722200Y25982269D01*
X1722200Y25982269D02*
X1769819Y26125126D01*
X1769819Y26125126D02*
X1769819Y26363221D01*
X1388866Y25363221D02*
X1388866Y24601316D01*
M02*
