G04 #@! TF.GenerationSoftware,KiCad,Pcbnew,8.0.7*
G04 #@! TF.CreationDate,2025-01-03T21:38:38-08:00*
G04 #@! TF.ProjectId,RP2040_minimal_r2,52503230-3430-45f6-9d69-6e696d616c5f,REV2*
G04 #@! TF.SameCoordinates,PX5f5e100PY5f5e100*
G04 #@! TF.FileFunction,Soldermask,Top*
G04 #@! TF.FilePolarity,Negative*
%FSLAX46Y46*%
G04 Gerber Fmt 4.6, Leading zero omitted, Abs format (unit mm)*
G04 Created by KiCad (PCBNEW 8.0.7) date 2025-01-03 21:38:38*
%MOMM*%
%LPD*%
G01*
G04 APERTURE LIST*
G04 APERTURE END LIST*
G36*
X6418914Y-1656995D02*
G01*
X6423645Y-1659084D01*
X6426811Y-1659501D01*
X6466442Y-1677981D01*
X6520106Y-1701676D01*
X6598324Y-1779894D01*
X6622028Y-1833579D01*
X6640498Y-1873188D01*
X6640914Y-1876351D01*
X6643005Y-1881086D01*
X6651000Y-1950000D01*
X6651000Y-2650000D01*
X6643005Y-2718914D01*
X6640914Y-2723648D01*
X6640498Y-2726811D01*
X6622036Y-2766402D01*
X6598324Y-2820106D01*
X6520106Y-2898324D01*
X6466402Y-2922036D01*
X6426811Y-2940498D01*
X6423648Y-2940914D01*
X6418914Y-2943005D01*
X6350000Y-2951000D01*
X5050000Y-2951000D01*
X4981086Y-2943005D01*
X4976351Y-2940914D01*
X4973188Y-2940498D01*
X4933579Y-2922028D01*
X4879894Y-2898324D01*
X4801676Y-2820106D01*
X4777981Y-2766442D01*
X4759501Y-2726811D01*
X4759084Y-2723645D01*
X4756995Y-2718914D01*
X4749000Y-2650000D01*
X4749000Y-1950000D01*
X4756995Y-1881086D01*
X4759084Y-1876354D01*
X4759501Y-1873188D01*
X4777989Y-1833538D01*
X4801676Y-1779894D01*
X4879894Y-1701676D01*
X4933538Y-1677989D01*
X4973188Y-1659501D01*
X4976354Y-1659084D01*
X4981086Y-1656995D01*
X5050000Y-1649000D01*
X6350000Y-1649000D01*
X6418914Y-1656995D01*
G37*
G36*
X11818914Y-1656995D02*
G01*
X11823645Y-1659084D01*
X11826811Y-1659501D01*
X11866442Y-1677981D01*
X11920106Y-1701676D01*
X11998324Y-1779894D01*
X12022028Y-1833579D01*
X12040498Y-1873188D01*
X12040914Y-1876351D01*
X12043005Y-1881086D01*
X12051000Y-1950000D01*
X12051000Y-2650000D01*
X12043005Y-2718914D01*
X12040914Y-2723648D01*
X12040498Y-2726811D01*
X12022036Y-2766402D01*
X11998324Y-2820106D01*
X11920106Y-2898324D01*
X11866402Y-2922036D01*
X11826811Y-2940498D01*
X11823648Y-2940914D01*
X11818914Y-2943005D01*
X11750000Y-2951000D01*
X10450000Y-2951000D01*
X10381086Y-2943005D01*
X10376351Y-2940914D01*
X10373188Y-2940498D01*
X10333579Y-2922028D01*
X10279894Y-2898324D01*
X10201676Y-2820106D01*
X10177981Y-2766442D01*
X10159501Y-2726811D01*
X10159084Y-2723645D01*
X10156995Y-2718914D01*
X10149000Y-2650000D01*
X10149000Y-1950000D01*
X10156995Y-1881086D01*
X10159084Y-1876354D01*
X10159501Y-1873188D01*
X10177989Y-1833538D01*
X10201676Y-1779894D01*
X10279894Y-1701676D01*
X10333538Y-1677989D01*
X10373188Y-1659501D01*
X10376354Y-1659084D01*
X10381086Y-1656995D01*
X10450000Y-1649000D01*
X11750000Y-1649000D01*
X11818914Y-1656995D01*
G37*
G36*
X17218914Y-1656995D02*
G01*
X17223645Y-1659084D01*
X17226811Y-1659501D01*
X17266442Y-1677981D01*
X17320106Y-1701676D01*
X17398324Y-1779894D01*
X17422028Y-1833579D01*
X17440498Y-1873188D01*
X17440914Y-1876351D01*
X17443005Y-1881086D01*
X17451000Y-1950000D01*
X17451000Y-2650000D01*
X17443005Y-2718914D01*
X17440914Y-2723648D01*
X17440498Y-2726811D01*
X17422036Y-2766402D01*
X17398324Y-2820106D01*
X17320106Y-2898324D01*
X17266402Y-2922036D01*
X17226811Y-2940498D01*
X17223648Y-2940914D01*
X17218914Y-2943005D01*
X17150000Y-2951000D01*
X15850000Y-2951000D01*
X15781086Y-2943005D01*
X15776351Y-2940914D01*
X15773188Y-2940498D01*
X15733579Y-2922028D01*
X15679894Y-2898324D01*
X15601676Y-2820106D01*
X15577981Y-2766442D01*
X15559501Y-2726811D01*
X15559084Y-2723645D01*
X15556995Y-2718914D01*
X15549000Y-2650000D01*
X15549000Y-1950000D01*
X15556995Y-1881086D01*
X15559084Y-1876354D01*
X15559501Y-1873188D01*
X15577989Y-1833538D01*
X15601676Y-1779894D01*
X15679894Y-1701676D01*
X15733538Y-1677989D01*
X15773188Y-1659501D01*
X15776354Y-1659084D01*
X15781086Y-1656995D01*
X15850000Y-1649000D01*
X17150000Y-1649000D01*
X17218914Y-1656995D01*
G37*
G36*
X-2730483Y-902882D02*
G01*
X-2713938Y-913938D01*
X-2702882Y-930483D01*
X-2699000Y-950000D01*
X-2699000Y-2650000D01*
X-2702882Y-2669517D01*
X-2713938Y-2686062D01*
X-2730483Y-2697118D01*
X-2750000Y-2701000D01*
X-3650000Y-2701000D01*
X-3669517Y-2697118D01*
X-3686062Y-2686062D01*
X-3697118Y-2669517D01*
X-3701000Y-2650000D01*
X-3701000Y-950000D01*
X-3697118Y-930483D01*
X-3686062Y-913938D01*
X-3669517Y-902882D01*
X-3650000Y-899000D01*
X-2750000Y-899000D01*
X-2730483Y-902882D01*
G37*
G36*
X669517Y-902882D02*
G01*
X686062Y-913938D01*
X697118Y-930483D01*
X701000Y-950000D01*
X701000Y-2650000D01*
X697118Y-2669517D01*
X686062Y-2686062D01*
X669517Y-2697118D01*
X650000Y-2701000D01*
X-250000Y-2701000D01*
X-269517Y-2697118D01*
X-286062Y-2686062D01*
X-297118Y-2669517D01*
X-301000Y-2650000D01*
X-301000Y-950000D01*
X-297118Y-930483D01*
X-286062Y-913938D01*
X-269517Y-902882D01*
X-250000Y-899000D01*
X650000Y-899000D01*
X669517Y-902882D01*
G37*
G36*
X-20381086Y-756995D02*
G01*
X-20376355Y-759084D01*
X-20373189Y-759501D01*
X-20333558Y-777981D01*
X-20279894Y-801676D01*
X-20201676Y-879894D01*
X-20177972Y-933579D01*
X-20159502Y-973188D01*
X-20159086Y-976351D01*
X-20156995Y-981086D01*
X-20149000Y-1050000D01*
X-20149000Y-2350000D01*
X-20156995Y-2418914D01*
X-20159086Y-2423648D01*
X-20159502Y-2426811D01*
X-20177964Y-2466402D01*
X-20201676Y-2520106D01*
X-20279894Y-2598324D01*
X-20333598Y-2622036D01*
X-20373189Y-2640498D01*
X-20376352Y-2640914D01*
X-20381086Y-2643005D01*
X-20450000Y-2651000D01*
X-21150000Y-2651000D01*
X-21218914Y-2643005D01*
X-21223649Y-2640914D01*
X-21226812Y-2640498D01*
X-21266421Y-2622028D01*
X-21320106Y-2598324D01*
X-21398324Y-2520106D01*
X-21422019Y-2466442D01*
X-21440499Y-2426811D01*
X-21440916Y-2423645D01*
X-21443005Y-2418914D01*
X-21451000Y-2350000D01*
X-21451000Y-1050000D01*
X-21443005Y-981086D01*
X-21440916Y-976354D01*
X-21440499Y-973188D01*
X-21422011Y-933538D01*
X-21398324Y-879894D01*
X-21320106Y-801676D01*
X-21266462Y-777989D01*
X-21226812Y-759501D01*
X-21223646Y-759084D01*
X-21218914Y-756995D01*
X-21150000Y-749000D01*
X-20450000Y-749000D01*
X-20381086Y-756995D01*
G37*
G36*
X-12781086Y-756995D02*
G01*
X-12776355Y-759084D01*
X-12773189Y-759501D01*
X-12733558Y-777981D01*
X-12679894Y-801676D01*
X-12601676Y-879894D01*
X-12577972Y-933579D01*
X-12559502Y-973188D01*
X-12559086Y-976351D01*
X-12556995Y-981086D01*
X-12549000Y-1050000D01*
X-12549000Y-2350000D01*
X-12556995Y-2418914D01*
X-12559086Y-2423648D01*
X-12559502Y-2426811D01*
X-12577964Y-2466402D01*
X-12601676Y-2520106D01*
X-12679894Y-2598324D01*
X-12733598Y-2622036D01*
X-12773189Y-2640498D01*
X-12776352Y-2640914D01*
X-12781086Y-2643005D01*
X-12850000Y-2651000D01*
X-13550000Y-2651000D01*
X-13618914Y-2643005D01*
X-13623649Y-2640914D01*
X-13626812Y-2640498D01*
X-13666421Y-2622028D01*
X-13720106Y-2598324D01*
X-13798324Y-2520106D01*
X-13822019Y-2466442D01*
X-13840499Y-2426811D01*
X-13840916Y-2423645D01*
X-13843005Y-2418914D01*
X-13851000Y-2350000D01*
X-13851000Y-1050000D01*
X-13843005Y-981086D01*
X-13840916Y-976354D01*
X-13840499Y-973188D01*
X-13822011Y-933538D01*
X-13798324Y-879894D01*
X-13720106Y-801676D01*
X-13666462Y-777989D01*
X-13626812Y-759501D01*
X-13623646Y-759084D01*
X-13618914Y-756995D01*
X-13550000Y-749000D01*
X-12850000Y-749000D01*
X-12781086Y-756995D01*
G37*
G36*
X20714986Y-292939D02*
G01*
X20913045Y-369667D01*
X21093632Y-481482D01*
X21250599Y-624576D01*
X21378600Y-794077D01*
X21473276Y-984211D01*
X21531402Y-1188504D01*
X21551000Y-1400000D01*
X21531402Y-1611496D01*
X21473276Y-1815789D01*
X21378600Y-2005923D01*
X21250599Y-2175424D01*
X21093632Y-2318518D01*
X20913045Y-2430333D01*
X20714986Y-2507061D01*
X20506201Y-2546090D01*
X20293799Y-2546090D01*
X20085014Y-2507061D01*
X19886955Y-2430333D01*
X19706368Y-2318518D01*
X19549401Y-2175424D01*
X19421400Y-2005923D01*
X19326724Y-1815789D01*
X19268598Y-1611496D01*
X19249000Y-1400000D01*
X19268598Y-1188504D01*
X19326724Y-984211D01*
X19421400Y-794077D01*
X19549401Y-624576D01*
X19706368Y-481482D01*
X19886955Y-369667D01*
X20085014Y-292939D01*
X20293799Y-253910D01*
X20506201Y-253910D01*
X20714986Y-292939D01*
G37*
G36*
X-8545483Y-1652882D02*
G01*
X-8528938Y-1663938D01*
X-8517882Y-1680483D01*
X-8514000Y-1700000D01*
X-8514000Y-2400000D01*
X-8517882Y-2419517D01*
X-8528938Y-2436062D01*
X-8545483Y-2447118D01*
X-8565000Y-2451000D01*
X-9265000Y-2451000D01*
X-9284517Y-2447118D01*
X-9301062Y-2436062D01*
X-9312118Y-2419517D01*
X-9316000Y-2400000D01*
X-9316000Y-1700000D01*
X-9312118Y-1680483D01*
X-9301062Y-1663938D01*
X-9284517Y-1652882D01*
X-9265000Y-1649000D01*
X-8565000Y-1649000D01*
X-8545483Y-1652882D01*
G37*
G36*
X-6715483Y-1652882D02*
G01*
X-6698938Y-1663938D01*
X-6687882Y-1680483D01*
X-6684000Y-1700000D01*
X-6684000Y-2400000D01*
X-6687882Y-2419517D01*
X-6698938Y-2436062D01*
X-6715483Y-2447118D01*
X-6735000Y-2451000D01*
X-7435000Y-2451000D01*
X-7454517Y-2447118D01*
X-7471062Y-2436062D01*
X-7482118Y-2419517D01*
X-7486000Y-2400000D01*
X-7486000Y-1700000D01*
X-7482118Y-1680483D01*
X-7471062Y-1663938D01*
X-7454517Y-1652882D01*
X-7435000Y-1649000D01*
X-6735000Y-1649000D01*
X-6715483Y-1652882D01*
G37*
G36*
X-8545483Y-552882D02*
G01*
X-8528938Y-563938D01*
X-8517882Y-580483D01*
X-8514000Y-600000D01*
X-8514000Y-1300000D01*
X-8517882Y-1319517D01*
X-8528938Y-1336062D01*
X-8545483Y-1347118D01*
X-8565000Y-1351000D01*
X-9265000Y-1351000D01*
X-9284517Y-1347118D01*
X-9301062Y-1336062D01*
X-9312118Y-1319517D01*
X-9316000Y-1300000D01*
X-9316000Y-600000D01*
X-9312118Y-580483D01*
X-9301062Y-563938D01*
X-9284517Y-552882D01*
X-9265000Y-549000D01*
X-8565000Y-549000D01*
X-8545483Y-552882D01*
G37*
G36*
X-6715483Y-552882D02*
G01*
X-6698938Y-563938D01*
X-6687882Y-580483D01*
X-6684000Y-600000D01*
X-6684000Y-1300000D01*
X-6687882Y-1319517D01*
X-6698938Y-1336062D01*
X-6715483Y-1347118D01*
X-6735000Y-1351000D01*
X-7435000Y-1351000D01*
X-7454517Y-1347118D01*
X-7471062Y-1336062D01*
X-7482118Y-1319517D01*
X-7486000Y-1300000D01*
X-7486000Y-600000D01*
X-7482118Y-580483D01*
X-7471062Y-563938D01*
X-7454517Y-552882D01*
X-7435000Y-549000D01*
X-6735000Y-549000D01*
X-6715483Y-552882D01*
G37*
G36*
X3876919Y-664300D02*
G01*
X3942128Y-707872D01*
X3985700Y-773081D01*
X4001000Y-850000D01*
X4001000Y-1150000D01*
X3985700Y-1226919D01*
X3942128Y-1292128D01*
X3876919Y-1335700D01*
X3800000Y-1351000D01*
X2550000Y-1351000D01*
X2473081Y-1335700D01*
X2407872Y-1292128D01*
X2364300Y-1226919D01*
X2349000Y-1150000D01*
X2349000Y-850000D01*
X2364300Y-773081D01*
X2407872Y-707872D01*
X2473081Y-664300D01*
X2550000Y-649000D01*
X3800000Y-649000D01*
X3876919Y-664300D01*
G37*
G36*
X9276919Y-664300D02*
G01*
X9342128Y-707872D01*
X9385700Y-773081D01*
X9401000Y-850000D01*
X9401000Y-1150000D01*
X9385700Y-1226919D01*
X9342128Y-1292128D01*
X9276919Y-1335700D01*
X9200000Y-1351000D01*
X7950000Y-1351000D01*
X7873081Y-1335700D01*
X7807872Y-1292128D01*
X7764300Y-1226919D01*
X7749000Y-1150000D01*
X7749000Y-850000D01*
X7764300Y-773081D01*
X7807872Y-707872D01*
X7873081Y-664300D01*
X7950000Y-649000D01*
X9200000Y-649000D01*
X9276919Y-664300D01*
G37*
G36*
X14676919Y-664300D02*
G01*
X14742128Y-707872D01*
X14785700Y-773081D01*
X14801000Y-850000D01*
X14801000Y-1150000D01*
X14785700Y-1226919D01*
X14742128Y-1292128D01*
X14676919Y-1335700D01*
X14600000Y-1351000D01*
X13350000Y-1351000D01*
X13273081Y-1335700D01*
X13207872Y-1292128D01*
X13164300Y-1226919D01*
X13149000Y-1150000D01*
X13149000Y-850000D01*
X13164300Y-773081D01*
X13207872Y-707872D01*
X13273081Y-664300D01*
X13350000Y-649000D01*
X14600000Y-649000D01*
X14676919Y-664300D01*
G37*
G36*
X3876919Y335700D02*
G01*
X3942128Y292128D01*
X3985700Y226919D01*
X4001000Y150000D01*
X4001000Y-150000D01*
X3985700Y-226919D01*
X3942128Y-292128D01*
X3876919Y-335700D01*
X3800000Y-351000D01*
X2550000Y-351000D01*
X2473081Y-335700D01*
X2407872Y-292128D01*
X2364300Y-226919D01*
X2349000Y-150000D01*
X2349000Y150000D01*
X2364300Y226919D01*
X2407872Y292128D01*
X2473081Y335700D01*
X2550000Y351000D01*
X3800000Y351000D01*
X3876919Y335700D01*
G37*
G36*
X9276919Y335700D02*
G01*
X9342128Y292128D01*
X9385700Y226919D01*
X9401000Y150000D01*
X9401000Y-150000D01*
X9385700Y-226919D01*
X9342128Y-292128D01*
X9276919Y-335700D01*
X9200000Y-351000D01*
X7950000Y-351000D01*
X7873081Y-335700D01*
X7807872Y-292128D01*
X7764300Y-226919D01*
X7749000Y-150000D01*
X7749000Y150000D01*
X7764300Y226919D01*
X7807872Y292128D01*
X7873081Y335700D01*
X7950000Y351000D01*
X9200000Y351000D01*
X9276919Y335700D01*
G37*
G36*
X14676919Y335700D02*
G01*
X14742128Y292128D01*
X14785700Y226919D01*
X14801000Y150000D01*
X14801000Y-150000D01*
X14785700Y-226919D01*
X14742128Y-292128D01*
X14676919Y-335700D01*
X14600000Y-351000D01*
X13350000Y-351000D01*
X13273081Y-335700D01*
X13207872Y-292128D01*
X13164300Y-226919D01*
X13149000Y-150000D01*
X13149000Y150000D01*
X13164300Y226919D01*
X13207872Y292128D01*
X13273081Y335700D01*
X13350000Y351000D01*
X14600000Y351000D01*
X14676919Y335700D01*
G37*
G36*
X-19273081Y1635700D02*
G01*
X-19207872Y1592128D01*
X-19164300Y1526919D01*
X-19149000Y1450000D01*
X-19149000Y200000D01*
X-19164300Y123081D01*
X-19207872Y57872D01*
X-19273081Y14300D01*
X-19350000Y-1000D01*
X-19650000Y-1000D01*
X-19726919Y14300D01*
X-19792128Y57872D01*
X-19835700Y123081D01*
X-19851000Y200000D01*
X-19851000Y1450000D01*
X-19835700Y1526919D01*
X-19792128Y1592128D01*
X-19726919Y1635700D01*
X-19650000Y1651000D01*
X-19350000Y1651000D01*
X-19273081Y1635700D01*
G37*
G36*
X-18273081Y1635700D02*
G01*
X-18207872Y1592128D01*
X-18164300Y1526919D01*
X-18149000Y1450000D01*
X-18149000Y200000D01*
X-18164300Y123081D01*
X-18207872Y57872D01*
X-18273081Y14300D01*
X-18350000Y-1000D01*
X-18650000Y-1000D01*
X-18726919Y14300D01*
X-18792128Y57872D01*
X-18835700Y123081D01*
X-18851000Y200000D01*
X-18851000Y1450000D01*
X-18835700Y1526919D01*
X-18792128Y1592128D01*
X-18726919Y1635700D01*
X-18650000Y1651000D01*
X-18350000Y1651000D01*
X-18273081Y1635700D01*
G37*
G36*
X-17273081Y1635700D02*
G01*
X-17207872Y1592128D01*
X-17164300Y1526919D01*
X-17149000Y1450000D01*
X-17149000Y200000D01*
X-17164300Y123081D01*
X-17207872Y57872D01*
X-17273081Y14300D01*
X-17350000Y-1000D01*
X-17650000Y-1000D01*
X-17726919Y14300D01*
X-17792128Y57872D01*
X-17835700Y123081D01*
X-17851000Y200000D01*
X-17851000Y1450000D01*
X-17835700Y1526919D01*
X-17792128Y1592128D01*
X-17726919Y1635700D01*
X-17650000Y1651000D01*
X-17350000Y1651000D01*
X-17273081Y1635700D01*
G37*
G36*
X-16273081Y1635700D02*
G01*
X-16207872Y1592128D01*
X-16164300Y1526919D01*
X-16149000Y1450000D01*
X-16149000Y200000D01*
X-16164300Y123081D01*
X-16207872Y57872D01*
X-16273081Y14300D01*
X-16350000Y-1000D01*
X-16650000Y-1000D01*
X-16726919Y14300D01*
X-16792128Y57872D01*
X-16835700Y123081D01*
X-16851000Y200000D01*
X-16851000Y1450000D01*
X-16835700Y1526919D01*
X-16792128Y1592128D01*
X-16726919Y1635700D01*
X-16650000Y1651000D01*
X-16350000Y1651000D01*
X-16273081Y1635700D01*
G37*
G36*
X-15273081Y1635700D02*
G01*
X-15207872Y1592128D01*
X-15164300Y1526919D01*
X-15149000Y1450000D01*
X-15149000Y200000D01*
X-15164300Y123081D01*
X-15207872Y57872D01*
X-15273081Y14300D01*
X-15350000Y-1000D01*
X-15650000Y-1000D01*
X-15726919Y14300D01*
X-15792128Y57872D01*
X-15835700Y123081D01*
X-15851000Y200000D01*
X-15851000Y1450000D01*
X-15835700Y1526919D01*
X-15792128Y1592128D01*
X-15726919Y1635700D01*
X-15650000Y1651000D01*
X-15350000Y1651000D01*
X-15273081Y1635700D01*
G37*
G36*
X-14273081Y1635700D02*
G01*
X-14207872Y1592128D01*
X-14164300Y1526919D01*
X-14149000Y1450000D01*
X-14149000Y200000D01*
X-14164300Y123081D01*
X-14207872Y57872D01*
X-14273081Y14300D01*
X-14350000Y-1000D01*
X-14650000Y-1000D01*
X-14726919Y14300D01*
X-14792128Y57872D01*
X-14835700Y123081D01*
X-14851000Y200000D01*
X-14851000Y1450000D01*
X-14835700Y1526919D01*
X-14792128Y1592128D01*
X-14726919Y1635700D01*
X-14650000Y1651000D01*
X-14350000Y1651000D01*
X-14273081Y1635700D01*
G37*
G36*
X6418914Y1943005D02*
G01*
X6423645Y1940916D01*
X6426811Y1940499D01*
X6466442Y1922019D01*
X6520106Y1898324D01*
X6598324Y1820106D01*
X6622028Y1766421D01*
X6640498Y1726812D01*
X6640914Y1723649D01*
X6643005Y1718914D01*
X6651000Y1650000D01*
X6651000Y950000D01*
X6643005Y881086D01*
X6640914Y876352D01*
X6640498Y873189D01*
X6622036Y833598D01*
X6598324Y779894D01*
X6520106Y701676D01*
X6466402Y677964D01*
X6426811Y659502D01*
X6423648Y659086D01*
X6418914Y656995D01*
X6350000Y649000D01*
X5050000Y649000D01*
X4981086Y656995D01*
X4976351Y659086D01*
X4973188Y659502D01*
X4933579Y677972D01*
X4879894Y701676D01*
X4801676Y779894D01*
X4777981Y833558D01*
X4759501Y873189D01*
X4759084Y876355D01*
X4756995Y881086D01*
X4749000Y950000D01*
X4749000Y1650000D01*
X4756995Y1718914D01*
X4759084Y1723646D01*
X4759501Y1726812D01*
X4777989Y1766462D01*
X4801676Y1820106D01*
X4879894Y1898324D01*
X4933538Y1922011D01*
X4973188Y1940499D01*
X4976354Y1940916D01*
X4981086Y1943005D01*
X5050000Y1951000D01*
X6350000Y1951000D01*
X6418914Y1943005D01*
G37*
G36*
X11818914Y1943005D02*
G01*
X11823645Y1940916D01*
X11826811Y1940499D01*
X11866442Y1922019D01*
X11920106Y1898324D01*
X11998324Y1820106D01*
X12022028Y1766421D01*
X12040498Y1726812D01*
X12040914Y1723649D01*
X12043005Y1718914D01*
X12051000Y1650000D01*
X12051000Y950000D01*
X12043005Y881086D01*
X12040914Y876352D01*
X12040498Y873189D01*
X12022036Y833598D01*
X11998324Y779894D01*
X11920106Y701676D01*
X11866402Y677964D01*
X11826811Y659502D01*
X11823648Y659086D01*
X11818914Y656995D01*
X11750000Y649000D01*
X10450000Y649000D01*
X10381086Y656995D01*
X10376351Y659086D01*
X10373188Y659502D01*
X10333579Y677972D01*
X10279894Y701676D01*
X10201676Y779894D01*
X10177981Y833558D01*
X10159501Y873189D01*
X10159084Y876355D01*
X10156995Y881086D01*
X10149000Y950000D01*
X10149000Y1650000D01*
X10156995Y1718914D01*
X10159084Y1723646D01*
X10159501Y1726812D01*
X10177989Y1766462D01*
X10201676Y1820106D01*
X10279894Y1898324D01*
X10333538Y1922011D01*
X10373188Y1940499D01*
X10376354Y1940916D01*
X10381086Y1943005D01*
X10450000Y1951000D01*
X11750000Y1951000D01*
X11818914Y1943005D01*
G37*
G36*
X17218914Y1943005D02*
G01*
X17223645Y1940916D01*
X17226811Y1940499D01*
X17266442Y1922019D01*
X17320106Y1898324D01*
X17398324Y1820106D01*
X17422028Y1766421D01*
X17440498Y1726812D01*
X17440914Y1723649D01*
X17443005Y1718914D01*
X17451000Y1650000D01*
X17451000Y950000D01*
X17443005Y881086D01*
X17440914Y876352D01*
X17440498Y873189D01*
X17422036Y833598D01*
X17398324Y779894D01*
X17320106Y701676D01*
X17266402Y677964D01*
X17226811Y659502D01*
X17223648Y659086D01*
X17218914Y656995D01*
X17150000Y649000D01*
X15850000Y649000D01*
X15781086Y656995D01*
X15776351Y659086D01*
X15773188Y659502D01*
X15733579Y677972D01*
X15679894Y701676D01*
X15601676Y779894D01*
X15577981Y833558D01*
X15559501Y873189D01*
X15559084Y876355D01*
X15556995Y881086D01*
X15549000Y950000D01*
X15549000Y1650000D01*
X15556995Y1718914D01*
X15559084Y1723646D01*
X15559501Y1726812D01*
X15577989Y1766462D01*
X15601676Y1820106D01*
X15679894Y1898324D01*
X15733538Y1922011D01*
X15773188Y1940499D01*
X15776354Y1940916D01*
X15781086Y1943005D01*
X15850000Y1951000D01*
X17150000Y1951000D01*
X17218914Y1943005D01*
G37*
G36*
X-1880483Y3247118D02*
G01*
X-1863938Y3236062D01*
X-1852882Y3219517D01*
X-1849000Y3200000D01*
X-1849000Y2000000D01*
X-1852882Y1980483D01*
X-1863938Y1963938D01*
X-1880483Y1952882D01*
X-1900000Y1949000D01*
X-3300000Y1949000D01*
X-3319517Y1952882D01*
X-3336062Y1963938D01*
X-3347118Y1980483D01*
X-3351000Y2000000D01*
X-3351000Y3200000D01*
X-3347118Y3219517D01*
X-3336062Y3236062D01*
X-3319517Y3247118D01*
X-3300000Y3251000D01*
X-1900000Y3251000D01*
X-1880483Y3247118D01*
G37*
G36*
X319517Y3247118D02*
G01*
X336062Y3236062D01*
X347118Y3219517D01*
X351000Y3200000D01*
X351000Y2000000D01*
X347118Y1980483D01*
X336062Y1963938D01*
X319517Y1952882D01*
X300000Y1949000D01*
X-1100000Y1949000D01*
X-1119517Y1952882D01*
X-1136062Y1963938D01*
X-1147118Y1980483D01*
X-1151000Y2000000D01*
X-1151000Y3200000D01*
X-1147118Y3219517D01*
X-1136062Y3236062D01*
X-1119517Y3247118D01*
X-1100000Y3251000D01*
X300000Y3251000D01*
X319517Y3247118D01*
G37*
G36*
X-4056907Y3256461D02*
G01*
X-3994943Y3215057D01*
X-3953539Y3153093D01*
X-3939000Y3080000D01*
X-3939000Y2800000D01*
X-3953539Y2726907D01*
X-3994943Y2664943D01*
X-4056907Y2623539D01*
X-4130000Y2609000D01*
X-4470000Y2609000D01*
X-4543093Y2623539D01*
X-4605057Y2664943D01*
X-4646461Y2726907D01*
X-4661000Y2800000D01*
X-4661000Y3080000D01*
X-4646461Y3153093D01*
X-4605057Y3215057D01*
X-4543093Y3256461D01*
X-4470000Y3271000D01*
X-4130000Y3271000D01*
X-4056907Y3256461D01*
G37*
G36*
X1543093Y3336461D02*
G01*
X1605057Y3295057D01*
X1646461Y3233093D01*
X1661000Y3160000D01*
X1661000Y2880000D01*
X1646461Y2806907D01*
X1605057Y2744943D01*
X1543093Y2703539D01*
X1470000Y2689000D01*
X1130000Y2689000D01*
X1056907Y2703539D01*
X994943Y2744943D01*
X953539Y2806907D01*
X939000Y2880000D01*
X939000Y3160000D01*
X953539Y3233093D01*
X994943Y3295057D01*
X1056907Y3336461D01*
X1130000Y3351000D01*
X1470000Y3351000D01*
X1543093Y3336461D01*
G37*
G36*
X-4056907Y4216461D02*
G01*
X-3994943Y4175057D01*
X-3953539Y4113093D01*
X-3939000Y4040000D01*
X-3939000Y3760000D01*
X-3953539Y3686907D01*
X-3994943Y3624943D01*
X-4056907Y3583539D01*
X-4130000Y3569000D01*
X-4470000Y3569000D01*
X-4543093Y3583539D01*
X-4605057Y3624943D01*
X-4646461Y3686907D01*
X-4661000Y3760000D01*
X-4661000Y4040000D01*
X-4646461Y4113093D01*
X-4605057Y4175057D01*
X-4543093Y4216461D01*
X-4470000Y4231000D01*
X-4130000Y4231000D01*
X-4056907Y4216461D01*
G37*
G36*
X-1880483Y4947118D02*
G01*
X-1863938Y4936062D01*
X-1852882Y4919517D01*
X-1849000Y4900000D01*
X-1849000Y3700000D01*
X-1852882Y3680483D01*
X-1863938Y3663938D01*
X-1880483Y3652882D01*
X-1900000Y3649000D01*
X-3300000Y3649000D01*
X-3319517Y3652882D01*
X-3336062Y3663938D01*
X-3347118Y3680483D01*
X-3351000Y3700000D01*
X-3351000Y4900000D01*
X-3347118Y4919517D01*
X-3336062Y4936062D01*
X-3319517Y4947118D01*
X-3300000Y4951000D01*
X-1900000Y4951000D01*
X-1880483Y4947118D01*
G37*
G36*
X319517Y4947118D02*
G01*
X336062Y4936062D01*
X347118Y4919517D01*
X351000Y4900000D01*
X351000Y3700000D01*
X347118Y3680483D01*
X336062Y3663938D01*
X319517Y3652882D01*
X300000Y3649000D01*
X-1100000Y3649000D01*
X-1119517Y3652882D01*
X-1136062Y3663938D01*
X-1147118Y3680483D01*
X-1151000Y3700000D01*
X-1151000Y4900000D01*
X-1147118Y4919517D01*
X-1136062Y4936062D01*
X-1119517Y4947118D01*
X-1100000Y4951000D01*
X300000Y4951000D01*
X319517Y4947118D01*
G37*
G36*
X1543093Y4296461D02*
G01*
X1605057Y4255057D01*
X1646461Y4193093D01*
X1661000Y4120000D01*
X1661000Y3840000D01*
X1646461Y3766907D01*
X1605057Y3704943D01*
X1543093Y3663539D01*
X1470000Y3649000D01*
X1130000Y3649000D01*
X1056907Y3663539D01*
X994943Y3704943D01*
X953539Y3766907D01*
X939000Y3840000D01*
X939000Y4120000D01*
X953539Y4193093D01*
X994943Y4255057D01*
X1056907Y4296461D01*
X1130000Y4311000D01*
X1470000Y4311000D01*
X1543093Y4296461D01*
G37*
G36*
X-20381086Y6443005D02*
G01*
X-20376355Y6440916D01*
X-20373189Y6440499D01*
X-20333558Y6422019D01*
X-20279894Y6398324D01*
X-20201676Y6320106D01*
X-20177972Y6266421D01*
X-20159502Y6226812D01*
X-20159086Y6223649D01*
X-20156995Y6218914D01*
X-20149000Y6150000D01*
X-20149000Y4850000D01*
X-20156995Y4781086D01*
X-20159086Y4776352D01*
X-20159502Y4773189D01*
X-20177964Y4733598D01*
X-20201676Y4679894D01*
X-20279894Y4601676D01*
X-20333598Y4577964D01*
X-20373189Y4559502D01*
X-20376352Y4559086D01*
X-20381086Y4556995D01*
X-20450000Y4549000D01*
X-21150000Y4549000D01*
X-21218914Y4556995D01*
X-21223649Y4559086D01*
X-21226812Y4559502D01*
X-21266421Y4577972D01*
X-21320106Y4601676D01*
X-21398324Y4679894D01*
X-21422019Y4733558D01*
X-21440499Y4773189D01*
X-21440916Y4776355D01*
X-21443005Y4781086D01*
X-21451000Y4850000D01*
X-21451000Y6150000D01*
X-21443005Y6218914D01*
X-21440916Y6223646D01*
X-21440499Y6226812D01*
X-21422011Y6266462D01*
X-21398324Y6320106D01*
X-21320106Y6398324D01*
X-21266462Y6422011D01*
X-21226812Y6440499D01*
X-21223646Y6440916D01*
X-21218914Y6443005D01*
X-21150000Y6451000D01*
X-20450000Y6451000D01*
X-20381086Y6443005D01*
G37*
G36*
X-12781086Y6443005D02*
G01*
X-12776355Y6440916D01*
X-12773189Y6440499D01*
X-12733558Y6422019D01*
X-12679894Y6398324D01*
X-12601676Y6320106D01*
X-12577972Y6266421D01*
X-12559502Y6226812D01*
X-12559086Y6223649D01*
X-12556995Y6218914D01*
X-12549000Y6150000D01*
X-12549000Y4850000D01*
X-12556995Y4781086D01*
X-12559086Y4776352D01*
X-12559502Y4773189D01*
X-12577964Y4733598D01*
X-12601676Y4679894D01*
X-12679894Y4601676D01*
X-12733598Y4577964D01*
X-12773189Y4559502D01*
X-12776352Y4559086D01*
X-12781086Y4556995D01*
X-12850000Y4549000D01*
X-13550000Y4549000D01*
X-13618914Y4556995D01*
X-13623649Y4559086D01*
X-13626812Y4559502D01*
X-13666421Y4577972D01*
X-13720106Y4601676D01*
X-13798324Y4679894D01*
X-13822019Y4733558D01*
X-13840499Y4773189D01*
X-13840916Y4776355D01*
X-13843005Y4781086D01*
X-13851000Y4850000D01*
X-13851000Y6150000D01*
X-13843005Y6218914D01*
X-13840916Y6223646D01*
X-13840499Y6226812D01*
X-13822011Y6266462D01*
X-13798324Y6320106D01*
X-13720106Y6398324D01*
X-13666462Y6422011D01*
X-13626812Y6440499D01*
X-13623646Y6440916D01*
X-13618914Y6443005D01*
X-13550000Y6451000D01*
X-12850000Y6451000D01*
X-12781086Y6443005D01*
G37*
G36*
X10818914Y5843005D02*
G01*
X10823645Y5840916D01*
X10826811Y5840499D01*
X10866442Y5822019D01*
X10920106Y5798324D01*
X10998324Y5720106D01*
X11022028Y5666421D01*
X11040498Y5626812D01*
X11040914Y5623649D01*
X11043005Y5618914D01*
X11051000Y5550000D01*
X11051000Y4850000D01*
X11043005Y4781086D01*
X11040914Y4776352D01*
X11040498Y4773189D01*
X11022036Y4733598D01*
X10998324Y4679894D01*
X10920106Y4601676D01*
X10866402Y4577964D01*
X10826811Y4559502D01*
X10823648Y4559086D01*
X10818914Y4556995D01*
X10750000Y4549000D01*
X9450000Y4549000D01*
X9381086Y4556995D01*
X9376351Y4559086D01*
X9373188Y4559502D01*
X9333579Y4577972D01*
X9279894Y4601676D01*
X9201676Y4679894D01*
X9177981Y4733558D01*
X9159501Y4773189D01*
X9159084Y4776355D01*
X9156995Y4781086D01*
X9149000Y4850000D01*
X9149000Y5550000D01*
X9156995Y5618914D01*
X9159084Y5623646D01*
X9159501Y5626812D01*
X9177989Y5666462D01*
X9201676Y5720106D01*
X9279894Y5798324D01*
X9333538Y5822011D01*
X9373188Y5840499D01*
X9376354Y5840916D01*
X9381086Y5843005D01*
X9450000Y5851000D01*
X10750000Y5851000D01*
X10818914Y5843005D01*
G37*
G36*
X16318914Y5843005D02*
G01*
X16323645Y5840916D01*
X16326811Y5840499D01*
X16366442Y5822019D01*
X16420106Y5798324D01*
X16498324Y5720106D01*
X16522028Y5666421D01*
X16540498Y5626812D01*
X16540914Y5623649D01*
X16543005Y5618914D01*
X16551000Y5550000D01*
X16551000Y4850000D01*
X16543005Y4781086D01*
X16540914Y4776352D01*
X16540498Y4773189D01*
X16522036Y4733598D01*
X16498324Y4679894D01*
X16420106Y4601676D01*
X16366402Y4577964D01*
X16326811Y4559502D01*
X16323648Y4559086D01*
X16318914Y4556995D01*
X16250000Y4549000D01*
X14950000Y4549000D01*
X14881086Y4556995D01*
X14876351Y4559086D01*
X14873188Y4559502D01*
X14833579Y4577972D01*
X14779894Y4601676D01*
X14701676Y4679894D01*
X14677981Y4733558D01*
X14659501Y4773189D01*
X14659084Y4776355D01*
X14656995Y4781086D01*
X14649000Y4850000D01*
X14649000Y5550000D01*
X14656995Y5618914D01*
X14659084Y5623646D01*
X14659501Y5626812D01*
X14677989Y5666462D01*
X14701676Y5720106D01*
X14779894Y5798324D01*
X14833538Y5822011D01*
X14873188Y5840499D01*
X14876354Y5840916D01*
X14881086Y5843005D01*
X14950000Y5851000D01*
X16250000Y5851000D01*
X16318914Y5843005D01*
G37*
G36*
X21718914Y5843005D02*
G01*
X21723645Y5840916D01*
X21726811Y5840499D01*
X21766442Y5822019D01*
X21820106Y5798324D01*
X21898324Y5720106D01*
X21922028Y5666421D01*
X21940498Y5626812D01*
X21940914Y5623649D01*
X21943005Y5618914D01*
X21951000Y5550000D01*
X21951000Y4850000D01*
X21943005Y4781086D01*
X21940914Y4776352D01*
X21940498Y4773189D01*
X21922036Y4733598D01*
X21898324Y4679894D01*
X21820106Y4601676D01*
X21766402Y4577964D01*
X21726811Y4559502D01*
X21723648Y4559086D01*
X21718914Y4556995D01*
X21650000Y4549000D01*
X20350000Y4549000D01*
X20281086Y4556995D01*
X20276351Y4559086D01*
X20273188Y4559502D01*
X20233579Y4577972D01*
X20179894Y4601676D01*
X20101676Y4679894D01*
X20077981Y4733558D01*
X20059501Y4773189D01*
X20059084Y4776355D01*
X20056995Y4781086D01*
X20049000Y4850000D01*
X20049000Y5550000D01*
X20056995Y5618914D01*
X20059084Y5623646D01*
X20059501Y5626812D01*
X20077989Y5666462D01*
X20101676Y5720106D01*
X20179894Y5798324D01*
X20233538Y5822011D01*
X20273188Y5840499D01*
X20276354Y5840916D01*
X20281086Y5843005D01*
X20350000Y5851000D01*
X21650000Y5851000D01*
X21718914Y5843005D01*
G37*
G36*
X-2043821Y6496842D02*
G01*
X-1983478Y6456522D01*
X-1943158Y6396179D01*
X-1929000Y6325000D01*
X-1929000Y6055000D01*
X-1943158Y5983821D01*
X-1983478Y5923478D01*
X-2043821Y5883158D01*
X-2115000Y5869000D01*
X-2485000Y5869000D01*
X-2556179Y5883158D01*
X-2616522Y5923478D01*
X-2656842Y5983821D01*
X-2671000Y6055000D01*
X-2671000Y6325000D01*
X-2656842Y6396179D01*
X-2616522Y6456522D01*
X-2556179Y6496842D01*
X-2485000Y6511000D01*
X-2115000Y6511000D01*
X-2043821Y6496842D01*
G37*
G36*
X-875907Y6576461D02*
G01*
X-813943Y6535057D01*
X-772539Y6473093D01*
X-758000Y6400000D01*
X-758000Y6120000D01*
X-772539Y6046907D01*
X-813943Y5984943D01*
X-875907Y5943539D01*
X-949000Y5929000D01*
X-1289000Y5929000D01*
X-1362093Y5943539D01*
X-1424057Y5984943D01*
X-1465461Y6046907D01*
X-1480000Y6120000D01*
X-1480000Y6400000D01*
X-1465461Y6473093D01*
X-1424057Y6535057D01*
X-1362093Y6576461D01*
X-1289000Y6591000D01*
X-949000Y6591000D01*
X-875907Y6576461D01*
G37*
G36*
X243093Y6576461D02*
G01*
X305057Y6535057D01*
X346461Y6473093D01*
X361000Y6400000D01*
X361000Y6120000D01*
X346461Y6046907D01*
X305057Y5984943D01*
X243093Y5943539D01*
X170000Y5929000D01*
X-170000Y5929000D01*
X-243093Y5943539D01*
X-305057Y5984943D01*
X-346461Y6046907D01*
X-361000Y6120000D01*
X-361000Y6400000D01*
X-346461Y6473093D01*
X-305057Y6535057D01*
X-243093Y6576461D01*
X-170000Y6591000D01*
X170000Y6591000D01*
X243093Y6576461D01*
G37*
G36*
X8276919Y6835700D02*
G01*
X8342128Y6792128D01*
X8385700Y6726919D01*
X8401000Y6650000D01*
X8401000Y6350000D01*
X8385700Y6273081D01*
X8342128Y6207872D01*
X8276919Y6164300D01*
X8200000Y6149000D01*
X6950000Y6149000D01*
X6873081Y6164300D01*
X6807872Y6207872D01*
X6764300Y6273081D01*
X6749000Y6350000D01*
X6749000Y6650000D01*
X6764300Y6726919D01*
X6807872Y6792128D01*
X6873081Y6835700D01*
X6950000Y6851000D01*
X8200000Y6851000D01*
X8276919Y6835700D01*
G37*
G36*
X13776919Y6835700D02*
G01*
X13842128Y6792128D01*
X13885700Y6726919D01*
X13901000Y6650000D01*
X13901000Y6350000D01*
X13885700Y6273081D01*
X13842128Y6207872D01*
X13776919Y6164300D01*
X13700000Y6149000D01*
X12450000Y6149000D01*
X12373081Y6164300D01*
X12307872Y6207872D01*
X12264300Y6273081D01*
X12249000Y6350000D01*
X12249000Y6650000D01*
X12264300Y6726919D01*
X12307872Y6792128D01*
X12373081Y6835700D01*
X12450000Y6851000D01*
X13700000Y6851000D01*
X13776919Y6835700D01*
G37*
G36*
X19176919Y6835700D02*
G01*
X19242128Y6792128D01*
X19285700Y6726919D01*
X19301000Y6650000D01*
X19301000Y6350000D01*
X19285700Y6273081D01*
X19242128Y6207872D01*
X19176919Y6164300D01*
X19100000Y6149000D01*
X17850000Y6149000D01*
X17773081Y6164300D01*
X17707872Y6207872D01*
X17664300Y6273081D01*
X17649000Y6350000D01*
X17649000Y6650000D01*
X17664300Y6726919D01*
X17707872Y6792128D01*
X17773081Y6835700D01*
X17850000Y6851000D01*
X19100000Y6851000D01*
X19176919Y6835700D01*
G37*
G36*
X-2043821Y7516842D02*
G01*
X-1983478Y7476522D01*
X-1943158Y7416179D01*
X-1929000Y7345000D01*
X-1929000Y7075000D01*
X-1943158Y7003821D01*
X-1983478Y6943478D01*
X-2043821Y6903158D01*
X-2115000Y6889000D01*
X-2485000Y6889000D01*
X-2556179Y6903158D01*
X-2616522Y6943478D01*
X-2656842Y7003821D01*
X-2671000Y7075000D01*
X-2671000Y7345000D01*
X-2656842Y7416179D01*
X-2616522Y7476522D01*
X-2556179Y7516842D01*
X-2485000Y7531000D01*
X-2115000Y7531000D01*
X-2043821Y7516842D01*
G37*
G36*
X-875907Y7536461D02*
G01*
X-813943Y7495057D01*
X-772539Y7433093D01*
X-758000Y7360000D01*
X-758000Y7080000D01*
X-772539Y7006907D01*
X-813943Y6944943D01*
X-875907Y6903539D01*
X-949000Y6889000D01*
X-1289000Y6889000D01*
X-1362093Y6903539D01*
X-1424057Y6944943D01*
X-1465461Y7006907D01*
X-1480000Y7080000D01*
X-1480000Y7360000D01*
X-1465461Y7433093D01*
X-1424057Y7495057D01*
X-1362093Y7536461D01*
X-1289000Y7551000D01*
X-949000Y7551000D01*
X-875907Y7536461D01*
G37*
G36*
X243093Y7536461D02*
G01*
X305057Y7495057D01*
X346461Y7433093D01*
X361000Y7360000D01*
X361000Y7080000D01*
X346461Y7006907D01*
X305057Y6944943D01*
X243093Y6903539D01*
X170000Y6889000D01*
X-170000Y6889000D01*
X-243093Y6903539D01*
X-305057Y6944943D01*
X-346461Y7006907D01*
X-361000Y7080000D01*
X-361000Y7360000D01*
X-346461Y7433093D01*
X-305057Y7495057D01*
X-243093Y7536461D01*
X-170000Y7551000D01*
X170000Y7551000D01*
X243093Y7536461D01*
G37*
G36*
X8276919Y7835700D02*
G01*
X8342128Y7792128D01*
X8385700Y7726919D01*
X8401000Y7650000D01*
X8401000Y7350000D01*
X8385700Y7273081D01*
X8342128Y7207872D01*
X8276919Y7164300D01*
X8200000Y7149000D01*
X6950000Y7149000D01*
X6873081Y7164300D01*
X6807872Y7207872D01*
X6764300Y7273081D01*
X6749000Y7350000D01*
X6749000Y7650000D01*
X6764300Y7726919D01*
X6807872Y7792128D01*
X6873081Y7835700D01*
X6950000Y7851000D01*
X8200000Y7851000D01*
X8276919Y7835700D01*
G37*
G36*
X13776919Y7835700D02*
G01*
X13842128Y7792128D01*
X13885700Y7726919D01*
X13901000Y7650000D01*
X13901000Y7350000D01*
X13885700Y7273081D01*
X13842128Y7207872D01*
X13776919Y7164300D01*
X13700000Y7149000D01*
X12450000Y7149000D01*
X12373081Y7164300D01*
X12307872Y7207872D01*
X12264300Y7273081D01*
X12249000Y7350000D01*
X12249000Y7650000D01*
X12264300Y7726919D01*
X12307872Y7792128D01*
X12373081Y7835700D01*
X12450000Y7851000D01*
X13700000Y7851000D01*
X13776919Y7835700D01*
G37*
G36*
X19176919Y7835700D02*
G01*
X19242128Y7792128D01*
X19285700Y7726919D01*
X19301000Y7650000D01*
X19301000Y7350000D01*
X19285700Y7273081D01*
X19242128Y7207872D01*
X19176919Y7164300D01*
X19100000Y7149000D01*
X17850000Y7149000D01*
X17773081Y7164300D01*
X17707872Y7207872D01*
X17664300Y7273081D01*
X17649000Y7350000D01*
X17649000Y7650000D01*
X17664300Y7726919D01*
X17707872Y7792128D01*
X17773081Y7835700D01*
X17850000Y7851000D01*
X19100000Y7851000D01*
X19176919Y7835700D01*
G37*
G36*
X-19273081Y8835700D02*
G01*
X-19207872Y8792128D01*
X-19164300Y8726919D01*
X-19149000Y8650000D01*
X-19149000Y7400000D01*
X-19164300Y7323081D01*
X-19207872Y7257872D01*
X-19273081Y7214300D01*
X-19350000Y7199000D01*
X-19650000Y7199000D01*
X-19726919Y7214300D01*
X-19792128Y7257872D01*
X-19835700Y7323081D01*
X-19851000Y7400000D01*
X-19851000Y8650000D01*
X-19835700Y8726919D01*
X-19792128Y8792128D01*
X-19726919Y8835700D01*
X-19650000Y8851000D01*
X-19350000Y8851000D01*
X-19273081Y8835700D01*
G37*
G36*
X-18273081Y8835700D02*
G01*
X-18207872Y8792128D01*
X-18164300Y8726919D01*
X-18149000Y8650000D01*
X-18149000Y7400000D01*
X-18164300Y7323081D01*
X-18207872Y7257872D01*
X-18273081Y7214300D01*
X-18350000Y7199000D01*
X-18650000Y7199000D01*
X-18726919Y7214300D01*
X-18792128Y7257872D01*
X-18835700Y7323081D01*
X-18851000Y7400000D01*
X-18851000Y8650000D01*
X-18835700Y8726919D01*
X-18792128Y8792128D01*
X-18726919Y8835700D01*
X-18650000Y8851000D01*
X-18350000Y8851000D01*
X-18273081Y8835700D01*
G37*
G36*
X-17273081Y8835700D02*
G01*
X-17207872Y8792128D01*
X-17164300Y8726919D01*
X-17149000Y8650000D01*
X-17149000Y7400000D01*
X-17164300Y7323081D01*
X-17207872Y7257872D01*
X-17273081Y7214300D01*
X-17350000Y7199000D01*
X-17650000Y7199000D01*
X-17726919Y7214300D01*
X-17792128Y7257872D01*
X-17835700Y7323081D01*
X-17851000Y7400000D01*
X-17851000Y8650000D01*
X-17835700Y8726919D01*
X-17792128Y8792128D01*
X-17726919Y8835700D01*
X-17650000Y8851000D01*
X-17350000Y8851000D01*
X-17273081Y8835700D01*
G37*
G36*
X-16273081Y8835700D02*
G01*
X-16207872Y8792128D01*
X-16164300Y8726919D01*
X-16149000Y8650000D01*
X-16149000Y7400000D01*
X-16164300Y7323081D01*
X-16207872Y7257872D01*
X-16273081Y7214300D01*
X-16350000Y7199000D01*
X-16650000Y7199000D01*
X-16726919Y7214300D01*
X-16792128Y7257872D01*
X-16835700Y7323081D01*
X-16851000Y7400000D01*
X-16851000Y8650000D01*
X-16835700Y8726919D01*
X-16792128Y8792128D01*
X-16726919Y8835700D01*
X-16650000Y8851000D01*
X-16350000Y8851000D01*
X-16273081Y8835700D01*
G37*
G36*
X-15273081Y8835700D02*
G01*
X-15207872Y8792128D01*
X-15164300Y8726919D01*
X-15149000Y8650000D01*
X-15149000Y7400000D01*
X-15164300Y7323081D01*
X-15207872Y7257872D01*
X-15273081Y7214300D01*
X-15350000Y7199000D01*
X-15650000Y7199000D01*
X-15726919Y7214300D01*
X-15792128Y7257872D01*
X-15835700Y7323081D01*
X-15851000Y7400000D01*
X-15851000Y8650000D01*
X-15835700Y8726919D01*
X-15792128Y8792128D01*
X-15726919Y8835700D01*
X-15650000Y8851000D01*
X-15350000Y8851000D01*
X-15273081Y8835700D01*
G37*
G36*
X-14273081Y8835700D02*
G01*
X-14207872Y8792128D01*
X-14164300Y8726919D01*
X-14149000Y8650000D01*
X-14149000Y7400000D01*
X-14164300Y7323081D01*
X-14207872Y7257872D01*
X-14273081Y7214300D01*
X-14350000Y7199000D01*
X-14650000Y7199000D01*
X-14726919Y7214300D01*
X-14792128Y7257872D01*
X-14835700Y7323081D01*
X-14851000Y7400000D01*
X-14851000Y8650000D01*
X-14835700Y8726919D01*
X-14792128Y8792128D01*
X-14726919Y8835700D01*
X-14650000Y8851000D01*
X-14350000Y8851000D01*
X-14273081Y8835700D01*
G37*
G36*
X10818914Y9443005D02*
G01*
X10823645Y9440916D01*
X10826811Y9440499D01*
X10866442Y9422019D01*
X10920106Y9398324D01*
X10998324Y9320106D01*
X11022028Y9266421D01*
X11040498Y9226812D01*
X11040914Y9223649D01*
X11043005Y9218914D01*
X11051000Y9150000D01*
X11051000Y8450000D01*
X11043005Y8381086D01*
X11040914Y8376352D01*
X11040498Y8373189D01*
X11022036Y8333598D01*
X10998324Y8279894D01*
X10920106Y8201676D01*
X10866402Y8177964D01*
X10826811Y8159502D01*
X10823648Y8159086D01*
X10818914Y8156995D01*
X10750000Y8149000D01*
X9450000Y8149000D01*
X9381086Y8156995D01*
X9376351Y8159086D01*
X9373188Y8159502D01*
X9333579Y8177972D01*
X9279894Y8201676D01*
X9201676Y8279894D01*
X9177981Y8333558D01*
X9159501Y8373189D01*
X9159084Y8376355D01*
X9156995Y8381086D01*
X9149000Y8450000D01*
X9149000Y9150000D01*
X9156995Y9218914D01*
X9159084Y9223646D01*
X9159501Y9226812D01*
X9177989Y9266462D01*
X9201676Y9320106D01*
X9279894Y9398324D01*
X9333538Y9422011D01*
X9373188Y9440499D01*
X9376354Y9440916D01*
X9381086Y9443005D01*
X9450000Y9451000D01*
X10750000Y9451000D01*
X10818914Y9443005D01*
G37*
G36*
X16318914Y9443005D02*
G01*
X16323645Y9440916D01*
X16326811Y9440499D01*
X16366442Y9422019D01*
X16420106Y9398324D01*
X16498324Y9320106D01*
X16522028Y9266421D01*
X16540498Y9226812D01*
X16540914Y9223649D01*
X16543005Y9218914D01*
X16551000Y9150000D01*
X16551000Y8450000D01*
X16543005Y8381086D01*
X16540914Y8376352D01*
X16540498Y8373189D01*
X16522036Y8333598D01*
X16498324Y8279894D01*
X16420106Y8201676D01*
X16366402Y8177964D01*
X16326811Y8159502D01*
X16323648Y8159086D01*
X16318914Y8156995D01*
X16250000Y8149000D01*
X14950000Y8149000D01*
X14881086Y8156995D01*
X14876351Y8159086D01*
X14873188Y8159502D01*
X14833579Y8177972D01*
X14779894Y8201676D01*
X14701676Y8279894D01*
X14677981Y8333558D01*
X14659501Y8373189D01*
X14659084Y8376355D01*
X14656995Y8381086D01*
X14649000Y8450000D01*
X14649000Y9150000D01*
X14656995Y9218914D01*
X14659084Y9223646D01*
X14659501Y9226812D01*
X14677989Y9266462D01*
X14701676Y9320106D01*
X14779894Y9398324D01*
X14833538Y9422011D01*
X14873188Y9440499D01*
X14876354Y9440916D01*
X14881086Y9443005D01*
X14950000Y9451000D01*
X16250000Y9451000D01*
X16318914Y9443005D01*
G37*
G36*
X21718914Y9443005D02*
G01*
X21723645Y9440916D01*
X21726811Y9440499D01*
X21766442Y9422019D01*
X21820106Y9398324D01*
X21898324Y9320106D01*
X21922028Y9266421D01*
X21940498Y9226812D01*
X21940914Y9223649D01*
X21943005Y9218914D01*
X21951000Y9150000D01*
X21951000Y8450000D01*
X21943005Y8381086D01*
X21940914Y8376352D01*
X21940498Y8373189D01*
X21922036Y8333598D01*
X21898324Y8279894D01*
X21820106Y8201676D01*
X21766402Y8177964D01*
X21726811Y8159502D01*
X21723648Y8159086D01*
X21718914Y8156995D01*
X21650000Y8149000D01*
X20350000Y8149000D01*
X20281086Y8156995D01*
X20276351Y8159086D01*
X20273188Y8159502D01*
X20233579Y8177972D01*
X20179894Y8201676D01*
X20101676Y8279894D01*
X20077981Y8333558D01*
X20059501Y8373189D01*
X20059084Y8376355D01*
X20056995Y8381086D01*
X20049000Y8450000D01*
X20049000Y9150000D01*
X20056995Y9218914D01*
X20059084Y9223646D01*
X20059501Y9226812D01*
X20077989Y9266462D01*
X20101676Y9320106D01*
X20179894Y9398324D01*
X20233538Y9422011D01*
X20273188Y9440499D01*
X20276354Y9440916D01*
X20281086Y9443005D01*
X20350000Y9451000D01*
X21650000Y9451000D01*
X21718914Y9443005D01*
G37*
G36*
X-4011349Y10268312D02*
G01*
X-3978582Y10246418D01*
X-3956688Y10213651D01*
X-3949000Y10175000D01*
X-3949000Y9400000D01*
X-3956688Y9361349D01*
X-3978582Y9328582D01*
X-4011349Y9306688D01*
X-4050000Y9299000D01*
X-4150000Y9299000D01*
X-4188651Y9306688D01*
X-4221418Y9328582D01*
X-4243312Y9361349D01*
X-4251000Y9400000D01*
X-4251000Y10175000D01*
X-4243312Y10213651D01*
X-4221418Y10246418D01*
X-4188651Y10268312D01*
X-4150000Y10276000D01*
X-4050000Y10276000D01*
X-4011349Y10268312D01*
G37*
G36*
X-3611349Y10268312D02*
G01*
X-3578582Y10246418D01*
X-3556688Y10213651D01*
X-3549000Y10175000D01*
X-3549000Y9400000D01*
X-3556688Y9361349D01*
X-3578582Y9328582D01*
X-3611349Y9306688D01*
X-3650000Y9299000D01*
X-3750000Y9299000D01*
X-3788651Y9306688D01*
X-3821418Y9328582D01*
X-3843312Y9361349D01*
X-3851000Y9400000D01*
X-3851000Y10175000D01*
X-3843312Y10213651D01*
X-3821418Y10246418D01*
X-3788651Y10268312D01*
X-3750000Y10276000D01*
X-3650000Y10276000D01*
X-3611349Y10268312D01*
G37*
G36*
X-3211349Y10268312D02*
G01*
X-3178582Y10246418D01*
X-3156688Y10213651D01*
X-3149000Y10175000D01*
X-3149000Y9400000D01*
X-3156688Y9361349D01*
X-3178582Y9328582D01*
X-3211349Y9306688D01*
X-3250000Y9299000D01*
X-3350000Y9299000D01*
X-3388651Y9306688D01*
X-3421418Y9328582D01*
X-3443312Y9361349D01*
X-3451000Y9400000D01*
X-3451000Y10175000D01*
X-3443312Y10213651D01*
X-3421418Y10246418D01*
X-3388651Y10268312D01*
X-3350000Y10276000D01*
X-3250000Y10276000D01*
X-3211349Y10268312D01*
G37*
G36*
X-2811349Y10268312D02*
G01*
X-2778582Y10246418D01*
X-2756688Y10213651D01*
X-2749000Y10175000D01*
X-2749000Y9400000D01*
X-2756688Y9361349D01*
X-2778582Y9328582D01*
X-2811349Y9306688D01*
X-2850000Y9299000D01*
X-2950000Y9299000D01*
X-2988651Y9306688D01*
X-3021418Y9328582D01*
X-3043312Y9361349D01*
X-3051000Y9400000D01*
X-3051000Y10175000D01*
X-3043312Y10213651D01*
X-3021418Y10246418D01*
X-2988651Y10268312D01*
X-2950000Y10276000D01*
X-2850000Y10276000D01*
X-2811349Y10268312D01*
G37*
G36*
X-2411349Y10268312D02*
G01*
X-2378582Y10246418D01*
X-2356688Y10213651D01*
X-2349000Y10175000D01*
X-2349000Y9400000D01*
X-2356688Y9361349D01*
X-2378582Y9328582D01*
X-2411349Y9306688D01*
X-2450000Y9299000D01*
X-2550000Y9299000D01*
X-2588651Y9306688D01*
X-2621418Y9328582D01*
X-2643312Y9361349D01*
X-2651000Y9400000D01*
X-2651000Y10175000D01*
X-2643312Y10213651D01*
X-2621418Y10246418D01*
X-2588651Y10268312D01*
X-2550000Y10276000D01*
X-2450000Y10276000D01*
X-2411349Y10268312D01*
G37*
G36*
X-2011349Y10268312D02*
G01*
X-1978582Y10246418D01*
X-1956688Y10213651D01*
X-1949000Y10175000D01*
X-1949000Y9400000D01*
X-1956688Y9361349D01*
X-1978582Y9328582D01*
X-2011349Y9306688D01*
X-2050000Y9299000D01*
X-2150000Y9299000D01*
X-2188651Y9306688D01*
X-2221418Y9328582D01*
X-2243312Y9361349D01*
X-2251000Y9400000D01*
X-2251000Y10175000D01*
X-2243312Y10213651D01*
X-2221418Y10246418D01*
X-2188651Y10268312D01*
X-2150000Y10276000D01*
X-2050000Y10276000D01*
X-2011349Y10268312D01*
G37*
G36*
X-1611349Y10268312D02*
G01*
X-1578582Y10246418D01*
X-1556688Y10213651D01*
X-1549000Y10175000D01*
X-1549000Y9400000D01*
X-1556688Y9361349D01*
X-1578582Y9328582D01*
X-1611349Y9306688D01*
X-1650000Y9299000D01*
X-1750000Y9299000D01*
X-1788651Y9306688D01*
X-1821418Y9328582D01*
X-1843312Y9361349D01*
X-1851000Y9400000D01*
X-1851000Y10175000D01*
X-1843312Y10213651D01*
X-1821418Y10246418D01*
X-1788651Y10268312D01*
X-1750000Y10276000D01*
X-1650000Y10276000D01*
X-1611349Y10268312D01*
G37*
G36*
X-1211349Y10268312D02*
G01*
X-1178582Y10246418D01*
X-1156688Y10213651D01*
X-1149000Y10175000D01*
X-1149000Y9400000D01*
X-1156688Y9361349D01*
X-1178582Y9328582D01*
X-1211349Y9306688D01*
X-1250000Y9299000D01*
X-1350000Y9299000D01*
X-1388651Y9306688D01*
X-1421418Y9328582D01*
X-1443312Y9361349D01*
X-1451000Y9400000D01*
X-1451000Y10175000D01*
X-1443312Y10213651D01*
X-1421418Y10246418D01*
X-1388651Y10268312D01*
X-1350000Y10276000D01*
X-1250000Y10276000D01*
X-1211349Y10268312D01*
G37*
G36*
X-811349Y10268312D02*
G01*
X-778582Y10246418D01*
X-756688Y10213651D01*
X-749000Y10175000D01*
X-749000Y9400000D01*
X-756688Y9361349D01*
X-778582Y9328582D01*
X-811349Y9306688D01*
X-850000Y9299000D01*
X-950000Y9299000D01*
X-988651Y9306688D01*
X-1021418Y9328582D01*
X-1043312Y9361349D01*
X-1051000Y9400000D01*
X-1051000Y10175000D01*
X-1043312Y10213651D01*
X-1021418Y10246418D01*
X-988651Y10268312D01*
X-950000Y10276000D01*
X-850000Y10276000D01*
X-811349Y10268312D01*
G37*
G36*
X-411349Y10268312D02*
G01*
X-378582Y10246418D01*
X-356688Y10213651D01*
X-349000Y10175000D01*
X-349000Y9400000D01*
X-356688Y9361349D01*
X-378582Y9328582D01*
X-411349Y9306688D01*
X-450000Y9299000D01*
X-550000Y9299000D01*
X-588651Y9306688D01*
X-621418Y9328582D01*
X-643312Y9361349D01*
X-651000Y9400000D01*
X-651000Y10175000D01*
X-643312Y10213651D01*
X-621418Y10246418D01*
X-588651Y10268312D01*
X-550000Y10276000D01*
X-450000Y10276000D01*
X-411349Y10268312D01*
G37*
G36*
X-11349Y10268312D02*
G01*
X21418Y10246418D01*
X43312Y10213651D01*
X51000Y10175000D01*
X51000Y9400000D01*
X43312Y9361349D01*
X21418Y9328582D01*
X-11349Y9306688D01*
X-50000Y9299000D01*
X-150000Y9299000D01*
X-188651Y9306688D01*
X-221418Y9328582D01*
X-243312Y9361349D01*
X-251000Y9400000D01*
X-251000Y10175000D01*
X-243312Y10213651D01*
X-221418Y10246418D01*
X-188651Y10268312D01*
X-150000Y10276000D01*
X-50000Y10276000D01*
X-11349Y10268312D01*
G37*
G36*
X388651Y10268312D02*
G01*
X421418Y10246418D01*
X443312Y10213651D01*
X451000Y10175000D01*
X451000Y9400000D01*
X443312Y9361349D01*
X421418Y9328582D01*
X388651Y9306688D01*
X350000Y9299000D01*
X250000Y9299000D01*
X211349Y9306688D01*
X178582Y9328582D01*
X156688Y9361349D01*
X149000Y9400000D01*
X149000Y10175000D01*
X156688Y10213651D01*
X178582Y10246418D01*
X211349Y10268312D01*
X250000Y10276000D01*
X350000Y10276000D01*
X388651Y10268312D01*
G37*
G36*
X788651Y10268312D02*
G01*
X821418Y10246418D01*
X843312Y10213651D01*
X851000Y10175000D01*
X851000Y9400000D01*
X843312Y9361349D01*
X821418Y9328582D01*
X788651Y9306688D01*
X750000Y9299000D01*
X650000Y9299000D01*
X611349Y9306688D01*
X578582Y9328582D01*
X556688Y9361349D01*
X549000Y9400000D01*
X549000Y10175000D01*
X556688Y10213651D01*
X578582Y10246418D01*
X611349Y10268312D01*
X650000Y10276000D01*
X750000Y10276000D01*
X788651Y10268312D01*
G37*
G36*
X1188651Y10268312D02*
G01*
X1221418Y10246418D01*
X1243312Y10213651D01*
X1251000Y10175000D01*
X1251000Y9400000D01*
X1243312Y9361349D01*
X1221418Y9328582D01*
X1188651Y9306688D01*
X1150000Y9299000D01*
X1050000Y9299000D01*
X1011349Y9306688D01*
X978582Y9328582D01*
X956688Y9361349D01*
X949000Y9400000D01*
X949000Y10175000D01*
X956688Y10213651D01*
X978582Y10246418D01*
X1011349Y10268312D01*
X1050000Y10276000D01*
X1150000Y10276000D01*
X1188651Y10268312D01*
G37*
G36*
X-4511349Y10768312D02*
G01*
X-4478582Y10746418D01*
X-4456688Y10713651D01*
X-4449000Y10675000D01*
X-4449000Y10575000D01*
X-4456688Y10536349D01*
X-4478582Y10503582D01*
X-4511349Y10481688D01*
X-4550000Y10474000D01*
X-5325000Y10474000D01*
X-5363651Y10481688D01*
X-5396418Y10503582D01*
X-5418312Y10536349D01*
X-5426000Y10575000D01*
X-5426000Y10675000D01*
X-5418312Y10713651D01*
X-5396418Y10746418D01*
X-5363651Y10768312D01*
X-5325000Y10776000D01*
X-4550000Y10776000D01*
X-4511349Y10768312D01*
G37*
G36*
X2363651Y10768312D02*
G01*
X2396418Y10746418D01*
X2418312Y10713651D01*
X2426000Y10675000D01*
X2426000Y10575000D01*
X2418312Y10536349D01*
X2396418Y10503582D01*
X2363651Y10481688D01*
X2325000Y10474000D01*
X1550000Y10474000D01*
X1511349Y10481688D01*
X1478582Y10503582D01*
X1456688Y10536349D01*
X1449000Y10575000D01*
X1449000Y10675000D01*
X1456688Y10713651D01*
X1478582Y10746418D01*
X1511349Y10768312D01*
X1550000Y10776000D01*
X2325000Y10776000D01*
X2363651Y10768312D01*
G37*
G36*
X-4511349Y11168312D02*
G01*
X-4478582Y11146418D01*
X-4456688Y11113651D01*
X-4449000Y11075000D01*
X-4449000Y10975000D01*
X-4456688Y10936349D01*
X-4478582Y10903582D01*
X-4511349Y10881688D01*
X-4550000Y10874000D01*
X-5325000Y10874000D01*
X-5363651Y10881688D01*
X-5396418Y10903582D01*
X-5418312Y10936349D01*
X-5426000Y10975000D01*
X-5426000Y11075000D01*
X-5418312Y11113651D01*
X-5396418Y11146418D01*
X-5363651Y11168312D01*
X-5325000Y11176000D01*
X-4550000Y11176000D01*
X-4511349Y11168312D01*
G37*
G36*
X2363651Y11168312D02*
G01*
X2396418Y11146418D01*
X2418312Y11113651D01*
X2426000Y11075000D01*
X2426000Y10975000D01*
X2418312Y10936349D01*
X2396418Y10903582D01*
X2363651Y10881688D01*
X2325000Y10874000D01*
X1550000Y10874000D01*
X1511349Y10881688D01*
X1478582Y10903582D01*
X1456688Y10936349D01*
X1449000Y10975000D01*
X1449000Y11075000D01*
X1456688Y11113651D01*
X1478582Y11146418D01*
X1511349Y11168312D01*
X1550000Y11176000D01*
X2325000Y11176000D01*
X2363651Y11168312D01*
G37*
G36*
X-4511349Y11568312D02*
G01*
X-4478582Y11546418D01*
X-4456688Y11513651D01*
X-4449000Y11475000D01*
X-4449000Y11375000D01*
X-4456688Y11336349D01*
X-4478582Y11303582D01*
X-4511349Y11281688D01*
X-4550000Y11274000D01*
X-5325000Y11274000D01*
X-5363651Y11281688D01*
X-5396418Y11303582D01*
X-5418312Y11336349D01*
X-5426000Y11375000D01*
X-5426000Y11475000D01*
X-5418312Y11513651D01*
X-5396418Y11546418D01*
X-5363651Y11568312D01*
X-5325000Y11576000D01*
X-4550000Y11576000D01*
X-4511349Y11568312D01*
G37*
G36*
X2363651Y11568312D02*
G01*
X2396418Y11546418D01*
X2418312Y11513651D01*
X2426000Y11475000D01*
X2426000Y11375000D01*
X2418312Y11336349D01*
X2396418Y11303582D01*
X2363651Y11281688D01*
X2325000Y11274000D01*
X1550000Y11274000D01*
X1511349Y11281688D01*
X1478582Y11303582D01*
X1456688Y11336349D01*
X1449000Y11375000D01*
X1449000Y11475000D01*
X1456688Y11513651D01*
X1478582Y11546418D01*
X1511349Y11568312D01*
X1550000Y11576000D01*
X2325000Y11576000D01*
X2363651Y11568312D01*
G37*
G36*
X30623Y14861157D02*
G01*
X93886Y14818886D01*
X136157Y14755623D01*
X151000Y14681000D01*
X151000Y11769000D01*
X136157Y11694377D01*
X93886Y11631114D01*
X30623Y11588843D01*
X-44000Y11574000D01*
X-2956000Y11574000D01*
X-3030623Y11588843D01*
X-3093886Y11631114D01*
X-3136157Y11694377D01*
X-3151000Y11769000D01*
X-3151000Y14681000D01*
X-3136157Y14755623D01*
X-3093886Y14818886D01*
X-3030623Y14861157D01*
X-2956000Y14876000D01*
X-44000Y14876000D01*
X30623Y14861157D01*
G37*
G36*
X-7066907Y12346461D02*
G01*
X-7004943Y12305057D01*
X-6963539Y12243093D01*
X-6949000Y12170000D01*
X-6949000Y11830000D01*
X-6963539Y11756907D01*
X-7004943Y11694943D01*
X-7066907Y11653539D01*
X-7140000Y11639000D01*
X-7420000Y11639000D01*
X-7493093Y11653539D01*
X-7555057Y11694943D01*
X-7596461Y11756907D01*
X-7611000Y11830000D01*
X-7611000Y12170000D01*
X-7596461Y12243093D01*
X-7555057Y12305057D01*
X-7493093Y12346461D01*
X-7420000Y12361000D01*
X-7140000Y12361000D01*
X-7066907Y12346461D01*
G37*
G36*
X-6106907Y12346461D02*
G01*
X-6044943Y12305057D01*
X-6003539Y12243093D01*
X-5989000Y12170000D01*
X-5989000Y11830000D01*
X-6003539Y11756907D01*
X-6044943Y11694943D01*
X-6106907Y11653539D01*
X-6180000Y11639000D01*
X-6460000Y11639000D01*
X-6533093Y11653539D01*
X-6595057Y11694943D01*
X-6636461Y11756907D01*
X-6651000Y11830000D01*
X-6651000Y12170000D01*
X-6636461Y12243093D01*
X-6595057Y12305057D01*
X-6533093Y12346461D01*
X-6460000Y12361000D01*
X-6180000Y12361000D01*
X-6106907Y12346461D01*
G37*
G36*
X3633093Y12346461D02*
G01*
X3695057Y12305057D01*
X3736461Y12243093D01*
X3751000Y12170000D01*
X3751000Y11830000D01*
X3736461Y11756907D01*
X3695057Y11694943D01*
X3633093Y11653539D01*
X3560000Y11639000D01*
X3280000Y11639000D01*
X3206907Y11653539D01*
X3144943Y11694943D01*
X3103539Y11756907D01*
X3089000Y11830000D01*
X3089000Y12170000D01*
X3103539Y12243093D01*
X3144943Y12305057D01*
X3206907Y12346461D01*
X3280000Y12361000D01*
X3560000Y12361000D01*
X3633093Y12346461D01*
G37*
G36*
X4593093Y12346461D02*
G01*
X4655057Y12305057D01*
X4696461Y12243093D01*
X4711000Y12170000D01*
X4711000Y11830000D01*
X4696461Y11756907D01*
X4655057Y11694943D01*
X4593093Y11653539D01*
X4520000Y11639000D01*
X4240000Y11639000D01*
X4166907Y11653539D01*
X4104943Y11694943D01*
X4063539Y11756907D01*
X4049000Y11830000D01*
X4049000Y12170000D01*
X4063539Y12243093D01*
X4104943Y12305057D01*
X4166907Y12346461D01*
X4240000Y12361000D01*
X4520000Y12361000D01*
X4593093Y12346461D01*
G37*
G36*
X-4511349Y11968312D02*
G01*
X-4478582Y11946418D01*
X-4456688Y11913651D01*
X-4449000Y11875000D01*
X-4449000Y11775000D01*
X-4456688Y11736349D01*
X-4478582Y11703582D01*
X-4511349Y11681688D01*
X-4550000Y11674000D01*
X-5325000Y11674000D01*
X-5363651Y11681688D01*
X-5396418Y11703582D01*
X-5418312Y11736349D01*
X-5426000Y11775000D01*
X-5426000Y11875000D01*
X-5418312Y11913651D01*
X-5396418Y11946418D01*
X-5363651Y11968312D01*
X-5325000Y11976000D01*
X-4550000Y11976000D01*
X-4511349Y11968312D01*
G37*
G36*
X2363651Y11968312D02*
G01*
X2396418Y11946418D01*
X2418312Y11913651D01*
X2426000Y11875000D01*
X2426000Y11775000D01*
X2418312Y11736349D01*
X2396418Y11703582D01*
X2363651Y11681688D01*
X2325000Y11674000D01*
X1550000Y11674000D01*
X1511349Y11681688D01*
X1478582Y11703582D01*
X1456688Y11736349D01*
X1449000Y11775000D01*
X1449000Y11875000D01*
X1456688Y11913651D01*
X1478582Y11946418D01*
X1511349Y11968312D01*
X1550000Y11976000D01*
X2325000Y11976000D01*
X2363651Y11968312D01*
G37*
G36*
X-20381086Y13643005D02*
G01*
X-20376355Y13640916D01*
X-20373189Y13640499D01*
X-20333558Y13622019D01*
X-20279894Y13598324D01*
X-20201676Y13520106D01*
X-20177972Y13466421D01*
X-20159502Y13426812D01*
X-20159086Y13423649D01*
X-20156995Y13418914D01*
X-20149000Y13350000D01*
X-20149000Y12050000D01*
X-20156995Y11981086D01*
X-20159086Y11976352D01*
X-20159502Y11973189D01*
X-20177964Y11933598D01*
X-20201676Y11879894D01*
X-20279894Y11801676D01*
X-20333598Y11777964D01*
X-20373189Y11759502D01*
X-20376352Y11759086D01*
X-20381086Y11756995D01*
X-20450000Y11749000D01*
X-21150000Y11749000D01*
X-21218914Y11756995D01*
X-21223649Y11759086D01*
X-21226812Y11759502D01*
X-21266421Y11777972D01*
X-21320106Y11801676D01*
X-21398324Y11879894D01*
X-21422019Y11933558D01*
X-21440499Y11973189D01*
X-21440916Y11976355D01*
X-21443005Y11981086D01*
X-21451000Y12050000D01*
X-21451000Y13350000D01*
X-21443005Y13418914D01*
X-21440916Y13423646D01*
X-21440499Y13426812D01*
X-21422011Y13466462D01*
X-21398324Y13520106D01*
X-21320106Y13598324D01*
X-21266462Y13622011D01*
X-21226812Y13640499D01*
X-21223646Y13640916D01*
X-21218914Y13643005D01*
X-21150000Y13651000D01*
X-20450000Y13651000D01*
X-20381086Y13643005D01*
G37*
G36*
X-12781086Y13643005D02*
G01*
X-12776355Y13640916D01*
X-12773189Y13640499D01*
X-12733558Y13622019D01*
X-12679894Y13598324D01*
X-12601676Y13520106D01*
X-12577972Y13466421D01*
X-12559502Y13426812D01*
X-12559086Y13423649D01*
X-12556995Y13418914D01*
X-12549000Y13350000D01*
X-12549000Y12050000D01*
X-12556995Y11981086D01*
X-12559086Y11976352D01*
X-12559502Y11973189D01*
X-12577964Y11933598D01*
X-12601676Y11879894D01*
X-12679894Y11801676D01*
X-12733598Y11777964D01*
X-12773189Y11759502D01*
X-12776352Y11759086D01*
X-12781086Y11756995D01*
X-12850000Y11749000D01*
X-13550000Y11749000D01*
X-13618914Y11756995D01*
X-13623649Y11759086D01*
X-13626812Y11759502D01*
X-13666421Y11777972D01*
X-13720106Y11801676D01*
X-13798324Y11879894D01*
X-13822019Y11933558D01*
X-13840499Y11973189D01*
X-13840916Y11976355D01*
X-13843005Y11981086D01*
X-13851000Y12050000D01*
X-13851000Y13350000D01*
X-13843005Y13418914D01*
X-13840916Y13423646D01*
X-13840499Y13426812D01*
X-13822011Y13466462D01*
X-13798324Y13520106D01*
X-13720106Y13598324D01*
X-13666462Y13622011D01*
X-13626812Y13640499D01*
X-13623646Y13640916D01*
X-13618914Y13643005D01*
X-13550000Y13651000D01*
X-12850000Y13651000D01*
X-12781086Y13643005D01*
G37*
G36*
X14726919Y13660700D02*
G01*
X14792128Y13617128D01*
X14835700Y13551919D01*
X14851000Y13475000D01*
X14851000Y12225000D01*
X14835700Y12148081D01*
X14792128Y12082872D01*
X14726919Y12039300D01*
X14650000Y12024000D01*
X14350000Y12024000D01*
X14273081Y12039300D01*
X14207872Y12082872D01*
X14164300Y12148081D01*
X14149000Y12225000D01*
X14149000Y13475000D01*
X14164300Y13551919D01*
X14207872Y13617128D01*
X14273081Y13660700D01*
X14350000Y13676000D01*
X14650000Y13676000D01*
X14726919Y13660700D01*
G37*
G36*
X15726919Y13660700D02*
G01*
X15792128Y13617128D01*
X15835700Y13551919D01*
X15851000Y13475000D01*
X15851000Y12225000D01*
X15835700Y12148081D01*
X15792128Y12082872D01*
X15726919Y12039300D01*
X15650000Y12024000D01*
X15350000Y12024000D01*
X15273081Y12039300D01*
X15207872Y12082872D01*
X15164300Y12148081D01*
X15149000Y12225000D01*
X15149000Y13475000D01*
X15164300Y13551919D01*
X15207872Y13617128D01*
X15273081Y13660700D01*
X15350000Y13676000D01*
X15650000Y13676000D01*
X15726919Y13660700D01*
G37*
G36*
X16726919Y13660700D02*
G01*
X16792128Y13617128D01*
X16835700Y13551919D01*
X16851000Y13475000D01*
X16851000Y12225000D01*
X16835700Y12148081D01*
X16792128Y12082872D01*
X16726919Y12039300D01*
X16650000Y12024000D01*
X16350000Y12024000D01*
X16273081Y12039300D01*
X16207872Y12082872D01*
X16164300Y12148081D01*
X16149000Y12225000D01*
X16149000Y13475000D01*
X16164300Y13551919D01*
X16207872Y13617128D01*
X16273081Y13660700D01*
X16350000Y13676000D01*
X16650000Y13676000D01*
X16726919Y13660700D01*
G37*
G36*
X17726919Y13660700D02*
G01*
X17792128Y13617128D01*
X17835700Y13551919D01*
X17851000Y13475000D01*
X17851000Y12225000D01*
X17835700Y12148081D01*
X17792128Y12082872D01*
X17726919Y12039300D01*
X17650000Y12024000D01*
X17350000Y12024000D01*
X17273081Y12039300D01*
X17207872Y12082872D01*
X17164300Y12148081D01*
X17149000Y12225000D01*
X17149000Y13475000D01*
X17164300Y13551919D01*
X17207872Y13617128D01*
X17273081Y13660700D01*
X17350000Y13676000D01*
X17650000Y13676000D01*
X17726919Y13660700D01*
G37*
G36*
X18726919Y13660700D02*
G01*
X18792128Y13617128D01*
X18835700Y13551919D01*
X18851000Y13475000D01*
X18851000Y12225000D01*
X18835700Y12148081D01*
X18792128Y12082872D01*
X18726919Y12039300D01*
X18650000Y12024000D01*
X18350000Y12024000D01*
X18273081Y12039300D01*
X18207872Y12082872D01*
X18164300Y12148081D01*
X18149000Y12225000D01*
X18149000Y13475000D01*
X18164300Y13551919D01*
X18207872Y13617128D01*
X18273081Y13660700D01*
X18350000Y13676000D01*
X18650000Y13676000D01*
X18726919Y13660700D01*
G37*
G36*
X19726919Y13660700D02*
G01*
X19792128Y13617128D01*
X19835700Y13551919D01*
X19851000Y13475000D01*
X19851000Y12225000D01*
X19835700Y12148081D01*
X19792128Y12082872D01*
X19726919Y12039300D01*
X19650000Y12024000D01*
X19350000Y12024000D01*
X19273081Y12039300D01*
X19207872Y12082872D01*
X19164300Y12148081D01*
X19149000Y12225000D01*
X19149000Y13475000D01*
X19164300Y13551919D01*
X19207872Y13617128D01*
X19273081Y13660700D01*
X19350000Y13676000D01*
X19650000Y13676000D01*
X19726919Y13660700D01*
G37*
G36*
X-4511349Y12368312D02*
G01*
X-4478582Y12346418D01*
X-4456688Y12313651D01*
X-4449000Y12275000D01*
X-4449000Y12175000D01*
X-4456688Y12136349D01*
X-4478582Y12103582D01*
X-4511349Y12081688D01*
X-4550000Y12074000D01*
X-5325000Y12074000D01*
X-5363651Y12081688D01*
X-5396418Y12103582D01*
X-5418312Y12136349D01*
X-5426000Y12175000D01*
X-5426000Y12275000D01*
X-5418312Y12313651D01*
X-5396418Y12346418D01*
X-5363651Y12368312D01*
X-5325000Y12376000D01*
X-4550000Y12376000D01*
X-4511349Y12368312D01*
G37*
G36*
X2363651Y12368312D02*
G01*
X2396418Y12346418D01*
X2418312Y12313651D01*
X2426000Y12275000D01*
X2426000Y12175000D01*
X2418312Y12136349D01*
X2396418Y12103582D01*
X2363651Y12081688D01*
X2325000Y12074000D01*
X1550000Y12074000D01*
X1511349Y12081688D01*
X1478582Y12103582D01*
X1456688Y12136349D01*
X1449000Y12175000D01*
X1449000Y12275000D01*
X1456688Y12313651D01*
X1478582Y12346418D01*
X1511349Y12368312D01*
X1550000Y12376000D01*
X2325000Y12376000D01*
X2363651Y12368312D01*
G37*
G36*
X-4511349Y12768312D02*
G01*
X-4478582Y12746418D01*
X-4456688Y12713651D01*
X-4449000Y12675000D01*
X-4449000Y12575000D01*
X-4456688Y12536349D01*
X-4478582Y12503582D01*
X-4511349Y12481688D01*
X-4550000Y12474000D01*
X-5325000Y12474000D01*
X-5363651Y12481688D01*
X-5396418Y12503582D01*
X-5418312Y12536349D01*
X-5426000Y12575000D01*
X-5426000Y12675000D01*
X-5418312Y12713651D01*
X-5396418Y12746418D01*
X-5363651Y12768312D01*
X-5325000Y12776000D01*
X-4550000Y12776000D01*
X-4511349Y12768312D01*
G37*
G36*
X2363651Y12768312D02*
G01*
X2396418Y12746418D01*
X2418312Y12713651D01*
X2426000Y12675000D01*
X2426000Y12575000D01*
X2418312Y12536349D01*
X2396418Y12503582D01*
X2363651Y12481688D01*
X2325000Y12474000D01*
X1550000Y12474000D01*
X1511349Y12481688D01*
X1478582Y12503582D01*
X1456688Y12536349D01*
X1449000Y12575000D01*
X1449000Y12675000D01*
X1456688Y12713651D01*
X1478582Y12746418D01*
X1511349Y12768312D01*
X1550000Y12776000D01*
X2325000Y12776000D01*
X2363651Y12768312D01*
G37*
G36*
X-4511349Y13168312D02*
G01*
X-4478582Y13146418D01*
X-4456688Y13113651D01*
X-4449000Y13075000D01*
X-4449000Y12975000D01*
X-4456688Y12936349D01*
X-4478582Y12903582D01*
X-4511349Y12881688D01*
X-4550000Y12874000D01*
X-5325000Y12874000D01*
X-5363651Y12881688D01*
X-5396418Y12903582D01*
X-5418312Y12936349D01*
X-5426000Y12975000D01*
X-5426000Y13075000D01*
X-5418312Y13113651D01*
X-5396418Y13146418D01*
X-5363651Y13168312D01*
X-5325000Y13176000D01*
X-4550000Y13176000D01*
X-4511349Y13168312D01*
G37*
G36*
X2363651Y13168312D02*
G01*
X2396418Y13146418D01*
X2418312Y13113651D01*
X2426000Y13075000D01*
X2426000Y12975000D01*
X2418312Y12936349D01*
X2396418Y12903582D01*
X2363651Y12881688D01*
X2325000Y12874000D01*
X1550000Y12874000D01*
X1511349Y12881688D01*
X1478582Y12903582D01*
X1456688Y12936349D01*
X1449000Y12975000D01*
X1449000Y13075000D01*
X1456688Y13113651D01*
X1478582Y13146418D01*
X1511349Y13168312D01*
X1550000Y13176000D01*
X2325000Y13176000D01*
X2363651Y13168312D01*
G37*
G36*
X-4511349Y13568312D02*
G01*
X-4478582Y13546418D01*
X-4456688Y13513651D01*
X-4449000Y13475000D01*
X-4449000Y13375000D01*
X-4456688Y13336349D01*
X-4478582Y13303582D01*
X-4511349Y13281688D01*
X-4550000Y13274000D01*
X-5325000Y13274000D01*
X-5363651Y13281688D01*
X-5396418Y13303582D01*
X-5418312Y13336349D01*
X-5426000Y13375000D01*
X-5426000Y13475000D01*
X-5418312Y13513651D01*
X-5396418Y13546418D01*
X-5363651Y13568312D01*
X-5325000Y13576000D01*
X-4550000Y13576000D01*
X-4511349Y13568312D01*
G37*
G36*
X2363651Y13568312D02*
G01*
X2396418Y13546418D01*
X2418312Y13513651D01*
X2426000Y13475000D01*
X2426000Y13375000D01*
X2418312Y13336349D01*
X2396418Y13303582D01*
X2363651Y13281688D01*
X2325000Y13274000D01*
X1550000Y13274000D01*
X1511349Y13281688D01*
X1478582Y13303582D01*
X1456688Y13336349D01*
X1449000Y13375000D01*
X1449000Y13475000D01*
X1456688Y13513651D01*
X1478582Y13546418D01*
X1511349Y13568312D01*
X1550000Y13576000D01*
X2325000Y13576000D01*
X2363651Y13568312D01*
G37*
G36*
X-4511349Y13968312D02*
G01*
X-4478582Y13946418D01*
X-4456688Y13913651D01*
X-4449000Y13875000D01*
X-4449000Y13775000D01*
X-4456688Y13736349D01*
X-4478582Y13703582D01*
X-4511349Y13681688D01*
X-4550000Y13674000D01*
X-5325000Y13674000D01*
X-5363651Y13681688D01*
X-5396418Y13703582D01*
X-5418312Y13736349D01*
X-5426000Y13775000D01*
X-5426000Y13875000D01*
X-5418312Y13913651D01*
X-5396418Y13946418D01*
X-5363651Y13968312D01*
X-5325000Y13976000D01*
X-4550000Y13976000D01*
X-4511349Y13968312D01*
G37*
G36*
X2363651Y13968312D02*
G01*
X2396418Y13946418D01*
X2418312Y13913651D01*
X2426000Y13875000D01*
X2426000Y13775000D01*
X2418312Y13736349D01*
X2396418Y13703582D01*
X2363651Y13681688D01*
X2325000Y13674000D01*
X1550000Y13674000D01*
X1511349Y13681688D01*
X1478582Y13703582D01*
X1456688Y13736349D01*
X1449000Y13775000D01*
X1449000Y13875000D01*
X1456688Y13913651D01*
X1478582Y13946418D01*
X1511349Y13968312D01*
X1550000Y13976000D01*
X2325000Y13976000D01*
X2363651Y13968312D01*
G37*
G36*
X-4511349Y14368312D02*
G01*
X-4478582Y14346418D01*
X-4456688Y14313651D01*
X-4449000Y14275000D01*
X-4449000Y14175000D01*
X-4456688Y14136349D01*
X-4478582Y14103582D01*
X-4511349Y14081688D01*
X-4550000Y14074000D01*
X-5325000Y14074000D01*
X-5363651Y14081688D01*
X-5396418Y14103582D01*
X-5418312Y14136349D01*
X-5426000Y14175000D01*
X-5426000Y14275000D01*
X-5418312Y14313651D01*
X-5396418Y14346418D01*
X-5363651Y14368312D01*
X-5325000Y14376000D01*
X-4550000Y14376000D01*
X-4511349Y14368312D01*
G37*
G36*
X2363651Y14368312D02*
G01*
X2396418Y14346418D01*
X2418312Y14313651D01*
X2426000Y14275000D01*
X2426000Y14175000D01*
X2418312Y14136349D01*
X2396418Y14103582D01*
X2363651Y14081688D01*
X2325000Y14074000D01*
X1550000Y14074000D01*
X1511349Y14081688D01*
X1478582Y14103582D01*
X1456688Y14136349D01*
X1449000Y14175000D01*
X1449000Y14275000D01*
X1456688Y14313651D01*
X1478582Y14346418D01*
X1511349Y14368312D01*
X1550000Y14376000D01*
X2325000Y14376000D01*
X2363651Y14368312D01*
G37*
G36*
X-19273081Y16035700D02*
G01*
X-19207872Y15992128D01*
X-19164300Y15926919D01*
X-19149000Y15850000D01*
X-19149000Y14600000D01*
X-19164300Y14523081D01*
X-19207872Y14457872D01*
X-19273081Y14414300D01*
X-19350000Y14399000D01*
X-19650000Y14399000D01*
X-19726919Y14414300D01*
X-19792128Y14457872D01*
X-19835700Y14523081D01*
X-19851000Y14600000D01*
X-19851000Y15850000D01*
X-19835700Y15926919D01*
X-19792128Y15992128D01*
X-19726919Y16035700D01*
X-19650000Y16051000D01*
X-19350000Y16051000D01*
X-19273081Y16035700D01*
G37*
G36*
X-18273081Y16035700D02*
G01*
X-18207872Y15992128D01*
X-18164300Y15926919D01*
X-18149000Y15850000D01*
X-18149000Y14600000D01*
X-18164300Y14523081D01*
X-18207872Y14457872D01*
X-18273081Y14414300D01*
X-18350000Y14399000D01*
X-18650000Y14399000D01*
X-18726919Y14414300D01*
X-18792128Y14457872D01*
X-18835700Y14523081D01*
X-18851000Y14600000D01*
X-18851000Y15850000D01*
X-18835700Y15926919D01*
X-18792128Y15992128D01*
X-18726919Y16035700D01*
X-18650000Y16051000D01*
X-18350000Y16051000D01*
X-18273081Y16035700D01*
G37*
G36*
X-17273081Y16035700D02*
G01*
X-17207872Y15992128D01*
X-17164300Y15926919D01*
X-17149000Y15850000D01*
X-17149000Y14600000D01*
X-17164300Y14523081D01*
X-17207872Y14457872D01*
X-17273081Y14414300D01*
X-17350000Y14399000D01*
X-17650000Y14399000D01*
X-17726919Y14414300D01*
X-17792128Y14457872D01*
X-17835700Y14523081D01*
X-17851000Y14600000D01*
X-17851000Y15850000D01*
X-17835700Y15926919D01*
X-17792128Y15992128D01*
X-17726919Y16035700D01*
X-17650000Y16051000D01*
X-17350000Y16051000D01*
X-17273081Y16035700D01*
G37*
G36*
X-16273081Y16035700D02*
G01*
X-16207872Y15992128D01*
X-16164300Y15926919D01*
X-16149000Y15850000D01*
X-16149000Y14600000D01*
X-16164300Y14523081D01*
X-16207872Y14457872D01*
X-16273081Y14414300D01*
X-16350000Y14399000D01*
X-16650000Y14399000D01*
X-16726919Y14414300D01*
X-16792128Y14457872D01*
X-16835700Y14523081D01*
X-16851000Y14600000D01*
X-16851000Y15850000D01*
X-16835700Y15926919D01*
X-16792128Y15992128D01*
X-16726919Y16035700D01*
X-16650000Y16051000D01*
X-16350000Y16051000D01*
X-16273081Y16035700D01*
G37*
G36*
X-15273081Y16035700D02*
G01*
X-15207872Y15992128D01*
X-15164300Y15926919D01*
X-15149000Y15850000D01*
X-15149000Y14600000D01*
X-15164300Y14523081D01*
X-15207872Y14457872D01*
X-15273081Y14414300D01*
X-15350000Y14399000D01*
X-15650000Y14399000D01*
X-15726919Y14414300D01*
X-15792128Y14457872D01*
X-15835700Y14523081D01*
X-15851000Y14600000D01*
X-15851000Y15850000D01*
X-15835700Y15926919D01*
X-15792128Y15992128D01*
X-15726919Y16035700D01*
X-15650000Y16051000D01*
X-15350000Y16051000D01*
X-15273081Y16035700D01*
G37*
G36*
X-14273081Y16035700D02*
G01*
X-14207872Y15992128D01*
X-14164300Y15926919D01*
X-14149000Y15850000D01*
X-14149000Y14600000D01*
X-14164300Y14523081D01*
X-14207872Y14457872D01*
X-14273081Y14414300D01*
X-14350000Y14399000D01*
X-14650000Y14399000D01*
X-14726919Y14414300D01*
X-14792128Y14457872D01*
X-14835700Y14523081D01*
X-14851000Y14600000D01*
X-14851000Y15850000D01*
X-14835700Y15926919D01*
X-14792128Y15992128D01*
X-14726919Y16035700D01*
X-14650000Y16051000D01*
X-14350000Y16051000D01*
X-14273081Y16035700D01*
G37*
G36*
X13618914Y16318005D02*
G01*
X13623645Y16315916D01*
X13626811Y16315499D01*
X13666442Y16297019D01*
X13720106Y16273324D01*
X13798324Y16195106D01*
X13822028Y16141421D01*
X13840498Y16101812D01*
X13840914Y16098649D01*
X13843005Y16093914D01*
X13851000Y16025000D01*
X13851000Y14725000D01*
X13843005Y14656086D01*
X13840914Y14651352D01*
X13840498Y14648189D01*
X13822036Y14608598D01*
X13798324Y14554894D01*
X13720106Y14476676D01*
X13666402Y14452964D01*
X13626811Y14434502D01*
X13623648Y14434086D01*
X13618914Y14431995D01*
X13550000Y14424000D01*
X12850000Y14424000D01*
X12781086Y14431995D01*
X12776351Y14434086D01*
X12773188Y14434502D01*
X12733579Y14452972D01*
X12679894Y14476676D01*
X12601676Y14554894D01*
X12577981Y14608558D01*
X12559501Y14648189D01*
X12559084Y14651355D01*
X12556995Y14656086D01*
X12549000Y14725000D01*
X12549000Y16025000D01*
X12556995Y16093914D01*
X12559084Y16098646D01*
X12559501Y16101812D01*
X12577989Y16141462D01*
X12601676Y16195106D01*
X12679894Y16273324D01*
X12733538Y16297011D01*
X12773188Y16315499D01*
X12776354Y16315916D01*
X12781086Y16318005D01*
X12850000Y16326000D01*
X13550000Y16326000D01*
X13618914Y16318005D01*
G37*
G36*
X21218914Y16318005D02*
G01*
X21223645Y16315916D01*
X21226811Y16315499D01*
X21266442Y16297019D01*
X21320106Y16273324D01*
X21398324Y16195106D01*
X21422028Y16141421D01*
X21440498Y16101812D01*
X21440914Y16098649D01*
X21443005Y16093914D01*
X21451000Y16025000D01*
X21451000Y14725000D01*
X21443005Y14656086D01*
X21440914Y14651352D01*
X21440498Y14648189D01*
X21422036Y14608598D01*
X21398324Y14554894D01*
X21320106Y14476676D01*
X21266402Y14452964D01*
X21226811Y14434502D01*
X21223648Y14434086D01*
X21218914Y14431995D01*
X21150000Y14424000D01*
X20450000Y14424000D01*
X20381086Y14431995D01*
X20376351Y14434086D01*
X20373188Y14434502D01*
X20333579Y14452972D01*
X20279894Y14476676D01*
X20201676Y14554894D01*
X20177981Y14608558D01*
X20159501Y14648189D01*
X20159084Y14651355D01*
X20156995Y14656086D01*
X20149000Y14725000D01*
X20149000Y16025000D01*
X20156995Y16093914D01*
X20159084Y16098646D01*
X20159501Y16101812D01*
X20177989Y16141462D01*
X20201676Y16195106D01*
X20279894Y16273324D01*
X20333538Y16297011D01*
X20373188Y16315499D01*
X20376354Y16315916D01*
X20381086Y16318005D01*
X20450000Y16326000D01*
X21150000Y16326000D01*
X21218914Y16318005D01*
G37*
G36*
X-4511349Y14768312D02*
G01*
X-4478582Y14746418D01*
X-4456688Y14713651D01*
X-4449000Y14675000D01*
X-4449000Y14575000D01*
X-4456688Y14536349D01*
X-4478582Y14503582D01*
X-4511349Y14481688D01*
X-4550000Y14474000D01*
X-5325000Y14474000D01*
X-5363651Y14481688D01*
X-5396418Y14503582D01*
X-5418312Y14536349D01*
X-5426000Y14575000D01*
X-5426000Y14675000D01*
X-5418312Y14713651D01*
X-5396418Y14746418D01*
X-5363651Y14768312D01*
X-5325000Y14776000D01*
X-4550000Y14776000D01*
X-4511349Y14768312D01*
G37*
G36*
X2363651Y14768312D02*
G01*
X2396418Y14746418D01*
X2418312Y14713651D01*
X2426000Y14675000D01*
X2426000Y14575000D01*
X2418312Y14536349D01*
X2396418Y14503582D01*
X2363651Y14481688D01*
X2325000Y14474000D01*
X1550000Y14474000D01*
X1511349Y14481688D01*
X1478582Y14503582D01*
X1456688Y14536349D01*
X1449000Y14575000D01*
X1449000Y14675000D01*
X1456688Y14713651D01*
X1478582Y14746418D01*
X1511349Y14768312D01*
X1550000Y14776000D01*
X2325000Y14776000D01*
X2363651Y14768312D01*
G37*
G36*
X-4511349Y15168312D02*
G01*
X-4478582Y15146418D01*
X-4456688Y15113651D01*
X-4449000Y15075000D01*
X-4449000Y14975000D01*
X-4456688Y14936349D01*
X-4478582Y14903582D01*
X-4511349Y14881688D01*
X-4550000Y14874000D01*
X-5325000Y14874000D01*
X-5363651Y14881688D01*
X-5396418Y14903582D01*
X-5418312Y14936349D01*
X-5426000Y14975000D01*
X-5426000Y15075000D01*
X-5418312Y15113651D01*
X-5396418Y15146418D01*
X-5363651Y15168312D01*
X-5325000Y15176000D01*
X-4550000Y15176000D01*
X-4511349Y15168312D01*
G37*
G36*
X2363651Y15168312D02*
G01*
X2396418Y15146418D01*
X2418312Y15113651D01*
X2426000Y15075000D01*
X2426000Y14975000D01*
X2418312Y14936349D01*
X2396418Y14903582D01*
X2363651Y14881688D01*
X2325000Y14874000D01*
X1550000Y14874000D01*
X1511349Y14881688D01*
X1478582Y14903582D01*
X1456688Y14936349D01*
X1449000Y14975000D01*
X1449000Y15075000D01*
X1456688Y15113651D01*
X1478582Y15146418D01*
X1511349Y15168312D01*
X1550000Y15176000D01*
X2325000Y15176000D01*
X2363651Y15168312D01*
G37*
G36*
X-4511349Y15568312D02*
G01*
X-4478582Y15546418D01*
X-4456688Y15513651D01*
X-4449000Y15475000D01*
X-4449000Y15375000D01*
X-4456688Y15336349D01*
X-4478582Y15303582D01*
X-4511349Y15281688D01*
X-4550000Y15274000D01*
X-5325000Y15274000D01*
X-5363651Y15281688D01*
X-5396418Y15303582D01*
X-5418312Y15336349D01*
X-5426000Y15375000D01*
X-5426000Y15475000D01*
X-5418312Y15513651D01*
X-5396418Y15546418D01*
X-5363651Y15568312D01*
X-5325000Y15576000D01*
X-4550000Y15576000D01*
X-4511349Y15568312D01*
G37*
G36*
X2363651Y15568312D02*
G01*
X2396418Y15546418D01*
X2418312Y15513651D01*
X2426000Y15475000D01*
X2426000Y15375000D01*
X2418312Y15336349D01*
X2396418Y15303582D01*
X2363651Y15281688D01*
X2325000Y15274000D01*
X1550000Y15274000D01*
X1511349Y15281688D01*
X1478582Y15303582D01*
X1456688Y15336349D01*
X1449000Y15375000D01*
X1449000Y15475000D01*
X1456688Y15513651D01*
X1478582Y15546418D01*
X1511349Y15568312D01*
X1550000Y15576000D01*
X2325000Y15576000D01*
X2363651Y15568312D01*
G37*
G36*
X-6966907Y16346461D02*
G01*
X-6904943Y16305057D01*
X-6863539Y16243093D01*
X-6849000Y16170000D01*
X-6849000Y15830000D01*
X-6863539Y15756907D01*
X-6904943Y15694943D01*
X-6966907Y15653539D01*
X-7040000Y15639000D01*
X-7320000Y15639000D01*
X-7393093Y15653539D01*
X-7455057Y15694943D01*
X-7496461Y15756907D01*
X-7511000Y15830000D01*
X-7511000Y16170000D01*
X-7496461Y16243093D01*
X-7455057Y16305057D01*
X-7393093Y16346461D01*
X-7320000Y16361000D01*
X-7040000Y16361000D01*
X-6966907Y16346461D01*
G37*
G36*
X-6006907Y16346461D02*
G01*
X-5944943Y16305057D01*
X-5903539Y16243093D01*
X-5889000Y16170000D01*
X-5889000Y15830000D01*
X-5903539Y15756907D01*
X-5944943Y15694943D01*
X-6006907Y15653539D01*
X-6080000Y15639000D01*
X-6360000Y15639000D01*
X-6433093Y15653539D01*
X-6495057Y15694943D01*
X-6536461Y15756907D01*
X-6551000Y15830000D01*
X-6551000Y16170000D01*
X-6536461Y16243093D01*
X-6495057Y16305057D01*
X-6433093Y16346461D01*
X-6360000Y16361000D01*
X-6080000Y16361000D01*
X-6006907Y16346461D01*
G37*
G36*
X-4511349Y15968312D02*
G01*
X-4478582Y15946418D01*
X-4456688Y15913651D01*
X-4449000Y15875000D01*
X-4449000Y15775000D01*
X-4456688Y15736349D01*
X-4478582Y15703582D01*
X-4511349Y15681688D01*
X-4550000Y15674000D01*
X-5325000Y15674000D01*
X-5363651Y15681688D01*
X-5396418Y15703582D01*
X-5418312Y15736349D01*
X-5426000Y15775000D01*
X-5426000Y15875000D01*
X-5418312Y15913651D01*
X-5396418Y15946418D01*
X-5363651Y15968312D01*
X-5325000Y15976000D01*
X-4550000Y15976000D01*
X-4511349Y15968312D01*
G37*
G36*
X2363651Y15968312D02*
G01*
X2396418Y15946418D01*
X2418312Y15913651D01*
X2426000Y15875000D01*
X2426000Y15775000D01*
X2418312Y15736349D01*
X2396418Y15703582D01*
X2363651Y15681688D01*
X2325000Y15674000D01*
X1550000Y15674000D01*
X1511349Y15681688D01*
X1478582Y15703582D01*
X1456688Y15736349D01*
X1449000Y15775000D01*
X1449000Y15875000D01*
X1456688Y15913651D01*
X1478582Y15946418D01*
X1511349Y15968312D01*
X1550000Y15976000D01*
X2325000Y15976000D01*
X2363651Y15968312D01*
G37*
G36*
X3633093Y16446461D02*
G01*
X3695057Y16405057D01*
X3736461Y16343093D01*
X3751000Y16270000D01*
X3751000Y15930000D01*
X3736461Y15856907D01*
X3695057Y15794943D01*
X3633093Y15753539D01*
X3560000Y15739000D01*
X3280000Y15739000D01*
X3206907Y15753539D01*
X3144943Y15794943D01*
X3103539Y15856907D01*
X3089000Y15930000D01*
X3089000Y16270000D01*
X3103539Y16343093D01*
X3144943Y16405057D01*
X3206907Y16446461D01*
X3280000Y16461000D01*
X3560000Y16461000D01*
X3633093Y16446461D01*
G37*
G36*
X4593093Y16446461D02*
G01*
X4655057Y16405057D01*
X4696461Y16343093D01*
X4711000Y16270000D01*
X4711000Y15930000D01*
X4696461Y15856907D01*
X4655057Y15794943D01*
X4593093Y15753539D01*
X4520000Y15739000D01*
X4240000Y15739000D01*
X4166907Y15753539D01*
X4104943Y15794943D01*
X4063539Y15856907D01*
X4049000Y15930000D01*
X4049000Y16270000D01*
X4063539Y16343093D01*
X4104943Y16405057D01*
X4166907Y16446461D01*
X4240000Y16461000D01*
X4520000Y16461000D01*
X4593093Y16446461D01*
G37*
G36*
X-4011349Y17143312D02*
G01*
X-3978582Y17121418D01*
X-3956688Y17088651D01*
X-3949000Y17050000D01*
X-3949000Y16275000D01*
X-3956688Y16236349D01*
X-3978582Y16203582D01*
X-4011349Y16181688D01*
X-4050000Y16174000D01*
X-4150000Y16174000D01*
X-4188651Y16181688D01*
X-4221418Y16203582D01*
X-4243312Y16236349D01*
X-4251000Y16275000D01*
X-4251000Y17050000D01*
X-4243312Y17088651D01*
X-4221418Y17121418D01*
X-4188651Y17143312D01*
X-4150000Y17151000D01*
X-4050000Y17151000D01*
X-4011349Y17143312D01*
G37*
G36*
X-3611349Y17143312D02*
G01*
X-3578582Y17121418D01*
X-3556688Y17088651D01*
X-3549000Y17050000D01*
X-3549000Y16275000D01*
X-3556688Y16236349D01*
X-3578582Y16203582D01*
X-3611349Y16181688D01*
X-3650000Y16174000D01*
X-3750000Y16174000D01*
X-3788651Y16181688D01*
X-3821418Y16203582D01*
X-3843312Y16236349D01*
X-3851000Y16275000D01*
X-3851000Y17050000D01*
X-3843312Y17088651D01*
X-3821418Y17121418D01*
X-3788651Y17143312D01*
X-3750000Y17151000D01*
X-3650000Y17151000D01*
X-3611349Y17143312D01*
G37*
G36*
X-3211349Y17143312D02*
G01*
X-3178582Y17121418D01*
X-3156688Y17088651D01*
X-3149000Y17050000D01*
X-3149000Y16275000D01*
X-3156688Y16236349D01*
X-3178582Y16203582D01*
X-3211349Y16181688D01*
X-3250000Y16174000D01*
X-3350000Y16174000D01*
X-3388651Y16181688D01*
X-3421418Y16203582D01*
X-3443312Y16236349D01*
X-3451000Y16275000D01*
X-3451000Y17050000D01*
X-3443312Y17088651D01*
X-3421418Y17121418D01*
X-3388651Y17143312D01*
X-3350000Y17151000D01*
X-3250000Y17151000D01*
X-3211349Y17143312D01*
G37*
G36*
X-2811349Y17143312D02*
G01*
X-2778582Y17121418D01*
X-2756688Y17088651D01*
X-2749000Y17050000D01*
X-2749000Y16275000D01*
X-2756688Y16236349D01*
X-2778582Y16203582D01*
X-2811349Y16181688D01*
X-2850000Y16174000D01*
X-2950000Y16174000D01*
X-2988651Y16181688D01*
X-3021418Y16203582D01*
X-3043312Y16236349D01*
X-3051000Y16275000D01*
X-3051000Y17050000D01*
X-3043312Y17088651D01*
X-3021418Y17121418D01*
X-2988651Y17143312D01*
X-2950000Y17151000D01*
X-2850000Y17151000D01*
X-2811349Y17143312D01*
G37*
G36*
X-2411349Y17143312D02*
G01*
X-2378582Y17121418D01*
X-2356688Y17088651D01*
X-2349000Y17050000D01*
X-2349000Y16275000D01*
X-2356688Y16236349D01*
X-2378582Y16203582D01*
X-2411349Y16181688D01*
X-2450000Y16174000D01*
X-2550000Y16174000D01*
X-2588651Y16181688D01*
X-2621418Y16203582D01*
X-2643312Y16236349D01*
X-2651000Y16275000D01*
X-2651000Y17050000D01*
X-2643312Y17088651D01*
X-2621418Y17121418D01*
X-2588651Y17143312D01*
X-2550000Y17151000D01*
X-2450000Y17151000D01*
X-2411349Y17143312D01*
G37*
G36*
X-2011349Y17143312D02*
G01*
X-1978582Y17121418D01*
X-1956688Y17088651D01*
X-1949000Y17050000D01*
X-1949000Y16275000D01*
X-1956688Y16236349D01*
X-1978582Y16203582D01*
X-2011349Y16181688D01*
X-2050000Y16174000D01*
X-2150000Y16174000D01*
X-2188651Y16181688D01*
X-2221418Y16203582D01*
X-2243312Y16236349D01*
X-2251000Y16275000D01*
X-2251000Y17050000D01*
X-2243312Y17088651D01*
X-2221418Y17121418D01*
X-2188651Y17143312D01*
X-2150000Y17151000D01*
X-2050000Y17151000D01*
X-2011349Y17143312D01*
G37*
G36*
X-1611349Y17143312D02*
G01*
X-1578582Y17121418D01*
X-1556688Y17088651D01*
X-1549000Y17050000D01*
X-1549000Y16275000D01*
X-1556688Y16236349D01*
X-1578582Y16203582D01*
X-1611349Y16181688D01*
X-1650000Y16174000D01*
X-1750000Y16174000D01*
X-1788651Y16181688D01*
X-1821418Y16203582D01*
X-1843312Y16236349D01*
X-1851000Y16275000D01*
X-1851000Y17050000D01*
X-1843312Y17088651D01*
X-1821418Y17121418D01*
X-1788651Y17143312D01*
X-1750000Y17151000D01*
X-1650000Y17151000D01*
X-1611349Y17143312D01*
G37*
G36*
X-1211349Y17143312D02*
G01*
X-1178582Y17121418D01*
X-1156688Y17088651D01*
X-1149000Y17050000D01*
X-1149000Y16275000D01*
X-1156688Y16236349D01*
X-1178582Y16203582D01*
X-1211349Y16181688D01*
X-1250000Y16174000D01*
X-1350000Y16174000D01*
X-1388651Y16181688D01*
X-1421418Y16203582D01*
X-1443312Y16236349D01*
X-1451000Y16275000D01*
X-1451000Y17050000D01*
X-1443312Y17088651D01*
X-1421418Y17121418D01*
X-1388651Y17143312D01*
X-1350000Y17151000D01*
X-1250000Y17151000D01*
X-1211349Y17143312D01*
G37*
G36*
X-811349Y17143312D02*
G01*
X-778582Y17121418D01*
X-756688Y17088651D01*
X-749000Y17050000D01*
X-749000Y16275000D01*
X-756688Y16236349D01*
X-778582Y16203582D01*
X-811349Y16181688D01*
X-850000Y16174000D01*
X-950000Y16174000D01*
X-988651Y16181688D01*
X-1021418Y16203582D01*
X-1043312Y16236349D01*
X-1051000Y16275000D01*
X-1051000Y17050000D01*
X-1043312Y17088651D01*
X-1021418Y17121418D01*
X-988651Y17143312D01*
X-950000Y17151000D01*
X-850000Y17151000D01*
X-811349Y17143312D01*
G37*
G36*
X-411349Y17143312D02*
G01*
X-378582Y17121418D01*
X-356688Y17088651D01*
X-349000Y17050000D01*
X-349000Y16275000D01*
X-356688Y16236349D01*
X-378582Y16203582D01*
X-411349Y16181688D01*
X-450000Y16174000D01*
X-550000Y16174000D01*
X-588651Y16181688D01*
X-621418Y16203582D01*
X-643312Y16236349D01*
X-651000Y16275000D01*
X-651000Y17050000D01*
X-643312Y17088651D01*
X-621418Y17121418D01*
X-588651Y17143312D01*
X-550000Y17151000D01*
X-450000Y17151000D01*
X-411349Y17143312D01*
G37*
G36*
X-11349Y17143312D02*
G01*
X21418Y17121418D01*
X43312Y17088651D01*
X51000Y17050000D01*
X51000Y16275000D01*
X43312Y16236349D01*
X21418Y16203582D01*
X-11349Y16181688D01*
X-50000Y16174000D01*
X-150000Y16174000D01*
X-188651Y16181688D01*
X-221418Y16203582D01*
X-243312Y16236349D01*
X-251000Y16275000D01*
X-251000Y17050000D01*
X-243312Y17088651D01*
X-221418Y17121418D01*
X-188651Y17143312D01*
X-150000Y17151000D01*
X-50000Y17151000D01*
X-11349Y17143312D01*
G37*
G36*
X388651Y17143312D02*
G01*
X421418Y17121418D01*
X443312Y17088651D01*
X451000Y17050000D01*
X451000Y16275000D01*
X443312Y16236349D01*
X421418Y16203582D01*
X388651Y16181688D01*
X350000Y16174000D01*
X250000Y16174000D01*
X211349Y16181688D01*
X178582Y16203582D01*
X156688Y16236349D01*
X149000Y16275000D01*
X149000Y17050000D01*
X156688Y17088651D01*
X178582Y17121418D01*
X211349Y17143312D01*
X250000Y17151000D01*
X350000Y17151000D01*
X388651Y17143312D01*
G37*
G36*
X788651Y17143312D02*
G01*
X821418Y17121418D01*
X843312Y17088651D01*
X851000Y17050000D01*
X851000Y16275000D01*
X843312Y16236349D01*
X821418Y16203582D01*
X788651Y16181688D01*
X750000Y16174000D01*
X650000Y16174000D01*
X611349Y16181688D01*
X578582Y16203582D01*
X556688Y16236349D01*
X549000Y16275000D01*
X549000Y17050000D01*
X556688Y17088651D01*
X578582Y17121418D01*
X611349Y17143312D01*
X650000Y17151000D01*
X750000Y17151000D01*
X788651Y17143312D01*
G37*
G36*
X1188651Y17143312D02*
G01*
X1221418Y17121418D01*
X1243312Y17088651D01*
X1251000Y17050000D01*
X1251000Y16275000D01*
X1243312Y16236349D01*
X1221418Y16203582D01*
X1188651Y16181688D01*
X1150000Y16174000D01*
X1050000Y16174000D01*
X1011349Y16181688D01*
X978582Y16203582D01*
X956688Y16236349D01*
X949000Y16275000D01*
X949000Y17050000D01*
X956688Y17088651D01*
X978582Y17121418D01*
X1011349Y17143312D01*
X1050000Y17151000D01*
X1150000Y17151000D01*
X1188651Y17143312D01*
G37*
G36*
X3633093Y17546461D02*
G01*
X3695057Y17505057D01*
X3736461Y17443093D01*
X3751000Y17370000D01*
X3751000Y17030000D01*
X3736461Y16956907D01*
X3695057Y16894943D01*
X3633093Y16853539D01*
X3560000Y16839000D01*
X3280000Y16839000D01*
X3206907Y16853539D01*
X3144943Y16894943D01*
X3103539Y16956907D01*
X3089000Y17030000D01*
X3089000Y17370000D01*
X3103539Y17443093D01*
X3144943Y17505057D01*
X3206907Y17546461D01*
X3280000Y17561000D01*
X3560000Y17561000D01*
X3633093Y17546461D01*
G37*
G36*
X4593093Y17546461D02*
G01*
X4655057Y17505057D01*
X4696461Y17443093D01*
X4711000Y17370000D01*
X4711000Y17030000D01*
X4696461Y16956907D01*
X4655057Y16894943D01*
X4593093Y16853539D01*
X4520000Y16839000D01*
X4240000Y16839000D01*
X4166907Y16853539D01*
X4104943Y16894943D01*
X4063539Y16956907D01*
X4049000Y17030000D01*
X4049000Y17370000D01*
X4063539Y17443093D01*
X4104943Y17505057D01*
X4166907Y17546461D01*
X4240000Y17561000D01*
X4520000Y17561000D01*
X4593093Y17546461D01*
G37*
G36*
X-19273081Y20510700D02*
G01*
X-19207872Y20467128D01*
X-19164300Y20401919D01*
X-19149000Y20325000D01*
X-19149000Y19075000D01*
X-19164300Y18998081D01*
X-19207872Y18932872D01*
X-19273081Y18889300D01*
X-19350000Y18874000D01*
X-19650000Y18874000D01*
X-19726919Y18889300D01*
X-19792128Y18932872D01*
X-19835700Y18998081D01*
X-19851000Y19075000D01*
X-19851000Y20325000D01*
X-19835700Y20401919D01*
X-19792128Y20467128D01*
X-19726919Y20510700D01*
X-19650000Y20526000D01*
X-19350000Y20526000D01*
X-19273081Y20510700D01*
G37*
G36*
X-18273081Y20510700D02*
G01*
X-18207872Y20467128D01*
X-18164300Y20401919D01*
X-18149000Y20325000D01*
X-18149000Y19075000D01*
X-18164300Y18998081D01*
X-18207872Y18932872D01*
X-18273081Y18889300D01*
X-18350000Y18874000D01*
X-18650000Y18874000D01*
X-18726919Y18889300D01*
X-18792128Y18932872D01*
X-18835700Y18998081D01*
X-18851000Y19075000D01*
X-18851000Y20325000D01*
X-18835700Y20401919D01*
X-18792128Y20467128D01*
X-18726919Y20510700D01*
X-18650000Y20526000D01*
X-18350000Y20526000D01*
X-18273081Y20510700D01*
G37*
G36*
X-17273081Y20510700D02*
G01*
X-17207872Y20467128D01*
X-17164300Y20401919D01*
X-17149000Y20325000D01*
X-17149000Y19075000D01*
X-17164300Y18998081D01*
X-17207872Y18932872D01*
X-17273081Y18889300D01*
X-17350000Y18874000D01*
X-17650000Y18874000D01*
X-17726919Y18889300D01*
X-17792128Y18932872D01*
X-17835700Y18998081D01*
X-17851000Y19075000D01*
X-17851000Y20325000D01*
X-17835700Y20401919D01*
X-17792128Y20467128D01*
X-17726919Y20510700D01*
X-17650000Y20526000D01*
X-17350000Y20526000D01*
X-17273081Y20510700D01*
G37*
G36*
X-16273081Y20510700D02*
G01*
X-16207872Y20467128D01*
X-16164300Y20401919D01*
X-16149000Y20325000D01*
X-16149000Y19075000D01*
X-16164300Y18998081D01*
X-16207872Y18932872D01*
X-16273081Y18889300D01*
X-16350000Y18874000D01*
X-16650000Y18874000D01*
X-16726919Y18889300D01*
X-16792128Y18932872D01*
X-16835700Y18998081D01*
X-16851000Y19075000D01*
X-16851000Y20325000D01*
X-16835700Y20401919D01*
X-16792128Y20467128D01*
X-16726919Y20510700D01*
X-16650000Y20526000D01*
X-16350000Y20526000D01*
X-16273081Y20510700D01*
G37*
G36*
X-243821Y19506842D02*
G01*
X-183478Y19466522D01*
X-143158Y19406179D01*
X-129000Y19335000D01*
X-129000Y19065000D01*
X-143158Y18993821D01*
X-183478Y18933478D01*
X-243821Y18893158D01*
X-315000Y18879000D01*
X-685000Y18879000D01*
X-756179Y18893158D01*
X-816522Y18933478D01*
X-856842Y18993821D01*
X-871000Y19065000D01*
X-871000Y19335000D01*
X-856842Y19406179D01*
X-816522Y19466522D01*
X-756179Y19506842D01*
X-685000Y19521000D01*
X-315000Y19521000D01*
X-243821Y19506842D01*
G37*
G36*
X756179Y19506842D02*
G01*
X816522Y19466522D01*
X856842Y19406179D01*
X871000Y19335000D01*
X871000Y19065000D01*
X856842Y18993821D01*
X816522Y18933478D01*
X756179Y18893158D01*
X685000Y18879000D01*
X315000Y18879000D01*
X243821Y18893158D01*
X183478Y18933478D01*
X143158Y18993821D01*
X129000Y19065000D01*
X129000Y19335000D01*
X143158Y19406179D01*
X183478Y19466522D01*
X243821Y19506842D01*
X315000Y19521000D01*
X685000Y19521000D01*
X756179Y19506842D01*
G37*
G36*
X-2256907Y19536461D02*
G01*
X-2194943Y19495057D01*
X-2153539Y19433093D01*
X-2139000Y19360000D01*
X-2139000Y19080000D01*
X-2153539Y19006907D01*
X-2194943Y18944943D01*
X-2256907Y18903539D01*
X-2330000Y18889000D01*
X-2670000Y18889000D01*
X-2743093Y18903539D01*
X-2805057Y18944943D01*
X-2846461Y19006907D01*
X-2861000Y19080000D01*
X-2861000Y19360000D01*
X-2846461Y19433093D01*
X-2805057Y19495057D01*
X-2743093Y19536461D01*
X-2670000Y19551000D01*
X-2330000Y19551000D01*
X-2256907Y19536461D01*
G37*
G36*
X-1256907Y19536461D02*
G01*
X-1194943Y19495057D01*
X-1153539Y19433093D01*
X-1139000Y19360000D01*
X-1139000Y19080000D01*
X-1153539Y19006907D01*
X-1194943Y18944943D01*
X-1256907Y18903539D01*
X-1330000Y18889000D01*
X-1670000Y18889000D01*
X-1743093Y18903539D01*
X-1805057Y18944943D01*
X-1846461Y19006907D01*
X-1861000Y19080000D01*
X-1861000Y19360000D01*
X-1846461Y19433093D01*
X-1805057Y19495057D01*
X-1743093Y19536461D01*
X-1670000Y19551000D01*
X-1330000Y19551000D01*
X-1256907Y19536461D01*
G37*
G36*
X1743093Y19546461D02*
G01*
X1805057Y19505057D01*
X1846461Y19443093D01*
X1861000Y19370000D01*
X1861000Y19090000D01*
X1846461Y19016907D01*
X1805057Y18954943D01*
X1743093Y18913539D01*
X1670000Y18899000D01*
X1330000Y18899000D01*
X1256907Y18913539D01*
X1194943Y18954943D01*
X1153539Y19016907D01*
X1139000Y19090000D01*
X1139000Y19370000D01*
X1153539Y19443093D01*
X1194943Y19505057D01*
X1256907Y19546461D01*
X1330000Y19561000D01*
X1670000Y19561000D01*
X1743093Y19546461D01*
G37*
G36*
X2743093Y19546461D02*
G01*
X2805057Y19505057D01*
X2846461Y19443093D01*
X2861000Y19370000D01*
X2861000Y19090000D01*
X2846461Y19016907D01*
X2805057Y18954943D01*
X2743093Y18913539D01*
X2670000Y18899000D01*
X2330000Y18899000D01*
X2256907Y18913539D01*
X2194943Y18954943D01*
X2153539Y19016907D01*
X2139000Y19090000D01*
X2139000Y19370000D01*
X2153539Y19443093D01*
X2194943Y19505057D01*
X2256907Y19546461D01*
X2330000Y19561000D01*
X2670000Y19561000D01*
X2743093Y19546461D01*
G37*
G36*
X-10382648Y20047603D02*
G01*
X-10325549Y20009451D01*
X-10287397Y19952352D01*
X-10274000Y19885000D01*
X-10274000Y19635000D01*
X-10287397Y19567648D01*
X-10325549Y19510549D01*
X-10382648Y19472397D01*
X-10450000Y19459000D01*
X-10950000Y19459000D01*
X-11017352Y19472397D01*
X-11074451Y19510549D01*
X-11112603Y19567648D01*
X-11126000Y19635000D01*
X-11126000Y19885000D01*
X-11112603Y19952352D01*
X-11074451Y20009451D01*
X-11017352Y20047603D01*
X-10950000Y20061000D01*
X-10450000Y20061000D01*
X-10382648Y20047603D01*
G37*
G36*
X-4982648Y20047603D02*
G01*
X-4925549Y20009451D01*
X-4887397Y19952352D01*
X-4874000Y19885000D01*
X-4874000Y19635000D01*
X-4887397Y19567648D01*
X-4925549Y19510549D01*
X-4982648Y19472397D01*
X-5050000Y19459000D01*
X-5550000Y19459000D01*
X-5617352Y19472397D01*
X-5674451Y19510549D01*
X-5712603Y19567648D01*
X-5726000Y19635000D01*
X-5726000Y19885000D01*
X-5712603Y19952352D01*
X-5674451Y20009451D01*
X-5617352Y20047603D01*
X-5550000Y20061000D01*
X-5050000Y20061000D01*
X-4982648Y20047603D01*
G37*
G36*
X-6280483Y23862118D02*
G01*
X-6263938Y23851062D01*
X-6252882Y23834517D01*
X-6249000Y23815000D01*
X-6249000Y19515000D01*
X-6252882Y19495483D01*
X-6263938Y19478938D01*
X-6280483Y19467882D01*
X-6300000Y19464000D01*
X-9700000Y19464000D01*
X-9719517Y19467882D01*
X-9736062Y19478938D01*
X-9747118Y19495483D01*
X-9751000Y19515000D01*
X-9751000Y23815000D01*
X-9747118Y23834517D01*
X-9736062Y23851062D01*
X-9719517Y23862118D01*
X-9700000Y23866000D01*
X-6300000Y23866000D01*
X-6280483Y23862118D01*
G37*
G36*
X8918914Y21168005D02*
G01*
X8923645Y21165916D01*
X8926811Y21165499D01*
X8966442Y21147019D01*
X9020106Y21123324D01*
X9098324Y21045106D01*
X9122028Y20991421D01*
X9140498Y20951812D01*
X9140914Y20948649D01*
X9143005Y20943914D01*
X9151000Y20875000D01*
X9151000Y19925000D01*
X9143005Y19856086D01*
X9140914Y19851352D01*
X9140498Y19848189D01*
X9122036Y19808598D01*
X9098324Y19754894D01*
X9020106Y19676676D01*
X8966402Y19652964D01*
X8926811Y19634502D01*
X8923648Y19634086D01*
X8918914Y19631995D01*
X8850000Y19624000D01*
X8350000Y19624000D01*
X8281086Y19631995D01*
X8276351Y19634086D01*
X8273188Y19634502D01*
X8233579Y19652972D01*
X8179894Y19676676D01*
X8101676Y19754894D01*
X8077981Y19808558D01*
X8059501Y19848189D01*
X8059084Y19851355D01*
X8056995Y19856086D01*
X8049000Y19925000D01*
X8049000Y20875000D01*
X8056995Y20943914D01*
X8059084Y20948646D01*
X8059501Y20951812D01*
X8077989Y20991462D01*
X8101676Y21045106D01*
X8179894Y21123324D01*
X8233538Y21147011D01*
X8273188Y21165499D01*
X8276354Y21165916D01*
X8281086Y21168005D01*
X8350000Y21176000D01*
X8850000Y21176000D01*
X8918914Y21168005D01*
G37*
G36*
X10818914Y21168005D02*
G01*
X10823645Y21165916D01*
X10826811Y21165499D01*
X10866442Y21147019D01*
X10920106Y21123324D01*
X10998324Y21045106D01*
X11022028Y20991421D01*
X11040498Y20951812D01*
X11040914Y20948649D01*
X11043005Y20943914D01*
X11051000Y20875000D01*
X11051000Y19925000D01*
X11043005Y19856086D01*
X11040914Y19851352D01*
X11040498Y19848189D01*
X11022036Y19808598D01*
X10998324Y19754894D01*
X10920106Y19676676D01*
X10866402Y19652964D01*
X10826811Y19634502D01*
X10823648Y19634086D01*
X10818914Y19631995D01*
X10750000Y19624000D01*
X10250000Y19624000D01*
X10181086Y19631995D01*
X10176351Y19634086D01*
X10173188Y19634502D01*
X10133579Y19652972D01*
X10079894Y19676676D01*
X10001676Y19754894D01*
X9977981Y19808558D01*
X9959501Y19848189D01*
X9959084Y19851355D01*
X9956995Y19856086D01*
X9949000Y19925000D01*
X9949000Y20875000D01*
X9956995Y20943914D01*
X9959084Y20948646D01*
X9959501Y20951812D01*
X9977989Y20991462D01*
X10001676Y21045106D01*
X10079894Y21123324D01*
X10133538Y21147011D01*
X10173188Y21165499D01*
X10176354Y21165916D01*
X10181086Y21168005D01*
X10250000Y21176000D01*
X10750000Y21176000D01*
X10818914Y21168005D01*
G37*
G36*
X-2256907Y20496461D02*
G01*
X-2194943Y20455057D01*
X-2153539Y20393093D01*
X-2139000Y20320000D01*
X-2139000Y20040000D01*
X-2153539Y19966907D01*
X-2194943Y19904943D01*
X-2256907Y19863539D01*
X-2330000Y19849000D01*
X-2670000Y19849000D01*
X-2743093Y19863539D01*
X-2805057Y19904943D01*
X-2846461Y19966907D01*
X-2861000Y20040000D01*
X-2861000Y20320000D01*
X-2846461Y20393093D01*
X-2805057Y20455057D01*
X-2743093Y20496461D01*
X-2670000Y20511000D01*
X-2330000Y20511000D01*
X-2256907Y20496461D01*
G37*
G36*
X-1256907Y20496461D02*
G01*
X-1194943Y20455057D01*
X-1153539Y20393093D01*
X-1139000Y20320000D01*
X-1139000Y20040000D01*
X-1153539Y19966907D01*
X-1194943Y19904943D01*
X-1256907Y19863539D01*
X-1330000Y19849000D01*
X-1670000Y19849000D01*
X-1743093Y19863539D01*
X-1805057Y19904943D01*
X-1846461Y19966907D01*
X-1861000Y20040000D01*
X-1861000Y20320000D01*
X-1846461Y20393093D01*
X-1805057Y20455057D01*
X-1743093Y20496461D01*
X-1670000Y20511000D01*
X-1330000Y20511000D01*
X-1256907Y20496461D01*
G37*
G36*
X1743093Y20506461D02*
G01*
X1805057Y20465057D01*
X1846461Y20403093D01*
X1861000Y20330000D01*
X1861000Y20050000D01*
X1846461Y19976907D01*
X1805057Y19914943D01*
X1743093Y19873539D01*
X1670000Y19859000D01*
X1330000Y19859000D01*
X1256907Y19873539D01*
X1194943Y19914943D01*
X1153539Y19976907D01*
X1139000Y20050000D01*
X1139000Y20330000D01*
X1153539Y20403093D01*
X1194943Y20465057D01*
X1256907Y20506461D01*
X1330000Y20521000D01*
X1670000Y20521000D01*
X1743093Y20506461D01*
G37*
G36*
X2743093Y20506461D02*
G01*
X2805057Y20465057D01*
X2846461Y20403093D01*
X2861000Y20330000D01*
X2861000Y20050000D01*
X2846461Y19976907D01*
X2805057Y19914943D01*
X2743093Y19873539D01*
X2670000Y19859000D01*
X2330000Y19859000D01*
X2256907Y19873539D01*
X2194943Y19914943D01*
X2153539Y19976907D01*
X2139000Y20050000D01*
X2139000Y20330000D01*
X2153539Y20403093D01*
X2194943Y20465057D01*
X2256907Y20506461D01*
X2330000Y20521000D01*
X2670000Y20521000D01*
X2743093Y20506461D01*
G37*
G36*
X-243821Y20526842D02*
G01*
X-183478Y20486522D01*
X-143158Y20426179D01*
X-129000Y20355000D01*
X-129000Y20085000D01*
X-143158Y20013821D01*
X-183478Y19953478D01*
X-243821Y19913158D01*
X-315000Y19899000D01*
X-685000Y19899000D01*
X-756179Y19913158D01*
X-816522Y19953478D01*
X-856842Y20013821D01*
X-871000Y20085000D01*
X-871000Y20355000D01*
X-856842Y20426179D01*
X-816522Y20486522D01*
X-756179Y20526842D01*
X-685000Y20541000D01*
X-315000Y20541000D01*
X-243821Y20526842D01*
G37*
G36*
X756179Y20526842D02*
G01*
X816522Y20486522D01*
X856842Y20426179D01*
X871000Y20355000D01*
X871000Y20085000D01*
X856842Y20013821D01*
X816522Y19953478D01*
X756179Y19913158D01*
X685000Y19899000D01*
X315000Y19899000D01*
X243821Y19913158D01*
X183478Y19953478D01*
X143158Y20013821D01*
X129000Y20085000D01*
X129000Y20355000D01*
X143158Y20426179D01*
X183478Y20486522D01*
X243821Y20526842D01*
X315000Y20541000D01*
X685000Y20541000D01*
X756179Y20526842D01*
G37*
G36*
X-10382648Y21317603D02*
G01*
X-10325549Y21279451D01*
X-10287397Y21222352D01*
X-10274000Y21155000D01*
X-10274000Y20905000D01*
X-10287397Y20837648D01*
X-10325549Y20780549D01*
X-10382648Y20742397D01*
X-10450000Y20729000D01*
X-10950000Y20729000D01*
X-11017352Y20742397D01*
X-11074451Y20780549D01*
X-11112603Y20837648D01*
X-11126000Y20905000D01*
X-11126000Y21155000D01*
X-11112603Y21222352D01*
X-11074451Y21279451D01*
X-11017352Y21317603D01*
X-10950000Y21331000D01*
X-10450000Y21331000D01*
X-10382648Y21317603D01*
G37*
G36*
X-4982648Y21317603D02*
G01*
X-4925549Y21279451D01*
X-4887397Y21222352D01*
X-4874000Y21155000D01*
X-4874000Y20905000D01*
X-4887397Y20837648D01*
X-4925549Y20780549D01*
X-4982648Y20742397D01*
X-5050000Y20729000D01*
X-5550000Y20729000D01*
X-5617352Y20742397D01*
X-5674451Y20780549D01*
X-5712603Y20837648D01*
X-5726000Y20905000D01*
X-5726000Y21155000D01*
X-5712603Y21222352D01*
X-5674451Y21279451D01*
X-5617352Y21317603D01*
X-5550000Y21331000D01*
X-5050000Y21331000D01*
X-4982648Y21317603D01*
G37*
G36*
X-20381086Y23168005D02*
G01*
X-20376355Y23165916D01*
X-20373189Y23165499D01*
X-20333558Y23147019D01*
X-20279894Y23123324D01*
X-20201676Y23045106D01*
X-20177972Y22991421D01*
X-20159502Y22951812D01*
X-20159086Y22948649D01*
X-20156995Y22943914D01*
X-20149000Y22875000D01*
X-20149000Y21575000D01*
X-20156995Y21506086D01*
X-20159086Y21501352D01*
X-20159502Y21498189D01*
X-20177964Y21458598D01*
X-20201676Y21404894D01*
X-20279894Y21326676D01*
X-20333598Y21302964D01*
X-20373189Y21284502D01*
X-20376352Y21284086D01*
X-20381086Y21281995D01*
X-20450000Y21274000D01*
X-21150000Y21274000D01*
X-21218914Y21281995D01*
X-21223649Y21284086D01*
X-21226812Y21284502D01*
X-21266421Y21302972D01*
X-21320106Y21326676D01*
X-21398324Y21404894D01*
X-21422019Y21458558D01*
X-21440499Y21498189D01*
X-21440916Y21501355D01*
X-21443005Y21506086D01*
X-21451000Y21575000D01*
X-21451000Y22875000D01*
X-21443005Y22943914D01*
X-21440916Y22948646D01*
X-21440499Y22951812D01*
X-21422011Y22991462D01*
X-21398324Y23045106D01*
X-21320106Y23123324D01*
X-21266462Y23147011D01*
X-21226812Y23165499D01*
X-21223646Y23165916D01*
X-21218914Y23168005D01*
X-21150000Y23176000D01*
X-20450000Y23176000D01*
X-20381086Y23168005D01*
G37*
G36*
X-14781086Y23168005D02*
G01*
X-14776355Y23165916D01*
X-14773189Y23165499D01*
X-14733558Y23147019D01*
X-14679894Y23123324D01*
X-14601676Y23045106D01*
X-14577972Y22991421D01*
X-14559502Y22951812D01*
X-14559086Y22948649D01*
X-14556995Y22943914D01*
X-14549000Y22875000D01*
X-14549000Y21575000D01*
X-14556995Y21506086D01*
X-14559086Y21501352D01*
X-14559502Y21498189D01*
X-14577964Y21458598D01*
X-14601676Y21404894D01*
X-14679894Y21326676D01*
X-14733598Y21302964D01*
X-14773189Y21284502D01*
X-14776352Y21284086D01*
X-14781086Y21281995D01*
X-14850000Y21274000D01*
X-15550000Y21274000D01*
X-15618914Y21281995D01*
X-15623649Y21284086D01*
X-15626812Y21284502D01*
X-15666421Y21302972D01*
X-15720106Y21326676D01*
X-15798324Y21404894D01*
X-15822019Y21458558D01*
X-15840499Y21498189D01*
X-15840916Y21501355D01*
X-15843005Y21506086D01*
X-15851000Y21575000D01*
X-15851000Y22875000D01*
X-15843005Y22943914D01*
X-15840916Y22948646D01*
X-15840499Y22951812D01*
X-15822011Y22991462D01*
X-15798324Y23045106D01*
X-15720106Y23123324D01*
X-15666462Y23147011D01*
X-15626812Y23165499D01*
X-15623646Y23165916D01*
X-15618914Y23168005D01*
X-15550000Y23176000D01*
X-14850000Y23176000D01*
X-14781086Y23168005D01*
G37*
G36*
X13219517Y24847118D02*
G01*
X13236062Y24836062D01*
X13247118Y24819517D01*
X13251000Y24800000D01*
X13251000Y21400000D01*
X13247118Y21380483D01*
X13236062Y21363938D01*
X13219517Y21352882D01*
X13200000Y21349000D01*
X11900000Y21349000D01*
X11880483Y21352882D01*
X11863938Y21363938D01*
X11852882Y21380483D01*
X11849000Y21400000D01*
X11849000Y24800000D01*
X11852882Y24819517D01*
X11863938Y24836062D01*
X11880483Y24847118D01*
X11900000Y24851000D01*
X13200000Y24851000D01*
X13219517Y24847118D01*
G37*
G36*
X21919517Y24847118D02*
G01*
X21936062Y24836062D01*
X21947118Y24819517D01*
X21951000Y24800000D01*
X21951000Y21400000D01*
X21947118Y21380483D01*
X21936062Y21363938D01*
X21919517Y21352882D01*
X21900000Y21349000D01*
X20600000Y21349000D01*
X20580483Y21352882D01*
X20563938Y21363938D01*
X20552882Y21380483D01*
X20549000Y21400000D01*
X20549000Y24800000D01*
X20552882Y24819517D01*
X20563938Y24836062D01*
X20580483Y24847118D01*
X20600000Y24851000D01*
X21900000Y24851000D01*
X21919517Y24847118D01*
G37*
G36*
X-10382648Y22587603D02*
G01*
X-10325549Y22549451D01*
X-10287397Y22492352D01*
X-10274000Y22425000D01*
X-10274000Y22175000D01*
X-10287397Y22107648D01*
X-10325549Y22050549D01*
X-10382648Y22012397D01*
X-10450000Y21999000D01*
X-10950000Y21999000D01*
X-11017352Y22012397D01*
X-11074451Y22050549D01*
X-11112603Y22107648D01*
X-11126000Y22175000D01*
X-11126000Y22425000D01*
X-11112603Y22492352D01*
X-11074451Y22549451D01*
X-11017352Y22587603D01*
X-10950000Y22601000D01*
X-10450000Y22601000D01*
X-10382648Y22587603D01*
G37*
G36*
X-4982648Y22587603D02*
G01*
X-4925549Y22549451D01*
X-4887397Y22492352D01*
X-4874000Y22425000D01*
X-4874000Y22175000D01*
X-4887397Y22107648D01*
X-4925549Y22050549D01*
X-4982648Y22012397D01*
X-5050000Y21999000D01*
X-5550000Y21999000D01*
X-5617352Y22012397D01*
X-5674451Y22050549D01*
X-5712603Y22107648D01*
X-5726000Y22175000D01*
X-5726000Y22425000D01*
X-5712603Y22492352D01*
X-5674451Y22549451D01*
X-5617352Y22587603D01*
X-5550000Y22601000D01*
X-5050000Y22601000D01*
X-4982648Y22587603D01*
G37*
G36*
X8826919Y23860700D02*
G01*
X8892128Y23817128D01*
X8935700Y23751919D01*
X8951000Y23675000D01*
X8951000Y22650000D01*
X8935700Y22573081D01*
X8892128Y22507872D01*
X8826919Y22464300D01*
X8750000Y22449000D01*
X8450000Y22449000D01*
X8373081Y22464300D01*
X8307872Y22507872D01*
X8264300Y22573081D01*
X8249000Y22650000D01*
X8249000Y23675000D01*
X8264300Y23751919D01*
X8307872Y23817128D01*
X8373081Y23860700D01*
X8450000Y23876000D01*
X8750000Y23876000D01*
X8826919Y23860700D01*
G37*
G36*
X10726919Y23860700D02*
G01*
X10792128Y23817128D01*
X10835700Y23751919D01*
X10851000Y23675000D01*
X10851000Y22650000D01*
X10835700Y22573081D01*
X10792128Y22507872D01*
X10726919Y22464300D01*
X10650000Y22449000D01*
X10350000Y22449000D01*
X10273081Y22464300D01*
X10207872Y22507872D01*
X10164300Y22573081D01*
X10149000Y22650000D01*
X10149000Y23675000D01*
X10164300Y23751919D01*
X10207872Y23817128D01*
X10273081Y23860700D01*
X10350000Y23876000D01*
X10650000Y23876000D01*
X10726919Y23860700D01*
G37*
G36*
X-12803821Y23956842D02*
G01*
X-12743478Y23916522D01*
X-12703158Y23856179D01*
X-12689000Y23785000D01*
X-12689000Y23415000D01*
X-12703158Y23343821D01*
X-12743478Y23283478D01*
X-12803821Y23243158D01*
X-12875000Y23229000D01*
X-13145000Y23229000D01*
X-13216179Y23243158D01*
X-13276522Y23283478D01*
X-13316842Y23343821D01*
X-13331000Y23415000D01*
X-13331000Y23785000D01*
X-13316842Y23856179D01*
X-13276522Y23916522D01*
X-13216179Y23956842D01*
X-13145000Y23971000D01*
X-12875000Y23971000D01*
X-12803821Y23956842D01*
G37*
G36*
X-11783821Y23956842D02*
G01*
X-11723478Y23916522D01*
X-11683158Y23856179D01*
X-11669000Y23785000D01*
X-11669000Y23415000D01*
X-11683158Y23343821D01*
X-11723478Y23283478D01*
X-11783821Y23243158D01*
X-11855000Y23229000D01*
X-12125000Y23229000D01*
X-12196179Y23243158D01*
X-12256522Y23283478D01*
X-12296842Y23343821D01*
X-12311000Y23415000D01*
X-12311000Y23785000D01*
X-12296842Y23856179D01*
X-12256522Y23916522D01*
X-12196179Y23956842D01*
X-12125000Y23971000D01*
X-11855000Y23971000D01*
X-11783821Y23956842D01*
G37*
G36*
X-3766907Y23946461D02*
G01*
X-3704943Y23905057D01*
X-3663539Y23843093D01*
X-3649000Y23770000D01*
X-3649000Y23430000D01*
X-3663539Y23356907D01*
X-3704943Y23294943D01*
X-3766907Y23253539D01*
X-3840000Y23239000D01*
X-4120000Y23239000D01*
X-4193093Y23253539D01*
X-4255057Y23294943D01*
X-4296461Y23356907D01*
X-4311000Y23430000D01*
X-4311000Y23770000D01*
X-4296461Y23843093D01*
X-4255057Y23905057D01*
X-4193093Y23946461D01*
X-4120000Y23961000D01*
X-3840000Y23961000D01*
X-3766907Y23946461D01*
G37*
G36*
X-2806907Y23946461D02*
G01*
X-2744943Y23905057D01*
X-2703539Y23843093D01*
X-2689000Y23770000D01*
X-2689000Y23430000D01*
X-2703539Y23356907D01*
X-2744943Y23294943D01*
X-2806907Y23253539D01*
X-2880000Y23239000D01*
X-3160000Y23239000D01*
X-3233093Y23253539D01*
X-3295057Y23294943D01*
X-3336461Y23356907D01*
X-3351000Y23430000D01*
X-3351000Y23770000D01*
X-3336461Y23843093D01*
X-3295057Y23905057D01*
X-3233093Y23946461D01*
X-3160000Y23961000D01*
X-2880000Y23961000D01*
X-2806907Y23946461D01*
G37*
G36*
X-10382648Y23857603D02*
G01*
X-10325549Y23819451D01*
X-10287397Y23762352D01*
X-10274000Y23695000D01*
X-10274000Y23445000D01*
X-10287397Y23377648D01*
X-10325549Y23320549D01*
X-10382648Y23282397D01*
X-10450000Y23269000D01*
X-10950000Y23269000D01*
X-11017352Y23282397D01*
X-11074451Y23320549D01*
X-11112603Y23377648D01*
X-11126000Y23445000D01*
X-11126000Y23695000D01*
X-11112603Y23762352D01*
X-11074451Y23819451D01*
X-11017352Y23857603D01*
X-10950000Y23871000D01*
X-10450000Y23871000D01*
X-10382648Y23857603D01*
G37*
G36*
X-4982648Y23857603D02*
G01*
X-4925549Y23819451D01*
X-4887397Y23762352D01*
X-4874000Y23695000D01*
X-4874000Y23445000D01*
X-4887397Y23377648D01*
X-4925549Y23320549D01*
X-4982648Y23282397D01*
X-5050000Y23269000D01*
X-5550000Y23269000D01*
X-5617352Y23282397D01*
X-5674451Y23320549D01*
X-5712603Y23377648D01*
X-5726000Y23445000D01*
X-5726000Y23695000D01*
X-5712603Y23762352D01*
X-5674451Y23819451D01*
X-5617352Y23857603D01*
X-5550000Y23871000D01*
X-5050000Y23871000D01*
X-4982648Y23857603D01*
G37*
G36*
X-13993821Y25356842D02*
G01*
X-13933478Y25316522D01*
X-13893158Y25256179D01*
X-13879000Y25185000D01*
X-13879000Y24815000D01*
X-13893158Y24743821D01*
X-13933478Y24683478D01*
X-13993821Y24643158D01*
X-14065000Y24629000D01*
X-14335000Y24629000D01*
X-14406179Y24643158D01*
X-14466522Y24683478D01*
X-14506842Y24743821D01*
X-14521000Y24815000D01*
X-14521000Y25185000D01*
X-14506842Y25256179D01*
X-14466522Y25316522D01*
X-14406179Y25356842D01*
X-14335000Y25371000D01*
X-14065000Y25371000D01*
X-13993821Y25356842D01*
G37*
G36*
X-12973821Y25356842D02*
G01*
X-12913478Y25316522D01*
X-12873158Y25256179D01*
X-12859000Y25185000D01*
X-12859000Y24815000D01*
X-12873158Y24743821D01*
X-12913478Y24683478D01*
X-12973821Y24643158D01*
X-13045000Y24629000D01*
X-13315000Y24629000D01*
X-13386179Y24643158D01*
X-13446522Y24683478D01*
X-13486842Y24743821D01*
X-13501000Y24815000D01*
X-13501000Y25185000D01*
X-13486842Y25256179D01*
X-13446522Y25316522D01*
X-13386179Y25356842D01*
X-13315000Y25371000D01*
X-13045000Y25371000D01*
X-12973821Y25356842D01*
G37*
G36*
X8826919Y26135700D02*
G01*
X8892128Y26092128D01*
X8935700Y26026919D01*
X8951000Y25950000D01*
X8951000Y24925000D01*
X8935700Y24848081D01*
X8892128Y24782872D01*
X8826919Y24739300D01*
X8750000Y24724000D01*
X8450000Y24724000D01*
X8373081Y24739300D01*
X8307872Y24782872D01*
X8264300Y24848081D01*
X8249000Y24925000D01*
X8249000Y25950000D01*
X8264300Y26026919D01*
X8307872Y26092128D01*
X8373081Y26135700D01*
X8450000Y26151000D01*
X8750000Y26151000D01*
X8826919Y26135700D01*
G37*
G36*
X9776919Y26135700D02*
G01*
X9842128Y26092128D01*
X9885700Y26026919D01*
X9901000Y25950000D01*
X9901000Y24925000D01*
X9885700Y24848081D01*
X9842128Y24782872D01*
X9776919Y24739300D01*
X9700000Y24724000D01*
X9400000Y24724000D01*
X9323081Y24739300D01*
X9257872Y24782872D01*
X9214300Y24848081D01*
X9199000Y24925000D01*
X9199000Y25950000D01*
X9214300Y26026919D01*
X9257872Y26092128D01*
X9323081Y26135700D01*
X9400000Y26151000D01*
X9700000Y26151000D01*
X9776919Y26135700D01*
G37*
G36*
X10726919Y26135700D02*
G01*
X10792128Y26092128D01*
X10835700Y26026919D01*
X10851000Y25950000D01*
X10851000Y24925000D01*
X10835700Y24848081D01*
X10792128Y24782872D01*
X10726919Y24739300D01*
X10650000Y24724000D01*
X10350000Y24724000D01*
X10273081Y24739300D01*
X10207872Y24782872D01*
X10164300Y24848081D01*
X10149000Y24925000D01*
X10149000Y25950000D01*
X10164300Y26026919D01*
X10207872Y26092128D01*
X10273081Y26135700D01*
X10350000Y26151000D01*
X10650000Y26151000D01*
X10726919Y26135700D01*
G37*
G36*
X-10830483Y27397118D02*
G01*
X-10813938Y27386062D01*
X-10802882Y27369517D01*
X-10799000Y27350000D01*
X-10799000Y25650000D01*
X-10802882Y25630483D01*
X-10813938Y25613938D01*
X-10830483Y25602882D01*
X-10850000Y25599000D01*
X-11750000Y25599000D01*
X-11769517Y25602882D01*
X-11786062Y25613938D01*
X-11797118Y25630483D01*
X-11801000Y25650000D01*
X-11801000Y27350000D01*
X-11797118Y27369517D01*
X-11786062Y27386062D01*
X-11769517Y27397118D01*
X-11750000Y27401000D01*
X-10850000Y27401000D01*
X-10830483Y27397118D01*
G37*
G36*
X-7430483Y27397118D02*
G01*
X-7413938Y27386062D01*
X-7402882Y27369517D01*
X-7399000Y27350000D01*
X-7399000Y25650000D01*
X-7402882Y25630483D01*
X-7413938Y25613938D01*
X-7430483Y25602882D01*
X-7450000Y25599000D01*
X-8350000Y25599000D01*
X-8369517Y25602882D01*
X-8386062Y25613938D01*
X-8397118Y25630483D01*
X-8401000Y25650000D01*
X-8401000Y27350000D01*
X-8397118Y27369517D01*
X-8386062Y27386062D01*
X-8369517Y27397118D01*
X-8350000Y27401000D01*
X-7450000Y27401000D01*
X-7430483Y27397118D01*
G37*
G36*
X-20085014Y28507061D02*
G01*
X-19886955Y28430333D01*
X-19706368Y28318518D01*
X-19549401Y28175424D01*
X-19421400Y28005923D01*
X-19326724Y27815789D01*
X-19268598Y27611496D01*
X-19249000Y27400000D01*
X-19268598Y27188504D01*
X-19326724Y26984211D01*
X-19421400Y26794077D01*
X-19549401Y26624576D01*
X-19706368Y26481482D01*
X-19886955Y26369667D01*
X-20085014Y26292939D01*
X-20293799Y26253910D01*
X-20506201Y26253910D01*
X-20714986Y26292939D01*
X-20913045Y26369667D01*
X-21093632Y26481482D01*
X-21250599Y26624576D01*
X-21378600Y26794077D01*
X-21473276Y26984211D01*
X-21531402Y27188504D01*
X-21551000Y27400000D01*
X-21531402Y27611496D01*
X-21473276Y27815789D01*
X-21378600Y28005923D01*
X-21250599Y28175424D01*
X-21093632Y28318518D01*
X-20913045Y28430333D01*
X-20714986Y28507061D01*
X-20506201Y28546090D01*
X-20293799Y28546090D01*
X-20085014Y28507061D01*
G37*
G36*
X-2930483Y28797118D02*
G01*
X-2913938Y28786062D01*
X-2902882Y28769517D01*
X-2899000Y28750000D01*
X-2899000Y27050000D01*
X-2902882Y27030483D01*
X-2913938Y27013938D01*
X-2930483Y27002882D01*
X-2950000Y26999000D01*
X-4650000Y26999000D01*
X-4669517Y27002882D01*
X-4686062Y27013938D01*
X-4697118Y27030483D01*
X-4701000Y27050000D01*
X-4701000Y28750000D01*
X-4697118Y28769517D01*
X-4686062Y28786062D01*
X-4669517Y28797118D01*
X-4650000Y28801000D01*
X-2950000Y28801000D01*
X-2930483Y28797118D01*
G37*
G36*
X-1212087Y28796064D02*
G01*
X-1165820Y28796064D01*
X-1125871Y28787573D01*
X-1084267Y28783475D01*
X-1032002Y28767621D01*
X-981576Y28756902D01*
X-949306Y28742535D01*
X-915288Y28732215D01*
X-861233Y28703322D01*
X-809500Y28680289D01*
X-785449Y28662815D01*
X-759553Y28648973D01*
X-706729Y28605622D01*
X-657113Y28569573D01*
X-641004Y28551682D01*
X-623052Y28536949D01*
X-574812Y28478169D01*
X-531076Y28429595D01*
X-521889Y28413681D01*
X-511028Y28400448D01*
X-470851Y28325281D01*
X-436896Y28266470D01*
X-432991Y28254450D01*
X-427786Y28244713D01*
X-399087Y28150104D01*
X-378689Y28087328D01*
X-377972Y28080498D01*
X-376526Y28075734D01*
X-362464Y27932958D01*
X-359000Y27900000D01*
X-362465Y27867041D01*
X-376526Y27724267D01*
X-377971Y27719504D01*
X-378689Y27712672D01*
X-399091Y27649883D01*
X-427786Y27555288D01*
X-432990Y27545553D01*
X-436896Y27533530D01*
X-470858Y27474707D01*
X-511028Y27399553D01*
X-521887Y27386323D01*
X-531076Y27370405D01*
X-574822Y27321822D01*
X-623052Y27263052D01*
X-641000Y27248323D01*
X-657113Y27230427D01*
X-706740Y27194372D01*
X-759553Y27151028D01*
X-785443Y27137190D01*
X-809500Y27119711D01*
X-861244Y27096674D01*
X-915288Y27067786D01*
X-949299Y27057469D01*
X-981576Y27043098D01*
X-1032013Y27032378D01*
X-1084267Y27016526D01*
X-1125862Y27012430D01*
X-1165820Y27003936D01*
X-1212097Y27003936D01*
X-1260000Y26999218D01*
X-1307903Y27003936D01*
X-1354180Y27003936D01*
X-1394138Y27012430D01*
X-1435734Y27016526D01*
X-1487991Y27032379D01*
X-1538424Y27043098D01*
X-1570700Y27057468D01*
X-1604713Y27067786D01*
X-1658763Y27096677D01*
X-1710500Y27119711D01*
X-1734555Y27137188D01*
X-1760448Y27151028D01*
X-1813270Y27194378D01*
X-1862887Y27230427D01*
X-1878998Y27248320D01*
X-1896949Y27263052D01*
X-1945191Y27321834D01*
X-1988924Y27370405D01*
X-1998112Y27386319D01*
X-2008973Y27399553D01*
X-2049156Y27474731D01*
X-2083104Y27533530D01*
X-2087009Y27545549D01*
X-2092215Y27555288D01*
X-2120925Y27649929D01*
X-2141311Y27712672D01*
X-2142029Y27719499D01*
X-2143475Y27724267D01*
X-2157552Y27867192D01*
X-2161000Y27900000D01*
X-2157552Y27932806D01*
X-2143475Y28075734D01*
X-2142029Y28080503D01*
X-2141311Y28087328D01*
X-2120929Y28150058D01*
X-2092215Y28244713D01*
X-2087009Y28254455D01*
X-2083104Y28266470D01*
X-2049164Y28325258D01*
X-2008973Y28400448D01*
X-1998110Y28413686D01*
X-1988924Y28429595D01*
X-1945200Y28478157D01*
X-1896949Y28536949D01*
X-1878995Y28551685D01*
X-1862887Y28569573D01*
X-1813280Y28605615D01*
X-1760448Y28648973D01*
X-1734550Y28662817D01*
X-1710500Y28680289D01*
X-1658774Y28703319D01*
X-1604713Y28732215D01*
X-1570693Y28742536D01*
X-1538424Y28756902D01*
X-1488002Y28767620D01*
X-1435734Y28783475D01*
X-1394129Y28787573D01*
X-1354180Y28796064D01*
X-1307914Y28796064D01*
X-1260000Y28800783D01*
X-1212087Y28796064D01*
G37*
G36*
X1327913Y28796064D02*
G01*
X1374180Y28796064D01*
X1414129Y28787573D01*
X1455733Y28783475D01*
X1507998Y28767621D01*
X1558424Y28756902D01*
X1590694Y28742535D01*
X1624712Y28732215D01*
X1678767Y28703322D01*
X1730500Y28680289D01*
X1754551Y28662815D01*
X1780447Y28648973D01*
X1833271Y28605622D01*
X1882887Y28569573D01*
X1898996Y28551682D01*
X1916948Y28536949D01*
X1965188Y28478169D01*
X2008924Y28429595D01*
X2018111Y28413681D01*
X2028972Y28400448D01*
X2069149Y28325281D01*
X2103104Y28266470D01*
X2107009Y28254450D01*
X2112214Y28244713D01*
X2140913Y28150104D01*
X2161311Y28087328D01*
X2162028Y28080498D01*
X2163474Y28075734D01*
X2177536Y27932958D01*
X2181000Y27900000D01*
X2177535Y27867041D01*
X2163474Y27724267D01*
X2162029Y27719504D01*
X2161311Y27712672D01*
X2140909Y27649883D01*
X2112214Y27555288D01*
X2107010Y27545553D01*
X2103104Y27533530D01*
X2069142Y27474707D01*
X2028972Y27399553D01*
X2018113Y27386323D01*
X2008924Y27370405D01*
X1965178Y27321822D01*
X1916948Y27263052D01*
X1899000Y27248323D01*
X1882887Y27230427D01*
X1833260Y27194372D01*
X1780447Y27151028D01*
X1754557Y27137190D01*
X1730500Y27119711D01*
X1678756Y27096674D01*
X1624712Y27067786D01*
X1590701Y27057469D01*
X1558424Y27043098D01*
X1507987Y27032378D01*
X1455733Y27016526D01*
X1414138Y27012430D01*
X1374180Y27003936D01*
X1327903Y27003936D01*
X1280000Y26999218D01*
X1232097Y27003936D01*
X1185820Y27003936D01*
X1145862Y27012430D01*
X1104266Y27016526D01*
X1052009Y27032379D01*
X1001576Y27043098D01*
X969300Y27057468D01*
X935287Y27067786D01*
X881237Y27096677D01*
X829500Y27119711D01*
X805445Y27137188D01*
X779552Y27151028D01*
X726730Y27194378D01*
X677113Y27230427D01*
X661002Y27248320D01*
X643051Y27263052D01*
X594809Y27321834D01*
X551076Y27370405D01*
X541888Y27386319D01*
X531027Y27399553D01*
X490844Y27474731D01*
X456896Y27533530D01*
X452991Y27545549D01*
X447785Y27555288D01*
X419075Y27649929D01*
X398689Y27712672D01*
X397971Y27719499D01*
X396525Y27724267D01*
X382448Y27867192D01*
X379000Y27900000D01*
X382448Y27932806D01*
X396525Y28075734D01*
X397971Y28080503D01*
X398689Y28087328D01*
X419071Y28150058D01*
X447785Y28244713D01*
X452991Y28254455D01*
X456896Y28266470D01*
X490836Y28325258D01*
X531027Y28400448D01*
X541890Y28413686D01*
X551076Y28429595D01*
X594800Y28478157D01*
X643051Y28536949D01*
X661005Y28551685D01*
X677113Y28569573D01*
X726720Y28605615D01*
X779552Y28648973D01*
X805450Y28662817D01*
X829500Y28680289D01*
X881226Y28703319D01*
X935287Y28732215D01*
X969307Y28742536D01*
X1001576Y28756902D01*
X1051998Y28767620D01*
X1104266Y28783475D01*
X1145871Y28787573D01*
X1185820Y28796064D01*
X1232086Y28796064D01*
X1280000Y28800783D01*
X1327913Y28796064D01*
G37*
G36*
X3867913Y28796064D02*
G01*
X3914180Y28796064D01*
X3954129Y28787573D01*
X3995733Y28783475D01*
X4047998Y28767621D01*
X4098424Y28756902D01*
X4130694Y28742535D01*
X4164712Y28732215D01*
X4218767Y28703322D01*
X4270500Y28680289D01*
X4294551Y28662815D01*
X4320447Y28648973D01*
X4373271Y28605622D01*
X4422887Y28569573D01*
X4438996Y28551682D01*
X4456948Y28536949D01*
X4505188Y28478169D01*
X4548924Y28429595D01*
X4558111Y28413681D01*
X4568972Y28400448D01*
X4609149Y28325281D01*
X4643104Y28266470D01*
X4647009Y28254450D01*
X4652214Y28244713D01*
X4680913Y28150104D01*
X4701311Y28087328D01*
X4702028Y28080498D01*
X4703474Y28075734D01*
X4717536Y27932958D01*
X4721000Y27900000D01*
X4717535Y27867041D01*
X4703474Y27724267D01*
X4702029Y27719504D01*
X4701311Y27712672D01*
X4680909Y27649883D01*
X4652214Y27555288D01*
X4647010Y27545553D01*
X4643104Y27533530D01*
X4609142Y27474707D01*
X4568972Y27399553D01*
X4558113Y27386323D01*
X4548924Y27370405D01*
X4505178Y27321822D01*
X4456948Y27263052D01*
X4439000Y27248323D01*
X4422887Y27230427D01*
X4373260Y27194372D01*
X4320447Y27151028D01*
X4294557Y27137190D01*
X4270500Y27119711D01*
X4218756Y27096674D01*
X4164712Y27067786D01*
X4130701Y27057469D01*
X4098424Y27043098D01*
X4047987Y27032378D01*
X3995733Y27016526D01*
X3954138Y27012430D01*
X3914180Y27003936D01*
X3867903Y27003936D01*
X3820000Y26999218D01*
X3772097Y27003936D01*
X3725820Y27003936D01*
X3685862Y27012430D01*
X3644266Y27016526D01*
X3592009Y27032379D01*
X3541576Y27043098D01*
X3509300Y27057468D01*
X3475287Y27067786D01*
X3421237Y27096677D01*
X3369500Y27119711D01*
X3345445Y27137188D01*
X3319552Y27151028D01*
X3266730Y27194378D01*
X3217113Y27230427D01*
X3201002Y27248320D01*
X3183051Y27263052D01*
X3134809Y27321834D01*
X3091076Y27370405D01*
X3081888Y27386319D01*
X3071027Y27399553D01*
X3030844Y27474731D01*
X2996896Y27533530D01*
X2992991Y27545549D01*
X2987785Y27555288D01*
X2959075Y27649929D01*
X2938689Y27712672D01*
X2937971Y27719499D01*
X2936525Y27724267D01*
X2922448Y27867192D01*
X2919000Y27900000D01*
X2922448Y27932806D01*
X2936525Y28075734D01*
X2937971Y28080503D01*
X2938689Y28087328D01*
X2959071Y28150058D01*
X2987785Y28244713D01*
X2992991Y28254455D01*
X2996896Y28266470D01*
X3030836Y28325258D01*
X3071027Y28400448D01*
X3081890Y28413686D01*
X3091076Y28429595D01*
X3134800Y28478157D01*
X3183051Y28536949D01*
X3201005Y28551685D01*
X3217113Y28569573D01*
X3266720Y28605615D01*
X3319552Y28648973D01*
X3345450Y28662817D01*
X3369500Y28680289D01*
X3421226Y28703319D01*
X3475287Y28732215D01*
X3509307Y28742536D01*
X3541576Y28756902D01*
X3591998Y28767620D01*
X3644266Y28783475D01*
X3685871Y28787573D01*
X3725820Y28796064D01*
X3772086Y28796064D01*
X3820000Y28800783D01*
X3867913Y28796064D01*
G37*
G36*
X-14931086Y28868005D02*
G01*
X-14926355Y28865916D01*
X-14923189Y28865499D01*
X-14883558Y28847019D01*
X-14829894Y28823324D01*
X-14751676Y28745106D01*
X-14727972Y28691421D01*
X-14709502Y28651812D01*
X-14709086Y28648649D01*
X-14706995Y28643914D01*
X-14699000Y28575000D01*
X-14699000Y27625000D01*
X-14706995Y27556086D01*
X-14709086Y27551352D01*
X-14709502Y27548189D01*
X-14727964Y27508598D01*
X-14751676Y27454894D01*
X-14829894Y27376676D01*
X-14883598Y27352964D01*
X-14923189Y27334502D01*
X-14926352Y27334086D01*
X-14931086Y27331995D01*
X-15000000Y27324000D01*
X-15500000Y27324000D01*
X-15568914Y27331995D01*
X-15573649Y27334086D01*
X-15576812Y27334502D01*
X-15616421Y27352972D01*
X-15670106Y27376676D01*
X-15748324Y27454894D01*
X-15772019Y27508558D01*
X-15790499Y27548189D01*
X-15790916Y27551355D01*
X-15793005Y27556086D01*
X-15801000Y27625000D01*
X-15801000Y28575000D01*
X-15793005Y28643914D01*
X-15790916Y28648646D01*
X-15790499Y28651812D01*
X-15772011Y28691462D01*
X-15748324Y28745106D01*
X-15670106Y28823324D01*
X-15616462Y28847011D01*
X-15576812Y28865499D01*
X-15573646Y28865916D01*
X-15568914Y28868005D01*
X-15500000Y28876000D01*
X-15000000Y28876000D01*
X-14931086Y28868005D01*
G37*
G36*
X-13031086Y28868005D02*
G01*
X-13026355Y28865916D01*
X-13023189Y28865499D01*
X-12983558Y28847019D01*
X-12929894Y28823324D01*
X-12851676Y28745106D01*
X-12827972Y28691421D01*
X-12809502Y28651812D01*
X-12809086Y28648649D01*
X-12806995Y28643914D01*
X-12799000Y28575000D01*
X-12799000Y27625000D01*
X-12806995Y27556086D01*
X-12809086Y27551352D01*
X-12809502Y27548189D01*
X-12827964Y27508598D01*
X-12851676Y27454894D01*
X-12929894Y27376676D01*
X-12983598Y27352964D01*
X-13023189Y27334502D01*
X-13026352Y27334086D01*
X-13031086Y27331995D01*
X-13100000Y27324000D01*
X-13600000Y27324000D01*
X-13668914Y27331995D01*
X-13673649Y27334086D01*
X-13676812Y27334502D01*
X-13716421Y27352972D01*
X-13770106Y27376676D01*
X-13848324Y27454894D01*
X-13872019Y27508558D01*
X-13890499Y27548189D01*
X-13890916Y27551355D01*
X-13893005Y27556086D01*
X-13901000Y27625000D01*
X-13901000Y28575000D01*
X-13893005Y28643914D01*
X-13890916Y28648646D01*
X-13890499Y28651812D01*
X-13872011Y28691462D01*
X-13848324Y28745106D01*
X-13770106Y28823324D01*
X-13716462Y28847011D01*
X-13676812Y28865499D01*
X-13673646Y28865916D01*
X-13668914Y28868005D01*
X-13600000Y28876000D01*
X-13100000Y28876000D01*
X-13031086Y28868005D01*
G37*
G36*
X8918914Y28968005D02*
G01*
X8923645Y28965916D01*
X8926811Y28965499D01*
X8966442Y28947019D01*
X9020106Y28923324D01*
X9098324Y28845106D01*
X9122028Y28791421D01*
X9140498Y28751812D01*
X9140914Y28748649D01*
X9143005Y28743914D01*
X9151000Y28675000D01*
X9151000Y27725000D01*
X9143005Y27656086D01*
X9140914Y27651352D01*
X9140498Y27648189D01*
X9122036Y27608598D01*
X9098324Y27554894D01*
X9020106Y27476676D01*
X8966402Y27452964D01*
X8926811Y27434502D01*
X8923648Y27434086D01*
X8918914Y27431995D01*
X8850000Y27424000D01*
X8350000Y27424000D01*
X8281086Y27431995D01*
X8276351Y27434086D01*
X8273188Y27434502D01*
X8233579Y27452972D01*
X8179894Y27476676D01*
X8101676Y27554894D01*
X8077981Y27608558D01*
X8059501Y27648189D01*
X8059084Y27651355D01*
X8056995Y27656086D01*
X8049000Y27725000D01*
X8049000Y28675000D01*
X8056995Y28743914D01*
X8059084Y28748646D01*
X8059501Y28751812D01*
X8077989Y28791462D01*
X8101676Y28845106D01*
X8179894Y28923324D01*
X8233538Y28947011D01*
X8273188Y28965499D01*
X8276354Y28965916D01*
X8281086Y28968005D01*
X8350000Y28976000D01*
X8850000Y28976000D01*
X8918914Y28968005D01*
G37*
G36*
X10818914Y28968005D02*
G01*
X10823645Y28965916D01*
X10826811Y28965499D01*
X10866442Y28947019D01*
X10920106Y28923324D01*
X10998324Y28845106D01*
X11022028Y28791421D01*
X11040498Y28751812D01*
X11040914Y28748649D01*
X11043005Y28743914D01*
X11051000Y28675000D01*
X11051000Y27725000D01*
X11043005Y27656086D01*
X11040914Y27651352D01*
X11040498Y27648189D01*
X11022036Y27608598D01*
X10998324Y27554894D01*
X10920106Y27476676D01*
X10866402Y27452964D01*
X10826811Y27434502D01*
X10823648Y27434086D01*
X10818914Y27431995D01*
X10750000Y27424000D01*
X10250000Y27424000D01*
X10181086Y27431995D01*
X10176351Y27434086D01*
X10173188Y27434502D01*
X10133579Y27452972D01*
X10079894Y27476676D01*
X10001676Y27554894D01*
X9977981Y27608558D01*
X9959501Y27648189D01*
X9959084Y27651355D01*
X9956995Y27656086D01*
X9949000Y27725000D01*
X9949000Y28675000D01*
X9956995Y28743914D01*
X9959084Y28748646D01*
X9959501Y28751812D01*
X9977989Y28791462D01*
X10001676Y28845106D01*
X10079894Y28923324D01*
X10133538Y28947011D01*
X10173188Y28965499D01*
X10176354Y28965916D01*
X10181086Y28968005D01*
X10250000Y28976000D01*
X10750000Y28976000D01*
X10818914Y28968005D01*
G37*
M02*
