G04 #@! TF.GenerationSoftware,KiCad,Pcbnew,8.0.7*
G04 #@! TF.CreationDate,2025-01-15T17:40:26-08:00*
G04 #@! TF.ProjectId,RP2040_minimal_r2,52503230-3430-45f6-9d69-6e696d616c5f,REV2*
G04 #@! TF.SameCoordinates,PX5f5e100PY5f5e100*
G04 #@! TF.FileFunction,Copper,L2,Bot*
G04 #@! TF.FilePolarity,Positive*
%FSLAX46Y46*%
G04 Gerber Fmt 4.6, Leading zero omitted, Abs format (unit mm)*
G04 Created by KiCad (PCBNEW 8.0.7) date 2025-01-15 17:40:26*
%MOMM*%
%LPD*%
G01*
G04 APERTURE LIST*
G04 Aperture macros list*
%AMRoundRect*
0 Rectangle with rounded corners*
0 $1 Rounding radius*
0 $2 $3 $4 $5 $6 $7 $8 $9 X,Y pos of 4 corners*
0 Add a 4 corners polygon primitive as box body*
4,1,4,$2,$3,$4,$5,$6,$7,$8,$9,$2,$3,0*
0 Add four circle primitives for the rounded corners*
1,1,$1+$1,$2,$3*
1,1,$1+$1,$4,$5*
1,1,$1+$1,$6,$7*
1,1,$1+$1,$8,$9*
0 Add four rect primitives between the rounded corners*
20,1,$1+$1,$2,$3,$4,$5,0*
20,1,$1+$1,$4,$5,$6,$7,0*
20,1,$1+$1,$6,$7,$8,$9,0*
20,1,$1+$1,$8,$9,$2,$3,0*%
G04 Aperture macros list end*
G04 #@! TA.AperFunction,ComponentPad*
%ADD10RoundRect,0.250000X-0.600000X-0.725000X0.600000X-0.725000X0.600000X0.725000X-0.600000X0.725000X0*%
G04 #@! TD*
G04 #@! TA.AperFunction,ComponentPad*
%ADD11O,1.700000X1.950000*%
G04 #@! TD*
G04 #@! TA.AperFunction,ComponentPad*
%ADD12C,0.600000*%
G04 #@! TD*
G04 #@! TA.AperFunction,ViaPad*
%ADD13C,0.600000*%
G04 #@! TD*
G04 #@! TA.AperFunction,Conductor*
%ADD14C,0.150000*%
G04 #@! TD*
G04 #@! TA.AperFunction,Conductor*
%ADD15C,0.200000*%
G04 #@! TD*
G04 #@! TA.AperFunction,Conductor*
%ADD16C,0.400000*%
G04 #@! TD*
G04 APERTURE END LIST*
D10*
X-3750000Y27300000D03*
D11*
X-1250000Y27300000D03*
X1250000Y27300000D03*
X3750000Y27300000D03*
D12*
X-2775000Y14500000D03*
X-2775000Y13225000D03*
X-2775000Y11950000D03*
X-1500000Y14500000D03*
X-1500000Y13225000D03*
X-1500000Y11950000D03*
X-225000Y14500000D03*
X-225000Y13225000D03*
X-225000Y11950000D03*
D13*
X-8600000Y200000D03*
X-6700000Y9000000D03*
X-4937500Y9837500D03*
X-8850000Y8550000D03*
X-19500000Y21100000D03*
X15500000Y-1000000D03*
X19600000Y23100000D03*
X-1600000Y-1800000D03*
X20000000Y6500000D03*
X5300000Y16700000D03*
X2000000Y21200000D03*
X9550000Y24250000D03*
X-18500000Y6600000D03*
X4500000Y-1000000D03*
X-4300000Y6000000D03*
X-18500000Y13900000D03*
X18500000Y14400000D03*
X-18500000Y-500000D03*
X-16600000Y28100000D03*
X9000000Y6500000D03*
X-8200000Y12000000D03*
X-8100000Y16000000D03*
X7400000Y20400000D03*
X-4400000Y1800000D03*
X14500000Y6500000D03*
X-2000000Y21200000D03*
X11700000Y28200000D03*
X10000000Y-1000000D03*
X-9000000Y26500000D03*
X-2800000Y8600000D03*
X5300000Y12000000D03*
X-10300000Y19195000D03*
X1700000Y6000000D03*
X1600000Y1900000D03*
X-1700000Y18025006D03*
X-800000Y15325000D03*
X-700000Y8025000D03*
X-900030Y11125000D03*
X11050000Y17500000D03*
X11050000Y13750000D03*
D14*
X-4937500Y9837500D02*
X-5862500Y9837500D01*
X-5862500Y9837500D02*
X-6700000Y9000000D01*
D15*
X2500000Y20225000D02*
X2300000Y20225000D01*
D16*
X-700000Y8025000D02*
X-910000Y8235000D01*
X-910000Y8235000D02*
X-910000Y11115030D01*
X184620Y11125000D02*
X-900030Y11125000D01*
X625000Y11565380D02*
X184620Y11125000D01*
X-800000Y15325000D02*
X334620Y15325000D01*
X-910000Y11115030D02*
X-900030Y11125000D01*
X625000Y15034620D02*
X625000Y11565380D01*
X-1700000Y16215000D02*
X-810000Y15325000D01*
X-1700000Y18025006D02*
X-1700000Y16215000D01*
X-810000Y15325000D02*
X-800000Y15325000D01*
X334620Y15325000D02*
X625000Y15034620D01*
D15*
X11050000Y13750000D02*
X11050000Y17500000D01*
X11050000Y17500000D02*
X11050000Y17550000D01*
G04 #@! TA.AperFunction,Conductor*
G36*
X22658691Y29680593D02*
G01*
X22694655Y29631093D01*
X22699500Y29600500D01*
X22699500Y-3600500D01*
X22680593Y-3658691D01*
X22631093Y-3694655D01*
X22600500Y-3699500D01*
X-22600500Y-3699500D01*
X-22658691Y-3680593D01*
X-22694655Y-3631093D01*
X-22699500Y-3600500D01*
X-22699500Y-1293709D01*
X19049500Y-1293709D01*
X19049500Y-1506290D01*
X19082752Y-1716238D01*
X19148443Y-1918412D01*
X19244948Y-2107815D01*
X19244950Y-2107819D01*
X19369891Y-2279786D01*
X19369893Y-2279788D01*
X19369896Y-2279792D01*
X19520208Y-2430104D01*
X19520211Y-2430106D01*
X19520213Y-2430108D01*
X19692180Y-2555049D01*
X19692184Y-2555051D01*
X19881588Y-2651557D01*
X20083757Y-2717246D01*
X20083758Y-2717246D01*
X20083761Y-2717247D01*
X20293710Y-2750500D01*
X20293713Y-2750500D01*
X20506290Y-2750500D01*
X20716238Y-2717247D01*
X20716239Y-2717246D01*
X20716243Y-2717246D01*
X20918412Y-2651557D01*
X21107816Y-2555051D01*
X21279792Y-2430104D01*
X21430104Y-2279792D01*
X21555051Y-2107816D01*
X21651557Y-1918412D01*
X21717246Y-1716243D01*
X21750500Y-1506287D01*
X21750500Y-1293713D01*
X21750500Y-1293709D01*
X21717247Y-1083761D01*
X21717246Y-1083757D01*
X21651557Y-881588D01*
X21555051Y-692184D01*
X21555049Y-692180D01*
X21430108Y-520213D01*
X21430106Y-520211D01*
X21430104Y-520208D01*
X21279792Y-369896D01*
X21279788Y-369893D01*
X21279786Y-369891D01*
X21107819Y-244950D01*
X21107815Y-244948D01*
X20918412Y-148443D01*
X20716238Y-82752D01*
X20506290Y-49500D01*
X20506287Y-49500D01*
X20293713Y-49500D01*
X20293710Y-49500D01*
X20083761Y-82752D01*
X19881587Y-148443D01*
X19692184Y-244948D01*
X19692180Y-244950D01*
X19520213Y-369891D01*
X19369891Y-520213D01*
X19244950Y-692180D01*
X19244948Y-692184D01*
X19148443Y-881587D01*
X19082752Y-1083761D01*
X19049500Y-1293709D01*
X-22699500Y-1293709D01*
X-22699500Y9000003D01*
X-7205647Y9000003D01*
X-7205647Y8999998D01*
X-7185166Y8857544D01*
X-7125378Y8726629D01*
X-7125377Y8726627D01*
X-7031128Y8617857D01*
X-7031127Y8617856D01*
X-6927996Y8551578D01*
X-6910053Y8540047D01*
X-6827001Y8515661D01*
X-6771965Y8499501D01*
X-6771964Y8499501D01*
X-6771961Y8499500D01*
X-6771959Y8499500D01*
X-6628041Y8499500D01*
X-6628039Y8499500D01*
X-6489947Y8540047D01*
X-6368872Y8617857D01*
X-6274623Y8726627D01*
X-6214835Y8857543D01*
X-6194353Y9000000D01*
X-6201887Y9052397D01*
X-6191455Y9112684D01*
X-6173902Y9136485D01*
X-5777381Y9533004D01*
X-5722865Y9560781D01*
X-5707378Y9562000D01*
X-5406246Y9562000D01*
X-5348055Y9543093D01*
X-5331429Y9527834D01*
X-5272611Y9459954D01*
X-5268627Y9455356D01*
X-5154708Y9382145D01*
X-5147553Y9377547D01*
X-5041097Y9346289D01*
X-5009465Y9337001D01*
X-5009464Y9337001D01*
X-5009461Y9337000D01*
X-5009459Y9337000D01*
X-4865541Y9337000D01*
X-4865539Y9337000D01*
X-4727447Y9377547D01*
X-4606372Y9455357D01*
X-4512123Y9564127D01*
X-4452335Y9695043D01*
X-4431853Y9837500D01*
X-4452335Y9979957D01*
X-4512123Y10110873D01*
X-4606372Y10219643D01*
X-4606373Y10219644D01*
X-4606374Y10219645D01*
X-4727443Y10297451D01*
X-4727446Y10297453D01*
X-4727447Y10297453D01*
X-4727450Y10297454D01*
X-4865536Y10338000D01*
X-4865539Y10338000D01*
X-5009461Y10338000D01*
X-5009465Y10338000D01*
X-5147551Y10297454D01*
X-5147558Y10297451D01*
X-5268627Y10219645D01*
X-5302836Y10180165D01*
X-5331428Y10147169D01*
X-5383822Y10115573D01*
X-5406246Y10113000D01*
X-5807700Y10113000D01*
X-5917300Y10113000D01*
X-6018558Y10071057D01*
X-6018560Y10071056D01*
X-6018562Y10071054D01*
X-6560121Y9529496D01*
X-6614637Y9501719D01*
X-6630124Y9500500D01*
X-6771965Y9500500D01*
X-6910051Y9459954D01*
X-6910058Y9459951D01*
X-7031127Y9382145D01*
X-7125378Y9273372D01*
X-7185166Y9142457D01*
X-7205647Y9000003D01*
X-22699500Y9000003D01*
X-22699500Y18025009D01*
X-2205647Y18025009D01*
X-2205647Y18025004D01*
X-2185166Y17882550D01*
X-2125377Y17751633D01*
X-2124684Y17750833D01*
X-2124340Y17750017D01*
X-2121547Y17745672D01*
X-2122299Y17745190D01*
X-2100864Y17694475D01*
X-2100500Y17685998D01*
X-2100500Y16267727D01*
X-2100500Y16162273D01*
X-2076430Y16072441D01*
X-2073206Y16060408D01*
X-2020484Y15969092D01*
X-2020483Y15969091D01*
X-2020482Y15969090D01*
X-2020480Y15969087D01*
X-1406493Y15355100D01*
X-1317067Y15265674D01*
X-1289290Y15211157D01*
X-1289079Y15209763D01*
X-1285165Y15182543D01*
X-1225377Y15051627D01*
X-1131128Y14942857D01*
X-1131127Y14942856D01*
X-1010058Y14865050D01*
X-1010053Y14865047D01*
X-903597Y14833789D01*
X-871965Y14824501D01*
X-871964Y14824501D01*
X-871961Y14824500D01*
X-871959Y14824500D01*
X-728041Y14824500D01*
X-728039Y14824500D01*
X-589947Y14865047D01*
X-521890Y14908785D01*
X-468368Y14924500D01*
X125500Y14924500D01*
X183691Y14905593D01*
X219655Y14856093D01*
X224500Y14825500D01*
X224500Y11772281D01*
X205593Y11714090D01*
X195504Y11702277D01*
X47723Y11554496D01*
X-6794Y11526719D01*
X-22281Y11525500D01*
X-568398Y11525500D01*
X-621920Y11541216D01*
X-689977Y11584953D01*
X-689980Y11584954D01*
X-828066Y11625500D01*
X-828069Y11625500D01*
X-971991Y11625500D01*
X-971995Y11625500D01*
X-1110081Y11584954D01*
X-1110088Y11584951D01*
X-1231157Y11507145D01*
X-1325408Y11398372D01*
X-1385196Y11267457D01*
X-1405677Y11125003D01*
X-1405677Y11124998D01*
X-1385196Y10982544D01*
X-1385196Y10982542D01*
X-1322466Y10845185D01*
X-1323780Y10844585D01*
X-1310500Y10799362D01*
X-1310500Y8287727D01*
X-1310500Y8182273D01*
X-1306530Y8167457D01*
X-1283206Y8080408D01*
X-1230484Y7989092D01*
X-1230482Y7989090D01*
X-1230480Y7989087D01*
X-1218745Y7977352D01*
X-1190969Y7922837D01*
X-1190758Y7921439D01*
X-1185166Y7882544D01*
X-1125378Y7751629D01*
X-1125377Y7751627D01*
X-1031128Y7642857D01*
X-1031127Y7642856D01*
X-910058Y7565050D01*
X-910053Y7565047D01*
X-803597Y7533789D01*
X-771965Y7524501D01*
X-771964Y7524501D01*
X-771961Y7524500D01*
X-771959Y7524500D01*
X-628041Y7524500D01*
X-628039Y7524500D01*
X-489947Y7565047D01*
X-368872Y7642857D01*
X-274623Y7751627D01*
X-214835Y7882543D01*
X-194353Y8025000D01*
X-214835Y8167457D01*
X-274623Y8298373D01*
X-368872Y8407143D01*
X-415728Y8437256D01*
X-464024Y8468294D01*
X-502755Y8515661D01*
X-509500Y8551578D01*
X-509500Y10625500D01*
X-490593Y10683691D01*
X-441093Y10719655D01*
X-410500Y10724500D01*
X237345Y10724500D01*
X237347Y10724500D01*
X339208Y10751793D01*
X339210Y10751795D01*
X339212Y10751795D01*
X430528Y10804517D01*
X430528Y10804518D01*
X430533Y10804520D01*
X945480Y11319467D01*
X976105Y11372513D01*
X998169Y11410727D01*
X998179Y11410746D01*
X998206Y11410792D01*
X998207Y11410793D01*
X1025500Y11512653D01*
X1025500Y15087347D01*
X998207Y15189207D01*
X967510Y15242375D01*
X945480Y15280533D01*
X870914Y15355100D01*
X580533Y15645480D01*
X580528Y15645484D01*
X489211Y15698206D01*
X489213Y15698206D01*
X449690Y15708796D01*
X387347Y15725500D01*
X387345Y15725500D01*
X-468368Y15725500D01*
X-521890Y15741216D01*
X-589947Y15784953D01*
X-726540Y15825060D01*
X-768653Y15850046D01*
X-1270504Y16351897D01*
X-1298281Y16406414D01*
X-1299500Y16421901D01*
X-1299500Y17500003D01*
X10544353Y17500003D01*
X10544353Y17499998D01*
X10564834Y17357544D01*
X10624623Y17226627D01*
X10723509Y17112506D01*
X10721471Y17110741D01*
X10746925Y17068542D01*
X10749500Y17046107D01*
X10749500Y14203895D01*
X10730593Y14145704D01*
X10723258Y14137711D01*
X10723509Y14137494D01*
X10624622Y14023372D01*
X10564834Y13892457D01*
X10544353Y13750003D01*
X10544353Y13749998D01*
X10564834Y13607544D01*
X10624622Y13476629D01*
X10624623Y13476627D01*
X10718872Y13367857D01*
X10718873Y13367856D01*
X10839942Y13290050D01*
X10839947Y13290047D01*
X10946403Y13258789D01*
X10978035Y13249501D01*
X10978036Y13249501D01*
X10978039Y13249500D01*
X10978041Y13249500D01*
X11121959Y13249500D01*
X11121961Y13249500D01*
X11260053Y13290047D01*
X11381128Y13367857D01*
X11475377Y13476627D01*
X11535165Y13607543D01*
X11555647Y13750000D01*
X11535165Y13892457D01*
X11475377Y14023373D01*
X11381128Y14132143D01*
X11381127Y14132144D01*
X11376491Y14137494D01*
X11378524Y14139257D01*
X11353067Y14181495D01*
X11350500Y14203895D01*
X11350500Y17046107D01*
X11369407Y17104298D01*
X11376741Y17112289D01*
X11376491Y17112506D01*
X11381128Y17117857D01*
X11475377Y17226627D01*
X11535165Y17357543D01*
X11555647Y17500000D01*
X11535165Y17642457D01*
X11475377Y17773373D01*
X11381128Y17882143D01*
X11381127Y17882144D01*
X11381126Y17882145D01*
X11260057Y17959951D01*
X11260054Y17959953D01*
X11260053Y17959953D01*
X11260050Y17959954D01*
X11121964Y18000500D01*
X11121961Y18000500D01*
X10978039Y18000500D01*
X10978035Y18000500D01*
X10839949Y17959954D01*
X10839942Y17959951D01*
X10718873Y17882145D01*
X10624622Y17773372D01*
X10564834Y17642457D01*
X10544353Y17500003D01*
X-1299500Y17500003D01*
X-1299500Y17685998D01*
X-1280593Y17744189D01*
X-1275316Y17750833D01*
X-1275193Y17750977D01*
X-1274623Y17751633D01*
X-1214835Y17882549D01*
X-1194353Y18025006D01*
X-1214835Y18167463D01*
X-1274623Y18298379D01*
X-1368872Y18407149D01*
X-1368873Y18407150D01*
X-1368874Y18407151D01*
X-1489943Y18484957D01*
X-1489946Y18484959D01*
X-1489947Y18484959D01*
X-1489950Y18484960D01*
X-1628036Y18525506D01*
X-1628039Y18525506D01*
X-1771961Y18525506D01*
X-1771965Y18525506D01*
X-1910051Y18484960D01*
X-1910058Y18484957D01*
X-2031127Y18407151D01*
X-2125378Y18298378D01*
X-2185166Y18167463D01*
X-2205647Y18025009D01*
X-22699500Y18025009D01*
X-22699500Y27506291D01*
X-21750500Y27506291D01*
X-21750500Y27293710D01*
X-21717248Y27083762D01*
X-21651557Y26881588D01*
X-21555052Y26692185D01*
X-21555050Y26692181D01*
X-21430109Y26520214D01*
X-21430107Y26520212D01*
X-21430104Y26520208D01*
X-21279792Y26369896D01*
X-21279789Y26369894D01*
X-21279787Y26369892D01*
X-21107820Y26244951D01*
X-21107816Y26244949D01*
X-20918412Y26148443D01*
X-20716243Y26082754D01*
X-20716242Y26082754D01*
X-20716239Y26082753D01*
X-20506290Y26049500D01*
X-20506287Y26049500D01*
X-20293710Y26049500D01*
X-20083762Y26082753D01*
X-20083761Y26082754D01*
X-20083757Y26082754D01*
X-19881588Y26148443D01*
X-19692184Y26244949D01*
X-19520208Y26369896D01*
X-19369896Y26520208D01*
X-19244949Y26692184D01*
X-19148443Y26881588D01*
X-19082754Y27083757D01*
X-19072262Y27150000D01*
X-19049500Y27293710D01*
X-19049500Y27506291D01*
X-19082753Y27716239D01*
X-19087685Y27731419D01*
X-19148443Y27918412D01*
X-19224695Y28068065D01*
X-4900000Y28068065D01*
X-4900000Y27450001D01*
X-4899999Y27450000D01*
X-4201564Y27450000D01*
X-4225000Y27362535D01*
X-4225000Y27237465D01*
X-4201564Y27150000D01*
X-4899999Y27150000D01*
X-4900000Y27149999D01*
X-4900000Y26531936D01*
X-4889387Y26443557D01*
X-4833920Y26302905D01*
X-4742565Y26182436D01*
X-4622096Y26091081D01*
X-4481444Y26035614D01*
X-4393065Y26025001D01*
X-4393058Y26025000D01*
X-3900001Y26025000D01*
X-3900000Y26025001D01*
X-3900000Y26848436D01*
X-3812535Y26825000D01*
X-3687465Y26825000D01*
X-3600000Y26848436D01*
X-3600000Y26025001D01*
X-3599999Y26025000D01*
X-3106942Y26025000D01*
X-3106936Y26025001D01*
X-3018557Y26035614D01*
X-2877905Y26091081D01*
X-2757436Y26182436D01*
X-2666081Y26302905D01*
X-2610614Y26443557D01*
X-2600001Y26531936D01*
X-2600000Y26531942D01*
X-2600000Y27149999D01*
X-2600001Y27150000D01*
X-3298436Y27150000D01*
X-3275000Y27237465D01*
X-3275000Y27362535D01*
X-3298436Y27450000D01*
X-2600001Y27450000D01*
X-2600000Y27450001D01*
X-2600000Y27528468D01*
X-2300500Y27528468D01*
X-2300500Y27071533D01*
X-2260131Y26868582D01*
X-2180942Y26677403D01*
X-2075912Y26520214D01*
X-2065977Y26505345D01*
X-1919655Y26359023D01*
X-1747598Y26244059D01*
X-1556420Y26164870D01*
X-1353465Y26124500D01*
X-1353464Y26124500D01*
X-1146536Y26124500D01*
X-1146535Y26124500D01*
X-943580Y26164870D01*
X-752402Y26244059D01*
X-580345Y26359023D01*
X-434023Y26505345D01*
X-319059Y26677402D01*
X-239870Y26868580D01*
X-199500Y27071535D01*
X-199500Y27528465D01*
X-199501Y27528468D01*
X199500Y27528468D01*
X199500Y27071533D01*
X239869Y26868582D01*
X319058Y26677403D01*
X424088Y26520214D01*
X434023Y26505345D01*
X580345Y26359023D01*
X752402Y26244059D01*
X943580Y26164870D01*
X1146535Y26124500D01*
X1146536Y26124500D01*
X1353464Y26124500D01*
X1353465Y26124500D01*
X1556420Y26164870D01*
X1747598Y26244059D01*
X1919655Y26359023D01*
X2065977Y26505345D01*
X2180941Y26677402D01*
X2260130Y26868580D01*
X2300500Y27071535D01*
X2300500Y27528465D01*
X2300499Y27528468D01*
X2699500Y27528468D01*
X2699500Y27071533D01*
X2739869Y26868582D01*
X2819058Y26677403D01*
X2924088Y26520214D01*
X2934023Y26505345D01*
X3080345Y26359023D01*
X3252402Y26244059D01*
X3443580Y26164870D01*
X3646535Y26124500D01*
X3646536Y26124500D01*
X3853464Y26124500D01*
X3853465Y26124500D01*
X4056420Y26164870D01*
X4247598Y26244059D01*
X4419655Y26359023D01*
X4565977Y26505345D01*
X4680941Y26677402D01*
X4760130Y26868580D01*
X4800500Y27071535D01*
X4800500Y27528465D01*
X4760130Y27731420D01*
X4680941Y27922598D01*
X4565977Y28094655D01*
X4419655Y28240977D01*
X4419651Y28240980D01*
X4247597Y28355942D01*
X4056418Y28435131D01*
X3853467Y28475500D01*
X3853465Y28475500D01*
X3646535Y28475500D01*
X3646532Y28475500D01*
X3443581Y28435131D01*
X3252402Y28355942D01*
X3080348Y28240980D01*
X2934020Y28094652D01*
X2819058Y27922598D01*
X2739869Y27731419D01*
X2699500Y27528468D01*
X2300499Y27528468D01*
X2260130Y27731420D01*
X2180941Y27922598D01*
X2065977Y28094655D01*
X1919655Y28240977D01*
X1919651Y28240980D01*
X1747597Y28355942D01*
X1556418Y28435131D01*
X1353467Y28475500D01*
X1353465Y28475500D01*
X1146535Y28475500D01*
X1146532Y28475500D01*
X943581Y28435131D01*
X752402Y28355942D01*
X580348Y28240980D01*
X434020Y28094652D01*
X319058Y27922598D01*
X239869Y27731419D01*
X199500Y27528468D01*
X-199501Y27528468D01*
X-239870Y27731420D01*
X-319059Y27922598D01*
X-434023Y28094655D01*
X-580345Y28240977D01*
X-580349Y28240980D01*
X-752403Y28355942D01*
X-943582Y28435131D01*
X-1146533Y28475500D01*
X-1146535Y28475500D01*
X-1353465Y28475500D01*
X-1353468Y28475500D01*
X-1556419Y28435131D01*
X-1747598Y28355942D01*
X-1919652Y28240980D01*
X-2065980Y28094652D01*
X-2180942Y27922598D01*
X-2260131Y27731419D01*
X-2300500Y27528468D01*
X-2600000Y27528468D01*
X-2600000Y28068059D01*
X-2600001Y28068065D01*
X-2610614Y28156444D01*
X-2666081Y28297096D01*
X-2757436Y28417565D01*
X-2877905Y28508920D01*
X-3018557Y28564387D01*
X-3106936Y28575000D01*
X-3599999Y28575000D01*
X-3600000Y28574999D01*
X-3600000Y27751565D01*
X-3687465Y27775000D01*
X-3812535Y27775000D01*
X-3900000Y27751565D01*
X-3900000Y28574999D01*
X-3900001Y28575000D01*
X-4393065Y28575000D01*
X-4481444Y28564387D01*
X-4622096Y28508920D01*
X-4742565Y28417565D01*
X-4833920Y28297096D01*
X-4889387Y28156444D01*
X-4900000Y28068065D01*
X-19224695Y28068065D01*
X-19244949Y28107816D01*
X-19244951Y28107820D01*
X-19369892Y28279787D01*
X-19369894Y28279789D01*
X-19369896Y28279792D01*
X-19520208Y28430104D01*
X-19520212Y28430107D01*
X-19520214Y28430109D01*
X-19692181Y28555050D01*
X-19692185Y28555052D01*
X-19881588Y28651557D01*
X-20083762Y28717248D01*
X-20293710Y28750500D01*
X-20293713Y28750500D01*
X-20506287Y28750500D01*
X-20506290Y28750500D01*
X-20716239Y28717248D01*
X-20918413Y28651557D01*
X-21107816Y28555052D01*
X-21107820Y28555050D01*
X-21279787Y28430109D01*
X-21430109Y28279787D01*
X-21555050Y28107820D01*
X-21555052Y28107816D01*
X-21651557Y27918413D01*
X-21717248Y27716239D01*
X-21750500Y27506291D01*
X-22699500Y27506291D01*
X-22699500Y29600500D01*
X-22680593Y29658691D01*
X-22631093Y29694655D01*
X-22600500Y29699500D01*
X22600500Y29699500D01*
X22658691Y29680593D01*
G37*
G04 #@! TD.AperFunction*
M02*
