G04 #@! TF.GenerationSoftware,KiCad,Pcbnew,8.0.7*
G04 #@! TF.CreationDate,2025-01-01T17:44:55-08:00*
G04 #@! TF.ProjectId,RP2040_minimal_r2,52503230-3430-45f6-9d69-6e696d616c5f,REV2*
G04 #@! TF.SameCoordinates,PX5f5e100PY5f5e100*
G04 #@! TF.FileFunction,Legend,Bot*
G04 #@! TF.FilePolarity,Positive*
%FSLAX46Y46*%
G04 Gerber Fmt 4.6, Leading zero omitted, Abs format (unit mm)*
G04 Created by KiCad (PCBNEW 8.0.7) date 2025-01-01 17:44:55*
%MOMM*%
%LPD*%
G01*
G04 APERTURE LIST*
%ADD10C,0.150000*%
G04 APERTURE END LIST*
D10*
X20463220Y22230181D02*
X20463220Y23230181D01*
X20034649Y22230181D02*
X20034649Y22753991D01*
X20034649Y22753991D02*
X20082268Y22849229D01*
X20082268Y22849229D02*
X20177506Y22896848D01*
X20177506Y22896848D02*
X20320363Y22896848D01*
X20320363Y22896848D02*
X20415601Y22849229D01*
X20415601Y22849229D02*
X20463220Y22801610D01*
X19701315Y22896848D02*
X19320363Y22896848D01*
X19558458Y23230181D02*
X19558458Y22373039D01*
X19558458Y22373039D02*
X19510839Y22277800D01*
X19510839Y22277800D02*
X19415601Y22230181D01*
X19415601Y22230181D02*
X19320363Y22230181D01*
X19129886Y22896848D02*
X18748934Y22896848D01*
X18987029Y23230181D02*
X18987029Y22373039D01*
X18987029Y22373039D02*
X18939410Y22277800D01*
X18939410Y22277800D02*
X18844172Y22230181D01*
X18844172Y22230181D02*
X18748934Y22230181D01*
X18415600Y22896848D02*
X18415600Y21896848D01*
X18415600Y22849229D02*
X18320362Y22896848D01*
X18320362Y22896848D02*
X18129886Y22896848D01*
X18129886Y22896848D02*
X18034648Y22849229D01*
X18034648Y22849229D02*
X17987029Y22801610D01*
X17987029Y22801610D02*
X17939410Y22706372D01*
X17939410Y22706372D02*
X17939410Y22420658D01*
X17939410Y22420658D02*
X17987029Y22325420D01*
X17987029Y22325420D02*
X18034648Y22277800D01*
X18034648Y22277800D02*
X18129886Y22230181D01*
X18129886Y22230181D02*
X18320362Y22230181D01*
X18320362Y22230181D02*
X18415600Y22277800D01*
X17558457Y22277800D02*
X17463219Y22230181D01*
X17463219Y22230181D02*
X17272743Y22230181D01*
X17272743Y22230181D02*
X17177505Y22277800D01*
X17177505Y22277800D02*
X17129886Y22373039D01*
X17129886Y22373039D02*
X17129886Y22420658D01*
X17129886Y22420658D02*
X17177505Y22515896D01*
X17177505Y22515896D02*
X17272743Y22563515D01*
X17272743Y22563515D02*
X17415600Y22563515D01*
X17415600Y22563515D02*
X17510838Y22611134D01*
X17510838Y22611134D02*
X17558457Y22706372D01*
X17558457Y22706372D02*
X17558457Y22753991D01*
X17558457Y22753991D02*
X17510838Y22849229D01*
X17510838Y22849229D02*
X17415600Y22896848D01*
X17415600Y22896848D02*
X17272743Y22896848D01*
X17272743Y22896848D02*
X17177505Y22849229D01*
X16701314Y22325420D02*
X16653695Y22277800D01*
X16653695Y22277800D02*
X16701314Y22230181D01*
X16701314Y22230181D02*
X16748933Y22277800D01*
X16748933Y22277800D02*
X16701314Y22325420D01*
X16701314Y22325420D02*
X16701314Y22230181D01*
X16701314Y22849229D02*
X16653695Y22801610D01*
X16653695Y22801610D02*
X16701314Y22753991D01*
X16701314Y22753991D02*
X16748933Y22801610D01*
X16748933Y22801610D02*
X16701314Y22849229D01*
X16701314Y22849229D02*
X16701314Y22753991D01*
X15510839Y23277800D02*
X16367981Y21992086D01*
X14463220Y23277800D02*
X15320362Y21992086D01*
X13701315Y22896848D02*
X13701315Y22087324D01*
X13701315Y22087324D02*
X13748934Y21992086D01*
X13748934Y21992086D02*
X13796553Y21944467D01*
X13796553Y21944467D02*
X13891791Y21896848D01*
X13891791Y21896848D02*
X14034648Y21896848D01*
X14034648Y21896848D02*
X14129886Y21944467D01*
X13701315Y22277800D02*
X13796553Y22230181D01*
X13796553Y22230181D02*
X13987029Y22230181D01*
X13987029Y22230181D02*
X14082267Y22277800D01*
X14082267Y22277800D02*
X14129886Y22325420D01*
X14129886Y22325420D02*
X14177505Y22420658D01*
X14177505Y22420658D02*
X14177505Y22706372D01*
X14177505Y22706372D02*
X14129886Y22801610D01*
X14129886Y22801610D02*
X14082267Y22849229D01*
X14082267Y22849229D02*
X13987029Y22896848D01*
X13987029Y22896848D02*
X13796553Y22896848D01*
X13796553Y22896848D02*
X13701315Y22849229D01*
X13225124Y22230181D02*
X13225124Y22896848D01*
X13225124Y23230181D02*
X13272743Y23182562D01*
X13272743Y23182562D02*
X13225124Y23134943D01*
X13225124Y23134943D02*
X13177505Y23182562D01*
X13177505Y23182562D02*
X13225124Y23230181D01*
X13225124Y23230181D02*
X13225124Y23134943D01*
X12891791Y22896848D02*
X12510839Y22896848D01*
X12748934Y23230181D02*
X12748934Y22373039D01*
X12748934Y22373039D02*
X12701315Y22277800D01*
X12701315Y22277800D02*
X12606077Y22230181D01*
X12606077Y22230181D02*
X12510839Y22230181D01*
X12177505Y22230181D02*
X12177505Y23230181D01*
X11748934Y22230181D02*
X11748934Y22753991D01*
X11748934Y22753991D02*
X11796553Y22849229D01*
X11796553Y22849229D02*
X11891791Y22896848D01*
X11891791Y22896848D02*
X12034648Y22896848D01*
X12034648Y22896848D02*
X12129886Y22849229D01*
X12129886Y22849229D02*
X12177505Y22801610D01*
X10844172Y22896848D02*
X10844172Y22230181D01*
X11272743Y22896848D02*
X11272743Y22373039D01*
X11272743Y22373039D02*
X11225124Y22277800D01*
X11225124Y22277800D02*
X11129886Y22230181D01*
X11129886Y22230181D02*
X10987029Y22230181D01*
X10987029Y22230181D02*
X10891791Y22277800D01*
X10891791Y22277800D02*
X10844172Y22325420D01*
X10367981Y22230181D02*
X10367981Y23230181D01*
X10367981Y22849229D02*
X10272743Y22896848D01*
X10272743Y22896848D02*
X10082267Y22896848D01*
X10082267Y22896848D02*
X9987029Y22849229D01*
X9987029Y22849229D02*
X9939410Y22801610D01*
X9939410Y22801610D02*
X9891791Y22706372D01*
X9891791Y22706372D02*
X9891791Y22420658D01*
X9891791Y22420658D02*
X9939410Y22325420D01*
X9939410Y22325420D02*
X9987029Y22277800D01*
X9987029Y22277800D02*
X10082267Y22230181D01*
X10082267Y22230181D02*
X10272743Y22230181D01*
X10272743Y22230181D02*
X10367981Y22277800D01*
X9463219Y22325420D02*
X9415600Y22277800D01*
X9415600Y22277800D02*
X9463219Y22230181D01*
X9463219Y22230181D02*
X9510838Y22277800D01*
X9510838Y22277800D02*
X9463219Y22325420D01*
X9463219Y22325420D02*
X9463219Y22230181D01*
X8558458Y22277800D02*
X8653696Y22230181D01*
X8653696Y22230181D02*
X8844172Y22230181D01*
X8844172Y22230181D02*
X8939410Y22277800D01*
X8939410Y22277800D02*
X8987029Y22325420D01*
X8987029Y22325420D02*
X9034648Y22420658D01*
X9034648Y22420658D02*
X9034648Y22706372D01*
X9034648Y22706372D02*
X8987029Y22801610D01*
X8987029Y22801610D02*
X8939410Y22849229D01*
X8939410Y22849229D02*
X8844172Y22896848D01*
X8844172Y22896848D02*
X8653696Y22896848D01*
X8653696Y22896848D02*
X8558458Y22849229D01*
X7987029Y22230181D02*
X8082267Y22277800D01*
X8082267Y22277800D02*
X8129886Y22325420D01*
X8129886Y22325420D02*
X8177505Y22420658D01*
X8177505Y22420658D02*
X8177505Y22706372D01*
X8177505Y22706372D02*
X8129886Y22801610D01*
X8129886Y22801610D02*
X8082267Y22849229D01*
X8082267Y22849229D02*
X7987029Y22896848D01*
X7987029Y22896848D02*
X7844172Y22896848D01*
X7844172Y22896848D02*
X7748934Y22849229D01*
X7748934Y22849229D02*
X7701315Y22801610D01*
X7701315Y22801610D02*
X7653696Y22706372D01*
X7653696Y22706372D02*
X7653696Y22420658D01*
X7653696Y22420658D02*
X7701315Y22325420D01*
X7701315Y22325420D02*
X7748934Y22277800D01*
X7748934Y22277800D02*
X7844172Y22230181D01*
X7844172Y22230181D02*
X7987029Y22230181D01*
X7225124Y22230181D02*
X7225124Y22896848D01*
X7225124Y22801610D02*
X7177505Y22849229D01*
X7177505Y22849229D02*
X7082267Y22896848D01*
X7082267Y22896848D02*
X6939410Y22896848D01*
X6939410Y22896848D02*
X6844172Y22849229D01*
X6844172Y22849229D02*
X6796553Y22753991D01*
X6796553Y22753991D02*
X6796553Y22230181D01*
X6796553Y22753991D02*
X6748934Y22849229D01*
X6748934Y22849229D02*
X6653696Y22896848D01*
X6653696Y22896848D02*
X6510839Y22896848D01*
X6510839Y22896848D02*
X6415600Y22849229D01*
X6415600Y22849229D02*
X6367981Y22753991D01*
X6367981Y22753991D02*
X6367981Y22230181D01*
X5177506Y23277800D02*
X6034648Y21992086D01*
X4844172Y22230181D02*
X4844172Y22896848D01*
X4844172Y22801610D02*
X4796553Y22849229D01*
X4796553Y22849229D02*
X4701315Y22896848D01*
X4701315Y22896848D02*
X4558458Y22896848D01*
X4558458Y22896848D02*
X4463220Y22849229D01*
X4463220Y22849229D02*
X4415601Y22753991D01*
X4415601Y22753991D02*
X4415601Y22230181D01*
X4415601Y22753991D02*
X4367982Y22849229D01*
X4367982Y22849229D02*
X4272744Y22896848D01*
X4272744Y22896848D02*
X4129887Y22896848D01*
X4129887Y22896848D02*
X4034648Y22849229D01*
X4034648Y22849229D02*
X3987029Y22753991D01*
X3987029Y22753991D02*
X3987029Y22230181D01*
X3367982Y22230181D02*
X3463220Y22277800D01*
X3463220Y22277800D02*
X3510839Y22325420D01*
X3510839Y22325420D02*
X3558458Y22420658D01*
X3558458Y22420658D02*
X3558458Y22706372D01*
X3558458Y22706372D02*
X3510839Y22801610D01*
X3510839Y22801610D02*
X3463220Y22849229D01*
X3463220Y22849229D02*
X3367982Y22896848D01*
X3367982Y22896848D02*
X3225125Y22896848D01*
X3225125Y22896848D02*
X3129887Y22849229D01*
X3129887Y22849229D02*
X3082268Y22801610D01*
X3082268Y22801610D02*
X3034649Y22706372D01*
X3034649Y22706372D02*
X3034649Y22420658D01*
X3034649Y22420658D02*
X3082268Y22325420D01*
X3082268Y22325420D02*
X3129887Y22277800D01*
X3129887Y22277800D02*
X3225125Y22230181D01*
X3225125Y22230181D02*
X3367982Y22230181D01*
X2606077Y22896848D02*
X2606077Y22230181D01*
X2606077Y22801610D02*
X2558458Y22849229D01*
X2558458Y22849229D02*
X2463220Y22896848D01*
X2463220Y22896848D02*
X2320363Y22896848D01*
X2320363Y22896848D02*
X2225125Y22849229D01*
X2225125Y22849229D02*
X2177506Y22753991D01*
X2177506Y22753991D02*
X2177506Y22230181D01*
X1701315Y22230181D02*
X1701315Y22896848D01*
X1701315Y22706372D02*
X1653696Y22801610D01*
X1653696Y22801610D02*
X1606077Y22849229D01*
X1606077Y22849229D02*
X1510839Y22896848D01*
X1510839Y22896848D02*
X1415601Y22896848D01*
X939410Y22230181D02*
X1034648Y22277800D01*
X1034648Y22277800D02*
X1082267Y22325420D01*
X1082267Y22325420D02*
X1129886Y22420658D01*
X1129886Y22420658D02*
X1129886Y22706372D01*
X1129886Y22706372D02*
X1082267Y22801610D01*
X1082267Y22801610D02*
X1034648Y22849229D01*
X1034648Y22849229D02*
X939410Y22896848D01*
X939410Y22896848D02*
X796553Y22896848D01*
X796553Y22896848D02*
X701315Y22849229D01*
X701315Y22849229D02*
X653696Y22801610D01*
X653696Y22801610D02*
X606077Y22706372D01*
X606077Y22706372D02*
X606077Y22420658D01*
X606077Y22420658D02*
X653696Y22325420D01*
X653696Y22325420D02*
X701315Y22277800D01*
X701315Y22277800D02*
X796553Y22230181D01*
X796553Y22230181D02*
X939410Y22230181D01*
X-203447Y22277800D02*
X-108209Y22230181D01*
X-108209Y22230181D02*
X82267Y22230181D01*
X82267Y22230181D02*
X177505Y22277800D01*
X177505Y22277800D02*
X225124Y22373039D01*
X225124Y22373039D02*
X225124Y22753991D01*
X225124Y22753991D02*
X177505Y22849229D01*
X177505Y22849229D02*
X82267Y22896848D01*
X82267Y22896848D02*
X-108209Y22896848D01*
X-108209Y22896848D02*
X-203447Y22849229D01*
X-203447Y22849229D02*
X-251066Y22753991D01*
X-251066Y22753991D02*
X-251066Y22658753D01*
X-251066Y22658753D02*
X225124Y22563515D01*
X-584400Y22896848D02*
X-774876Y22230181D01*
X-774876Y22230181D02*
X-965352Y22706372D01*
X-965352Y22706372D02*
X-1155828Y22230181D01*
X-1155828Y22230181D02*
X-1346304Y22896848D01*
X-1727257Y22230181D02*
X-1727257Y22896848D01*
X-1727257Y23230181D02*
X-1679638Y23182562D01*
X-1679638Y23182562D02*
X-1727257Y23134943D01*
X-1727257Y23134943D02*
X-1774876Y23182562D01*
X-1774876Y23182562D02*
X-1727257Y23230181D01*
X-1727257Y23230181D02*
X-1727257Y23134943D01*
X-2346304Y22230181D02*
X-2251066Y22277800D01*
X-2251066Y22277800D02*
X-2203447Y22373039D01*
X-2203447Y22373039D02*
X-2203447Y23230181D01*
X-2870114Y22230181D02*
X-2774876Y22277800D01*
X-2774876Y22277800D02*
X-2727257Y22373039D01*
X-2727257Y22373039D02*
X-2727257Y23230181D01*
X-3251067Y22230181D02*
X-3251067Y22896848D01*
X-3251067Y23230181D02*
X-3203448Y23182562D01*
X-3203448Y23182562D02*
X-3251067Y23134943D01*
X-3251067Y23134943D02*
X-3298686Y23182562D01*
X-3298686Y23182562D02*
X-3251067Y23230181D01*
X-3251067Y23230181D02*
X-3251067Y23134943D01*
X-4155828Y22230181D02*
X-4155828Y22753991D01*
X-4155828Y22753991D02*
X-4108209Y22849229D01*
X-4108209Y22849229D02*
X-4012971Y22896848D01*
X-4012971Y22896848D02*
X-3822495Y22896848D01*
X-3822495Y22896848D02*
X-3727257Y22849229D01*
X-4155828Y22277800D02*
X-4060590Y22230181D01*
X-4060590Y22230181D02*
X-3822495Y22230181D01*
X-3822495Y22230181D02*
X-3727257Y22277800D01*
X-3727257Y22277800D02*
X-3679638Y22373039D01*
X-3679638Y22373039D02*
X-3679638Y22468277D01*
X-3679638Y22468277D02*
X-3727257Y22563515D01*
X-3727257Y22563515D02*
X-3822495Y22611134D01*
X-3822495Y22611134D02*
X-4060590Y22611134D01*
X-4060590Y22611134D02*
X-4155828Y22658753D01*
X-4632019Y22230181D02*
X-4632019Y22896848D01*
X-4632019Y22801610D02*
X-4679638Y22849229D01*
X-4679638Y22849229D02*
X-4774876Y22896848D01*
X-4774876Y22896848D02*
X-4917733Y22896848D01*
X-4917733Y22896848D02*
X-5012971Y22849229D01*
X-5012971Y22849229D02*
X-5060590Y22753991D01*
X-5060590Y22753991D02*
X-5060590Y22230181D01*
X-5060590Y22753991D02*
X-5108209Y22849229D01*
X-5108209Y22849229D02*
X-5203447Y22896848D01*
X-5203447Y22896848D02*
X-5346304Y22896848D01*
X-5346304Y22896848D02*
X-5441543Y22849229D01*
X-5441543Y22849229D02*
X-5489162Y22753991D01*
X-5489162Y22753991D02*
X-5489162Y22230181D01*
X-5917733Y22277800D02*
X-6012971Y22230181D01*
X-6012971Y22230181D02*
X-6203447Y22230181D01*
X-6203447Y22230181D02*
X-6298685Y22277800D01*
X-6298685Y22277800D02*
X-6346304Y22373039D01*
X-6346304Y22373039D02*
X-6346304Y22420658D01*
X-6346304Y22420658D02*
X-6298685Y22515896D01*
X-6298685Y22515896D02*
X-6203447Y22563515D01*
X-6203447Y22563515D02*
X-6060590Y22563515D01*
X-6060590Y22563515D02*
X-5965352Y22611134D01*
X-5965352Y22611134D02*
X-5917733Y22706372D01*
X-5917733Y22706372D02*
X-5917733Y22753991D01*
X-5917733Y22753991D02*
X-5965352Y22849229D01*
X-5965352Y22849229D02*
X-6060590Y22896848D01*
X-6060590Y22896848D02*
X-6203447Y22896848D01*
X-6203447Y22896848D02*
X-6298685Y22849229D01*
X-7489161Y23277800D02*
X-6632019Y21992086D01*
X-8393923Y22230181D02*
X-8060590Y22706372D01*
X-7822495Y22230181D02*
X-7822495Y23230181D01*
X-7822495Y23230181D02*
X-8203447Y23230181D01*
X-8203447Y23230181D02*
X-8298685Y23182562D01*
X-8298685Y23182562D02*
X-8346304Y23134943D01*
X-8346304Y23134943D02*
X-8393923Y23039705D01*
X-8393923Y23039705D02*
X-8393923Y22896848D01*
X-8393923Y22896848D02*
X-8346304Y22801610D01*
X-8346304Y22801610D02*
X-8298685Y22753991D01*
X-8298685Y22753991D02*
X-8203447Y22706372D01*
X-8203447Y22706372D02*
X-7822495Y22706372D01*
X-8822495Y22230181D02*
X-8822495Y23230181D01*
X-8822495Y23230181D02*
X-9203447Y23230181D01*
X-9203447Y23230181D02*
X-9298685Y23182562D01*
X-9298685Y23182562D02*
X-9346304Y23134943D01*
X-9346304Y23134943D02*
X-9393923Y23039705D01*
X-9393923Y23039705D02*
X-9393923Y22896848D01*
X-9393923Y22896848D02*
X-9346304Y22801610D01*
X-9346304Y22801610D02*
X-9298685Y22753991D01*
X-9298685Y22753991D02*
X-9203447Y22706372D01*
X-9203447Y22706372D02*
X-8822495Y22706372D01*
X-9774876Y23134943D02*
X-9822495Y23182562D01*
X-9822495Y23182562D02*
X-9917733Y23230181D01*
X-9917733Y23230181D02*
X-10155828Y23230181D01*
X-10155828Y23230181D02*
X-10251066Y23182562D01*
X-10251066Y23182562D02*
X-10298685Y23134943D01*
X-10298685Y23134943D02*
X-10346304Y23039705D01*
X-10346304Y23039705D02*
X-10346304Y22944467D01*
X-10346304Y22944467D02*
X-10298685Y22801610D01*
X-10298685Y22801610D02*
X-9727257Y22230181D01*
X-9727257Y22230181D02*
X-10346304Y22230181D01*
X-10965352Y23230181D02*
X-11060590Y23230181D01*
X-11060590Y23230181D02*
X-11155828Y23182562D01*
X-11155828Y23182562D02*
X-11203447Y23134943D01*
X-11203447Y23134943D02*
X-11251066Y23039705D01*
X-11251066Y23039705D02*
X-11298685Y22849229D01*
X-11298685Y22849229D02*
X-11298685Y22611134D01*
X-11298685Y22611134D02*
X-11251066Y22420658D01*
X-11251066Y22420658D02*
X-11203447Y22325420D01*
X-11203447Y22325420D02*
X-11155828Y22277800D01*
X-11155828Y22277800D02*
X-11060590Y22230181D01*
X-11060590Y22230181D02*
X-10965352Y22230181D01*
X-10965352Y22230181D02*
X-10870114Y22277800D01*
X-10870114Y22277800D02*
X-10822495Y22325420D01*
X-10822495Y22325420D02*
X-10774876Y22420658D01*
X-10774876Y22420658D02*
X-10727257Y22611134D01*
X-10727257Y22611134D02*
X-10727257Y22849229D01*
X-10727257Y22849229D02*
X-10774876Y23039705D01*
X-10774876Y23039705D02*
X-10822495Y23134943D01*
X-10822495Y23134943D02*
X-10870114Y23182562D01*
X-10870114Y23182562D02*
X-10965352Y23230181D01*
X-12155828Y22896848D02*
X-12155828Y22230181D01*
X-11917733Y23277800D02*
X-11679638Y22563515D01*
X-11679638Y22563515D02*
X-12298685Y22563515D01*
X-12870114Y23230181D02*
X-12965352Y23230181D01*
X-12965352Y23230181D02*
X-13060590Y23182562D01*
X-13060590Y23182562D02*
X-13108209Y23134943D01*
X-13108209Y23134943D02*
X-13155828Y23039705D01*
X-13155828Y23039705D02*
X-13203447Y22849229D01*
X-13203447Y22849229D02*
X-13203447Y22611134D01*
X-13203447Y22611134D02*
X-13155828Y22420658D01*
X-13155828Y22420658D02*
X-13108209Y22325420D01*
X-13108209Y22325420D02*
X-13060590Y22277800D01*
X-13060590Y22277800D02*
X-12965352Y22230181D01*
X-12965352Y22230181D02*
X-12870114Y22230181D01*
X-12870114Y22230181D02*
X-12774876Y22277800D01*
X-12774876Y22277800D02*
X-12727257Y22325420D01*
X-12727257Y22325420D02*
X-12679638Y22420658D01*
X-12679638Y22420658D02*
X-12632019Y22611134D01*
X-12632019Y22611134D02*
X-12632019Y22849229D01*
X-12632019Y22849229D02*
X-12679638Y23039705D01*
X-12679638Y23039705D02*
X-12727257Y23134943D01*
X-12727257Y23134943D02*
X-12774876Y23182562D01*
X-12774876Y23182562D02*
X-12870114Y23230181D01*
X-13393923Y22134943D02*
X-14155828Y22134943D01*
X-14251067Y22896848D02*
X-14632019Y22896848D01*
X-14393924Y23230181D02*
X-14393924Y22373039D01*
X-14393924Y22373039D02*
X-14441543Y22277800D01*
X-14441543Y22277800D02*
X-14536781Y22230181D01*
X-14536781Y22230181D02*
X-14632019Y22230181D01*
X-14965353Y22230181D02*
X-14965353Y22896848D01*
X-14965353Y22706372D02*
X-15012972Y22801610D01*
X-15012972Y22801610D02*
X-15060591Y22849229D01*
X-15060591Y22849229D02*
X-15155829Y22896848D01*
X-15155829Y22896848D02*
X-15251067Y22896848D01*
X-16012972Y22230181D02*
X-16012972Y22753991D01*
X-16012972Y22753991D02*
X-15965353Y22849229D01*
X-15965353Y22849229D02*
X-15870115Y22896848D01*
X-15870115Y22896848D02*
X-15679639Y22896848D01*
X-15679639Y22896848D02*
X-15584401Y22849229D01*
X-16012972Y22277800D02*
X-15917734Y22230181D01*
X-15917734Y22230181D02*
X-15679639Y22230181D01*
X-15679639Y22230181D02*
X-15584401Y22277800D01*
X-15584401Y22277800D02*
X-15536782Y22373039D01*
X-15536782Y22373039D02*
X-15536782Y22468277D01*
X-15536782Y22468277D02*
X-15584401Y22563515D01*
X-15584401Y22563515D02*
X-15679639Y22611134D01*
X-15679639Y22611134D02*
X-15917734Y22611134D01*
X-15917734Y22611134D02*
X-16012972Y22658753D01*
X-16917734Y22277800D02*
X-16822496Y22230181D01*
X-16822496Y22230181D02*
X-16632020Y22230181D01*
X-16632020Y22230181D02*
X-16536782Y22277800D01*
X-16536782Y22277800D02*
X-16489163Y22325420D01*
X-16489163Y22325420D02*
X-16441544Y22420658D01*
X-16441544Y22420658D02*
X-16441544Y22706372D01*
X-16441544Y22706372D02*
X-16489163Y22801610D01*
X-16489163Y22801610D02*
X-16536782Y22849229D01*
X-16536782Y22849229D02*
X-16632020Y22896848D01*
X-16632020Y22896848D02*
X-16822496Y22896848D01*
X-16822496Y22896848D02*
X-16917734Y22849229D01*
X-17346306Y22230181D02*
X-17346306Y23230181D01*
X-17441544Y22611134D02*
X-17727258Y22230181D01*
X-17727258Y22896848D02*
X-17346306Y22515896D01*
X-18155830Y22230181D02*
X-18155830Y23230181D01*
X-18155830Y22849229D02*
X-18251068Y22896848D01*
X-18251068Y22896848D02*
X-18441544Y22896848D01*
X-18441544Y22896848D02*
X-18536782Y22849229D01*
X-18536782Y22849229D02*
X-18584401Y22801610D01*
X-18584401Y22801610D02*
X-18632020Y22706372D01*
X-18632020Y22706372D02*
X-18632020Y22420658D01*
X-18632020Y22420658D02*
X-18584401Y22325420D01*
X-18584401Y22325420D02*
X-18536782Y22277800D01*
X-18536782Y22277800D02*
X-18441544Y22230181D01*
X-18441544Y22230181D02*
X-18251068Y22230181D01*
X-18251068Y22230181D02*
X-18155830Y22277800D01*
X-19489163Y22230181D02*
X-19489163Y22753991D01*
X-19489163Y22753991D02*
X-19441544Y22849229D01*
X-19441544Y22849229D02*
X-19346306Y22896848D01*
X-19346306Y22896848D02*
X-19155830Y22896848D01*
X-19155830Y22896848D02*
X-19060592Y22849229D01*
X-19489163Y22277800D02*
X-19393925Y22230181D01*
X-19393925Y22230181D02*
X-19155830Y22230181D01*
X-19155830Y22230181D02*
X-19060592Y22277800D01*
X-19060592Y22277800D02*
X-19012973Y22373039D01*
X-19012973Y22373039D02*
X-19012973Y22468277D01*
X-19012973Y22468277D02*
X-19060592Y22563515D01*
X-19060592Y22563515D02*
X-19155830Y22611134D01*
X-19155830Y22611134D02*
X-19393925Y22611134D01*
X-19393925Y22611134D02*
X-19489163Y22658753D01*
X-20108211Y22230181D02*
X-20012973Y22277800D01*
X-20012973Y22277800D02*
X-19965354Y22373039D01*
X-19965354Y22373039D02*
X-19965354Y23230181D01*
X-20632021Y22230181D02*
X-20536783Y22277800D01*
X-20536783Y22277800D02*
X-20489164Y22373039D01*
X-20489164Y22373039D02*
X-20489164Y23230181D01*
M02*
