G04 #@! TF.GenerationSoftware,KiCad,Pcbnew,8.0.7*
G04 #@! TF.CreationDate,2025-01-02T16:39:49-08:00*
G04 #@! TF.ProjectId,RP2040_minimal_r2,52503230-3430-45f6-9d69-6e696d616c5f,REV2*
G04 #@! TF.SameCoordinates,PX5f5e100PY5f5e100*
G04 #@! TF.FileFunction,Legend,Top*
G04 #@! TF.FilePolarity,Positive*
%FSLAX46Y46*%
G04 Gerber Fmt 4.6, Leading zero omitted, Abs format (unit mm)*
G04 Created by KiCad (PCBNEW 8.0.7) date 2025-01-02 16:39:49*
%MOMM*%
%LPD*%
G01*
G04 APERTURE LIST*
%ADD10C,0.150000*%
%ADD11C,0.120000*%
G04 APERTURE END LIST*
D10*
X-8738095Y45181D02*
X-8738095Y1045181D01*
X-8738095Y1045181D02*
X-8500000Y1045181D01*
X-8500000Y1045181D02*
X-8357143Y997562D01*
X-8357143Y997562D02*
X-8261905Y902324D01*
X-8261905Y902324D02*
X-8214286Y807086D01*
X-8214286Y807086D02*
X-8166667Y616610D01*
X-8166667Y616610D02*
X-8166667Y473753D01*
X-8166667Y473753D02*
X-8214286Y283277D01*
X-8214286Y283277D02*
X-8261905Y188039D01*
X-8261905Y188039D02*
X-8357143Y92800D01*
X-8357143Y92800D02*
X-8500000Y45181D01*
X-8500000Y45181D02*
X-8738095Y45181D01*
X-7214286Y45181D02*
X-7785714Y45181D01*
X-7500000Y45181D02*
X-7500000Y1045181D01*
X-7500000Y1045181D02*
X-7595238Y902324D01*
X-7595238Y902324D02*
X-7690476Y807086D01*
X-7690476Y807086D02*
X-7785714Y759467D01*
X10259580Y19333334D02*
X10307200Y19285715D01*
X10307200Y19285715D02*
X10354819Y19142858D01*
X10354819Y19142858D02*
X10354819Y19047620D01*
X10354819Y19047620D02*
X10307200Y18904763D01*
X10307200Y18904763D02*
X10211961Y18809525D01*
X10211961Y18809525D02*
X10116723Y18761906D01*
X10116723Y18761906D02*
X9926247Y18714287D01*
X9926247Y18714287D02*
X9783390Y18714287D01*
X9783390Y18714287D02*
X9592914Y18761906D01*
X9592914Y18761906D02*
X9497676Y18809525D01*
X9497676Y18809525D02*
X9402438Y18904763D01*
X9402438Y18904763D02*
X9354819Y19047620D01*
X9354819Y19047620D02*
X9354819Y19142858D01*
X9354819Y19142858D02*
X9402438Y19285715D01*
X9402438Y19285715D02*
X9450057Y19333334D01*
X9688152Y20190477D02*
X10354819Y20190477D01*
X9307200Y19952382D02*
X10021485Y19714287D01*
X10021485Y19714287D02*
X10021485Y20333334D01*
X2767735Y21557143D02*
X2803450Y21509524D01*
X2803450Y21509524D02*
X2839164Y21366667D01*
X2839164Y21366667D02*
X2839164Y21271429D01*
X2839164Y21271429D02*
X2803450Y21128572D01*
X2803450Y21128572D02*
X2732021Y21033334D01*
X2732021Y21033334D02*
X2660592Y20985715D01*
X2660592Y20985715D02*
X2517735Y20938096D01*
X2517735Y20938096D02*
X2410592Y20938096D01*
X2410592Y20938096D02*
X2267735Y20985715D01*
X2267735Y20985715D02*
X2196307Y21033334D01*
X2196307Y21033334D02*
X2124878Y21128572D01*
X2124878Y21128572D02*
X2089164Y21271429D01*
X2089164Y21271429D02*
X2089164Y21366667D01*
X2089164Y21366667D02*
X2124878Y21509524D01*
X2124878Y21509524D02*
X2160592Y21557143D01*
X2839164Y22509524D02*
X2839164Y21938096D01*
X2839164Y22223810D02*
X2089164Y22223810D01*
X2089164Y22223810D02*
X2196307Y22128572D01*
X2196307Y22128572D02*
X2267735Y22033334D01*
X2267735Y22033334D02*
X2303450Y21938096D01*
X2089164Y23128572D02*
X2089164Y23223810D01*
X2089164Y23223810D02*
X2124878Y23319048D01*
X2124878Y23319048D02*
X2160592Y23366667D01*
X2160592Y23366667D02*
X2232021Y23414286D01*
X2232021Y23414286D02*
X2374878Y23461905D01*
X2374878Y23461905D02*
X2553450Y23461905D01*
X2553450Y23461905D02*
X2696307Y23414286D01*
X2696307Y23414286D02*
X2767735Y23366667D01*
X2767735Y23366667D02*
X2803450Y23319048D01*
X2803450Y23319048D02*
X2839164Y23223810D01*
X2839164Y23223810D02*
X2839164Y23128572D01*
X2839164Y23128572D02*
X2803450Y23033334D01*
X2803450Y23033334D02*
X2767735Y22985715D01*
X2767735Y22985715D02*
X2696307Y22938096D01*
X2696307Y22938096D02*
X2553450Y22890477D01*
X2553450Y22890477D02*
X2374878Y22890477D01*
X2374878Y22890477D02*
X2232021Y22938096D01*
X2232021Y22938096D02*
X2160592Y22985715D01*
X2160592Y22985715D02*
X2124878Y23033334D01*
X2124878Y23033334D02*
X2089164Y23128572D01*
X1767735Y21533334D02*
X1803450Y21485715D01*
X1803450Y21485715D02*
X1839164Y21342858D01*
X1839164Y21342858D02*
X1839164Y21247620D01*
X1839164Y21247620D02*
X1803450Y21104763D01*
X1803450Y21104763D02*
X1732021Y21009525D01*
X1732021Y21009525D02*
X1660592Y20961906D01*
X1660592Y20961906D02*
X1517735Y20914287D01*
X1517735Y20914287D02*
X1410592Y20914287D01*
X1410592Y20914287D02*
X1267735Y20961906D01*
X1267735Y20961906D02*
X1196307Y21009525D01*
X1196307Y21009525D02*
X1124878Y21104763D01*
X1124878Y21104763D02*
X1089164Y21247620D01*
X1089164Y21247620D02*
X1089164Y21342858D01*
X1089164Y21342858D02*
X1124878Y21485715D01*
X1124878Y21485715D02*
X1160592Y21533334D01*
X1410592Y22104763D02*
X1374878Y22009525D01*
X1374878Y22009525D02*
X1339164Y21961906D01*
X1339164Y21961906D02*
X1267735Y21914287D01*
X1267735Y21914287D02*
X1232021Y21914287D01*
X1232021Y21914287D02*
X1160592Y21961906D01*
X1160592Y21961906D02*
X1124878Y22009525D01*
X1124878Y22009525D02*
X1089164Y22104763D01*
X1089164Y22104763D02*
X1089164Y22295239D01*
X1089164Y22295239D02*
X1124878Y22390477D01*
X1124878Y22390477D02*
X1160592Y22438096D01*
X1160592Y22438096D02*
X1232021Y22485715D01*
X1232021Y22485715D02*
X1267735Y22485715D01*
X1267735Y22485715D02*
X1339164Y22438096D01*
X1339164Y22438096D02*
X1374878Y22390477D01*
X1374878Y22390477D02*
X1410592Y22295239D01*
X1410592Y22295239D02*
X1410592Y22104763D01*
X1410592Y22104763D02*
X1446307Y22009525D01*
X1446307Y22009525D02*
X1482021Y21961906D01*
X1482021Y21961906D02*
X1553450Y21914287D01*
X1553450Y21914287D02*
X1696307Y21914287D01*
X1696307Y21914287D02*
X1767735Y21961906D01*
X1767735Y21961906D02*
X1803450Y22009525D01*
X1803450Y22009525D02*
X1839164Y22104763D01*
X1839164Y22104763D02*
X1839164Y22295239D01*
X1839164Y22295239D02*
X1803450Y22390477D01*
X1803450Y22390477D02*
X1767735Y22438096D01*
X1767735Y22438096D02*
X1696307Y22485715D01*
X1696307Y22485715D02*
X1553450Y22485715D01*
X1553450Y22485715D02*
X1482021Y22438096D01*
X1482021Y22438096D02*
X1446307Y22390477D01*
X1446307Y22390477D02*
X1410592Y22295239D01*
X-8042858Y10507265D02*
X-8090477Y10471550D01*
X-8090477Y10471550D02*
X-8233334Y10435836D01*
X-8233334Y10435836D02*
X-8328572Y10435836D01*
X-8328572Y10435836D02*
X-8471429Y10471550D01*
X-8471429Y10471550D02*
X-8566667Y10542979D01*
X-8566667Y10542979D02*
X-8614286Y10614408D01*
X-8614286Y10614408D02*
X-8661905Y10757265D01*
X-8661905Y10757265D02*
X-8661905Y10864408D01*
X-8661905Y10864408D02*
X-8614286Y11007265D01*
X-8614286Y11007265D02*
X-8566667Y11078693D01*
X-8566667Y11078693D02*
X-8471429Y11150122D01*
X-8471429Y11150122D02*
X-8328572Y11185836D01*
X-8328572Y11185836D02*
X-8233334Y11185836D01*
X-8233334Y11185836D02*
X-8090477Y11150122D01*
X-8090477Y11150122D02*
X-8042858Y11114408D01*
X-7090477Y10435836D02*
X-7661905Y10435836D01*
X-7376191Y10435836D02*
X-7376191Y11185836D01*
X-7376191Y11185836D02*
X-7471429Y11078693D01*
X-7471429Y11078693D02*
X-7566667Y11007265D01*
X-7566667Y11007265D02*
X-7661905Y10971550D01*
X-6757143Y11185836D02*
X-6138096Y11185836D01*
X-6138096Y11185836D02*
X-6471429Y10900122D01*
X-6471429Y10900122D02*
X-6328572Y10900122D01*
X-6328572Y10900122D02*
X-6233334Y10864408D01*
X-6233334Y10864408D02*
X-6185715Y10828693D01*
X-6185715Y10828693D02*
X-6138096Y10757265D01*
X-6138096Y10757265D02*
X-6138096Y10578693D01*
X-6138096Y10578693D02*
X-6185715Y10507265D01*
X-6185715Y10507265D02*
X-6233334Y10471550D01*
X-6233334Y10471550D02*
X-6328572Y10435836D01*
X-6328572Y10435836D02*
X-6614286Y10435836D01*
X-6614286Y10435836D02*
X-6709524Y10471550D01*
X-6709524Y10471550D02*
X-6757143Y10507265D01*
X-3632265Y20533334D02*
X-3596550Y20485715D01*
X-3596550Y20485715D02*
X-3560836Y20342858D01*
X-3560836Y20342858D02*
X-3560836Y20247620D01*
X-3560836Y20247620D02*
X-3596550Y20104763D01*
X-3596550Y20104763D02*
X-3667979Y20009525D01*
X-3667979Y20009525D02*
X-3739408Y19961906D01*
X-3739408Y19961906D02*
X-3882265Y19914287D01*
X-3882265Y19914287D02*
X-3989408Y19914287D01*
X-3989408Y19914287D02*
X-4132265Y19961906D01*
X-4132265Y19961906D02*
X-4203693Y20009525D01*
X-4203693Y20009525D02*
X-4275122Y20104763D01*
X-4275122Y20104763D02*
X-4310836Y20247620D01*
X-4310836Y20247620D02*
X-4310836Y20342858D01*
X-4310836Y20342858D02*
X-4275122Y20485715D01*
X-4275122Y20485715D02*
X-4239408Y20533334D01*
X-4310836Y21438096D02*
X-4310836Y20961906D01*
X-4310836Y20961906D02*
X-3953693Y20914287D01*
X-3953693Y20914287D02*
X-3989408Y20961906D01*
X-3989408Y20961906D02*
X-4025122Y21057144D01*
X-4025122Y21057144D02*
X-4025122Y21295239D01*
X-4025122Y21295239D02*
X-3989408Y21390477D01*
X-3989408Y21390477D02*
X-3953693Y21438096D01*
X-3953693Y21438096D02*
X-3882265Y21485715D01*
X-3882265Y21485715D02*
X-3703693Y21485715D01*
X-3703693Y21485715D02*
X-3632265Y21438096D01*
X-3632265Y21438096D02*
X-3596550Y21390477D01*
X-3596550Y21390477D02*
X-3560836Y21295239D01*
X-3560836Y21295239D02*
X-3560836Y21057144D01*
X-3560836Y21057144D02*
X-3596550Y20961906D01*
X-3596550Y20961906D02*
X-3632265Y20914287D01*
X-14706667Y23210836D02*
X-15040000Y23567979D01*
X-15278095Y23210836D02*
X-15278095Y23960836D01*
X-15278095Y23960836D02*
X-14897143Y23960836D01*
X-14897143Y23960836D02*
X-14801905Y23925122D01*
X-14801905Y23925122D02*
X-14754286Y23889408D01*
X-14754286Y23889408D02*
X-14706667Y23817979D01*
X-14706667Y23817979D02*
X-14706667Y23710836D01*
X-14706667Y23710836D02*
X-14754286Y23639408D01*
X-14754286Y23639408D02*
X-14801905Y23603693D01*
X-14801905Y23603693D02*
X-14897143Y23567979D01*
X-14897143Y23567979D02*
X-15278095Y23567979D01*
X-14325714Y23889408D02*
X-14278095Y23925122D01*
X-14278095Y23925122D02*
X-14182857Y23960836D01*
X-14182857Y23960836D02*
X-13944762Y23960836D01*
X-13944762Y23960836D02*
X-13849524Y23925122D01*
X-13849524Y23925122D02*
X-13801905Y23889408D01*
X-13801905Y23889408D02*
X-13754286Y23817979D01*
X-13754286Y23817979D02*
X-13754286Y23746550D01*
X-13754286Y23746550D02*
X-13801905Y23639408D01*
X-13801905Y23639408D02*
X-14373333Y23210836D01*
X-14373333Y23210836D02*
X-13754286Y23210836D01*
X7838095Y29045181D02*
X7838095Y28235658D01*
X7838095Y28235658D02*
X7885714Y28140420D01*
X7885714Y28140420D02*
X7933333Y28092800D01*
X7933333Y28092800D02*
X8028571Y28045181D01*
X8028571Y28045181D02*
X8219047Y28045181D01*
X8219047Y28045181D02*
X8314285Y28092800D01*
X8314285Y28092800D02*
X8361904Y28140420D01*
X8361904Y28140420D02*
X8409523Y28235658D01*
X8409523Y28235658D02*
X8409523Y29045181D01*
X9409523Y28045181D02*
X8838095Y28045181D01*
X9123809Y28045181D02*
X9123809Y29045181D01*
X9123809Y29045181D02*
X9028571Y28902324D01*
X9028571Y28902324D02*
X8933333Y28807086D01*
X8933333Y28807086D02*
X8838095Y28759467D01*
X-13361905Y21845181D02*
X-13361905Y21035658D01*
X-13361905Y21035658D02*
X-13314286Y20940420D01*
X-13314286Y20940420D02*
X-13266667Y20892800D01*
X-13266667Y20892800D02*
X-13171429Y20845181D01*
X-13171429Y20845181D02*
X-12980953Y20845181D01*
X-12980953Y20845181D02*
X-12885715Y20892800D01*
X-12885715Y20892800D02*
X-12838096Y20940420D01*
X-12838096Y20940420D02*
X-12790477Y21035658D01*
X-12790477Y21035658D02*
X-12790477Y21845181D01*
X-12361905Y21749943D02*
X-12314286Y21797562D01*
X-12314286Y21797562D02*
X-12219048Y21845181D01*
X-12219048Y21845181D02*
X-11980953Y21845181D01*
X-11980953Y21845181D02*
X-11885715Y21797562D01*
X-11885715Y21797562D02*
X-11838096Y21749943D01*
X-11838096Y21749943D02*
X-11790477Y21654705D01*
X-11790477Y21654705D02*
X-11790477Y21559467D01*
X-11790477Y21559467D02*
X-11838096Y21416610D01*
X-11838096Y21416610D02*
X-12409524Y20845181D01*
X-12409524Y20845181D02*
X-11790477Y20845181D01*
X-15856667Y24660836D02*
X-16190000Y25017979D01*
X-16428095Y24660836D02*
X-16428095Y25410836D01*
X-16428095Y25410836D02*
X-16047143Y25410836D01*
X-16047143Y25410836D02*
X-15951905Y25375122D01*
X-15951905Y25375122D02*
X-15904286Y25339408D01*
X-15904286Y25339408D02*
X-15856667Y25267979D01*
X-15856667Y25267979D02*
X-15856667Y25160836D01*
X-15856667Y25160836D02*
X-15904286Y25089408D01*
X-15904286Y25089408D02*
X-15951905Y25053693D01*
X-15951905Y25053693D02*
X-16047143Y25017979D01*
X-16047143Y25017979D02*
X-16428095Y25017979D01*
X-14904286Y24660836D02*
X-15475714Y24660836D01*
X-15190000Y24660836D02*
X-15190000Y25410836D01*
X-15190000Y25410836D02*
X-15285238Y25303693D01*
X-15285238Y25303693D02*
X-15380476Y25232265D01*
X-15380476Y25232265D02*
X-15475714Y25196550D01*
X-1232265Y21533334D02*
X-1196550Y21485715D01*
X-1196550Y21485715D02*
X-1160836Y21342858D01*
X-1160836Y21342858D02*
X-1160836Y21247620D01*
X-1160836Y21247620D02*
X-1196550Y21104763D01*
X-1196550Y21104763D02*
X-1267979Y21009525D01*
X-1267979Y21009525D02*
X-1339408Y20961906D01*
X-1339408Y20961906D02*
X-1482265Y20914287D01*
X-1482265Y20914287D02*
X-1589408Y20914287D01*
X-1589408Y20914287D02*
X-1732265Y20961906D01*
X-1732265Y20961906D02*
X-1803693Y21009525D01*
X-1803693Y21009525D02*
X-1875122Y21104763D01*
X-1875122Y21104763D02*
X-1910836Y21247620D01*
X-1910836Y21247620D02*
X-1910836Y21342858D01*
X-1910836Y21342858D02*
X-1875122Y21485715D01*
X-1875122Y21485715D02*
X-1839408Y21533334D01*
X-1160836Y22009525D02*
X-1160836Y22200001D01*
X-1160836Y22200001D02*
X-1196550Y22295239D01*
X-1196550Y22295239D02*
X-1232265Y22342858D01*
X-1232265Y22342858D02*
X-1339408Y22438096D01*
X-1339408Y22438096D02*
X-1482265Y22485715D01*
X-1482265Y22485715D02*
X-1767979Y22485715D01*
X-1767979Y22485715D02*
X-1839408Y22438096D01*
X-1839408Y22438096D02*
X-1875122Y22390477D01*
X-1875122Y22390477D02*
X-1910836Y22295239D01*
X-1910836Y22295239D02*
X-1910836Y22104763D01*
X-1910836Y22104763D02*
X-1875122Y22009525D01*
X-1875122Y22009525D02*
X-1839408Y21961906D01*
X-1839408Y21961906D02*
X-1767979Y21914287D01*
X-1767979Y21914287D02*
X-1589408Y21914287D01*
X-1589408Y21914287D02*
X-1517979Y21961906D01*
X-1517979Y21961906D02*
X-1482265Y22009525D01*
X-1482265Y22009525D02*
X-1446550Y22104763D01*
X-1446550Y22104763D02*
X-1446550Y22295239D01*
X-1446550Y22295239D02*
X-1482265Y22390477D01*
X-1482265Y22390477D02*
X-1517979Y22438096D01*
X-1517979Y22438096D02*
X-1589408Y22485715D01*
X4357142Y10607265D02*
X4309523Y10571550D01*
X4309523Y10571550D02*
X4166666Y10535836D01*
X4166666Y10535836D02*
X4071428Y10535836D01*
X4071428Y10535836D02*
X3928571Y10571550D01*
X3928571Y10571550D02*
X3833333Y10642979D01*
X3833333Y10642979D02*
X3785714Y10714408D01*
X3785714Y10714408D02*
X3738095Y10857265D01*
X3738095Y10857265D02*
X3738095Y10964408D01*
X3738095Y10964408D02*
X3785714Y11107265D01*
X3785714Y11107265D02*
X3833333Y11178693D01*
X3833333Y11178693D02*
X3928571Y11250122D01*
X3928571Y11250122D02*
X4071428Y11285836D01*
X4071428Y11285836D02*
X4166666Y11285836D01*
X4166666Y11285836D02*
X4309523Y11250122D01*
X4309523Y11250122D02*
X4357142Y11214408D01*
X5309523Y10535836D02*
X4738095Y10535836D01*
X5023809Y10535836D02*
X5023809Y11285836D01*
X5023809Y11285836D02*
X4928571Y11178693D01*
X4928571Y11178693D02*
X4833333Y11107265D01*
X4833333Y11107265D02*
X4738095Y11071550D01*
X5690476Y11214408D02*
X5738095Y11250122D01*
X5738095Y11250122D02*
X5833333Y11285836D01*
X5833333Y11285836D02*
X6071428Y11285836D01*
X6071428Y11285836D02*
X6166666Y11250122D01*
X6166666Y11250122D02*
X6214285Y11214408D01*
X6214285Y11214408D02*
X6261904Y11142979D01*
X6261904Y11142979D02*
X6261904Y11071550D01*
X6261904Y11071550D02*
X6214285Y10964408D01*
X6214285Y10964408D02*
X5642857Y10535836D01*
X5642857Y10535836D02*
X6261904Y10535836D01*
X-1842858Y7932265D02*
X-1890477Y7896550D01*
X-1890477Y7896550D02*
X-2033334Y7860836D01*
X-2033334Y7860836D02*
X-2128572Y7860836D01*
X-2128572Y7860836D02*
X-2271429Y7896550D01*
X-2271429Y7896550D02*
X-2366667Y7967979D01*
X-2366667Y7967979D02*
X-2414286Y8039408D01*
X-2414286Y8039408D02*
X-2461905Y8182265D01*
X-2461905Y8182265D02*
X-2461905Y8289408D01*
X-2461905Y8289408D02*
X-2414286Y8432265D01*
X-2414286Y8432265D02*
X-2366667Y8503693D01*
X-2366667Y8503693D02*
X-2271429Y8575122D01*
X-2271429Y8575122D02*
X-2128572Y8610836D01*
X-2128572Y8610836D02*
X-2033334Y8610836D01*
X-2033334Y8610836D02*
X-1890477Y8575122D01*
X-1890477Y8575122D02*
X-1842858Y8539408D01*
X-890477Y7860836D02*
X-1461905Y7860836D01*
X-1176191Y7860836D02*
X-1176191Y8610836D01*
X-1176191Y8610836D02*
X-1271429Y8503693D01*
X-1271429Y8503693D02*
X-1366667Y8432265D01*
X-1366667Y8432265D02*
X-1461905Y8396550D01*
X-33334Y8360836D02*
X-33334Y7860836D01*
X-271429Y8646550D02*
X-509524Y8110836D01*
X-509524Y8110836D02*
X109523Y8110836D01*
X-160836Y21533334D02*
X-517979Y21200001D01*
X-160836Y20961906D02*
X-910836Y20961906D01*
X-910836Y20961906D02*
X-910836Y21342858D01*
X-910836Y21342858D02*
X-875122Y21438096D01*
X-875122Y21438096D02*
X-839408Y21485715D01*
X-839408Y21485715D02*
X-767979Y21533334D01*
X-767979Y21533334D02*
X-660836Y21533334D01*
X-660836Y21533334D02*
X-589408Y21485715D01*
X-589408Y21485715D02*
X-553693Y21438096D01*
X-553693Y21438096D02*
X-517979Y21342858D01*
X-517979Y21342858D02*
X-517979Y20961906D01*
X-910836Y21866668D02*
X-910836Y22485715D01*
X-910836Y22485715D02*
X-625122Y22152382D01*
X-625122Y22152382D02*
X-625122Y22295239D01*
X-625122Y22295239D02*
X-589408Y22390477D01*
X-589408Y22390477D02*
X-553693Y22438096D01*
X-553693Y22438096D02*
X-482265Y22485715D01*
X-482265Y22485715D02*
X-303693Y22485715D01*
X-303693Y22485715D02*
X-232265Y22438096D01*
X-232265Y22438096D02*
X-196550Y22390477D01*
X-196550Y22390477D02*
X-160836Y22295239D01*
X-160836Y22295239D02*
X-160836Y22009525D01*
X-160836Y22009525D02*
X-196550Y21914287D01*
X-196550Y21914287D02*
X-232265Y21866668D01*
X1233333Y6832265D02*
X1185714Y6796550D01*
X1185714Y6796550D02*
X1042857Y6760836D01*
X1042857Y6760836D02*
X947619Y6760836D01*
X947619Y6760836D02*
X804762Y6796550D01*
X804762Y6796550D02*
X709524Y6867979D01*
X709524Y6867979D02*
X661905Y6939408D01*
X661905Y6939408D02*
X614286Y7082265D01*
X614286Y7082265D02*
X614286Y7189408D01*
X614286Y7189408D02*
X661905Y7332265D01*
X661905Y7332265D02*
X709524Y7403693D01*
X709524Y7403693D02*
X804762Y7475122D01*
X804762Y7475122D02*
X947619Y7510836D01*
X947619Y7510836D02*
X1042857Y7510836D01*
X1042857Y7510836D02*
X1185714Y7475122D01*
X1185714Y7475122D02*
X1233333Y7439408D01*
X1566667Y7510836D02*
X2233333Y7510836D01*
X2233333Y7510836D02*
X1804762Y6760836D01*
X7759580Y19333334D02*
X7807200Y19285715D01*
X7807200Y19285715D02*
X7854819Y19142858D01*
X7854819Y19142858D02*
X7854819Y19047620D01*
X7854819Y19047620D02*
X7807200Y18904763D01*
X7807200Y18904763D02*
X7711961Y18809525D01*
X7711961Y18809525D02*
X7616723Y18761906D01*
X7616723Y18761906D02*
X7426247Y18714287D01*
X7426247Y18714287D02*
X7283390Y18714287D01*
X7283390Y18714287D02*
X7092914Y18761906D01*
X7092914Y18761906D02*
X6997676Y18809525D01*
X6997676Y18809525D02*
X6902438Y18904763D01*
X6902438Y18904763D02*
X6854819Y19047620D01*
X6854819Y19047620D02*
X6854819Y19142858D01*
X6854819Y19142858D02*
X6902438Y19285715D01*
X6902438Y19285715D02*
X6950057Y19333334D01*
X7854819Y20285715D02*
X7854819Y19714287D01*
X7854819Y20000001D02*
X6854819Y20000001D01*
X6854819Y20000001D02*
X6997676Y19904763D01*
X6997676Y19904763D02*
X7092914Y19809525D01*
X7092914Y19809525D02*
X7140533Y19714287D01*
X-7742858Y15432265D02*
X-7790477Y15396550D01*
X-7790477Y15396550D02*
X-7933334Y15360836D01*
X-7933334Y15360836D02*
X-8028572Y15360836D01*
X-8028572Y15360836D02*
X-8171429Y15396550D01*
X-8171429Y15396550D02*
X-8266667Y15467979D01*
X-8266667Y15467979D02*
X-8314286Y15539408D01*
X-8314286Y15539408D02*
X-8361905Y15682265D01*
X-8361905Y15682265D02*
X-8361905Y15789408D01*
X-8361905Y15789408D02*
X-8314286Y15932265D01*
X-8314286Y15932265D02*
X-8266667Y16003693D01*
X-8266667Y16003693D02*
X-8171429Y16075122D01*
X-8171429Y16075122D02*
X-8028572Y16110836D01*
X-8028572Y16110836D02*
X-7933334Y16110836D01*
X-7933334Y16110836D02*
X-7790477Y16075122D01*
X-7790477Y16075122D02*
X-7742858Y16039408D01*
X-6790477Y15360836D02*
X-7361905Y15360836D01*
X-7076191Y15360836D02*
X-7076191Y16110836D01*
X-7076191Y16110836D02*
X-7171429Y16003693D01*
X-7171429Y16003693D02*
X-7266667Y15932265D01*
X-7266667Y15932265D02*
X-7361905Y15896550D01*
X-5838096Y15360836D02*
X-6409524Y15360836D01*
X-6123810Y15360836D02*
X-6123810Y16110836D01*
X-6123810Y16110836D02*
X-6219048Y16003693D01*
X-6219048Y16003693D02*
X-6314286Y15932265D01*
X-6314286Y15932265D02*
X-6409524Y15896550D01*
X5457142Y17732265D02*
X5409523Y17696550D01*
X5409523Y17696550D02*
X5266666Y17660836D01*
X5266666Y17660836D02*
X5171428Y17660836D01*
X5171428Y17660836D02*
X5028571Y17696550D01*
X5028571Y17696550D02*
X4933333Y17767979D01*
X4933333Y17767979D02*
X4885714Y17839408D01*
X4885714Y17839408D02*
X4838095Y17982265D01*
X4838095Y17982265D02*
X4838095Y18089408D01*
X4838095Y18089408D02*
X4885714Y18232265D01*
X4885714Y18232265D02*
X4933333Y18303693D01*
X4933333Y18303693D02*
X5028571Y18375122D01*
X5028571Y18375122D02*
X5171428Y18410836D01*
X5171428Y18410836D02*
X5266666Y18410836D01*
X5266666Y18410836D02*
X5409523Y18375122D01*
X5409523Y18375122D02*
X5457142Y18339408D01*
X6409523Y17660836D02*
X5838095Y17660836D01*
X6123809Y17660836D02*
X6123809Y18410836D01*
X6123809Y18410836D02*
X6028571Y18303693D01*
X6028571Y18303693D02*
X5933333Y18232265D01*
X5933333Y18232265D02*
X5838095Y18196550D01*
X7266666Y18410836D02*
X7076190Y18410836D01*
X7076190Y18410836D02*
X6980952Y18375122D01*
X6980952Y18375122D02*
X6933333Y18339408D01*
X6933333Y18339408D02*
X6838095Y18232265D01*
X6838095Y18232265D02*
X6790476Y18089408D01*
X6790476Y18089408D02*
X6790476Y17803693D01*
X6790476Y17803693D02*
X6838095Y17732265D01*
X6838095Y17732265D02*
X6885714Y17696550D01*
X6885714Y17696550D02*
X6980952Y17660836D01*
X6980952Y17660836D02*
X7171428Y17660836D01*
X7171428Y17660836D02*
X7266666Y17696550D01*
X7266666Y17696550D02*
X7314285Y17732265D01*
X7314285Y17732265D02*
X7361904Y17803693D01*
X7361904Y17803693D02*
X7361904Y17982265D01*
X7361904Y17982265D02*
X7314285Y18053693D01*
X7314285Y18053693D02*
X7266666Y18089408D01*
X7266666Y18089408D02*
X7171428Y18125122D01*
X7171428Y18125122D02*
X6980952Y18125122D01*
X6980952Y18125122D02*
X6885714Y18089408D01*
X6885714Y18089408D02*
X6838095Y18053693D01*
X6838095Y18053693D02*
X6790476Y17982265D01*
X2938095Y10145181D02*
X2938095Y9335658D01*
X2938095Y9335658D02*
X2985714Y9240420D01*
X2985714Y9240420D02*
X3033333Y9192800D01*
X3033333Y9192800D02*
X3128571Y9145181D01*
X3128571Y9145181D02*
X3319047Y9145181D01*
X3319047Y9145181D02*
X3414285Y9192800D01*
X3414285Y9192800D02*
X3461904Y9240420D01*
X3461904Y9240420D02*
X3509523Y9335658D01*
X3509523Y9335658D02*
X3509523Y10145181D01*
X3890476Y10145181D02*
X4509523Y10145181D01*
X4509523Y10145181D02*
X4176190Y9764229D01*
X4176190Y9764229D02*
X4319047Y9764229D01*
X4319047Y9764229D02*
X4414285Y9716610D01*
X4414285Y9716610D02*
X4461904Y9668991D01*
X4461904Y9668991D02*
X4509523Y9573753D01*
X4509523Y9573753D02*
X4509523Y9335658D01*
X4509523Y9335658D02*
X4461904Y9240420D01*
X4461904Y9240420D02*
X4414285Y9192800D01*
X4414285Y9192800D02*
X4319047Y9145181D01*
X4319047Y9145181D02*
X4033333Y9145181D01*
X4033333Y9145181D02*
X3938095Y9192800D01*
X3938095Y9192800D02*
X3890476Y9240420D01*
X839164Y21533334D02*
X482021Y21200001D01*
X839164Y20961906D02*
X89164Y20961906D01*
X89164Y20961906D02*
X89164Y21342858D01*
X89164Y21342858D02*
X124878Y21438096D01*
X124878Y21438096D02*
X160592Y21485715D01*
X160592Y21485715D02*
X232021Y21533334D01*
X232021Y21533334D02*
X339164Y21533334D01*
X339164Y21533334D02*
X410592Y21485715D01*
X410592Y21485715D02*
X446307Y21438096D01*
X446307Y21438096D02*
X482021Y21342858D01*
X482021Y21342858D02*
X482021Y20961906D01*
X339164Y22390477D02*
X839164Y22390477D01*
X53450Y22152382D02*
X589164Y21914287D01*
X589164Y21914287D02*
X589164Y22533334D01*
X-2232265Y21533334D02*
X-2196550Y21485715D01*
X-2196550Y21485715D02*
X-2160836Y21342858D01*
X-2160836Y21342858D02*
X-2160836Y21247620D01*
X-2160836Y21247620D02*
X-2196550Y21104763D01*
X-2196550Y21104763D02*
X-2267979Y21009525D01*
X-2267979Y21009525D02*
X-2339408Y20961906D01*
X-2339408Y20961906D02*
X-2482265Y20914287D01*
X-2482265Y20914287D02*
X-2589408Y20914287D01*
X-2589408Y20914287D02*
X-2732265Y20961906D01*
X-2732265Y20961906D02*
X-2803693Y21009525D01*
X-2803693Y21009525D02*
X-2875122Y21104763D01*
X-2875122Y21104763D02*
X-2910836Y21247620D01*
X-2910836Y21247620D02*
X-2910836Y21342858D01*
X-2910836Y21342858D02*
X-2875122Y21485715D01*
X-2875122Y21485715D02*
X-2839408Y21533334D01*
X-2910836Y22390477D02*
X-2910836Y22200001D01*
X-2910836Y22200001D02*
X-2875122Y22104763D01*
X-2875122Y22104763D02*
X-2839408Y22057144D01*
X-2839408Y22057144D02*
X-2732265Y21961906D01*
X-2732265Y21961906D02*
X-2589408Y21914287D01*
X-2589408Y21914287D02*
X-2303693Y21914287D01*
X-2303693Y21914287D02*
X-2232265Y21961906D01*
X-2232265Y21961906D02*
X-2196550Y22009525D01*
X-2196550Y22009525D02*
X-2160836Y22104763D01*
X-2160836Y22104763D02*
X-2160836Y22295239D01*
X-2160836Y22295239D02*
X-2196550Y22390477D01*
X-2196550Y22390477D02*
X-2232265Y22438096D01*
X-2232265Y22438096D02*
X-2303693Y22485715D01*
X-2303693Y22485715D02*
X-2482265Y22485715D01*
X-2482265Y22485715D02*
X-2553693Y22438096D01*
X-2553693Y22438096D02*
X-2589408Y22390477D01*
X-2589408Y22390477D02*
X-2625122Y22295239D01*
X-2625122Y22295239D02*
X-2625122Y22104763D01*
X-2625122Y22104763D02*
X-2589408Y22009525D01*
X-2589408Y22009525D02*
X-2553693Y21961906D01*
X-2553693Y21961906D02*
X-2482265Y21914287D01*
X5457142Y16532265D02*
X5409523Y16496550D01*
X5409523Y16496550D02*
X5266666Y16460836D01*
X5266666Y16460836D02*
X5171428Y16460836D01*
X5171428Y16460836D02*
X5028571Y16496550D01*
X5028571Y16496550D02*
X4933333Y16567979D01*
X4933333Y16567979D02*
X4885714Y16639408D01*
X4885714Y16639408D02*
X4838095Y16782265D01*
X4838095Y16782265D02*
X4838095Y16889408D01*
X4838095Y16889408D02*
X4885714Y17032265D01*
X4885714Y17032265D02*
X4933333Y17103693D01*
X4933333Y17103693D02*
X5028571Y17175122D01*
X5028571Y17175122D02*
X5171428Y17210836D01*
X5171428Y17210836D02*
X5266666Y17210836D01*
X5266666Y17210836D02*
X5409523Y17175122D01*
X5409523Y17175122D02*
X5457142Y17139408D01*
X6409523Y16460836D02*
X5838095Y16460836D01*
X6123809Y16460836D02*
X6123809Y17210836D01*
X6123809Y17210836D02*
X6028571Y17103693D01*
X6028571Y17103693D02*
X5933333Y17032265D01*
X5933333Y17032265D02*
X5838095Y16996550D01*
X7314285Y17210836D02*
X6838095Y17210836D01*
X6838095Y17210836D02*
X6790476Y16853693D01*
X6790476Y16853693D02*
X6838095Y16889408D01*
X6838095Y16889408D02*
X6933333Y16925122D01*
X6933333Y16925122D02*
X7171428Y16925122D01*
X7171428Y16925122D02*
X7266666Y16889408D01*
X7266666Y16889408D02*
X7314285Y16853693D01*
X7314285Y16853693D02*
X7361904Y16782265D01*
X7361904Y16782265D02*
X7361904Y16603693D01*
X7361904Y16603693D02*
X7314285Y16532265D01*
X7314285Y16532265D02*
X7266666Y16496550D01*
X7266666Y16496550D02*
X7171428Y16460836D01*
X7171428Y16460836D02*
X6933333Y16460836D01*
X6933333Y16460836D02*
X6838095Y16496550D01*
X6838095Y16496550D02*
X6790476Y16532265D01*
X-14932265Y26757143D02*
X-14896550Y26709524D01*
X-14896550Y26709524D02*
X-14860836Y26566667D01*
X-14860836Y26566667D02*
X-14860836Y26471429D01*
X-14860836Y26471429D02*
X-14896550Y26328572D01*
X-14896550Y26328572D02*
X-14967979Y26233334D01*
X-14967979Y26233334D02*
X-15039408Y26185715D01*
X-15039408Y26185715D02*
X-15182265Y26138096D01*
X-15182265Y26138096D02*
X-15289408Y26138096D01*
X-15289408Y26138096D02*
X-15432265Y26185715D01*
X-15432265Y26185715D02*
X-15503693Y26233334D01*
X-15503693Y26233334D02*
X-15575122Y26328572D01*
X-15575122Y26328572D02*
X-15610836Y26471429D01*
X-15610836Y26471429D02*
X-15610836Y26566667D01*
X-15610836Y26566667D02*
X-15575122Y26709524D01*
X-15575122Y26709524D02*
X-15539408Y26757143D01*
X-14860836Y27709524D02*
X-14860836Y27138096D01*
X-14860836Y27423810D02*
X-15610836Y27423810D01*
X-15610836Y27423810D02*
X-15503693Y27328572D01*
X-15503693Y27328572D02*
X-15432265Y27233334D01*
X-15432265Y27233334D02*
X-15396550Y27138096D01*
X-15610836Y28042858D02*
X-15610836Y28709524D01*
X-15610836Y28709524D02*
X-14860836Y28280953D01*
X-19214285Y9892800D02*
X-19071428Y9845181D01*
X-19071428Y9845181D02*
X-18833333Y9845181D01*
X-18833333Y9845181D02*
X-18738095Y9892800D01*
X-18738095Y9892800D02*
X-18690476Y9940420D01*
X-18690476Y9940420D02*
X-18642857Y10035658D01*
X-18642857Y10035658D02*
X-18642857Y10130896D01*
X-18642857Y10130896D02*
X-18690476Y10226134D01*
X-18690476Y10226134D02*
X-18738095Y10273753D01*
X-18738095Y10273753D02*
X-18833333Y10321372D01*
X-18833333Y10321372D02*
X-19023809Y10368991D01*
X-19023809Y10368991D02*
X-19119047Y10416610D01*
X-19119047Y10416610D02*
X-19166666Y10464229D01*
X-19166666Y10464229D02*
X-19214285Y10559467D01*
X-19214285Y10559467D02*
X-19214285Y10654705D01*
X-19214285Y10654705D02*
X-19166666Y10749943D01*
X-19166666Y10749943D02*
X-19119047Y10797562D01*
X-19119047Y10797562D02*
X-19023809Y10845181D01*
X-19023809Y10845181D02*
X-18785714Y10845181D01*
X-18785714Y10845181D02*
X-18642857Y10797562D01*
X-18214285Y9845181D02*
X-18214285Y10845181D01*
X-18214285Y10845181D02*
X-17833333Y10845181D01*
X-17833333Y10845181D02*
X-17738095Y10797562D01*
X-17738095Y10797562D02*
X-17690476Y10749943D01*
X-17690476Y10749943D02*
X-17642857Y10654705D01*
X-17642857Y10654705D02*
X-17642857Y10511848D01*
X-17642857Y10511848D02*
X-17690476Y10416610D01*
X-17690476Y10416610D02*
X-17738095Y10368991D01*
X-17738095Y10368991D02*
X-17833333Y10321372D01*
X-17833333Y10321372D02*
X-18214285Y10321372D01*
X-17214285Y9845181D02*
X-17214285Y10845181D01*
X-16547619Y10845181D02*
X-16452381Y10845181D01*
X-16452381Y10845181D02*
X-16357143Y10797562D01*
X-16357143Y10797562D02*
X-16309524Y10749943D01*
X-16309524Y10749943D02*
X-16261905Y10654705D01*
X-16261905Y10654705D02*
X-16214286Y10464229D01*
X-16214286Y10464229D02*
X-16214286Y10226134D01*
X-16214286Y10226134D02*
X-16261905Y10035658D01*
X-16261905Y10035658D02*
X-16309524Y9940420D01*
X-16309524Y9940420D02*
X-16357143Y9892800D01*
X-16357143Y9892800D02*
X-16452381Y9845181D01*
X-16452381Y9845181D02*
X-16547619Y9845181D01*
X-16547619Y9845181D02*
X-16642857Y9892800D01*
X-16642857Y9892800D02*
X-16690476Y9940420D01*
X-16690476Y9940420D02*
X-16738095Y10035658D01*
X-16738095Y10035658D02*
X-16785714Y10226134D01*
X-16785714Y10226134D02*
X-16785714Y10464229D01*
X-16785714Y10464229D02*
X-16738095Y10654705D01*
X-16738095Y10654705D02*
X-16690476Y10749943D01*
X-16690476Y10749943D02*
X-16642857Y10797562D01*
X-16642857Y10797562D02*
X-16547619Y10845181D01*
X-15785714Y9940420D02*
X-15738095Y9892800D01*
X-15738095Y9892800D02*
X-15785714Y9845181D01*
X-15785714Y9845181D02*
X-15833333Y9892800D01*
X-15833333Y9892800D02*
X-15785714Y9940420D01*
X-15785714Y9940420D02*
X-15785714Y9845181D01*
X-15166667Y10416610D02*
X-15261905Y10464229D01*
X-15261905Y10464229D02*
X-15309524Y10511848D01*
X-15309524Y10511848D02*
X-15357143Y10607086D01*
X-15357143Y10607086D02*
X-15357143Y10654705D01*
X-15357143Y10654705D02*
X-15309524Y10749943D01*
X-15309524Y10749943D02*
X-15261905Y10797562D01*
X-15261905Y10797562D02*
X-15166667Y10845181D01*
X-15166667Y10845181D02*
X-14976191Y10845181D01*
X-14976191Y10845181D02*
X-14880953Y10797562D01*
X-14880953Y10797562D02*
X-14833334Y10749943D01*
X-14833334Y10749943D02*
X-14785715Y10654705D01*
X-14785715Y10654705D02*
X-14785715Y10607086D01*
X-14785715Y10607086D02*
X-14833334Y10511848D01*
X-14833334Y10511848D02*
X-14880953Y10464229D01*
X-14880953Y10464229D02*
X-14976191Y10416610D01*
X-14976191Y10416610D02*
X-15166667Y10416610D01*
X-15166667Y10416610D02*
X-15261905Y10368991D01*
X-15261905Y10368991D02*
X-15309524Y10321372D01*
X-15309524Y10321372D02*
X-15357143Y10226134D01*
X-15357143Y10226134D02*
X-15357143Y10035658D01*
X-15357143Y10035658D02*
X-15309524Y9940420D01*
X-15309524Y9940420D02*
X-15261905Y9892800D01*
X-15261905Y9892800D02*
X-15166667Y9845181D01*
X-15166667Y9845181D02*
X-14976191Y9845181D01*
X-14976191Y9845181D02*
X-14880953Y9892800D01*
X-14880953Y9892800D02*
X-14833334Y9940420D01*
X-14833334Y9940420D02*
X-14785715Y10035658D01*
X-14785715Y10035658D02*
X-14785715Y10226134D01*
X-14785715Y10226134D02*
X-14833334Y10321372D01*
X-14833334Y10321372D02*
X-14880953Y10368991D01*
X-14880953Y10368991D02*
X-14976191Y10416610D01*
X-19214285Y17392800D02*
X-19071428Y17345181D01*
X-19071428Y17345181D02*
X-18833333Y17345181D01*
X-18833333Y17345181D02*
X-18738095Y17392800D01*
X-18738095Y17392800D02*
X-18690476Y17440420D01*
X-18690476Y17440420D02*
X-18642857Y17535658D01*
X-18642857Y17535658D02*
X-18642857Y17630896D01*
X-18642857Y17630896D02*
X-18690476Y17726134D01*
X-18690476Y17726134D02*
X-18738095Y17773753D01*
X-18738095Y17773753D02*
X-18833333Y17821372D01*
X-18833333Y17821372D02*
X-19023809Y17868991D01*
X-19023809Y17868991D02*
X-19119047Y17916610D01*
X-19119047Y17916610D02*
X-19166666Y17964229D01*
X-19166666Y17964229D02*
X-19214285Y18059467D01*
X-19214285Y18059467D02*
X-19214285Y18154705D01*
X-19214285Y18154705D02*
X-19166666Y18249943D01*
X-19166666Y18249943D02*
X-19119047Y18297562D01*
X-19119047Y18297562D02*
X-19023809Y18345181D01*
X-19023809Y18345181D02*
X-18785714Y18345181D01*
X-18785714Y18345181D02*
X-18642857Y18297562D01*
X-18214285Y17345181D02*
X-18214285Y18345181D01*
X-18214285Y18345181D02*
X-17833333Y18345181D01*
X-17833333Y18345181D02*
X-17738095Y18297562D01*
X-17738095Y18297562D02*
X-17690476Y18249943D01*
X-17690476Y18249943D02*
X-17642857Y18154705D01*
X-17642857Y18154705D02*
X-17642857Y18011848D01*
X-17642857Y18011848D02*
X-17690476Y17916610D01*
X-17690476Y17916610D02*
X-17738095Y17868991D01*
X-17738095Y17868991D02*
X-17833333Y17821372D01*
X-17833333Y17821372D02*
X-18214285Y17821372D01*
X-17214285Y17345181D02*
X-17214285Y18345181D01*
X-16547619Y18345181D02*
X-16452381Y18345181D01*
X-16452381Y18345181D02*
X-16357143Y18297562D01*
X-16357143Y18297562D02*
X-16309524Y18249943D01*
X-16309524Y18249943D02*
X-16261905Y18154705D01*
X-16261905Y18154705D02*
X-16214286Y17964229D01*
X-16214286Y17964229D02*
X-16214286Y17726134D01*
X-16214286Y17726134D02*
X-16261905Y17535658D01*
X-16261905Y17535658D02*
X-16309524Y17440420D01*
X-16309524Y17440420D02*
X-16357143Y17392800D01*
X-16357143Y17392800D02*
X-16452381Y17345181D01*
X-16452381Y17345181D02*
X-16547619Y17345181D01*
X-16547619Y17345181D02*
X-16642857Y17392800D01*
X-16642857Y17392800D02*
X-16690476Y17440420D01*
X-16690476Y17440420D02*
X-16738095Y17535658D01*
X-16738095Y17535658D02*
X-16785714Y17726134D01*
X-16785714Y17726134D02*
X-16785714Y17964229D01*
X-16785714Y17964229D02*
X-16738095Y18154705D01*
X-16738095Y18154705D02*
X-16690476Y18249943D01*
X-16690476Y18249943D02*
X-16642857Y18297562D01*
X-16642857Y18297562D02*
X-16547619Y18345181D01*
X-15785714Y17440420D02*
X-15738095Y17392800D01*
X-15738095Y17392800D02*
X-15785714Y17345181D01*
X-15785714Y17345181D02*
X-15833333Y17392800D01*
X-15833333Y17392800D02*
X-15785714Y17440420D01*
X-15785714Y17440420D02*
X-15785714Y17345181D01*
X-14880953Y18345181D02*
X-15071429Y18345181D01*
X-15071429Y18345181D02*
X-15166667Y18297562D01*
X-15166667Y18297562D02*
X-15214286Y18249943D01*
X-15214286Y18249943D02*
X-15309524Y18107086D01*
X-15309524Y18107086D02*
X-15357143Y17916610D01*
X-15357143Y17916610D02*
X-15357143Y17535658D01*
X-15357143Y17535658D02*
X-15309524Y17440420D01*
X-15309524Y17440420D02*
X-15261905Y17392800D01*
X-15261905Y17392800D02*
X-15166667Y17345181D01*
X-15166667Y17345181D02*
X-14976191Y17345181D01*
X-14976191Y17345181D02*
X-14880953Y17392800D01*
X-14880953Y17392800D02*
X-14833334Y17440420D01*
X-14833334Y17440420D02*
X-14785715Y17535658D01*
X-14785715Y17535658D02*
X-14785715Y17773753D01*
X-14785715Y17773753D02*
X-14833334Y17868991D01*
X-14833334Y17868991D02*
X-14880953Y17916610D01*
X-14880953Y17916610D02*
X-14976191Y17964229D01*
X-14976191Y17964229D02*
X-15166667Y17964229D01*
X-15166667Y17964229D02*
X-15261905Y17916610D01*
X-15261905Y17916610D02*
X-15309524Y17868991D01*
X-15309524Y17868991D02*
X-15357143Y17773753D01*
X-19690476Y2392800D02*
X-19547619Y2345181D01*
X-19547619Y2345181D02*
X-19309524Y2345181D01*
X-19309524Y2345181D02*
X-19214286Y2392800D01*
X-19214286Y2392800D02*
X-19166667Y2440420D01*
X-19166667Y2440420D02*
X-19119048Y2535658D01*
X-19119048Y2535658D02*
X-19119048Y2630896D01*
X-19119048Y2630896D02*
X-19166667Y2726134D01*
X-19166667Y2726134D02*
X-19214286Y2773753D01*
X-19214286Y2773753D02*
X-19309524Y2821372D01*
X-19309524Y2821372D02*
X-19500000Y2868991D01*
X-19500000Y2868991D02*
X-19595238Y2916610D01*
X-19595238Y2916610D02*
X-19642857Y2964229D01*
X-19642857Y2964229D02*
X-19690476Y3059467D01*
X-19690476Y3059467D02*
X-19690476Y3154705D01*
X-19690476Y3154705D02*
X-19642857Y3249943D01*
X-19642857Y3249943D02*
X-19595238Y3297562D01*
X-19595238Y3297562D02*
X-19500000Y3345181D01*
X-19500000Y3345181D02*
X-19261905Y3345181D01*
X-19261905Y3345181D02*
X-19119048Y3297562D01*
X-18690476Y2345181D02*
X-18690476Y3345181D01*
X-18690476Y3345181D02*
X-18309524Y3345181D01*
X-18309524Y3345181D02*
X-18214286Y3297562D01*
X-18214286Y3297562D02*
X-18166667Y3249943D01*
X-18166667Y3249943D02*
X-18119048Y3154705D01*
X-18119048Y3154705D02*
X-18119048Y3011848D01*
X-18119048Y3011848D02*
X-18166667Y2916610D01*
X-18166667Y2916610D02*
X-18214286Y2868991D01*
X-18214286Y2868991D02*
X-18309524Y2821372D01*
X-18309524Y2821372D02*
X-18690476Y2821372D01*
X-17690476Y2345181D02*
X-17690476Y3345181D01*
X-16690477Y2345181D02*
X-17261905Y2345181D01*
X-16976191Y2345181D02*
X-16976191Y3345181D01*
X-16976191Y3345181D02*
X-17071429Y3202324D01*
X-17071429Y3202324D02*
X-17166667Y3107086D01*
X-17166667Y3107086D02*
X-17261905Y3059467D01*
X-16261905Y2440420D02*
X-16214286Y2392800D01*
X-16214286Y2392800D02*
X-16261905Y2345181D01*
X-16261905Y2345181D02*
X-16309524Y2392800D01*
X-16309524Y2392800D02*
X-16261905Y2440420D01*
X-16261905Y2440420D02*
X-16261905Y2345181D01*
X-15261906Y2345181D02*
X-15833334Y2345181D01*
X-15547620Y2345181D02*
X-15547620Y3345181D01*
X-15547620Y3345181D02*
X-15642858Y3202324D01*
X-15642858Y3202324D02*
X-15738096Y3107086D01*
X-15738096Y3107086D02*
X-15833334Y3059467D01*
X-14928572Y3345181D02*
X-14309525Y3345181D01*
X-14309525Y3345181D02*
X-14642858Y2964229D01*
X-14642858Y2964229D02*
X-14500001Y2964229D01*
X-14500001Y2964229D02*
X-14404763Y2916610D01*
X-14404763Y2916610D02*
X-14357144Y2868991D01*
X-14357144Y2868991D02*
X-14309525Y2773753D01*
X-14309525Y2773753D02*
X-14309525Y2535658D01*
X-14309525Y2535658D02*
X-14357144Y2440420D01*
X-14357144Y2440420D02*
X-14404763Y2392800D01*
X-14404763Y2392800D02*
X-14500001Y2345181D01*
X-14500001Y2345181D02*
X-14785715Y2345181D01*
X-14785715Y2345181D02*
X-14880953Y2392800D01*
X-14880953Y2392800D02*
X-14928572Y2440420D01*
X-3102382Y145181D02*
X-3435715Y621372D01*
X-3673810Y145181D02*
X-3673810Y1145181D01*
X-3673810Y1145181D02*
X-3292858Y1145181D01*
X-3292858Y1145181D02*
X-3197620Y1097562D01*
X-3197620Y1097562D02*
X-3150001Y1049943D01*
X-3150001Y1049943D02*
X-3102382Y954705D01*
X-3102382Y954705D02*
X-3102382Y811848D01*
X-3102382Y811848D02*
X-3150001Y716610D01*
X-3150001Y716610D02*
X-3197620Y668991D01*
X-3197620Y668991D02*
X-3292858Y621372D01*
X-3292858Y621372D02*
X-3673810Y621372D01*
X-2673810Y668991D02*
X-2340477Y668991D01*
X-2197620Y145181D02*
X-2673810Y145181D01*
X-2673810Y145181D02*
X-2673810Y1145181D01*
X-2673810Y1145181D02*
X-2197620Y1145181D01*
X-1816667Y192800D02*
X-1673810Y145181D01*
X-1673810Y145181D02*
X-1435715Y145181D01*
X-1435715Y145181D02*
X-1340477Y192800D01*
X-1340477Y192800D02*
X-1292858Y240420D01*
X-1292858Y240420D02*
X-1245239Y335658D01*
X-1245239Y335658D02*
X-1245239Y430896D01*
X-1245239Y430896D02*
X-1292858Y526134D01*
X-1292858Y526134D02*
X-1340477Y573753D01*
X-1340477Y573753D02*
X-1435715Y621372D01*
X-1435715Y621372D02*
X-1626191Y668991D01*
X-1626191Y668991D02*
X-1721429Y716610D01*
X-1721429Y716610D02*
X-1769048Y764229D01*
X-1769048Y764229D02*
X-1816667Y859467D01*
X-1816667Y859467D02*
X-1816667Y954705D01*
X-1816667Y954705D02*
X-1769048Y1049943D01*
X-1769048Y1049943D02*
X-1721429Y1097562D01*
X-1721429Y1097562D02*
X-1626191Y1145181D01*
X-1626191Y1145181D02*
X-1388096Y1145181D01*
X-1388096Y1145181D02*
X-1245239Y1097562D01*
X-816667Y668991D02*
X-483334Y668991D01*
X-340477Y145181D02*
X-816667Y145181D01*
X-816667Y145181D02*
X-816667Y1145181D01*
X-816667Y1145181D02*
X-340477Y1145181D01*
X-54762Y1145181D02*
X516666Y1145181D01*
X230952Y145181D02*
X230952Y1145181D01*
X-5032265Y3253334D02*
X-4996550Y3205715D01*
X-4996550Y3205715D02*
X-4960836Y3062858D01*
X-4960836Y3062858D02*
X-4960836Y2967620D01*
X-4960836Y2967620D02*
X-4996550Y2824763D01*
X-4996550Y2824763D02*
X-5067979Y2729525D01*
X-5067979Y2729525D02*
X-5139408Y2681906D01*
X-5139408Y2681906D02*
X-5282265Y2634287D01*
X-5282265Y2634287D02*
X-5389408Y2634287D01*
X-5389408Y2634287D02*
X-5532265Y2681906D01*
X-5532265Y2681906D02*
X-5603693Y2729525D01*
X-5603693Y2729525D02*
X-5675122Y2824763D01*
X-5675122Y2824763D02*
X-5710836Y2967620D01*
X-5710836Y2967620D02*
X-5710836Y3062858D01*
X-5710836Y3062858D02*
X-5675122Y3205715D01*
X-5675122Y3205715D02*
X-5639408Y3253334D01*
X-5639408Y3634287D02*
X-5675122Y3681906D01*
X-5675122Y3681906D02*
X-5710836Y3777144D01*
X-5710836Y3777144D02*
X-5710836Y4015239D01*
X-5710836Y4015239D02*
X-5675122Y4110477D01*
X-5675122Y4110477D02*
X-5639408Y4158096D01*
X-5639408Y4158096D02*
X-5567979Y4205715D01*
X-5567979Y4205715D02*
X-5496550Y4205715D01*
X-5496550Y4205715D02*
X-5389408Y4158096D01*
X-5389408Y4158096D02*
X-4960836Y3586668D01*
X-4960836Y3586668D02*
X-4960836Y4205715D01*
X14385713Y17568991D02*
X14528570Y17521372D01*
X14528570Y17521372D02*
X14576189Y17473753D01*
X14576189Y17473753D02*
X14623808Y17378515D01*
X14623808Y17378515D02*
X14623808Y17235658D01*
X14623808Y17235658D02*
X14576189Y17140420D01*
X14576189Y17140420D02*
X14528570Y17092800D01*
X14528570Y17092800D02*
X14433332Y17045181D01*
X14433332Y17045181D02*
X14052380Y17045181D01*
X14052380Y17045181D02*
X14052380Y18045181D01*
X14052380Y18045181D02*
X14385713Y18045181D01*
X14385713Y18045181D02*
X14480951Y17997562D01*
X14480951Y17997562D02*
X14528570Y17949943D01*
X14528570Y17949943D02*
X14576189Y17854705D01*
X14576189Y17854705D02*
X14576189Y17759467D01*
X14576189Y17759467D02*
X14528570Y17664229D01*
X14528570Y17664229D02*
X14480951Y17616610D01*
X14480951Y17616610D02*
X14385713Y17568991D01*
X14385713Y17568991D02*
X14052380Y17568991D01*
X15052380Y17045181D02*
X15052380Y17711848D01*
X15052380Y17521372D02*
X15099999Y17616610D01*
X15099999Y17616610D02*
X15147618Y17664229D01*
X15147618Y17664229D02*
X15242856Y17711848D01*
X15242856Y17711848D02*
X15338094Y17711848D01*
X16052380Y17092800D02*
X15957142Y17045181D01*
X15957142Y17045181D02*
X15766666Y17045181D01*
X15766666Y17045181D02*
X15671428Y17092800D01*
X15671428Y17092800D02*
X15623809Y17188039D01*
X15623809Y17188039D02*
X15623809Y17568991D01*
X15623809Y17568991D02*
X15671428Y17664229D01*
X15671428Y17664229D02*
X15766666Y17711848D01*
X15766666Y17711848D02*
X15957142Y17711848D01*
X15957142Y17711848D02*
X16052380Y17664229D01*
X16052380Y17664229D02*
X16099999Y17568991D01*
X16099999Y17568991D02*
X16099999Y17473753D01*
X16099999Y17473753D02*
X15623809Y17378515D01*
X16957142Y17045181D02*
X16957142Y17568991D01*
X16957142Y17568991D02*
X16909523Y17664229D01*
X16909523Y17664229D02*
X16814285Y17711848D01*
X16814285Y17711848D02*
X16623809Y17711848D01*
X16623809Y17711848D02*
X16528571Y17664229D01*
X16957142Y17092800D02*
X16861904Y17045181D01*
X16861904Y17045181D02*
X16623809Y17045181D01*
X16623809Y17045181D02*
X16528571Y17092800D01*
X16528571Y17092800D02*
X16480952Y17188039D01*
X16480952Y17188039D02*
X16480952Y17283277D01*
X16480952Y17283277D02*
X16528571Y17378515D01*
X16528571Y17378515D02*
X16623809Y17426134D01*
X16623809Y17426134D02*
X16861904Y17426134D01*
X16861904Y17426134D02*
X16957142Y17473753D01*
X17433333Y17045181D02*
X17433333Y18045181D01*
X17528571Y17426134D02*
X17814285Y17045181D01*
X17814285Y17711848D02*
X17433333Y17330896D01*
X18385714Y17045181D02*
X18290476Y17092800D01*
X18290476Y17092800D02*
X18242857Y17140420D01*
X18242857Y17140420D02*
X18195238Y17235658D01*
X18195238Y17235658D02*
X18195238Y17521372D01*
X18195238Y17521372D02*
X18242857Y17616610D01*
X18242857Y17616610D02*
X18290476Y17664229D01*
X18290476Y17664229D02*
X18385714Y17711848D01*
X18385714Y17711848D02*
X18528571Y17711848D01*
X18528571Y17711848D02*
X18623809Y17664229D01*
X18623809Y17664229D02*
X18671428Y17616610D01*
X18671428Y17616610D02*
X18719047Y17521372D01*
X18719047Y17521372D02*
X18719047Y17235658D01*
X18719047Y17235658D02*
X18671428Y17140420D01*
X18671428Y17140420D02*
X18623809Y17092800D01*
X18623809Y17092800D02*
X18528571Y17045181D01*
X18528571Y17045181D02*
X18385714Y17045181D01*
X19576190Y17711848D02*
X19576190Y17045181D01*
X19147619Y17711848D02*
X19147619Y17188039D01*
X19147619Y17188039D02*
X19195238Y17092800D01*
X19195238Y17092800D02*
X19290476Y17045181D01*
X19290476Y17045181D02*
X19433333Y17045181D01*
X19433333Y17045181D02*
X19528571Y17092800D01*
X19528571Y17092800D02*
X19576190Y17140420D01*
X19909524Y17711848D02*
X20290476Y17711848D01*
X20052381Y18045181D02*
X20052381Y17188039D01*
X20052381Y17188039D02*
X20100000Y17092800D01*
X20100000Y17092800D02*
X20195238Y17045181D01*
X20195238Y17045181D02*
X20290476Y17045181D01*
X-11057143Y28968991D02*
X-10914286Y28921372D01*
X-10914286Y28921372D02*
X-10866667Y28873753D01*
X-10866667Y28873753D02*
X-10819048Y28778515D01*
X-10819048Y28778515D02*
X-10819048Y28635658D01*
X-10819048Y28635658D02*
X-10866667Y28540420D01*
X-10866667Y28540420D02*
X-10914286Y28492800D01*
X-10914286Y28492800D02*
X-11009524Y28445181D01*
X-11009524Y28445181D02*
X-11390476Y28445181D01*
X-11390476Y28445181D02*
X-11390476Y29445181D01*
X-11390476Y29445181D02*
X-11057143Y29445181D01*
X-11057143Y29445181D02*
X-10961905Y29397562D01*
X-10961905Y29397562D02*
X-10914286Y29349943D01*
X-10914286Y29349943D02*
X-10866667Y29254705D01*
X-10866667Y29254705D02*
X-10866667Y29159467D01*
X-10866667Y29159467D02*
X-10914286Y29064229D01*
X-10914286Y29064229D02*
X-10961905Y29016610D01*
X-10961905Y29016610D02*
X-11057143Y28968991D01*
X-11057143Y28968991D02*
X-11390476Y28968991D01*
X-10200000Y29445181D02*
X-10009524Y29445181D01*
X-10009524Y29445181D02*
X-9914286Y29397562D01*
X-9914286Y29397562D02*
X-9819048Y29302324D01*
X-9819048Y29302324D02*
X-9771429Y29111848D01*
X-9771429Y29111848D02*
X-9771429Y28778515D01*
X-9771429Y28778515D02*
X-9819048Y28588039D01*
X-9819048Y28588039D02*
X-9914286Y28492800D01*
X-9914286Y28492800D02*
X-10009524Y28445181D01*
X-10009524Y28445181D02*
X-10200000Y28445181D01*
X-10200000Y28445181D02*
X-10295238Y28492800D01*
X-10295238Y28492800D02*
X-10390476Y28588039D01*
X-10390476Y28588039D02*
X-10438095Y28778515D01*
X-10438095Y28778515D02*
X-10438095Y29111848D01*
X-10438095Y29111848D02*
X-10390476Y29302324D01*
X-10390476Y29302324D02*
X-10295238Y29397562D01*
X-10295238Y29397562D02*
X-10200000Y29445181D01*
X-9152381Y29445181D02*
X-8961905Y29445181D01*
X-8961905Y29445181D02*
X-8866667Y29397562D01*
X-8866667Y29397562D02*
X-8771429Y29302324D01*
X-8771429Y29302324D02*
X-8723810Y29111848D01*
X-8723810Y29111848D02*
X-8723810Y28778515D01*
X-8723810Y28778515D02*
X-8771429Y28588039D01*
X-8771429Y28588039D02*
X-8866667Y28492800D01*
X-8866667Y28492800D02*
X-8961905Y28445181D01*
X-8961905Y28445181D02*
X-9152381Y28445181D01*
X-9152381Y28445181D02*
X-9247619Y28492800D01*
X-9247619Y28492800D02*
X-9342857Y28588039D01*
X-9342857Y28588039D02*
X-9390476Y28778515D01*
X-9390476Y28778515D02*
X-9390476Y29111848D01*
X-9390476Y29111848D02*
X-9342857Y29302324D01*
X-9342857Y29302324D02*
X-9247619Y29397562D01*
X-9247619Y29397562D02*
X-9152381Y29445181D01*
X-8438095Y29445181D02*
X-7866667Y29445181D01*
X-8152381Y28445181D02*
X-8152381Y29445181D01*
X1667735Y5233334D02*
X1703450Y5185715D01*
X1703450Y5185715D02*
X1739164Y5042858D01*
X1739164Y5042858D02*
X1739164Y4947620D01*
X1739164Y4947620D02*
X1703450Y4804763D01*
X1703450Y4804763D02*
X1632021Y4709525D01*
X1632021Y4709525D02*
X1560592Y4661906D01*
X1560592Y4661906D02*
X1417735Y4614287D01*
X1417735Y4614287D02*
X1310592Y4614287D01*
X1310592Y4614287D02*
X1167735Y4661906D01*
X1167735Y4661906D02*
X1096307Y4709525D01*
X1096307Y4709525D02*
X1024878Y4804763D01*
X1024878Y4804763D02*
X989164Y4947620D01*
X989164Y4947620D02*
X989164Y5042858D01*
X989164Y5042858D02*
X1024878Y5185715D01*
X1024878Y5185715D02*
X1060592Y5233334D01*
X989164Y5566668D02*
X989164Y6185715D01*
X989164Y6185715D02*
X1274878Y5852382D01*
X1274878Y5852382D02*
X1274878Y5995239D01*
X1274878Y5995239D02*
X1310592Y6090477D01*
X1310592Y6090477D02*
X1346307Y6138096D01*
X1346307Y6138096D02*
X1417735Y6185715D01*
X1417735Y6185715D02*
X1596307Y6185715D01*
X1596307Y6185715D02*
X1667735Y6138096D01*
X1667735Y6138096D02*
X1703450Y6090477D01*
X1703450Y6090477D02*
X1739164Y5995239D01*
X1739164Y5995239D02*
X1739164Y5709525D01*
X1739164Y5709525D02*
X1703450Y5614287D01*
X1703450Y5614287D02*
X1667735Y5566668D01*
X14119047Y3268991D02*
X14261904Y3221372D01*
X14261904Y3221372D02*
X14309523Y3173753D01*
X14309523Y3173753D02*
X14357142Y3078515D01*
X14357142Y3078515D02*
X14357142Y2935658D01*
X14357142Y2935658D02*
X14309523Y2840420D01*
X14309523Y2840420D02*
X14261904Y2792800D01*
X14261904Y2792800D02*
X14166666Y2745181D01*
X14166666Y2745181D02*
X13785714Y2745181D01*
X13785714Y2745181D02*
X13785714Y3745181D01*
X13785714Y3745181D02*
X14119047Y3745181D01*
X14119047Y3745181D02*
X14214285Y3697562D01*
X14214285Y3697562D02*
X14261904Y3649943D01*
X14261904Y3649943D02*
X14309523Y3554705D01*
X14309523Y3554705D02*
X14309523Y3459467D01*
X14309523Y3459467D02*
X14261904Y3364229D01*
X14261904Y3364229D02*
X14214285Y3316610D01*
X14214285Y3316610D02*
X14119047Y3268991D01*
X14119047Y3268991D02*
X13785714Y3268991D01*
X14738095Y3649943D02*
X14785714Y3697562D01*
X14785714Y3697562D02*
X14880952Y3745181D01*
X14880952Y3745181D02*
X15119047Y3745181D01*
X15119047Y3745181D02*
X15214285Y3697562D01*
X15214285Y3697562D02*
X15261904Y3649943D01*
X15261904Y3649943D02*
X15309523Y3554705D01*
X15309523Y3554705D02*
X15309523Y3459467D01*
X15309523Y3459467D02*
X15261904Y3316610D01*
X15261904Y3316610D02*
X14690476Y2745181D01*
X14690476Y2745181D02*
X15309523Y2745181D01*
X15928571Y3745181D02*
X16023809Y3745181D01*
X16023809Y3745181D02*
X16119047Y3697562D01*
X16119047Y3697562D02*
X16166666Y3649943D01*
X16166666Y3649943D02*
X16214285Y3554705D01*
X16214285Y3554705D02*
X16261904Y3364229D01*
X16261904Y3364229D02*
X16261904Y3126134D01*
X16261904Y3126134D02*
X16214285Y2935658D01*
X16214285Y2935658D02*
X16166666Y2840420D01*
X16166666Y2840420D02*
X16119047Y2792800D01*
X16119047Y2792800D02*
X16023809Y2745181D01*
X16023809Y2745181D02*
X15928571Y2745181D01*
X15928571Y2745181D02*
X15833333Y2792800D01*
X15833333Y2792800D02*
X15785714Y2840420D01*
X15785714Y2840420D02*
X15738095Y2935658D01*
X15738095Y2935658D02*
X15690476Y3126134D01*
X15690476Y3126134D02*
X15690476Y3364229D01*
X15690476Y3364229D02*
X15738095Y3554705D01*
X15738095Y3554705D02*
X15785714Y3649943D01*
X15785714Y3649943D02*
X15833333Y3697562D01*
X15833333Y3697562D02*
X15928571Y3745181D01*
X7719047Y10768991D02*
X7861904Y10721372D01*
X7861904Y10721372D02*
X7909523Y10673753D01*
X7909523Y10673753D02*
X7957142Y10578515D01*
X7957142Y10578515D02*
X7957142Y10435658D01*
X7957142Y10435658D02*
X7909523Y10340420D01*
X7909523Y10340420D02*
X7861904Y10292800D01*
X7861904Y10292800D02*
X7766666Y10245181D01*
X7766666Y10245181D02*
X7385714Y10245181D01*
X7385714Y10245181D02*
X7385714Y11245181D01*
X7385714Y11245181D02*
X7719047Y11245181D01*
X7719047Y11245181D02*
X7814285Y11197562D01*
X7814285Y11197562D02*
X7861904Y11149943D01*
X7861904Y11149943D02*
X7909523Y11054705D01*
X7909523Y11054705D02*
X7909523Y10959467D01*
X7909523Y10959467D02*
X7861904Y10864229D01*
X7861904Y10864229D02*
X7814285Y10816610D01*
X7814285Y10816610D02*
X7719047Y10768991D01*
X7719047Y10768991D02*
X7385714Y10768991D01*
X8338095Y11149943D02*
X8385714Y11197562D01*
X8385714Y11197562D02*
X8480952Y11245181D01*
X8480952Y11245181D02*
X8719047Y11245181D01*
X8719047Y11245181D02*
X8814285Y11197562D01*
X8814285Y11197562D02*
X8861904Y11149943D01*
X8861904Y11149943D02*
X8909523Y11054705D01*
X8909523Y11054705D02*
X8909523Y10959467D01*
X8909523Y10959467D02*
X8861904Y10816610D01*
X8861904Y10816610D02*
X8290476Y10245181D01*
X8290476Y10245181D02*
X8909523Y10245181D01*
X9861904Y10245181D02*
X9290476Y10245181D01*
X9576190Y10245181D02*
X9576190Y11245181D01*
X9576190Y11245181D02*
X9480952Y11102324D01*
X9480952Y11102324D02*
X9385714Y11007086D01*
X9385714Y11007086D02*
X9290476Y10959467D01*
X15047619Y28145181D02*
X15047619Y29145181D01*
X15047619Y29145181D02*
X15428571Y29145181D01*
X15428571Y29145181D02*
X15523809Y29097562D01*
X15523809Y29097562D02*
X15571428Y29049943D01*
X15571428Y29049943D02*
X15619047Y28954705D01*
X15619047Y28954705D02*
X15619047Y28811848D01*
X15619047Y28811848D02*
X15571428Y28716610D01*
X15571428Y28716610D02*
X15523809Y28668991D01*
X15523809Y28668991D02*
X15428571Y28621372D01*
X15428571Y28621372D02*
X15047619Y28621372D01*
X16047619Y28145181D02*
X16047619Y29145181D01*
X16523809Y28668991D02*
X16857142Y28668991D01*
X16999999Y28145181D02*
X16523809Y28145181D01*
X16523809Y28145181D02*
X16523809Y29145181D01*
X16523809Y29145181D02*
X16999999Y29145181D01*
X17333333Y29145181D02*
X17999999Y29145181D01*
X17999999Y29145181D02*
X17333333Y28145181D01*
X17333333Y28145181D02*
X17999999Y28145181D01*
X18571428Y29145181D02*
X18761904Y29145181D01*
X18761904Y29145181D02*
X18857142Y29097562D01*
X18857142Y29097562D02*
X18952380Y29002324D01*
X18952380Y29002324D02*
X18999999Y28811848D01*
X18999999Y28811848D02*
X18999999Y28478515D01*
X18999999Y28478515D02*
X18952380Y28288039D01*
X18952380Y28288039D02*
X18857142Y28192800D01*
X18857142Y28192800D02*
X18761904Y28145181D01*
X18761904Y28145181D02*
X18571428Y28145181D01*
X18571428Y28145181D02*
X18476190Y28192800D01*
X18476190Y28192800D02*
X18380952Y28288039D01*
X18380952Y28288039D02*
X18333333Y28478515D01*
X18333333Y28478515D02*
X18333333Y28811848D01*
X18333333Y28811848D02*
X18380952Y29002324D01*
X18380952Y29002324D02*
X18476190Y29097562D01*
X18476190Y29097562D02*
X18571428Y29145181D01*
X-19952381Y24145181D02*
X-19952381Y25145181D01*
X-19523810Y25049943D02*
X-19476191Y25097562D01*
X-19476191Y25097562D02*
X-19380953Y25145181D01*
X-19380953Y25145181D02*
X-19142858Y25145181D01*
X-19142858Y25145181D02*
X-19047620Y25097562D01*
X-19047620Y25097562D02*
X-19000001Y25049943D01*
X-19000001Y25049943D02*
X-18952382Y24954705D01*
X-18952382Y24954705D02*
X-18952382Y24859467D01*
X-18952382Y24859467D02*
X-19000001Y24716610D01*
X-19000001Y24716610D02*
X-19571429Y24145181D01*
X-19571429Y24145181D02*
X-18952382Y24145181D01*
X-17952382Y24240420D02*
X-18000001Y24192800D01*
X-18000001Y24192800D02*
X-18142858Y24145181D01*
X-18142858Y24145181D02*
X-18238096Y24145181D01*
X-18238096Y24145181D02*
X-18380953Y24192800D01*
X-18380953Y24192800D02*
X-18476191Y24288039D01*
X-18476191Y24288039D02*
X-18523810Y24383277D01*
X-18523810Y24383277D02*
X-18571429Y24573753D01*
X-18571429Y24573753D02*
X-18571429Y24716610D01*
X-18571429Y24716610D02*
X-18523810Y24907086D01*
X-18523810Y24907086D02*
X-18476191Y25002324D01*
X-18476191Y25002324D02*
X-18380953Y25097562D01*
X-18380953Y25097562D02*
X-18238096Y25145181D01*
X-18238096Y25145181D02*
X-18142858Y25145181D01*
X-18142858Y25145181D02*
X-18000001Y25097562D01*
X-18000001Y25097562D02*
X-17952382Y25049943D01*
X-17333334Y25145181D02*
X-17238096Y25145181D01*
X-17238096Y25145181D02*
X-17142858Y25097562D01*
X-17142858Y25097562D02*
X-17095239Y25049943D01*
X-17095239Y25049943D02*
X-17047620Y24954705D01*
X-17047620Y24954705D02*
X-17000001Y24764229D01*
X-17000001Y24764229D02*
X-17000001Y24526134D01*
X-17000001Y24526134D02*
X-17047620Y24335658D01*
X-17047620Y24335658D02*
X-17095239Y24240420D01*
X-17095239Y24240420D02*
X-17142858Y24192800D01*
X-17142858Y24192800D02*
X-17238096Y24145181D01*
X-17238096Y24145181D02*
X-17333334Y24145181D01*
X-17333334Y24145181D02*
X-17428572Y24192800D01*
X-17428572Y24192800D02*
X-17476191Y24240420D01*
X-17476191Y24240420D02*
X-17523810Y24335658D01*
X-17523810Y24335658D02*
X-17571429Y24526134D01*
X-17571429Y24526134D02*
X-17571429Y24764229D01*
X-17571429Y24764229D02*
X-17523810Y24954705D01*
X-17523810Y24954705D02*
X-17476191Y25049943D01*
X-17476191Y25049943D02*
X-17428572Y25097562D01*
X-17428572Y25097562D02*
X-17333334Y25145181D01*
X-1261905Y29545181D02*
X-1261905Y28735658D01*
X-1261905Y28735658D02*
X-1214286Y28640420D01*
X-1214286Y28640420D02*
X-1166667Y28592800D01*
X-1166667Y28592800D02*
X-1071429Y28545181D01*
X-1071429Y28545181D02*
X-880953Y28545181D01*
X-880953Y28545181D02*
X-785715Y28592800D01*
X-785715Y28592800D02*
X-738096Y28640420D01*
X-738096Y28640420D02*
X-690477Y28735658D01*
X-690477Y28735658D02*
X-690477Y29545181D01*
X-261905Y28592800D02*
X-119048Y28545181D01*
X-119048Y28545181D02*
X119047Y28545181D01*
X119047Y28545181D02*
X214285Y28592800D01*
X214285Y28592800D02*
X261904Y28640420D01*
X261904Y28640420D02*
X309523Y28735658D01*
X309523Y28735658D02*
X309523Y28830896D01*
X309523Y28830896D02*
X261904Y28926134D01*
X261904Y28926134D02*
X214285Y28973753D01*
X214285Y28973753D02*
X119047Y29021372D01*
X119047Y29021372D02*
X-71429Y29068991D01*
X-71429Y29068991D02*
X-166667Y29116610D01*
X-166667Y29116610D02*
X-214286Y29164229D01*
X-214286Y29164229D02*
X-261905Y29259467D01*
X-261905Y29259467D02*
X-261905Y29354705D01*
X-261905Y29354705D02*
X-214286Y29449943D01*
X-214286Y29449943D02*
X-166667Y29497562D01*
X-166667Y29497562D02*
X-71429Y29545181D01*
X-71429Y29545181D02*
X166666Y29545181D01*
X166666Y29545181D02*
X309523Y29497562D01*
X1071428Y29068991D02*
X1214285Y29021372D01*
X1214285Y29021372D02*
X1261904Y28973753D01*
X1261904Y28973753D02*
X1309523Y28878515D01*
X1309523Y28878515D02*
X1309523Y28735658D01*
X1309523Y28735658D02*
X1261904Y28640420D01*
X1261904Y28640420D02*
X1214285Y28592800D01*
X1214285Y28592800D02*
X1119047Y28545181D01*
X1119047Y28545181D02*
X738095Y28545181D01*
X738095Y28545181D02*
X738095Y29545181D01*
X738095Y29545181D02*
X1071428Y29545181D01*
X1071428Y29545181D02*
X1166666Y29497562D01*
X1166666Y29497562D02*
X1214285Y29449943D01*
X1214285Y29449943D02*
X1261904Y29354705D01*
X1261904Y29354705D02*
X1261904Y29259467D01*
X1261904Y29259467D02*
X1214285Y29164229D01*
X1214285Y29164229D02*
X1166666Y29116610D01*
X1166666Y29116610D02*
X1071428Y29068991D01*
X1071428Y29068991D02*
X738095Y29068991D01*
X18619047Y10768991D02*
X18761904Y10721372D01*
X18761904Y10721372D02*
X18809523Y10673753D01*
X18809523Y10673753D02*
X18857142Y10578515D01*
X18857142Y10578515D02*
X18857142Y10435658D01*
X18857142Y10435658D02*
X18809523Y10340420D01*
X18809523Y10340420D02*
X18761904Y10292800D01*
X18761904Y10292800D02*
X18666666Y10245181D01*
X18666666Y10245181D02*
X18285714Y10245181D01*
X18285714Y10245181D02*
X18285714Y11245181D01*
X18285714Y11245181D02*
X18619047Y11245181D01*
X18619047Y11245181D02*
X18714285Y11197562D01*
X18714285Y11197562D02*
X18761904Y11149943D01*
X18761904Y11149943D02*
X18809523Y11054705D01*
X18809523Y11054705D02*
X18809523Y10959467D01*
X18809523Y10959467D02*
X18761904Y10864229D01*
X18761904Y10864229D02*
X18714285Y10816610D01*
X18714285Y10816610D02*
X18619047Y10768991D01*
X18619047Y10768991D02*
X18285714Y10768991D01*
X19238095Y11149943D02*
X19285714Y11197562D01*
X19285714Y11197562D02*
X19380952Y11245181D01*
X19380952Y11245181D02*
X19619047Y11245181D01*
X19619047Y11245181D02*
X19714285Y11197562D01*
X19714285Y11197562D02*
X19761904Y11149943D01*
X19761904Y11149943D02*
X19809523Y11054705D01*
X19809523Y11054705D02*
X19809523Y10959467D01*
X19809523Y10959467D02*
X19761904Y10816610D01*
X19761904Y10816610D02*
X19190476Y10245181D01*
X19190476Y10245181D02*
X19809523Y10245181D01*
X20142857Y11245181D02*
X20761904Y11245181D01*
X20761904Y11245181D02*
X20428571Y10864229D01*
X20428571Y10864229D02*
X20571428Y10864229D01*
X20571428Y10864229D02*
X20666666Y10816610D01*
X20666666Y10816610D02*
X20714285Y10768991D01*
X20714285Y10768991D02*
X20761904Y10673753D01*
X20761904Y10673753D02*
X20761904Y10435658D01*
X20761904Y10435658D02*
X20714285Y10340420D01*
X20714285Y10340420D02*
X20666666Y10292800D01*
X20666666Y10292800D02*
X20571428Y10245181D01*
X20571428Y10245181D02*
X20285714Y10245181D01*
X20285714Y10245181D02*
X20190476Y10292800D01*
X20190476Y10292800D02*
X20142857Y10340420D01*
X8719047Y3268991D02*
X8861904Y3221372D01*
X8861904Y3221372D02*
X8909523Y3173753D01*
X8909523Y3173753D02*
X8957142Y3078515D01*
X8957142Y3078515D02*
X8957142Y2935658D01*
X8957142Y2935658D02*
X8909523Y2840420D01*
X8909523Y2840420D02*
X8861904Y2792800D01*
X8861904Y2792800D02*
X8766666Y2745181D01*
X8766666Y2745181D02*
X8385714Y2745181D01*
X8385714Y2745181D02*
X8385714Y3745181D01*
X8385714Y3745181D02*
X8719047Y3745181D01*
X8719047Y3745181D02*
X8814285Y3697562D01*
X8814285Y3697562D02*
X8861904Y3649943D01*
X8861904Y3649943D02*
X8909523Y3554705D01*
X8909523Y3554705D02*
X8909523Y3459467D01*
X8909523Y3459467D02*
X8861904Y3364229D01*
X8861904Y3364229D02*
X8814285Y3316610D01*
X8814285Y3316610D02*
X8719047Y3268991D01*
X8719047Y3268991D02*
X8385714Y3268991D01*
X9909523Y2745181D02*
X9338095Y2745181D01*
X9623809Y2745181D02*
X9623809Y3745181D01*
X9623809Y3745181D02*
X9528571Y3602324D01*
X9528571Y3602324D02*
X9433333Y3507086D01*
X9433333Y3507086D02*
X9338095Y3459467D01*
X10385714Y2745181D02*
X10576190Y2745181D01*
X10576190Y2745181D02*
X10671428Y2792800D01*
X10671428Y2792800D02*
X10719047Y2840420D01*
X10719047Y2840420D02*
X10814285Y2983277D01*
X10814285Y2983277D02*
X10861904Y3173753D01*
X10861904Y3173753D02*
X10861904Y3554705D01*
X10861904Y3554705D02*
X10814285Y3649943D01*
X10814285Y3649943D02*
X10766666Y3697562D01*
X10766666Y3697562D02*
X10671428Y3745181D01*
X10671428Y3745181D02*
X10480952Y3745181D01*
X10480952Y3745181D02*
X10385714Y3697562D01*
X10385714Y3697562D02*
X10338095Y3649943D01*
X10338095Y3649943D02*
X10290476Y3554705D01*
X10290476Y3554705D02*
X10290476Y3316610D01*
X10290476Y3316610D02*
X10338095Y3221372D01*
X10338095Y3221372D02*
X10385714Y3173753D01*
X10385714Y3173753D02*
X10480952Y3126134D01*
X10480952Y3126134D02*
X10671428Y3126134D01*
X10671428Y3126134D02*
X10766666Y3173753D01*
X10766666Y3173753D02*
X10814285Y3221372D01*
X10814285Y3221372D02*
X10861904Y3316610D01*
X-3060836Y6533334D02*
X-3417979Y6200001D01*
X-3060836Y5961906D02*
X-3810836Y5961906D01*
X-3810836Y5961906D02*
X-3810836Y6342858D01*
X-3810836Y6342858D02*
X-3775122Y6438096D01*
X-3775122Y6438096D02*
X-3739408Y6485715D01*
X-3739408Y6485715D02*
X-3667979Y6533334D01*
X-3667979Y6533334D02*
X-3560836Y6533334D01*
X-3560836Y6533334D02*
X-3489408Y6485715D01*
X-3489408Y6485715D02*
X-3453693Y6438096D01*
X-3453693Y6438096D02*
X-3417979Y6342858D01*
X-3417979Y6342858D02*
X-3417979Y5961906D01*
X-3810836Y7438096D02*
X-3810836Y6961906D01*
X-3810836Y6961906D02*
X-3453693Y6914287D01*
X-3453693Y6914287D02*
X-3489408Y6961906D01*
X-3489408Y6961906D02*
X-3525122Y7057144D01*
X-3525122Y7057144D02*
X-3525122Y7295239D01*
X-3525122Y7295239D02*
X-3489408Y7390477D01*
X-3489408Y7390477D02*
X-3453693Y7438096D01*
X-3453693Y7438096D02*
X-3382265Y7485715D01*
X-3382265Y7485715D02*
X-3203693Y7485715D01*
X-3203693Y7485715D02*
X-3132265Y7438096D01*
X-3132265Y7438096D02*
X-3096550Y7390477D01*
X-3096550Y7390477D02*
X-3060836Y7295239D01*
X-3060836Y7295239D02*
X-3060836Y7057144D01*
X-3060836Y7057144D02*
X-3096550Y6961906D01*
X-3096550Y6961906D02*
X-3132265Y6914287D01*
X3519047Y3368991D02*
X3661904Y3321372D01*
X3661904Y3321372D02*
X3709523Y3273753D01*
X3709523Y3273753D02*
X3757142Y3178515D01*
X3757142Y3178515D02*
X3757142Y3035658D01*
X3757142Y3035658D02*
X3709523Y2940420D01*
X3709523Y2940420D02*
X3661904Y2892800D01*
X3661904Y2892800D02*
X3566666Y2845181D01*
X3566666Y2845181D02*
X3185714Y2845181D01*
X3185714Y2845181D02*
X3185714Y3845181D01*
X3185714Y3845181D02*
X3519047Y3845181D01*
X3519047Y3845181D02*
X3614285Y3797562D01*
X3614285Y3797562D02*
X3661904Y3749943D01*
X3661904Y3749943D02*
X3709523Y3654705D01*
X3709523Y3654705D02*
X3709523Y3559467D01*
X3709523Y3559467D02*
X3661904Y3464229D01*
X3661904Y3464229D02*
X3614285Y3416610D01*
X3614285Y3416610D02*
X3519047Y3368991D01*
X3519047Y3368991D02*
X3185714Y3368991D01*
X4709523Y2845181D02*
X4138095Y2845181D01*
X4423809Y2845181D02*
X4423809Y3845181D01*
X4423809Y3845181D02*
X4328571Y3702324D01*
X4328571Y3702324D02*
X4233333Y3607086D01*
X4233333Y3607086D02*
X4138095Y3559467D01*
X5280952Y3416610D02*
X5185714Y3464229D01*
X5185714Y3464229D02*
X5138095Y3511848D01*
X5138095Y3511848D02*
X5090476Y3607086D01*
X5090476Y3607086D02*
X5090476Y3654705D01*
X5090476Y3654705D02*
X5138095Y3749943D01*
X5138095Y3749943D02*
X5185714Y3797562D01*
X5185714Y3797562D02*
X5280952Y3845181D01*
X5280952Y3845181D02*
X5471428Y3845181D01*
X5471428Y3845181D02*
X5566666Y3797562D01*
X5566666Y3797562D02*
X5614285Y3749943D01*
X5614285Y3749943D02*
X5661904Y3654705D01*
X5661904Y3654705D02*
X5661904Y3607086D01*
X5661904Y3607086D02*
X5614285Y3511848D01*
X5614285Y3511848D02*
X5566666Y3464229D01*
X5566666Y3464229D02*
X5471428Y3416610D01*
X5471428Y3416610D02*
X5280952Y3416610D01*
X5280952Y3416610D02*
X5185714Y3368991D01*
X5185714Y3368991D02*
X5138095Y3321372D01*
X5138095Y3321372D02*
X5090476Y3226134D01*
X5090476Y3226134D02*
X5090476Y3035658D01*
X5090476Y3035658D02*
X5138095Y2940420D01*
X5138095Y2940420D02*
X5185714Y2892800D01*
X5185714Y2892800D02*
X5280952Y2845181D01*
X5280952Y2845181D02*
X5471428Y2845181D01*
X5471428Y2845181D02*
X5566666Y2892800D01*
X5566666Y2892800D02*
X5614285Y2940420D01*
X5614285Y2940420D02*
X5661904Y3035658D01*
X5661904Y3035658D02*
X5661904Y3226134D01*
X5661904Y3226134D02*
X5614285Y3321372D01*
X5614285Y3321372D02*
X5566666Y3368991D01*
X5566666Y3368991D02*
X5471428Y3416610D01*
X13219047Y10768991D02*
X13361904Y10721372D01*
X13361904Y10721372D02*
X13409523Y10673753D01*
X13409523Y10673753D02*
X13457142Y10578515D01*
X13457142Y10578515D02*
X13457142Y10435658D01*
X13457142Y10435658D02*
X13409523Y10340420D01*
X13409523Y10340420D02*
X13361904Y10292800D01*
X13361904Y10292800D02*
X13266666Y10245181D01*
X13266666Y10245181D02*
X12885714Y10245181D01*
X12885714Y10245181D02*
X12885714Y11245181D01*
X12885714Y11245181D02*
X13219047Y11245181D01*
X13219047Y11245181D02*
X13314285Y11197562D01*
X13314285Y11197562D02*
X13361904Y11149943D01*
X13361904Y11149943D02*
X13409523Y11054705D01*
X13409523Y11054705D02*
X13409523Y10959467D01*
X13409523Y10959467D02*
X13361904Y10864229D01*
X13361904Y10864229D02*
X13314285Y10816610D01*
X13314285Y10816610D02*
X13219047Y10768991D01*
X13219047Y10768991D02*
X12885714Y10768991D01*
X13838095Y11149943D02*
X13885714Y11197562D01*
X13885714Y11197562D02*
X13980952Y11245181D01*
X13980952Y11245181D02*
X14219047Y11245181D01*
X14219047Y11245181D02*
X14314285Y11197562D01*
X14314285Y11197562D02*
X14361904Y11149943D01*
X14361904Y11149943D02*
X14409523Y11054705D01*
X14409523Y11054705D02*
X14409523Y10959467D01*
X14409523Y10959467D02*
X14361904Y10816610D01*
X14361904Y10816610D02*
X13790476Y10245181D01*
X13790476Y10245181D02*
X14409523Y10245181D01*
X14790476Y11149943D02*
X14838095Y11197562D01*
X14838095Y11197562D02*
X14933333Y11245181D01*
X14933333Y11245181D02*
X15171428Y11245181D01*
X15171428Y11245181D02*
X15266666Y11197562D01*
X15266666Y11197562D02*
X15314285Y11149943D01*
X15314285Y11149943D02*
X15361904Y11054705D01*
X15361904Y11054705D02*
X15361904Y10959467D01*
X15361904Y10959467D02*
X15314285Y10816610D01*
X15314285Y10816610D02*
X14742857Y10245181D01*
X14742857Y10245181D02*
X15361904Y10245181D01*
D11*
X-6400000Y-350000D02*
X-6400000Y-2350000D01*
X-6400000Y-350000D02*
X-9600000Y-350000D01*
X-6700000Y-2650000D02*
X-6400000Y-2350000D01*
X-6700000Y-2650000D02*
X-9600000Y-2650000D01*
X-9600000Y-2650000D02*
X-9600000Y-350000D01*
X9065000Y22561252D02*
X9065000Y22038748D01*
X10535000Y22561252D02*
X10535000Y22038748D01*
X2140000Y19602164D02*
X2140000Y19817836D01*
X2860000Y19602164D02*
X2860000Y19817836D01*
X1140000Y19602164D02*
X1140000Y19817836D01*
X1860000Y19602164D02*
X1860000Y19817836D01*
X-7192164Y12360000D02*
X-7407836Y12360000D01*
X-7192164Y11640000D02*
X-7407836Y11640000D01*
X-4260000Y22592164D02*
X-4260000Y22807836D01*
X-3540000Y22592164D02*
X-3540000Y22807836D01*
X-12653641Y23980000D02*
X-12346359Y23980000D01*
X-12653641Y23220000D02*
X-12346359Y23220000D01*
X8600000Y27660000D02*
X7800000Y27660000D01*
X8600000Y27660000D02*
X9400000Y27660000D01*
X8600000Y24540000D02*
X7800000Y24540000D01*
X8600000Y24540000D02*
X9400000Y24540000D01*
X7300000Y27610000D02*
X7060000Y27940000D01*
X7540000Y27940000D01*
X7300000Y27610000D01*
G36*
X7300000Y27610000D02*
G01*
X7060000Y27940000D01*
X7540000Y27940000D01*
X7300000Y27610000D01*
G37*
X-11000000Y19055000D02*
X-5000000Y19055000D01*
X-10990000Y24275000D02*
X-5000000Y24275000D01*
X-11230000Y23975000D02*
X-11710000Y23975000D01*
X-11230000Y24455000D01*
X-11230000Y23975000D01*
G36*
X-11230000Y23975000D02*
G01*
X-11710000Y23975000D01*
X-11230000Y24455000D01*
X-11230000Y23975000D01*
G37*
X-13843641Y25380000D02*
X-13536359Y25380000D01*
X-13843641Y24620000D02*
X-13536359Y24620000D01*
X-1860000Y19592164D02*
X-1860000Y19807836D01*
X-1140000Y19592164D02*
X-1140000Y19807836D01*
X4892164Y12360000D02*
X5107836Y12360000D01*
X4892164Y11640000D02*
X5107836Y11640000D01*
X-1479000Y6847836D02*
X-1479000Y6632164D01*
X-759000Y6847836D02*
X-759000Y6632164D01*
X-880000Y19863641D02*
X-880000Y19556359D01*
X-120000Y19863641D02*
X-120000Y19556359D01*
X-360000Y6847836D02*
X-360000Y6632164D01*
X360000Y6847836D02*
X360000Y6632164D01*
X6765000Y22561252D02*
X6765000Y22038748D01*
X8235000Y22561252D02*
X8235000Y22038748D01*
X-6592164Y17260000D02*
X-6807836Y17260000D01*
X-6592164Y16540000D02*
X-6807836Y16540000D01*
X3592164Y18360000D02*
X3807836Y18360000D01*
X3592164Y17640000D02*
X3807836Y17640000D01*
X-5110000Y9615000D02*
X-5110000Y10265000D01*
X-4460000Y16835000D02*
X-5110000Y16835000D01*
X-4460000Y9615000D02*
X-5110000Y9615000D01*
X1460000Y16835000D02*
X2110000Y16835000D01*
X1460000Y9615000D02*
X2110000Y9615000D01*
X2110000Y16835000D02*
X2110000Y16185000D01*
X2110000Y9615000D02*
X2110000Y10265000D01*
X120000Y19863641D02*
X120000Y19556359D01*
X880000Y19863641D02*
X880000Y19556359D01*
X-2860000Y19592164D02*
X-2860000Y19807836D01*
X-2140000Y19592164D02*
X-2140000Y19807836D01*
X3592164Y17260000D02*
X3807836Y17260000D01*
X3592164Y16540000D02*
X3807836Y16540000D01*
X-14335000Y27238748D02*
X-14335000Y27761252D01*
X-12865000Y27238748D02*
X-12865000Y27761252D01*
X-21110000Y8110000D02*
X-20060000Y8110000D01*
X-21110000Y6960000D02*
X-21110000Y8110000D01*
X-14060000Y4990000D02*
X-19940000Y4990000D01*
X-13940000Y8110000D02*
X-13940000Y9100000D01*
X-12890000Y8110000D02*
X-13940000Y8110000D01*
X-12890000Y6960000D02*
X-12890000Y8110000D01*
X-21110000Y15610000D02*
X-20060000Y15610000D01*
X-21110000Y14460000D02*
X-21110000Y15610000D01*
X-14060000Y12490000D02*
X-19940000Y12490000D01*
X-13940000Y15610000D02*
X-13940000Y16600000D01*
X-12890000Y15610000D02*
X-13940000Y15610000D01*
X-12890000Y14460000D02*
X-12890000Y15610000D01*
X-21110000Y610000D02*
X-20060000Y610000D01*
X-21110000Y-540000D02*
X-21110000Y610000D01*
X-14060000Y-2510000D02*
X-19940000Y-2510000D01*
X-13940000Y610000D02*
X-13940000Y1600000D01*
X-12890000Y610000D02*
X-13940000Y610000D01*
X-12890000Y-540000D02*
X-12890000Y610000D01*
X-3150000Y-400000D02*
X150000Y-400000D01*
X-3150000Y-700000D02*
X-3150000Y-400000D01*
X-3150000Y-2900000D02*
X-3150000Y-3200000D01*
X-3150000Y-3200000D02*
X150000Y-3200000D01*
X150000Y-400000D02*
X150000Y-700000D01*
X150000Y-3200000D02*
X150000Y-2900000D01*
X-4660000Y3312164D02*
X-4660000Y3527836D01*
X-3940000Y3312164D02*
X-3940000Y3527836D01*
X12890000Y14215000D02*
X12890000Y13065000D01*
X12890000Y13065000D02*
X13940000Y13065000D01*
X13940000Y13065000D02*
X13940000Y12075000D01*
X14060000Y16185000D02*
X19940000Y16185000D01*
X21110000Y14215000D02*
X21110000Y13065000D01*
X21110000Y13065000D02*
X20060000Y13065000D01*
X-11250000Y27900000D02*
X-11250000Y27600000D01*
X-11250000Y25100000D02*
X-11250000Y25400000D01*
X-7950000Y27900000D02*
X-11250000Y27900000D01*
X-7950000Y27600000D02*
X-7950000Y27900000D01*
X-7950000Y25400000D02*
X-7950000Y25100000D01*
X-7950000Y25100000D02*
X-11250000Y25100000D01*
X1040000Y3607836D02*
X1040000Y3392164D01*
X1760000Y3607836D02*
X1760000Y3392164D01*
X14190000Y1610000D02*
X14190000Y560000D01*
X14190000Y560000D02*
X13200000Y560000D01*
X14190000Y-2610000D02*
X14190000Y-1560000D01*
X15340000Y1610000D02*
X14190000Y1610000D01*
X15340000Y-2610000D02*
X14190000Y-2610000D01*
X17310000Y440000D02*
X17310000Y-1440000D01*
X-3500000Y5100000D02*
X-3500000Y1800000D01*
X-3500000Y1800000D02*
X500000Y1800000D01*
X7790000Y9110000D02*
X7790000Y8060000D01*
X7790000Y8060000D02*
X6800000Y8060000D01*
X7790000Y4890000D02*
X7790000Y5940000D01*
X8940000Y9110000D02*
X7790000Y9110000D01*
X8940000Y4890000D02*
X7790000Y4890000D01*
X10910000Y7940000D02*
X10910000Y6060000D01*
X12290000Y27710000D02*
X21510000Y27710000D01*
X12290000Y25060000D02*
X11960000Y25060000D01*
X12290000Y25060000D02*
X12290000Y27710000D01*
X12290000Y18490000D02*
X12290000Y21140000D01*
X21510000Y27710000D02*
X21510000Y25060000D01*
X21510000Y21140000D02*
X21510000Y18490000D01*
X21510000Y18490000D02*
X12290000Y18490000D01*
X-21210000Y21265000D02*
X-21210000Y20115000D01*
X-21210000Y20115000D02*
X-20160000Y20115000D01*
X-20160000Y20115000D02*
X-20160000Y19125000D01*
X-20040000Y23235000D02*
X-16160000Y23235000D01*
X-14990000Y21265000D02*
X-14990000Y20115000D01*
X-14990000Y20115000D02*
X-16040000Y20115000D01*
X-5150000Y27830000D02*
X-5150000Y25170000D01*
X2530000Y27830000D02*
X-5150000Y27830000D01*
X2530000Y27830000D02*
X2530000Y25170000D01*
X2530000Y25170000D02*
X-5150000Y25170000D01*
X3800000Y27830000D02*
X5130000Y27830000D01*
X5130000Y27830000D02*
X5130000Y26500000D01*
X18690000Y9110000D02*
X18690000Y8060000D01*
X18690000Y8060000D02*
X17700000Y8060000D01*
X18690000Y4890000D02*
X18690000Y5940000D01*
X19840000Y9110000D02*
X18690000Y9110000D01*
X19840000Y4890000D02*
X18690000Y4890000D01*
X21810000Y7940000D02*
X21810000Y6060000D01*
X8790000Y1610000D02*
X8790000Y560000D01*
X8790000Y560000D02*
X7800000Y560000D01*
X8790000Y-2610000D02*
X8790000Y-1560000D01*
X9940000Y1610000D02*
X8790000Y1610000D01*
X9940000Y-2610000D02*
X8790000Y-2610000D01*
X11910000Y440000D02*
X11910000Y-1440000D01*
X-2680000Y6853641D02*
X-2680000Y6546359D01*
X-1920000Y6853641D02*
X-1920000Y6546359D01*
X3390000Y1610000D02*
X3390000Y560000D01*
X3390000Y560000D02*
X2400000Y560000D01*
X3390000Y-2610000D02*
X3390000Y-1560000D01*
X4540000Y1610000D02*
X3390000Y1610000D01*
X4540000Y-2610000D02*
X3390000Y-2610000D01*
X6510000Y440000D02*
X6510000Y-1440000D01*
X13290000Y9110000D02*
X13290000Y8060000D01*
X13290000Y8060000D02*
X12300000Y8060000D01*
X13290000Y4890000D02*
X13290000Y5940000D01*
X14440000Y9110000D02*
X13290000Y9110000D01*
X14440000Y4890000D02*
X13290000Y4890000D01*
X16410000Y7940000D02*
X16410000Y6060000D01*
M02*
