G04 #@! TF.GenerationSoftware,KiCad,Pcbnew,8.0.7*
G04 #@! TF.CreationDate,2025-01-02T16:39:49-08:00*
G04 #@! TF.ProjectId,RP2040_minimal_r2,52503230-3430-45f6-9d69-6e696d616c5f,REV2*
G04 #@! TF.SameCoordinates,PX5f5e100PY5f5e100*
G04 #@! TF.FileFunction,Legend,Bot*
G04 #@! TF.FilePolarity,Positive*
%FSLAX46Y46*%
G04 Gerber Fmt 4.6, Leading zero omitted, Abs format (unit mm)*
G04 Created by KiCad (PCBNEW 8.0.7) date 2025-01-02 16:39:49*
%MOMM*%
%LPD*%
G01*
G04 APERTURE LIST*
%ADD10C,0.150000*%
G04 APERTURE END LIST*
D10*
X21452382Y22630181D02*
X21452382Y23630181D01*
X21023811Y22630181D02*
X21023811Y23153991D01*
X21023811Y23153991D02*
X21071430Y23249229D01*
X21071430Y23249229D02*
X21166668Y23296848D01*
X21166668Y23296848D02*
X21309525Y23296848D01*
X21309525Y23296848D02*
X21404763Y23249229D01*
X21404763Y23249229D02*
X21452382Y23201610D01*
X20690477Y23296848D02*
X20309525Y23296848D01*
X20547620Y23630181D02*
X20547620Y22773039D01*
X20547620Y22773039D02*
X20500001Y22677800D01*
X20500001Y22677800D02*
X20404763Y22630181D01*
X20404763Y22630181D02*
X20309525Y22630181D01*
X20119048Y23296848D02*
X19738096Y23296848D01*
X19976191Y23630181D02*
X19976191Y22773039D01*
X19976191Y22773039D02*
X19928572Y22677800D01*
X19928572Y22677800D02*
X19833334Y22630181D01*
X19833334Y22630181D02*
X19738096Y22630181D01*
X19404762Y23296848D02*
X19404762Y22296848D01*
X19404762Y23249229D02*
X19309524Y23296848D01*
X19309524Y23296848D02*
X19119048Y23296848D01*
X19119048Y23296848D02*
X19023810Y23249229D01*
X19023810Y23249229D02*
X18976191Y23201610D01*
X18976191Y23201610D02*
X18928572Y23106372D01*
X18928572Y23106372D02*
X18928572Y22820658D01*
X18928572Y22820658D02*
X18976191Y22725420D01*
X18976191Y22725420D02*
X19023810Y22677800D01*
X19023810Y22677800D02*
X19119048Y22630181D01*
X19119048Y22630181D02*
X19309524Y22630181D01*
X19309524Y22630181D02*
X19404762Y22677800D01*
X18547619Y22677800D02*
X18452381Y22630181D01*
X18452381Y22630181D02*
X18261905Y22630181D01*
X18261905Y22630181D02*
X18166667Y22677800D01*
X18166667Y22677800D02*
X18119048Y22773039D01*
X18119048Y22773039D02*
X18119048Y22820658D01*
X18119048Y22820658D02*
X18166667Y22915896D01*
X18166667Y22915896D02*
X18261905Y22963515D01*
X18261905Y22963515D02*
X18404762Y22963515D01*
X18404762Y22963515D02*
X18500000Y23011134D01*
X18500000Y23011134D02*
X18547619Y23106372D01*
X18547619Y23106372D02*
X18547619Y23153991D01*
X18547619Y23153991D02*
X18500000Y23249229D01*
X18500000Y23249229D02*
X18404762Y23296848D01*
X18404762Y23296848D02*
X18261905Y23296848D01*
X18261905Y23296848D02*
X18166667Y23249229D01*
X17690476Y22725420D02*
X17642857Y22677800D01*
X17642857Y22677800D02*
X17690476Y22630181D01*
X17690476Y22630181D02*
X17738095Y22677800D01*
X17738095Y22677800D02*
X17690476Y22725420D01*
X17690476Y22725420D02*
X17690476Y22630181D01*
X17690476Y23249229D02*
X17642857Y23201610D01*
X17642857Y23201610D02*
X17690476Y23153991D01*
X17690476Y23153991D02*
X17738095Y23201610D01*
X17738095Y23201610D02*
X17690476Y23249229D01*
X17690476Y23249229D02*
X17690476Y23153991D01*
X16500001Y23677800D02*
X17357143Y22392086D01*
X15452382Y23677800D02*
X16309524Y22392086D01*
X14690477Y23296848D02*
X14690477Y22487324D01*
X14690477Y22487324D02*
X14738096Y22392086D01*
X14738096Y22392086D02*
X14785715Y22344467D01*
X14785715Y22344467D02*
X14880953Y22296848D01*
X14880953Y22296848D02*
X15023810Y22296848D01*
X15023810Y22296848D02*
X15119048Y22344467D01*
X14690477Y22677800D02*
X14785715Y22630181D01*
X14785715Y22630181D02*
X14976191Y22630181D01*
X14976191Y22630181D02*
X15071429Y22677800D01*
X15071429Y22677800D02*
X15119048Y22725420D01*
X15119048Y22725420D02*
X15166667Y22820658D01*
X15166667Y22820658D02*
X15166667Y23106372D01*
X15166667Y23106372D02*
X15119048Y23201610D01*
X15119048Y23201610D02*
X15071429Y23249229D01*
X15071429Y23249229D02*
X14976191Y23296848D01*
X14976191Y23296848D02*
X14785715Y23296848D01*
X14785715Y23296848D02*
X14690477Y23249229D01*
X14214286Y22630181D02*
X14214286Y23296848D01*
X14214286Y23630181D02*
X14261905Y23582562D01*
X14261905Y23582562D02*
X14214286Y23534943D01*
X14214286Y23534943D02*
X14166667Y23582562D01*
X14166667Y23582562D02*
X14214286Y23630181D01*
X14214286Y23630181D02*
X14214286Y23534943D01*
X13880953Y23296848D02*
X13500001Y23296848D01*
X13738096Y23630181D02*
X13738096Y22773039D01*
X13738096Y22773039D02*
X13690477Y22677800D01*
X13690477Y22677800D02*
X13595239Y22630181D01*
X13595239Y22630181D02*
X13500001Y22630181D01*
X13166667Y22630181D02*
X13166667Y23630181D01*
X12738096Y22630181D02*
X12738096Y23153991D01*
X12738096Y23153991D02*
X12785715Y23249229D01*
X12785715Y23249229D02*
X12880953Y23296848D01*
X12880953Y23296848D02*
X13023810Y23296848D01*
X13023810Y23296848D02*
X13119048Y23249229D01*
X13119048Y23249229D02*
X13166667Y23201610D01*
X11833334Y23296848D02*
X11833334Y22630181D01*
X12261905Y23296848D02*
X12261905Y22773039D01*
X12261905Y22773039D02*
X12214286Y22677800D01*
X12214286Y22677800D02*
X12119048Y22630181D01*
X12119048Y22630181D02*
X11976191Y22630181D01*
X11976191Y22630181D02*
X11880953Y22677800D01*
X11880953Y22677800D02*
X11833334Y22725420D01*
X11357143Y22630181D02*
X11357143Y23630181D01*
X11357143Y23249229D02*
X11261905Y23296848D01*
X11261905Y23296848D02*
X11071429Y23296848D01*
X11071429Y23296848D02*
X10976191Y23249229D01*
X10976191Y23249229D02*
X10928572Y23201610D01*
X10928572Y23201610D02*
X10880953Y23106372D01*
X10880953Y23106372D02*
X10880953Y22820658D01*
X10880953Y22820658D02*
X10928572Y22725420D01*
X10928572Y22725420D02*
X10976191Y22677800D01*
X10976191Y22677800D02*
X11071429Y22630181D01*
X11071429Y22630181D02*
X11261905Y22630181D01*
X11261905Y22630181D02*
X11357143Y22677800D01*
X10452381Y22725420D02*
X10404762Y22677800D01*
X10404762Y22677800D02*
X10452381Y22630181D01*
X10452381Y22630181D02*
X10500000Y22677800D01*
X10500000Y22677800D02*
X10452381Y22725420D01*
X10452381Y22725420D02*
X10452381Y22630181D01*
X9547620Y22677800D02*
X9642858Y22630181D01*
X9642858Y22630181D02*
X9833334Y22630181D01*
X9833334Y22630181D02*
X9928572Y22677800D01*
X9928572Y22677800D02*
X9976191Y22725420D01*
X9976191Y22725420D02*
X10023810Y22820658D01*
X10023810Y22820658D02*
X10023810Y23106372D01*
X10023810Y23106372D02*
X9976191Y23201610D01*
X9976191Y23201610D02*
X9928572Y23249229D01*
X9928572Y23249229D02*
X9833334Y23296848D01*
X9833334Y23296848D02*
X9642858Y23296848D01*
X9642858Y23296848D02*
X9547620Y23249229D01*
X8976191Y22630181D02*
X9071429Y22677800D01*
X9071429Y22677800D02*
X9119048Y22725420D01*
X9119048Y22725420D02*
X9166667Y22820658D01*
X9166667Y22820658D02*
X9166667Y23106372D01*
X9166667Y23106372D02*
X9119048Y23201610D01*
X9119048Y23201610D02*
X9071429Y23249229D01*
X9071429Y23249229D02*
X8976191Y23296848D01*
X8976191Y23296848D02*
X8833334Y23296848D01*
X8833334Y23296848D02*
X8738096Y23249229D01*
X8738096Y23249229D02*
X8690477Y23201610D01*
X8690477Y23201610D02*
X8642858Y23106372D01*
X8642858Y23106372D02*
X8642858Y22820658D01*
X8642858Y22820658D02*
X8690477Y22725420D01*
X8690477Y22725420D02*
X8738096Y22677800D01*
X8738096Y22677800D02*
X8833334Y22630181D01*
X8833334Y22630181D02*
X8976191Y22630181D01*
X8214286Y22630181D02*
X8214286Y23296848D01*
X8214286Y23201610D02*
X8166667Y23249229D01*
X8166667Y23249229D02*
X8071429Y23296848D01*
X8071429Y23296848D02*
X7928572Y23296848D01*
X7928572Y23296848D02*
X7833334Y23249229D01*
X7833334Y23249229D02*
X7785715Y23153991D01*
X7785715Y23153991D02*
X7785715Y22630181D01*
X7785715Y23153991D02*
X7738096Y23249229D01*
X7738096Y23249229D02*
X7642858Y23296848D01*
X7642858Y23296848D02*
X7500001Y23296848D01*
X7500001Y23296848D02*
X7404762Y23249229D01*
X7404762Y23249229D02*
X7357143Y23153991D01*
X7357143Y23153991D02*
X7357143Y22630181D01*
X6166668Y23677800D02*
X7023810Y22392086D01*
X5833334Y22630181D02*
X5833334Y23296848D01*
X5833334Y23201610D02*
X5785715Y23249229D01*
X5785715Y23249229D02*
X5690477Y23296848D01*
X5690477Y23296848D02*
X5547620Y23296848D01*
X5547620Y23296848D02*
X5452382Y23249229D01*
X5452382Y23249229D02*
X5404763Y23153991D01*
X5404763Y23153991D02*
X5404763Y22630181D01*
X5404763Y23153991D02*
X5357144Y23249229D01*
X5357144Y23249229D02*
X5261906Y23296848D01*
X5261906Y23296848D02*
X5119049Y23296848D01*
X5119049Y23296848D02*
X5023810Y23249229D01*
X5023810Y23249229D02*
X4976191Y23153991D01*
X4976191Y23153991D02*
X4976191Y22630181D01*
X4357144Y22630181D02*
X4452382Y22677800D01*
X4452382Y22677800D02*
X4500001Y22725420D01*
X4500001Y22725420D02*
X4547620Y22820658D01*
X4547620Y22820658D02*
X4547620Y23106372D01*
X4547620Y23106372D02*
X4500001Y23201610D01*
X4500001Y23201610D02*
X4452382Y23249229D01*
X4452382Y23249229D02*
X4357144Y23296848D01*
X4357144Y23296848D02*
X4214287Y23296848D01*
X4214287Y23296848D02*
X4119049Y23249229D01*
X4119049Y23249229D02*
X4071430Y23201610D01*
X4071430Y23201610D02*
X4023811Y23106372D01*
X4023811Y23106372D02*
X4023811Y22820658D01*
X4023811Y22820658D02*
X4071430Y22725420D01*
X4071430Y22725420D02*
X4119049Y22677800D01*
X4119049Y22677800D02*
X4214287Y22630181D01*
X4214287Y22630181D02*
X4357144Y22630181D01*
X3595239Y23296848D02*
X3595239Y22630181D01*
X3595239Y23201610D02*
X3547620Y23249229D01*
X3547620Y23249229D02*
X3452382Y23296848D01*
X3452382Y23296848D02*
X3309525Y23296848D01*
X3309525Y23296848D02*
X3214287Y23249229D01*
X3214287Y23249229D02*
X3166668Y23153991D01*
X3166668Y23153991D02*
X3166668Y22630181D01*
X2690477Y22630181D02*
X2690477Y23296848D01*
X2690477Y23106372D02*
X2642858Y23201610D01*
X2642858Y23201610D02*
X2595239Y23249229D01*
X2595239Y23249229D02*
X2500001Y23296848D01*
X2500001Y23296848D02*
X2404763Y23296848D01*
X1928572Y22630181D02*
X2023810Y22677800D01*
X2023810Y22677800D02*
X2071429Y22725420D01*
X2071429Y22725420D02*
X2119048Y22820658D01*
X2119048Y22820658D02*
X2119048Y23106372D01*
X2119048Y23106372D02*
X2071429Y23201610D01*
X2071429Y23201610D02*
X2023810Y23249229D01*
X2023810Y23249229D02*
X1928572Y23296848D01*
X1928572Y23296848D02*
X1785715Y23296848D01*
X1785715Y23296848D02*
X1690477Y23249229D01*
X1690477Y23249229D02*
X1642858Y23201610D01*
X1642858Y23201610D02*
X1595239Y23106372D01*
X1595239Y23106372D02*
X1595239Y22820658D01*
X1595239Y22820658D02*
X1642858Y22725420D01*
X1642858Y22725420D02*
X1690477Y22677800D01*
X1690477Y22677800D02*
X1785715Y22630181D01*
X1785715Y22630181D02*
X1928572Y22630181D01*
X785715Y22677800D02*
X880953Y22630181D01*
X880953Y22630181D02*
X1071429Y22630181D01*
X1071429Y22630181D02*
X1166667Y22677800D01*
X1166667Y22677800D02*
X1214286Y22773039D01*
X1214286Y22773039D02*
X1214286Y23153991D01*
X1214286Y23153991D02*
X1166667Y23249229D01*
X1166667Y23249229D02*
X1071429Y23296848D01*
X1071429Y23296848D02*
X880953Y23296848D01*
X880953Y23296848D02*
X785715Y23249229D01*
X785715Y23249229D02*
X738096Y23153991D01*
X738096Y23153991D02*
X738096Y23058753D01*
X738096Y23058753D02*
X1214286Y22963515D01*
X404762Y23296848D02*
X214286Y22630181D01*
X214286Y22630181D02*
X23810Y23106372D01*
X23810Y23106372D02*
X-166666Y22630181D01*
X-166666Y22630181D02*
X-357142Y23296848D01*
X-738095Y22630181D02*
X-738095Y23296848D01*
X-738095Y23630181D02*
X-690476Y23582562D01*
X-690476Y23582562D02*
X-738095Y23534943D01*
X-738095Y23534943D02*
X-785714Y23582562D01*
X-785714Y23582562D02*
X-738095Y23630181D01*
X-738095Y23630181D02*
X-738095Y23534943D01*
X-1357142Y22630181D02*
X-1261904Y22677800D01*
X-1261904Y22677800D02*
X-1214285Y22773039D01*
X-1214285Y22773039D02*
X-1214285Y23630181D01*
X-1880952Y22630181D02*
X-1785714Y22677800D01*
X-1785714Y22677800D02*
X-1738095Y22773039D01*
X-1738095Y22773039D02*
X-1738095Y23630181D01*
X-2261905Y22630181D02*
X-2261905Y23296848D01*
X-2261905Y23630181D02*
X-2214286Y23582562D01*
X-2214286Y23582562D02*
X-2261905Y23534943D01*
X-2261905Y23534943D02*
X-2309524Y23582562D01*
X-2309524Y23582562D02*
X-2261905Y23630181D01*
X-2261905Y23630181D02*
X-2261905Y23534943D01*
X-3166666Y22630181D02*
X-3166666Y23153991D01*
X-3166666Y23153991D02*
X-3119047Y23249229D01*
X-3119047Y23249229D02*
X-3023809Y23296848D01*
X-3023809Y23296848D02*
X-2833333Y23296848D01*
X-2833333Y23296848D02*
X-2738095Y23249229D01*
X-3166666Y22677800D02*
X-3071428Y22630181D01*
X-3071428Y22630181D02*
X-2833333Y22630181D01*
X-2833333Y22630181D02*
X-2738095Y22677800D01*
X-2738095Y22677800D02*
X-2690476Y22773039D01*
X-2690476Y22773039D02*
X-2690476Y22868277D01*
X-2690476Y22868277D02*
X-2738095Y22963515D01*
X-2738095Y22963515D02*
X-2833333Y23011134D01*
X-2833333Y23011134D02*
X-3071428Y23011134D01*
X-3071428Y23011134D02*
X-3166666Y23058753D01*
X-3642857Y22630181D02*
X-3642857Y23296848D01*
X-3642857Y23201610D02*
X-3690476Y23249229D01*
X-3690476Y23249229D02*
X-3785714Y23296848D01*
X-3785714Y23296848D02*
X-3928571Y23296848D01*
X-3928571Y23296848D02*
X-4023809Y23249229D01*
X-4023809Y23249229D02*
X-4071428Y23153991D01*
X-4071428Y23153991D02*
X-4071428Y22630181D01*
X-4071428Y23153991D02*
X-4119047Y23249229D01*
X-4119047Y23249229D02*
X-4214285Y23296848D01*
X-4214285Y23296848D02*
X-4357142Y23296848D01*
X-4357142Y23296848D02*
X-4452381Y23249229D01*
X-4452381Y23249229D02*
X-4500000Y23153991D01*
X-4500000Y23153991D02*
X-4500000Y22630181D01*
X-4928571Y22677800D02*
X-5023809Y22630181D01*
X-5023809Y22630181D02*
X-5214285Y22630181D01*
X-5214285Y22630181D02*
X-5309523Y22677800D01*
X-5309523Y22677800D02*
X-5357142Y22773039D01*
X-5357142Y22773039D02*
X-5357142Y22820658D01*
X-5357142Y22820658D02*
X-5309523Y22915896D01*
X-5309523Y22915896D02*
X-5214285Y22963515D01*
X-5214285Y22963515D02*
X-5071428Y22963515D01*
X-5071428Y22963515D02*
X-4976190Y23011134D01*
X-4976190Y23011134D02*
X-4928571Y23106372D01*
X-4928571Y23106372D02*
X-4928571Y23153991D01*
X-4928571Y23153991D02*
X-4976190Y23249229D01*
X-4976190Y23249229D02*
X-5071428Y23296848D01*
X-5071428Y23296848D02*
X-5214285Y23296848D01*
X-5214285Y23296848D02*
X-5309523Y23249229D01*
X-6499999Y23677800D02*
X-5642857Y22392086D01*
X-6833333Y22630181D02*
X-6833333Y23296848D01*
X-6833333Y23106372D02*
X-6880952Y23201610D01*
X-6880952Y23201610D02*
X-6928571Y23249229D01*
X-6928571Y23249229D02*
X-7023809Y23296848D01*
X-7023809Y23296848D02*
X-7119047Y23296848D01*
X-7452381Y23296848D02*
X-7452381Y22296848D01*
X-7452381Y23249229D02*
X-7547619Y23296848D01*
X-7547619Y23296848D02*
X-7738095Y23296848D01*
X-7738095Y23296848D02*
X-7833333Y23249229D01*
X-7833333Y23249229D02*
X-7880952Y23201610D01*
X-7880952Y23201610D02*
X-7928571Y23106372D01*
X-7928571Y23106372D02*
X-7928571Y22820658D01*
X-7928571Y22820658D02*
X-7880952Y22725420D01*
X-7880952Y22725420D02*
X-7833333Y22677800D01*
X-7833333Y22677800D02*
X-7738095Y22630181D01*
X-7738095Y22630181D02*
X-7547619Y22630181D01*
X-7547619Y22630181D02*
X-7452381Y22677800D01*
X-8309524Y23534943D02*
X-8357143Y23582562D01*
X-8357143Y23582562D02*
X-8452381Y23630181D01*
X-8452381Y23630181D02*
X-8690476Y23630181D01*
X-8690476Y23630181D02*
X-8785714Y23582562D01*
X-8785714Y23582562D02*
X-8833333Y23534943D01*
X-8833333Y23534943D02*
X-8880952Y23439705D01*
X-8880952Y23439705D02*
X-8880952Y23344467D01*
X-8880952Y23344467D02*
X-8833333Y23201610D01*
X-8833333Y23201610D02*
X-8261905Y22630181D01*
X-8261905Y22630181D02*
X-8880952Y22630181D01*
X-9500000Y23630181D02*
X-9595238Y23630181D01*
X-9595238Y23630181D02*
X-9690476Y23582562D01*
X-9690476Y23582562D02*
X-9738095Y23534943D01*
X-9738095Y23534943D02*
X-9785714Y23439705D01*
X-9785714Y23439705D02*
X-9833333Y23249229D01*
X-9833333Y23249229D02*
X-9833333Y23011134D01*
X-9833333Y23011134D02*
X-9785714Y22820658D01*
X-9785714Y22820658D02*
X-9738095Y22725420D01*
X-9738095Y22725420D02*
X-9690476Y22677800D01*
X-9690476Y22677800D02*
X-9595238Y22630181D01*
X-9595238Y22630181D02*
X-9500000Y22630181D01*
X-9500000Y22630181D02*
X-9404762Y22677800D01*
X-9404762Y22677800D02*
X-9357143Y22725420D01*
X-9357143Y22725420D02*
X-9309524Y22820658D01*
X-9309524Y22820658D02*
X-9261905Y23011134D01*
X-9261905Y23011134D02*
X-9261905Y23249229D01*
X-9261905Y23249229D02*
X-9309524Y23439705D01*
X-9309524Y23439705D02*
X-9357143Y23534943D01*
X-9357143Y23534943D02*
X-9404762Y23582562D01*
X-9404762Y23582562D02*
X-9500000Y23630181D01*
X-10690476Y23296848D02*
X-10690476Y22630181D01*
X-10452381Y23677800D02*
X-10214286Y22963515D01*
X-10214286Y22963515D02*
X-10833333Y22963515D01*
X-11404762Y23630181D02*
X-11500000Y23630181D01*
X-11500000Y23630181D02*
X-11595238Y23582562D01*
X-11595238Y23582562D02*
X-11642857Y23534943D01*
X-11642857Y23534943D02*
X-11690476Y23439705D01*
X-11690476Y23439705D02*
X-11738095Y23249229D01*
X-11738095Y23249229D02*
X-11738095Y23011134D01*
X-11738095Y23011134D02*
X-11690476Y22820658D01*
X-11690476Y22820658D02*
X-11642857Y22725420D01*
X-11642857Y22725420D02*
X-11595238Y22677800D01*
X-11595238Y22677800D02*
X-11500000Y22630181D01*
X-11500000Y22630181D02*
X-11404762Y22630181D01*
X-11404762Y22630181D02*
X-11309524Y22677800D01*
X-11309524Y22677800D02*
X-11261905Y22725420D01*
X-11261905Y22725420D02*
X-11214286Y22820658D01*
X-11214286Y22820658D02*
X-11166667Y23011134D01*
X-11166667Y23011134D02*
X-11166667Y23249229D01*
X-11166667Y23249229D02*
X-11214286Y23439705D01*
X-11214286Y23439705D02*
X-11261905Y23534943D01*
X-11261905Y23534943D02*
X-11309524Y23582562D01*
X-11309524Y23582562D02*
X-11404762Y23630181D01*
X-11928571Y22534943D02*
X-12690476Y22534943D01*
X-12928572Y22630181D02*
X-12928572Y23296848D01*
X-12928572Y23201610D02*
X-12976191Y23249229D01*
X-12976191Y23249229D02*
X-13071429Y23296848D01*
X-13071429Y23296848D02*
X-13214286Y23296848D01*
X-13214286Y23296848D02*
X-13309524Y23249229D01*
X-13309524Y23249229D02*
X-13357143Y23153991D01*
X-13357143Y23153991D02*
X-13357143Y22630181D01*
X-13357143Y23153991D02*
X-13404762Y23249229D01*
X-13404762Y23249229D02*
X-13500000Y23296848D01*
X-13500000Y23296848D02*
X-13642857Y23296848D01*
X-13642857Y23296848D02*
X-13738096Y23249229D01*
X-13738096Y23249229D02*
X-13785715Y23153991D01*
X-13785715Y23153991D02*
X-13785715Y22630181D01*
X-14166667Y23296848D02*
X-14357143Y22630181D01*
X-14357143Y22630181D02*
X-14547619Y23106372D01*
X-14547619Y23106372D02*
X-14738095Y22630181D01*
X-14738095Y22630181D02*
X-14928571Y23296848D01*
X-15166667Y23296848D02*
X-15547619Y23296848D01*
X-15309524Y23630181D02*
X-15309524Y22773039D01*
X-15309524Y22773039D02*
X-15357143Y22677800D01*
X-15357143Y22677800D02*
X-15452381Y22630181D01*
X-15452381Y22630181D02*
X-15547619Y22630181D01*
X-15880953Y22630181D02*
X-15880953Y23296848D01*
X-15880953Y23106372D02*
X-15928572Y23201610D01*
X-15928572Y23201610D02*
X-15976191Y23249229D01*
X-15976191Y23249229D02*
X-16071429Y23296848D01*
X-16071429Y23296848D02*
X-16166667Y23296848D01*
X-16928572Y22630181D02*
X-16928572Y23153991D01*
X-16928572Y23153991D02*
X-16880953Y23249229D01*
X-16880953Y23249229D02*
X-16785715Y23296848D01*
X-16785715Y23296848D02*
X-16595239Y23296848D01*
X-16595239Y23296848D02*
X-16500001Y23249229D01*
X-16928572Y22677800D02*
X-16833334Y22630181D01*
X-16833334Y22630181D02*
X-16595239Y22630181D01*
X-16595239Y22630181D02*
X-16500001Y22677800D01*
X-16500001Y22677800D02*
X-16452382Y22773039D01*
X-16452382Y22773039D02*
X-16452382Y22868277D01*
X-16452382Y22868277D02*
X-16500001Y22963515D01*
X-16500001Y22963515D02*
X-16595239Y23011134D01*
X-16595239Y23011134D02*
X-16833334Y23011134D01*
X-16833334Y23011134D02*
X-16928572Y23058753D01*
X-17833334Y22677800D02*
X-17738096Y22630181D01*
X-17738096Y22630181D02*
X-17547620Y22630181D01*
X-17547620Y22630181D02*
X-17452382Y22677800D01*
X-17452382Y22677800D02*
X-17404763Y22725420D01*
X-17404763Y22725420D02*
X-17357144Y22820658D01*
X-17357144Y22820658D02*
X-17357144Y23106372D01*
X-17357144Y23106372D02*
X-17404763Y23201610D01*
X-17404763Y23201610D02*
X-17452382Y23249229D01*
X-17452382Y23249229D02*
X-17547620Y23296848D01*
X-17547620Y23296848D02*
X-17738096Y23296848D01*
X-17738096Y23296848D02*
X-17833334Y23249229D01*
X-18261906Y22630181D02*
X-18261906Y23630181D01*
X-18357144Y23011134D02*
X-18642858Y22630181D01*
X-18642858Y23296848D02*
X-18261906Y22915896D01*
X-19071430Y22630181D02*
X-19071430Y23630181D01*
X-19071430Y23249229D02*
X-19166668Y23296848D01*
X-19166668Y23296848D02*
X-19357144Y23296848D01*
X-19357144Y23296848D02*
X-19452382Y23249229D01*
X-19452382Y23249229D02*
X-19500001Y23201610D01*
X-19500001Y23201610D02*
X-19547620Y23106372D01*
X-19547620Y23106372D02*
X-19547620Y22820658D01*
X-19547620Y22820658D02*
X-19500001Y22725420D01*
X-19500001Y22725420D02*
X-19452382Y22677800D01*
X-19452382Y22677800D02*
X-19357144Y22630181D01*
X-19357144Y22630181D02*
X-19166668Y22630181D01*
X-19166668Y22630181D02*
X-19071430Y22677800D01*
X-20404763Y22630181D02*
X-20404763Y23153991D01*
X-20404763Y23153991D02*
X-20357144Y23249229D01*
X-20357144Y23249229D02*
X-20261906Y23296848D01*
X-20261906Y23296848D02*
X-20071430Y23296848D01*
X-20071430Y23296848D02*
X-19976192Y23249229D01*
X-20404763Y22677800D02*
X-20309525Y22630181D01*
X-20309525Y22630181D02*
X-20071430Y22630181D01*
X-20071430Y22630181D02*
X-19976192Y22677800D01*
X-19976192Y22677800D02*
X-19928573Y22773039D01*
X-19928573Y22773039D02*
X-19928573Y22868277D01*
X-19928573Y22868277D02*
X-19976192Y22963515D01*
X-19976192Y22963515D02*
X-20071430Y23011134D01*
X-20071430Y23011134D02*
X-20309525Y23011134D01*
X-20309525Y23011134D02*
X-20404763Y23058753D01*
X-21023811Y22630181D02*
X-20928573Y22677800D01*
X-20928573Y22677800D02*
X-20880954Y22773039D01*
X-20880954Y22773039D02*
X-20880954Y23630181D01*
X-21547621Y22630181D02*
X-21452383Y22677800D01*
X-21452383Y22677800D02*
X-21404764Y22773039D01*
X-21404764Y22773039D02*
X-21404764Y23630181D01*
M02*
