G04 #@! TF.GenerationSoftware,KiCad,Pcbnew,8.0.7*
G04 #@! TF.CreationDate,2025-01-15T17:40:25-08:00*
G04 #@! TF.ProjectId,RP2040_minimal_r2,52503230-3430-45f6-9d69-6e696d616c5f,REV2*
G04 #@! TF.SameCoordinates,PX5f5e100PY5f5e100*
G04 #@! TF.FileFunction,Copper,L1,Top*
G04 #@! TF.FilePolarity,Positive*
%FSLAX46Y46*%
G04 Gerber Fmt 4.6, Leading zero omitted, Abs format (unit mm)*
G04 Created by KiCad (PCBNEW 8.0.7) date 2025-01-15 17:40:25*
%MOMM*%
%LPD*%
G01*
G04 APERTURE LIST*
G04 Aperture macros list*
%AMRoundRect*
0 Rectangle with rounded corners*
0 $1 Rounding radius*
0 $2 $3 $4 $5 $6 $7 $8 $9 X,Y pos of 4 corners*
0 Add a 4 corners polygon primitive as box body*
4,1,4,$2,$3,$4,$5,$6,$7,$8,$9,$2,$3,0*
0 Add four circle primitives for the rounded corners*
1,1,$1+$1,$2,$3*
1,1,$1+$1,$4,$5*
1,1,$1+$1,$6,$7*
1,1,$1+$1,$8,$9*
0 Add four rect primitives between the rounded corners*
20,1,$1+$1,$2,$3,$4,$5,0*
20,1,$1+$1,$4,$5,$6,$7,0*
20,1,$1+$1,$6,$7,$8,$9,0*
20,1,$1+$1,$8,$9,$2,$3,0*%
G04 Aperture macros list end*
G04 #@! TA.AperFunction,SMDPad,CuDef*
%ADD10RoundRect,0.150000X-0.625000X0.150000X-0.625000X-0.150000X0.625000X-0.150000X0.625000X0.150000X0*%
G04 #@! TD*
G04 #@! TA.AperFunction,SMDPad,CuDef*
%ADD11RoundRect,0.250000X-0.650000X0.350000X-0.650000X-0.350000X0.650000X-0.350000X0.650000X0.350000X0*%
G04 #@! TD*
G04 #@! TA.AperFunction,SMDPad,CuDef*
%ADD12RoundRect,0.135000X0.135000X0.185000X-0.135000X0.185000X-0.135000X-0.185000X0.135000X-0.185000X0*%
G04 #@! TD*
G04 #@! TA.AperFunction,SMDPad,CuDef*
%ADD13RoundRect,0.125000X-0.250000X-0.125000X0.250000X-0.125000X0.250000X0.125000X-0.250000X0.125000X0*%
G04 #@! TD*
G04 #@! TA.AperFunction,HeatsinkPad*
%ADD14R,3.400000X4.300000*%
G04 #@! TD*
G04 #@! TA.AperFunction,SMDPad,CuDef*
%ADD15RoundRect,0.150000X-0.150000X0.512500X-0.150000X-0.512500X0.150000X-0.512500X0.150000X0.512500X0*%
G04 #@! TD*
G04 #@! TA.AperFunction,SMDPad,CuDef*
%ADD16RoundRect,0.150000X-0.150000X-0.625000X0.150000X-0.625000X0.150000X0.625000X-0.150000X0.625000X0*%
G04 #@! TD*
G04 #@! TA.AperFunction,SMDPad,CuDef*
%ADD17RoundRect,0.250000X-0.350000X-0.650000X0.350000X-0.650000X0.350000X0.650000X-0.350000X0.650000X0*%
G04 #@! TD*
G04 #@! TA.AperFunction,SMDPad,CuDef*
%ADD18RoundRect,0.250000X0.350000X0.650000X-0.350000X0.650000X-0.350000X-0.650000X0.350000X-0.650000X0*%
G04 #@! TD*
G04 #@! TA.AperFunction,SMDPad,CuDef*
%ADD19RoundRect,0.150000X0.150000X0.625000X-0.150000X0.625000X-0.150000X-0.625000X0.150000X-0.625000X0*%
G04 #@! TD*
G04 #@! TA.AperFunction,ComponentPad*
%ADD20RoundRect,0.250000X-0.600000X-0.725000X0.600000X-0.725000X0.600000X0.725000X-0.600000X0.725000X0*%
G04 #@! TD*
G04 #@! TA.AperFunction,ComponentPad*
%ADD21O,1.700000X1.950000*%
G04 #@! TD*
G04 #@! TA.AperFunction,SMDPad,CuDef*
%ADD22RoundRect,0.250000X0.250000X0.475000X-0.250000X0.475000X-0.250000X-0.475000X0.250000X-0.475000X0*%
G04 #@! TD*
G04 #@! TA.AperFunction,SMDPad,CuDef*
%ADD23RoundRect,0.140000X0.170000X-0.140000X0.170000X0.140000X-0.170000X0.140000X-0.170000X-0.140000X0*%
G04 #@! TD*
G04 #@! TA.AperFunction,SMDPad,CuDef*
%ADD24RoundRect,0.140000X0.140000X0.170000X-0.140000X0.170000X-0.140000X-0.170000X0.140000X-0.170000X0*%
G04 #@! TD*
G04 #@! TA.AperFunction,SMDPad,CuDef*
%ADD25RoundRect,0.140000X-0.170000X0.140000X-0.170000X-0.140000X0.170000X-0.140000X0.170000X0.140000X0*%
G04 #@! TD*
G04 #@! TA.AperFunction,SMDPad,CuDef*
%ADD26RoundRect,0.135000X-0.135000X-0.185000X0.135000X-0.185000X0.135000X0.185000X-0.135000X0.185000X0*%
G04 #@! TD*
G04 #@! TA.AperFunction,SMDPad,CuDef*
%ADD27RoundRect,0.140000X-0.140000X-0.170000X0.140000X-0.170000X0.140000X0.170000X-0.140000X0.170000X0*%
G04 #@! TD*
G04 #@! TA.AperFunction,SMDPad,CuDef*
%ADD28RoundRect,0.135000X-0.185000X0.135000X-0.185000X-0.135000X0.185000X-0.135000X0.185000X0.135000X0*%
G04 #@! TD*
G04 #@! TA.AperFunction,SMDPad,CuDef*
%ADD29RoundRect,0.250000X-0.250000X-0.475000X0.250000X-0.475000X0.250000X0.475000X-0.250000X0.475000X0*%
G04 #@! TD*
G04 #@! TA.AperFunction,SMDPad,CuDef*
%ADD30RoundRect,0.050000X-0.387500X-0.050000X0.387500X-0.050000X0.387500X0.050000X-0.387500X0.050000X0*%
G04 #@! TD*
G04 #@! TA.AperFunction,SMDPad,CuDef*
%ADD31RoundRect,0.050000X-0.050000X-0.387500X0.050000X-0.387500X0.050000X0.387500X-0.050000X0.387500X0*%
G04 #@! TD*
G04 #@! TA.AperFunction,ComponentPad*
%ADD32C,0.600000*%
G04 #@! TD*
G04 #@! TA.AperFunction,SMDPad,CuDef*
%ADD33RoundRect,0.144000X-1.456000X-1.456000X1.456000X-1.456000X1.456000X1.456000X-1.456000X1.456000X0*%
G04 #@! TD*
G04 #@! TA.AperFunction,SMDPad,CuDef*
%ADD34R,0.900000X1.700000*%
G04 #@! TD*
G04 #@! TA.AperFunction,SMDPad,CuDef*
%ADD35R,0.700000X0.700000*%
G04 #@! TD*
G04 #@! TA.AperFunction,SMDPad,CuDef*
%ADD36R,1.400000X1.200000*%
G04 #@! TD*
G04 #@! TA.AperFunction,SMDPad,CuDef*
%ADD37R,1.300000X3.400000*%
G04 #@! TD*
G04 #@! TA.AperFunction,ViaPad*
%ADD38C,0.600000*%
G04 #@! TD*
G04 #@! TA.AperFunction,Conductor*
%ADD39C,0.150000*%
G04 #@! TD*
G04 #@! TA.AperFunction,Conductor*
%ADD40C,0.200000*%
G04 #@! TD*
G04 #@! TA.AperFunction,Conductor*
%ADD41C,0.800000*%
G04 #@! TD*
G04 APERTURE END LIST*
D10*
X-10125000Y1200000D03*
X-10125000Y200000D03*
X-10125000Y-800000D03*
D11*
X-7600000Y-2100000D03*
X-7600000Y2500000D03*
D12*
X-4590000Y-800000D03*
X-5610000Y-800000D03*
X-4590000Y400000D03*
X-5610000Y400000D03*
D13*
X-10900000Y22405000D03*
X-10900000Y21135000D03*
X-10900000Y19865000D03*
X-10900000Y18595000D03*
X-5500000Y18595000D03*
X-5500000Y19865000D03*
X-5500000Y21135000D03*
X-5500000Y22405000D03*
D14*
X-8200000Y20500000D03*
D15*
X10500000Y23162500D03*
X8600000Y23162500D03*
X8600000Y25437500D03*
X9550000Y25437500D03*
X10500000Y25437500D03*
D10*
X18475000Y7500000D03*
X18475000Y6500000D03*
D11*
X21000000Y5200000D03*
X21000000Y8800000D03*
D10*
X13075000Y7500000D03*
X13075000Y6500000D03*
D11*
X15600000Y5200000D03*
X15600000Y8800000D03*
D10*
X7575000Y7500000D03*
X7575000Y6500000D03*
D11*
X10100000Y5200000D03*
X10100000Y8800000D03*
D10*
X13975000Y0D03*
X13975000Y-1000000D03*
D11*
X16500000Y-2300000D03*
X16500000Y1300000D03*
D10*
X8575000Y0D03*
X8575000Y-1000000D03*
D11*
X11100000Y-2300000D03*
X11100000Y1300000D03*
D10*
X3175000Y0D03*
X3175000Y-1000000D03*
D11*
X5700000Y-2300000D03*
X5700000Y1300000D03*
D16*
X14500000Y12850000D03*
X15500000Y12850000D03*
X16500000Y12850000D03*
X17500000Y12850000D03*
X18500000Y12850000D03*
X19500000Y12850000D03*
D17*
X20800000Y15375000D03*
X13200000Y15375000D03*
D18*
X-13200000Y-1700000D03*
X-20800000Y-1700000D03*
D19*
X-19500000Y825000D03*
X-18500000Y825000D03*
X-17500000Y825000D03*
X-16500000Y825000D03*
X-15500000Y825000D03*
X-14500000Y825000D03*
X-14500000Y8025000D03*
X-15500000Y8025000D03*
X-16500000Y8025000D03*
X-17500000Y8025000D03*
X-18500000Y8025000D03*
X-19500000Y8025000D03*
D18*
X-20800000Y5500000D03*
X-13200000Y5500000D03*
D19*
X-14500000Y15225000D03*
X-15500000Y15225000D03*
X-16500000Y15225000D03*
X-17500000Y15225000D03*
X-18500000Y15225000D03*
X-19500000Y15225000D03*
D18*
X-20800000Y12700000D03*
X-13200000Y12700000D03*
D20*
X-3750000Y27300000D03*
D21*
X-1250000Y27300000D03*
X1250000Y27300000D03*
X3750000Y27300000D03*
D22*
X10500000Y20400000D03*
X8600000Y20400000D03*
D23*
X2500000Y19230000D03*
X2500000Y20190000D03*
X1500000Y19230000D03*
X1500000Y20190000D03*
D24*
X-6320000Y12000000D03*
X-7280000Y12000000D03*
D25*
X-4200000Y22380000D03*
X-4200000Y21420000D03*
D26*
X-13310000Y22300000D03*
X-12290000Y22300000D03*
D12*
X-12300000Y23600000D03*
X-13320000Y23600000D03*
D23*
X-1500000Y19220000D03*
X-1500000Y20180000D03*
D27*
X3420000Y12000000D03*
X4380000Y12000000D03*
D25*
X-1119000Y7220000D03*
X-1119000Y6260000D03*
D28*
X-500000Y20220000D03*
X-500000Y19200000D03*
D25*
X0Y7220000D03*
X0Y6260000D03*
D29*
X8600000Y28200000D03*
X10500000Y28200000D03*
D24*
X-6220000Y16000000D03*
X-7180000Y16000000D03*
D27*
X3420000Y17200000D03*
X4380000Y17200000D03*
D30*
X-4937500Y15825000D03*
X-4937500Y15425000D03*
X-4937500Y15025000D03*
X-4937500Y14625000D03*
X-4937500Y14225000D03*
X-4937500Y13825000D03*
X-4937500Y13425000D03*
X-4937500Y13025000D03*
X-4937500Y12625000D03*
X-4937500Y12225000D03*
X-4937500Y11825000D03*
X-4937500Y11425000D03*
X-4937500Y11025000D03*
X-4937500Y10625000D03*
D31*
X-4100000Y9787500D03*
X-3700000Y9787500D03*
X-3300000Y9787500D03*
X-2900000Y9787500D03*
X-2500000Y9787500D03*
X-2100000Y9787500D03*
X-1700000Y9787500D03*
X-1300000Y9787500D03*
X-900000Y9787500D03*
X-500000Y9787500D03*
X-100000Y9787500D03*
X300000Y9787500D03*
X700000Y9787500D03*
X1100000Y9787500D03*
D30*
X1937500Y10625000D03*
X1937500Y11025000D03*
X1937500Y11425000D03*
X1937500Y11825000D03*
X1937500Y12225000D03*
X1937500Y12625000D03*
X1937500Y13025000D03*
X1937500Y13425000D03*
X1937500Y13825000D03*
X1937500Y14225000D03*
X1937500Y14625000D03*
X1937500Y15025000D03*
X1937500Y15425000D03*
X1937500Y15825000D03*
D31*
X1100000Y16662500D03*
X700000Y16662500D03*
X300000Y16662500D03*
X-100000Y16662500D03*
X-500000Y16662500D03*
X-900000Y16662500D03*
X-1300000Y16662500D03*
X-1700000Y16662500D03*
X-2100000Y16662500D03*
X-2500000Y16662500D03*
X-2900000Y16662500D03*
X-3300000Y16662500D03*
X-3700000Y16662500D03*
X-4100000Y16662500D03*
D32*
X-2775000Y14500000D03*
X-2775000Y13225000D03*
X-2775000Y11950000D03*
X-1500000Y14500000D03*
X-1500000Y13225000D03*
D33*
X-1500000Y13225000D03*
D32*
X-1500000Y11950000D03*
X-225000Y14500000D03*
X-225000Y13225000D03*
X-225000Y11950000D03*
D28*
X500000Y20220000D03*
X500000Y19200000D03*
D23*
X-2500000Y19220000D03*
X-2500000Y20180000D03*
D27*
X3420000Y16100000D03*
X4380000Y16100000D03*
D22*
X-13350000Y28100000D03*
X-15250000Y28100000D03*
D34*
X-2800000Y-1800000D03*
X600000Y-1800000D03*
D23*
X-4300000Y2940000D03*
X-4300000Y3900000D03*
D34*
X-7900000Y26500000D03*
X-11300000Y26500000D03*
D25*
X1300000Y3980000D03*
X1300000Y3020000D03*
D35*
X-9715000Y9650000D03*
X-9715000Y8550000D03*
X-7885000Y8550000D03*
X-7885000Y9650000D03*
D36*
X-2600000Y2600000D03*
X-400000Y2600000D03*
X-400000Y4300000D03*
X-2600000Y4300000D03*
D37*
X12550000Y23100000D03*
X21250000Y23100000D03*
D16*
X-19500000Y19700000D03*
X-18500000Y19700000D03*
X-17500000Y19700000D03*
X-16500000Y19700000D03*
D17*
X-20800000Y22225000D03*
X-15200000Y22225000D03*
D28*
X-2300000Y7210000D03*
X-2300000Y6190000D03*
D38*
X-8600000Y200000D03*
X-6700000Y9000000D03*
X-4937500Y9837500D03*
X-8850000Y8550000D03*
X-19500000Y21100000D03*
X15500000Y-1000000D03*
X19600000Y23100000D03*
X-1600000Y-1800000D03*
X20000000Y6500000D03*
X5300000Y16700000D03*
X2000000Y21200000D03*
X9550000Y24250000D03*
X-18500000Y6600000D03*
X4500000Y-1000000D03*
X-4300000Y6000000D03*
X-18500000Y13900000D03*
X18500000Y14400000D03*
X-18500000Y-500000D03*
X-16600000Y28100000D03*
X9000000Y6500000D03*
X-8200000Y12000000D03*
X-8100000Y16000000D03*
X7400000Y20400000D03*
X-4400000Y1800000D03*
X14500000Y6500000D03*
X-2000000Y21200000D03*
X11700000Y28200000D03*
X10000000Y-1000000D03*
X-9000000Y26500000D03*
X-2800000Y8600000D03*
X5300000Y12000000D03*
X-10300000Y19195000D03*
X1700000Y6000000D03*
X1600000Y1900000D03*
X-1700000Y18025006D03*
X-800000Y15325000D03*
X-700000Y8025000D03*
X-900030Y11125000D03*
X11050000Y17500000D03*
X11050000Y13750000D03*
D39*
X-5610000Y-800000D02*
X-10125000Y-800000D01*
X-100000Y9275736D02*
X1975736Y7200000D01*
X1975736Y7200000D02*
X2090991Y7200000D01*
X-100000Y9787500D02*
X-100000Y9275736D01*
X2090991Y7200000D02*
X2825000Y6465991D01*
X2825000Y6465991D02*
X2825000Y1534009D01*
X2825000Y1534009D02*
X1490991Y200000D01*
X1490991Y200000D02*
X-3600000Y200000D01*
X-4590000Y-790000D02*
X-4590000Y-800000D01*
X-3600000Y200000D02*
X-4590000Y-790000D01*
X-8987500Y4900000D02*
X-4100000Y9787500D01*
X-14697056Y2300000D02*
X-11897056Y5100000D01*
X-14572792Y2000000D02*
X-11772792Y4800000D01*
X-16099999Y2000000D02*
X-14572792Y2000000D01*
X-17500000Y1599999D02*
X-16799999Y2300000D01*
X-5600000Y9300000D02*
X-5600000Y10790294D01*
X-16500000Y1599999D02*
X-16099999Y2000000D01*
X-16500000Y825000D02*
X-16500000Y1599999D01*
X-9572792Y4900000D02*
X-8987500Y4900000D01*
X-17500000Y825000D02*
X-17500000Y1599999D01*
X-11772792Y4800000D02*
X-9672792Y4800000D01*
X-5365294Y11025000D02*
X-4937500Y11025000D01*
X-5600000Y10790294D02*
X-5365294Y11025000D01*
X-9672792Y4800000D02*
X-9572792Y4900000D01*
X-11897056Y5100000D02*
X-9800000Y5100000D01*
X-9800000Y5100000D02*
X-5600000Y9300000D01*
X-16799999Y2300000D02*
X-14697056Y2300000D01*
X-8450000Y4600000D02*
X-3700000Y9350000D01*
X-14500000Y825000D02*
X-14500000Y1648528D01*
X-14500000Y1648528D02*
X-11648528Y4500000D01*
X-11648528Y4500000D02*
X-9548528Y4500000D01*
X-3700000Y9350000D02*
X-3700000Y9787500D01*
X-2900000Y9350000D02*
X-2900000Y9787500D01*
X-15249999Y-200000D02*
X-13924264Y-200000D01*
X-13924264Y-200000D02*
X-13924264Y1800000D01*
X-15500000Y50001D02*
X-15249999Y-200000D01*
X-8050000Y4200000D02*
X-2900000Y9350000D01*
X-13924264Y1800000D02*
X-11524264Y4200000D01*
X-9448528Y4600000D02*
X-8450000Y4600000D01*
X-11524264Y4200000D02*
X-8050000Y4200000D01*
X-15500000Y825000D02*
X-15500000Y50001D01*
X-9548528Y4500000D02*
X-9448528Y4600000D01*
X1924264Y8300000D02*
X3475000Y6749264D01*
X700000Y9787500D02*
X700000Y9359706D01*
X3125000Y6590255D02*
X1715255Y8000000D01*
X3475000Y6749264D02*
X3475000Y300000D01*
X3125000Y1259486D02*
X3125000Y6590255D01*
X1759706Y8300000D02*
X1924264Y8300000D01*
X1366727Y500000D02*
X2525000Y1658273D01*
X3475000Y300000D02*
X3175000Y0D01*
X2525000Y1658273D02*
X2525000Y6341727D01*
X1884706Y6825000D02*
X-500000Y9209706D01*
X2525000Y6341727D02*
X2041727Y6825000D01*
X2041727Y6825000D02*
X1884706Y6825000D01*
X700000Y9359706D02*
X1759706Y8300000D01*
X-4590000Y400000D02*
X-4490000Y500000D01*
X-500000Y9209706D02*
X-500000Y9787500D01*
X1715255Y8000000D02*
X1635442Y8000000D01*
X-4490000Y500000D02*
X1366727Y500000D01*
X600000Y-1800000D02*
X600000Y-1265514D01*
X600000Y-1265514D02*
X3125000Y1259486D01*
X1635442Y8000000D02*
X300000Y9335442D01*
X300000Y9335442D02*
X300000Y9787500D01*
X-10125000Y1200000D02*
X-6410000Y1200000D01*
X-6410000Y1200000D02*
X-5610000Y400000D01*
X-10125000Y-800000D02*
X-10899999Y-800000D01*
X-10125000Y200000D02*
X-8600000Y200000D01*
X-6700000Y9000000D02*
X-7435000Y9000000D01*
X-7435000Y9000000D02*
X-7885000Y8550000D01*
X-7835000Y8500000D02*
X-7885000Y8550000D01*
X-4937500Y10625000D02*
X-4937500Y9837500D01*
X-9715000Y8550000D02*
X-8850000Y8550000D01*
X2500000Y20190000D02*
X2500000Y20700000D01*
X-10900000Y18595000D02*
X-10300000Y19195000D01*
X-7900000Y26500000D02*
X-9000000Y26500000D01*
X-4200000Y21420000D02*
X-2220000Y21420000D01*
X-2500000Y8900000D02*
X-2800000Y8600000D01*
X-18500000Y8025000D02*
X-18500000Y6700000D01*
X-15250000Y28100000D02*
X-16600000Y28100000D01*
X9550000Y25437500D02*
X9550000Y24250000D01*
X4800000Y17200000D02*
X5300000Y16700000D01*
X-10300000Y19195000D02*
X-9505000Y19195000D01*
X-1500000Y20700000D02*
X-2000000Y21200000D01*
D40*
X18500000Y12850000D02*
X18500000Y14400000D01*
D39*
X10500000Y28200000D02*
X11700000Y28200000D01*
X-1500000Y20180000D02*
X-1500000Y20700000D01*
X-2220000Y21420000D02*
X-2000000Y21200000D01*
X-9505000Y19195000D02*
X-8200000Y20500000D01*
X-7280000Y12000000D02*
X-8200000Y12000000D01*
X-18500000Y825000D02*
X-18500000Y-500000D01*
X-2500000Y20700000D02*
X-2000000Y21200000D01*
X7575000Y6500000D02*
X9000000Y6500000D01*
X8600000Y20400000D02*
X7400000Y20400000D01*
X4380000Y12000000D02*
X5300000Y12000000D01*
D40*
X21250000Y23100000D02*
X19600000Y23100000D01*
D39*
X1500000Y20190000D02*
X1500000Y20700000D01*
X4380000Y17200000D02*
X4800000Y17200000D01*
X2500000Y20700000D02*
X2000000Y21200000D01*
X13075000Y6500000D02*
X14500000Y6500000D01*
X-2500000Y9787500D02*
X-2500000Y9000000D01*
X1500000Y20700000D02*
X2000000Y21200000D01*
X4700000Y16100000D02*
X5300000Y16700000D01*
D40*
X-2600000Y4300000D02*
X-3500000Y4300000D01*
D39*
X3175000Y-1000000D02*
X4500000Y-1000000D01*
X-2500000Y20180000D02*
X-2500000Y20700000D01*
X-18500000Y15225000D02*
X-18500000Y13900000D01*
X-7180000Y16000000D02*
X-8100000Y16000000D01*
X-2500000Y9000000D02*
X-2500000Y8900000D01*
X-18500000Y6700000D02*
X-18500000Y6600000D01*
X-10900000Y18595000D02*
X-10795000Y18595000D01*
X4380000Y16100000D02*
X4700000Y16100000D01*
X18475000Y6500000D02*
X20000000Y6500000D01*
X8575000Y-1000000D02*
X10000000Y-1000000D01*
X13975000Y-1000000D02*
X15500000Y-1000000D01*
X-19500000Y19700000D02*
X-19500000Y21100000D01*
X-2800000Y-1800000D02*
X-1600000Y-1800000D01*
X-2100000Y9787500D02*
X-2100000Y8557537D01*
X-5400000Y6424264D02*
X-5400000Y3275736D01*
X-3457537Y7200000D02*
X-4624264Y7200000D01*
X-4624264Y7200000D02*
X-5400000Y6424264D01*
X-4300000Y2940000D02*
X-2940000Y2940000D01*
X-5064264Y2940000D02*
X-4300000Y2940000D01*
D40*
X-4300000Y2940000D02*
X-4300000Y3000000D01*
D39*
X-2100000Y8557537D02*
X-3457537Y7200000D01*
X-2940000Y2940000D02*
X-2600000Y2600000D01*
X-2600000Y2600000D02*
X-2320000Y2320000D01*
X-5400000Y3275736D02*
X-5064264Y2940000D01*
D40*
X-2300000Y7210000D02*
X-1700000Y7810000D01*
X-1700000Y7810000D02*
X-1700000Y9787500D01*
D39*
X3145000Y15825000D02*
X3420000Y16100000D01*
X-4937500Y15825000D02*
X-6045000Y15825000D01*
D40*
X-1300000Y17525000D02*
X-1300000Y16662500D01*
X-1300000Y16662500D02*
X-1300000Y16200000D01*
D39*
X-6045000Y15825000D02*
X-6220000Y16000000D01*
X-4937500Y12225000D02*
X-6095000Y12225000D01*
D40*
X-1300000Y16200000D02*
X-1900000Y15600000D01*
X700000Y16662500D02*
X700000Y17125000D01*
X700000Y17125000D02*
X2500000Y18925000D01*
X-900000Y17425002D02*
X-1149999Y17675001D01*
D39*
X3195000Y12225000D02*
X1937500Y12225000D01*
X-1300000Y9787500D02*
X-1300000Y10225000D01*
X-1300000Y10225000D02*
X-1300000Y10300000D01*
D40*
X-6220000Y16000000D02*
X-6012500Y16000000D01*
D39*
X-4937500Y12225000D02*
X-3725000Y12225000D01*
D40*
X1937500Y12225000D02*
X725000Y12225000D01*
D39*
X-6095000Y12225000D02*
X-6320000Y12000000D01*
D40*
X-1500000Y19220000D02*
X-1149999Y18869999D01*
D39*
X-1300000Y7401000D02*
X-1119000Y7220000D01*
X3420000Y17200000D02*
X1637500Y17200000D01*
D40*
X-900000Y16662500D02*
X-900000Y17425002D01*
D39*
X1637500Y17200000D02*
X1100000Y16662500D01*
D40*
X-1149999Y17675001D02*
X-1300000Y17525000D01*
D39*
X1937500Y15825000D02*
X3145000Y15825000D01*
X3420000Y12000000D02*
X3195000Y12225000D01*
X-1300000Y10300000D02*
X-2100000Y11100000D01*
X-1300000Y9787500D02*
X-1300000Y7401000D01*
D40*
X-900000Y16662500D02*
X-1300000Y16662500D01*
X-1149999Y18869999D02*
X-1149999Y17675001D01*
X2500000Y18925000D02*
X2500000Y19230000D01*
X-1700000Y16662500D02*
X-1700000Y18025006D01*
X300000Y17425000D02*
X1500000Y18625000D01*
X-2500000Y19220000D02*
X-2500000Y18825006D01*
X300000Y16199350D02*
X-574350Y15325000D01*
X-2500000Y18825006D02*
X-1700000Y18025006D01*
X0Y7325000D02*
X-700000Y8025000D01*
X-900000Y8225000D02*
X-700000Y8025000D01*
X0Y7225000D02*
X0Y7325000D01*
X300000Y16662500D02*
X300000Y17425000D01*
X300000Y16662500D02*
X300000Y16199350D01*
X1500000Y18625000D02*
X1500000Y19225000D01*
X-574350Y15325000D02*
X-800000Y15325000D01*
X-900000Y9787500D02*
X-900000Y8225000D01*
D39*
X-4100000Y9787500D02*
X-4100000Y9447794D01*
X-4937500Y11025000D02*
X-4509706Y11025000D01*
X-4100000Y16825000D02*
X-4100000Y16625000D01*
X-12290000Y23590000D02*
X-12300000Y23600000D01*
X-12100000Y17800000D02*
X-10962500Y16662500D01*
X-10962500Y16662500D02*
X-4100000Y16662500D01*
X-10900000Y22405000D02*
X-12185000Y22405000D01*
X-12100000Y21205000D02*
X-12100000Y17800000D01*
X-4100000Y16625000D02*
X-4100000Y16597500D01*
X-10900000Y22405000D02*
X-12100000Y21205000D01*
X-12185000Y22405000D02*
X-12290000Y22300000D01*
X-12290000Y22300000D02*
X-12290000Y23590000D01*
D40*
X-500000Y16662500D02*
X-500000Y19225000D01*
X-100000Y17925000D02*
X500000Y18525000D01*
X-100000Y16662500D02*
X-100000Y17925000D01*
X500000Y18525000D02*
X500000Y19225000D01*
D39*
X-5500000Y21135000D02*
X-5500000Y20738440D01*
X-5500000Y20738440D02*
X-2100000Y17338440D01*
X-2100000Y17338440D02*
X-2100000Y16662500D01*
X-2500000Y16652500D02*
X-2548690Y16701190D01*
X-5500000Y19865000D02*
X-5125001Y19865000D01*
X-2500000Y17239999D02*
X-2500000Y16662500D01*
X-5125001Y19865000D02*
X-2500000Y17239999D01*
X-2900000Y17138822D02*
X-2900000Y16662500D01*
X-4356178Y18595000D02*
X-2900000Y17138822D01*
X-5500000Y18595000D02*
X-4356178Y18595000D01*
X-10925000Y17625000D02*
X-3810442Y17625000D01*
X-11500000Y18200000D02*
X-10925000Y17625000D01*
X-3300000Y17114558D02*
X-3300000Y16662500D01*
X-10900000Y19865000D02*
X-11500000Y19265000D01*
X-11500000Y19265000D02*
X-11500000Y18200000D01*
X-3810442Y17625000D02*
X-3300000Y17114558D01*
X-3934706Y17325000D02*
X-3700000Y17090294D01*
X-3700000Y17090294D02*
X-3700000Y16662500D01*
X-10900000Y21135000D02*
X-11800000Y20235000D01*
X-11800000Y18000000D02*
X-11125000Y17325000D01*
X-11800000Y20235000D02*
X-11800000Y18000000D01*
X-11125000Y17325000D02*
X-3934706Y17325000D01*
D41*
X-1250000Y27325000D02*
X-500000Y26575000D01*
X-500000Y26575000D02*
X-500000Y20220000D01*
X500000Y26575000D02*
X500000Y20220000D01*
X1250000Y27325000D02*
X500000Y26575000D01*
D40*
X-2290000Y6190000D02*
X-400000Y4300000D01*
X-2300000Y6190000D02*
X-2290000Y6190000D01*
D39*
X1300000Y3980000D02*
X-80000Y3980000D01*
D40*
X-810000Y4300000D02*
X-400000Y4300000D01*
D39*
X-650000Y4300000D02*
X-400000Y4300000D01*
X-80000Y3980000D02*
X-400000Y4300000D01*
X-13320000Y23600000D02*
X-13320000Y24480000D01*
X-13320000Y24480000D02*
X-11300000Y26500000D01*
X-14190514Y16225000D02*
X-10590514Y12625000D01*
X-15500000Y15225000D02*
X-15500000Y15999999D01*
X-15500000Y15999999D02*
X-15274999Y16225000D01*
X-15500000Y15225000D02*
X-15500000Y8025000D01*
X-10590514Y12625000D02*
X-4937500Y12625000D01*
X-15274999Y16225000D02*
X-14190514Y16225000D01*
X-16674999Y16825000D02*
X-13941986Y16825000D01*
X-13941986Y16825000D02*
X-11741986Y14625000D01*
X-17500000Y15999999D02*
X-16674999Y16825000D01*
X-17500000Y15225000D02*
X-17500000Y15999999D01*
X-11741986Y14625000D02*
X-4937500Y14625000D01*
X-17500000Y15225000D02*
X-17500000Y8025000D01*
X-14066250Y16525000D02*
X-11366250Y13825000D01*
X-16500000Y15225000D02*
X-16500000Y15999999D01*
X-11366250Y13825000D02*
X-4937500Y13825000D01*
X-16500000Y15225000D02*
X-16500000Y8025000D01*
X-16500000Y15999999D02*
X-15974999Y16525000D01*
X-15974999Y16525000D02*
X-14066250Y16525000D01*
D40*
X1937500Y13425000D02*
X10725000Y13425000D01*
X12550000Y19000000D02*
X12550000Y23100000D01*
X10725000Y13425000D02*
X11050000Y13750000D01*
X11050000Y17500000D02*
X12550000Y19000000D01*
X11050000Y13750000D02*
X11100000Y13800000D01*
D39*
X-17500000Y20474999D02*
X-17199263Y20775736D01*
X-15700000Y20275736D02*
X-15700000Y19675736D01*
X-15700000Y19675736D02*
X-11449264Y15425000D01*
X-11449264Y15425000D02*
X-4937500Y15425000D01*
X-16200000Y20775736D02*
X-15700000Y20275736D01*
X-17500000Y19700000D02*
X-17500000Y20474999D01*
X-17199263Y20775736D02*
X-16200000Y20775736D01*
X-16200001Y19700000D02*
X-11525001Y15025000D01*
X-11525001Y15025000D02*
X-4937500Y15025000D01*
X-16500000Y19700000D02*
X-16200001Y19700000D01*
X11953678Y2125000D02*
X13975000Y103678D01*
X1937500Y10625000D02*
X10437500Y2125000D01*
X13975000Y0D02*
X13975000Y299999D01*
D40*
X13975000Y139034D02*
X13975000Y0D01*
D39*
X10437500Y2125000D02*
X11953678Y2125000D01*
X13975000Y103678D02*
X13975000Y0D01*
X1937500Y11025000D02*
X2716404Y11025000D01*
X6241404Y7500000D02*
X7575000Y7500000D01*
X2716404Y11025000D02*
X6241404Y7500000D01*
X1937500Y11425000D02*
X2740668Y11425000D01*
D40*
X13075000Y7539034D02*
X13075000Y7500000D01*
D39*
X13075000Y7799999D02*
X13075000Y7500000D01*
X4540668Y9625000D02*
X11249999Y9625000D01*
X11249999Y9625000D02*
X13075000Y7799999D01*
X2740668Y11425000D02*
X4540668Y9625000D01*
X18475000Y8125000D02*
X18475000Y7500000D01*
X2764932Y11825000D02*
X3124932Y11465000D01*
X15135000Y11465000D02*
X18475000Y8125000D01*
X3124932Y11465000D02*
X15135000Y11465000D01*
X1937500Y11825000D02*
X2764932Y11825000D01*
D40*
X10146017Y15025000D02*
X12346017Y17225000D01*
X16500000Y14800000D02*
X16500000Y12850000D01*
X14075000Y17225000D02*
X16500000Y14800000D01*
X12346017Y17225000D02*
X14075000Y17225000D01*
X1937500Y15025000D02*
X10146017Y15025000D01*
X10335966Y14225000D02*
X12635966Y16525000D01*
X14500000Y15789034D02*
X14500000Y12850000D01*
X1937500Y14225000D02*
X10335966Y14225000D01*
X13764034Y16525000D02*
X14500000Y15789034D01*
X12635966Y16525000D02*
X13764034Y16525000D01*
X15500000Y15300000D02*
X15500000Y12850000D01*
X10240992Y14625000D02*
X12490992Y16875000D01*
X12490992Y16875000D02*
X13925000Y16875000D01*
X1937500Y14625000D02*
X10240992Y14625000D01*
X13925000Y16875000D02*
X15500000Y15300000D01*
X14219975Y17575000D02*
X17500000Y14294975D01*
X11996017Y17369975D02*
X12201042Y17575000D01*
X10051043Y15425000D02*
X11996017Y17369975D01*
X12201042Y17575000D02*
X14219975Y17575000D01*
X1937500Y15425000D02*
X10051043Y15425000D01*
X17500000Y14294975D02*
X17500000Y12850000D01*
D39*
X-5773822Y11465000D02*
X-5413822Y11825000D01*
X-14046322Y15225000D02*
X-10286322Y11465000D01*
X-14500000Y15225000D02*
X-14046322Y15225000D01*
X-5413822Y11825000D02*
X-4937500Y11825000D01*
X-10286322Y11465000D02*
X-5773822Y11465000D01*
X-5389558Y11425000D02*
X-4937500Y11425000D01*
X-14500000Y8025000D02*
X-11425000Y11100000D01*
X-11425000Y11100000D02*
X-5714558Y11100000D01*
X-5714558Y11100000D02*
X-5389558Y11425000D01*
X1100000Y9787500D02*
X8575000Y2312500D01*
X8575000Y2312500D02*
X8575000Y0D01*
G04 #@! TA.AperFunction,Conductor*
G36*
X-4457461Y16367315D02*
G01*
X-4411706Y16314511D01*
X-4400500Y16263000D01*
X-4400500Y16250322D01*
X-4385968Y16177265D01*
X-4385967Y16177261D01*
X-4374292Y16159788D01*
X-4330601Y16094399D01*
X-4263969Y16049878D01*
X-4247740Y16039034D01*
X-4247736Y16039033D01*
X-4174679Y16024501D01*
X-4174676Y16024500D01*
X-4174674Y16024500D01*
X-4025324Y16024500D01*
X-4025323Y16024501D01*
X-4000971Y16029345D01*
X-3952268Y16039032D01*
X-3952267Y16039033D01*
X-3952260Y16039034D01*
X-3952255Y16039038D01*
X-3947461Y16041023D01*
X-3877992Y16048496D01*
X-3852539Y16041023D01*
X-3847744Y16039037D01*
X-3847740Y16039034D01*
X-3847736Y16039034D01*
X-3847733Y16039032D01*
X-3774679Y16024501D01*
X-3774676Y16024500D01*
X-3774674Y16024500D01*
X-3625324Y16024500D01*
X-3625323Y16024501D01*
X-3600971Y16029345D01*
X-3552268Y16039032D01*
X-3552267Y16039033D01*
X-3552260Y16039034D01*
X-3552255Y16039038D01*
X-3547461Y16041023D01*
X-3477992Y16048496D01*
X-3452539Y16041023D01*
X-3447744Y16039037D01*
X-3447740Y16039034D01*
X-3447736Y16039034D01*
X-3447733Y16039032D01*
X-3374679Y16024501D01*
X-3374676Y16024500D01*
X-3374674Y16024500D01*
X-3225324Y16024500D01*
X-3225323Y16024501D01*
X-3200971Y16029345D01*
X-3152268Y16039032D01*
X-3152267Y16039033D01*
X-3152260Y16039034D01*
X-3152255Y16039038D01*
X-3147461Y16041023D01*
X-3077992Y16048496D01*
X-3052539Y16041023D01*
X-3047744Y16039037D01*
X-3047740Y16039034D01*
X-3047736Y16039034D01*
X-3047733Y16039032D01*
X-2974679Y16024501D01*
X-2974676Y16024500D01*
X-2974674Y16024500D01*
X-2825324Y16024500D01*
X-2825323Y16024501D01*
X-2800971Y16029345D01*
X-2752268Y16039032D01*
X-2752267Y16039033D01*
X-2752260Y16039034D01*
X-2752255Y16039038D01*
X-2747461Y16041023D01*
X-2677992Y16048496D01*
X-2652539Y16041023D01*
X-2647744Y16039037D01*
X-2647740Y16039034D01*
X-2647736Y16039034D01*
X-2647733Y16039032D01*
X-2574679Y16024501D01*
X-2574676Y16024500D01*
X-2574674Y16024500D01*
X-2425324Y16024500D01*
X-2425323Y16024501D01*
X-2400971Y16029345D01*
X-2352268Y16039032D01*
X-2352267Y16039033D01*
X-2352260Y16039034D01*
X-2352255Y16039038D01*
X-2347461Y16041023D01*
X-2277992Y16048496D01*
X-2252539Y16041023D01*
X-2247744Y16039037D01*
X-2247740Y16039034D01*
X-2247736Y16039034D01*
X-2247733Y16039032D01*
X-2174679Y16024501D01*
X-2174676Y16024500D01*
X-2174674Y16024500D01*
X-2025325Y16024500D01*
X-2009507Y16027647D01*
X-1952260Y16039034D01*
X-1952259Y16039036D01*
X-1949348Y16039614D01*
X-1879756Y16033388D01*
X-1826351Y15992923D01*
X-1742565Y15882436D01*
X-1622096Y15791080D01*
X-1481444Y15735614D01*
X-1393054Y15725000D01*
X-1360496Y15725000D01*
X-1293457Y15705315D01*
X-1247702Y15652511D01*
X-1237758Y15583353D01*
X-1247702Y15549488D01*
X-1285166Y15467457D01*
X-1305647Y15325000D01*
X-1283903Y15173765D01*
X-1285721Y15173504D01*
X-1285722Y15114562D01*
X-1323498Y15055785D01*
X-1387055Y15026762D01*
X-1404698Y15025500D01*
X-2996365Y15025500D01*
X-3046535Y15018895D01*
X-3046543Y15018893D01*
X-3156646Y14967551D01*
X-3242552Y14881645D01*
X-3293895Y14771540D01*
X-3293895Y14771538D01*
X-3300499Y14721373D01*
X-3300500Y14721357D01*
X-3300500Y11728636D01*
X-3293895Y11678466D01*
X-3293894Y11678461D01*
X-3242551Y11568355D01*
X-3156645Y11482449D01*
X-3046539Y11431106D01*
X-2996363Y11424500D01*
X-1504728Y11424501D01*
X-1437689Y11404816D01*
X-1391934Y11352013D01*
X-1381990Y11282854D01*
X-1384915Y11269406D01*
X-1405677Y11125000D01*
X-1385196Y10982543D01*
X-1385195Y10982542D01*
X-1344611Y10893675D01*
X-1334667Y10824517D01*
X-1363692Y10760961D01*
X-1422470Y10723187D01*
X-1442621Y10719048D01*
X-1481444Y10714387D01*
X-1622096Y10658921D01*
X-1742568Y10567563D01*
X-1826352Y10457078D01*
X-1882544Y10415555D01*
X-1949347Y10410387D01*
X-2025324Y10425500D01*
X-2025326Y10425500D01*
X-2174674Y10425500D01*
X-2174676Y10425500D01*
X-2247741Y10410967D01*
X-2252548Y10408975D01*
X-2322017Y10401506D01*
X-2347452Y10408975D01*
X-2352260Y10410967D01*
X-2425324Y10425500D01*
X-2425326Y10425500D01*
X-2574674Y10425500D01*
X-2574676Y10425500D01*
X-2647741Y10410967D01*
X-2652548Y10408975D01*
X-2722017Y10401506D01*
X-2747452Y10408975D01*
X-2752260Y10410967D01*
X-2825324Y10425500D01*
X-2825326Y10425500D01*
X-2974674Y10425500D01*
X-2974676Y10425500D01*
X-3047741Y10410967D01*
X-3052548Y10408975D01*
X-3122017Y10401506D01*
X-3147452Y10408975D01*
X-3152260Y10410967D01*
X-3225324Y10425500D01*
X-3225326Y10425500D01*
X-3374674Y10425500D01*
X-3374676Y10425500D01*
X-3447741Y10410967D01*
X-3452548Y10408975D01*
X-3522017Y10401506D01*
X-3547452Y10408975D01*
X-3552260Y10410967D01*
X-3625324Y10425500D01*
X-3625326Y10425500D01*
X-3774674Y10425500D01*
X-3774676Y10425500D01*
X-3847741Y10410967D01*
X-3852548Y10408975D01*
X-3922017Y10401506D01*
X-3947452Y10408975D01*
X-3952260Y10410967D01*
X-4025324Y10425500D01*
X-4025326Y10425500D01*
X-4174674Y10425500D01*
X-4175500Y10425500D01*
X-4242539Y10445185D01*
X-4288294Y10497989D01*
X-4299500Y10549500D01*
X-4299500Y10699676D01*
X-4308090Y10742857D01*
X-4310779Y10756376D01*
X-4304552Y10825966D01*
X-4276841Y10868251D01*
X-4276149Y10868942D01*
X-4234206Y10970200D01*
X-4234206Y11079800D01*
X-4276149Y11181058D01*
X-4276843Y11181752D01*
X-4277872Y11183635D01*
X-4282934Y11191212D01*
X-4282256Y11191666D01*
X-4310328Y11243075D01*
X-4310779Y11293626D01*
X-4299500Y11350325D01*
X-4299500Y11499676D01*
X-4313162Y11568356D01*
X-4314034Y11572740D01*
X-4314035Y11572742D01*
X-4314614Y11575653D01*
X-4308387Y11645245D01*
X-4267922Y11698650D01*
X-4157437Y11782434D01*
X-4066080Y11902905D01*
X-4010614Y12043557D01*
X-4000000Y12131947D01*
X-4000000Y12318054D01*
X-4010614Y12406444D01*
X-4066080Y12547096D01*
X-4157436Y12667565D01*
X-4267923Y12751351D01*
X-4309446Y12807544D01*
X-4314614Y12874348D01*
X-4314036Y12877259D01*
X-4314034Y12877260D01*
X-4299500Y12950326D01*
X-4299500Y13099674D01*
X-4299500Y13099677D01*
X-4299501Y13099679D01*
X-4314032Y13172733D01*
X-4314034Y13172736D01*
X-4314034Y13172740D01*
X-4314037Y13172744D01*
X-4316023Y13177539D01*
X-4323496Y13247008D01*
X-4316023Y13272461D01*
X-4314038Y13277255D01*
X-4314034Y13277260D01*
X-4311490Y13290046D01*
X-4299501Y13350322D01*
X-4299500Y13350324D01*
X-4299500Y13499677D01*
X-4299501Y13499679D01*
X-4314032Y13572733D01*
X-4314034Y13572736D01*
X-4314034Y13572740D01*
X-4314037Y13572744D01*
X-4316023Y13577539D01*
X-4323496Y13647008D01*
X-4316023Y13672461D01*
X-4314038Y13677255D01*
X-4314034Y13677260D01*
X-4299500Y13750326D01*
X-4299500Y13899674D01*
X-4299500Y13899677D01*
X-4299501Y13899679D01*
X-4314032Y13972733D01*
X-4314034Y13972736D01*
X-4314034Y13972740D01*
X-4314037Y13972744D01*
X-4316023Y13977539D01*
X-4323496Y14047008D01*
X-4316023Y14072461D01*
X-4314038Y14077255D01*
X-4314034Y14077260D01*
X-4311704Y14088970D01*
X-4299501Y14150322D01*
X-4299500Y14150324D01*
X-4299500Y14299677D01*
X-4299501Y14299679D01*
X-4314032Y14372733D01*
X-4314034Y14372736D01*
X-4314034Y14372740D01*
X-4314037Y14372744D01*
X-4316023Y14377539D01*
X-4323496Y14447008D01*
X-4316023Y14472461D01*
X-4314038Y14477255D01*
X-4314034Y14477260D01*
X-4313590Y14479488D01*
X-4299501Y14550322D01*
X-4299500Y14550324D01*
X-4299500Y14699677D01*
X-4299501Y14699679D01*
X-4314032Y14772733D01*
X-4314034Y14772736D01*
X-4314034Y14772740D01*
X-4314037Y14772744D01*
X-4316023Y14777539D01*
X-4323496Y14847008D01*
X-4316023Y14872461D01*
X-4314038Y14877255D01*
X-4314034Y14877260D01*
X-4313161Y14881645D01*
X-4299501Y14950322D01*
X-4299500Y14950324D01*
X-4299500Y15099677D01*
X-4299501Y15099679D01*
X-4314032Y15172733D01*
X-4314034Y15172736D01*
X-4314034Y15172740D01*
X-4314037Y15172744D01*
X-4316023Y15177539D01*
X-4323496Y15247008D01*
X-4316023Y15272461D01*
X-4314038Y15277255D01*
X-4314034Y15277260D01*
X-4299500Y15350326D01*
X-4299500Y15499674D01*
X-4299500Y15499677D01*
X-4299501Y15499679D01*
X-4314033Y15572736D01*
X-4314034Y15572740D01*
X-4331161Y15598373D01*
X-4369399Y15655601D01*
X-4438485Y15701762D01*
X-4452261Y15710967D01*
X-4452265Y15710968D01*
X-4525323Y15725500D01*
X-4525326Y15725500D01*
X-5349674Y15725500D01*
X-5351462Y15725324D01*
X-5352390Y15725500D01*
X-5355766Y15725500D01*
X-5355766Y15726141D01*
X-5420107Y15738347D01*
X-5435472Y15750000D01*
X-6096000Y15750000D01*
X-6163039Y15769685D01*
X-6208794Y15822489D01*
X-6220000Y15874000D01*
X-6220000Y16126000D01*
X-6200315Y16193039D01*
X-6147511Y16238794D01*
X-6096000Y16250000D01*
X-5441211Y16250000D01*
X-5441468Y16253276D01*
X-5427101Y16321653D01*
X-5378048Y16371408D01*
X-5317850Y16387000D01*
X-4524500Y16387000D01*
X-4457461Y16367315D01*
G37*
G04 #@! TD.AperFunction*
G04 #@! TA.AperFunction,Conductor*
G36*
X12318834Y15680383D02*
G01*
X12374767Y15638511D01*
X12399184Y15573047D01*
X12399500Y15564201D01*
X12399500Y14670731D01*
X12402353Y14640301D01*
X12402353Y14640299D01*
X12445921Y14515793D01*
X12447207Y14512118D01*
X12527850Y14402850D01*
X12637118Y14322207D01*
X12669706Y14310804D01*
X12765299Y14277354D01*
X12795730Y14274500D01*
X12795734Y14274500D01*
X13604270Y14274500D01*
X13634699Y14277354D01*
X13634701Y14277354D01*
X13714304Y14305209D01*
X13762882Y14322207D01*
X13872150Y14402850D01*
X13952793Y14512118D01*
X13958459Y14528312D01*
X13999180Y14585087D01*
X14064133Y14610834D01*
X14132695Y14597378D01*
X14183097Y14548990D01*
X14199500Y14487356D01*
X14199500Y13867998D01*
X14179815Y13800959D01*
X14147555Y13767082D01*
X14143516Y13764199D01*
X14060803Y13681486D01*
X14009426Y13576392D01*
X13999500Y13508261D01*
X13999500Y12191740D01*
X14009426Y12123609D01*
X14060803Y12018515D01*
X14127137Y11952181D01*
X14160622Y11890858D01*
X14155638Y11821166D01*
X14113766Y11765233D01*
X14048302Y11740816D01*
X14039456Y11740500D01*
X5911441Y11740500D01*
X5844402Y11760185D01*
X5798647Y11812989D01*
X5788703Y11882146D01*
X5805647Y12000000D01*
X5785165Y12142457D01*
X5762658Y12191740D01*
X5725377Y12273373D01*
X5631128Y12382143D01*
X5510053Y12459953D01*
X5510051Y12459954D01*
X5510049Y12459955D01*
X5510050Y12459955D01*
X5371963Y12500500D01*
X5371961Y12500500D01*
X5228039Y12500500D01*
X5228036Y12500500D01*
X5089949Y12459955D01*
X4968872Y12382143D01*
X4962172Y12376337D01*
X4960230Y12378578D01*
X4913958Y12348858D01*
X4844089Y12348878D01*
X4791376Y12380164D01*
X4718316Y12453224D01*
X4684609Y12468942D01*
X4609487Y12503972D01*
X4609485Y12503973D01*
X4609486Y12503973D01*
X4559902Y12510500D01*
X4200102Y12510500D01*
X4191746Y12509400D01*
X4190459Y12509231D01*
X4121425Y12519999D01*
X4075964Y12560352D01*
X4074499Y12559215D01*
X4069714Y12565384D01*
X3955383Y12679715D01*
X3955374Y12679722D01*
X3816193Y12762033D01*
X3816190Y12762035D01*
X3670001Y12804507D01*
X3670000Y12804506D01*
X3670000Y12124000D01*
X3650315Y12056961D01*
X3597511Y12011206D01*
X3546000Y12000000D01*
X3294000Y12000000D01*
X3226961Y12019685D01*
X3181206Y12072489D01*
X3170000Y12124000D01*
X3170000Y12804506D01*
X3169998Y12804507D01*
X3023809Y12762035D01*
X3023806Y12762033D01*
X2884627Y12679723D01*
X2884619Y12679717D01*
X2882111Y12677208D01*
X2879663Y12675872D01*
X2878461Y12674939D01*
X2878310Y12675134D01*
X2820786Y12643727D01*
X2751094Y12648716D01*
X2719510Y12666091D01*
X2607078Y12751351D01*
X2565554Y12807544D01*
X2560386Y12874348D01*
X2560964Y12877259D01*
X2560966Y12877260D01*
X2575500Y12950326D01*
X2575500Y13000500D01*
X2595185Y13067539D01*
X2647989Y13113294D01*
X2699500Y13124500D01*
X10764560Y13124500D01*
X10764562Y13124500D01*
X10840989Y13144979D01*
X10909511Y13184540D01*
X10938152Y13213181D01*
X10999475Y13246666D01*
X11025833Y13249500D01*
X11121962Y13249500D01*
X11121962Y13249501D01*
X11260053Y13290047D01*
X11381128Y13367857D01*
X11475377Y13476627D01*
X11535165Y13607543D01*
X11555647Y13750000D01*
X11535165Y13892457D01*
X11475377Y14023373D01*
X11381128Y14132143D01*
X11260053Y14209953D01*
X11260051Y14209954D01*
X11260049Y14209955D01*
X11260050Y14209955D01*
X11121963Y14250500D01*
X11121961Y14250500D01*
X11085799Y14250500D01*
X11018760Y14270185D01*
X10973005Y14322989D01*
X10963061Y14392147D01*
X10992086Y14455703D01*
X10998118Y14462181D01*
X12187819Y15651882D01*
X12249142Y15685367D01*
X12318834Y15680383D01*
G37*
G04 #@! TD.AperFunction*
G04 #@! TA.AperFunction,Conductor*
G36*
X-6126961Y12329815D02*
G01*
X-6081206Y12277011D01*
X-6070000Y12225500D01*
X-6070000Y12124000D01*
X-6089685Y12056961D01*
X-6142489Y12011206D01*
X-6194000Y12000000D01*
X-6446000Y12000000D01*
X-6513039Y12019685D01*
X-6558794Y12072489D01*
X-6570000Y12124000D01*
X-6570000Y12225500D01*
X-6550315Y12292539D01*
X-6497511Y12338294D01*
X-6446000Y12349500D01*
X-6194000Y12349500D01*
X-6126961Y12329815D01*
G37*
G04 #@! TD.AperFunction*
G04 #@! TA.AperFunction,Conductor*
G36*
X-853635Y18533961D02*
G01*
X-809872Y18479496D01*
X-800500Y18432206D01*
X-800500Y17724000D01*
X-820185Y17656961D01*
X-872989Y17611206D01*
X-924500Y17600000D01*
X-993055Y17600000D01*
X-1085217Y17588934D01*
X-1114783Y17588934D01*
X-1168234Y17595352D01*
X-1232448Y17622889D01*
X-1271582Y17680771D01*
X-1273210Y17750622D01*
X-1266250Y17769968D01*
X-1214835Y17882549D01*
X-1194353Y18025006D01*
X-1214835Y18167463D01*
X-1267921Y18283704D01*
X-1277865Y18352863D01*
X-1248840Y18416418D01*
X-1190062Y18454193D01*
X-1189721Y18454293D01*
X-1073807Y18487969D01*
X-987622Y18538938D01*
X-919898Y18556121D01*
X-853635Y18533961D01*
G37*
G04 #@! TD.AperFunction*
G04 #@! TA.AperFunction,Conductor*
G36*
X3237539Y29679815D02*
G01*
X3283294Y29627011D01*
X3294500Y29575500D01*
X3294500Y28450351D01*
X3274815Y28383312D01*
X3239391Y28347249D01*
X3080345Y28240978D01*
X3080341Y28240975D01*
X2934024Y28094658D01*
X2819058Y27922597D01*
X2739870Y27731421D01*
X2739868Y27731413D01*
X2699500Y27528470D01*
X2699500Y27071531D01*
X2739868Y26868588D01*
X2739870Y26868580D01*
X2819059Y26677402D01*
X2844148Y26639854D01*
X2934024Y26505343D01*
X3080342Y26359025D01*
X3080345Y26359023D01*
X3252402Y26244059D01*
X3443580Y26164870D01*
X3629271Y26127934D01*
X3646530Y26124501D01*
X3646534Y26124500D01*
X3646535Y26124500D01*
X3853466Y26124500D01*
X3853466Y26124501D01*
X3915371Y26136814D01*
X3984961Y26130587D01*
X4040139Y26087725D01*
X4063384Y26021835D01*
X4052358Y25963689D01*
X4035613Y25927021D01*
X4026585Y25903550D01*
X4026584Y25903547D01*
X4019131Y25812404D01*
X4019131Y25812402D01*
X4029075Y25743246D01*
X4034168Y25718628D01*
X4034168Y25718627D01*
X4077177Y25637917D01*
X4077179Y25637914D01*
X4122938Y25585105D01*
X4136003Y25571771D01*
X4140524Y25567157D01*
X4140525Y25567156D01*
X4140527Y25567155D01*
X4220337Y25522512D01*
X4220341Y25522510D01*
X4287380Y25502825D01*
X4345278Y25494500D01*
X6870500Y25494500D01*
X6937539Y25474815D01*
X6983294Y25422011D01*
X6994500Y25370500D01*
X6994500Y25323993D01*
X6999197Y25280314D01*
X7010397Y25228826D01*
X7012890Y25218628D01*
X7012891Y25218625D01*
X7055899Y25137917D01*
X7055901Y25137914D01*
X7101660Y25085105D01*
X7119242Y25067161D01*
X7119246Y25067157D01*
X7119247Y25067156D01*
X7119249Y25067155D01*
X7199059Y25022512D01*
X7199063Y25022510D01*
X7266102Y25002825D01*
X7324000Y24994500D01*
X7977286Y24994500D01*
X8044325Y24974815D01*
X8090080Y24922011D01*
X8099989Y24888384D01*
X8106596Y24843039D01*
X8109427Y24823606D01*
X8160803Y24718515D01*
X8243514Y24635804D01*
X8243515Y24635804D01*
X8243517Y24635802D01*
X8348607Y24584427D01*
X8382673Y24579464D01*
X8416739Y24574500D01*
X8416740Y24574500D01*
X8783261Y24574500D01*
X8817326Y24579464D01*
X8851393Y24584427D01*
X8927942Y24621850D01*
X8996813Y24633609D01*
X9061110Y24606266D01*
X9100418Y24548502D01*
X9102256Y24478656D01*
X9095196Y24458938D01*
X9064834Y24392455D01*
X9044353Y24250000D01*
X9061841Y24128366D01*
X9051897Y24059207D01*
X9006142Y24006403D01*
X8939103Y23986719D01*
X8884643Y23999318D01*
X8870150Y24006403D01*
X8851393Y24015573D01*
X8851391Y24015574D01*
X8783261Y24025500D01*
X8783260Y24025500D01*
X8416740Y24025500D01*
X8416739Y24025500D01*
X8348608Y24015574D01*
X8243514Y23964197D01*
X8160803Y23881486D01*
X8109426Y23776392D01*
X8099500Y23708261D01*
X8099500Y22616740D01*
X8109426Y22548609D01*
X8160803Y22443515D01*
X8243514Y22360804D01*
X8243515Y22360804D01*
X8243517Y22360802D01*
X8348607Y22309427D01*
X8382673Y22304464D01*
X8416739Y22299500D01*
X8416740Y22299500D01*
X8783261Y22299500D01*
X8805971Y22302809D01*
X8851393Y22309427D01*
X8956483Y22360802D01*
X9039198Y22443517D01*
X9090573Y22548607D01*
X9095781Y22584351D01*
X9700000Y22584351D01*
X9702899Y22547511D01*
X9702900Y22547505D01*
X9748716Y22389807D01*
X9748717Y22389804D01*
X9832314Y22248448D01*
X9832321Y22248439D01*
X9948438Y22132322D01*
X9948447Y22132315D01*
X10089801Y22048719D01*
X10247514Y22002900D01*
X10247511Y22002900D01*
X10249998Y22002705D01*
X10250000Y22002705D01*
X10750000Y22002705D01*
X10750001Y22002705D01*
X10752486Y22002900D01*
X10910198Y22048719D01*
X11051552Y22132315D01*
X11051561Y22132322D01*
X11167678Y22248439D01*
X11167685Y22248448D01*
X11251282Y22389804D01*
X11251283Y22389807D01*
X11297099Y22547505D01*
X11297100Y22547511D01*
X11299999Y22584351D01*
X11300000Y22584366D01*
X11300000Y22912500D01*
X10750000Y22912500D01*
X10750000Y22002705D01*
X10250000Y22002705D01*
X10250000Y22912500D01*
X9700000Y22912500D01*
X9700000Y22584351D01*
X9095781Y22584351D01*
X9100500Y22616740D01*
X9100500Y23708260D01*
X9100500Y23708261D01*
X9100500Y23712747D01*
X9101529Y23712747D01*
X9115290Y23776347D01*
X9164640Y23825808D01*
X9232896Y23840736D01*
X9291228Y23821357D01*
X9339948Y23790046D01*
X9478036Y23749501D01*
X9478038Y23749500D01*
X9576000Y23749500D01*
X9643039Y23729815D01*
X9688794Y23677011D01*
X9700000Y23625500D01*
X9700000Y23412500D01*
X10250000Y23412500D01*
X10750000Y23412500D01*
X11300000Y23412500D01*
X11300000Y23740635D01*
X11299999Y23740650D01*
X11297100Y23777490D01*
X11297099Y23777496D01*
X11251283Y23935194D01*
X11251282Y23935197D01*
X11167685Y24076553D01*
X11167678Y24076562D01*
X11051561Y24192679D01*
X11051552Y24192686D01*
X10910196Y24276283D01*
X10910193Y24276284D01*
X10752494Y24322100D01*
X10752497Y24322100D01*
X10750000Y24322297D01*
X10750000Y23412500D01*
X10250000Y23412500D01*
X10250000Y24322297D01*
X10247507Y24322100D01*
X10189626Y24305284D01*
X10119756Y24305484D01*
X10061087Y24343427D01*
X10036054Y24389430D01*
X10035166Y24392455D01*
X10030714Y24402204D01*
X10004803Y24458939D01*
X9994860Y24528095D01*
X10023884Y24591651D01*
X10082662Y24629426D01*
X10152531Y24629427D01*
X10172056Y24621850D01*
X10233830Y24591651D01*
X10248607Y24584427D01*
X10316739Y24574500D01*
X10316740Y24574500D01*
X10683261Y24574500D01*
X10705971Y24577809D01*
X10751393Y24584427D01*
X10856483Y24635802D01*
X10939198Y24718517D01*
X10990573Y24823607D01*
X11000500Y24891740D01*
X11000500Y25983260D01*
X10997988Y26000500D01*
X10990574Y26051389D01*
X10990573Y26051391D01*
X10990573Y26051393D01*
X10971288Y26090842D01*
X10968099Y26097366D01*
X10955500Y26151825D01*
X10955500Y26500645D01*
X10970197Y26559202D01*
X10977490Y26572815D01*
X10997175Y26639854D01*
X11005500Y26697752D01*
X11005500Y26976000D01*
X11000803Y27019684D01*
X10996897Y27037636D01*
X10989602Y27071175D01*
X10989348Y27072211D01*
X10987110Y27081373D01*
X10944100Y27162085D01*
X10944098Y27162087D01*
X10940825Y27168230D01*
X10942431Y27169086D01*
X10923565Y27226768D01*
X10941195Y27294377D01*
X10973869Y27330317D01*
X11072150Y27402850D01*
X11152793Y27512118D01*
X11183370Y27599501D01*
X11197646Y27640299D01*
X11197646Y27640301D01*
X11200500Y27670731D01*
X11200500Y27698974D01*
X11220185Y27766013D01*
X11272989Y27811768D01*
X11342147Y27821712D01*
X11391538Y27803291D01*
X11489947Y27740047D01*
X11489950Y27740046D01*
X11489949Y27740046D01*
X11565520Y27717857D01*
X11624633Y27700500D01*
X11628036Y27699501D01*
X11628038Y27699500D01*
X11628039Y27699500D01*
X11771962Y27699500D01*
X11771962Y27699501D01*
X11910053Y27740047D01*
X12031128Y27817857D01*
X12125377Y27926627D01*
X12185165Y28057543D01*
X12205647Y28200000D01*
X12185165Y28342457D01*
X12125377Y28473373D01*
X12031128Y28582143D01*
X11910053Y28659953D01*
X11910051Y28659954D01*
X11910049Y28659955D01*
X11910050Y28659955D01*
X11771963Y28700500D01*
X11771961Y28700500D01*
X11628039Y28700500D01*
X11628036Y28700500D01*
X11489949Y28659955D01*
X11391539Y28596711D01*
X11324499Y28577027D01*
X11257460Y28596712D01*
X11211705Y28649516D01*
X11200500Y28701027D01*
X11200500Y28729270D01*
X11197646Y28759700D01*
X11197646Y28759702D01*
X11152793Y28887881D01*
X11152792Y28887883D01*
X11138915Y28906686D01*
X11072150Y28997150D01*
X10962882Y29077793D01*
X10962880Y29077794D01*
X10834700Y29122647D01*
X10804270Y29125500D01*
X10804266Y29125500D01*
X10195734Y29125500D01*
X10195730Y29125500D01*
X10165300Y29122647D01*
X10165298Y29122647D01*
X10037119Y29077794D01*
X10037117Y29077793D01*
X9927850Y28997150D01*
X9847207Y28887883D01*
X9847206Y28887881D01*
X9802353Y28759702D01*
X9802353Y28759700D01*
X9799500Y28729270D01*
X9799500Y27670731D01*
X9802353Y27640301D01*
X9802353Y27640299D01*
X9847206Y27512120D01*
X9847207Y27512118D01*
X9851510Y27506287D01*
X9853837Y27503135D01*
X9877809Y27437506D01*
X9862494Y27369335D01*
X9812754Y27320267D01*
X9754068Y27305500D01*
X9345932Y27305500D01*
X9278893Y27325185D01*
X9233138Y27377989D01*
X9223194Y27447147D01*
X9246163Y27503135D01*
X9252793Y27512118D01*
X9283370Y27599501D01*
X9297646Y27640299D01*
X9297646Y27640301D01*
X9300500Y27670731D01*
X9300500Y28729270D01*
X9297646Y28759700D01*
X9297646Y28759702D01*
X9252793Y28887881D01*
X9252792Y28887883D01*
X9238915Y28906686D01*
X9172150Y28997150D01*
X9131217Y29027360D01*
X9105866Y29046070D01*
X9063615Y29101718D01*
X9055500Y29145840D01*
X9055500Y29328914D01*
X9069626Y29386392D01*
X9077490Y29401425D01*
X9097175Y29468464D01*
X9105500Y29526362D01*
X9105500Y29575500D01*
X9125185Y29642539D01*
X9177989Y29688294D01*
X9229500Y29699500D01*
X22575500Y29699500D01*
X22642539Y29679815D01*
X22688294Y29627011D01*
X22699500Y29575500D01*
X22699500Y1224000D01*
X22679815Y1156961D01*
X22627011Y1111206D01*
X22575500Y1100000D01*
X17900000Y1100000D01*
X17900000Y-3575500D01*
X17880315Y-3642539D01*
X17827511Y-3688294D01*
X17776000Y-3699500D01*
X-22575500Y-3699500D01*
X-22642539Y-3679815D01*
X-22688294Y-3627011D01*
X-22699500Y-3575500D01*
X-22699500Y-995730D01*
X-21600500Y-995730D01*
X-21600500Y-2404269D01*
X-21597647Y-2434699D01*
X-21597647Y-2434701D01*
X-21552794Y-2562880D01*
X-21552793Y-2562882D01*
X-21472150Y-2672150D01*
X-21362882Y-2752793D01*
X-21320155Y-2767744D01*
X-21234701Y-2797646D01*
X-21204270Y-2800500D01*
X-21204266Y-2800500D01*
X-20395730Y-2800500D01*
X-20365301Y-2797646D01*
X-20365299Y-2797646D01*
X-20301210Y-2775219D01*
X-20237118Y-2752793D01*
X-20127850Y-2672150D01*
X-20047207Y-2562882D01*
X-20024781Y-2498790D01*
X-20002354Y-2434701D01*
X-20002354Y-2434699D01*
X-19999500Y-2404269D01*
X-19999500Y-995730D01*
X-20002354Y-965300D01*
X-20002354Y-965298D01*
X-20047207Y-837119D01*
X-20047208Y-837117D01*
X-20062247Y-816740D01*
X-20127850Y-727850D01*
X-20237118Y-647207D01*
X-20237120Y-647206D01*
X-20365300Y-602353D01*
X-20395730Y-599500D01*
X-20395734Y-599500D01*
X-21204266Y-599500D01*
X-21204270Y-599500D01*
X-21234700Y-602353D01*
X-21234702Y-602353D01*
X-21362881Y-647206D01*
X-21362883Y-647207D01*
X-21472150Y-727850D01*
X-21552793Y-837117D01*
X-21552794Y-837119D01*
X-21597647Y-965298D01*
X-21597647Y-965300D01*
X-21600500Y-995730D01*
X-22699500Y-995730D01*
X-22699500Y134351D01*
X-20300000Y134351D01*
X-20297101Y97511D01*
X-20297100Y97505D01*
X-20251284Y-60193D01*
X-20251283Y-60196D01*
X-20167686Y-201552D01*
X-20167679Y-201561D01*
X-20051562Y-317678D01*
X-20051553Y-317685D01*
X-19910199Y-401281D01*
X-19752486Y-447100D01*
X-19752489Y-447100D01*
X-19750002Y-447295D01*
X-19750000Y-447295D01*
X-19750000Y575000D01*
X-20300000Y575000D01*
X-20300000Y134351D01*
X-22699500Y134351D01*
X-22699500Y1515650D01*
X-20300000Y1515650D01*
X-20300000Y1075000D01*
X-19750000Y1075000D01*
X-19750000Y2097297D01*
X-19752497Y2097100D01*
X-19910194Y2051284D01*
X-19910197Y2051283D01*
X-20051553Y1967686D01*
X-20051562Y1967679D01*
X-20167679Y1851562D01*
X-20167686Y1851553D01*
X-20251283Y1710197D01*
X-20251284Y1710194D01*
X-20297100Y1552496D01*
X-20297101Y1552490D01*
X-20300000Y1515650D01*
X-22699500Y1515650D01*
X-22699500Y6204270D01*
X-21600500Y6204270D01*
X-21600500Y4795731D01*
X-21597647Y4765301D01*
X-21597647Y4765299D01*
X-21552794Y4637120D01*
X-21552793Y4637118D01*
X-21472150Y4527850D01*
X-21362882Y4447207D01*
X-21320155Y4432256D01*
X-21234701Y4402354D01*
X-21204270Y4399500D01*
X-21204266Y4399500D01*
X-20395730Y4399500D01*
X-20365301Y4402354D01*
X-20365299Y4402354D01*
X-20301210Y4424781D01*
X-20237118Y4447207D01*
X-20127850Y4527850D01*
X-20047207Y4637118D01*
X-20024781Y4701210D01*
X-20002354Y4765299D01*
X-20002354Y4765301D01*
X-19999500Y4795731D01*
X-19999500Y6204270D01*
X-20002354Y6234700D01*
X-20002354Y6234702D01*
X-20047207Y6362881D01*
X-20047208Y6362883D01*
X-20127850Y6472150D01*
X-20237118Y6552793D01*
X-20237120Y6552794D01*
X-20365300Y6597647D01*
X-20395730Y6600500D01*
X-20395734Y6600500D01*
X-21204266Y6600500D01*
X-21204270Y6600500D01*
X-21234700Y6597647D01*
X-21234702Y6597647D01*
X-21362881Y6552794D01*
X-21362883Y6552793D01*
X-21472150Y6472150D01*
X-21552793Y6362883D01*
X-21552794Y6362881D01*
X-21597647Y6234702D01*
X-21597647Y6234700D01*
X-21600500Y6204270D01*
X-22699500Y6204270D01*
X-22699500Y7334351D01*
X-20300000Y7334351D01*
X-20297101Y7297511D01*
X-20297100Y7297505D01*
X-20251284Y7139807D01*
X-20251283Y7139804D01*
X-20167686Y6998448D01*
X-20167679Y6998439D01*
X-20051562Y6882322D01*
X-20051553Y6882315D01*
X-19910199Y6798719D01*
X-19752486Y6752900D01*
X-19752489Y6752900D01*
X-19750002Y6752705D01*
X-19750000Y6752705D01*
X-19750000Y7775000D01*
X-20300000Y7775000D01*
X-20300000Y7334351D01*
X-22699500Y7334351D01*
X-22699500Y8715650D01*
X-20300000Y8715650D01*
X-20300000Y8275000D01*
X-19750000Y8275000D01*
X-19750000Y9297297D01*
X-19752497Y9297100D01*
X-19910194Y9251284D01*
X-19910197Y9251283D01*
X-20051553Y9167686D01*
X-20051562Y9167679D01*
X-20167679Y9051562D01*
X-20167686Y9051553D01*
X-20251283Y8910197D01*
X-20251284Y8910194D01*
X-20297100Y8752496D01*
X-20297101Y8752490D01*
X-20300000Y8715650D01*
X-22699500Y8715650D01*
X-22699500Y13404270D01*
X-21600500Y13404270D01*
X-21600500Y11995731D01*
X-21597647Y11965301D01*
X-21597647Y11965299D01*
X-21557219Y11849767D01*
X-21552793Y11837118D01*
X-21472150Y11727850D01*
X-21362882Y11647207D01*
X-21349307Y11642457D01*
X-21234701Y11602354D01*
X-21204270Y11599500D01*
X-21204266Y11599500D01*
X-20395730Y11599500D01*
X-20365301Y11602354D01*
X-20365299Y11602354D01*
X-20300582Y11625000D01*
X-20237118Y11647207D01*
X-20127850Y11727850D01*
X-20047207Y11837118D01*
X-20012675Y11935804D01*
X-20002354Y11965299D01*
X-20002354Y11965301D01*
X-19999500Y11995731D01*
X-19999500Y13404270D01*
X-20002354Y13434700D01*
X-20002354Y13434702D01*
X-20035994Y13530837D01*
X-20047207Y13562882D01*
X-20127850Y13672150D01*
X-20237118Y13752793D01*
X-20237120Y13752794D01*
X-20365300Y13797647D01*
X-20395730Y13800500D01*
X-20395734Y13800500D01*
X-21204266Y13800500D01*
X-21204270Y13800500D01*
X-21234700Y13797647D01*
X-21234702Y13797647D01*
X-21362881Y13752794D01*
X-21362883Y13752793D01*
X-21472150Y13672150D01*
X-21552793Y13562883D01*
X-21552794Y13562881D01*
X-21597647Y13434702D01*
X-21597647Y13434700D01*
X-21600500Y13404270D01*
X-22699500Y13404270D01*
X-22699500Y14534351D01*
X-20300000Y14534351D01*
X-20297101Y14497511D01*
X-20297100Y14497505D01*
X-20251284Y14339807D01*
X-20251283Y14339804D01*
X-20167686Y14198448D01*
X-20167679Y14198439D01*
X-20051562Y14082322D01*
X-20051553Y14082315D01*
X-19910199Y13998719D01*
X-19752486Y13952900D01*
X-19752489Y13952900D01*
X-19750002Y13952705D01*
X-19750000Y13952705D01*
X-19750000Y14975000D01*
X-20300000Y14975000D01*
X-20300000Y14534351D01*
X-22699500Y14534351D01*
X-22699500Y15915650D01*
X-20300000Y15915650D01*
X-20300000Y15475000D01*
X-19750000Y15475000D01*
X-19750000Y16497297D01*
X-19250000Y16497297D01*
X-19250000Y13952705D01*
X-19249999Y13952705D01*
X-19247512Y13952900D01*
X-19247506Y13952901D01*
X-19159672Y13978419D01*
X-19089803Y13978220D01*
X-19031133Y13940278D01*
X-19002339Y13876990D01*
X-18985166Y13757544D01*
X-18962705Y13708363D01*
X-18925377Y13626627D01*
X-18831128Y13517857D01*
X-18710053Y13440047D01*
X-18710050Y13440046D01*
X-18710051Y13440046D01*
X-18571964Y13399501D01*
X-18571962Y13399500D01*
X-18571961Y13399500D01*
X-18428038Y13399500D01*
X-18428038Y13399501D01*
X-18308157Y13434700D01*
X-18289950Y13440046D01*
X-18289950Y13440047D01*
X-18289947Y13440047D01*
X-18168872Y13517857D01*
X-18074623Y13626627D01*
X-18014835Y13757543D01*
X-18014835Y13757545D01*
X-18012294Y13763108D01*
X-17966539Y13815911D01*
X-17899500Y13835596D01*
X-17832460Y13815911D01*
X-17786706Y13763107D01*
X-17775500Y13711596D01*
X-17775500Y9056193D01*
X-17795185Y8989154D01*
X-17845039Y8944793D01*
X-17856485Y8939198D01*
X-17912319Y8883363D01*
X-17973642Y8849878D01*
X-18043334Y8854862D01*
X-18087681Y8883363D01*
X-18143515Y8939197D01*
X-18248609Y8990574D01*
X-18316739Y9000500D01*
X-18316740Y9000500D01*
X-18683260Y9000500D01*
X-18695663Y8998693D01*
X-18710414Y8996544D01*
X-18779591Y9006359D01*
X-18826100Y9046508D01*
X-18827537Y9045393D01*
X-18832322Y9051562D01*
X-18948439Y9167679D01*
X-18948448Y9167686D01*
X-19089804Y9251283D01*
X-19089807Y9251284D01*
X-19247506Y9297100D01*
X-19247503Y9297100D01*
X-19250000Y9297297D01*
X-19250000Y6752705D01*
X-19249999Y6752705D01*
X-19247512Y6752900D01*
X-19247509Y6752901D01*
X-19156870Y6779234D01*
X-19087000Y6779035D01*
X-19028330Y6741093D01*
X-18999486Y6677455D01*
X-18999536Y6642514D01*
X-19005647Y6600004D01*
X-19005647Y6600001D01*
X-19005647Y6600000D01*
X-19003482Y6584939D01*
X-18985166Y6457544D01*
X-18939496Y6357543D01*
X-18925377Y6326627D01*
X-18831128Y6217857D01*
X-18710053Y6140047D01*
X-18710050Y6140046D01*
X-18710051Y6140046D01*
X-18571964Y6099501D01*
X-18571962Y6099500D01*
X-18571961Y6099500D01*
X-18428038Y6099500D01*
X-18428038Y6099501D01*
X-18289947Y6140047D01*
X-18168872Y6217857D01*
X-18074623Y6326627D01*
X-18014835Y6457543D01*
X-17994353Y6600000D01*
X-18014835Y6742457D01*
X-18074623Y6873373D01*
X-18141229Y6950241D01*
X-18170253Y7013795D01*
X-18160309Y7082953D01*
X-18135195Y7119124D01*
X-18087680Y7166638D01*
X-18026357Y7200122D01*
X-17956665Y7195137D01*
X-17912319Y7166637D01*
X-17856486Y7110804D01*
X-17856485Y7110804D01*
X-17856483Y7110802D01*
X-17751393Y7059427D01*
X-17717327Y7054464D01*
X-17683261Y7049500D01*
X-17683260Y7049500D01*
X-17316739Y7049500D01*
X-17294029Y7052809D01*
X-17248607Y7059427D01*
X-17143517Y7110802D01*
X-17135195Y7119124D01*
X-17087681Y7166637D01*
X-17026358Y7200122D01*
X-16956666Y7195138D01*
X-16912319Y7166637D01*
X-16856486Y7110804D01*
X-16856485Y7110804D01*
X-16856483Y7110802D01*
X-16751393Y7059427D01*
X-16717327Y7054464D01*
X-16683261Y7049500D01*
X-16683260Y7049500D01*
X-16316739Y7049500D01*
X-16294029Y7052809D01*
X-16248607Y7059427D01*
X-16143517Y7110802D01*
X-16135195Y7119124D01*
X-16087681Y7166637D01*
X-16026358Y7200122D01*
X-15956666Y7195138D01*
X-15912319Y7166637D01*
X-15856486Y7110804D01*
X-15856485Y7110804D01*
X-15856483Y7110802D01*
X-15751393Y7059427D01*
X-15717327Y7054464D01*
X-15683261Y7049500D01*
X-15683260Y7049500D01*
X-15316739Y7049500D01*
X-15294029Y7052809D01*
X-15248607Y7059427D01*
X-15143517Y7110802D01*
X-15135195Y7119124D01*
X-15087681Y7166637D01*
X-15026358Y7200122D01*
X-14956666Y7195138D01*
X-14912319Y7166637D01*
X-14856486Y7110804D01*
X-14856485Y7110804D01*
X-14856483Y7110802D01*
X-14751393Y7059427D01*
X-14717327Y7054464D01*
X-14683261Y7049500D01*
X-14683260Y7049500D01*
X-14316739Y7049500D01*
X-14294029Y7052809D01*
X-14248607Y7059427D01*
X-14143517Y7110802D01*
X-14060802Y7193517D01*
X-14009427Y7298607D01*
X-13999500Y7366740D01*
X-13999500Y8084523D01*
X-13979815Y8151562D01*
X-13963181Y8172204D01*
X-11347203Y10788181D01*
X-11285880Y10821666D01*
X-11259522Y10824500D01*
X-5999500Y10824500D01*
X-5932461Y10804815D01*
X-5886706Y10752011D01*
X-5875500Y10700500D01*
X-5875500Y9465478D01*
X-5895185Y9398439D01*
X-5911819Y9377796D01*
X-6067334Y9222282D01*
X-6128657Y9188798D01*
X-6198349Y9193782D01*
X-6254282Y9235654D01*
X-6267810Y9258454D01*
X-6274623Y9273373D01*
X-6274624Y9273374D01*
X-6280584Y9280252D01*
X-6368872Y9382143D01*
X-6489947Y9459953D01*
X-6489949Y9459954D01*
X-6489951Y9459955D01*
X-6489950Y9459955D01*
X-6628037Y9500500D01*
X-6628039Y9500500D01*
X-6771961Y9500500D01*
X-6771964Y9500500D01*
X-6910051Y9459955D01*
X-6972713Y9419684D01*
X-7039752Y9400000D01*
X-8735000Y9400000D01*
X-8735000Y9252156D01*
X-8728075Y9187756D01*
X-8740480Y9118996D01*
X-8788090Y9067859D01*
X-8851364Y9050500D01*
X-8921961Y9050500D01*
X-9052646Y9012129D01*
X-9122515Y9012130D01*
X-9181293Y9049905D01*
X-9210317Y9113461D01*
X-9200373Y9182620D01*
X-9190684Y9199994D01*
X-9176133Y9221769D01*
X-9176133Y9221770D01*
X-9176132Y9221771D01*
X-9166771Y9268834D01*
X-9164500Y9280252D01*
X-9164500Y10019748D01*
X-9164500Y10019751D01*
X-9164501Y10019753D01*
X-9170088Y10047845D01*
X-8735000Y10047845D01*
X-8735000Y9900000D01*
X-8135000Y9900000D01*
X-7635000Y9900000D01*
X-7035000Y9900000D01*
X-7035000Y10047828D01*
X-7035001Y10047845D01*
X-7041402Y10107373D01*
X-7041404Y10107380D01*
X-7091646Y10242087D01*
X-7091650Y10242094D01*
X-7177810Y10357188D01*
X-7177813Y10357191D01*
X-7292907Y10443351D01*
X-7292914Y10443355D01*
X-7427621Y10493597D01*
X-7427628Y10493599D01*
X-7487156Y10500000D01*
X-7635000Y10500000D01*
X-7635000Y9900000D01*
X-8135000Y9900000D01*
X-8135000Y10500000D01*
X-8282845Y10500000D01*
X-8342373Y10493599D01*
X-8342380Y10493597D01*
X-8477087Y10443355D01*
X-8477094Y10443351D01*
X-8592188Y10357191D01*
X-8592191Y10357188D01*
X-8678351Y10242094D01*
X-8678355Y10242087D01*
X-8728597Y10107380D01*
X-8728599Y10107373D01*
X-8735000Y10047845D01*
X-9170088Y10047845D01*
X-9176132Y10078230D01*
X-9176133Y10078231D01*
X-9220448Y10144553D01*
X-9286770Y10188868D01*
X-9286771Y10188869D01*
X-9345248Y10200500D01*
X-9345252Y10200500D01*
X-10084748Y10200500D01*
X-10084753Y10200500D01*
X-10143230Y10188869D01*
X-10143231Y10188868D01*
X-10209553Y10144553D01*
X-10253868Y10078231D01*
X-10253869Y10078230D01*
X-10265500Y10019753D01*
X-10265500Y9280248D01*
X-10253869Y9221771D01*
X-10253868Y9221770D01*
X-10218535Y9168891D01*
X-10197657Y9102214D01*
X-10216141Y9034834D01*
X-10218535Y9031109D01*
X-10253868Y8978231D01*
X-10253869Y8978230D01*
X-10265500Y8919753D01*
X-10265500Y8180248D01*
X-10253869Y8121771D01*
X-10253868Y8121770D01*
X-10209553Y8055448D01*
X-10143231Y8011133D01*
X-10143230Y8011132D01*
X-10084753Y7999501D01*
X-10084750Y7999500D01*
X-10084748Y7999500D01*
X-9345250Y7999500D01*
X-9345249Y7999501D01*
X-9330432Y8002448D01*
X-9286771Y8011132D01*
X-9286771Y8011133D01*
X-9286769Y8011133D01*
X-9220448Y8055448D01*
X-9220447Y8055449D01*
X-9211812Y8064083D01*
X-9209846Y8062117D01*
X-9170163Y8095288D01*
X-9100839Y8104004D01*
X-9068994Y8091807D01*
X-9068115Y8093729D01*
X-9060055Y8090049D01*
X-9060053Y8090047D01*
X-8942222Y8055449D01*
X-8921964Y8049501D01*
X-8921962Y8049500D01*
X-8921961Y8049500D01*
X-8778038Y8049500D01*
X-8778038Y8049501D01*
X-8639947Y8090047D01*
X-8576422Y8130873D01*
X-8509382Y8150557D01*
X-8442343Y8130872D01*
X-8406280Y8095448D01*
X-8379553Y8055448D01*
X-8313231Y8011133D01*
X-8313230Y8011132D01*
X-8254753Y7999501D01*
X-8254750Y7999500D01*
X-7589478Y7999500D01*
X-7522439Y7979815D01*
X-7476684Y7927011D01*
X-7466740Y7857853D01*
X-7495765Y7794297D01*
X-7501797Y7787819D01*
X-9877796Y5411819D01*
X-9939119Y5378334D01*
X-9965477Y5375500D01*
X-11951857Y5375500D01*
X-12053116Y5333556D01*
X-12187819Y5198852D01*
X-12249142Y5165367D01*
X-12318834Y5170351D01*
X-12374767Y5212223D01*
X-12399184Y5277687D01*
X-12399500Y5286533D01*
X-12399500Y6204270D01*
X-12402354Y6234700D01*
X-12402354Y6234702D01*
X-12447207Y6362881D01*
X-12447208Y6362883D01*
X-12527850Y6472150D01*
X-12637118Y6552793D01*
X-12637120Y6552794D01*
X-12765300Y6597647D01*
X-12795730Y6600500D01*
X-12795734Y6600500D01*
X-13604266Y6600500D01*
X-13604270Y6600500D01*
X-13634700Y6597647D01*
X-13634702Y6597647D01*
X-13762881Y6552794D01*
X-13762883Y6552793D01*
X-13872150Y6472150D01*
X-13952793Y6362883D01*
X-13952794Y6362881D01*
X-13997647Y6234702D01*
X-13997647Y6234700D01*
X-14000500Y6204270D01*
X-14000500Y4795731D01*
X-13997647Y4765301D01*
X-13997647Y4765299D01*
X-13952794Y4637120D01*
X-13952793Y4637118D01*
X-13872150Y4527850D01*
X-13762882Y4447207D01*
X-13720155Y4432256D01*
X-13634701Y4402354D01*
X-13604270Y4399500D01*
X-13604266Y4399500D01*
X-13286533Y4399500D01*
X-13219494Y4379815D01*
X-13173739Y4327011D01*
X-13163795Y4257853D01*
X-13192820Y4194297D01*
X-13198852Y4187819D01*
X-14774852Y2611819D01*
X-14836175Y2578334D01*
X-14862533Y2575500D01*
X-16854800Y2575500D01*
X-16956059Y2533556D01*
X-17656066Y1833549D01*
X-17661031Y1828585D01*
X-17722357Y1795106D01*
X-17730822Y1793571D01*
X-17751391Y1790574D01*
X-17751393Y1790573D01*
X-17856486Y1739197D01*
X-17912319Y1683363D01*
X-17973642Y1649878D01*
X-18043334Y1654862D01*
X-18087681Y1683363D01*
X-18143515Y1739197D01*
X-18248609Y1790574D01*
X-18316739Y1800500D01*
X-18316740Y1800500D01*
X-18683260Y1800500D01*
X-18695663Y1798693D01*
X-18710414Y1796544D01*
X-18779591Y1806359D01*
X-18826100Y1846508D01*
X-18827537Y1845393D01*
X-18832322Y1851562D01*
X-18948439Y1967679D01*
X-18948448Y1967686D01*
X-19089804Y2051283D01*
X-19089807Y2051284D01*
X-19247506Y2097100D01*
X-19247503Y2097100D01*
X-19250000Y2097297D01*
X-19250000Y-447295D01*
X-19249999Y-447295D01*
X-19247512Y-447100D01*
X-19247506Y-447099D01*
X-19159672Y-421581D01*
X-19089803Y-421780D01*
X-19031133Y-459722D01*
X-19002339Y-523010D01*
X-18985166Y-642456D01*
X-18930968Y-761131D01*
X-18925377Y-773373D01*
X-18831128Y-882143D01*
X-18710053Y-959953D01*
X-18710050Y-959954D01*
X-18710051Y-959954D01*
X-18611290Y-988952D01*
X-18573664Y-1000000D01*
X-18571964Y-1000499D01*
X-18571962Y-1000500D01*
X-18571961Y-1000500D01*
X-18428038Y-1000500D01*
X-18428038Y-1000499D01*
X-18308157Y-965300D01*
X-18289950Y-959954D01*
X-18289950Y-959953D01*
X-18289947Y-959953D01*
X-18168872Y-882143D01*
X-18074623Y-773373D01*
X-18014835Y-642457D01*
X-17994353Y-500000D01*
X-18014835Y-357543D01*
X-18074623Y-226627D01*
X-18094805Y-203336D01*
X-18123829Y-139781D01*
X-18113885Y-70622D01*
X-18088812Y-34493D01*
X-18087720Y-33400D01*
X-18026415Y111D01*
X-17956721Y-4841D01*
X-17912320Y-33362D01*
X-17856486Y-89196D01*
X-17856485Y-89196D01*
X-17856483Y-89198D01*
X-17751393Y-140573D01*
X-17730830Y-143569D01*
X-17683261Y-150500D01*
X-17683260Y-150500D01*
X-17316739Y-150500D01*
X-17294029Y-147191D01*
X-17248607Y-140573D01*
X-17143517Y-89198D01*
X-17118383Y-64064D01*
X-17087681Y-33363D01*
X-17026358Y122D01*
X-16956666Y-4862D01*
X-16912319Y-33363D01*
X-16856486Y-89196D01*
X-16856485Y-89196D01*
X-16856483Y-89198D01*
X-16751393Y-140573D01*
X-16730830Y-143569D01*
X-16683261Y-150500D01*
X-16683260Y-150500D01*
X-16316739Y-150500D01*
X-16294029Y-147191D01*
X-16248607Y-140573D01*
X-16143517Y-89198D01*
X-16118383Y-64064D01*
X-16087681Y-33363D01*
X-16026358Y122D01*
X-15956666Y-4862D01*
X-15912319Y-33363D01*
X-15856486Y-89196D01*
X-15856485Y-89196D01*
X-15856483Y-89198D01*
X-15751393Y-140573D01*
X-15730824Y-143569D01*
X-15667324Y-172713D01*
X-15661023Y-178591D01*
X-15530188Y-309427D01*
X-15406057Y-433558D01*
X-15406055Y-433560D01*
X-15327742Y-465997D01*
X-15304799Y-475500D01*
X-15304797Y-475500D01*
X-13907059Y-475500D01*
X-13840020Y-495185D01*
X-13794265Y-547989D01*
X-13784321Y-617147D01*
X-13813346Y-680703D01*
X-13833424Y-699269D01*
X-13846765Y-709115D01*
X-13872150Y-727850D01*
X-13952793Y-837117D01*
X-13952794Y-837119D01*
X-13997647Y-965298D01*
X-13997647Y-965300D01*
X-14000500Y-995730D01*
X-14000500Y-2404269D01*
X-13997647Y-2434699D01*
X-13997647Y-2434701D01*
X-13952794Y-2562880D01*
X-13952793Y-2562882D01*
X-13872150Y-2672150D01*
X-13762882Y-2752793D01*
X-13720155Y-2767744D01*
X-13634701Y-2797646D01*
X-13604270Y-2800500D01*
X-13604266Y-2800500D01*
X-12795730Y-2800500D01*
X-12765301Y-2797646D01*
X-12765299Y-2797646D01*
X-12701210Y-2775219D01*
X-12637118Y-2752793D01*
X-12527850Y-2672150D01*
X-12447207Y-2562882D01*
X-12424781Y-2498790D01*
X-12402354Y-2434701D01*
X-12402354Y-2434699D01*
X-12399500Y-2404269D01*
X-12399500Y-995730D01*
X-12402354Y-965300D01*
X-12402354Y-965298D01*
X-12447207Y-837119D01*
X-12447208Y-837117D01*
X-12462247Y-816740D01*
X-12527850Y-727850D01*
X-12637118Y-647207D01*
X-12637120Y-647206D01*
X-12765300Y-602353D01*
X-12795730Y-599500D01*
X-12795734Y-599500D01*
X-13604266Y-599500D01*
X-13606252Y-599686D01*
X-13625773Y-601516D01*
X-13694357Y-588174D01*
X-13744840Y-539870D01*
X-13761194Y-471942D01*
X-13738227Y-405954D01*
X-13725031Y-390381D01*
X-13690707Y-356058D01*
X-13648764Y-254800D01*
X-13648764Y1634523D01*
X-13629079Y1701562D01*
X-13612445Y1722204D01*
X-11446467Y3888181D01*
X-11385144Y3921666D01*
X-11358786Y3924500D01*
X-7995201Y3924500D01*
X-7995200Y3924500D01*
X-7893942Y3966443D01*
X-7816443Y4043942D01*
X-5887181Y5973204D01*
X-5825858Y6006689D01*
X-5756166Y6001705D01*
X-5700233Y5959833D01*
X-5675816Y5894369D01*
X-5675500Y5885523D01*
X-5675500Y3220936D01*
X-5642356Y3140921D01*
X-5642355Y3140919D01*
X-5633558Y3119679D01*
X-5451481Y2937601D01*
X-5417996Y2876278D01*
X-5422980Y2806586D01*
X-5432715Y2786320D01*
X-5476536Y2712978D01*
X-5495443Y2654789D01*
X-5495443Y2654786D01*
X-5505500Y2591288D01*
X-5505500Y1298995D01*
X-5502971Y1266862D01*
X-5498119Y1236223D01*
X-5497354Y1231718D01*
X-5497353Y1231715D01*
X-5461408Y1147617D01*
X-5461406Y1147613D01*
X-5439444Y1117386D01*
X-5415963Y1051580D01*
X-5431788Y983526D01*
X-5481893Y934831D01*
X-5539761Y920500D01*
X-5689523Y920500D01*
X-5756562Y940185D01*
X-5777204Y956819D01*
X-6253941Y1433556D01*
X-6253945Y1433559D01*
X-6279012Y1443942D01*
X-6355200Y1475500D01*
X-6783800Y1475500D01*
X-6850839Y1495185D01*
X-6896594Y1547989D01*
X-6906538Y1617147D01*
X-6877513Y1680703D01*
X-6824755Y1716541D01*
X-6772864Y1734699D01*
X-6737118Y1747207D01*
X-6627850Y1827850D01*
X-6547207Y1937118D01*
X-6507259Y2051283D01*
X-6502354Y2065299D01*
X-6502354Y2065301D01*
X-6499500Y2095731D01*
X-6499500Y2904270D01*
X-6502354Y2934700D01*
X-6502354Y2934702D01*
X-6547207Y3062881D01*
X-6547208Y3062883D01*
X-6582285Y3110411D01*
X-6627850Y3172150D01*
X-6737118Y3252793D01*
X-6737120Y3252794D01*
X-6865300Y3297647D01*
X-6895730Y3300500D01*
X-6895734Y3300500D01*
X-8304266Y3300500D01*
X-8304270Y3300500D01*
X-8334700Y3297647D01*
X-8334702Y3297647D01*
X-8462881Y3252794D01*
X-8462883Y3252793D01*
X-8572150Y3172150D01*
X-8652793Y3062883D01*
X-8652794Y3062881D01*
X-8697647Y2934702D01*
X-8697647Y2934700D01*
X-8700500Y2904270D01*
X-8700500Y2095731D01*
X-8697647Y2065301D01*
X-8697647Y2065299D01*
X-8663487Y1967679D01*
X-8652793Y1937118D01*
X-8572150Y1827850D01*
X-8462882Y1747207D01*
X-8430760Y1735967D01*
X-8375245Y1716541D01*
X-8318469Y1675819D01*
X-8292722Y1610866D01*
X-8306179Y1542305D01*
X-8354566Y1491902D01*
X-8416200Y1475500D01*
X-9093807Y1475500D01*
X-9160846Y1495185D01*
X-9205207Y1545039D01*
X-9210803Y1556485D01*
X-9293515Y1639197D01*
X-9398609Y1690574D01*
X-9466739Y1700500D01*
X-9466740Y1700500D01*
X-10783260Y1700500D01*
X-10783261Y1700500D01*
X-10851392Y1690574D01*
X-10956486Y1639197D01*
X-11039197Y1556486D01*
X-11090574Y1451392D01*
X-11100500Y1383261D01*
X-11100500Y1016740D01*
X-11090574Y948609D01*
X-11039197Y843515D01*
X-10983363Y787681D01*
X-10949878Y726358D01*
X-10954862Y656666D01*
X-10983363Y612319D01*
X-11039197Y556486D01*
X-11090574Y451392D01*
X-11100500Y383261D01*
X-11100500Y16740D01*
X-11090574Y-51391D01*
X-11039197Y-156485D01*
X-10983363Y-212319D01*
X-10949878Y-273642D01*
X-10954862Y-343334D01*
X-10983363Y-387681D01*
X-11039197Y-443514D01*
X-11090573Y-548607D01*
X-11090574Y-548609D01*
X-11093571Y-569178D01*
X-11122717Y-632678D01*
X-11128587Y-638972D01*
X-11133555Y-643940D01*
X-11168312Y-727850D01*
X-11175499Y-745200D01*
X-11175499Y-854800D01*
X-11133556Y-956058D01*
X-11133555Y-956059D01*
X-11128594Y-961020D01*
X-11095109Y-1022343D01*
X-11093571Y-1030821D01*
X-11090574Y-1051389D01*
X-11090573Y-1051393D01*
X-11048412Y-1137635D01*
X-11039197Y-1156485D01*
X-10956486Y-1239196D01*
X-10956485Y-1239196D01*
X-10956483Y-1239198D01*
X-10851393Y-1290573D01*
X-10819739Y-1295185D01*
X-10783261Y-1300500D01*
X-10783260Y-1300500D01*
X-9466739Y-1300500D01*
X-9444029Y-1297191D01*
X-9398607Y-1290573D01*
X-9293517Y-1239198D01*
X-9210802Y-1156483D01*
X-9207644Y-1150022D01*
X-9205207Y-1145039D01*
X-9158079Y-1093457D01*
X-9093807Y-1075500D01*
X-8416200Y-1075500D01*
X-8349161Y-1095185D01*
X-8303406Y-1147989D01*
X-8293462Y-1217147D01*
X-8322487Y-1280703D01*
X-8375245Y-1316541D01*
X-8462881Y-1347206D01*
X-8462883Y-1347207D01*
X-8572150Y-1427850D01*
X-8652793Y-1537117D01*
X-8652794Y-1537119D01*
X-8697647Y-1665298D01*
X-8697647Y-1665300D01*
X-8700500Y-1695730D01*
X-8700500Y-2504269D01*
X-8697647Y-2534699D01*
X-8697647Y-2534701D01*
X-8656756Y-2651557D01*
X-8652793Y-2662882D01*
X-8572150Y-2772150D01*
X-8462882Y-2852793D01*
X-8434055Y-2862880D01*
X-8334701Y-2897646D01*
X-8304270Y-2900500D01*
X-8304266Y-2900500D01*
X-6895730Y-2900500D01*
X-6865301Y-2897646D01*
X-6865299Y-2897646D01*
X-6801210Y-2875219D01*
X-6737118Y-2852793D01*
X-6627850Y-2772150D01*
X-6547207Y-2662882D01*
X-6524781Y-2598790D01*
X-6502354Y-2534701D01*
X-6502354Y-2534699D01*
X-6499500Y-2504269D01*
X-6499500Y-1695730D01*
X-6502354Y-1665300D01*
X-6502354Y-1665298D01*
X-6547207Y-1537119D01*
X-6547208Y-1537117D01*
X-6554950Y-1526627D01*
X-6627850Y-1427850D01*
X-6737118Y-1347207D01*
X-6737120Y-1347206D01*
X-6824755Y-1316541D01*
X-6881531Y-1275819D01*
X-6907278Y-1210866D01*
X-6893821Y-1142305D01*
X-6845434Y-1091902D01*
X-6783800Y-1075500D01*
X-6151979Y-1075500D01*
X-6084940Y-1095185D01*
X-6039598Y-1147094D01*
X-6024065Y-1180404D01*
X-5940404Y-1264065D01*
X-5833173Y-1314068D01*
X-5784317Y-1320500D01*
X-5784316Y-1320500D01*
X-5435683Y-1320500D01*
X-5418950Y-1318297D01*
X-5386827Y-1314068D01*
X-5279596Y-1264065D01*
X-5195935Y-1180404D01*
X-5195935Y-1180403D01*
X-5188264Y-1172733D01*
X-5185436Y-1175561D01*
X-5147023Y-1144843D01*
X-5077526Y-1137635D01*
X-5015165Y-1169143D01*
X-5011907Y-1172903D01*
X-5011736Y-1172733D01*
X-5004065Y-1180404D01*
X-4920404Y-1264065D01*
X-4813173Y-1314068D01*
X-4764317Y-1320500D01*
X-4764316Y-1320500D01*
X-4415683Y-1320500D01*
X-4398950Y-1318297D01*
X-4366827Y-1314068D01*
X-4259596Y-1264065D01*
X-4175935Y-1180404D01*
X-4125932Y-1073173D01*
X-4119500Y-1024316D01*
X-4119500Y-930247D01*
X-3450500Y-930247D01*
X-3450500Y-2669752D01*
X-3438869Y-2728229D01*
X-3438868Y-2728230D01*
X-3394553Y-2794552D01*
X-3328231Y-2838867D01*
X-3328230Y-2838868D01*
X-3269753Y-2850499D01*
X-3269750Y-2850500D01*
X-3269748Y-2850500D01*
X-2330250Y-2850500D01*
X-2330249Y-2850499D01*
X-2315432Y-2847552D01*
X-2271771Y-2838868D01*
X-2271771Y-2838867D01*
X-2271769Y-2838867D01*
X-2205448Y-2794552D01*
X-2161133Y-2728231D01*
X-2161133Y-2728229D01*
X-2161132Y-2728229D01*
X-2149501Y-2669752D01*
X-2149500Y-2669750D01*
X-2149500Y-2262584D01*
X-2129815Y-2195545D01*
X-2077011Y-2149790D01*
X-2007853Y-2139846D01*
X-1944297Y-2168871D01*
X-1931791Y-2181378D01*
X-1931128Y-2182143D01*
X-1931127Y-2182144D01*
X-1910274Y-2195545D01*
X-1810053Y-2259953D01*
X-1810050Y-2259954D01*
X-1810051Y-2259954D01*
X-1671964Y-2300499D01*
X-1671962Y-2300500D01*
X-1671961Y-2300500D01*
X-1528038Y-2300500D01*
X-1528038Y-2300499D01*
X-1389947Y-2259953D01*
X-1268872Y-2182143D01*
X-1174623Y-2073373D01*
X-1114835Y-1942457D01*
X-1094353Y-1800000D01*
X-1114835Y-1657543D01*
X-1174623Y-1526627D01*
X-1268872Y-1417857D01*
X-1389947Y-1340047D01*
X-1389949Y-1340046D01*
X-1389951Y-1340045D01*
X-1389950Y-1340045D01*
X-1528037Y-1299500D01*
X-1528039Y-1299500D01*
X-1671961Y-1299500D01*
X-1671964Y-1299500D01*
X-1810051Y-1340045D01*
X-1931128Y-1417857D01*
X-1931789Y-1418620D01*
X-1932638Y-1419165D01*
X-1937828Y-1423663D01*
X-1938475Y-1422916D01*
X-1990568Y-1456393D01*
X-2060437Y-1456391D01*
X-2119215Y-1418616D01*
X-2148238Y-1355059D01*
X-2149500Y-1337415D01*
X-2149500Y-930249D01*
X-2149501Y-930247D01*
X-2161132Y-871770D01*
X-2161133Y-871769D01*
X-2205448Y-805447D01*
X-2271770Y-761132D01*
X-2271771Y-761131D01*
X-2330248Y-749500D01*
X-2330252Y-749500D01*
X-3269748Y-749500D01*
X-3269753Y-749500D01*
X-3328230Y-761131D01*
X-3328231Y-761132D01*
X-3394553Y-805447D01*
X-3438868Y-871769D01*
X-3438869Y-871770D01*
X-3450500Y-930247D01*
X-4119500Y-930247D01*
X-4119500Y-760477D01*
X-4099815Y-693438D01*
X-4083181Y-672796D01*
X-3522203Y-111819D01*
X-3460880Y-78334D01*
X-3434522Y-75500D01*
X1101037Y-75500D01*
X1168076Y-95185D01*
X1213831Y-147989D01*
X1223775Y-217147D01*
X1194750Y-280703D01*
X1188718Y-287181D01*
X762718Y-713181D01*
X701395Y-746666D01*
X675037Y-749500D01*
X130247Y-749500D01*
X71770Y-761131D01*
X71769Y-761132D01*
X5447Y-805447D01*
X-38868Y-871769D01*
X-38869Y-871770D01*
X-50500Y-930247D01*
X-50500Y-2669752D01*
X-38869Y-2728229D01*
X-38868Y-2728230D01*
X5447Y-2794552D01*
X71769Y-2838867D01*
X71770Y-2838868D01*
X130247Y-2850499D01*
X130250Y-2850500D01*
X130252Y-2850500D01*
X1069750Y-2850500D01*
X1069751Y-2850499D01*
X1084568Y-2847552D01*
X1128229Y-2838868D01*
X1128229Y-2838867D01*
X1128231Y-2838867D01*
X1194552Y-2794552D01*
X1238867Y-2728231D01*
X1238867Y-2728229D01*
X1238868Y-2728229D01*
X1250499Y-2669752D01*
X1250500Y-2669750D01*
X1250500Y-1055991D01*
X1270185Y-988952D01*
X1286819Y-968310D01*
X1652776Y-602353D01*
X2019085Y-236043D01*
X2080406Y-202560D01*
X2150097Y-207544D01*
X2206031Y-249416D01*
X2218162Y-269262D01*
X2241832Y-317678D01*
X2260803Y-356485D01*
X2316637Y-412319D01*
X2350122Y-473642D01*
X2345138Y-543334D01*
X2316637Y-587681D01*
X2260803Y-643514D01*
X2209426Y-748608D01*
X2199500Y-816739D01*
X2199500Y-1183260D01*
X2209426Y-1251391D01*
X2260803Y-1356485D01*
X2343514Y-1439196D01*
X2343515Y-1439196D01*
X2343517Y-1439198D01*
X2448607Y-1490573D01*
X2482673Y-1495536D01*
X2516739Y-1500500D01*
X2516740Y-1500500D01*
X3833261Y-1500500D01*
X3855971Y-1497191D01*
X3901393Y-1490573D01*
X4006483Y-1439198D01*
X4034089Y-1411592D01*
X4095411Y-1378106D01*
X4165103Y-1383090D01*
X4188810Y-1394957D01*
X4289944Y-1459952D01*
X4289949Y-1459954D01*
X4394230Y-1490573D01*
X4424633Y-1499500D01*
X4428036Y-1500499D01*
X4428038Y-1500500D01*
X4576209Y-1500500D01*
X4643248Y-1520185D01*
X4689003Y-1572989D01*
X4698947Y-1642147D01*
X4675979Y-1698131D01*
X4662613Y-1716243D01*
X4647207Y-1737117D01*
X4647206Y-1737119D01*
X4602353Y-1865298D01*
X4602353Y-1865300D01*
X4599500Y-1895730D01*
X4599500Y-2704269D01*
X4602353Y-2734699D01*
X4602353Y-2734701D01*
X4647206Y-2862880D01*
X4647207Y-2862882D01*
X4727850Y-2972150D01*
X4837118Y-3052793D01*
X4879845Y-3067744D01*
X4965299Y-3097646D01*
X4995730Y-3100500D01*
X4995734Y-3100500D01*
X6404270Y-3100500D01*
X6434699Y-3097646D01*
X6434701Y-3097646D01*
X6498790Y-3075219D01*
X6562882Y-3052793D01*
X6672150Y-2972150D01*
X6752793Y-2862882D01*
X6776703Y-2794552D01*
X6797646Y-2734701D01*
X6797646Y-2734699D01*
X6800500Y-2704269D01*
X6800500Y-1895730D01*
X6797646Y-1865300D01*
X6797646Y-1865298D01*
X6752793Y-1737119D01*
X6752792Y-1737117D01*
X6752790Y-1737114D01*
X6672150Y-1627850D01*
X6562882Y-1547207D01*
X6562880Y-1547206D01*
X6434700Y-1502353D01*
X6404270Y-1499500D01*
X6404266Y-1499500D01*
X5000959Y-1499500D01*
X4933920Y-1479815D01*
X4888165Y-1427011D01*
X4878221Y-1357853D01*
X4907246Y-1294297D01*
X4910473Y-1290573D01*
X4925377Y-1273373D01*
X4985165Y-1142457D01*
X5005647Y-1000000D01*
X4985165Y-857543D01*
X4925377Y-726627D01*
X4831128Y-617857D01*
X4710053Y-540047D01*
X4710051Y-540046D01*
X4710049Y-540045D01*
X4710050Y-540045D01*
X4571963Y-499500D01*
X4571961Y-499500D01*
X4428039Y-499500D01*
X4428036Y-499500D01*
X4289949Y-540045D01*
X4188810Y-605043D01*
X4121770Y-624727D01*
X4054731Y-605042D01*
X4034150Y-588468D01*
X4033422Y-587741D01*
X3999895Y-526441D01*
X4004831Y-456746D01*
X4033360Y-412320D01*
X4089198Y-356483D01*
X4140573Y-251393D01*
X4150500Y-183260D01*
X4150500Y183260D01*
X4140573Y251393D01*
X4089198Y356483D01*
X4089196Y356485D01*
X4089196Y356486D01*
X4006485Y439197D01*
X3901391Y490574D01*
X3856621Y497097D01*
X3793120Y526242D01*
X3755457Y585091D01*
X3750500Y619801D01*
X3750500Y1704270D01*
X4599500Y1704270D01*
X4599500Y895731D01*
X4602353Y865301D01*
X4602353Y865299D01*
X4645032Y743334D01*
X4647207Y737118D01*
X4727850Y627850D01*
X4837118Y547207D01*
X4876133Y533555D01*
X4965299Y502354D01*
X4995730Y499500D01*
X4995734Y499500D01*
X6404270Y499500D01*
X6434699Y502354D01*
X6434701Y502354D01*
X6502967Y526242D01*
X6562882Y547207D01*
X6672150Y627850D01*
X6752793Y737118D01*
X6790023Y843515D01*
X6797646Y865299D01*
X6797646Y865301D01*
X6800500Y895731D01*
X6800500Y1704270D01*
X6797646Y1734700D01*
X6797646Y1734702D01*
X6763055Y1833556D01*
X6752793Y1862882D01*
X6672150Y1972150D01*
X6562882Y2052793D01*
X6562880Y2052794D01*
X6434700Y2097647D01*
X6404270Y2100500D01*
X6404266Y2100500D01*
X4995734Y2100500D01*
X4995730Y2100500D01*
X4965300Y2097647D01*
X4965298Y2097647D01*
X4837119Y2052794D01*
X4837117Y2052793D01*
X4727850Y1972150D01*
X4647207Y1862883D01*
X4647206Y1862881D01*
X4602353Y1734702D01*
X4602353Y1734700D01*
X4599500Y1704270D01*
X3750500Y1704270D01*
X3750500Y6448023D01*
X3770185Y6515062D01*
X3822989Y6560817D01*
X3892147Y6570761D01*
X3955703Y6541736D01*
X3962181Y6535704D01*
X8263181Y2234704D01*
X8296666Y2173381D01*
X8299500Y2147023D01*
X8299500Y624500D01*
X8279815Y557461D01*
X8227011Y511706D01*
X8175500Y500500D01*
X7916739Y500500D01*
X7848608Y490574D01*
X7743514Y439197D01*
X7660803Y356486D01*
X7609426Y251392D01*
X7599500Y183261D01*
X7599500Y-183260D01*
X7609426Y-251391D01*
X7660803Y-356485D01*
X7716637Y-412319D01*
X7750122Y-473642D01*
X7745138Y-543334D01*
X7716637Y-587681D01*
X7660803Y-643514D01*
X7609426Y-748608D01*
X7599500Y-816739D01*
X7599500Y-1183260D01*
X7609426Y-1251391D01*
X7660803Y-1356485D01*
X7743514Y-1439196D01*
X7743515Y-1439196D01*
X7743517Y-1439198D01*
X7848607Y-1490573D01*
X7882673Y-1495536D01*
X7916739Y-1500500D01*
X7916740Y-1500500D01*
X9233261Y-1500500D01*
X9255971Y-1497191D01*
X9301393Y-1490573D01*
X9406483Y-1439198D01*
X9479373Y-1366307D01*
X9540694Y-1332824D01*
X9610386Y-1337808D01*
X9660764Y-1372786D01*
X9665374Y-1378106D01*
X9668873Y-1382144D01*
X9688811Y-1394957D01*
X9789947Y-1459953D01*
X9789950Y-1459954D01*
X9789949Y-1459954D01*
X9894230Y-1490573D01*
X9924633Y-1499500D01*
X9928036Y-1500499D01*
X9928038Y-1500500D01*
X9976209Y-1500500D01*
X10043248Y-1520185D01*
X10089003Y-1572989D01*
X10098947Y-1642147D01*
X10075979Y-1698131D01*
X10062613Y-1716243D01*
X10047207Y-1737117D01*
X10047206Y-1737119D01*
X10002353Y-1865298D01*
X10002353Y-1865300D01*
X9999500Y-1895730D01*
X9999500Y-2704269D01*
X10002353Y-2734699D01*
X10002353Y-2734701D01*
X10047206Y-2862880D01*
X10047207Y-2862882D01*
X10127850Y-2972150D01*
X10237118Y-3052793D01*
X10279845Y-3067744D01*
X10365299Y-3097646D01*
X10395730Y-3100500D01*
X10395734Y-3100500D01*
X11804270Y-3100500D01*
X11834699Y-3097646D01*
X11834701Y-3097646D01*
X11898790Y-3075219D01*
X11962882Y-3052793D01*
X12072150Y-2972150D01*
X12152793Y-2862882D01*
X12176703Y-2794552D01*
X12197646Y-2734701D01*
X12197646Y-2734699D01*
X12200500Y-2704269D01*
X12200500Y-1895730D01*
X12197646Y-1865300D01*
X12197646Y-1865298D01*
X12152793Y-1737119D01*
X12152792Y-1737117D01*
X12152790Y-1737114D01*
X12072150Y-1627850D01*
X11962882Y-1547207D01*
X11962880Y-1547206D01*
X11834700Y-1502353D01*
X11804270Y-1499500D01*
X11804266Y-1499500D01*
X10500959Y-1499500D01*
X10433920Y-1479815D01*
X10388165Y-1427011D01*
X10378221Y-1357853D01*
X10407246Y-1294297D01*
X10410473Y-1290573D01*
X10425377Y-1273373D01*
X10485165Y-1142457D01*
X10505647Y-1000000D01*
X10485165Y-857543D01*
X10425377Y-726627D01*
X10331128Y-617857D01*
X10210053Y-540047D01*
X10210051Y-540046D01*
X10210049Y-540045D01*
X10210050Y-540045D01*
X10071963Y-499500D01*
X10071961Y-499500D01*
X9928039Y-499500D01*
X9928036Y-499500D01*
X9789949Y-540045D01*
X9668872Y-617857D01*
X9668868Y-617860D01*
X9660764Y-627213D01*
X9601986Y-664987D01*
X9532116Y-664985D01*
X9479372Y-633690D01*
X9433363Y-587681D01*
X9399878Y-526358D01*
X9404862Y-456666D01*
X9433363Y-412319D01*
X9489196Y-356485D01*
X9489198Y-356483D01*
X9540573Y-251393D01*
X9550500Y-183260D01*
X9550500Y183260D01*
X9540573Y251393D01*
X9489198Y356483D01*
X9489196Y356485D01*
X9489196Y356486D01*
X9406485Y439197D01*
X9301391Y490574D01*
X9233261Y500500D01*
X9233260Y500500D01*
X8974500Y500500D01*
X8907461Y520185D01*
X8861706Y572989D01*
X8850500Y624500D01*
X8850500Y2367299D01*
X8850499Y2367303D01*
X8813735Y2456058D01*
X8813734Y2456061D01*
X8808558Y2468558D01*
X1436819Y9840297D01*
X1403334Y9901620D01*
X1400500Y9927978D01*
X1400500Y10200500D01*
X1420185Y10267539D01*
X1472989Y10313294D01*
X1524500Y10324500D01*
X1525326Y10324500D01*
X1797023Y10324500D01*
X1864062Y10304815D01*
X1884704Y10288181D01*
X10083343Y2089541D01*
X10116828Y2028218D01*
X10111844Y1958526D01*
X10095433Y1928227D01*
X10047207Y1862883D01*
X10047206Y1862881D01*
X10002353Y1734702D01*
X10002353Y1734700D01*
X9999500Y1704270D01*
X9999500Y895731D01*
X10002353Y865301D01*
X10002353Y865299D01*
X10045032Y743334D01*
X10047207Y737118D01*
X10127850Y627850D01*
X10237118Y547207D01*
X10276133Y533555D01*
X10365299Y502354D01*
X10395730Y499500D01*
X10395734Y499500D01*
X11804270Y499500D01*
X11834699Y502354D01*
X11834701Y502354D01*
X11902967Y526242D01*
X11962882Y547207D01*
X12072150Y627850D01*
X12152793Y737118D01*
X12190023Y843515D01*
X12197646Y865299D01*
X12197646Y865301D01*
X12200500Y895731D01*
X12200500Y1189201D01*
X12220185Y1256240D01*
X12272989Y1301995D01*
X12342147Y1311939D01*
X12405703Y1282914D01*
X12412181Y1276882D01*
X13109009Y580054D01*
X13142494Y518731D01*
X13137510Y449039D01*
X13109010Y404693D01*
X13060803Y356486D01*
X13009426Y251392D01*
X12999500Y183261D01*
X12999500Y-183260D01*
X13009426Y-251391D01*
X13060803Y-356485D01*
X13116637Y-412319D01*
X13150122Y-473642D01*
X13145138Y-543334D01*
X13116637Y-587681D01*
X13060803Y-643514D01*
X13009426Y-748608D01*
X12999500Y-816739D01*
X12999500Y-1183260D01*
X13009426Y-1251391D01*
X13060803Y-1356485D01*
X13143514Y-1439196D01*
X13143515Y-1439196D01*
X13143517Y-1439198D01*
X13248607Y-1490573D01*
X13282673Y-1495536D01*
X13316739Y-1500500D01*
X13316740Y-1500500D01*
X14633261Y-1500500D01*
X14655971Y-1497191D01*
X14701393Y-1490573D01*
X14806483Y-1439198D01*
X14889198Y-1356483D01*
X14894793Y-1345039D01*
X14941921Y-1293457D01*
X15006193Y-1275500D01*
X15019837Y-1275500D01*
X15086876Y-1295185D01*
X15113548Y-1318295D01*
X15168872Y-1382143D01*
X15289947Y-1459953D01*
X15289950Y-1459954D01*
X15289949Y-1459954D01*
X15417198Y-1497317D01*
X15475976Y-1535091D01*
X15505002Y-1598646D01*
X15495059Y-1667805D01*
X15482035Y-1689926D01*
X15447209Y-1737114D01*
X15447206Y-1737119D01*
X15402353Y-1865298D01*
X15402353Y-1865300D01*
X15399500Y-1895730D01*
X15399500Y-2704269D01*
X15402353Y-2734699D01*
X15402353Y-2734701D01*
X15447206Y-2862880D01*
X15447207Y-2862882D01*
X15527850Y-2972150D01*
X15637118Y-3052793D01*
X15679845Y-3067744D01*
X15765299Y-3097646D01*
X15795730Y-3100500D01*
X15795734Y-3100500D01*
X17204270Y-3100500D01*
X17234699Y-3097646D01*
X17234701Y-3097646D01*
X17298790Y-3075219D01*
X17362882Y-3052793D01*
X17472150Y-2972150D01*
X17552793Y-2862882D01*
X17576703Y-2794552D01*
X17597646Y-2734701D01*
X17597646Y-2734699D01*
X17600500Y-2704269D01*
X17600500Y-1895730D01*
X17597646Y-1865300D01*
X17597646Y-1865298D01*
X17552793Y-1737119D01*
X17552792Y-1737117D01*
X17552790Y-1737114D01*
X17472150Y-1627850D01*
X17362882Y-1547207D01*
X17362880Y-1547206D01*
X17234700Y-1502353D01*
X17204270Y-1499500D01*
X17204266Y-1499500D01*
X16000959Y-1499500D01*
X15933920Y-1479815D01*
X15888165Y-1427011D01*
X15878221Y-1357853D01*
X15907246Y-1294297D01*
X15910473Y-1290573D01*
X15925377Y-1273373D01*
X15985165Y-1142457D01*
X16005647Y-1000000D01*
X15985165Y-857543D01*
X15925377Y-726627D01*
X15831128Y-617857D01*
X15710053Y-540047D01*
X15710051Y-540046D01*
X15710049Y-540045D01*
X15710050Y-540045D01*
X15571963Y-499500D01*
X15571961Y-499500D01*
X15428039Y-499500D01*
X15428036Y-499500D01*
X15289949Y-540045D01*
X15168873Y-617856D01*
X15168872Y-617856D01*
X15168872Y-617857D01*
X15121268Y-672796D01*
X15113550Y-681703D01*
X15054772Y-719477D01*
X15019837Y-724500D01*
X15006193Y-724500D01*
X14939154Y-704815D01*
X14894793Y-654961D01*
X14889197Y-643515D01*
X14833363Y-587681D01*
X14799878Y-526358D01*
X14804862Y-456666D01*
X14833363Y-412319D01*
X14889196Y-356485D01*
X14889198Y-356483D01*
X14940573Y-251393D01*
X14950500Y-183260D01*
X14950500Y183260D01*
X14940573Y251393D01*
X14889198Y356483D01*
X14889196Y356485D01*
X14889196Y356486D01*
X14806485Y439197D01*
X14701391Y490574D01*
X14633261Y500500D01*
X14633260Y500500D01*
X14215476Y500500D01*
X14148437Y520185D01*
X14135662Y530479D01*
X14131059Y533555D01*
X14131058Y533556D01*
X14029800Y575499D01*
X13944156Y575499D01*
X13877117Y595184D01*
X13856475Y611818D01*
X12764023Y1704270D01*
X15399500Y1704270D01*
X15399500Y895731D01*
X15402353Y865301D01*
X15402353Y865299D01*
X15445032Y743334D01*
X15447207Y737118D01*
X15527850Y627850D01*
X15637118Y547207D01*
X15676133Y533555D01*
X15765299Y502354D01*
X15795730Y499500D01*
X15795734Y499500D01*
X17204270Y499500D01*
X17234699Y502354D01*
X17234701Y502354D01*
X17302967Y526242D01*
X17362882Y547207D01*
X17472150Y627850D01*
X17552793Y737118D01*
X17590023Y843515D01*
X17597646Y865299D01*
X17597646Y865301D01*
X17600500Y895731D01*
X17600500Y1704270D01*
X17597646Y1734700D01*
X17597646Y1734702D01*
X17563055Y1833556D01*
X17552793Y1862882D01*
X17472150Y1972150D01*
X17362882Y2052793D01*
X17362880Y2052794D01*
X17234700Y2097647D01*
X17204270Y2100500D01*
X17204266Y2100500D01*
X15795734Y2100500D01*
X15795730Y2100500D01*
X15765300Y2097647D01*
X15765298Y2097647D01*
X15637119Y2052794D01*
X15637117Y2052793D01*
X15527850Y1972150D01*
X15447207Y1862883D01*
X15447206Y1862881D01*
X15402353Y1734702D01*
X15402353Y1734700D01*
X15399500Y1704270D01*
X12764023Y1704270D01*
X12109737Y2358556D01*
X12109733Y2358559D01*
X12090699Y2366443D01*
X12008478Y2400500D01*
X10602978Y2400500D01*
X10535939Y2420185D01*
X10515297Y2436819D01*
X7164297Y5787819D01*
X7130812Y5849142D01*
X7135796Y5918834D01*
X7177668Y5974767D01*
X7243132Y5999184D01*
X7251978Y5999500D01*
X8233261Y5999500D01*
X8255971Y6002809D01*
X8301393Y6009427D01*
X8406483Y6060802D01*
X8479373Y6133693D01*
X8540694Y6167176D01*
X8610386Y6162192D01*
X8660764Y6127214D01*
X8668872Y6117857D01*
X8668873Y6117856D01*
X8697436Y6099500D01*
X8789947Y6040047D01*
X8789950Y6040046D01*
X8789949Y6040046D01*
X8894230Y6009427D01*
X8924633Y6000500D01*
X8928036Y5999501D01*
X8928038Y5999500D01*
X8976209Y5999500D01*
X9043248Y5979815D01*
X9089003Y5927011D01*
X9098947Y5857853D01*
X9075979Y5801869D01*
X9074211Y5799471D01*
X9047207Y5762883D01*
X9047206Y5762881D01*
X9002353Y5634702D01*
X9002353Y5634700D01*
X8999500Y5604270D01*
X8999500Y4795731D01*
X9002353Y4765301D01*
X9002353Y4765299D01*
X9047206Y4637120D01*
X9047207Y4637118D01*
X9127850Y4527850D01*
X9237118Y4447207D01*
X9279845Y4432256D01*
X9365299Y4402354D01*
X9395730Y4399500D01*
X9395734Y4399500D01*
X10804270Y4399500D01*
X10834699Y4402354D01*
X10834701Y4402354D01*
X10898790Y4424781D01*
X10962882Y4447207D01*
X11072150Y4527850D01*
X11152793Y4637118D01*
X11175219Y4701210D01*
X11197646Y4765299D01*
X11197646Y4765301D01*
X11200500Y4795731D01*
X11200500Y5604270D01*
X11197646Y5634700D01*
X11197646Y5634702D01*
X11152793Y5762881D01*
X11152792Y5762883D01*
X11152790Y5762886D01*
X11072150Y5872150D01*
X10962882Y5952793D01*
X10962880Y5952794D01*
X10834700Y5997647D01*
X10804270Y6000500D01*
X10804266Y6000500D01*
X9500959Y6000500D01*
X9433920Y6020185D01*
X9388165Y6072989D01*
X9378221Y6142147D01*
X9407246Y6205703D01*
X9407974Y6206543D01*
X9425377Y6226627D01*
X9485165Y6357543D01*
X9505647Y6500000D01*
X9485165Y6642457D01*
X9425377Y6773373D01*
X9331128Y6882143D01*
X9210053Y6959953D01*
X9210051Y6959954D01*
X9210049Y6959955D01*
X9210050Y6959955D01*
X9071963Y7000500D01*
X9071961Y7000500D01*
X8928039Y7000500D01*
X8928036Y7000500D01*
X8789949Y6959955D01*
X8668872Y6882143D01*
X8668868Y6882140D01*
X8660764Y6872787D01*
X8601986Y6835013D01*
X8532116Y6835015D01*
X8479372Y6866310D01*
X8433363Y6912319D01*
X8399878Y6973642D01*
X8404862Y7043334D01*
X8433363Y7087681D01*
X8489196Y7143515D01*
X8489198Y7143517D01*
X8540573Y7248607D01*
X8550500Y7316740D01*
X8550500Y7683260D01*
X8540573Y7751393D01*
X8489198Y7856483D01*
X8489196Y7856485D01*
X8489196Y7856486D01*
X8406485Y7939197D01*
X8301391Y7990574D01*
X8233261Y8000500D01*
X8233260Y8000500D01*
X6916740Y8000500D01*
X6916739Y8000500D01*
X6848608Y7990574D01*
X6743514Y7939197D01*
X6660802Y7856485D01*
X6655207Y7845039D01*
X6608079Y7793457D01*
X6543807Y7775500D01*
X6406882Y7775500D01*
X6339843Y7795185D01*
X6319201Y7811819D01*
X4993201Y9137819D01*
X4959716Y9199142D01*
X4964700Y9268834D01*
X5006572Y9324767D01*
X5072036Y9349184D01*
X5080882Y9349500D01*
X8876947Y9349500D01*
X8943986Y9329815D01*
X8989741Y9277011D01*
X9000405Y9213926D01*
X8999501Y9204268D01*
X8999500Y9204262D01*
X8999500Y8395731D01*
X9002353Y8365301D01*
X9002353Y8365299D01*
X9047206Y8237120D01*
X9047207Y8237118D01*
X9127850Y8127850D01*
X9237118Y8047207D01*
X9279845Y8032256D01*
X9365299Y8002354D01*
X9395730Y7999500D01*
X9395734Y7999500D01*
X10804270Y7999500D01*
X10834699Y8002354D01*
X10834701Y8002354D01*
X10899418Y8025000D01*
X10962882Y8047207D01*
X11072150Y8127850D01*
X11152793Y8237118D01*
X11175219Y8301210D01*
X11197646Y8365299D01*
X11197646Y8365301D01*
X11200500Y8395731D01*
X11200500Y8985522D01*
X11220185Y9052561D01*
X11272989Y9098316D01*
X11342147Y9108260D01*
X11405703Y9079235D01*
X11412178Y9073206D01*
X12324000Y8161384D01*
X12357484Y8100062D01*
X12352500Y8030370D01*
X12310628Y7974437D01*
X12290780Y7962304D01*
X12243514Y7939197D01*
X12160803Y7856486D01*
X12109426Y7751392D01*
X12099500Y7683261D01*
X12099500Y7316740D01*
X12109426Y7248609D01*
X12160803Y7143515D01*
X12216637Y7087681D01*
X12250122Y7026358D01*
X12245138Y6956666D01*
X12216637Y6912319D01*
X12160803Y6856486D01*
X12109426Y6751392D01*
X12099500Y6683261D01*
X12099500Y6316740D01*
X12109426Y6248609D01*
X12160803Y6143515D01*
X12243514Y6060804D01*
X12243515Y6060804D01*
X12243517Y6060802D01*
X12348607Y6009427D01*
X12367399Y6006689D01*
X12416739Y5999500D01*
X12416740Y5999500D01*
X13733261Y5999500D01*
X13755971Y6002809D01*
X13801393Y6009427D01*
X13906483Y6060802D01*
X13979373Y6133693D01*
X14040694Y6167176D01*
X14110386Y6162192D01*
X14160764Y6127214D01*
X14168872Y6117857D01*
X14168873Y6117856D01*
X14197436Y6099500D01*
X14289947Y6040047D01*
X14289950Y6040046D01*
X14289949Y6040046D01*
X14394230Y6009427D01*
X14424633Y6000500D01*
X14428036Y5999501D01*
X14428038Y5999500D01*
X14476209Y5999500D01*
X14543248Y5979815D01*
X14589003Y5927011D01*
X14598947Y5857853D01*
X14575979Y5801869D01*
X14574211Y5799471D01*
X14547207Y5762883D01*
X14547206Y5762881D01*
X14502353Y5634702D01*
X14502353Y5634700D01*
X14499500Y5604270D01*
X14499500Y4795731D01*
X14502353Y4765301D01*
X14502353Y4765299D01*
X14547206Y4637120D01*
X14547207Y4637118D01*
X14627850Y4527850D01*
X14737118Y4447207D01*
X14779845Y4432256D01*
X14865299Y4402354D01*
X14895730Y4399500D01*
X14895734Y4399500D01*
X16304270Y4399500D01*
X16334699Y4402354D01*
X16334701Y4402354D01*
X16398790Y4424781D01*
X16462882Y4447207D01*
X16572150Y4527850D01*
X16652793Y4637118D01*
X16675219Y4701210D01*
X16697646Y4765299D01*
X16697646Y4765301D01*
X16700500Y4795731D01*
X16700500Y5604270D01*
X16697646Y5634700D01*
X16697646Y5634702D01*
X16652793Y5762881D01*
X16652792Y5762883D01*
X16652790Y5762886D01*
X16572150Y5872150D01*
X16462882Y5952793D01*
X16462880Y5952794D01*
X16334700Y5997647D01*
X16304270Y6000500D01*
X16304266Y6000500D01*
X15000959Y6000500D01*
X14933920Y6020185D01*
X14888165Y6072989D01*
X14878221Y6142147D01*
X14907246Y6205703D01*
X14907974Y6206543D01*
X14925377Y6226627D01*
X14985165Y6357543D01*
X15005647Y6500000D01*
X14985165Y6642457D01*
X14925377Y6773373D01*
X14831128Y6882143D01*
X14710053Y6959953D01*
X14710051Y6959954D01*
X14710049Y6959955D01*
X14710050Y6959955D01*
X14571963Y7000500D01*
X14571961Y7000500D01*
X14428039Y7000500D01*
X14428036Y7000500D01*
X14289949Y6959955D01*
X14168872Y6882143D01*
X14168868Y6882140D01*
X14160764Y6872787D01*
X14101986Y6835013D01*
X14032116Y6835015D01*
X13979372Y6866310D01*
X13933363Y6912319D01*
X13899878Y6973642D01*
X13904862Y7043334D01*
X13933363Y7087681D01*
X13989196Y7143515D01*
X13989198Y7143517D01*
X14040573Y7248607D01*
X14050500Y7316740D01*
X14050500Y7683260D01*
X14040573Y7751393D01*
X13989198Y7856483D01*
X13989196Y7856485D01*
X13989196Y7856486D01*
X13906485Y7939197D01*
X13801391Y7990574D01*
X13733261Y8000500D01*
X13733260Y8000500D01*
X13315477Y8000500D01*
X13248438Y8020185D01*
X13227796Y8036819D01*
X11406058Y9858556D01*
X11406057Y9858557D01*
X11304799Y9900500D01*
X4706146Y9900500D01*
X4639107Y9920185D01*
X4618465Y9936819D01*
X4098206Y10457078D01*
X3577463Y10977820D01*
X3543979Y11039142D01*
X3548963Y11108834D01*
X3590835Y11164767D01*
X3656299Y11189184D01*
X3665145Y11189500D01*
X14969523Y11189500D01*
X15036562Y11169815D01*
X15057204Y11153181D01*
X16398368Y9812017D01*
X16431853Y9750694D01*
X16426869Y9681002D01*
X16384997Y9625069D01*
X16319533Y9600652D01*
X16304919Y9600470D01*
X16304275Y9600500D01*
X16304266Y9600500D01*
X14895734Y9600500D01*
X14895730Y9600500D01*
X14865300Y9597647D01*
X14865298Y9597647D01*
X14737119Y9552794D01*
X14737117Y9552793D01*
X14627850Y9472150D01*
X14547207Y9362883D01*
X14547206Y9362881D01*
X14502353Y9234702D01*
X14502353Y9234700D01*
X14499500Y9204270D01*
X14499500Y8395731D01*
X14502353Y8365301D01*
X14502353Y8365299D01*
X14547206Y8237120D01*
X14547207Y8237118D01*
X14627850Y8127850D01*
X14737118Y8047207D01*
X14779845Y8032256D01*
X14865299Y8002354D01*
X14895730Y7999500D01*
X14895734Y7999500D01*
X16304270Y7999500D01*
X16334699Y8002354D01*
X16334701Y8002354D01*
X16399418Y8025000D01*
X16462882Y8047207D01*
X16572150Y8127850D01*
X16652793Y8237118D01*
X16675219Y8301210D01*
X16697646Y8365299D01*
X16697646Y8365301D01*
X16700500Y8395731D01*
X16700500Y9204268D01*
X16700471Y9204887D01*
X16700500Y9205007D01*
X16700500Y9207165D01*
X16701026Y9207165D01*
X16716997Y9272774D01*
X16767603Y9320949D01*
X16836221Y9334117D01*
X16901065Y9308097D01*
X16912016Y9298369D01*
X17998204Y8212181D01*
X18031689Y8150858D01*
X18026705Y8081166D01*
X17984833Y8025233D01*
X17919369Y8000816D01*
X17910523Y8000500D01*
X17816739Y8000500D01*
X17748608Y7990574D01*
X17643514Y7939197D01*
X17560803Y7856486D01*
X17509426Y7751392D01*
X17499500Y7683261D01*
X17499500Y7316740D01*
X17509426Y7248609D01*
X17560803Y7143515D01*
X17616637Y7087681D01*
X17650122Y7026358D01*
X17645138Y6956666D01*
X17616637Y6912319D01*
X17560803Y6856486D01*
X17509426Y6751392D01*
X17499500Y6683261D01*
X17499500Y6316740D01*
X17509426Y6248609D01*
X17560803Y6143515D01*
X17643514Y6060804D01*
X17643515Y6060804D01*
X17643517Y6060802D01*
X17748607Y6009427D01*
X17767399Y6006689D01*
X17816739Y5999500D01*
X17816740Y5999500D01*
X19133261Y5999500D01*
X19155971Y6002809D01*
X19201393Y6009427D01*
X19306483Y6060802D01*
X19389198Y6143517D01*
X19394793Y6154961D01*
X19441921Y6206543D01*
X19506193Y6224500D01*
X19519837Y6224500D01*
X19586876Y6204815D01*
X19613548Y6181705D01*
X19668872Y6117857D01*
X19789947Y6040047D01*
X19789950Y6040046D01*
X19789949Y6040046D01*
X19917198Y6002683D01*
X19975976Y5964909D01*
X20005002Y5901354D01*
X19995059Y5832195D01*
X19982035Y5810074D01*
X19947209Y5762886D01*
X19947206Y5762881D01*
X19902353Y5634702D01*
X19902353Y5634700D01*
X19899500Y5604270D01*
X19899500Y4795731D01*
X19902353Y4765301D01*
X19902353Y4765299D01*
X19947206Y4637120D01*
X19947207Y4637118D01*
X20027850Y4527850D01*
X20137118Y4447207D01*
X20179845Y4432256D01*
X20265299Y4402354D01*
X20295730Y4399500D01*
X20295734Y4399500D01*
X21704270Y4399500D01*
X21734699Y4402354D01*
X21734701Y4402354D01*
X21798790Y4424781D01*
X21862882Y4447207D01*
X21972150Y4527850D01*
X22052793Y4637118D01*
X22075219Y4701210D01*
X22097646Y4765299D01*
X22097646Y4765301D01*
X22100500Y4795731D01*
X22100500Y5604270D01*
X22097646Y5634700D01*
X22097646Y5634702D01*
X22052793Y5762881D01*
X22052792Y5762883D01*
X22052790Y5762886D01*
X21972150Y5872150D01*
X21862882Y5952793D01*
X21862880Y5952794D01*
X21734700Y5997647D01*
X21704270Y6000500D01*
X21704266Y6000500D01*
X20500959Y6000500D01*
X20433920Y6020185D01*
X20388165Y6072989D01*
X20378221Y6142147D01*
X20407246Y6205703D01*
X20407974Y6206543D01*
X20425377Y6226627D01*
X20485165Y6357543D01*
X20505647Y6500000D01*
X20485165Y6642457D01*
X20425377Y6773373D01*
X20331128Y6882143D01*
X20210053Y6959953D01*
X20210051Y6959954D01*
X20210049Y6959955D01*
X20210050Y6959955D01*
X20071963Y7000500D01*
X20071961Y7000500D01*
X19928039Y7000500D01*
X19928036Y7000500D01*
X19789949Y6959955D01*
X19668873Y6882144D01*
X19668872Y6882144D01*
X19668872Y6882143D01*
X19636722Y6845039D01*
X19613550Y6818297D01*
X19554772Y6780523D01*
X19519837Y6775500D01*
X19506193Y6775500D01*
X19439154Y6795185D01*
X19394793Y6845039D01*
X19389197Y6856485D01*
X19333363Y6912319D01*
X19299878Y6973642D01*
X19304862Y7043334D01*
X19333363Y7087681D01*
X19389196Y7143515D01*
X19389198Y7143517D01*
X19440573Y7248607D01*
X19450500Y7316740D01*
X19450500Y7683260D01*
X19440573Y7751393D01*
X19389198Y7856483D01*
X19389196Y7856485D01*
X19389196Y7856486D01*
X19306485Y7939197D01*
X19201391Y7990574D01*
X19133261Y8000500D01*
X19133260Y8000500D01*
X18874500Y8000500D01*
X18807461Y8020185D01*
X18761706Y8072989D01*
X18750500Y8124500D01*
X18750500Y8179799D01*
X18750499Y8179803D01*
X18714611Y8266443D01*
X18714610Y8266445D01*
X18708557Y8281059D01*
X18708554Y8281063D01*
X17785346Y9204270D01*
X19899500Y9204270D01*
X19899500Y8395731D01*
X19902353Y8365301D01*
X19902353Y8365299D01*
X19947206Y8237120D01*
X19947207Y8237118D01*
X20027850Y8127850D01*
X20137118Y8047207D01*
X20179845Y8032256D01*
X20265299Y8002354D01*
X20295730Y7999500D01*
X20295734Y7999500D01*
X21704270Y7999500D01*
X21734699Y8002354D01*
X21734701Y8002354D01*
X21799418Y8025000D01*
X21862882Y8047207D01*
X21972150Y8127850D01*
X22052793Y8237118D01*
X22075219Y8301210D01*
X22097646Y8365299D01*
X22097646Y8365301D01*
X22100500Y8395731D01*
X22100500Y9204270D01*
X22097646Y9234700D01*
X22097646Y9234702D01*
X22057586Y9349184D01*
X22052793Y9362882D01*
X21972150Y9472150D01*
X21862882Y9552793D01*
X21862880Y9552794D01*
X21734700Y9597647D01*
X21704270Y9600500D01*
X21704266Y9600500D01*
X20295734Y9600500D01*
X20295730Y9600500D01*
X20265300Y9597647D01*
X20265298Y9597647D01*
X20137119Y9552794D01*
X20137117Y9552793D01*
X20027850Y9472150D01*
X19947207Y9362883D01*
X19947206Y9362881D01*
X19902353Y9234702D01*
X19902353Y9234700D01*
X19899500Y9204270D01*
X17785346Y9204270D01*
X15326796Y11662819D01*
X15293311Y11724142D01*
X15298295Y11793834D01*
X15340167Y11849767D01*
X15405631Y11874184D01*
X15414477Y11874500D01*
X15683261Y11874500D01*
X15705971Y11877809D01*
X15751393Y11884427D01*
X15856483Y11935802D01*
X15872862Y11952181D01*
X15912319Y11991637D01*
X15973642Y12025122D01*
X16043334Y12020138D01*
X16087681Y11991637D01*
X16143514Y11935804D01*
X16143515Y11935804D01*
X16143517Y11935802D01*
X16248607Y11884427D01*
X16282673Y11879464D01*
X16316739Y11874500D01*
X16316740Y11874500D01*
X16683261Y11874500D01*
X16705971Y11877809D01*
X16751393Y11884427D01*
X16856483Y11935802D01*
X16872862Y11952181D01*
X16912319Y11991637D01*
X16973642Y12025122D01*
X17043334Y12020138D01*
X17087681Y11991637D01*
X17143514Y11935804D01*
X17143515Y11935804D01*
X17143517Y11935802D01*
X17248607Y11884427D01*
X17282673Y11879464D01*
X17316739Y11874500D01*
X17316740Y11874500D01*
X17683261Y11874500D01*
X17705971Y11877809D01*
X17751393Y11884427D01*
X17856483Y11935802D01*
X17872862Y11952181D01*
X17912319Y11991637D01*
X17973642Y12025122D01*
X18043334Y12020138D01*
X18087681Y11991637D01*
X18143514Y11935804D01*
X18143515Y11935804D01*
X18143517Y11935802D01*
X18248607Y11884427D01*
X18282673Y11879464D01*
X18316739Y11874500D01*
X18316740Y11874500D01*
X18683259Y11874500D01*
X18683260Y11874500D01*
X18710410Y11878456D01*
X18779586Y11868644D01*
X18826100Y11828493D01*
X18827537Y11829607D01*
X18832321Y11823439D01*
X18948438Y11707322D01*
X18948447Y11707315D01*
X19089801Y11623719D01*
X19247514Y11577900D01*
X19247511Y11577900D01*
X19249998Y11577705D01*
X19250000Y11577705D01*
X19750000Y11577705D01*
X19750001Y11577705D01*
X19752486Y11577900D01*
X19910198Y11623719D01*
X20051552Y11707315D01*
X20051561Y11707322D01*
X20167678Y11823439D01*
X20167685Y11823448D01*
X20251282Y11964804D01*
X20251283Y11964807D01*
X20297099Y12122505D01*
X20297100Y12122511D01*
X20299999Y12159351D01*
X20300000Y12159366D01*
X20300000Y12600000D01*
X19750000Y12600000D01*
X19750000Y11577705D01*
X19250000Y11577705D01*
X19250000Y13100000D01*
X19750000Y13100000D01*
X20300000Y13100000D01*
X20300000Y13540635D01*
X20299999Y13540650D01*
X20297100Y13577490D01*
X20297099Y13577496D01*
X20251283Y13735194D01*
X20251282Y13735197D01*
X20167685Y13876553D01*
X20167678Y13876562D01*
X20051561Y13992679D01*
X20051552Y13992686D01*
X19910196Y14076283D01*
X19910193Y14076284D01*
X19752494Y14122100D01*
X19752497Y14122100D01*
X19750000Y14122297D01*
X19750000Y13100000D01*
X19250000Y13100000D01*
X19250000Y14122297D01*
X19247507Y14122100D01*
X19133473Y14088970D01*
X19063604Y14089170D01*
X19004934Y14127113D01*
X18976091Y14190751D01*
X18984481Y14248504D01*
X18982667Y14249036D01*
X18985165Y14257543D01*
X18992822Y14310802D01*
X19005647Y14400000D01*
X18985165Y14542457D01*
X18925377Y14673373D01*
X18831128Y14782143D01*
X18710053Y14859953D01*
X18710051Y14859954D01*
X18710049Y14859955D01*
X18710050Y14859955D01*
X18571963Y14900500D01*
X18571961Y14900500D01*
X18428039Y14900500D01*
X18428036Y14900500D01*
X18289949Y14859955D01*
X18168873Y14782144D01*
X18168872Y14782144D01*
X18168872Y14782143D01*
X18164883Y14777539D01*
X18074623Y14673374D01*
X18074622Y14673372D01*
X18014834Y14542457D01*
X18003869Y14466189D01*
X17974844Y14402633D01*
X17916066Y14364859D01*
X17846196Y14364859D01*
X17787418Y14402634D01*
X17773745Y14421834D01*
X17740460Y14479486D01*
X17684511Y14535435D01*
X16140676Y16079270D01*
X19999500Y16079270D01*
X19999500Y14670731D01*
X20002353Y14640301D01*
X20002353Y14640299D01*
X20045921Y14515793D01*
X20047207Y14512118D01*
X20127850Y14402850D01*
X20237118Y14322207D01*
X20269706Y14310804D01*
X20365299Y14277354D01*
X20395730Y14274500D01*
X20395734Y14274500D01*
X21204270Y14274500D01*
X21234699Y14277354D01*
X21234701Y14277354D01*
X21314304Y14305209D01*
X21362882Y14322207D01*
X21472150Y14402850D01*
X21552793Y14512118D01*
X21587335Y14610834D01*
X21597646Y14640299D01*
X21597646Y14640301D01*
X21600500Y14670731D01*
X21600500Y16079270D01*
X21597646Y16109700D01*
X21597646Y16109702D01*
X21562029Y16211488D01*
X21552793Y16237882D01*
X21472150Y16347150D01*
X21362882Y16427793D01*
X21362880Y16427794D01*
X21234700Y16472647D01*
X21204270Y16475500D01*
X21204266Y16475500D01*
X20395734Y16475500D01*
X20395730Y16475500D01*
X20365300Y16472647D01*
X20365298Y16472647D01*
X20237119Y16427794D01*
X20237117Y16427793D01*
X20127850Y16347150D01*
X20047207Y16237883D01*
X20047206Y16237881D01*
X20002353Y16109702D01*
X20002353Y16109700D01*
X19999500Y16079270D01*
X16140676Y16079270D01*
X14404486Y17815460D01*
X14404484Y17815461D01*
X14404479Y17815465D01*
X14335970Y17855018D01*
X14335965Y17855021D01*
X14310488Y17861848D01*
X14259537Y17875500D01*
X12161480Y17875500D01*
X12153352Y17875500D01*
X12153352Y17877916D01*
X12096428Y17886803D01*
X12044181Y17933192D01*
X12025307Y18000464D01*
X12045800Y18067261D01*
X12061610Y18086641D01*
X12790460Y18815489D01*
X12808348Y18846472D01*
X12830021Y18884011D01*
X12850500Y18960438D01*
X12850500Y21075500D01*
X12870185Y21142539D01*
X12922989Y21188294D01*
X12974500Y21199500D01*
X13219750Y21199500D01*
X13219751Y21199501D01*
X13234568Y21202448D01*
X13278229Y21211132D01*
X13278229Y21211133D01*
X13278231Y21211133D01*
X13344552Y21255448D01*
X13388867Y21321769D01*
X13388867Y21321771D01*
X13388868Y21321771D01*
X13400499Y21380248D01*
X13400500Y21380250D01*
X13400500Y23100000D01*
X19094353Y23100000D01*
X19114834Y22957544D01*
X19168010Y22841108D01*
X19174623Y22826627D01*
X19268872Y22717857D01*
X19389947Y22640047D01*
X19389950Y22640046D01*
X19389949Y22640046D01*
X19528036Y22599501D01*
X19528038Y22599500D01*
X19528039Y22599500D01*
X19671962Y22599500D01*
X19671962Y22599501D01*
X19810053Y22640047D01*
X19931128Y22717857D01*
X19964788Y22756704D01*
X20023567Y22794477D01*
X20058501Y22799500D01*
X20275500Y22799500D01*
X20342539Y22779815D01*
X20388294Y22727011D01*
X20399500Y22675500D01*
X20399500Y21380248D01*
X20411131Y21321771D01*
X20411132Y21321770D01*
X20455447Y21255448D01*
X20521769Y21211133D01*
X20521770Y21211132D01*
X20580247Y21199501D01*
X20580250Y21199500D01*
X20580252Y21199500D01*
X21919750Y21199500D01*
X21919751Y21199501D01*
X21934568Y21202448D01*
X21978229Y21211132D01*
X21978229Y21211133D01*
X21978231Y21211133D01*
X22044552Y21255448D01*
X22088867Y21321769D01*
X22088867Y21321771D01*
X22088868Y21321771D01*
X22100499Y21380248D01*
X22100500Y21380250D01*
X22100500Y24819751D01*
X22100499Y24819753D01*
X22088868Y24878230D01*
X22088867Y24878231D01*
X22044552Y24944553D01*
X21978230Y24988868D01*
X21978229Y24988869D01*
X21919752Y25000500D01*
X21919748Y25000500D01*
X20580252Y25000500D01*
X20580247Y25000500D01*
X20521770Y24988869D01*
X20521769Y24988868D01*
X20455447Y24944553D01*
X20411132Y24878231D01*
X20411131Y24878230D01*
X20399500Y24819753D01*
X20399500Y23524500D01*
X20379815Y23457461D01*
X20327011Y23411706D01*
X20275500Y23400500D01*
X20058501Y23400500D01*
X19991462Y23420185D01*
X19964788Y23443297D01*
X19952515Y23457461D01*
X19931128Y23482143D01*
X19810053Y23559953D01*
X19810051Y23559954D01*
X19810049Y23559955D01*
X19810050Y23559955D01*
X19671963Y23600500D01*
X19671961Y23600500D01*
X19528039Y23600500D01*
X19528036Y23600500D01*
X19389949Y23559955D01*
X19268873Y23482144D01*
X19174623Y23373374D01*
X19174622Y23373372D01*
X19114834Y23242457D01*
X19094353Y23100000D01*
X13400500Y23100000D01*
X13400500Y24819751D01*
X13400499Y24819753D01*
X13388868Y24878230D01*
X13388867Y24878231D01*
X13344552Y24944553D01*
X13278230Y24988868D01*
X13278229Y24988869D01*
X13219752Y25000500D01*
X13219748Y25000500D01*
X11880252Y25000500D01*
X11880247Y25000500D01*
X11821770Y24988869D01*
X11821769Y24988868D01*
X11755447Y24944553D01*
X11711132Y24878231D01*
X11711131Y24878230D01*
X11699500Y24819753D01*
X11699500Y21380248D01*
X11711131Y21321771D01*
X11711132Y21321770D01*
X11755447Y21255448D01*
X11821769Y21211133D01*
X11821770Y21211132D01*
X11880247Y21199501D01*
X11880250Y21199500D01*
X11880252Y21199500D01*
X12125500Y21199500D01*
X12192539Y21179815D01*
X12238294Y21127011D01*
X12249500Y21075500D01*
X12249500Y19175834D01*
X12229815Y19108795D01*
X12213181Y19088153D01*
X11161847Y18036819D01*
X11100524Y18003334D01*
X11074166Y18000500D01*
X10978036Y18000500D01*
X10839949Y17959955D01*
X10718873Y17882144D01*
X10624623Y17773374D01*
X10624622Y17773372D01*
X10564834Y17642457D01*
X10544353Y17500000D01*
X10564834Y17357544D01*
X10613557Y17250858D01*
X10624623Y17226627D01*
X10718872Y17117857D01*
X10839947Y17040047D01*
X10949537Y17007869D01*
X11008312Y16970097D01*
X11037338Y16906541D01*
X11027395Y16837383D01*
X11002281Y16801212D01*
X9962891Y15761819D01*
X9901568Y15728334D01*
X9875210Y15725500D01*
X5014478Y15725500D01*
X4947439Y15745185D01*
X4901684Y15797989D01*
X4891740Y15867147D01*
X4920765Y15930703D01*
X4926797Y15937181D01*
X4992107Y16002492D01*
X4992116Y16002503D01*
X5152797Y16163183D01*
X5214120Y16196666D01*
X5240477Y16199500D01*
X5371962Y16199500D01*
X5371962Y16199501D01*
X5487923Y16233549D01*
X5510050Y16240046D01*
X5510050Y16240047D01*
X5510053Y16240047D01*
X5631128Y16317857D01*
X5725377Y16426627D01*
X5785165Y16557543D01*
X5805647Y16700000D01*
X5785165Y16842457D01*
X5725377Y16973373D01*
X5631128Y17082143D01*
X5510053Y17159953D01*
X5510051Y17159954D01*
X5510049Y17159955D01*
X5510050Y17159955D01*
X5371963Y17200500D01*
X5371961Y17200500D01*
X5240478Y17200500D01*
X5173439Y17220185D01*
X5152797Y17236819D01*
X4956059Y17433556D01*
X4956058Y17433557D01*
X4956056Y17433558D01*
X4889067Y17461307D01*
X4834665Y17505149D01*
X4824140Y17523461D01*
X4803224Y17568316D01*
X4718316Y17653224D01*
X4609487Y17703972D01*
X4609485Y17703973D01*
X4609486Y17703973D01*
X4559902Y17710500D01*
X4200102Y17710500D01*
X4191746Y17709400D01*
X4190459Y17709231D01*
X4121425Y17719999D01*
X4075964Y17760352D01*
X4074499Y17759215D01*
X4069714Y17765384D01*
X3955383Y17879715D01*
X3955374Y17879722D01*
X3816193Y17962033D01*
X3816190Y17962035D01*
X3670001Y18004507D01*
X3670000Y18004506D01*
X3670000Y16224000D01*
X3650315Y16156961D01*
X3597511Y16111206D01*
X3546000Y16100000D01*
X3420000Y16100000D01*
X3420000Y15974000D01*
X3400315Y15906961D01*
X3347511Y15861206D01*
X3296000Y15850000D01*
X2641210Y15850000D01*
X2637763Y15846273D01*
X2626119Y15790848D01*
X2577066Y15741093D01*
X2516867Y15725500D01*
X1525323Y15725500D01*
X1452264Y15710968D01*
X1452260Y15710967D01*
X1369399Y15655601D01*
X1314033Y15572740D01*
X1314032Y15572736D01*
X1299500Y15499679D01*
X1299500Y15499674D01*
X1299500Y15350326D01*
X1299500Y15350324D01*
X1299499Y15350324D01*
X1314033Y15277260D01*
X1316025Y15272452D01*
X1323494Y15202983D01*
X1316025Y15177548D01*
X1314033Y15172741D01*
X1299500Y15099677D01*
X1299500Y15099674D01*
X1299500Y14950326D01*
X1299500Y14950324D01*
X1299499Y14950324D01*
X1314033Y14877260D01*
X1316025Y14872452D01*
X1323494Y14802983D01*
X1316025Y14777548D01*
X1314033Y14772741D01*
X1299500Y14699677D01*
X1299500Y14699674D01*
X1299500Y14550326D01*
X1299500Y14550324D01*
X1299499Y14550324D01*
X1314033Y14477260D01*
X1316025Y14472452D01*
X1323494Y14402983D01*
X1316025Y14377548D01*
X1314033Y14372741D01*
X1299500Y14299677D01*
X1299500Y14299674D01*
X1299500Y14150326D01*
X1299500Y14150324D01*
X1299499Y14150324D01*
X1314033Y14077260D01*
X1316025Y14072452D01*
X1323494Y14002983D01*
X1316025Y13977548D01*
X1314033Y13972741D01*
X1299500Y13899677D01*
X1299500Y13899674D01*
X1299500Y13750326D01*
X1299500Y13750324D01*
X1299499Y13750324D01*
X1314033Y13677260D01*
X1316025Y13672452D01*
X1323494Y13602983D01*
X1316025Y13577548D01*
X1314033Y13572741D01*
X1299500Y13499677D01*
X1299500Y13499674D01*
X1299500Y13350326D01*
X1299500Y13350324D01*
X1299499Y13350324D01*
X1314033Y13277260D01*
X1316025Y13272452D01*
X1323494Y13202983D01*
X1316025Y13177548D01*
X1314033Y13172741D01*
X1299500Y13099677D01*
X1299500Y13099674D01*
X1299500Y12950326D01*
X1299500Y12950324D01*
X1299499Y12950324D01*
X1314613Y12874347D01*
X1308386Y12804755D01*
X1267922Y12751352D01*
X1157437Y12667568D01*
X1066079Y12547096D01*
X1010613Y12406444D01*
X1000000Y12318054D01*
X1000000Y12131947D01*
X1010613Y12043557D01*
X1066079Y11902905D01*
X1157436Y11782434D01*
X1267921Y11698650D01*
X1309445Y11642457D01*
X1314613Y11575655D01*
X1299500Y11499679D01*
X1299500Y11499676D01*
X1299500Y11499674D01*
X1299500Y11350326D01*
X1299500Y11350324D01*
X1299499Y11350324D01*
X1314033Y11277260D01*
X1316025Y11272452D01*
X1323494Y11202983D01*
X1316025Y11177548D01*
X1314033Y11172741D01*
X1299500Y11099677D01*
X1299500Y11099674D01*
X1299500Y10950326D01*
X1299500Y10950324D01*
X1299499Y10950324D01*
X1314033Y10877260D01*
X1316025Y10872452D01*
X1323494Y10802983D01*
X1316025Y10777548D01*
X1314033Y10772741D01*
X1299500Y10699677D01*
X1299500Y10549500D01*
X1279815Y10482461D01*
X1227011Y10436706D01*
X1175500Y10425500D01*
X1025324Y10425500D01*
X952259Y10410967D01*
X947452Y10408975D01*
X877983Y10401506D01*
X852548Y10408975D01*
X847740Y10410967D01*
X774676Y10425500D01*
X774674Y10425500D01*
X625326Y10425500D01*
X625324Y10425500D01*
X552259Y10410967D01*
X547452Y10408975D01*
X477983Y10401506D01*
X452548Y10408975D01*
X447740Y10410967D01*
X374676Y10425500D01*
X374674Y10425500D01*
X225326Y10425500D01*
X225324Y10425500D01*
X152259Y10410967D01*
X147452Y10408975D01*
X77983Y10401506D01*
X52548Y10408975D01*
X47740Y10410967D01*
X-25324Y10425500D01*
X-25326Y10425500D01*
X-174674Y10425500D01*
X-174676Y10425500D01*
X-247741Y10410967D01*
X-252548Y10408975D01*
X-322017Y10401506D01*
X-347452Y10408975D01*
X-352260Y10410967D01*
X-425324Y10425500D01*
X-425326Y10425500D01*
X-574674Y10425500D01*
X-574677Y10425500D01*
X-650655Y10410387D01*
X-720246Y10416614D01*
X-773649Y10457078D01*
X-778767Y10463827D01*
X-803591Y10529138D01*
X-789163Y10597502D01*
X-740066Y10647214D01*
X-714900Y10657730D01*
X-689977Y10665047D01*
X-568902Y10742857D01*
X-474653Y10851627D01*
X-414865Y10982543D01*
X-394383Y11125000D01*
X-414865Y11267457D01*
X-416127Y11276235D01*
X-414309Y11276497D01*
X-414312Y11335428D01*
X-376542Y11394208D01*
X-312988Y11423238D01*
X-295333Y11424501D01*
X-3636Y11424501D01*
X10698Y11426389D01*
X46539Y11431106D01*
X156645Y11482449D01*
X242551Y11568355D01*
X293894Y11678461D01*
X300500Y11728637D01*
X300499Y14721362D01*
X293894Y14771539D01*
X242551Y14881645D01*
X156645Y14967551D01*
X156644Y14967552D01*
X46538Y15018895D01*
X-3628Y15025499D01*
X-3631Y15025500D01*
X-3637Y15025500D01*
X-3644Y15025500D01*
X-149517Y15025500D01*
X-216556Y15045185D01*
X-262311Y15097989D01*
X-272255Y15167147D01*
X-243230Y15230703D01*
X-237198Y15237181D01*
X123994Y15598373D01*
X540460Y16014839D01*
X580022Y16083362D01*
X600500Y16159788D01*
X600500Y16238912D01*
X600500Y16350001D01*
X2641209Y16350001D01*
X2641210Y16350000D01*
X3170000Y16350000D01*
X3170000Y16950000D01*
X2641210Y16950000D01*
X2642854Y16929090D01*
X2687968Y16773805D01*
X2687970Y16773801D01*
X2723856Y16713120D01*
X2741039Y16645396D01*
X2723856Y16586880D01*
X2687970Y16526200D01*
X2687966Y16526191D01*
X2642855Y16370919D01*
X2642854Y16370913D01*
X2641209Y16350001D01*
X600500Y16350001D01*
X600500Y16702062D01*
X600500Y17074674D01*
X600500Y17249167D01*
X620185Y17316206D01*
X636819Y17336848D01*
X749972Y17450001D01*
X2641209Y17450001D01*
X2641210Y17450000D01*
X3170000Y17450000D01*
X3170000Y18004506D01*
X3169998Y18004507D01*
X3023809Y17962035D01*
X3023806Y17962033D01*
X2884625Y17879722D01*
X2884616Y17879715D01*
X2770285Y17765384D01*
X2770278Y17765375D01*
X2687968Y17626196D01*
X2687966Y17626191D01*
X2642855Y17470919D01*
X2642854Y17470913D01*
X2641209Y17450001D01*
X749972Y17450001D01*
X1186774Y17886803D01*
X1740460Y18440489D01*
X1746650Y18451211D01*
X1784085Y18516049D01*
X1785540Y18515209D01*
X1823292Y18562071D01*
X1889583Y18584146D01*
X1957150Y18566958D01*
X2073804Y18497969D01*
X2229089Y18452855D01*
X2250000Y18451211D01*
X2750000Y18451211D01*
X2770910Y18452855D01*
X2926195Y18497969D01*
X3065374Y18580279D01*
X3065383Y18580286D01*
X3179714Y18694617D01*
X3179721Y18694626D01*
X3262031Y18833805D01*
X3304504Y18980000D01*
X2750000Y18980000D01*
X2750000Y18451211D01*
X2250000Y18451211D01*
X2250000Y19106000D01*
X2269685Y19173039D01*
X2322489Y19218794D01*
X2374000Y19230000D01*
X2500000Y19230000D01*
X2500000Y19356000D01*
X2519685Y19423039D01*
X2572489Y19468794D01*
X2624000Y19480000D01*
X3304504Y19480000D01*
X3262031Y19626196D01*
X3179721Y19765375D01*
X3179714Y19765384D01*
X3065381Y19879717D01*
X3059217Y19884498D01*
X3060733Y19886453D01*
X3021363Y19928622D01*
X3008862Y19997365D01*
X3009226Y20000424D01*
X3010500Y20010099D01*
X3010499Y20369900D01*
X3006537Y20400000D01*
X6894353Y20400000D01*
X6914834Y20257544D01*
X6963949Y20150000D01*
X6974623Y20126627D01*
X7068872Y20017857D01*
X7189947Y19940047D01*
X7189950Y19940046D01*
X7189949Y19940046D01*
X7328036Y19899501D01*
X7328038Y19899500D01*
X7328039Y19899500D01*
X7471962Y19899500D01*
X7471962Y19899501D01*
X7610053Y19940047D01*
X7708461Y20003291D01*
X7775500Y20022974D01*
X7842540Y20003289D01*
X7888294Y19950485D01*
X7899500Y19898974D01*
X7899500Y19870731D01*
X7902353Y19840301D01*
X7902353Y19840299D01*
X7947206Y19712120D01*
X7947207Y19712118D01*
X8027850Y19602850D01*
X8137118Y19522207D01*
X8179845Y19507256D01*
X8265299Y19477354D01*
X8295730Y19474500D01*
X8295734Y19474500D01*
X8904270Y19474500D01*
X8934699Y19477354D01*
X8934701Y19477354D01*
X8998790Y19499781D01*
X9062882Y19522207D01*
X9172150Y19602850D01*
X9252793Y19712118D01*
X9275158Y19776036D01*
X9315877Y19832808D01*
X9380830Y19858556D01*
X9449392Y19845100D01*
X9499795Y19796713D01*
X9509904Y19774083D01*
X9565642Y19605879D01*
X9565643Y19605876D01*
X9657684Y19456655D01*
X9781654Y19332685D01*
X9930875Y19240644D01*
X9930880Y19240642D01*
X10097302Y19185495D01*
X10097309Y19185494D01*
X10200019Y19175001D01*
X10750000Y19175001D01*
X10799972Y19175001D01*
X10799986Y19175002D01*
X10902697Y19185495D01*
X11069119Y19240642D01*
X11069124Y19240644D01*
X11218345Y19332685D01*
X11342315Y19456655D01*
X11434356Y19605876D01*
X11434358Y19605881D01*
X11489505Y19772303D01*
X11489506Y19772310D01*
X11499999Y19875014D01*
X11500000Y19875027D01*
X11500000Y20150000D01*
X10750000Y20150000D01*
X10750000Y19175001D01*
X10200019Y19175001D01*
X10249999Y19175002D01*
X10250000Y19175002D01*
X10250000Y20650000D01*
X10750000Y20650000D01*
X11499999Y20650000D01*
X11499999Y20924972D01*
X11499998Y20924987D01*
X11489505Y21027698D01*
X11434358Y21194120D01*
X11434356Y21194125D01*
X11342315Y21343346D01*
X11218345Y21467316D01*
X11069124Y21559357D01*
X11069119Y21559359D01*
X10902697Y21614506D01*
X10902690Y21614507D01*
X10799986Y21625000D01*
X10750000Y21625000D01*
X10750000Y20650000D01*
X10250000Y20650000D01*
X10250000Y21625000D01*
X10249999Y21625001D01*
X10200029Y21625000D01*
X10200011Y21624999D01*
X10097302Y21614506D01*
X9930880Y21559359D01*
X9930875Y21559357D01*
X9781654Y21467316D01*
X9657684Y21343346D01*
X9565643Y21194125D01*
X9565641Y21194120D01*
X9509905Y21025918D01*
X9470132Y20968473D01*
X9405617Y20941650D01*
X9336841Y20953965D01*
X9285641Y21001508D01*
X9275158Y21023967D01*
X9258346Y21072011D01*
X9252793Y21087882D01*
X9172150Y21197150D01*
X9062882Y21277793D01*
X9062880Y21277794D01*
X8934700Y21322647D01*
X8904270Y21325500D01*
X8904266Y21325500D01*
X8295734Y21325500D01*
X8295730Y21325500D01*
X8265300Y21322647D01*
X8265298Y21322647D01*
X8137119Y21277794D01*
X8137117Y21277793D01*
X8027850Y21197150D01*
X7947207Y21087883D01*
X7947206Y21087881D01*
X7902353Y20959702D01*
X7902354Y20959701D01*
X7899500Y20929270D01*
X7899500Y20901027D01*
X7879815Y20833988D01*
X7827011Y20788233D01*
X7757853Y20778289D01*
X7708461Y20796711D01*
X7610050Y20859955D01*
X7471963Y20900500D01*
X7471961Y20900500D01*
X7328039Y20900500D01*
X7328036Y20900500D01*
X7189949Y20859955D01*
X7068873Y20782144D01*
X6974623Y20673374D01*
X6974622Y20673372D01*
X6914834Y20542457D01*
X6894353Y20400000D01*
X3006537Y20400000D01*
X3003972Y20419487D01*
X2953224Y20528316D01*
X2868316Y20613224D01*
X2868315Y20613225D01*
X2847093Y20623121D01*
X2794655Y20669294D01*
X2775500Y20735502D01*
X2775500Y20754799D01*
X2775499Y20754803D01*
X2760803Y20790282D01*
X2760803Y20790283D01*
X2733560Y20856053D01*
X2733558Y20856058D01*
X2534951Y21054665D01*
X2501466Y21115988D01*
X2499894Y21159990D01*
X2505647Y21200000D01*
X2485165Y21342457D01*
X2425377Y21473373D01*
X2331128Y21582143D01*
X2210053Y21659953D01*
X2210051Y21659954D01*
X2210049Y21659955D01*
X2210050Y21659955D01*
X2071963Y21700500D01*
X2071961Y21700500D01*
X1928039Y21700500D01*
X1928036Y21700500D01*
X1789949Y21659955D01*
X1668873Y21582144D01*
X1668872Y21582144D01*
X1668872Y21582143D01*
X1656460Y21567819D01*
X1574623Y21473374D01*
X1574622Y21473372D01*
X1514834Y21342457D01*
X1494353Y21200000D01*
X1500105Y21159992D01*
X1490161Y21090834D01*
X1465049Y21054665D01*
X1343942Y20933559D01*
X1343942Y20933557D01*
X1312180Y20901796D01*
X1250860Y20868311D01*
X1181168Y20873295D01*
X1125234Y20915165D01*
X1100816Y20980629D01*
X1100500Y20989477D01*
X1100500Y26000500D01*
X1120185Y26067539D01*
X1172989Y26113294D01*
X1224500Y26124500D01*
X1353466Y26124500D01*
X1353467Y26124501D01*
X1556420Y26164870D01*
X1747598Y26244059D01*
X1919655Y26359023D01*
X2065977Y26505345D01*
X2180941Y26677402D01*
X2260130Y26868580D01*
X2300500Y27071535D01*
X2300500Y27528465D01*
X2260130Y27731420D01*
X2180941Y27922598D01*
X2065977Y28094655D01*
X2065975Y28094658D01*
X1919657Y28240976D01*
X1767778Y28342457D01*
X1747598Y28355941D01*
X1705511Y28373374D01*
X1556420Y28435130D01*
X1556412Y28435132D01*
X1353469Y28475500D01*
X1353465Y28475500D01*
X1146535Y28475500D01*
X1146530Y28475500D01*
X943587Y28435132D01*
X943579Y28435130D01*
X752403Y28355942D01*
X580342Y28240976D01*
X434024Y28094658D01*
X319058Y27922597D01*
X239870Y27731421D01*
X239868Y27731413D01*
X199500Y27528470D01*
X199500Y27175099D01*
X179815Y27108060D01*
X163181Y27087418D01*
X131286Y27055523D01*
X131283Y27055519D01*
X87680Y27011917D01*
X26357Y26978432D01*
X-43335Y26983418D01*
X-87681Y27011918D01*
X-135603Y27059840D01*
X-135626Y27059861D01*
X-163181Y27087416D01*
X-196666Y27148739D01*
X-199500Y27175097D01*
X-199500Y27528466D01*
X-199501Y27528470D01*
X-221745Y27640299D01*
X-239870Y27731420D01*
X-319059Y27922598D01*
X-434023Y28094655D01*
X-434025Y28094658D01*
X-580343Y28240976D01*
X-732222Y28342457D01*
X-752402Y28355941D01*
X-794489Y28373374D01*
X-943580Y28435130D01*
X-943588Y28435132D01*
X-1146531Y28475500D01*
X-1146535Y28475500D01*
X-1353465Y28475500D01*
X-1353470Y28475500D01*
X-1556413Y28435132D01*
X-1556421Y28435130D01*
X-1747597Y28355942D01*
X-1919658Y28240976D01*
X-2065976Y28094658D01*
X-2180942Y27922597D01*
X-2260130Y27731421D01*
X-2260132Y27731413D01*
X-2300500Y27528470D01*
X-2300500Y27071531D01*
X-2260132Y26868588D01*
X-2260130Y26868580D01*
X-2180941Y26677402D01*
X-2155852Y26639854D01*
X-2065976Y26505343D01*
X-1919658Y26359025D01*
X-1919655Y26359023D01*
X-1747598Y26244059D01*
X-1556420Y26164870D01*
X-1370729Y26127934D01*
X-1353470Y26124501D01*
X-1353466Y26124500D01*
X-1224500Y26124500D01*
X-1157461Y26104815D01*
X-1111706Y26052011D01*
X-1100500Y26000500D01*
X-1100500Y20989478D01*
X-1120185Y20922439D01*
X-1172989Y20876684D01*
X-1242147Y20866740D01*
X-1305703Y20895765D01*
X-1312181Y20901797D01*
X-1465049Y21054665D01*
X-1498534Y21115988D01*
X-1500106Y21159990D01*
X-1494353Y21200000D01*
X-1514835Y21342457D01*
X-1574623Y21473373D01*
X-1668872Y21582143D01*
X-1789947Y21659953D01*
X-1789949Y21659954D01*
X-1789951Y21659955D01*
X-1789950Y21659955D01*
X-1928037Y21700500D01*
X-1928039Y21700500D01*
X-2071961Y21700500D01*
X-2071964Y21700500D01*
X-2091619Y21694729D01*
X-2152902Y21694731D01*
X-2153222Y21693117D01*
X-2161337Y21694731D01*
X-2161489Y21694731D01*
X-2161687Y21694801D01*
X-2165198Y21695499D01*
X-2165200Y21695500D01*
X-2165203Y21695500D01*
X-3391076Y21695500D01*
X-3458115Y21715185D01*
X-3503870Y21767989D01*
X-3513814Y21837147D01*
X-3497808Y21882621D01*
X-3437969Y21983805D01*
X-3395496Y22130000D01*
X-5063638Y22130000D01*
X-5130677Y22149685D01*
X-5137273Y22155000D01*
X-5376000Y22155000D01*
X-5443039Y22174685D01*
X-5488794Y22227489D01*
X-5500000Y22279000D01*
X-5500000Y22405000D01*
X-5626000Y22405000D01*
X-5693039Y22424685D01*
X-5738794Y22477489D01*
X-5750000Y22529000D01*
X-5750000Y23155000D01*
X-5250000Y23155000D01*
X-5250000Y22655000D01*
X-4571362Y22655000D01*
X-4504323Y22635315D01*
X-4497727Y22630000D01*
X-4450000Y22630000D01*
X-3950000Y22630000D01*
X-3395496Y22630000D01*
X-3437969Y22776196D01*
X-3520279Y22915375D01*
X-3520286Y22915384D01*
X-3634617Y23029715D01*
X-3634626Y23029722D01*
X-3773805Y23112032D01*
X-3773810Y23112034D01*
X-3929082Y23157145D01*
X-3929088Y23157146D01*
X-3950000Y23158791D01*
X-3950000Y22630000D01*
X-4450000Y22630000D01*
X-4450000Y23158790D01*
X-4450001Y23158791D01*
X-4470913Y23157146D01*
X-4470919Y23157145D01*
X-4626191Y23112034D01*
X-4626196Y23112032D01*
X-4753159Y23036946D01*
X-4820883Y23019763D01*
X-4879401Y23036946D01*
X-4999812Y23108156D01*
X-4999815Y23108157D01*
X-5151447Y23152211D01*
X-5151453Y23152212D01*
X-5186882Y23155000D01*
X-5250000Y23155000D01*
X-5750000Y23155000D01*
X-5813119Y23155000D01*
X-5848548Y23152212D01*
X-5848554Y23152211D01*
X-6000186Y23108157D01*
X-6000189Y23108156D01*
X-6136109Y23027774D01*
X-6136117Y23027768D01*
X-6247768Y22916117D01*
X-6247775Y22916108D01*
X-6263930Y22888791D01*
X-6315000Y22841108D01*
X-6383742Y22828606D01*
X-6418117Y22837354D01*
X-6421774Y22838869D01*
X-6480248Y22850500D01*
X-6480252Y22850500D01*
X-9919748Y22850500D01*
X-9919753Y22850500D01*
X-9978230Y22838869D01*
X-9978231Y22838868D01*
X-10044553Y22794553D01*
X-10088868Y22728231D01*
X-10088869Y22728230D01*
X-10100500Y22669755D01*
X-10100668Y22668043D01*
X-10101007Y22667205D01*
X-10101689Y22663774D01*
X-10102340Y22663904D01*
X-10126831Y22603256D01*
X-10183867Y22562899D01*
X-10253667Y22559784D01*
X-10314071Y22594900D01*
X-10336453Y22627795D01*
X-10358699Y22675500D01*
X-10379253Y22719579D01*
X-10460421Y22800747D01*
X-10564455Y22849259D01*
X-10564457Y22849260D01*
X-10564456Y22849260D01*
X-10611861Y22855500D01*
X-11188133Y22855500D01*
X-11203161Y22853522D01*
X-11235545Y22849259D01*
X-11235547Y22849258D01*
X-11235549Y22849258D01*
X-11339580Y22800747D01*
X-11423507Y22716819D01*
X-11484830Y22683334D01*
X-11511188Y22680500D01*
X-11824669Y22680500D01*
X-11891708Y22700185D01*
X-11912350Y22716819D01*
X-11959598Y22764067D01*
X-11961629Y22765489D01*
X-11964054Y22768523D01*
X-11967267Y22771736D01*
X-11966909Y22772095D01*
X-12005251Y22820069D01*
X-12014500Y22867060D01*
X-12014500Y23039943D01*
X-11994815Y23106982D01*
X-11975786Y23126783D01*
X-11977267Y23128264D01*
X-11939670Y23165861D01*
X-11885935Y23219596D01*
X-11835932Y23326827D01*
X-11829500Y23375684D01*
X-11829500Y23824316D01*
X-11835932Y23873173D01*
X-11885935Y23980404D01*
X-11969596Y24064065D01*
X-12076827Y24114068D01*
X-12076829Y24114069D01*
X-12076828Y24114069D01*
X-12125683Y24120500D01*
X-12125684Y24120500D01*
X-12474316Y24120500D01*
X-12474317Y24120500D01*
X-12523172Y24114069D01*
X-12630405Y24064065D01*
X-12721736Y23972733D01*
X-12724560Y23975557D01*
X-12763042Y23944817D01*
X-12832542Y23937648D01*
X-12894886Y23969192D01*
X-12898099Y23972899D01*
X-12898264Y23972733D01*
X-12989598Y24064067D01*
X-12991629Y24065489D01*
X-12994054Y24068523D01*
X-12997267Y24071736D01*
X-12996909Y24072095D01*
X-13035251Y24120069D01*
X-13044500Y24167060D01*
X-13044500Y24314523D01*
X-13024815Y24381562D01*
X-13008181Y24402204D01*
X-12510385Y24900000D01*
X-11972391Y25437995D01*
X-11911070Y25471478D01*
X-11841378Y25466494D01*
X-11837255Y25464871D01*
X-11828229Y25461132D01*
X-11769753Y25449501D01*
X-11769750Y25449500D01*
X-11769748Y25449500D01*
X-10830250Y25449500D01*
X-10830249Y25449501D01*
X-10815432Y25452448D01*
X-10771771Y25461132D01*
X-10771771Y25461133D01*
X-10771769Y25461133D01*
X-10705448Y25505448D01*
X-10661133Y25571769D01*
X-10661133Y25571771D01*
X-10661132Y25571771D01*
X-10649501Y25630248D01*
X-10649500Y25630250D01*
X-10649500Y26500000D01*
X-9505647Y26500000D01*
X-9485166Y26357544D01*
X-9433338Y26244059D01*
X-9425377Y26226627D01*
X-9331128Y26117857D01*
X-9210053Y26040047D01*
X-9210050Y26040046D01*
X-9210051Y26040046D01*
X-9148028Y26021835D01*
X-9075367Y26000500D01*
X-9071964Y25999501D01*
X-9071962Y25999500D01*
X-9071961Y25999500D01*
X-8928038Y25999500D01*
X-8928038Y25999501D01*
X-8789947Y26040047D01*
X-8741537Y26071159D01*
X-8674501Y26090842D01*
X-8607462Y26071158D01*
X-8561706Y26018355D01*
X-8550500Y25966842D01*
X-8550500Y25630248D01*
X-8538869Y25571771D01*
X-8538868Y25571770D01*
X-8494553Y25505448D01*
X-8428231Y25461133D01*
X-8428230Y25461132D01*
X-8369753Y25449501D01*
X-8369750Y25449500D01*
X-8369748Y25449500D01*
X-7430250Y25449500D01*
X-7430249Y25449501D01*
X-7415432Y25452448D01*
X-7371771Y25461132D01*
X-7371771Y25461133D01*
X-7371769Y25461133D01*
X-7305448Y25505448D01*
X-7261133Y25571769D01*
X-7261133Y25571771D01*
X-7261132Y25571771D01*
X-7249501Y25630248D01*
X-7249500Y25630250D01*
X-7249500Y27369751D01*
X-7249501Y27369753D01*
X-7261132Y27428230D01*
X-7261133Y27428231D01*
X-7305448Y27494553D01*
X-7371770Y27538868D01*
X-7371771Y27538869D01*
X-7430248Y27550500D01*
X-7430252Y27550500D01*
X-8369748Y27550500D01*
X-8369753Y27550500D01*
X-8428230Y27538869D01*
X-8428231Y27538868D01*
X-8494553Y27494553D01*
X-8538868Y27428231D01*
X-8538869Y27428230D01*
X-8550500Y27369753D01*
X-8550500Y27033159D01*
X-8570185Y26966120D01*
X-8622989Y26920365D01*
X-8692147Y26910421D01*
X-8741539Y26928843D01*
X-8789947Y26959953D01*
X-8789949Y26959954D01*
X-8789951Y26959955D01*
X-8789950Y26959955D01*
X-8928037Y27000500D01*
X-8928039Y27000500D01*
X-9071961Y27000500D01*
X-9071964Y27000500D01*
X-9210051Y26959955D01*
X-9331127Y26882144D01*
X-9331128Y26882144D01*
X-9331128Y26882143D01*
X-9342873Y26868588D01*
X-9425377Y26773374D01*
X-9425378Y26773372D01*
X-9485166Y26642457D01*
X-9505647Y26500000D01*
X-10649500Y26500000D01*
X-10649500Y27369751D01*
X-10649501Y27369753D01*
X-10661132Y27428230D01*
X-10661133Y27428231D01*
X-10705448Y27494553D01*
X-10771770Y27538868D01*
X-10771771Y27538869D01*
X-10830248Y27550500D01*
X-10830252Y27550500D01*
X-11769748Y27550500D01*
X-11769753Y27550500D01*
X-11828230Y27538869D01*
X-11828231Y27538868D01*
X-11894553Y27494553D01*
X-11938868Y27428231D01*
X-11938869Y27428230D01*
X-11950500Y27369753D01*
X-11950500Y26290478D01*
X-11970185Y26223439D01*
X-11986819Y26202797D01*
X-13476058Y24713557D01*
X-13553556Y24636060D01*
X-13595500Y24534801D01*
X-13595500Y24167060D01*
X-13615185Y24100021D01*
X-13648371Y24065489D01*
X-13650403Y24064067D01*
X-13734065Y23980405D01*
X-13784069Y23873172D01*
X-13790500Y23824317D01*
X-13790500Y23375684D01*
X-13784069Y23326829D01*
X-13784068Y23326827D01*
X-13734065Y23219596D01*
X-13734064Y23219595D01*
X-13727843Y23210710D01*
X-13731326Y23208272D01*
X-13708168Y23165861D01*
X-13713152Y23096169D01*
X-13755024Y23040236D01*
X-13766212Y23032771D01*
X-13837289Y22990736D01*
X-13837295Y22990732D01*
X-13950732Y22877295D01*
X-13950739Y22877286D01*
X-14032407Y22739192D01*
X-14032408Y22739189D01*
X-14077167Y22585129D01*
X-14077168Y22585123D01*
X-14079931Y22550000D01*
X-13434000Y22550000D01*
X-13366961Y22530315D01*
X-13321206Y22477511D01*
X-13310000Y22426000D01*
X-13310000Y22300000D01*
X-13184000Y22300000D01*
X-13116961Y22280315D01*
X-13071206Y22227511D01*
X-13060000Y22176000D01*
X-13060000Y21487157D01*
X-12920806Y21527596D01*
X-12782715Y21609262D01*
X-12782706Y21609269D01*
X-12669269Y21722706D01*
X-12669265Y21722712D01*
X-12663432Y21732574D01*
X-12612366Y21780260D01*
X-12543624Y21792767D01*
X-12521998Y21788504D01*
X-12513173Y21785932D01*
X-12464317Y21779500D01*
X-12214477Y21779500D01*
X-12147438Y21759815D01*
X-12101683Y21707011D01*
X-12091739Y21637853D01*
X-12120764Y21574297D01*
X-12126796Y21567819D01*
X-12333556Y21361060D01*
X-12333557Y21361059D01*
X-12333557Y21361058D01*
X-12334528Y21358714D01*
X-12364182Y21287123D01*
X-12375500Y21259800D01*
X-12375500Y17745200D01*
X-12353044Y17690988D01*
X-12333557Y17643942D01*
X-11196057Y16506442D01*
X-11118558Y16428943D01*
X-11017300Y16387000D01*
X-8666433Y16387000D01*
X-8599394Y16367315D01*
X-8553639Y16314511D01*
X-8543695Y16245353D01*
X-8553639Y16211490D01*
X-8558657Y16200500D01*
X-8585166Y16142457D01*
X-8605647Y16000000D01*
X-8583903Y15848765D01*
X-8585721Y15848504D01*
X-8585722Y15789562D01*
X-8623498Y15730785D01*
X-8687055Y15701762D01*
X-8704698Y15700500D01*
X-11283786Y15700500D01*
X-11350825Y15720185D01*
X-11371467Y15736819D01*
X-15388181Y19753533D01*
X-15421666Y19814856D01*
X-15424500Y19841214D01*
X-15424500Y20330535D01*
X-15424500Y20330536D01*
X-15436663Y20359900D01*
X-15466442Y20431794D01*
X-16043942Y21009293D01*
X-16145200Y21051236D01*
X-17254063Y21051236D01*
X-17254065Y21051236D01*
X-17325664Y21021578D01*
X-17355324Y21009293D01*
X-17648003Y20716612D01*
X-17709326Y20683127D01*
X-17779017Y20688111D01*
X-17825530Y20722311D01*
X-17826800Y20721040D01*
X-17948439Y20842679D01*
X-17948448Y20842686D01*
X-18089804Y20926283D01*
X-18089807Y20926284D01*
X-18247506Y20972100D01*
X-18247503Y20972100D01*
X-18250000Y20972297D01*
X-18250000Y18427705D01*
X-18249999Y18427705D01*
X-18247514Y18427900D01*
X-18089802Y18473719D01*
X-17948448Y18557315D01*
X-17948439Y18557322D01*
X-17832324Y18673437D01*
X-17827540Y18679604D01*
X-17825347Y18677903D01*
X-17783966Y18716550D01*
X-17715226Y18729062D01*
X-17710422Y18728458D01*
X-17683260Y18724500D01*
X-17683259Y18724500D01*
X-17316739Y18724500D01*
X-17294029Y18727809D01*
X-17248607Y18734427D01*
X-17143517Y18785802D01*
X-17122543Y18806776D01*
X-17087681Y18841637D01*
X-17026358Y18875122D01*
X-16956666Y18870138D01*
X-16912319Y18841637D01*
X-16856486Y18785804D01*
X-16856485Y18785804D01*
X-16856483Y18785802D01*
X-16751393Y18734427D01*
X-16734385Y18731949D01*
X-16683261Y18724500D01*
X-16683260Y18724500D01*
X-16316739Y18724500D01*
X-16294029Y18727809D01*
X-16248607Y18734427D01*
X-16143517Y18785802D01*
X-16060802Y18868517D01*
X-16037698Y18915779D01*
X-15990571Y18967361D01*
X-15923037Y18985276D01*
X-15856538Y18963836D01*
X-15838616Y18949000D01*
X-14201798Y17312181D01*
X-14168313Y17250858D01*
X-14173297Y17181166D01*
X-14215169Y17125233D01*
X-14280633Y17100816D01*
X-14289479Y17100500D01*
X-16620199Y17100500D01*
X-16729799Y17100500D01*
X-16729801Y17100500D01*
X-16729803Y17100499D01*
X-16831055Y17058561D01*
X-16831057Y17058559D01*
X-17656057Y16233558D01*
X-17656066Y16233549D01*
X-17661031Y16228585D01*
X-17722357Y16195106D01*
X-17730822Y16193571D01*
X-17751391Y16190574D01*
X-17751393Y16190573D01*
X-17856486Y16139197D01*
X-17912319Y16083363D01*
X-17973642Y16049878D01*
X-18043334Y16054862D01*
X-18087681Y16083363D01*
X-18143515Y16139197D01*
X-18248609Y16190574D01*
X-18316739Y16200500D01*
X-18316740Y16200500D01*
X-18683260Y16200500D01*
X-18690123Y16199500D01*
X-18710414Y16196544D01*
X-18779591Y16206359D01*
X-18826100Y16246508D01*
X-18827537Y16245393D01*
X-18832322Y16251562D01*
X-18948439Y16367679D01*
X-18948448Y16367686D01*
X-19089804Y16451283D01*
X-19089807Y16451284D01*
X-19247506Y16497100D01*
X-19247503Y16497100D01*
X-19250000Y16497297D01*
X-19750000Y16497297D01*
X-19752497Y16497100D01*
X-19910194Y16451284D01*
X-19910197Y16451283D01*
X-20051553Y16367686D01*
X-20051562Y16367679D01*
X-20167679Y16251562D01*
X-20167686Y16251553D01*
X-20251283Y16110197D01*
X-20251284Y16110194D01*
X-20297100Y15952496D01*
X-20297101Y15952490D01*
X-20300000Y15915650D01*
X-22699500Y15915650D01*
X-22699500Y22929270D01*
X-21600500Y22929270D01*
X-21600500Y21520731D01*
X-21597647Y21490301D01*
X-21597647Y21490299D01*
X-21556731Y21373372D01*
X-21552793Y21362118D01*
X-21472150Y21252850D01*
X-21362882Y21172207D01*
X-21327982Y21159995D01*
X-21234701Y21127354D01*
X-21204270Y21124500D01*
X-21204266Y21124500D01*
X-20395730Y21124500D01*
X-20365301Y21127354D01*
X-20365299Y21127354D01*
X-20301210Y21149781D01*
X-20237118Y21172207D01*
X-20203280Y21197182D01*
X-20137654Y21221152D01*
X-20069483Y21205837D01*
X-20020414Y21156098D01*
X-20008452Y21108557D01*
X-20006909Y21108778D01*
X-19985166Y20957544D01*
X-19959355Y20901027D01*
X-19925377Y20826627D01*
X-19886832Y20782143D01*
X-19870379Y20763156D01*
X-19841354Y20699600D01*
X-19851298Y20630441D01*
X-19876410Y20594272D01*
X-19939198Y20531484D01*
X-19990574Y20426392D01*
X-20000500Y20358261D01*
X-20000500Y19041740D01*
X-19990574Y18973609D01*
X-19990573Y18973607D01*
X-19946773Y18884011D01*
X-19939197Y18868515D01*
X-19856486Y18785804D01*
X-19856485Y18785804D01*
X-19856483Y18785802D01*
X-19751393Y18734427D01*
X-19734385Y18731949D01*
X-19683261Y18724500D01*
X-19683260Y18724500D01*
X-19316741Y18724500D01*
X-19316740Y18724500D01*
X-19289590Y18728456D01*
X-19220414Y18718644D01*
X-19173900Y18678493D01*
X-19172463Y18679607D01*
X-19167679Y18673439D01*
X-19051562Y18557322D01*
X-19051553Y18557315D01*
X-18910199Y18473719D01*
X-18752486Y18427900D01*
X-18752489Y18427900D01*
X-18750002Y18427705D01*
X-18750000Y18427705D01*
X-18750000Y20972297D01*
X-18752492Y20972100D01*
X-18839381Y20946856D01*
X-18909251Y20947056D01*
X-18967921Y20984998D01*
X-18996764Y21048637D01*
X-18996714Y21083580D01*
X-18994353Y21100000D01*
X-19014835Y21242457D01*
X-19074623Y21373373D01*
X-19168872Y21482143D01*
X-19289947Y21559953D01*
X-19289949Y21559954D01*
X-19289951Y21559955D01*
X-19289950Y21559955D01*
X-19428037Y21600500D01*
X-19428039Y21600500D01*
X-19571961Y21600500D01*
X-19571964Y21600500D01*
X-19710051Y21559955D01*
X-19808461Y21496711D01*
X-19875501Y21477027D01*
X-19942540Y21496712D01*
X-19988295Y21549516D01*
X-19999500Y21601027D01*
X-19999500Y22929270D01*
X-16000500Y22929270D01*
X-16000500Y21520731D01*
X-15997647Y21490301D01*
X-15997647Y21490299D01*
X-15956731Y21373372D01*
X-15952793Y21362118D01*
X-15872150Y21252850D01*
X-15762882Y21172207D01*
X-15727982Y21159995D01*
X-15634701Y21127354D01*
X-15604270Y21124500D01*
X-15604266Y21124500D01*
X-14795730Y21124500D01*
X-14765301Y21127354D01*
X-14765299Y21127354D01*
X-14701210Y21149781D01*
X-14637118Y21172207D01*
X-14527850Y21252850D01*
X-14447207Y21362118D01*
X-14420460Y21438557D01*
X-14402354Y21490299D01*
X-14402354Y21490301D01*
X-14399500Y21520731D01*
X-14399500Y22050000D01*
X-14079931Y22050000D01*
X-14077168Y22014878D01*
X-14077167Y22014872D01*
X-14032408Y21860812D01*
X-14032407Y21860809D01*
X-13950739Y21722715D01*
X-13950732Y21722706D01*
X-13837295Y21609269D01*
X-13837286Y21609262D01*
X-13699195Y21527596D01*
X-13560000Y21487156D01*
X-13560000Y22050000D01*
X-14079931Y22050000D01*
X-14399500Y22050000D01*
X-14399500Y22929270D01*
X-14402354Y22959700D01*
X-14402354Y22959702D01*
X-14447207Y23087881D01*
X-14447208Y23087883D01*
X-14453323Y23096169D01*
X-14527850Y23197150D01*
X-14637118Y23277793D01*
X-14637120Y23277794D01*
X-14765300Y23322647D01*
X-14795730Y23325500D01*
X-14795734Y23325500D01*
X-15604266Y23325500D01*
X-15604270Y23325500D01*
X-15634700Y23322647D01*
X-15634702Y23322647D01*
X-15762881Y23277794D01*
X-15762883Y23277793D01*
X-15872150Y23197150D01*
X-15952793Y23087883D01*
X-15952794Y23087881D01*
X-15997647Y22959702D01*
X-15997647Y22959700D01*
X-16000500Y22929270D01*
X-19999500Y22929270D01*
X-20002354Y22959700D01*
X-20002354Y22959702D01*
X-20047207Y23087881D01*
X-20047208Y23087883D01*
X-20053323Y23096169D01*
X-20127850Y23197150D01*
X-20237118Y23277793D01*
X-20237120Y23277794D01*
X-20365300Y23322647D01*
X-20395730Y23325500D01*
X-20395734Y23325500D01*
X-21204266Y23325500D01*
X-21204270Y23325500D01*
X-21234700Y23322647D01*
X-21234702Y23322647D01*
X-21362881Y23277794D01*
X-21362883Y23277793D01*
X-21472150Y23197150D01*
X-21552793Y23087883D01*
X-21552794Y23087881D01*
X-21597647Y22959702D01*
X-21597647Y22959700D01*
X-21600500Y22929270D01*
X-22699500Y22929270D01*
X-22699500Y24776000D01*
X-22679815Y24843039D01*
X-22627011Y24888794D01*
X-22575500Y24900000D01*
X-17900000Y24900000D01*
X-17900000Y28100000D01*
X-17105647Y28100000D01*
X-17085166Y27957544D01*
X-17042598Y27864335D01*
X-17025377Y27826627D01*
X-16931128Y27717857D01*
X-16810053Y27640047D01*
X-16810050Y27640046D01*
X-16810051Y27640046D01*
X-16671964Y27599501D01*
X-16671962Y27599500D01*
X-16671961Y27599500D01*
X-16528038Y27599500D01*
X-16528038Y27599501D01*
X-16389947Y27640047D01*
X-16268872Y27717857D01*
X-16213549Y27781704D01*
X-16154772Y27819477D01*
X-16119837Y27824500D01*
X-16074500Y27824500D01*
X-16007461Y27804815D01*
X-15961706Y27752011D01*
X-15950500Y27700500D01*
X-15950500Y27570731D01*
X-15947647Y27540301D01*
X-15947647Y27540299D01*
X-15908431Y27428230D01*
X-15902793Y27412118D01*
X-15822150Y27302850D01*
X-15712882Y27222207D01*
X-15691968Y27214889D01*
X-15584701Y27177354D01*
X-15554270Y27174500D01*
X-15554266Y27174500D01*
X-14945730Y27174500D01*
X-14915301Y27177354D01*
X-14915299Y27177354D01*
X-14851210Y27199781D01*
X-14787118Y27222207D01*
X-14677850Y27302850D01*
X-14597207Y27412118D01*
X-14574842Y27476036D01*
X-14534123Y27532808D01*
X-14469170Y27558556D01*
X-14400608Y27545100D01*
X-14350205Y27496713D01*
X-14340096Y27474083D01*
X-14284358Y27305879D01*
X-14284357Y27305876D01*
X-14192316Y27156655D01*
X-14068346Y27032685D01*
X-13919125Y26940644D01*
X-13919120Y26940642D01*
X-13752698Y26885495D01*
X-13752691Y26885494D01*
X-13649981Y26875001D01*
X-13100000Y26875001D01*
X-13050028Y26875001D01*
X-13050014Y26875002D01*
X-12947303Y26885495D01*
X-12780881Y26940642D01*
X-12780876Y26940644D01*
X-12631655Y27032685D01*
X-12507685Y27156655D01*
X-12415644Y27305876D01*
X-12415642Y27305881D01*
X-12360495Y27472303D01*
X-12360494Y27472310D01*
X-12350001Y27575014D01*
X-12350000Y27575027D01*
X-12350000Y27850000D01*
X-13100000Y27850000D01*
X-13100000Y26875001D01*
X-13649981Y26875001D01*
X-13600001Y26875002D01*
X-13600000Y26875002D01*
X-13600000Y28079270D01*
X-4800500Y28079270D01*
X-4800500Y26520731D01*
X-4797647Y26490301D01*
X-4797647Y26490299D01*
X-4755515Y26369896D01*
X-4752793Y26362118D01*
X-4672150Y26252850D01*
X-4562882Y26172207D01*
X-4541911Y26164869D01*
X-4434701Y26127354D01*
X-4404270Y26124500D01*
X-4404266Y26124500D01*
X-3095730Y26124500D01*
X-3065301Y26127354D01*
X-3065299Y26127354D01*
X-2982055Y26156483D01*
X-2937118Y26172207D01*
X-2827850Y26252850D01*
X-2747207Y26362118D01*
X-2723662Y26429407D01*
X-2702354Y26490299D01*
X-2702354Y26490301D01*
X-2699500Y26520731D01*
X-2699500Y28079270D01*
X-2702354Y28109700D01*
X-2702354Y28109702D01*
X-2747207Y28237881D01*
X-2747208Y28237883D01*
X-2749490Y28240975D01*
X-2827850Y28347150D01*
X-2937118Y28427793D01*
X-2937120Y28427794D01*
X-3065300Y28472647D01*
X-3095730Y28475500D01*
X-3095734Y28475500D01*
X-4404266Y28475500D01*
X-4404270Y28475500D01*
X-4434700Y28472647D01*
X-4434702Y28472647D01*
X-4562881Y28427794D01*
X-4562883Y28427793D01*
X-4672150Y28347150D01*
X-4752793Y28237883D01*
X-4752794Y28237881D01*
X-4797647Y28109702D01*
X-4797647Y28109700D01*
X-4800500Y28079270D01*
X-13600000Y28079270D01*
X-13600000Y28350000D01*
X-13100000Y28350000D01*
X-12350001Y28350000D01*
X-12350001Y28624972D01*
X-12350002Y28624987D01*
X-12360495Y28727698D01*
X-12415642Y28894120D01*
X-12415644Y28894125D01*
X-12507685Y29043346D01*
X-12631655Y29167316D01*
X-12780876Y29259357D01*
X-12780881Y29259359D01*
X-12947303Y29314506D01*
X-12947310Y29314507D01*
X-13050014Y29325000D01*
X-13100000Y29325000D01*
X-13100000Y28350000D01*
X-13600000Y28350000D01*
X-13600000Y29325000D01*
X-13600001Y29325001D01*
X-13649971Y29325000D01*
X-13649989Y29324999D01*
X-13752698Y29314506D01*
X-13919120Y29259359D01*
X-13919125Y29259357D01*
X-14068346Y29167316D01*
X-14192316Y29043346D01*
X-14284357Y28894125D01*
X-14284359Y28894120D01*
X-14340095Y28725918D01*
X-14379868Y28668473D01*
X-14444383Y28641650D01*
X-14513159Y28653965D01*
X-14564359Y28701508D01*
X-14574842Y28723967D01*
X-14587346Y28759700D01*
X-14597207Y28787882D01*
X-14677850Y28897150D01*
X-14787118Y28977793D01*
X-14787120Y28977794D01*
X-14915300Y29022647D01*
X-14945730Y29025500D01*
X-14945734Y29025500D01*
X-15554266Y29025500D01*
X-15554270Y29025500D01*
X-15584700Y29022647D01*
X-15584702Y29022647D01*
X-15712881Y28977794D01*
X-15712883Y28977793D01*
X-15822150Y28897150D01*
X-15902793Y28787883D01*
X-15902794Y28787881D01*
X-15947647Y28659702D01*
X-15947647Y28659700D01*
X-15950500Y28629270D01*
X-15950500Y28499500D01*
X-15970185Y28432461D01*
X-16022989Y28386706D01*
X-16074500Y28375500D01*
X-16119837Y28375500D01*
X-16186876Y28395185D01*
X-16213550Y28418297D01*
X-16221779Y28427794D01*
X-16268872Y28482143D01*
X-16389947Y28559953D01*
X-16389949Y28559954D01*
X-16389951Y28559955D01*
X-16389950Y28559955D01*
X-16528037Y28600500D01*
X-16528039Y28600500D01*
X-16671961Y28600500D01*
X-16671964Y28600500D01*
X-16810051Y28559955D01*
X-16931127Y28482144D01*
X-17025377Y28373374D01*
X-17025378Y28373372D01*
X-17085166Y28242457D01*
X-17105647Y28100000D01*
X-17900000Y28100000D01*
X-17900000Y29575500D01*
X-17880315Y29642539D01*
X-17827511Y29688294D01*
X-17776000Y29699500D01*
X3170500Y29699500D01*
X3237539Y29679815D01*
G37*
G04 #@! TD.AperFunction*
G04 #@! TA.AperFunction,Conductor*
G36*
X8843039Y29679815D02*
G01*
X8888794Y29627011D01*
X8900000Y29575500D01*
X8900000Y29526362D01*
X8880315Y29459323D01*
X8863681Y29438681D01*
X8850000Y29425000D01*
X8850000Y26975001D01*
X8899972Y26975001D01*
X8899986Y26975002D01*
X9002697Y26985495D01*
X9169119Y27040642D01*
X9169130Y27040647D01*
X9235425Y27081538D01*
X9300522Y27100000D01*
X10676000Y27100000D01*
X10743039Y27080315D01*
X10788794Y27027511D01*
X10800000Y26976000D01*
X10800000Y26697752D01*
X10780315Y26630713D01*
X10760154Y26606680D01*
X10750000Y26597298D01*
X10750000Y25561500D01*
X10730315Y25494461D01*
X10677511Y25448706D01*
X10626000Y25437500D01*
X10374000Y25437500D01*
X10306961Y25457185D01*
X10261206Y25509989D01*
X10250000Y25561500D01*
X10250000Y26597297D01*
X10247503Y26597100D01*
X10089806Y26551284D01*
X10089803Y26551283D01*
X9948447Y26467686D01*
X9948442Y26467682D01*
X9832316Y26351555D01*
X9829944Y26348496D01*
X9827475Y26346714D01*
X9826802Y26346040D01*
X9826693Y26346149D01*
X9773300Y26307591D01*
X9731967Y26300500D01*
X9368033Y26300500D01*
X9300994Y26320185D01*
X9270051Y26348503D01*
X9267679Y26351561D01*
X9151561Y26467679D01*
X9151552Y26467686D01*
X9010196Y26551283D01*
X9010193Y26551284D01*
X8852494Y26597100D01*
X8852497Y26597100D01*
X8850000Y26597297D01*
X8850000Y25561500D01*
X8830315Y25494461D01*
X8777511Y25448706D01*
X8726000Y25437500D01*
X8600000Y25437500D01*
X8600000Y25311500D01*
X8580315Y25244461D01*
X8529004Y25200000D01*
X7324000Y25200000D01*
X7256961Y25219685D01*
X7211206Y25272489D01*
X7200000Y25324000D01*
X7200000Y25700000D01*
X4345278Y25700000D01*
X4278239Y25719685D01*
X4232484Y25772489D01*
X4222540Y25841647D01*
X4251565Y25905203D01*
X4288983Y25934485D01*
X4448274Y26015650D01*
X7800000Y26015650D01*
X7800000Y25687500D01*
X8350000Y25687500D01*
X8350000Y26597297D01*
X8347503Y26597100D01*
X8189806Y26551284D01*
X8189803Y26551283D01*
X8048447Y26467686D01*
X8048438Y26467679D01*
X7932321Y26351562D01*
X7932314Y26351553D01*
X7848717Y26210197D01*
X7848716Y26210194D01*
X7802900Y26052496D01*
X7802899Y26052490D01*
X7800000Y26015650D01*
X4448274Y26015650D01*
X4457557Y26020380D01*
X4629459Y26145273D01*
X4629464Y26145277D01*
X4779723Y26295536D01*
X4779727Y26295541D01*
X4904620Y26467443D01*
X5001095Y26656783D01*
X5066757Y26858870D01*
X5066757Y26858873D01*
X5097030Y27050000D01*
X4154146Y27050000D01*
X4192630Y27116657D01*
X4225000Y27237465D01*
X4225000Y27362535D01*
X4192630Y27483343D01*
X4154146Y27550000D01*
X5097030Y27550000D01*
X5077229Y27675014D01*
X7600001Y27675014D01*
X7610494Y27572303D01*
X7665641Y27405881D01*
X7665643Y27405876D01*
X7757684Y27256655D01*
X7881654Y27132685D01*
X8030875Y27040644D01*
X8030880Y27040642D01*
X8197302Y26985495D01*
X8197309Y26985494D01*
X8300019Y26975001D01*
X8349999Y26975002D01*
X8350000Y26975002D01*
X8350000Y27950000D01*
X7600001Y27950000D01*
X7600001Y27675014D01*
X5077229Y27675014D01*
X5066757Y27741128D01*
X5066757Y27741131D01*
X5001095Y27943218D01*
X4904620Y28132558D01*
X4779727Y28304460D01*
X4779723Y28304465D01*
X4629464Y28454724D01*
X4629459Y28454728D01*
X4457557Y28579621D01*
X4268215Y28676097D01*
X4117744Y28724987D01*
X7600000Y28724987D01*
X7600000Y28450000D01*
X8350000Y28450000D01*
X8350000Y29425000D01*
X8349999Y29425001D01*
X8300029Y29425000D01*
X8300011Y29424999D01*
X8197302Y29414506D01*
X8030880Y29359359D01*
X8030875Y29359357D01*
X7881654Y29267316D01*
X7757684Y29143346D01*
X7665643Y28994125D01*
X7665641Y28994120D01*
X7610494Y28827698D01*
X7610493Y28827691D01*
X7600000Y28724987D01*
X4117744Y28724987D01*
X4066124Y28741759D01*
X4000000Y28752232D01*
X4000000Y27704146D01*
X3933343Y27742630D01*
X3812535Y27775000D01*
X3687465Y27775000D01*
X3566657Y27742630D01*
X3500000Y27704146D01*
X3500000Y29575500D01*
X3519685Y29642539D01*
X3572489Y29688294D01*
X3624000Y29699500D01*
X8776000Y29699500D01*
X8843039Y29679815D01*
G37*
G04 #@! TD.AperFunction*
G04 #@! TA.AperFunction,Conductor*
G36*
X-2765285Y6681093D02*
G01*
X-2729321Y6631593D01*
X-2729321Y6570407D01*
X-2753471Y6530999D01*
X-2763965Y6520504D01*
X-2764067Y6520402D01*
X-2814068Y6413176D01*
X-2814068Y6413175D01*
X-2820500Y6364315D01*
X-2820500Y6015686D01*
X-2814068Y5966826D01*
X-2814068Y5966825D01*
X-2764067Y5859599D01*
X-2764066Y5859598D01*
X-2764065Y5859596D01*
X-2680404Y5775935D01*
X-2680403Y5775935D01*
X-2680402Y5775934D01*
X-2573176Y5725933D01*
X-2573175Y5725933D01*
X-2573173Y5725932D01*
X-2524316Y5719500D01*
X-2285479Y5719500D01*
X-2227288Y5700593D01*
X-2215475Y5690504D01*
X-1893975Y5369004D01*
X-1866198Y5314487D01*
X-1875769Y5254055D01*
X-1919034Y5210790D01*
X-1963979Y5200000D01*
X-2449999Y5200000D01*
X-2450000Y5199999D01*
X-2450000Y4450001D01*
X-2449999Y4450000D01*
X-1600002Y4450000D01*
X-1600001Y4450001D01*
X-1600001Y4836022D01*
X-1581094Y4894213D01*
X-1531594Y4930177D01*
X-1470408Y4930177D01*
X-1430997Y4906026D01*
X-1329496Y4804525D01*
X-1301719Y4750008D01*
X-1300500Y4734521D01*
X-1300500Y3680254D01*
X-1300499Y3680242D01*
X-1290530Y3630128D01*
X-1288867Y3621769D01*
X-1259356Y3577603D01*
X-1242747Y3518717D01*
X-1263924Y3461313D01*
X-1271667Y3452599D01*
X-1351786Y3372480D01*
X-1397091Y3269873D01*
X-1400000Y3244798D01*
X-1400000Y2750001D01*
X-1399999Y2750000D01*
X639085Y2750000D01*
X697276Y2731093D01*
X732529Y2683699D01*
X736595Y2672079D01*
X815358Y2565361D01*
X815360Y2565359D01*
X922079Y2486595D01*
X1047272Y2442788D01*
X1076999Y2440001D01*
X1149999Y2440002D01*
X1150000Y2440002D01*
X1150000Y2869999D01*
X1450000Y2869999D01*
X1450000Y2440002D01*
X1450001Y2440001D01*
X1523004Y2440001D01*
X1552721Y2442787D01*
X1552726Y2442788D01*
X1677920Y2486595D01*
X1784639Y2565359D01*
X1784641Y2565361D01*
X1863405Y2672080D01*
X1907212Y2797273D01*
X1910000Y2827000D01*
X1910000Y2869999D01*
X1909999Y2870000D01*
X1450001Y2870000D01*
X1450000Y2869999D01*
X1150000Y2869999D01*
X1150000Y2921000D01*
X1168907Y2979191D01*
X1218407Y3015155D01*
X1249000Y3020000D01*
X1299999Y3020000D01*
X1300000Y3020001D01*
X1300000Y3071000D01*
X1318907Y3129191D01*
X1368407Y3165155D01*
X1399000Y3170000D01*
X1909998Y3170000D01*
X1909999Y3170001D01*
X1909999Y3213004D01*
X1907213Y3242722D01*
X1907212Y3242727D01*
X1863405Y3367921D01*
X1784641Y3474640D01*
X1784639Y3474642D01*
X1763014Y3490602D01*
X1727422Y3540370D01*
X1727880Y3601554D01*
X1748284Y3634570D01*
X1748256Y3634589D01*
X1748597Y3635078D01*
X1751802Y3640263D01*
X1753224Y3641684D01*
X1803972Y3750513D01*
X1810500Y3800099D01*
X1810499Y4159900D01*
X1803972Y4209487D01*
X1803972Y4209489D01*
X1753225Y4318314D01*
X1753224Y4318315D01*
X1753224Y4318316D01*
X1668316Y4403224D01*
X1668314Y4403225D01*
X1668313Y4403226D01*
X1559489Y4453971D01*
X1559488Y4453972D01*
X1542958Y4456148D01*
X1509901Y4460500D01*
X1509899Y4460500D01*
X1090103Y4460500D01*
X1090092Y4460499D01*
X1040513Y4453973D01*
X1040511Y4453973D01*
X931686Y4403226D01*
X846774Y4318314D01*
X844137Y4312658D01*
X802407Y4267911D01*
X754414Y4255500D01*
X599500Y4255500D01*
X541309Y4274407D01*
X505345Y4323907D01*
X500500Y4354500D01*
X500500Y4919747D01*
X500498Y4919759D01*
X497711Y4933769D01*
X488867Y4978231D01*
X444552Y5044552D01*
X444548Y5044555D01*
X378233Y5088866D01*
X378231Y5088867D01*
X378228Y5088868D01*
X378227Y5088868D01*
X319758Y5100499D01*
X319748Y5100500D01*
X319747Y5100500D01*
X-734521Y5100500D01*
X-792712Y5119407D01*
X-804525Y5129496D01*
X-1242012Y5566983D01*
X-1269789Y5621500D01*
X-1267018Y5638994D01*
X-1269000Y5638994D01*
X-1269000Y6109999D01*
X-969000Y6109999D01*
X-969000Y5680002D01*
X-968999Y5680001D01*
X-895996Y5680001D01*
X-866279Y5682787D01*
X-866274Y5682788D01*
X-741080Y5726595D01*
X-634361Y5805359D01*
X-629504Y5810215D01*
X-574987Y5837992D01*
X-514555Y5828421D01*
X-489496Y5810215D01*
X-484640Y5805359D01*
X-377921Y5726595D01*
X-252728Y5682788D01*
X-223001Y5680001D01*
X-150001Y5680002D01*
X-150000Y5680002D01*
X-150000Y6109999D01*
X150000Y6109999D01*
X150000Y5680002D01*
X150001Y5680001D01*
X223004Y5680001D01*
X252721Y5682787D01*
X252726Y5682788D01*
X377920Y5726595D01*
X484639Y5805359D01*
X484641Y5805361D01*
X563405Y5912080D01*
X607212Y6037273D01*
X610000Y6067000D01*
X610000Y6109999D01*
X609999Y6110000D01*
X150001Y6110000D01*
X150000Y6109999D01*
X-150000Y6109999D01*
X-150001Y6110000D01*
X-968999Y6110000D01*
X-969000Y6109999D01*
X-1269000Y6109999D01*
X-1269000Y6161000D01*
X-1250093Y6219191D01*
X-1200593Y6255155D01*
X-1170000Y6260000D01*
X-1119001Y6260000D01*
X-1119000Y6260001D01*
X-1119000Y6311000D01*
X-1100093Y6369191D01*
X-1050593Y6405155D01*
X-1020000Y6410000D01*
X609998Y6410000D01*
X609999Y6410001D01*
X609999Y6453004D01*
X607213Y6482722D01*
X607212Y6482727D01*
X577268Y6568302D01*
X575895Y6629472D01*
X610739Y6679767D01*
X668490Y6699975D01*
X670712Y6700000D01*
X1579082Y6700000D01*
X1637273Y6681093D01*
X1649085Y6671004D01*
X1728648Y6591441D01*
X1829904Y6549500D01*
X1829906Y6549500D01*
X1886604Y6549500D01*
X1944795Y6530593D01*
X1956608Y6520504D01*
X2220504Y6256608D01*
X2248281Y6202091D01*
X2249500Y6186604D01*
X2249500Y1813397D01*
X2230593Y1755206D01*
X2220503Y1743393D01*
X1706106Y1228996D01*
X1651591Y1201219D01*
X1636104Y1200000D01*
X-5201000Y1200000D01*
X-5259191Y1218907D01*
X-5295155Y1268407D01*
X-5300000Y1299000D01*
X-5300000Y2591283D01*
X-5281093Y2649474D01*
X-5231593Y2685438D01*
X-5170407Y2685438D01*
X-5163137Y2682756D01*
X-5119064Y2664500D01*
X-4845586Y2664500D01*
X-4787395Y2645593D01*
X-4755863Y2607342D01*
X-4753226Y2601687D01*
X-4753225Y2601686D01*
X-4753224Y2601684D01*
X-4668316Y2516776D01*
X-4559487Y2466028D01*
X-4509901Y2459500D01*
X-4090100Y2459501D01*
X-4040513Y2466028D01*
X-4040512Y2466028D01*
X-3981863Y2493378D01*
X-3931684Y2516776D01*
X-3846776Y2601684D01*
X-3845715Y2603960D01*
X-3844137Y2607342D01*
X-3802407Y2652089D01*
X-3754414Y2664500D01*
X-3599500Y2664500D01*
X-3541309Y2645593D01*
X-3505345Y2596093D01*
X-3500500Y2565500D01*
X-3500500Y1980254D01*
X-3500499Y1980242D01*
X-3488868Y1921773D01*
X-3488866Y1921767D01*
X-3444555Y1855452D01*
X-3444552Y1855448D01*
X-3378231Y1811133D01*
X-3333769Y1802289D01*
X-3319759Y1799502D01*
X-3319754Y1799502D01*
X-3319748Y1799500D01*
X-3319747Y1799500D01*
X-1880253Y1799500D01*
X-1880252Y1799500D01*
X-1821769Y1811133D01*
X-1755448Y1855448D01*
X-1711133Y1921769D01*
X-1699500Y1980252D01*
X-1699500Y2449999D01*
X-1399999Y2449999D01*
X-1399999Y1955209D01*
X-1397091Y1930126D01*
X-1351787Y1827523D01*
X-1272478Y1748214D01*
X-1169873Y1702910D01*
X-1144797Y1700001D01*
X-550002Y1700001D01*
X-550000Y1700002D01*
X-550000Y2449999D01*
X-250000Y2449999D01*
X-250000Y1700002D01*
X-249999Y1700001D01*
X344790Y1700001D01*
X344791Y1700002D01*
X369874Y1702910D01*
X472477Y1748214D01*
X551786Y1827523D01*
X597090Y1930128D01*
X599999Y1955203D01*
X600000Y1955205D01*
X600000Y2449999D01*
X599999Y2450000D01*
X-249999Y2450000D01*
X-250000Y2449999D01*
X-550000Y2449999D01*
X-550001Y2450000D01*
X-1399998Y2450000D01*
X-1399999Y2449999D01*
X-1699500Y2449999D01*
X-1699500Y3219748D01*
X-1711133Y3278231D01*
X-1740647Y3322400D01*
X-1757254Y3381284D01*
X-1736077Y3438688D01*
X-1728333Y3447403D01*
X-1648215Y3527522D01*
X-1602910Y3630128D01*
X-1600001Y3655203D01*
X-1600000Y3655205D01*
X-1600000Y4149999D01*
X-1600001Y4150000D01*
X-3632087Y4150000D01*
X-3690278Y4168907D01*
X-3725532Y4216303D01*
X-3736596Y4247921D01*
X-3815356Y4354637D01*
X-3815361Y4354642D01*
X-3922080Y4433406D01*
X-4047273Y4477213D01*
X-4077000Y4480000D01*
X-4149999Y4480000D01*
X-4150000Y4479999D01*
X-4150000Y3999000D01*
X-4168907Y3940809D01*
X-4218407Y3904845D01*
X-4249000Y3900000D01*
X-4299999Y3900000D01*
X-4300000Y3899999D01*
X-4300000Y3849000D01*
X-4318907Y3790809D01*
X-4368407Y3754845D01*
X-4399000Y3750000D01*
X-4909998Y3750000D01*
X-4909999Y3749999D01*
X-4909999Y3706997D01*
X-4907214Y3677279D01*
X-4907213Y3677274D01*
X-4863406Y3552080D01*
X-4784642Y3445361D01*
X-4784637Y3445356D01*
X-4763016Y3429399D01*
X-4727423Y3379632D01*
X-4727881Y3318448D01*
X-4748284Y3285431D01*
X-4748256Y3285411D01*
X-4748588Y3284939D01*
X-4751796Y3279745D01*
X-4753223Y3278319D01*
X-4753226Y3278315D01*
X-4755863Y3272658D01*
X-4797593Y3227911D01*
X-4845586Y3215500D01*
X-4909140Y3215500D01*
X-4967331Y3234407D01*
X-4979144Y3244496D01*
X-5095504Y3360856D01*
X-5123281Y3415373D01*
X-5124500Y3430860D01*
X-5124500Y4093001D01*
X-4910000Y4093001D01*
X-4910000Y4050001D01*
X-4909999Y4050000D01*
X-4450001Y4050000D01*
X-4450000Y4050001D01*
X-4450000Y4480001D01*
X-4523004Y4480000D01*
X-4552722Y4477214D01*
X-4552727Y4477213D01*
X-4677921Y4433406D01*
X-4784640Y4354642D01*
X-4784642Y4354640D01*
X-4863406Y4247921D01*
X-4907213Y4122728D01*
X-4910000Y4093001D01*
X-5124500Y4093001D01*
X-5124500Y4944798D01*
X-3600000Y4944798D01*
X-3600000Y4450001D01*
X-3599999Y4450000D01*
X-2750001Y4450000D01*
X-2750000Y4450001D01*
X-2750000Y5199999D01*
X-2750001Y5200000D01*
X-3344790Y5200000D01*
X-3344793Y5199999D01*
X-3369875Y5197091D01*
X-3472478Y5151787D01*
X-3551787Y5072478D01*
X-3597091Y4969873D01*
X-3600000Y4944798D01*
X-5124500Y4944798D01*
X-5124500Y6269142D01*
X-5105593Y6327333D01*
X-5095503Y6339146D01*
X-4763644Y6671004D01*
X-4709128Y6698781D01*
X-4693641Y6700000D01*
X-2823476Y6700000D01*
X-2765285Y6681093D01*
G37*
G04 #@! TD.AperFunction*
M02*
