G04 #@! TF.GenerationSoftware,KiCad,Pcbnew,8.0.7*
G04 #@! TF.CreationDate,2025-01-03T21:38:38-08:00*
G04 #@! TF.ProjectId,RP2040_minimal_r2,52503230-3430-45f6-9d69-6e696d616c5f,REV2*
G04 #@! TF.SameCoordinates,PX5f5e100PY5f5e100*
G04 #@! TF.FileFunction,Legend,Top*
G04 #@! TF.FilePolarity,Positive*
%FSLAX46Y46*%
G04 Gerber Fmt 4.6, Leading zero omitted, Abs format (unit mm)*
G04 Created by KiCad (PCBNEW 8.0.7) date 2025-01-03 21:38:38*
%MOMM*%
%LPD*%
G01*
G04 APERTURE LIST*
%ADD10C,0.150000*%
%ADD11C,0.300000*%
%ADD12C,0.120000*%
G04 APERTURE END LIST*
D10*
X6583333Y19940420D02*
X6535714Y19892800D01*
X6535714Y19892800D02*
X6392857Y19845181D01*
X6392857Y19845181D02*
X6297619Y19845181D01*
X6297619Y19845181D02*
X6154762Y19892800D01*
X6154762Y19892800D02*
X6059524Y19988039D01*
X6059524Y19988039D02*
X6011905Y20083277D01*
X6011905Y20083277D02*
X5964286Y20273753D01*
X5964286Y20273753D02*
X5964286Y20416610D01*
X5964286Y20416610D02*
X6011905Y20607086D01*
X6011905Y20607086D02*
X6059524Y20702324D01*
X6059524Y20702324D02*
X6154762Y20797562D01*
X6154762Y20797562D02*
X6297619Y20845181D01*
X6297619Y20845181D02*
X6392857Y20845181D01*
X6392857Y20845181D02*
X6535714Y20797562D01*
X6535714Y20797562D02*
X6583333Y20749943D01*
X7440476Y20511848D02*
X7440476Y19845181D01*
X7202381Y20892800D02*
X6964286Y20178515D01*
X6964286Y20178515D02*
X7583333Y20178515D01*
X2767735Y21557143D02*
X2803450Y21509524D01*
X2803450Y21509524D02*
X2839164Y21366667D01*
X2839164Y21366667D02*
X2839164Y21271429D01*
X2839164Y21271429D02*
X2803450Y21128572D01*
X2803450Y21128572D02*
X2732021Y21033334D01*
X2732021Y21033334D02*
X2660592Y20985715D01*
X2660592Y20985715D02*
X2517735Y20938096D01*
X2517735Y20938096D02*
X2410592Y20938096D01*
X2410592Y20938096D02*
X2267735Y20985715D01*
X2267735Y20985715D02*
X2196307Y21033334D01*
X2196307Y21033334D02*
X2124878Y21128572D01*
X2124878Y21128572D02*
X2089164Y21271429D01*
X2089164Y21271429D02*
X2089164Y21366667D01*
X2089164Y21366667D02*
X2124878Y21509524D01*
X2124878Y21509524D02*
X2160592Y21557143D01*
X2839164Y22509524D02*
X2839164Y21938096D01*
X2839164Y22223810D02*
X2089164Y22223810D01*
X2089164Y22223810D02*
X2196307Y22128572D01*
X2196307Y22128572D02*
X2267735Y22033334D01*
X2267735Y22033334D02*
X2303450Y21938096D01*
X2089164Y23128572D02*
X2089164Y23223810D01*
X2089164Y23223810D02*
X2124878Y23319048D01*
X2124878Y23319048D02*
X2160592Y23366667D01*
X2160592Y23366667D02*
X2232021Y23414286D01*
X2232021Y23414286D02*
X2374878Y23461905D01*
X2374878Y23461905D02*
X2553450Y23461905D01*
X2553450Y23461905D02*
X2696307Y23414286D01*
X2696307Y23414286D02*
X2767735Y23366667D01*
X2767735Y23366667D02*
X2803450Y23319048D01*
X2803450Y23319048D02*
X2839164Y23223810D01*
X2839164Y23223810D02*
X2839164Y23128572D01*
X2839164Y23128572D02*
X2803450Y23033334D01*
X2803450Y23033334D02*
X2767735Y22985715D01*
X2767735Y22985715D02*
X2696307Y22938096D01*
X2696307Y22938096D02*
X2553450Y22890477D01*
X2553450Y22890477D02*
X2374878Y22890477D01*
X2374878Y22890477D02*
X2232021Y22938096D01*
X2232021Y22938096D02*
X2160592Y22985715D01*
X2160592Y22985715D02*
X2124878Y23033334D01*
X2124878Y23033334D02*
X2089164Y23128572D01*
X1767735Y21533334D02*
X1803450Y21485715D01*
X1803450Y21485715D02*
X1839164Y21342858D01*
X1839164Y21342858D02*
X1839164Y21247620D01*
X1839164Y21247620D02*
X1803450Y21104763D01*
X1803450Y21104763D02*
X1732021Y21009525D01*
X1732021Y21009525D02*
X1660592Y20961906D01*
X1660592Y20961906D02*
X1517735Y20914287D01*
X1517735Y20914287D02*
X1410592Y20914287D01*
X1410592Y20914287D02*
X1267735Y20961906D01*
X1267735Y20961906D02*
X1196307Y21009525D01*
X1196307Y21009525D02*
X1124878Y21104763D01*
X1124878Y21104763D02*
X1089164Y21247620D01*
X1089164Y21247620D02*
X1089164Y21342858D01*
X1089164Y21342858D02*
X1124878Y21485715D01*
X1124878Y21485715D02*
X1160592Y21533334D01*
X1410592Y22104763D02*
X1374878Y22009525D01*
X1374878Y22009525D02*
X1339164Y21961906D01*
X1339164Y21961906D02*
X1267735Y21914287D01*
X1267735Y21914287D02*
X1232021Y21914287D01*
X1232021Y21914287D02*
X1160592Y21961906D01*
X1160592Y21961906D02*
X1124878Y22009525D01*
X1124878Y22009525D02*
X1089164Y22104763D01*
X1089164Y22104763D02*
X1089164Y22295239D01*
X1089164Y22295239D02*
X1124878Y22390477D01*
X1124878Y22390477D02*
X1160592Y22438096D01*
X1160592Y22438096D02*
X1232021Y22485715D01*
X1232021Y22485715D02*
X1267735Y22485715D01*
X1267735Y22485715D02*
X1339164Y22438096D01*
X1339164Y22438096D02*
X1374878Y22390477D01*
X1374878Y22390477D02*
X1410592Y22295239D01*
X1410592Y22295239D02*
X1410592Y22104763D01*
X1410592Y22104763D02*
X1446307Y22009525D01*
X1446307Y22009525D02*
X1482021Y21961906D01*
X1482021Y21961906D02*
X1553450Y21914287D01*
X1553450Y21914287D02*
X1696307Y21914287D01*
X1696307Y21914287D02*
X1767735Y21961906D01*
X1767735Y21961906D02*
X1803450Y22009525D01*
X1803450Y22009525D02*
X1839164Y22104763D01*
X1839164Y22104763D02*
X1839164Y22295239D01*
X1839164Y22295239D02*
X1803450Y22390477D01*
X1803450Y22390477D02*
X1767735Y22438096D01*
X1767735Y22438096D02*
X1696307Y22485715D01*
X1696307Y22485715D02*
X1553450Y22485715D01*
X1553450Y22485715D02*
X1482021Y22438096D01*
X1482021Y22438096D02*
X1446307Y22390477D01*
X1446307Y22390477D02*
X1410592Y22295239D01*
X-9942858Y11732265D02*
X-9990477Y11696550D01*
X-9990477Y11696550D02*
X-10133334Y11660836D01*
X-10133334Y11660836D02*
X-10228572Y11660836D01*
X-10228572Y11660836D02*
X-10371429Y11696550D01*
X-10371429Y11696550D02*
X-10466667Y11767979D01*
X-10466667Y11767979D02*
X-10514286Y11839408D01*
X-10514286Y11839408D02*
X-10561905Y11982265D01*
X-10561905Y11982265D02*
X-10561905Y12089408D01*
X-10561905Y12089408D02*
X-10514286Y12232265D01*
X-10514286Y12232265D02*
X-10466667Y12303693D01*
X-10466667Y12303693D02*
X-10371429Y12375122D01*
X-10371429Y12375122D02*
X-10228572Y12410836D01*
X-10228572Y12410836D02*
X-10133334Y12410836D01*
X-10133334Y12410836D02*
X-9990477Y12375122D01*
X-9990477Y12375122D02*
X-9942858Y12339408D01*
X-8990477Y11660836D02*
X-9561905Y11660836D01*
X-9276191Y11660836D02*
X-9276191Y12410836D01*
X-9276191Y12410836D02*
X-9371429Y12303693D01*
X-9371429Y12303693D02*
X-9466667Y12232265D01*
X-9466667Y12232265D02*
X-9561905Y12196550D01*
X-8657143Y12410836D02*
X-8038096Y12410836D01*
X-8038096Y12410836D02*
X-8371429Y12125122D01*
X-8371429Y12125122D02*
X-8228572Y12125122D01*
X-8228572Y12125122D02*
X-8133334Y12089408D01*
X-8133334Y12089408D02*
X-8085715Y12053693D01*
X-8085715Y12053693D02*
X-8038096Y11982265D01*
X-8038096Y11982265D02*
X-8038096Y11803693D01*
X-8038096Y11803693D02*
X-8085715Y11732265D01*
X-8085715Y11732265D02*
X-8133334Y11696550D01*
X-8133334Y11696550D02*
X-8228572Y11660836D01*
X-8228572Y11660836D02*
X-8514286Y11660836D01*
X-8514286Y11660836D02*
X-8609524Y11696550D01*
X-8609524Y11696550D02*
X-8657143Y11732265D01*
X-3666667Y24332265D02*
X-3714286Y24296550D01*
X-3714286Y24296550D02*
X-3857143Y24260836D01*
X-3857143Y24260836D02*
X-3952381Y24260836D01*
X-3952381Y24260836D02*
X-4095238Y24296550D01*
X-4095238Y24296550D02*
X-4190476Y24367979D01*
X-4190476Y24367979D02*
X-4238095Y24439408D01*
X-4238095Y24439408D02*
X-4285714Y24582265D01*
X-4285714Y24582265D02*
X-4285714Y24689408D01*
X-4285714Y24689408D02*
X-4238095Y24832265D01*
X-4238095Y24832265D02*
X-4190476Y24903693D01*
X-4190476Y24903693D02*
X-4095238Y24975122D01*
X-4095238Y24975122D02*
X-3952381Y25010836D01*
X-3952381Y25010836D02*
X-3857143Y25010836D01*
X-3857143Y25010836D02*
X-3714286Y24975122D01*
X-3714286Y24975122D02*
X-3666667Y24939408D01*
X-2761905Y25010836D02*
X-3238095Y25010836D01*
X-3238095Y25010836D02*
X-3285714Y24653693D01*
X-3285714Y24653693D02*
X-3238095Y24689408D01*
X-3238095Y24689408D02*
X-3142857Y24725122D01*
X-3142857Y24725122D02*
X-2904762Y24725122D01*
X-2904762Y24725122D02*
X-2809524Y24689408D01*
X-2809524Y24689408D02*
X-2761905Y24653693D01*
X-2761905Y24653693D02*
X-2714286Y24582265D01*
X-2714286Y24582265D02*
X-2714286Y24403693D01*
X-2714286Y24403693D02*
X-2761905Y24332265D01*
X-2761905Y24332265D02*
X-2809524Y24296550D01*
X-2809524Y24296550D02*
X-2904762Y24260836D01*
X-2904762Y24260836D02*
X-3142857Y24260836D01*
X-3142857Y24260836D02*
X-3238095Y24296550D01*
X-3238095Y24296550D02*
X-3285714Y24332265D01*
X-14706667Y23210836D02*
X-15040000Y23567979D01*
X-15278095Y23210836D02*
X-15278095Y23960836D01*
X-15278095Y23960836D02*
X-14897143Y23960836D01*
X-14897143Y23960836D02*
X-14801905Y23925122D01*
X-14801905Y23925122D02*
X-14754286Y23889408D01*
X-14754286Y23889408D02*
X-14706667Y23817979D01*
X-14706667Y23817979D02*
X-14706667Y23710836D01*
X-14706667Y23710836D02*
X-14754286Y23639408D01*
X-14754286Y23639408D02*
X-14801905Y23603693D01*
X-14801905Y23603693D02*
X-14897143Y23567979D01*
X-14897143Y23567979D02*
X-15278095Y23567979D01*
X-14325714Y23889408D02*
X-14278095Y23925122D01*
X-14278095Y23925122D02*
X-14182857Y23960836D01*
X-14182857Y23960836D02*
X-13944762Y23960836D01*
X-13944762Y23960836D02*
X-13849524Y23925122D01*
X-13849524Y23925122D02*
X-13801905Y23889408D01*
X-13801905Y23889408D02*
X-13754286Y23817979D01*
X-13754286Y23817979D02*
X-13754286Y23746550D01*
X-13754286Y23746550D02*
X-13801905Y23639408D01*
X-13801905Y23639408D02*
X-14373333Y23210836D01*
X-14373333Y23210836D02*
X-13754286Y23210836D01*
X-13361905Y21845181D02*
X-13361905Y21035658D01*
X-13361905Y21035658D02*
X-13314286Y20940420D01*
X-13314286Y20940420D02*
X-13266667Y20892800D01*
X-13266667Y20892800D02*
X-13171429Y20845181D01*
X-13171429Y20845181D02*
X-12980953Y20845181D01*
X-12980953Y20845181D02*
X-12885715Y20892800D01*
X-12885715Y20892800D02*
X-12838096Y20940420D01*
X-12838096Y20940420D02*
X-12790477Y21035658D01*
X-12790477Y21035658D02*
X-12790477Y21845181D01*
X-12361905Y21749943D02*
X-12314286Y21797562D01*
X-12314286Y21797562D02*
X-12219048Y21845181D01*
X-12219048Y21845181D02*
X-11980953Y21845181D01*
X-11980953Y21845181D02*
X-11885715Y21797562D01*
X-11885715Y21797562D02*
X-11838096Y21749943D01*
X-11838096Y21749943D02*
X-11790477Y21654705D01*
X-11790477Y21654705D02*
X-11790477Y21559467D01*
X-11790477Y21559467D02*
X-11838096Y21416610D01*
X-11838096Y21416610D02*
X-12409524Y20845181D01*
X-12409524Y20845181D02*
X-11790477Y20845181D01*
X-15856667Y24660836D02*
X-16190000Y25017979D01*
X-16428095Y24660836D02*
X-16428095Y25410836D01*
X-16428095Y25410836D02*
X-16047143Y25410836D01*
X-16047143Y25410836D02*
X-15951905Y25375122D01*
X-15951905Y25375122D02*
X-15904286Y25339408D01*
X-15904286Y25339408D02*
X-15856667Y25267979D01*
X-15856667Y25267979D02*
X-15856667Y25160836D01*
X-15856667Y25160836D02*
X-15904286Y25089408D01*
X-15904286Y25089408D02*
X-15951905Y25053693D01*
X-15951905Y25053693D02*
X-16047143Y25017979D01*
X-16047143Y25017979D02*
X-16428095Y25017979D01*
X-14904286Y24660836D02*
X-15475714Y24660836D01*
X-15190000Y24660836D02*
X-15190000Y25410836D01*
X-15190000Y25410836D02*
X-15285238Y25303693D01*
X-15285238Y25303693D02*
X-15380476Y25232265D01*
X-15380476Y25232265D02*
X-15475714Y25196550D01*
X-1232265Y21533334D02*
X-1196550Y21485715D01*
X-1196550Y21485715D02*
X-1160836Y21342858D01*
X-1160836Y21342858D02*
X-1160836Y21247620D01*
X-1160836Y21247620D02*
X-1196550Y21104763D01*
X-1196550Y21104763D02*
X-1267979Y21009525D01*
X-1267979Y21009525D02*
X-1339408Y20961906D01*
X-1339408Y20961906D02*
X-1482265Y20914287D01*
X-1482265Y20914287D02*
X-1589408Y20914287D01*
X-1589408Y20914287D02*
X-1732265Y20961906D01*
X-1732265Y20961906D02*
X-1803693Y21009525D01*
X-1803693Y21009525D02*
X-1875122Y21104763D01*
X-1875122Y21104763D02*
X-1910836Y21247620D01*
X-1910836Y21247620D02*
X-1910836Y21342858D01*
X-1910836Y21342858D02*
X-1875122Y21485715D01*
X-1875122Y21485715D02*
X-1839408Y21533334D01*
X-1160836Y22009525D02*
X-1160836Y22200001D01*
X-1160836Y22200001D02*
X-1196550Y22295239D01*
X-1196550Y22295239D02*
X-1232265Y22342858D01*
X-1232265Y22342858D02*
X-1339408Y22438096D01*
X-1339408Y22438096D02*
X-1482265Y22485715D01*
X-1482265Y22485715D02*
X-1767979Y22485715D01*
X-1767979Y22485715D02*
X-1839408Y22438096D01*
X-1839408Y22438096D02*
X-1875122Y22390477D01*
X-1875122Y22390477D02*
X-1910836Y22295239D01*
X-1910836Y22295239D02*
X-1910836Y22104763D01*
X-1910836Y22104763D02*
X-1875122Y22009525D01*
X-1875122Y22009525D02*
X-1839408Y21961906D01*
X-1839408Y21961906D02*
X-1767979Y21914287D01*
X-1767979Y21914287D02*
X-1589408Y21914287D01*
X-1589408Y21914287D02*
X-1517979Y21961906D01*
X-1517979Y21961906D02*
X-1482265Y22009525D01*
X-1482265Y22009525D02*
X-1446550Y22104763D01*
X-1446550Y22104763D02*
X-1446550Y22295239D01*
X-1446550Y22295239D02*
X-1482265Y22390477D01*
X-1482265Y22390477D02*
X-1517979Y22438096D01*
X-1517979Y22438096D02*
X-1589408Y22485715D01*
X5657142Y11632265D02*
X5609523Y11596550D01*
X5609523Y11596550D02*
X5466666Y11560836D01*
X5466666Y11560836D02*
X5371428Y11560836D01*
X5371428Y11560836D02*
X5228571Y11596550D01*
X5228571Y11596550D02*
X5133333Y11667979D01*
X5133333Y11667979D02*
X5085714Y11739408D01*
X5085714Y11739408D02*
X5038095Y11882265D01*
X5038095Y11882265D02*
X5038095Y11989408D01*
X5038095Y11989408D02*
X5085714Y12132265D01*
X5085714Y12132265D02*
X5133333Y12203693D01*
X5133333Y12203693D02*
X5228571Y12275122D01*
X5228571Y12275122D02*
X5371428Y12310836D01*
X5371428Y12310836D02*
X5466666Y12310836D01*
X5466666Y12310836D02*
X5609523Y12275122D01*
X5609523Y12275122D02*
X5657142Y12239408D01*
X6609523Y11560836D02*
X6038095Y11560836D01*
X6323809Y11560836D02*
X6323809Y12310836D01*
X6323809Y12310836D02*
X6228571Y12203693D01*
X6228571Y12203693D02*
X6133333Y12132265D01*
X6133333Y12132265D02*
X6038095Y12096550D01*
X6990476Y12239408D02*
X7038095Y12275122D01*
X7038095Y12275122D02*
X7133333Y12310836D01*
X7133333Y12310836D02*
X7371428Y12310836D01*
X7371428Y12310836D02*
X7466666Y12275122D01*
X7466666Y12275122D02*
X7514285Y12239408D01*
X7514285Y12239408D02*
X7561904Y12167979D01*
X7561904Y12167979D02*
X7561904Y12096550D01*
X7561904Y12096550D02*
X7514285Y11989408D01*
X7514285Y11989408D02*
X6942857Y11560836D01*
X6942857Y11560836D02*
X7561904Y11560836D01*
X-1842858Y8032265D02*
X-1890477Y7996550D01*
X-1890477Y7996550D02*
X-2033334Y7960836D01*
X-2033334Y7960836D02*
X-2128572Y7960836D01*
X-2128572Y7960836D02*
X-2271429Y7996550D01*
X-2271429Y7996550D02*
X-2366667Y8067979D01*
X-2366667Y8067979D02*
X-2414286Y8139408D01*
X-2414286Y8139408D02*
X-2461905Y8282265D01*
X-2461905Y8282265D02*
X-2461905Y8389408D01*
X-2461905Y8389408D02*
X-2414286Y8532265D01*
X-2414286Y8532265D02*
X-2366667Y8603693D01*
X-2366667Y8603693D02*
X-2271429Y8675122D01*
X-2271429Y8675122D02*
X-2128572Y8710836D01*
X-2128572Y8710836D02*
X-2033334Y8710836D01*
X-2033334Y8710836D02*
X-1890477Y8675122D01*
X-1890477Y8675122D02*
X-1842858Y8639408D01*
X-890477Y7960836D02*
X-1461905Y7960836D01*
X-1176191Y7960836D02*
X-1176191Y8710836D01*
X-1176191Y8710836D02*
X-1271429Y8603693D01*
X-1271429Y8603693D02*
X-1366667Y8532265D01*
X-1366667Y8532265D02*
X-1461905Y8496550D01*
X-33334Y8460836D02*
X-33334Y7960836D01*
X-271429Y8746550D02*
X-509524Y8210836D01*
X-509524Y8210836D02*
X109523Y8210836D01*
X-160836Y21533334D02*
X-517979Y21200001D01*
X-160836Y20961906D02*
X-910836Y20961906D01*
X-910836Y20961906D02*
X-910836Y21342858D01*
X-910836Y21342858D02*
X-875122Y21438096D01*
X-875122Y21438096D02*
X-839408Y21485715D01*
X-839408Y21485715D02*
X-767979Y21533334D01*
X-767979Y21533334D02*
X-660836Y21533334D01*
X-660836Y21533334D02*
X-589408Y21485715D01*
X-589408Y21485715D02*
X-553693Y21438096D01*
X-553693Y21438096D02*
X-517979Y21342858D01*
X-517979Y21342858D02*
X-517979Y20961906D01*
X-910836Y21866668D02*
X-910836Y22485715D01*
X-910836Y22485715D02*
X-625122Y22152382D01*
X-625122Y22152382D02*
X-625122Y22295239D01*
X-625122Y22295239D02*
X-589408Y22390477D01*
X-589408Y22390477D02*
X-553693Y22438096D01*
X-553693Y22438096D02*
X-482265Y22485715D01*
X-482265Y22485715D02*
X-303693Y22485715D01*
X-303693Y22485715D02*
X-232265Y22438096D01*
X-232265Y22438096D02*
X-196550Y22390477D01*
X-196550Y22390477D02*
X-160836Y22295239D01*
X-160836Y22295239D02*
X-160836Y22009525D01*
X-160836Y22009525D02*
X-196550Y21914287D01*
X-196550Y21914287D02*
X-232265Y21866668D01*
X1467735Y6533334D02*
X1503450Y6485715D01*
X1503450Y6485715D02*
X1539164Y6342858D01*
X1539164Y6342858D02*
X1539164Y6247620D01*
X1539164Y6247620D02*
X1503450Y6104763D01*
X1503450Y6104763D02*
X1432021Y6009525D01*
X1432021Y6009525D02*
X1360592Y5961906D01*
X1360592Y5961906D02*
X1217735Y5914287D01*
X1217735Y5914287D02*
X1110592Y5914287D01*
X1110592Y5914287D02*
X967735Y5961906D01*
X967735Y5961906D02*
X896307Y6009525D01*
X896307Y6009525D02*
X824878Y6104763D01*
X824878Y6104763D02*
X789164Y6247620D01*
X789164Y6247620D02*
X789164Y6342858D01*
X789164Y6342858D02*
X824878Y6485715D01*
X824878Y6485715D02*
X860592Y6533334D01*
X789164Y6866668D02*
X789164Y7533334D01*
X789164Y7533334D02*
X1539164Y7104763D01*
X6683333Y27640420D02*
X6635714Y27592800D01*
X6635714Y27592800D02*
X6492857Y27545181D01*
X6492857Y27545181D02*
X6397619Y27545181D01*
X6397619Y27545181D02*
X6254762Y27592800D01*
X6254762Y27592800D02*
X6159524Y27688039D01*
X6159524Y27688039D02*
X6111905Y27783277D01*
X6111905Y27783277D02*
X6064286Y27973753D01*
X6064286Y27973753D02*
X6064286Y28116610D01*
X6064286Y28116610D02*
X6111905Y28307086D01*
X6111905Y28307086D02*
X6159524Y28402324D01*
X6159524Y28402324D02*
X6254762Y28497562D01*
X6254762Y28497562D02*
X6397619Y28545181D01*
X6397619Y28545181D02*
X6492857Y28545181D01*
X6492857Y28545181D02*
X6635714Y28497562D01*
X6635714Y28497562D02*
X6683333Y28449943D01*
X7635714Y27545181D02*
X7064286Y27545181D01*
X7350000Y27545181D02*
X7350000Y28545181D01*
X7350000Y28545181D02*
X7254762Y28402324D01*
X7254762Y28402324D02*
X7159524Y28307086D01*
X7159524Y28307086D02*
X7064286Y28259467D01*
X-9742858Y15732265D02*
X-9790477Y15696550D01*
X-9790477Y15696550D02*
X-9933334Y15660836D01*
X-9933334Y15660836D02*
X-10028572Y15660836D01*
X-10028572Y15660836D02*
X-10171429Y15696550D01*
X-10171429Y15696550D02*
X-10266667Y15767979D01*
X-10266667Y15767979D02*
X-10314286Y15839408D01*
X-10314286Y15839408D02*
X-10361905Y15982265D01*
X-10361905Y15982265D02*
X-10361905Y16089408D01*
X-10361905Y16089408D02*
X-10314286Y16232265D01*
X-10314286Y16232265D02*
X-10266667Y16303693D01*
X-10266667Y16303693D02*
X-10171429Y16375122D01*
X-10171429Y16375122D02*
X-10028572Y16410836D01*
X-10028572Y16410836D02*
X-9933334Y16410836D01*
X-9933334Y16410836D02*
X-9790477Y16375122D01*
X-9790477Y16375122D02*
X-9742858Y16339408D01*
X-8790477Y15660836D02*
X-9361905Y15660836D01*
X-9076191Y15660836D02*
X-9076191Y16410836D01*
X-9076191Y16410836D02*
X-9171429Y16303693D01*
X-9171429Y16303693D02*
X-9266667Y16232265D01*
X-9266667Y16232265D02*
X-9361905Y16196550D01*
X-7838096Y15660836D02*
X-8409524Y15660836D01*
X-8123810Y15660836D02*
X-8123810Y16410836D01*
X-8123810Y16410836D02*
X-8219048Y16303693D01*
X-8219048Y16303693D02*
X-8314286Y16232265D01*
X-8314286Y16232265D02*
X-8409524Y16196550D01*
X5657142Y16932265D02*
X5609523Y16896550D01*
X5609523Y16896550D02*
X5466666Y16860836D01*
X5466666Y16860836D02*
X5371428Y16860836D01*
X5371428Y16860836D02*
X5228571Y16896550D01*
X5228571Y16896550D02*
X5133333Y16967979D01*
X5133333Y16967979D02*
X5085714Y17039408D01*
X5085714Y17039408D02*
X5038095Y17182265D01*
X5038095Y17182265D02*
X5038095Y17289408D01*
X5038095Y17289408D02*
X5085714Y17432265D01*
X5085714Y17432265D02*
X5133333Y17503693D01*
X5133333Y17503693D02*
X5228571Y17575122D01*
X5228571Y17575122D02*
X5371428Y17610836D01*
X5371428Y17610836D02*
X5466666Y17610836D01*
X5466666Y17610836D02*
X5609523Y17575122D01*
X5609523Y17575122D02*
X5657142Y17539408D01*
X6609523Y16860836D02*
X6038095Y16860836D01*
X6323809Y16860836D02*
X6323809Y17610836D01*
X6323809Y17610836D02*
X6228571Y17503693D01*
X6228571Y17503693D02*
X6133333Y17432265D01*
X6133333Y17432265D02*
X6038095Y17396550D01*
X7466666Y17610836D02*
X7276190Y17610836D01*
X7276190Y17610836D02*
X7180952Y17575122D01*
X7180952Y17575122D02*
X7133333Y17539408D01*
X7133333Y17539408D02*
X7038095Y17432265D01*
X7038095Y17432265D02*
X6990476Y17289408D01*
X6990476Y17289408D02*
X6990476Y17003693D01*
X6990476Y17003693D02*
X7038095Y16932265D01*
X7038095Y16932265D02*
X7085714Y16896550D01*
X7085714Y16896550D02*
X7180952Y16860836D01*
X7180952Y16860836D02*
X7371428Y16860836D01*
X7371428Y16860836D02*
X7466666Y16896550D01*
X7466666Y16896550D02*
X7514285Y16932265D01*
X7514285Y16932265D02*
X7561904Y17003693D01*
X7561904Y17003693D02*
X7561904Y17182265D01*
X7561904Y17182265D02*
X7514285Y17253693D01*
X7514285Y17253693D02*
X7466666Y17289408D01*
X7466666Y17289408D02*
X7371428Y17325122D01*
X7371428Y17325122D02*
X7180952Y17325122D01*
X7180952Y17325122D02*
X7085714Y17289408D01*
X7085714Y17289408D02*
X7038095Y17253693D01*
X7038095Y17253693D02*
X6990476Y17182265D01*
X2938095Y10145181D02*
X2938095Y9335658D01*
X2938095Y9335658D02*
X2985714Y9240420D01*
X2985714Y9240420D02*
X3033333Y9192800D01*
X3033333Y9192800D02*
X3128571Y9145181D01*
X3128571Y9145181D02*
X3319047Y9145181D01*
X3319047Y9145181D02*
X3414285Y9192800D01*
X3414285Y9192800D02*
X3461904Y9240420D01*
X3461904Y9240420D02*
X3509523Y9335658D01*
X3509523Y9335658D02*
X3509523Y10145181D01*
X3890476Y10145181D02*
X4509523Y10145181D01*
X4509523Y10145181D02*
X4176190Y9764229D01*
X4176190Y9764229D02*
X4319047Y9764229D01*
X4319047Y9764229D02*
X4414285Y9716610D01*
X4414285Y9716610D02*
X4461904Y9668991D01*
X4461904Y9668991D02*
X4509523Y9573753D01*
X4509523Y9573753D02*
X4509523Y9335658D01*
X4509523Y9335658D02*
X4461904Y9240420D01*
X4461904Y9240420D02*
X4414285Y9192800D01*
X4414285Y9192800D02*
X4319047Y9145181D01*
X4319047Y9145181D02*
X4033333Y9145181D01*
X4033333Y9145181D02*
X3938095Y9192800D01*
X3938095Y9192800D02*
X3890476Y9240420D01*
X839164Y21533334D02*
X482021Y21200001D01*
X839164Y20961906D02*
X89164Y20961906D01*
X89164Y20961906D02*
X89164Y21342858D01*
X89164Y21342858D02*
X124878Y21438096D01*
X124878Y21438096D02*
X160592Y21485715D01*
X160592Y21485715D02*
X232021Y21533334D01*
X232021Y21533334D02*
X339164Y21533334D01*
X339164Y21533334D02*
X410592Y21485715D01*
X410592Y21485715D02*
X446307Y21438096D01*
X446307Y21438096D02*
X482021Y21342858D01*
X482021Y21342858D02*
X482021Y20961906D01*
X339164Y22390477D02*
X839164Y22390477D01*
X53450Y22152382D02*
X589164Y21914287D01*
X589164Y21914287D02*
X589164Y22533334D01*
X-2232265Y21533334D02*
X-2196550Y21485715D01*
X-2196550Y21485715D02*
X-2160836Y21342858D01*
X-2160836Y21342858D02*
X-2160836Y21247620D01*
X-2160836Y21247620D02*
X-2196550Y21104763D01*
X-2196550Y21104763D02*
X-2267979Y21009525D01*
X-2267979Y21009525D02*
X-2339408Y20961906D01*
X-2339408Y20961906D02*
X-2482265Y20914287D01*
X-2482265Y20914287D02*
X-2589408Y20914287D01*
X-2589408Y20914287D02*
X-2732265Y20961906D01*
X-2732265Y20961906D02*
X-2803693Y21009525D01*
X-2803693Y21009525D02*
X-2875122Y21104763D01*
X-2875122Y21104763D02*
X-2910836Y21247620D01*
X-2910836Y21247620D02*
X-2910836Y21342858D01*
X-2910836Y21342858D02*
X-2875122Y21485715D01*
X-2875122Y21485715D02*
X-2839408Y21533334D01*
X-2910836Y22390477D02*
X-2910836Y22200001D01*
X-2910836Y22200001D02*
X-2875122Y22104763D01*
X-2875122Y22104763D02*
X-2839408Y22057144D01*
X-2839408Y22057144D02*
X-2732265Y21961906D01*
X-2732265Y21961906D02*
X-2589408Y21914287D01*
X-2589408Y21914287D02*
X-2303693Y21914287D01*
X-2303693Y21914287D02*
X-2232265Y21961906D01*
X-2232265Y21961906D02*
X-2196550Y22009525D01*
X-2196550Y22009525D02*
X-2160836Y22104763D01*
X-2160836Y22104763D02*
X-2160836Y22295239D01*
X-2160836Y22295239D02*
X-2196550Y22390477D01*
X-2196550Y22390477D02*
X-2232265Y22438096D01*
X-2232265Y22438096D02*
X-2303693Y22485715D01*
X-2303693Y22485715D02*
X-2482265Y22485715D01*
X-2482265Y22485715D02*
X-2553693Y22438096D01*
X-2553693Y22438096D02*
X-2589408Y22390477D01*
X-2589408Y22390477D02*
X-2625122Y22295239D01*
X-2625122Y22295239D02*
X-2625122Y22104763D01*
X-2625122Y22104763D02*
X-2589408Y22009525D01*
X-2589408Y22009525D02*
X-2553693Y21961906D01*
X-2553693Y21961906D02*
X-2482265Y21914287D01*
X5657142Y15732265D02*
X5609523Y15696550D01*
X5609523Y15696550D02*
X5466666Y15660836D01*
X5466666Y15660836D02*
X5371428Y15660836D01*
X5371428Y15660836D02*
X5228571Y15696550D01*
X5228571Y15696550D02*
X5133333Y15767979D01*
X5133333Y15767979D02*
X5085714Y15839408D01*
X5085714Y15839408D02*
X5038095Y15982265D01*
X5038095Y15982265D02*
X5038095Y16089408D01*
X5038095Y16089408D02*
X5085714Y16232265D01*
X5085714Y16232265D02*
X5133333Y16303693D01*
X5133333Y16303693D02*
X5228571Y16375122D01*
X5228571Y16375122D02*
X5371428Y16410836D01*
X5371428Y16410836D02*
X5466666Y16410836D01*
X5466666Y16410836D02*
X5609523Y16375122D01*
X5609523Y16375122D02*
X5657142Y16339408D01*
X6609523Y15660836D02*
X6038095Y15660836D01*
X6323809Y15660836D02*
X6323809Y16410836D01*
X6323809Y16410836D02*
X6228571Y16303693D01*
X6228571Y16303693D02*
X6133333Y16232265D01*
X6133333Y16232265D02*
X6038095Y16196550D01*
X7514285Y16410836D02*
X7038095Y16410836D01*
X7038095Y16410836D02*
X6990476Y16053693D01*
X6990476Y16053693D02*
X7038095Y16089408D01*
X7038095Y16089408D02*
X7133333Y16125122D01*
X7133333Y16125122D02*
X7371428Y16125122D01*
X7371428Y16125122D02*
X7466666Y16089408D01*
X7466666Y16089408D02*
X7514285Y16053693D01*
X7514285Y16053693D02*
X7561904Y15982265D01*
X7561904Y15982265D02*
X7561904Y15803693D01*
X7561904Y15803693D02*
X7514285Y15732265D01*
X7514285Y15732265D02*
X7466666Y15696550D01*
X7466666Y15696550D02*
X7371428Y15660836D01*
X7371428Y15660836D02*
X7133333Y15660836D01*
X7133333Y15660836D02*
X7038095Y15696550D01*
X7038095Y15696550D02*
X6990476Y15732265D01*
X-14842858Y26232265D02*
X-14890477Y26196550D01*
X-14890477Y26196550D02*
X-15033334Y26160836D01*
X-15033334Y26160836D02*
X-15128572Y26160836D01*
X-15128572Y26160836D02*
X-15271429Y26196550D01*
X-15271429Y26196550D02*
X-15366667Y26267979D01*
X-15366667Y26267979D02*
X-15414286Y26339408D01*
X-15414286Y26339408D02*
X-15461905Y26482265D01*
X-15461905Y26482265D02*
X-15461905Y26589408D01*
X-15461905Y26589408D02*
X-15414286Y26732265D01*
X-15414286Y26732265D02*
X-15366667Y26803693D01*
X-15366667Y26803693D02*
X-15271429Y26875122D01*
X-15271429Y26875122D02*
X-15128572Y26910836D01*
X-15128572Y26910836D02*
X-15033334Y26910836D01*
X-15033334Y26910836D02*
X-14890477Y26875122D01*
X-14890477Y26875122D02*
X-14842858Y26839408D01*
X-13890477Y26160836D02*
X-14461905Y26160836D01*
X-14176191Y26160836D02*
X-14176191Y26910836D01*
X-14176191Y26910836D02*
X-14271429Y26803693D01*
X-14271429Y26803693D02*
X-14366667Y26732265D01*
X-14366667Y26732265D02*
X-14461905Y26696550D01*
X-13557143Y26910836D02*
X-12890477Y26910836D01*
X-12890477Y26910836D02*
X-13319048Y26160836D01*
X-19214285Y9592800D02*
X-19071428Y9545181D01*
X-19071428Y9545181D02*
X-18833333Y9545181D01*
X-18833333Y9545181D02*
X-18738095Y9592800D01*
X-18738095Y9592800D02*
X-18690476Y9640420D01*
X-18690476Y9640420D02*
X-18642857Y9735658D01*
X-18642857Y9735658D02*
X-18642857Y9830896D01*
X-18642857Y9830896D02*
X-18690476Y9926134D01*
X-18690476Y9926134D02*
X-18738095Y9973753D01*
X-18738095Y9973753D02*
X-18833333Y10021372D01*
X-18833333Y10021372D02*
X-19023809Y10068991D01*
X-19023809Y10068991D02*
X-19119047Y10116610D01*
X-19119047Y10116610D02*
X-19166666Y10164229D01*
X-19166666Y10164229D02*
X-19214285Y10259467D01*
X-19214285Y10259467D02*
X-19214285Y10354705D01*
X-19214285Y10354705D02*
X-19166666Y10449943D01*
X-19166666Y10449943D02*
X-19119047Y10497562D01*
X-19119047Y10497562D02*
X-19023809Y10545181D01*
X-19023809Y10545181D02*
X-18785714Y10545181D01*
X-18785714Y10545181D02*
X-18642857Y10497562D01*
X-18214285Y9545181D02*
X-18214285Y10545181D01*
X-18214285Y10545181D02*
X-17833333Y10545181D01*
X-17833333Y10545181D02*
X-17738095Y10497562D01*
X-17738095Y10497562D02*
X-17690476Y10449943D01*
X-17690476Y10449943D02*
X-17642857Y10354705D01*
X-17642857Y10354705D02*
X-17642857Y10211848D01*
X-17642857Y10211848D02*
X-17690476Y10116610D01*
X-17690476Y10116610D02*
X-17738095Y10068991D01*
X-17738095Y10068991D02*
X-17833333Y10021372D01*
X-17833333Y10021372D02*
X-18214285Y10021372D01*
X-17214285Y9545181D02*
X-17214285Y10545181D01*
X-16547619Y10545181D02*
X-16452381Y10545181D01*
X-16452381Y10545181D02*
X-16357143Y10497562D01*
X-16357143Y10497562D02*
X-16309524Y10449943D01*
X-16309524Y10449943D02*
X-16261905Y10354705D01*
X-16261905Y10354705D02*
X-16214286Y10164229D01*
X-16214286Y10164229D02*
X-16214286Y9926134D01*
X-16214286Y9926134D02*
X-16261905Y9735658D01*
X-16261905Y9735658D02*
X-16309524Y9640420D01*
X-16309524Y9640420D02*
X-16357143Y9592800D01*
X-16357143Y9592800D02*
X-16452381Y9545181D01*
X-16452381Y9545181D02*
X-16547619Y9545181D01*
X-16547619Y9545181D02*
X-16642857Y9592800D01*
X-16642857Y9592800D02*
X-16690476Y9640420D01*
X-16690476Y9640420D02*
X-16738095Y9735658D01*
X-16738095Y9735658D02*
X-16785714Y9926134D01*
X-16785714Y9926134D02*
X-16785714Y10164229D01*
X-16785714Y10164229D02*
X-16738095Y10354705D01*
X-16738095Y10354705D02*
X-16690476Y10449943D01*
X-16690476Y10449943D02*
X-16642857Y10497562D01*
X-16642857Y10497562D02*
X-16547619Y10545181D01*
X-15785714Y9640420D02*
X-15738095Y9592800D01*
X-15738095Y9592800D02*
X-15785714Y9545181D01*
X-15785714Y9545181D02*
X-15833333Y9592800D01*
X-15833333Y9592800D02*
X-15785714Y9640420D01*
X-15785714Y9640420D02*
X-15785714Y9545181D01*
X-15261905Y9545181D02*
X-15071429Y9545181D01*
X-15071429Y9545181D02*
X-14976191Y9592800D01*
X-14976191Y9592800D02*
X-14928572Y9640420D01*
X-14928572Y9640420D02*
X-14833334Y9783277D01*
X-14833334Y9783277D02*
X-14785715Y9973753D01*
X-14785715Y9973753D02*
X-14785715Y10354705D01*
X-14785715Y10354705D02*
X-14833334Y10449943D01*
X-14833334Y10449943D02*
X-14880953Y10497562D01*
X-14880953Y10497562D02*
X-14976191Y10545181D01*
X-14976191Y10545181D02*
X-15166667Y10545181D01*
X-15166667Y10545181D02*
X-15261905Y10497562D01*
X-15261905Y10497562D02*
X-15309524Y10449943D01*
X-15309524Y10449943D02*
X-15357143Y10354705D01*
X-15357143Y10354705D02*
X-15357143Y10116610D01*
X-15357143Y10116610D02*
X-15309524Y10021372D01*
X-15309524Y10021372D02*
X-15261905Y9973753D01*
X-15261905Y9973753D02*
X-15166667Y9926134D01*
X-15166667Y9926134D02*
X-14976191Y9926134D01*
X-14976191Y9926134D02*
X-14880953Y9973753D01*
X-14880953Y9973753D02*
X-14833334Y10021372D01*
X-14833334Y10021372D02*
X-14785715Y10116610D01*
X-19214285Y16792800D02*
X-19071428Y16745181D01*
X-19071428Y16745181D02*
X-18833333Y16745181D01*
X-18833333Y16745181D02*
X-18738095Y16792800D01*
X-18738095Y16792800D02*
X-18690476Y16840420D01*
X-18690476Y16840420D02*
X-18642857Y16935658D01*
X-18642857Y16935658D02*
X-18642857Y17030896D01*
X-18642857Y17030896D02*
X-18690476Y17126134D01*
X-18690476Y17126134D02*
X-18738095Y17173753D01*
X-18738095Y17173753D02*
X-18833333Y17221372D01*
X-18833333Y17221372D02*
X-19023809Y17268991D01*
X-19023809Y17268991D02*
X-19119047Y17316610D01*
X-19119047Y17316610D02*
X-19166666Y17364229D01*
X-19166666Y17364229D02*
X-19214285Y17459467D01*
X-19214285Y17459467D02*
X-19214285Y17554705D01*
X-19214285Y17554705D02*
X-19166666Y17649943D01*
X-19166666Y17649943D02*
X-19119047Y17697562D01*
X-19119047Y17697562D02*
X-19023809Y17745181D01*
X-19023809Y17745181D02*
X-18785714Y17745181D01*
X-18785714Y17745181D02*
X-18642857Y17697562D01*
X-18214285Y16745181D02*
X-18214285Y17745181D01*
X-18214285Y17745181D02*
X-17833333Y17745181D01*
X-17833333Y17745181D02*
X-17738095Y17697562D01*
X-17738095Y17697562D02*
X-17690476Y17649943D01*
X-17690476Y17649943D02*
X-17642857Y17554705D01*
X-17642857Y17554705D02*
X-17642857Y17411848D01*
X-17642857Y17411848D02*
X-17690476Y17316610D01*
X-17690476Y17316610D02*
X-17738095Y17268991D01*
X-17738095Y17268991D02*
X-17833333Y17221372D01*
X-17833333Y17221372D02*
X-18214285Y17221372D01*
X-17214285Y16745181D02*
X-17214285Y17745181D01*
X-16547619Y17745181D02*
X-16452381Y17745181D01*
X-16452381Y17745181D02*
X-16357143Y17697562D01*
X-16357143Y17697562D02*
X-16309524Y17649943D01*
X-16309524Y17649943D02*
X-16261905Y17554705D01*
X-16261905Y17554705D02*
X-16214286Y17364229D01*
X-16214286Y17364229D02*
X-16214286Y17126134D01*
X-16214286Y17126134D02*
X-16261905Y16935658D01*
X-16261905Y16935658D02*
X-16309524Y16840420D01*
X-16309524Y16840420D02*
X-16357143Y16792800D01*
X-16357143Y16792800D02*
X-16452381Y16745181D01*
X-16452381Y16745181D02*
X-16547619Y16745181D01*
X-16547619Y16745181D02*
X-16642857Y16792800D01*
X-16642857Y16792800D02*
X-16690476Y16840420D01*
X-16690476Y16840420D02*
X-16738095Y16935658D01*
X-16738095Y16935658D02*
X-16785714Y17126134D01*
X-16785714Y17126134D02*
X-16785714Y17364229D01*
X-16785714Y17364229D02*
X-16738095Y17554705D01*
X-16738095Y17554705D02*
X-16690476Y17649943D01*
X-16690476Y17649943D02*
X-16642857Y17697562D01*
X-16642857Y17697562D02*
X-16547619Y17745181D01*
X-15785714Y16840420D02*
X-15738095Y16792800D01*
X-15738095Y16792800D02*
X-15785714Y16745181D01*
X-15785714Y16745181D02*
X-15833333Y16792800D01*
X-15833333Y16792800D02*
X-15785714Y16840420D01*
X-15785714Y16840420D02*
X-15785714Y16745181D01*
X-15166667Y17316610D02*
X-15261905Y17364229D01*
X-15261905Y17364229D02*
X-15309524Y17411848D01*
X-15309524Y17411848D02*
X-15357143Y17507086D01*
X-15357143Y17507086D02*
X-15357143Y17554705D01*
X-15357143Y17554705D02*
X-15309524Y17649943D01*
X-15309524Y17649943D02*
X-15261905Y17697562D01*
X-15261905Y17697562D02*
X-15166667Y17745181D01*
X-15166667Y17745181D02*
X-14976191Y17745181D01*
X-14976191Y17745181D02*
X-14880953Y17697562D01*
X-14880953Y17697562D02*
X-14833334Y17649943D01*
X-14833334Y17649943D02*
X-14785715Y17554705D01*
X-14785715Y17554705D02*
X-14785715Y17507086D01*
X-14785715Y17507086D02*
X-14833334Y17411848D01*
X-14833334Y17411848D02*
X-14880953Y17364229D01*
X-14880953Y17364229D02*
X-14976191Y17316610D01*
X-14976191Y17316610D02*
X-15166667Y17316610D01*
X-15166667Y17316610D02*
X-15261905Y17268991D01*
X-15261905Y17268991D02*
X-15309524Y17221372D01*
X-15309524Y17221372D02*
X-15357143Y17126134D01*
X-15357143Y17126134D02*
X-15357143Y16935658D01*
X-15357143Y16935658D02*
X-15309524Y16840420D01*
X-15309524Y16840420D02*
X-15261905Y16792800D01*
X-15261905Y16792800D02*
X-15166667Y16745181D01*
X-15166667Y16745181D02*
X-14976191Y16745181D01*
X-14976191Y16745181D02*
X-14880953Y16792800D01*
X-14880953Y16792800D02*
X-14833334Y16840420D01*
X-14833334Y16840420D02*
X-14785715Y16935658D01*
X-14785715Y16935658D02*
X-14785715Y17126134D01*
X-14785715Y17126134D02*
X-14833334Y17221372D01*
X-14833334Y17221372D02*
X-14880953Y17268991D01*
X-14880953Y17268991D02*
X-14976191Y17316610D01*
X-19690476Y2392800D02*
X-19547619Y2345181D01*
X-19547619Y2345181D02*
X-19309524Y2345181D01*
X-19309524Y2345181D02*
X-19214286Y2392800D01*
X-19214286Y2392800D02*
X-19166667Y2440420D01*
X-19166667Y2440420D02*
X-19119048Y2535658D01*
X-19119048Y2535658D02*
X-19119048Y2630896D01*
X-19119048Y2630896D02*
X-19166667Y2726134D01*
X-19166667Y2726134D02*
X-19214286Y2773753D01*
X-19214286Y2773753D02*
X-19309524Y2821372D01*
X-19309524Y2821372D02*
X-19500000Y2868991D01*
X-19500000Y2868991D02*
X-19595238Y2916610D01*
X-19595238Y2916610D02*
X-19642857Y2964229D01*
X-19642857Y2964229D02*
X-19690476Y3059467D01*
X-19690476Y3059467D02*
X-19690476Y3154705D01*
X-19690476Y3154705D02*
X-19642857Y3249943D01*
X-19642857Y3249943D02*
X-19595238Y3297562D01*
X-19595238Y3297562D02*
X-19500000Y3345181D01*
X-19500000Y3345181D02*
X-19261905Y3345181D01*
X-19261905Y3345181D02*
X-19119048Y3297562D01*
X-18690476Y2345181D02*
X-18690476Y3345181D01*
X-18690476Y3345181D02*
X-18309524Y3345181D01*
X-18309524Y3345181D02*
X-18214286Y3297562D01*
X-18214286Y3297562D02*
X-18166667Y3249943D01*
X-18166667Y3249943D02*
X-18119048Y3154705D01*
X-18119048Y3154705D02*
X-18119048Y3011848D01*
X-18119048Y3011848D02*
X-18166667Y2916610D01*
X-18166667Y2916610D02*
X-18214286Y2868991D01*
X-18214286Y2868991D02*
X-18309524Y2821372D01*
X-18309524Y2821372D02*
X-18690476Y2821372D01*
X-17690476Y2345181D02*
X-17690476Y3345181D01*
X-16690477Y2345181D02*
X-17261905Y2345181D01*
X-16976191Y2345181D02*
X-16976191Y3345181D01*
X-16976191Y3345181D02*
X-17071429Y3202324D01*
X-17071429Y3202324D02*
X-17166667Y3107086D01*
X-17166667Y3107086D02*
X-17261905Y3059467D01*
X-16261905Y2440420D02*
X-16214286Y2392800D01*
X-16214286Y2392800D02*
X-16261905Y2345181D01*
X-16261905Y2345181D02*
X-16309524Y2392800D01*
X-16309524Y2392800D02*
X-16261905Y2440420D01*
X-16261905Y2440420D02*
X-16261905Y2345181D01*
X-15261906Y2345181D02*
X-15833334Y2345181D01*
X-15547620Y2345181D02*
X-15547620Y3345181D01*
X-15547620Y3345181D02*
X-15642858Y3202324D01*
X-15642858Y3202324D02*
X-15738096Y3107086D01*
X-15738096Y3107086D02*
X-15833334Y3059467D01*
X-14928572Y3345181D02*
X-14309525Y3345181D01*
X-14309525Y3345181D02*
X-14642858Y2964229D01*
X-14642858Y2964229D02*
X-14500001Y2964229D01*
X-14500001Y2964229D02*
X-14404763Y2916610D01*
X-14404763Y2916610D02*
X-14357144Y2868991D01*
X-14357144Y2868991D02*
X-14309525Y2773753D01*
X-14309525Y2773753D02*
X-14309525Y2535658D01*
X-14309525Y2535658D02*
X-14357144Y2440420D01*
X-14357144Y2440420D02*
X-14404763Y2392800D01*
X-14404763Y2392800D02*
X-14500001Y2345181D01*
X-14500001Y2345181D02*
X-14785715Y2345181D01*
X-14785715Y2345181D02*
X-14880953Y2392800D01*
X-14880953Y2392800D02*
X-14928572Y2440420D01*
X-3102382Y145181D02*
X-3435715Y621372D01*
X-3673810Y145181D02*
X-3673810Y1145181D01*
X-3673810Y1145181D02*
X-3292858Y1145181D01*
X-3292858Y1145181D02*
X-3197620Y1097562D01*
X-3197620Y1097562D02*
X-3150001Y1049943D01*
X-3150001Y1049943D02*
X-3102382Y954705D01*
X-3102382Y954705D02*
X-3102382Y811848D01*
X-3102382Y811848D02*
X-3150001Y716610D01*
X-3150001Y716610D02*
X-3197620Y668991D01*
X-3197620Y668991D02*
X-3292858Y621372D01*
X-3292858Y621372D02*
X-3673810Y621372D01*
X-2673810Y668991D02*
X-2340477Y668991D01*
X-2197620Y145181D02*
X-2673810Y145181D01*
X-2673810Y145181D02*
X-2673810Y1145181D01*
X-2673810Y1145181D02*
X-2197620Y1145181D01*
X-1816667Y192800D02*
X-1673810Y145181D01*
X-1673810Y145181D02*
X-1435715Y145181D01*
X-1435715Y145181D02*
X-1340477Y192800D01*
X-1340477Y192800D02*
X-1292858Y240420D01*
X-1292858Y240420D02*
X-1245239Y335658D01*
X-1245239Y335658D02*
X-1245239Y430896D01*
X-1245239Y430896D02*
X-1292858Y526134D01*
X-1292858Y526134D02*
X-1340477Y573753D01*
X-1340477Y573753D02*
X-1435715Y621372D01*
X-1435715Y621372D02*
X-1626191Y668991D01*
X-1626191Y668991D02*
X-1721429Y716610D01*
X-1721429Y716610D02*
X-1769048Y764229D01*
X-1769048Y764229D02*
X-1816667Y859467D01*
X-1816667Y859467D02*
X-1816667Y954705D01*
X-1816667Y954705D02*
X-1769048Y1049943D01*
X-1769048Y1049943D02*
X-1721429Y1097562D01*
X-1721429Y1097562D02*
X-1626191Y1145181D01*
X-1626191Y1145181D02*
X-1388096Y1145181D01*
X-1388096Y1145181D02*
X-1245239Y1097562D01*
X-816667Y668991D02*
X-483334Y668991D01*
X-340477Y145181D02*
X-816667Y145181D01*
X-816667Y145181D02*
X-816667Y1145181D01*
X-816667Y1145181D02*
X-340477Y1145181D01*
X-54762Y1145181D02*
X516666Y1145181D01*
X230952Y145181D02*
X230952Y1145181D01*
X-5032265Y3253334D02*
X-4996550Y3205715D01*
X-4996550Y3205715D02*
X-4960836Y3062858D01*
X-4960836Y3062858D02*
X-4960836Y2967620D01*
X-4960836Y2967620D02*
X-4996550Y2824763D01*
X-4996550Y2824763D02*
X-5067979Y2729525D01*
X-5067979Y2729525D02*
X-5139408Y2681906D01*
X-5139408Y2681906D02*
X-5282265Y2634287D01*
X-5282265Y2634287D02*
X-5389408Y2634287D01*
X-5389408Y2634287D02*
X-5532265Y2681906D01*
X-5532265Y2681906D02*
X-5603693Y2729525D01*
X-5603693Y2729525D02*
X-5675122Y2824763D01*
X-5675122Y2824763D02*
X-5710836Y2967620D01*
X-5710836Y2967620D02*
X-5710836Y3062858D01*
X-5710836Y3062858D02*
X-5675122Y3205715D01*
X-5675122Y3205715D02*
X-5639408Y3253334D01*
X-5639408Y3634287D02*
X-5675122Y3681906D01*
X-5675122Y3681906D02*
X-5710836Y3777144D01*
X-5710836Y3777144D02*
X-5710836Y4015239D01*
X-5710836Y4015239D02*
X-5675122Y4110477D01*
X-5675122Y4110477D02*
X-5639408Y4158096D01*
X-5639408Y4158096D02*
X-5567979Y4205715D01*
X-5567979Y4205715D02*
X-5496550Y4205715D01*
X-5496550Y4205715D02*
X-5389408Y4158096D01*
X-5389408Y4158096D02*
X-4960836Y3586668D01*
X-4960836Y3586668D02*
X-4960836Y4205715D01*
X13576190Y17997562D02*
X13480952Y18045181D01*
X13480952Y18045181D02*
X13338095Y18045181D01*
X13338095Y18045181D02*
X13195238Y17997562D01*
X13195238Y17997562D02*
X13100000Y17902324D01*
X13100000Y17902324D02*
X13052381Y17807086D01*
X13052381Y17807086D02*
X13004762Y17616610D01*
X13004762Y17616610D02*
X13004762Y17473753D01*
X13004762Y17473753D02*
X13052381Y17283277D01*
X13052381Y17283277D02*
X13100000Y17188039D01*
X13100000Y17188039D02*
X13195238Y17092800D01*
X13195238Y17092800D02*
X13338095Y17045181D01*
X13338095Y17045181D02*
X13433333Y17045181D01*
X13433333Y17045181D02*
X13576190Y17092800D01*
X13576190Y17092800D02*
X13623809Y17140420D01*
X13623809Y17140420D02*
X13623809Y17473753D01*
X13623809Y17473753D02*
X13433333Y17473753D01*
X14052381Y17045181D02*
X14052381Y18045181D01*
X14052381Y18045181D02*
X14433333Y18045181D01*
X14433333Y18045181D02*
X14528571Y17997562D01*
X14528571Y17997562D02*
X14576190Y17949943D01*
X14576190Y17949943D02*
X14623809Y17854705D01*
X14623809Y17854705D02*
X14623809Y17711848D01*
X14623809Y17711848D02*
X14576190Y17616610D01*
X14576190Y17616610D02*
X14528571Y17568991D01*
X14528571Y17568991D02*
X14433333Y17521372D01*
X14433333Y17521372D02*
X14052381Y17521372D01*
X15052381Y17045181D02*
X15052381Y18045181D01*
X15719047Y18045181D02*
X15909523Y18045181D01*
X15909523Y18045181D02*
X16004761Y17997562D01*
X16004761Y17997562D02*
X16099999Y17902324D01*
X16099999Y17902324D02*
X16147618Y17711848D01*
X16147618Y17711848D02*
X16147618Y17378515D01*
X16147618Y17378515D02*
X16099999Y17188039D01*
X16099999Y17188039D02*
X16004761Y17092800D01*
X16004761Y17092800D02*
X15909523Y17045181D01*
X15909523Y17045181D02*
X15719047Y17045181D01*
X15719047Y17045181D02*
X15623809Y17092800D01*
X15623809Y17092800D02*
X15528571Y17188039D01*
X15528571Y17188039D02*
X15480952Y17378515D01*
X15480952Y17378515D02*
X15480952Y17711848D01*
X15480952Y17711848D02*
X15528571Y17902324D01*
X15528571Y17902324D02*
X15623809Y17997562D01*
X15623809Y17997562D02*
X15719047Y18045181D01*
X16528571Y17949943D02*
X16576190Y17997562D01*
X16576190Y17997562D02*
X16671428Y18045181D01*
X16671428Y18045181D02*
X16909523Y18045181D01*
X16909523Y18045181D02*
X17004761Y17997562D01*
X17004761Y17997562D02*
X17052380Y17949943D01*
X17052380Y17949943D02*
X17099999Y17854705D01*
X17099999Y17854705D02*
X17099999Y17759467D01*
X17099999Y17759467D02*
X17052380Y17616610D01*
X17052380Y17616610D02*
X16480952Y17045181D01*
X16480952Y17045181D02*
X17099999Y17045181D01*
X17957142Y18045181D02*
X17766666Y18045181D01*
X17766666Y18045181D02*
X17671428Y17997562D01*
X17671428Y17997562D02*
X17623809Y17949943D01*
X17623809Y17949943D02*
X17528571Y17807086D01*
X17528571Y17807086D02*
X17480952Y17616610D01*
X17480952Y17616610D02*
X17480952Y17235658D01*
X17480952Y17235658D02*
X17528571Y17140420D01*
X17528571Y17140420D02*
X17576190Y17092800D01*
X17576190Y17092800D02*
X17671428Y17045181D01*
X17671428Y17045181D02*
X17861904Y17045181D01*
X17861904Y17045181D02*
X17957142Y17092800D01*
X17957142Y17092800D02*
X18004761Y17140420D01*
X18004761Y17140420D02*
X18052380Y17235658D01*
X18052380Y17235658D02*
X18052380Y17473753D01*
X18052380Y17473753D02*
X18004761Y17568991D01*
X18004761Y17568991D02*
X17957142Y17616610D01*
X17957142Y17616610D02*
X17861904Y17664229D01*
X17861904Y17664229D02*
X17671428Y17664229D01*
X17671428Y17664229D02*
X17576190Y17616610D01*
X17576190Y17616610D02*
X17528571Y17568991D01*
X17528571Y17568991D02*
X17480952Y17473753D01*
X18480952Y17426134D02*
X19242857Y17426134D01*
X19671428Y17949943D02*
X19719047Y17997562D01*
X19719047Y17997562D02*
X19814285Y18045181D01*
X19814285Y18045181D02*
X20052380Y18045181D01*
X20052380Y18045181D02*
X20147618Y17997562D01*
X20147618Y17997562D02*
X20195237Y17949943D01*
X20195237Y17949943D02*
X20242856Y17854705D01*
X20242856Y17854705D02*
X20242856Y17759467D01*
X20242856Y17759467D02*
X20195237Y17616610D01*
X20195237Y17616610D02*
X19623809Y17045181D01*
X19623809Y17045181D02*
X20242856Y17045181D01*
X20719047Y17045181D02*
X20909523Y17045181D01*
X20909523Y17045181D02*
X21004761Y17092800D01*
X21004761Y17092800D02*
X21052380Y17140420D01*
X21052380Y17140420D02*
X21147618Y17283277D01*
X21147618Y17283277D02*
X21195237Y17473753D01*
X21195237Y17473753D02*
X21195237Y17854705D01*
X21195237Y17854705D02*
X21147618Y17949943D01*
X21147618Y17949943D02*
X21099999Y17997562D01*
X21099999Y17997562D02*
X21004761Y18045181D01*
X21004761Y18045181D02*
X20814285Y18045181D01*
X20814285Y18045181D02*
X20719047Y17997562D01*
X20719047Y17997562D02*
X20671428Y17949943D01*
X20671428Y17949943D02*
X20623809Y17854705D01*
X20623809Y17854705D02*
X20623809Y17616610D01*
X20623809Y17616610D02*
X20671428Y17521372D01*
X20671428Y17521372D02*
X20719047Y17473753D01*
X20719047Y17473753D02*
X20814285Y17426134D01*
X20814285Y17426134D02*
X21004761Y17426134D01*
X21004761Y17426134D02*
X21099999Y17473753D01*
X21099999Y17473753D02*
X21147618Y17521372D01*
X21147618Y17521372D02*
X21195237Y17616610D01*
X-11057143Y28968991D02*
X-10914286Y28921372D01*
X-10914286Y28921372D02*
X-10866667Y28873753D01*
X-10866667Y28873753D02*
X-10819048Y28778515D01*
X-10819048Y28778515D02*
X-10819048Y28635658D01*
X-10819048Y28635658D02*
X-10866667Y28540420D01*
X-10866667Y28540420D02*
X-10914286Y28492800D01*
X-10914286Y28492800D02*
X-11009524Y28445181D01*
X-11009524Y28445181D02*
X-11390476Y28445181D01*
X-11390476Y28445181D02*
X-11390476Y29445181D01*
X-11390476Y29445181D02*
X-11057143Y29445181D01*
X-11057143Y29445181D02*
X-10961905Y29397562D01*
X-10961905Y29397562D02*
X-10914286Y29349943D01*
X-10914286Y29349943D02*
X-10866667Y29254705D01*
X-10866667Y29254705D02*
X-10866667Y29159467D01*
X-10866667Y29159467D02*
X-10914286Y29064229D01*
X-10914286Y29064229D02*
X-10961905Y29016610D01*
X-10961905Y29016610D02*
X-11057143Y28968991D01*
X-11057143Y28968991D02*
X-11390476Y28968991D01*
X-10200000Y29445181D02*
X-10009524Y29445181D01*
X-10009524Y29445181D02*
X-9914286Y29397562D01*
X-9914286Y29397562D02*
X-9819048Y29302324D01*
X-9819048Y29302324D02*
X-9771429Y29111848D01*
X-9771429Y29111848D02*
X-9771429Y28778515D01*
X-9771429Y28778515D02*
X-9819048Y28588039D01*
X-9819048Y28588039D02*
X-9914286Y28492800D01*
X-9914286Y28492800D02*
X-10009524Y28445181D01*
X-10009524Y28445181D02*
X-10200000Y28445181D01*
X-10200000Y28445181D02*
X-10295238Y28492800D01*
X-10295238Y28492800D02*
X-10390476Y28588039D01*
X-10390476Y28588039D02*
X-10438095Y28778515D01*
X-10438095Y28778515D02*
X-10438095Y29111848D01*
X-10438095Y29111848D02*
X-10390476Y29302324D01*
X-10390476Y29302324D02*
X-10295238Y29397562D01*
X-10295238Y29397562D02*
X-10200000Y29445181D01*
X-9152381Y29445181D02*
X-8961905Y29445181D01*
X-8961905Y29445181D02*
X-8866667Y29397562D01*
X-8866667Y29397562D02*
X-8771429Y29302324D01*
X-8771429Y29302324D02*
X-8723810Y29111848D01*
X-8723810Y29111848D02*
X-8723810Y28778515D01*
X-8723810Y28778515D02*
X-8771429Y28588039D01*
X-8771429Y28588039D02*
X-8866667Y28492800D01*
X-8866667Y28492800D02*
X-8961905Y28445181D01*
X-8961905Y28445181D02*
X-9152381Y28445181D01*
X-9152381Y28445181D02*
X-9247619Y28492800D01*
X-9247619Y28492800D02*
X-9342857Y28588039D01*
X-9342857Y28588039D02*
X-9390476Y28778515D01*
X-9390476Y28778515D02*
X-9390476Y29111848D01*
X-9390476Y29111848D02*
X-9342857Y29302324D01*
X-9342857Y29302324D02*
X-9247619Y29397562D01*
X-9247619Y29397562D02*
X-9152381Y29445181D01*
X-8438095Y29445181D02*
X-7866667Y29445181D01*
X-8152381Y28445181D02*
X-8152381Y29445181D01*
X1667735Y1433334D02*
X1703450Y1385715D01*
X1703450Y1385715D02*
X1739164Y1242858D01*
X1739164Y1242858D02*
X1739164Y1147620D01*
X1739164Y1147620D02*
X1703450Y1004763D01*
X1703450Y1004763D02*
X1632021Y909525D01*
X1632021Y909525D02*
X1560592Y861906D01*
X1560592Y861906D02*
X1417735Y814287D01*
X1417735Y814287D02*
X1310592Y814287D01*
X1310592Y814287D02*
X1167735Y861906D01*
X1167735Y861906D02*
X1096307Y909525D01*
X1096307Y909525D02*
X1024878Y1004763D01*
X1024878Y1004763D02*
X989164Y1147620D01*
X989164Y1147620D02*
X989164Y1242858D01*
X989164Y1242858D02*
X1024878Y1385715D01*
X1024878Y1385715D02*
X1060592Y1433334D01*
X989164Y1766668D02*
X989164Y2385715D01*
X989164Y2385715D02*
X1274878Y2052382D01*
X1274878Y2052382D02*
X1274878Y2195239D01*
X1274878Y2195239D02*
X1310592Y2290477D01*
X1310592Y2290477D02*
X1346307Y2338096D01*
X1346307Y2338096D02*
X1417735Y2385715D01*
X1417735Y2385715D02*
X1596307Y2385715D01*
X1596307Y2385715D02*
X1667735Y2338096D01*
X1667735Y2338096D02*
X1703450Y2290477D01*
X1703450Y2290477D02*
X1739164Y2195239D01*
X1739164Y2195239D02*
X1739164Y1909525D01*
X1739164Y1909525D02*
X1703450Y1814287D01*
X1703450Y1814287D02*
X1667735Y1766668D01*
X-8738095Y45181D02*
X-8738095Y1045181D01*
X-8738095Y1045181D02*
X-8500000Y1045181D01*
X-8500000Y1045181D02*
X-8357143Y997562D01*
X-8357143Y997562D02*
X-8261905Y902324D01*
X-8261905Y902324D02*
X-8214286Y807086D01*
X-8214286Y807086D02*
X-8166667Y616610D01*
X-8166667Y616610D02*
X-8166667Y473753D01*
X-8166667Y473753D02*
X-8214286Y283277D01*
X-8214286Y283277D02*
X-8261905Y188039D01*
X-8261905Y188039D02*
X-8357143Y92800D01*
X-8357143Y92800D02*
X-8500000Y45181D01*
X-8500000Y45181D02*
X-8738095Y45181D01*
X-7214286Y45181D02*
X-7785714Y45181D01*
X-7500000Y45181D02*
X-7500000Y1045181D01*
X-7500000Y1045181D02*
X-7595238Y902324D01*
X-7595238Y902324D02*
X-7690476Y807086D01*
X-7690476Y807086D02*
X-7785714Y759467D01*
X14119047Y3268991D02*
X14261904Y3221372D01*
X14261904Y3221372D02*
X14309523Y3173753D01*
X14309523Y3173753D02*
X14357142Y3078515D01*
X14357142Y3078515D02*
X14357142Y2935658D01*
X14357142Y2935658D02*
X14309523Y2840420D01*
X14309523Y2840420D02*
X14261904Y2792800D01*
X14261904Y2792800D02*
X14166666Y2745181D01*
X14166666Y2745181D02*
X13785714Y2745181D01*
X13785714Y2745181D02*
X13785714Y3745181D01*
X13785714Y3745181D02*
X14119047Y3745181D01*
X14119047Y3745181D02*
X14214285Y3697562D01*
X14214285Y3697562D02*
X14261904Y3649943D01*
X14261904Y3649943D02*
X14309523Y3554705D01*
X14309523Y3554705D02*
X14309523Y3459467D01*
X14309523Y3459467D02*
X14261904Y3364229D01*
X14261904Y3364229D02*
X14214285Y3316610D01*
X14214285Y3316610D02*
X14119047Y3268991D01*
X14119047Y3268991D02*
X13785714Y3268991D01*
X15309523Y2745181D02*
X14738095Y2745181D01*
X15023809Y2745181D02*
X15023809Y3745181D01*
X15023809Y3745181D02*
X14928571Y3602324D01*
X14928571Y3602324D02*
X14833333Y3507086D01*
X14833333Y3507086D02*
X14738095Y3459467D01*
X15880952Y3316610D02*
X15785714Y3364229D01*
X15785714Y3364229D02*
X15738095Y3411848D01*
X15738095Y3411848D02*
X15690476Y3507086D01*
X15690476Y3507086D02*
X15690476Y3554705D01*
X15690476Y3554705D02*
X15738095Y3649943D01*
X15738095Y3649943D02*
X15785714Y3697562D01*
X15785714Y3697562D02*
X15880952Y3745181D01*
X15880952Y3745181D02*
X16071428Y3745181D01*
X16071428Y3745181D02*
X16166666Y3697562D01*
X16166666Y3697562D02*
X16214285Y3649943D01*
X16214285Y3649943D02*
X16261904Y3554705D01*
X16261904Y3554705D02*
X16261904Y3507086D01*
X16261904Y3507086D02*
X16214285Y3411848D01*
X16214285Y3411848D02*
X16166666Y3364229D01*
X16166666Y3364229D02*
X16071428Y3316610D01*
X16071428Y3316610D02*
X15880952Y3316610D01*
X15880952Y3316610D02*
X15785714Y3268991D01*
X15785714Y3268991D02*
X15738095Y3221372D01*
X15738095Y3221372D02*
X15690476Y3126134D01*
X15690476Y3126134D02*
X15690476Y2935658D01*
X15690476Y2935658D02*
X15738095Y2840420D01*
X15738095Y2840420D02*
X15785714Y2792800D01*
X15785714Y2792800D02*
X15880952Y2745181D01*
X15880952Y2745181D02*
X16071428Y2745181D01*
X16071428Y2745181D02*
X16166666Y2792800D01*
X16166666Y2792800D02*
X16214285Y2840420D01*
X16214285Y2840420D02*
X16261904Y2935658D01*
X16261904Y2935658D02*
X16261904Y3126134D01*
X16261904Y3126134D02*
X16214285Y3221372D01*
X16214285Y3221372D02*
X16166666Y3268991D01*
X16166666Y3268991D02*
X16071428Y3316610D01*
X7719047Y10768991D02*
X7861904Y10721372D01*
X7861904Y10721372D02*
X7909523Y10673753D01*
X7909523Y10673753D02*
X7957142Y10578515D01*
X7957142Y10578515D02*
X7957142Y10435658D01*
X7957142Y10435658D02*
X7909523Y10340420D01*
X7909523Y10340420D02*
X7861904Y10292800D01*
X7861904Y10292800D02*
X7766666Y10245181D01*
X7766666Y10245181D02*
X7385714Y10245181D01*
X7385714Y10245181D02*
X7385714Y11245181D01*
X7385714Y11245181D02*
X7719047Y11245181D01*
X7719047Y11245181D02*
X7814285Y11197562D01*
X7814285Y11197562D02*
X7861904Y11149943D01*
X7861904Y11149943D02*
X7909523Y11054705D01*
X7909523Y11054705D02*
X7909523Y10959467D01*
X7909523Y10959467D02*
X7861904Y10864229D01*
X7861904Y10864229D02*
X7814285Y10816610D01*
X7814285Y10816610D02*
X7719047Y10768991D01*
X7719047Y10768991D02*
X7385714Y10768991D01*
X8909523Y10245181D02*
X8338095Y10245181D01*
X8623809Y10245181D02*
X8623809Y11245181D01*
X8623809Y11245181D02*
X8528571Y11102324D01*
X8528571Y11102324D02*
X8433333Y11007086D01*
X8433333Y11007086D02*
X8338095Y10959467D01*
X9385714Y10245181D02*
X9576190Y10245181D01*
X9576190Y10245181D02*
X9671428Y10292800D01*
X9671428Y10292800D02*
X9719047Y10340420D01*
X9719047Y10340420D02*
X9814285Y10483277D01*
X9814285Y10483277D02*
X9861904Y10673753D01*
X9861904Y10673753D02*
X9861904Y11054705D01*
X9861904Y11054705D02*
X9814285Y11149943D01*
X9814285Y11149943D02*
X9766666Y11197562D01*
X9766666Y11197562D02*
X9671428Y11245181D01*
X9671428Y11245181D02*
X9480952Y11245181D01*
X9480952Y11245181D02*
X9385714Y11197562D01*
X9385714Y11197562D02*
X9338095Y11149943D01*
X9338095Y11149943D02*
X9290476Y11054705D01*
X9290476Y11054705D02*
X9290476Y10816610D01*
X9290476Y10816610D02*
X9338095Y10721372D01*
X9338095Y10721372D02*
X9385714Y10673753D01*
X9385714Y10673753D02*
X9480952Y10626134D01*
X9480952Y10626134D02*
X9671428Y10626134D01*
X9671428Y10626134D02*
X9766666Y10673753D01*
X9766666Y10673753D02*
X9814285Y10721372D01*
X9814285Y10721372D02*
X9861904Y10816610D01*
X15047619Y28145181D02*
X15047619Y29145181D01*
X15047619Y29145181D02*
X15428571Y29145181D01*
X15428571Y29145181D02*
X15523809Y29097562D01*
X15523809Y29097562D02*
X15571428Y29049943D01*
X15571428Y29049943D02*
X15619047Y28954705D01*
X15619047Y28954705D02*
X15619047Y28811848D01*
X15619047Y28811848D02*
X15571428Y28716610D01*
X15571428Y28716610D02*
X15523809Y28668991D01*
X15523809Y28668991D02*
X15428571Y28621372D01*
X15428571Y28621372D02*
X15047619Y28621372D01*
X16047619Y28145181D02*
X16047619Y29145181D01*
X16523809Y28668991D02*
X16857142Y28668991D01*
X16999999Y28145181D02*
X16523809Y28145181D01*
X16523809Y28145181D02*
X16523809Y29145181D01*
X16523809Y29145181D02*
X16999999Y29145181D01*
X17333333Y29145181D02*
X17999999Y29145181D01*
X17999999Y29145181D02*
X17333333Y28145181D01*
X17333333Y28145181D02*
X17999999Y28145181D01*
X18571428Y29145181D02*
X18761904Y29145181D01*
X18761904Y29145181D02*
X18857142Y29097562D01*
X18857142Y29097562D02*
X18952380Y29002324D01*
X18952380Y29002324D02*
X18999999Y28811848D01*
X18999999Y28811848D02*
X18999999Y28478515D01*
X18999999Y28478515D02*
X18952380Y28288039D01*
X18952380Y28288039D02*
X18857142Y28192800D01*
X18857142Y28192800D02*
X18761904Y28145181D01*
X18761904Y28145181D02*
X18571428Y28145181D01*
X18571428Y28145181D02*
X18476190Y28192800D01*
X18476190Y28192800D02*
X18380952Y28288039D01*
X18380952Y28288039D02*
X18333333Y28478515D01*
X18333333Y28478515D02*
X18333333Y28811848D01*
X18333333Y28811848D02*
X18380952Y29002324D01*
X18380952Y29002324D02*
X18476190Y29097562D01*
X18476190Y29097562D02*
X18571428Y29145181D01*
X-19757143Y23945181D02*
X-19757143Y24945181D01*
X-19328572Y25183277D02*
X-19233334Y25230896D01*
X-19233334Y25230896D02*
X-19090477Y25230896D01*
X-19090477Y25230896D02*
X-18995239Y25183277D01*
X-18995239Y25183277D02*
X-18947620Y25088039D01*
X-18947620Y25088039D02*
X-18947620Y24992800D01*
X-18947620Y24992800D02*
X-18995239Y24897562D01*
X-18995239Y24897562D02*
X-19328572Y24564229D01*
X-19328572Y24564229D02*
X-18947620Y24564229D01*
X-17947620Y24040420D02*
X-17995239Y23992800D01*
X-17995239Y23992800D02*
X-18138096Y23945181D01*
X-18138096Y23945181D02*
X-18233334Y23945181D01*
X-18233334Y23945181D02*
X-18376191Y23992800D01*
X-18376191Y23992800D02*
X-18471429Y24088039D01*
X-18471429Y24088039D02*
X-18519048Y24183277D01*
X-18519048Y24183277D02*
X-18566667Y24373753D01*
X-18566667Y24373753D02*
X-18566667Y24516610D01*
X-18566667Y24516610D02*
X-18519048Y24707086D01*
X-18519048Y24707086D02*
X-18471429Y24802324D01*
X-18471429Y24802324D02*
X-18376191Y24897562D01*
X-18376191Y24897562D02*
X-18233334Y24945181D01*
X-18233334Y24945181D02*
X-18138096Y24945181D01*
X-18138096Y24945181D02*
X-17995239Y24897562D01*
X-17995239Y24897562D02*
X-17947620Y24849943D01*
X-17328572Y24945181D02*
X-17233334Y24945181D01*
X-17233334Y24945181D02*
X-17138096Y24897562D01*
X-17138096Y24897562D02*
X-17090477Y24849943D01*
X-17090477Y24849943D02*
X-17042858Y24754705D01*
X-17042858Y24754705D02*
X-16995239Y24564229D01*
X-16995239Y24564229D02*
X-16995239Y24326134D01*
X-16995239Y24326134D02*
X-17042858Y24135658D01*
X-17042858Y24135658D02*
X-17090477Y24040420D01*
X-17090477Y24040420D02*
X-17138096Y23992800D01*
X-17138096Y23992800D02*
X-17233334Y23945181D01*
X-17233334Y23945181D02*
X-17328572Y23945181D01*
X-17328572Y23945181D02*
X-17423810Y23992800D01*
X-17423810Y23992800D02*
X-17471429Y24040420D01*
X-17471429Y24040420D02*
X-17519048Y24135658D01*
X-17519048Y24135658D02*
X-17566667Y24326134D01*
X-17566667Y24326134D02*
X-17566667Y24564229D01*
X-17566667Y24564229D02*
X-17519048Y24754705D01*
X-17519048Y24754705D02*
X-17471429Y24849943D01*
X-17471429Y24849943D02*
X-17423810Y24897562D01*
X-17423810Y24897562D02*
X-17328572Y24945181D01*
X18619047Y10768991D02*
X18761904Y10721372D01*
X18761904Y10721372D02*
X18809523Y10673753D01*
X18809523Y10673753D02*
X18857142Y10578515D01*
X18857142Y10578515D02*
X18857142Y10435658D01*
X18857142Y10435658D02*
X18809523Y10340420D01*
X18809523Y10340420D02*
X18761904Y10292800D01*
X18761904Y10292800D02*
X18666666Y10245181D01*
X18666666Y10245181D02*
X18285714Y10245181D01*
X18285714Y10245181D02*
X18285714Y11245181D01*
X18285714Y11245181D02*
X18619047Y11245181D01*
X18619047Y11245181D02*
X18714285Y11197562D01*
X18714285Y11197562D02*
X18761904Y11149943D01*
X18761904Y11149943D02*
X18809523Y11054705D01*
X18809523Y11054705D02*
X18809523Y10959467D01*
X18809523Y10959467D02*
X18761904Y10864229D01*
X18761904Y10864229D02*
X18714285Y10816610D01*
X18714285Y10816610D02*
X18619047Y10768991D01*
X18619047Y10768991D02*
X18285714Y10768991D01*
X19238095Y11149943D02*
X19285714Y11197562D01*
X19285714Y11197562D02*
X19380952Y11245181D01*
X19380952Y11245181D02*
X19619047Y11245181D01*
X19619047Y11245181D02*
X19714285Y11197562D01*
X19714285Y11197562D02*
X19761904Y11149943D01*
X19761904Y11149943D02*
X19809523Y11054705D01*
X19809523Y11054705D02*
X19809523Y10959467D01*
X19809523Y10959467D02*
X19761904Y10816610D01*
X19761904Y10816610D02*
X19190476Y10245181D01*
X19190476Y10245181D02*
X19809523Y10245181D01*
X20761904Y10245181D02*
X20190476Y10245181D01*
X20476190Y10245181D02*
X20476190Y11245181D01*
X20476190Y11245181D02*
X20380952Y11102324D01*
X20380952Y11102324D02*
X20285714Y11007086D01*
X20285714Y11007086D02*
X20190476Y10959467D01*
X8719047Y3268991D02*
X8861904Y3221372D01*
X8861904Y3221372D02*
X8909523Y3173753D01*
X8909523Y3173753D02*
X8957142Y3078515D01*
X8957142Y3078515D02*
X8957142Y2935658D01*
X8957142Y2935658D02*
X8909523Y2840420D01*
X8909523Y2840420D02*
X8861904Y2792800D01*
X8861904Y2792800D02*
X8766666Y2745181D01*
X8766666Y2745181D02*
X8385714Y2745181D01*
X8385714Y2745181D02*
X8385714Y3745181D01*
X8385714Y3745181D02*
X8719047Y3745181D01*
X8719047Y3745181D02*
X8814285Y3697562D01*
X8814285Y3697562D02*
X8861904Y3649943D01*
X8861904Y3649943D02*
X8909523Y3554705D01*
X8909523Y3554705D02*
X8909523Y3459467D01*
X8909523Y3459467D02*
X8861904Y3364229D01*
X8861904Y3364229D02*
X8814285Y3316610D01*
X8814285Y3316610D02*
X8719047Y3268991D01*
X8719047Y3268991D02*
X8385714Y3268991D01*
X9909523Y2745181D02*
X9338095Y2745181D01*
X9623809Y2745181D02*
X9623809Y3745181D01*
X9623809Y3745181D02*
X9528571Y3602324D01*
X9528571Y3602324D02*
X9433333Y3507086D01*
X9433333Y3507086D02*
X9338095Y3459467D01*
X10242857Y3745181D02*
X10909523Y3745181D01*
X10909523Y3745181D02*
X10480952Y2745181D01*
X-3060836Y6533334D02*
X-3417979Y6200001D01*
X-3060836Y5961906D02*
X-3810836Y5961906D01*
X-3810836Y5961906D02*
X-3810836Y6342858D01*
X-3810836Y6342858D02*
X-3775122Y6438096D01*
X-3775122Y6438096D02*
X-3739408Y6485715D01*
X-3739408Y6485715D02*
X-3667979Y6533334D01*
X-3667979Y6533334D02*
X-3560836Y6533334D01*
X-3560836Y6533334D02*
X-3489408Y6485715D01*
X-3489408Y6485715D02*
X-3453693Y6438096D01*
X-3453693Y6438096D02*
X-3417979Y6342858D01*
X-3417979Y6342858D02*
X-3417979Y5961906D01*
X-3810836Y7438096D02*
X-3810836Y6961906D01*
X-3810836Y6961906D02*
X-3453693Y6914287D01*
X-3453693Y6914287D02*
X-3489408Y6961906D01*
X-3489408Y6961906D02*
X-3525122Y7057144D01*
X-3525122Y7057144D02*
X-3525122Y7295239D01*
X-3525122Y7295239D02*
X-3489408Y7390477D01*
X-3489408Y7390477D02*
X-3453693Y7438096D01*
X-3453693Y7438096D02*
X-3382265Y7485715D01*
X-3382265Y7485715D02*
X-3203693Y7485715D01*
X-3203693Y7485715D02*
X-3132265Y7438096D01*
X-3132265Y7438096D02*
X-3096550Y7390477D01*
X-3096550Y7390477D02*
X-3060836Y7295239D01*
X-3060836Y7295239D02*
X-3060836Y7057144D01*
X-3060836Y7057144D02*
X-3096550Y6961906D01*
X-3096550Y6961906D02*
X-3132265Y6914287D01*
X3519047Y3368991D02*
X3661904Y3321372D01*
X3661904Y3321372D02*
X3709523Y3273753D01*
X3709523Y3273753D02*
X3757142Y3178515D01*
X3757142Y3178515D02*
X3757142Y3035658D01*
X3757142Y3035658D02*
X3709523Y2940420D01*
X3709523Y2940420D02*
X3661904Y2892800D01*
X3661904Y2892800D02*
X3566666Y2845181D01*
X3566666Y2845181D02*
X3185714Y2845181D01*
X3185714Y2845181D02*
X3185714Y3845181D01*
X3185714Y3845181D02*
X3519047Y3845181D01*
X3519047Y3845181D02*
X3614285Y3797562D01*
X3614285Y3797562D02*
X3661904Y3749943D01*
X3661904Y3749943D02*
X3709523Y3654705D01*
X3709523Y3654705D02*
X3709523Y3559467D01*
X3709523Y3559467D02*
X3661904Y3464229D01*
X3661904Y3464229D02*
X3614285Y3416610D01*
X3614285Y3416610D02*
X3519047Y3368991D01*
X3519047Y3368991D02*
X3185714Y3368991D01*
X4709523Y2845181D02*
X4138095Y2845181D01*
X4423809Y2845181D02*
X4423809Y3845181D01*
X4423809Y3845181D02*
X4328571Y3702324D01*
X4328571Y3702324D02*
X4233333Y3607086D01*
X4233333Y3607086D02*
X4138095Y3559467D01*
X5566666Y3845181D02*
X5376190Y3845181D01*
X5376190Y3845181D02*
X5280952Y3797562D01*
X5280952Y3797562D02*
X5233333Y3749943D01*
X5233333Y3749943D02*
X5138095Y3607086D01*
X5138095Y3607086D02*
X5090476Y3416610D01*
X5090476Y3416610D02*
X5090476Y3035658D01*
X5090476Y3035658D02*
X5138095Y2940420D01*
X5138095Y2940420D02*
X5185714Y2892800D01*
X5185714Y2892800D02*
X5280952Y2845181D01*
X5280952Y2845181D02*
X5471428Y2845181D01*
X5471428Y2845181D02*
X5566666Y2892800D01*
X5566666Y2892800D02*
X5614285Y2940420D01*
X5614285Y2940420D02*
X5661904Y3035658D01*
X5661904Y3035658D02*
X5661904Y3273753D01*
X5661904Y3273753D02*
X5614285Y3368991D01*
X5614285Y3368991D02*
X5566666Y3416610D01*
X5566666Y3416610D02*
X5471428Y3464229D01*
X5471428Y3464229D02*
X5280952Y3464229D01*
X5280952Y3464229D02*
X5185714Y3416610D01*
X5185714Y3416610D02*
X5138095Y3368991D01*
X5138095Y3368991D02*
X5090476Y3273753D01*
X13219047Y10768991D02*
X13361904Y10721372D01*
X13361904Y10721372D02*
X13409523Y10673753D01*
X13409523Y10673753D02*
X13457142Y10578515D01*
X13457142Y10578515D02*
X13457142Y10435658D01*
X13457142Y10435658D02*
X13409523Y10340420D01*
X13409523Y10340420D02*
X13361904Y10292800D01*
X13361904Y10292800D02*
X13266666Y10245181D01*
X13266666Y10245181D02*
X12885714Y10245181D01*
X12885714Y10245181D02*
X12885714Y11245181D01*
X12885714Y11245181D02*
X13219047Y11245181D01*
X13219047Y11245181D02*
X13314285Y11197562D01*
X13314285Y11197562D02*
X13361904Y11149943D01*
X13361904Y11149943D02*
X13409523Y11054705D01*
X13409523Y11054705D02*
X13409523Y10959467D01*
X13409523Y10959467D02*
X13361904Y10864229D01*
X13361904Y10864229D02*
X13314285Y10816610D01*
X13314285Y10816610D02*
X13219047Y10768991D01*
X13219047Y10768991D02*
X12885714Y10768991D01*
X13838095Y11149943D02*
X13885714Y11197562D01*
X13885714Y11197562D02*
X13980952Y11245181D01*
X13980952Y11245181D02*
X14219047Y11245181D01*
X14219047Y11245181D02*
X14314285Y11197562D01*
X14314285Y11197562D02*
X14361904Y11149943D01*
X14361904Y11149943D02*
X14409523Y11054705D01*
X14409523Y11054705D02*
X14409523Y10959467D01*
X14409523Y10959467D02*
X14361904Y10816610D01*
X14361904Y10816610D02*
X13790476Y10245181D01*
X13790476Y10245181D02*
X14409523Y10245181D01*
X15028571Y11245181D02*
X15123809Y11245181D01*
X15123809Y11245181D02*
X15219047Y11197562D01*
X15219047Y11197562D02*
X15266666Y11149943D01*
X15266666Y11149943D02*
X15314285Y11054705D01*
X15314285Y11054705D02*
X15361904Y10864229D01*
X15361904Y10864229D02*
X15361904Y10626134D01*
X15361904Y10626134D02*
X15314285Y10435658D01*
X15314285Y10435658D02*
X15266666Y10340420D01*
X15266666Y10340420D02*
X15219047Y10292800D01*
X15219047Y10292800D02*
X15123809Y10245181D01*
X15123809Y10245181D02*
X15028571Y10245181D01*
X15028571Y10245181D02*
X14933333Y10292800D01*
X14933333Y10292800D02*
X14885714Y10340420D01*
X14885714Y10340420D02*
X14838095Y10435658D01*
X14838095Y10435658D02*
X14790476Y10626134D01*
X14790476Y10626134D02*
X14790476Y10864229D01*
X14790476Y10864229D02*
X14838095Y11054705D01*
X14838095Y11054705D02*
X14885714Y11149943D01*
X14885714Y11149943D02*
X14933333Y11197562D01*
X14933333Y11197562D02*
X15028571Y11245181D01*
D11*
X-1792858Y26021672D02*
X-1792858Y24807386D01*
X-1792858Y24807386D02*
X-1721429Y24664529D01*
X-1721429Y24664529D02*
X-1650000Y24593100D01*
X-1650000Y24593100D02*
X-1507143Y24521672D01*
X-1507143Y24521672D02*
X-1221429Y24521672D01*
X-1221429Y24521672D02*
X-1078572Y24593100D01*
X-1078572Y24593100D02*
X-1007143Y24664529D01*
X-1007143Y24664529D02*
X-935715Y24807386D01*
X-935715Y24807386D02*
X-935715Y26021672D01*
X-292857Y24593100D02*
X-78571Y24521672D01*
X-78571Y24521672D02*
X278571Y24521672D01*
X278571Y24521672D02*
X421429Y24593100D01*
X421429Y24593100D02*
X492857Y24664529D01*
X492857Y24664529D02*
X564286Y24807386D01*
X564286Y24807386D02*
X564286Y24950243D01*
X564286Y24950243D02*
X492857Y25093100D01*
X492857Y25093100D02*
X421429Y25164529D01*
X421429Y25164529D02*
X278571Y25235958D01*
X278571Y25235958D02*
X-7143Y25307386D01*
X-7143Y25307386D02*
X-150000Y25378815D01*
X-150000Y25378815D02*
X-221429Y25450243D01*
X-221429Y25450243D02*
X-292857Y25593100D01*
X-292857Y25593100D02*
X-292857Y25735958D01*
X-292857Y25735958D02*
X-221429Y25878815D01*
X-221429Y25878815D02*
X-150000Y25950243D01*
X-150000Y25950243D02*
X-7143Y26021672D01*
X-7143Y26021672D02*
X350000Y26021672D01*
X350000Y26021672D02*
X564286Y25950243D01*
X1707142Y25307386D02*
X1921428Y25235958D01*
X1921428Y25235958D02*
X1992857Y25164529D01*
X1992857Y25164529D02*
X2064285Y25021672D01*
X2064285Y25021672D02*
X2064285Y24807386D01*
X2064285Y24807386D02*
X1992857Y24664529D01*
X1992857Y24664529D02*
X1921428Y24593100D01*
X1921428Y24593100D02*
X1778571Y24521672D01*
X1778571Y24521672D02*
X1207142Y24521672D01*
X1207142Y24521672D02*
X1207142Y26021672D01*
X1207142Y26021672D02*
X1707142Y26021672D01*
X1707142Y26021672D02*
X1850000Y25950243D01*
X1850000Y25950243D02*
X1921428Y25878815D01*
X1921428Y25878815D02*
X1992857Y25735958D01*
X1992857Y25735958D02*
X1992857Y25593100D01*
X1992857Y25593100D02*
X1921428Y25450243D01*
X1921428Y25450243D02*
X1850000Y25378815D01*
X1850000Y25378815D02*
X1707142Y25307386D01*
X1707142Y25307386D02*
X1207142Y25307386D01*
D10*
X6038095Y24745181D02*
X6038095Y23935658D01*
X6038095Y23935658D02*
X6085714Y23840420D01*
X6085714Y23840420D02*
X6133333Y23792800D01*
X6133333Y23792800D02*
X6228571Y23745181D01*
X6228571Y23745181D02*
X6419047Y23745181D01*
X6419047Y23745181D02*
X6514285Y23792800D01*
X6514285Y23792800D02*
X6561904Y23840420D01*
X6561904Y23840420D02*
X6609523Y23935658D01*
X6609523Y23935658D02*
X6609523Y24745181D01*
X7609523Y23745181D02*
X7038095Y23745181D01*
X7323809Y23745181D02*
X7323809Y24745181D01*
X7323809Y24745181D02*
X7228571Y24602324D01*
X7228571Y24602324D02*
X7133333Y24507086D01*
X7133333Y24507086D02*
X7038095Y24459467D01*
D12*
X9811252Y19665000D02*
X9288748Y19665000D01*
X9811252Y21135000D02*
X9288748Y21135000D01*
X2140000Y19602164D02*
X2140000Y19817836D01*
X2860000Y19602164D02*
X2860000Y19817836D01*
X1140000Y19602164D02*
X1140000Y19817836D01*
X1860000Y19602164D02*
X1860000Y19817836D01*
X-6692164Y11640000D02*
X-6907836Y11640000D01*
X-6692164Y12360000D02*
X-6907836Y12360000D01*
X-3607836Y23960000D02*
X-3392164Y23960000D01*
X-3607836Y23240000D02*
X-3392164Y23240000D01*
X-12653641Y23980000D02*
X-12346359Y23980000D01*
X-12653641Y23220000D02*
X-12346359Y23220000D01*
X-11230000Y23975000D02*
X-11710000Y23975000D01*
X-11230000Y24455000D01*
X-11230000Y23975000D01*
G36*
X-11230000Y23975000D02*
G01*
X-11710000Y23975000D01*
X-11230000Y24455000D01*
X-11230000Y23975000D01*
G37*
X-10990000Y24275000D02*
X-5000000Y24275000D01*
X-11000000Y19055000D02*
X-5000000Y19055000D01*
X-13843641Y25380000D02*
X-13536359Y25380000D01*
X-13843641Y24620000D02*
X-13536359Y24620000D01*
X-1860000Y19592164D02*
X-1860000Y19807836D01*
X-1140000Y19592164D02*
X-1140000Y19807836D01*
X3792164Y12360000D02*
X4007836Y12360000D01*
X3792164Y11640000D02*
X4007836Y11640000D01*
X-1479000Y6847836D02*
X-1479000Y6632164D01*
X-759000Y6847836D02*
X-759000Y6632164D01*
X-880000Y19863641D02*
X-880000Y19556359D01*
X-120000Y19863641D02*
X-120000Y19556359D01*
X-360000Y6847836D02*
X-360000Y6632164D01*
X360000Y6847836D02*
X360000Y6632164D01*
X9288748Y27465000D02*
X9811252Y27465000D01*
X9288748Y28935000D02*
X9811252Y28935000D01*
X-6592164Y16360000D02*
X-6807836Y16360000D01*
X-6592164Y15640000D02*
X-6807836Y15640000D01*
X3792164Y17560000D02*
X4007836Y17560000D01*
X3792164Y16840000D02*
X4007836Y16840000D01*
X2110000Y9615000D02*
X2110000Y10265000D01*
X2110000Y16835000D02*
X2110000Y16185000D01*
X1460000Y9615000D02*
X2110000Y9615000D01*
X1460000Y16835000D02*
X2110000Y16835000D01*
X-4460000Y9615000D02*
X-5110000Y9615000D01*
X-4460000Y16835000D02*
X-5110000Y16835000D01*
X-5110000Y9615000D02*
X-5110000Y10265000D01*
X120000Y19863641D02*
X120000Y19556359D01*
X880000Y19863641D02*
X880000Y19556359D01*
X-2860000Y19592164D02*
X-2860000Y19807836D01*
X-2140000Y19592164D02*
X-2140000Y19807836D01*
X3792164Y16460000D02*
X4007836Y16460000D01*
X3792164Y15740000D02*
X4007836Y15740000D01*
X-14038748Y27365000D02*
X-14561252Y27365000D01*
X-14038748Y28835000D02*
X-14561252Y28835000D01*
X-21110000Y7810000D02*
X-20060000Y7810000D01*
X-21110000Y6660000D02*
X-21110000Y7810000D01*
X-14060000Y4690000D02*
X-19940000Y4690000D01*
X-13940000Y7810000D02*
X-13940000Y8800000D01*
X-12890000Y7810000D02*
X-13940000Y7810000D01*
X-12890000Y6660000D02*
X-12890000Y7810000D01*
X-12890000Y13860000D02*
X-12890000Y15010000D01*
X-12890000Y15010000D02*
X-13940000Y15010000D01*
X-13940000Y15010000D02*
X-13940000Y16000000D01*
X-14060000Y11890000D02*
X-19940000Y11890000D01*
X-21110000Y13860000D02*
X-21110000Y15010000D01*
X-21110000Y15010000D02*
X-20060000Y15010000D01*
X-12890000Y-540000D02*
X-12890000Y610000D01*
X-12890000Y610000D02*
X-13940000Y610000D01*
X-13940000Y610000D02*
X-13940000Y1600000D01*
X-14060000Y-2510000D02*
X-19940000Y-2510000D01*
X-21110000Y-540000D02*
X-21110000Y610000D01*
X-21110000Y610000D02*
X-20060000Y610000D01*
X-3150000Y-400000D02*
X150000Y-400000D01*
X-3150000Y-700000D02*
X-3150000Y-400000D01*
X-3150000Y-2900000D02*
X-3150000Y-3200000D01*
X-3150000Y-3200000D02*
X150000Y-3200000D01*
X150000Y-400000D02*
X150000Y-700000D01*
X150000Y-3200000D02*
X150000Y-2900000D01*
X-4660000Y3312164D02*
X-4660000Y3527836D01*
X-3940000Y3312164D02*
X-3940000Y3527836D01*
X21110000Y13065000D02*
X20060000Y13065000D01*
X21110000Y14215000D02*
X21110000Y13065000D01*
X14060000Y16185000D02*
X19940000Y16185000D01*
X13940000Y13065000D02*
X13940000Y12075000D01*
X12890000Y13065000D02*
X13940000Y13065000D01*
X12890000Y14215000D02*
X12890000Y13065000D01*
X-11250000Y27900000D02*
X-11250000Y27600000D01*
X-11250000Y25100000D02*
X-11250000Y25400000D01*
X-7950000Y27900000D02*
X-11250000Y27900000D01*
X-7950000Y27600000D02*
X-7950000Y27900000D01*
X-7950000Y25400000D02*
X-7950000Y25100000D01*
X-7950000Y25100000D02*
X-11250000Y25100000D01*
X940000Y3607836D02*
X940000Y3392164D01*
X1660000Y3607836D02*
X1660000Y3392164D01*
X-9600000Y-2650000D02*
X-9600000Y-350000D01*
X-6700000Y-2650000D02*
X-9600000Y-2650000D01*
X-6700000Y-2650000D02*
X-6400000Y-2350000D01*
X-6400000Y-350000D02*
X-9600000Y-350000D01*
X-6400000Y-350000D02*
X-6400000Y-2350000D01*
X17310000Y440000D02*
X17310000Y-1440000D01*
X15340000Y-2610000D02*
X14190000Y-2610000D01*
X15340000Y1610000D02*
X14190000Y1610000D01*
X14190000Y-2610000D02*
X14190000Y-1560000D01*
X14190000Y560000D02*
X13200000Y560000D01*
X14190000Y1610000D02*
X14190000Y560000D01*
X-3500000Y5100000D02*
X-3500000Y1800000D01*
X-3500000Y1800000D02*
X500000Y1800000D01*
X10910000Y7940000D02*
X10910000Y6060000D01*
X8940000Y4890000D02*
X7790000Y4890000D01*
X8940000Y9110000D02*
X7790000Y9110000D01*
X7790000Y4890000D02*
X7790000Y5940000D01*
X7790000Y8060000D02*
X6800000Y8060000D01*
X7790000Y9110000D02*
X7790000Y8060000D01*
X12290000Y27710000D02*
X21510000Y27710000D01*
X12290000Y25060000D02*
X11960000Y25060000D01*
X12290000Y25060000D02*
X12290000Y27710000D01*
X12290000Y18490000D02*
X12290000Y21140000D01*
X21510000Y27710000D02*
X21510000Y25060000D01*
X21510000Y21140000D02*
X21510000Y18490000D01*
X21510000Y18490000D02*
X12290000Y18490000D01*
X-21110000Y21065000D02*
X-21110000Y19915000D01*
X-21110000Y19915000D02*
X-20060000Y19915000D01*
X-20060000Y19915000D02*
X-20060000Y18925000D01*
X-19940000Y23035000D02*
X-16060000Y23035000D01*
X-14890000Y21065000D02*
X-14890000Y19915000D01*
X-14890000Y19915000D02*
X-15940000Y19915000D01*
X21810000Y7940000D02*
X21810000Y6060000D01*
X19840000Y4890000D02*
X18690000Y4890000D01*
X19840000Y9110000D02*
X18690000Y9110000D01*
X18690000Y4890000D02*
X18690000Y5940000D01*
X18690000Y8060000D02*
X17700000Y8060000D01*
X18690000Y9110000D02*
X18690000Y8060000D01*
X11910000Y440000D02*
X11910000Y-1440000D01*
X9940000Y-2610000D02*
X8790000Y-2610000D01*
X9940000Y1610000D02*
X8790000Y1610000D01*
X8790000Y-2610000D02*
X8790000Y-1560000D01*
X8790000Y560000D02*
X7800000Y560000D01*
X8790000Y1610000D02*
X8790000Y560000D01*
X-2680000Y6853641D02*
X-2680000Y6546359D01*
X-1920000Y6853641D02*
X-1920000Y6546359D01*
X6510000Y440000D02*
X6510000Y-1440000D01*
X4540000Y-2610000D02*
X3390000Y-2610000D01*
X4540000Y1610000D02*
X3390000Y1610000D01*
X3390000Y-2610000D02*
X3390000Y-1560000D01*
X3390000Y560000D02*
X2400000Y560000D01*
X3390000Y1610000D02*
X3390000Y560000D01*
X16410000Y7940000D02*
X16410000Y6060000D01*
X14440000Y4890000D02*
X13290000Y4890000D01*
X14440000Y9110000D02*
X13290000Y9110000D01*
X13290000Y4890000D02*
X13290000Y5940000D01*
X13290000Y8060000D02*
X12300000Y8060000D01*
X13290000Y9110000D02*
X13290000Y8060000D01*
X5150000Y26570000D02*
X5150000Y29230000D01*
X-2530000Y26570000D02*
X5150000Y26570000D01*
X-2530000Y26570000D02*
X-2530000Y29230000D01*
X-2530000Y29230000D02*
X5150000Y29230000D01*
X-3800000Y26570000D02*
X-5130000Y26570000D01*
X-5130000Y26570000D02*
X-5130000Y27900000D01*
X11110000Y24300000D02*
X11110000Y25100000D01*
X11110000Y24300000D02*
X11110000Y23500000D01*
X7990000Y24300000D02*
X7990000Y25100000D01*
X7990000Y24300000D02*
X7990000Y23500000D01*
X11390000Y25360000D02*
X11060000Y25600000D01*
X11390000Y25840000D01*
X11390000Y25360000D01*
G36*
X11390000Y25360000D02*
G01*
X11060000Y25600000D01*
X11390000Y25840000D01*
X11390000Y25360000D01*
G37*
M02*
