M48
; DRILL file {KiCad 8.0.7} date 2025-01-03T21:38:40-0800
; FORMAT={-:-/ absolute / metric / decimal}
; #@! TF.CreationDate,2025-01-03T21:38:40-08:00
; #@! TF.GenerationSoftware,Kicad,Pcbnew,8.0.7
; #@! TF.FileFunction,Plated,1,2,PTH
FMAT,2
METRIC
; #@! TA.AperFunction,Plated,PTH,ViaDrill
T1C0.350
; #@! TA.AperFunction,Plated,PTH,ComponentDrill
T2C0.350
; #@! TA.AperFunction,Plated,PTH,ComponentDrill
T3C1.000
%
G90
G05
T1
X-19.5Y21.1
X-18.5Y13.9
X-18.5Y6.6
X-18.5Y-0.5
X-16.6Y28.1
X-11.8Y19.76
X-9.0Y26.5
X-8.2Y12.0
X-8.1Y16.0
X-7.95Y-0.95
X-6.5Y5.0
X-5.2Y27.9
X-4.938Y9.5
X-4.4Y1.8
X-4.3Y6.0
X-2.8Y8.6
X-2.1Y23.6
X-2.0Y21.2
X-2.0Y-1.8
X-1.7Y18.025
X-0.9Y11.125
X-0.8Y15.325
X-0.7Y8.025
X1.6Y1.9
X1.7Y6.0
X2.0Y21.2
X4.5Y-1.0
X5.3Y16.7
X5.3Y12.0
X7.4Y20.4
X9.0Y6.5
X9.55Y24.25
X10.0Y-1.0
X11.05Y17.5
X11.05Y13.75
X11.7Y28.2
X14.5Y6.5
X15.5Y-1.0
X18.5Y14.4
X19.6Y23.1
X20.0Y6.5
T2
X-2.775Y14.5
X-2.775Y13.225
X-2.775Y11.95
X-1.5Y14.5
X-1.5Y13.225
X-1.5Y11.95
X-0.225Y14.5
X-0.225Y13.225
X-0.225Y11.95
T3
X-3.8Y27.9
X-1.26Y27.9
X1.28Y27.9
X3.82Y27.9
M30
