M48
; DRILL file {KiCad 8.0.7} date 2025-01-01T17:48:26-0800
; FORMAT={-:-/ absolute / metric / decimal}
; #@! TF.CreationDate,2025-01-01T17:48:26-08:00
; #@! TF.GenerationSoftware,Kicad,Pcbnew,8.0.7
; #@! TF.FileFunction,Plated,1,2,PTH
FMAT,2
METRIC
; #@! TA.AperFunction,Plated,PTH,ViaDrill
T1C0.350
; #@! TA.AperFunction,Plated,PTH,ComponentDrill
T2C0.350
; #@! TA.AperFunction,Plated,PTH,ComponentDrill
T3C1.000
%
G90
G05
T1
X-18.5Y12.0
X-18.5Y4.5
X-11.8Y19.76
X-8.675Y12.0
X-8.1Y16.9
X-5.6Y26.5
X-4.1Y4.9
X-2.8Y8.6
X-2.5Y21.2
X-2.0Y-1.8
X-1.7Y18.025
X-0.9Y11.125
X-0.8Y15.325
X-0.7Y8.025
X0.96Y6.26
X1.1Y2.0
X2.5Y21.2
X4.18Y18.98
X6.375Y12.0
X7.1Y-1.0
X8.6Y19.9
X8.7Y26.1
X11.05Y17.5
X11.05Y13.75
X11.6Y6.5
X12.5Y-1.0
X17.1Y6.5
X18.5Y14.4
X19.6Y23.1
T2
X-2.775Y14.5
X-2.775Y13.225
X-2.775Y11.95
X-1.5Y14.5
X-1.5Y13.225
X-1.5Y11.95
X-0.225Y14.5
X-0.225Y13.225
X-0.225Y11.95
T3
X-3.82Y26.5
X-1.28Y26.5
X1.26Y26.5
X3.8Y26.5
M30
