M48
; DRILL file {KiCad 8.0.7} date 2025-01-15T17:39:21-0800
; FORMAT={-:-/ absolute / metric / decimal}
; #@! TF.CreationDate,2025-01-15T17:39:21-08:00
; #@! TF.GenerationSoftware,Kicad,Pcbnew,8.0.7
; #@! TF.FileFunction,Plated,1,2,PTH
FMAT,2
METRIC
; #@! TA.AperFunction,Plated,PTH,ViaDrill
T1C0.350
; #@! TA.AperFunction,Plated,PTH,ComponentDrill
T2C0.350
; #@! TA.AperFunction,Plated,PTH,ComponentDrill
T3C0.950
%
G90
G05
T1
X-19.5Y21.1
X-18.5Y13.9
X-18.5Y6.6
X-18.5Y-0.5
X-16.6Y28.1
X-10.3Y19.195
X-9.0Y26.5
X-8.85Y8.55
X-8.6Y0.2
X-8.2Y12.0
X-8.1Y16.0
X-6.7Y9.0
X-4.938Y9.838
X-4.4Y1.8
X-4.3Y6.0
X-2.8Y8.6
X-2.0Y21.2
X-1.7Y18.025
X-1.6Y-1.8
X-0.9Y11.125
X-0.8Y15.325
X-0.7Y8.025
X1.6Y1.9
X1.7Y6.0
X2.0Y21.2
X4.5Y-1.0
X5.3Y16.7
X5.3Y12.0
X7.4Y20.4
X9.0Y6.5
X9.55Y24.25
X10.0Y-1.0
X11.05Y17.5
X11.05Y13.75
X11.7Y28.2
X14.5Y6.5
X15.5Y-1.0
X18.5Y14.4
X19.6Y23.1
X20.0Y6.5
T2
X-2.775Y14.5
X-2.775Y13.225
X-2.775Y11.95
X-1.5Y14.5
X-1.5Y13.225
X-1.5Y11.95
X-0.225Y14.5
X-0.225Y13.225
X-0.225Y11.95
T3
X-3.75Y27.3
X-1.25Y27.3
X1.25Y27.3
X3.75Y27.3
M30
