G04 #@! TF.GenerationSoftware,KiCad,Pcbnew,8.0.7*
G04 #@! TF.CreationDate,2025-01-01T17:44:55-08:00*
G04 #@! TF.ProjectId,RP2040_minimal_r2,52503230-3430-45f6-9d69-6e696d616c5f,REV2*
G04 #@! TF.SameCoordinates,PX5f5e100PY5f5e100*
G04 #@! TF.FileFunction,Copper,L1,Top*
G04 #@! TF.FilePolarity,Positive*
%FSLAX46Y46*%
G04 Gerber Fmt 4.6, Leading zero omitted, Abs format (unit mm)*
G04 Created by KiCad (PCBNEW 8.0.7) date 2025-01-01 17:44:55*
%MOMM*%
%LPD*%
G01*
G04 APERTURE LIST*
G04 Aperture macros list*
%AMRoundRect*
0 Rectangle with rounded corners*
0 $1 Rounding radius*
0 $2 $3 $4 $5 $6 $7 $8 $9 X,Y pos of 4 corners*
0 Add a 4 corners polygon primitive as box body*
4,1,4,$2,$3,$4,$5,$6,$7,$8,$9,$2,$3,0*
0 Add four circle primitives for the rounded corners*
1,1,$1+$1,$2,$3*
1,1,$1+$1,$4,$5*
1,1,$1+$1,$6,$7*
1,1,$1+$1,$8,$9*
0 Add four rect primitives between the rounded corners*
20,1,$1+$1,$2,$3,$4,$5,0*
20,1,$1+$1,$4,$5,$6,$7,0*
20,1,$1+$1,$6,$7,$8,$9,0*
20,1,$1+$1,$8,$9,$2,$3,0*%
G04 Aperture macros list end*
G04 #@! TA.AperFunction,SMDPad,CuDef*
%ADD10RoundRect,0.250000X-0.475000X0.250000X-0.475000X-0.250000X0.475000X-0.250000X0.475000X0.250000X0*%
G04 #@! TD*
G04 #@! TA.AperFunction,SMDPad,CuDef*
%ADD11RoundRect,0.140000X0.170000X-0.140000X0.170000X0.140000X-0.170000X0.140000X-0.170000X-0.140000X0*%
G04 #@! TD*
G04 #@! TA.AperFunction,SMDPad,CuDef*
%ADD12RoundRect,0.140000X0.140000X0.170000X-0.140000X0.170000X-0.140000X-0.170000X0.140000X-0.170000X0*%
G04 #@! TD*
G04 #@! TA.AperFunction,SMDPad,CuDef*
%ADD13RoundRect,0.135000X-0.135000X-0.185000X0.135000X-0.185000X0.135000X0.185000X-0.135000X0.185000X0*%
G04 #@! TD*
G04 #@! TA.AperFunction,SMDPad,CuDef*
%ADD14RoundRect,0.150000X-0.512500X-0.150000X0.512500X-0.150000X0.512500X0.150000X-0.512500X0.150000X0*%
G04 #@! TD*
G04 #@! TA.AperFunction,SMDPad,CuDef*
%ADD15RoundRect,0.125000X-0.250000X-0.125000X0.250000X-0.125000X0.250000X0.125000X-0.250000X0.125000X0*%
G04 #@! TD*
G04 #@! TA.AperFunction,HeatsinkPad*
%ADD16R,3.400000X4.300000*%
G04 #@! TD*
G04 #@! TA.AperFunction,SMDPad,CuDef*
%ADD17RoundRect,0.140000X-0.140000X-0.170000X0.140000X-0.170000X0.140000X0.170000X-0.140000X0.170000X0*%
G04 #@! TD*
G04 #@! TA.AperFunction,SMDPad,CuDef*
%ADD18RoundRect,0.140000X-0.170000X0.140000X-0.170000X-0.140000X0.170000X-0.140000X0.170000X0.140000X0*%
G04 #@! TD*
G04 #@! TA.AperFunction,SMDPad,CuDef*
%ADD19RoundRect,0.135000X-0.185000X0.135000X-0.185000X-0.135000X0.185000X-0.135000X0.185000X0.135000X0*%
G04 #@! TD*
G04 #@! TA.AperFunction,SMDPad,CuDef*
%ADD20RoundRect,0.050000X-0.387500X-0.050000X0.387500X-0.050000X0.387500X0.050000X-0.387500X0.050000X0*%
G04 #@! TD*
G04 #@! TA.AperFunction,SMDPad,CuDef*
%ADD21RoundRect,0.050000X-0.050000X-0.387500X0.050000X-0.387500X0.050000X0.387500X-0.050000X0.387500X0*%
G04 #@! TD*
G04 #@! TA.AperFunction,ComponentPad*
%ADD22C,0.600000*%
G04 #@! TD*
G04 #@! TA.AperFunction,SMDPad,CuDef*
%ADD23RoundRect,0.144000X-1.456000X-1.456000X1.456000X-1.456000X1.456000X1.456000X-1.456000X1.456000X0*%
G04 #@! TD*
G04 #@! TA.AperFunction,SMDPad,CuDef*
%ADD24RoundRect,0.250000X0.475000X-0.250000X0.475000X0.250000X-0.475000X0.250000X-0.475000X-0.250000X0*%
G04 #@! TD*
G04 #@! TA.AperFunction,SMDPad,CuDef*
%ADD25RoundRect,0.150000X0.150000X0.625000X-0.150000X0.625000X-0.150000X-0.625000X0.150000X-0.625000X0*%
G04 #@! TD*
G04 #@! TA.AperFunction,SMDPad,CuDef*
%ADD26RoundRect,0.250000X0.350000X0.650000X-0.350000X0.650000X-0.350000X-0.650000X0.350000X-0.650000X0*%
G04 #@! TD*
G04 #@! TA.AperFunction,SMDPad,CuDef*
%ADD27R,0.900000X1.700000*%
G04 #@! TD*
G04 #@! TA.AperFunction,SMDPad,CuDef*
%ADD28RoundRect,0.150000X-0.150000X-0.625000X0.150000X-0.625000X0.150000X0.625000X-0.150000X0.625000X0*%
G04 #@! TD*
G04 #@! TA.AperFunction,SMDPad,CuDef*
%ADD29RoundRect,0.250000X-0.350000X-0.650000X0.350000X-0.650000X0.350000X0.650000X-0.350000X0.650000X0*%
G04 #@! TD*
G04 #@! TA.AperFunction,SMDPad,CuDef*
%ADD30RoundRect,0.150000X-0.625000X0.150000X-0.625000X-0.150000X0.625000X-0.150000X0.625000X0.150000X0*%
G04 #@! TD*
G04 #@! TA.AperFunction,SMDPad,CuDef*
%ADD31RoundRect,0.250000X-0.650000X0.350000X-0.650000X-0.350000X0.650000X-0.350000X0.650000X0.350000X0*%
G04 #@! TD*
G04 #@! TA.AperFunction,SMDPad,CuDef*
%ADD32R,1.400000X1.200000*%
G04 #@! TD*
G04 #@! TA.AperFunction,SMDPad,CuDef*
%ADD33R,1.300000X3.400000*%
G04 #@! TD*
G04 #@! TA.AperFunction,ComponentPad*
%ADD34R,1.700000X1.700000*%
G04 #@! TD*
G04 #@! TA.AperFunction,ComponentPad*
%ADD35O,1.700000X1.700000*%
G04 #@! TD*
G04 #@! TA.AperFunction,ViaPad*
%ADD36C,0.600000*%
G04 #@! TD*
G04 #@! TA.AperFunction,Conductor*
%ADD37C,0.150000*%
G04 #@! TD*
G04 #@! TA.AperFunction,Conductor*
%ADD38C,0.200000*%
G04 #@! TD*
G04 #@! TA.AperFunction,Conductor*
%ADD39C,0.800000*%
G04 #@! TD*
G04 APERTURE END LIST*
D10*
X9800000Y23250000D03*
X9800000Y21350000D03*
D11*
X2500000Y19230000D03*
X2500000Y20190000D03*
X1500000Y19230000D03*
X1500000Y20190000D03*
D12*
X-6820000Y12000000D03*
X-7780000Y12000000D03*
D11*
X-3900000Y22220000D03*
X-3900000Y23180000D03*
D13*
X-13010000Y23600000D03*
X-11990000Y23600000D03*
D14*
X7462500Y27050000D03*
X7462500Y26100000D03*
X7462500Y25150000D03*
X9737500Y25150000D03*
X9737500Y27050000D03*
D15*
X-10700000Y23570000D03*
X-10700000Y22300000D03*
X-10700000Y21030000D03*
X-10700000Y19760000D03*
X-5300000Y19760000D03*
X-5300000Y21030000D03*
X-5300000Y22300000D03*
X-5300000Y23570000D03*
D16*
X-8000000Y21665000D03*
D13*
X-14200000Y25000000D03*
X-13180000Y25000000D03*
D11*
X-1500000Y19220000D03*
X-1500000Y20180000D03*
D17*
X4520000Y12000000D03*
X5480000Y12000000D03*
D18*
X-1119000Y7220000D03*
X-1119000Y6260000D03*
D19*
X-500000Y20220000D03*
X-500000Y19200000D03*
D18*
X0Y7220000D03*
X0Y6260000D03*
D10*
X7500000Y23250000D03*
X7500000Y21350000D03*
D12*
X-6220000Y16900000D03*
X-7180000Y16900000D03*
D17*
X3220000Y18000000D03*
X4180000Y18000000D03*
D20*
X-4937500Y15825000D03*
X-4937500Y15425000D03*
X-4937500Y15025000D03*
X-4937500Y14625000D03*
X-4937500Y14225000D03*
X-4937500Y13825000D03*
X-4937500Y13425000D03*
X-4937500Y13025000D03*
X-4937500Y12625000D03*
X-4937500Y12225000D03*
X-4937500Y11825000D03*
X-4937500Y11425000D03*
X-4937500Y11025000D03*
X-4937500Y10625000D03*
D21*
X-4100000Y9787500D03*
X-3700000Y9787500D03*
X-3300000Y9787500D03*
X-2900000Y9787500D03*
X-2500000Y9787500D03*
X-2100000Y9787500D03*
X-1700000Y9787500D03*
X-1300000Y9787500D03*
X-900000Y9787500D03*
X-500000Y9787500D03*
X-100000Y9787500D03*
X300000Y9787500D03*
X700000Y9787500D03*
X1100000Y9787500D03*
D20*
X1937500Y10625000D03*
X1937500Y11025000D03*
X1937500Y11425000D03*
X1937500Y11825000D03*
X1937500Y12225000D03*
X1937500Y12625000D03*
X1937500Y13025000D03*
X1937500Y13425000D03*
X1937500Y13825000D03*
X1937500Y14225000D03*
X1937500Y14625000D03*
X1937500Y15025000D03*
X1937500Y15425000D03*
X1937500Y15825000D03*
D21*
X1100000Y16662500D03*
X700000Y16662500D03*
X300000Y16662500D03*
X-100000Y16662500D03*
X-500000Y16662500D03*
X-900000Y16662500D03*
X-1300000Y16662500D03*
X-1700000Y16662500D03*
X-2100000Y16662500D03*
X-2500000Y16662500D03*
X-2900000Y16662500D03*
X-3300000Y16662500D03*
X-3700000Y16662500D03*
X-4100000Y16662500D03*
D22*
X-2775000Y14500000D03*
X-2775000Y13225000D03*
X-2775000Y11950000D03*
X-1500000Y14500000D03*
X-1500000Y13225000D03*
D23*
X-1500000Y13225000D03*
D22*
X-1500000Y11950000D03*
X-225000Y14500000D03*
X-225000Y13225000D03*
X-225000Y11950000D03*
D19*
X500000Y20220000D03*
X500000Y19200000D03*
D11*
X-2500000Y19220000D03*
X-2500000Y20180000D03*
D17*
X3220000Y16900000D03*
X4180000Y16900000D03*
D24*
X-13600000Y26550000D03*
X-13600000Y28450000D03*
D25*
X-14500000Y8325000D03*
X-15500000Y8325000D03*
X-16500000Y8325000D03*
X-17500000Y8325000D03*
X-18500000Y8325000D03*
X-19500000Y8325000D03*
D26*
X-13200000Y5800000D03*
X-20800000Y5800000D03*
D25*
X-14500000Y15825000D03*
X-15500000Y15825000D03*
X-16500000Y15825000D03*
X-17500000Y15825000D03*
X-18500000Y15825000D03*
X-19500000Y15825000D03*
D26*
X-13200000Y13300000D03*
X-20800000Y13300000D03*
D25*
X-14500000Y825000D03*
X-15500000Y825000D03*
X-16500000Y825000D03*
X-17500000Y825000D03*
X-18500000Y825000D03*
X-19500000Y825000D03*
D26*
X-13200000Y-1700000D03*
X-20800000Y-1700000D03*
D27*
X-3200000Y-1800000D03*
X200000Y-1800000D03*
D11*
X-4300000Y2940000D03*
X-4300000Y3900000D03*
D28*
X14500000Y12850000D03*
X15500000Y12850000D03*
X16500000Y12850000D03*
X17500000Y12850000D03*
X18500000Y12850000D03*
X19500000Y12850000D03*
D29*
X13200000Y15375000D03*
X20800000Y15375000D03*
D27*
X-7900000Y26500000D03*
X-11300000Y26500000D03*
D18*
X1400000Y3980000D03*
X1400000Y3020000D03*
D30*
X13975000Y0D03*
X13975000Y-1000000D03*
D31*
X16500000Y1300000D03*
X16500000Y-2300000D03*
D32*
X-2600000Y2600000D03*
X-400000Y2600000D03*
X-400000Y4300000D03*
X-2600000Y4300000D03*
D30*
X7575000Y7500000D03*
X7575000Y6500000D03*
D31*
X10100000Y8800000D03*
X10100000Y5200000D03*
D33*
X12550000Y23100000D03*
X21250000Y23100000D03*
D28*
X-19600000Y19900000D03*
X-18600000Y19900000D03*
X-17600000Y19900000D03*
X-16600000Y19900000D03*
D29*
X-20900000Y22425000D03*
X-15300000Y22425000D03*
D34*
X3800000Y26500000D03*
D35*
X1260000Y26500000D03*
X-1280000Y26500000D03*
X-3820000Y26500000D03*
D30*
X18475000Y7500000D03*
X18475000Y6500000D03*
D31*
X21000000Y8800000D03*
X21000000Y5200000D03*
D30*
X8575000Y0D03*
X8575000Y-1000000D03*
D31*
X11100000Y1300000D03*
X11100000Y-2300000D03*
D19*
X-2300000Y7210000D03*
X-2300000Y6190000D03*
D30*
X3175000Y0D03*
X3175000Y-1000000D03*
D31*
X5700000Y1300000D03*
X5700000Y-2300000D03*
D30*
X13075000Y7500000D03*
X13075000Y6500000D03*
D31*
X15600000Y8800000D03*
X15600000Y5200000D03*
D36*
X960000Y6260000D03*
X19600000Y23100000D03*
X12500000Y-1000000D03*
X-5600000Y26500000D03*
X-2000000Y-1800000D03*
X2500000Y21200000D03*
X4180000Y18980000D03*
X11600000Y6500000D03*
X18500000Y14400000D03*
X-11800000Y19760000D03*
X6375000Y12000000D03*
X-18500000Y12000000D03*
X1100000Y2000000D03*
X7100000Y-1000000D03*
X-8675000Y12000000D03*
X-8100000Y16900000D03*
X-4100000Y4900000D03*
X-2500000Y21200000D03*
X17100000Y6500000D03*
X-2800000Y8600000D03*
X-18500000Y4500000D03*
X8700000Y26100000D03*
X8600000Y19900000D03*
X-1700000Y18025006D03*
X-800000Y15325000D03*
X-700000Y8025000D03*
X-900030Y11125000D03*
X11050000Y17500000D03*
X11050000Y13750000D03*
D37*
X-7900000Y26500000D02*
X-9850000Y28450000D01*
X-18500000Y16599999D02*
X-18500000Y15825000D01*
D38*
X-400000Y2600000D02*
X500000Y2600000D01*
D37*
X8600000Y21350000D02*
X9800000Y21350000D01*
X-19600000Y19900000D02*
X-19600000Y17699999D01*
X3175000Y-1000000D02*
X7100000Y-1000000D01*
X-2500000Y8900000D02*
X-2800000Y8600000D01*
X4180000Y18000000D02*
X4180000Y16900000D01*
X-9850000Y28450000D02*
X-13600000Y28450000D01*
X-2500000Y20180000D02*
X-2500000Y21200000D01*
X-18500000Y8325000D02*
X-18500000Y4500000D01*
X0Y6260000D02*
X960000Y6260000D01*
X1500000Y20190000D02*
X2500000Y20190000D01*
X2500000Y20190000D02*
X2500000Y21200000D01*
X-3820000Y26500000D02*
X-5600000Y26500000D01*
D38*
X18500000Y12850000D02*
X18500000Y14400000D01*
X1100000Y2000000D02*
X1100000Y2720000D01*
D37*
X-2500000Y20180000D02*
X-1500000Y20180000D01*
X8600000Y21350000D02*
X8600000Y19900000D01*
X-3900000Y26420000D02*
X-3820000Y26500000D01*
X7462500Y26100000D02*
X8700000Y26100000D01*
D38*
X13075000Y6500000D02*
X17100000Y6500000D01*
D37*
X4180000Y18000000D02*
X4180000Y18980000D01*
X-18500000Y12000000D02*
X-18500000Y8325000D01*
D38*
X-3500000Y4300000D02*
X-4100000Y4900000D01*
X21250000Y23100000D02*
X19600000Y23100000D01*
X-10700000Y19760000D02*
X-11800000Y19760000D01*
D37*
X-2500000Y9787500D02*
X-2500000Y9000000D01*
D38*
X1100000Y2720000D02*
X1400000Y3020000D01*
D37*
X-3900000Y23180000D02*
X-3900000Y26420000D01*
D38*
X17100000Y6500000D02*
X18475000Y6500000D01*
D37*
X-5600000Y26500000D02*
X-7900000Y26500000D01*
D38*
X-2600000Y4300000D02*
X-3500000Y4300000D01*
X-11800000Y19760000D02*
X-11860000Y19760000D01*
X500000Y2600000D02*
X1100000Y2000000D01*
X-2500000Y20225000D02*
X-2500000Y19930000D01*
D37*
X8575000Y-1000000D02*
X12500000Y-1000000D01*
X-19600000Y17699999D02*
X-18500000Y16599999D01*
X12500000Y-1000000D02*
X13975000Y-1000000D01*
X-7180000Y16900000D02*
X-8100000Y16900000D01*
X7500000Y21350000D02*
X8600000Y21350000D01*
X-2500000Y9000000D02*
X-2500000Y8900000D01*
X-18500000Y15825000D02*
X-18500000Y12000000D01*
X7100000Y-1000000D02*
X8575000Y-1000000D01*
X-18500000Y4500000D02*
X-18500000Y825000D01*
X5480000Y12000000D02*
X6375000Y12000000D01*
D38*
X11600000Y6500000D02*
X13075000Y6500000D01*
X7575000Y6500000D02*
X11600000Y6500000D01*
D37*
X-3200000Y-1800000D02*
X-2000000Y-1800000D01*
D38*
X5450001Y26500000D02*
X5700000Y26500000D01*
X7462500Y27050000D02*
X6250000Y27050000D01*
X5700000Y26500000D02*
X6250000Y27050000D01*
X7462500Y25150000D02*
X6800001Y25150000D01*
X5450001Y26500000D02*
X3800000Y26500000D01*
X7500000Y23250000D02*
X7500000Y25112500D01*
X7500000Y25112500D02*
X7462500Y25150000D01*
X6800001Y25150000D02*
X5450001Y26500000D01*
X-2100000Y9787500D02*
X-2100000Y8000000D01*
X-2700000Y8000000D02*
X-3000000Y7700000D01*
X-4860000Y4917818D02*
X-4860000Y3500000D01*
X-4300000Y2940000D02*
X-2940000Y2940000D01*
X-4300000Y2940000D02*
X-4300000Y3000000D01*
X-3000000Y7700000D02*
X-3000000Y6777818D01*
D37*
X-2600000Y2600000D02*
X-2320000Y2320000D01*
D38*
X-2940000Y2940000D02*
X-2600000Y2600000D01*
X-3000000Y6777818D02*
X-4860000Y4917818D01*
X-4860000Y3500000D02*
X-4300000Y2940000D01*
X-2100000Y8000000D02*
X-2700000Y8000000D01*
X-2300000Y7210000D02*
X-1700000Y7810000D01*
X-1700000Y7810000D02*
X-1700000Y9787500D01*
X-6012500Y16900000D02*
X-4937500Y15825000D01*
X-1300000Y17525000D02*
X-1300000Y16662500D01*
X-1300000Y16662500D02*
X-1300000Y16200000D01*
X-1300000Y16200000D02*
X-1900000Y15600000D01*
X700000Y16662500D02*
X700000Y17125000D01*
X700000Y17125000D02*
X2500000Y18925000D01*
X-900000Y17425002D02*
X-1149999Y17675001D01*
X2437500Y18000000D02*
X1100000Y16662500D01*
D37*
X-6595000Y12225000D02*
X-4937500Y12225000D01*
X-1300000Y9787500D02*
X-1300000Y10225000D01*
X-1300000Y10225000D02*
X-1300000Y10300000D01*
D38*
X-6220000Y16900000D02*
X-6012500Y16900000D01*
D37*
X-4937500Y12225000D02*
X-3725000Y12225000D01*
D38*
X1937500Y12225000D02*
X725000Y12225000D01*
X3220000Y18000000D02*
X2437500Y18000000D01*
X-1500000Y19220000D02*
X-1149999Y18869999D01*
D37*
X-1300000Y7401000D02*
X-1119000Y7220000D01*
D38*
X-900000Y16662500D02*
X-900000Y17425002D01*
X-1149999Y17675001D02*
X-1300000Y17525000D01*
X4520000Y12225000D02*
X1937500Y12225000D01*
D37*
X-1300000Y10300000D02*
X-2100000Y11100000D01*
X-1300000Y9787500D02*
X-1300000Y7401000D01*
D38*
X3220000Y16900000D02*
X3012500Y16900000D01*
X-900000Y16662500D02*
X-1300000Y16662500D01*
X-1149999Y18869999D02*
X-1149999Y17675001D01*
X3012500Y16900000D02*
X1937500Y15825000D01*
X2500000Y18925000D02*
X2500000Y19230000D01*
D37*
X-6820000Y12000000D02*
X-6595000Y12225000D01*
D38*
X-1700000Y16662500D02*
X-1700000Y18025006D01*
X300000Y17425000D02*
X1500000Y18625000D01*
X-2500000Y19220000D02*
X-2500000Y18825006D01*
X300000Y16199350D02*
X-574350Y15325000D01*
X-2500000Y18825006D02*
X-1700000Y18025006D01*
X0Y7325000D02*
X-700000Y8025000D01*
X-900000Y8225000D02*
X-700000Y8025000D01*
X0Y7225000D02*
X0Y7325000D01*
X300000Y16662500D02*
X300000Y17425000D01*
X300000Y16662500D02*
X300000Y16199350D01*
X1500000Y18625000D02*
X1500000Y19225000D01*
X-574350Y15325000D02*
X-800000Y15325000D01*
X-900000Y9787500D02*
X-900000Y8225000D01*
D37*
X-10814778Y13025000D02*
X-4937500Y13025000D01*
X-13614778Y15825000D02*
X-10814778Y13025000D01*
X-14500000Y15825000D02*
X-13614778Y15825000D01*
X-16500000Y1599999D02*
X-16500000Y825000D01*
X-4100000Y9787500D02*
X-4100000Y9447794D01*
X-11326472Y1825000D02*
X-16274999Y1825000D01*
X-4100000Y9787500D02*
X-4100000Y9051472D01*
X-16274999Y1825000D02*
X-16500000Y1599999D01*
X-4100000Y9051472D02*
X-11326472Y1825000D01*
X-4937500Y11025000D02*
X-4509706Y11025000D01*
X-4937500Y11025000D02*
X-5399264Y11025000D01*
X-5600000Y10824264D02*
X-5600000Y7975736D01*
X-17500000Y1599999D02*
X-17500000Y825000D01*
X-5399264Y11025000D02*
X-5600000Y10824264D01*
X-5600000Y7975736D02*
X-11450736Y2125000D01*
X-11450736Y2125000D02*
X-16974999Y2125000D01*
X-16974999Y2125000D02*
X-17500000Y1599999D01*
X-12425000Y-175000D02*
X-15425000Y-175000D01*
X-15500000Y-100000D02*
X-15500000Y825000D01*
X-2900000Y9350000D02*
X-12425000Y-175000D01*
X-2900000Y9787500D02*
X-2900000Y9350000D01*
X-15425000Y-175000D02*
X-15500000Y-100000D01*
X2400000Y900000D02*
X200000Y900000D01*
X2700000Y6724264D02*
X2700000Y1200000D01*
X300000Y9124264D02*
X2700000Y6724264D01*
X2700000Y1200000D02*
X2400000Y900000D01*
X300000Y9787500D02*
X300000Y9124264D01*
X200000Y900000D02*
X200000Y-1800000D01*
X-4100000Y16825000D02*
X-4100000Y16625000D01*
X-12535000Y24145000D02*
X-11990000Y23600000D01*
X-13345000Y24145000D02*
X-12535000Y24145000D01*
X-14200000Y25000000D02*
X-13345000Y24145000D01*
D38*
X-13050000Y21220000D02*
X-10700000Y23570000D01*
X-5420013Y17982513D02*
X-11790280Y17982513D01*
X-11790280Y17982513D02*
X-13050000Y19242233D01*
D37*
X-4100000Y16625000D02*
X-4100000Y16597500D01*
D38*
X-10910000Y23780000D02*
X-10700000Y23570000D01*
X-11990000Y23600000D02*
X-10730000Y23600000D01*
X-10730000Y23600000D02*
X-10700000Y23570000D01*
X-13050000Y19242233D02*
X-13050000Y21220000D01*
X-4100000Y16662500D02*
X-5420013Y17982513D01*
X-500000Y16662500D02*
X-500000Y19225000D01*
X-100000Y17925000D02*
X500000Y18525000D01*
X-100000Y16662500D02*
X-100000Y17925000D01*
X500000Y18525000D02*
X500000Y19225000D01*
X-3200000Y20200000D02*
X-3200000Y18747188D01*
X-2100000Y17647188D02*
X-2100000Y16662500D01*
D37*
X-2100000Y16662500D02*
X-2100000Y17100000D01*
D38*
X-5300000Y22300000D02*
X-3200000Y20200000D01*
X-3200000Y18747188D02*
X-2100000Y17647188D01*
X-3550000Y18602214D02*
X-2500000Y17552214D01*
D37*
X-2500000Y16652500D02*
X-2548690Y16701190D01*
D38*
X-5300000Y21030000D02*
X-4680000Y21030000D01*
X-4680000Y21030000D02*
X-3550000Y19900000D01*
X-3550000Y19900000D02*
X-3550000Y18602214D01*
X-2500000Y17552214D02*
X-2500000Y16662500D01*
X-2900000Y16662500D02*
X-2900000Y17360000D01*
X-2900000Y17360000D02*
X-5300000Y19760000D01*
X-3300000Y17265026D02*
X-4717487Y18682513D01*
X-4717487Y18682513D02*
X-11500331Y18682513D01*
X-12350000Y19532182D02*
X-12350000Y20050000D01*
X-11500331Y18682513D02*
X-12350000Y19532182D01*
X-12350000Y20050000D02*
X-11370000Y21030000D01*
X-3300000Y16662500D02*
X-3300000Y17265026D01*
X-11370000Y21030000D02*
X-10700000Y21030000D01*
X-3700000Y17170052D02*
X-4862461Y18332513D01*
X-12700000Y20300000D02*
X-10700000Y22300000D01*
X-4862461Y18332513D02*
X-11645306Y18332513D01*
X-3700000Y16662500D02*
X-3700000Y17170052D01*
X-11645306Y18332513D02*
X-12700000Y19387207D01*
X-12700000Y19387207D02*
X-12700000Y20300000D01*
D39*
X-1280000Y26500000D02*
X-475000Y25695000D01*
X-475000Y25695000D02*
X-475000Y20220000D01*
X-475000Y20220000D02*
X-500000Y20195000D01*
X500000Y20195000D02*
X475000Y20220000D01*
X1260000Y26500000D02*
X500000Y25740000D01*
X500000Y25740000D02*
X500000Y20220000D01*
D38*
X-2290000Y6190000D02*
X-400000Y4300000D01*
X-2300000Y6190000D02*
X-2290000Y6190000D01*
X-810000Y4300000D02*
X-400000Y4300000D01*
D37*
X-650000Y4300000D02*
X-400000Y4300000D01*
D38*
X-80000Y3980000D02*
X-400000Y4300000D01*
X1400000Y3980000D02*
X-80000Y3980000D01*
D37*
X-12800000Y25000000D02*
X-13180000Y25000000D01*
X-11300000Y26500000D02*
X-12800000Y25000000D01*
X-15274999Y16825000D02*
X-14190514Y16825000D01*
X-15500000Y16599999D02*
X-15274999Y16825000D01*
X-14190514Y16825000D02*
X-10790514Y13425000D01*
X-15500000Y15825000D02*
X-15500000Y16599999D01*
X-10790514Y13425000D02*
X-4937500Y13425000D01*
X-15500000Y15825000D02*
X-15500000Y8325000D01*
X-4937500Y12625000D02*
X-10200000Y12625000D01*
X-10200000Y12625000D02*
X-14500000Y8325000D01*
X-17500000Y15825000D02*
X-17500000Y8325000D01*
X-17500000Y16599999D02*
X-16674999Y17425000D01*
X-13941986Y17425000D02*
X-11141986Y14625000D01*
X-17500000Y15825000D02*
X-17500000Y16599999D01*
X-11141986Y14625000D02*
X-4937500Y14625000D01*
X-16674999Y17425000D02*
X-13941986Y17425000D01*
X-15974999Y17125000D02*
X-14066250Y17125000D01*
X-16500000Y16599999D02*
X-15974999Y17125000D01*
X-10766250Y13825000D02*
X-4937500Y13825000D01*
X-16500000Y15825000D02*
X-16500000Y16599999D01*
X-16500000Y15825000D02*
X-16500000Y8325000D01*
X-14066250Y17125000D02*
X-10766250Y13825000D01*
X-11902208Y825000D02*
X-14500000Y825000D01*
X-3700000Y9027208D02*
X-11902208Y825000D01*
X-3700000Y9787500D02*
X-3700000Y9027208D01*
D38*
X1937500Y13425000D02*
X10725000Y13425000D01*
X12550000Y19000000D02*
X12550000Y23100000D01*
X10725000Y13425000D02*
X11050000Y13750000D01*
X11050000Y17500000D02*
X12550000Y19000000D01*
X11050000Y13750000D02*
X11100000Y13800000D01*
D37*
X-4937500Y11425000D02*
X-5375000Y11425000D01*
X-12700000Y17324264D02*
X-12700000Y17075736D01*
X-17374999Y20900000D02*
X-16275736Y20900000D01*
X-12700000Y17075736D02*
X-11049264Y15425000D01*
X-16275736Y20900000D02*
X-12700000Y17324264D01*
X-17600000Y19900000D02*
X-17600000Y20674999D01*
X-17600000Y20674999D02*
X-17374999Y20900000D01*
X-11049264Y15425000D02*
X-4937500Y15425000D01*
X-16600000Y19900000D02*
X-15948528Y19900000D01*
X-15948528Y19900000D02*
X-11073528Y15025000D01*
X-11073528Y15025000D02*
X-4937500Y15025000D01*
D38*
X3175000Y9387500D02*
X3175000Y0D01*
X1937500Y10625000D02*
X3175000Y9387500D01*
D37*
X1937500Y11025000D02*
X2375000Y11025000D01*
X5800000Y3100000D02*
X8575000Y325000D01*
X5800000Y7600000D02*
X5800000Y3100000D01*
X8575000Y325000D02*
X8575000Y0D01*
X2375000Y11025000D02*
X5800000Y7600000D01*
D38*
X10500000Y2200000D02*
X11914034Y2200000D01*
X6550000Y7309619D02*
X6550000Y6150000D01*
X11914034Y2200000D02*
X13975000Y139034D01*
X6550000Y6150000D02*
X10500000Y2200000D01*
X2434619Y11425000D02*
X6550000Y7309619D01*
X1937500Y11425000D02*
X2434619Y11425000D01*
D37*
X13975000Y0D02*
X13975000Y299999D01*
D38*
X13975000Y139034D02*
X13975000Y0D01*
X1937500Y11825000D02*
X3250000Y11825000D01*
X3250000Y11825000D02*
X7575000Y7500000D01*
X1937500Y12625000D02*
X7989034Y12625000D01*
X13075000Y7539034D02*
X13075000Y7500000D01*
X7989034Y12625000D02*
X13075000Y7539034D01*
X1937500Y13025000D02*
X9660966Y13025000D01*
X9660966Y13025000D02*
X11992983Y10692983D01*
X11992983Y10692983D02*
X11892983Y10792983D01*
X15185966Y7500000D02*
X18475000Y7500000D01*
X11992983Y10692983D02*
X15185966Y7500000D01*
X10146017Y15025000D02*
X12346017Y17225000D01*
X16500000Y14800000D02*
X16500000Y12850000D01*
X14075000Y17225000D02*
X16500000Y14800000D01*
X12346017Y17225000D02*
X14075000Y17225000D01*
X1937500Y15025000D02*
X10146017Y15025000D01*
X10335966Y14225000D02*
X12635966Y16525000D01*
X14500000Y15789034D02*
X14500000Y12850000D01*
X1937500Y14225000D02*
X10335966Y14225000D01*
X13764034Y16525000D02*
X14500000Y15789034D01*
X12635966Y16525000D02*
X13764034Y16525000D01*
X15500000Y15300000D02*
X15500000Y12850000D01*
X10240992Y14625000D02*
X12490992Y16875000D01*
X12490992Y16875000D02*
X13925000Y16875000D01*
X1937500Y14625000D02*
X10240992Y14625000D01*
X13925000Y16875000D02*
X15500000Y15300000D01*
X14219975Y17575000D02*
X17500000Y14294975D01*
X11996017Y17369975D02*
X12201042Y17575000D01*
X10051043Y15425000D02*
X11996017Y17369975D01*
X12201042Y17575000D02*
X14219975Y17575000D01*
X1937500Y15425000D02*
X10051043Y15425000D01*
X17500000Y14294975D02*
X17500000Y12850000D01*
G04 #@! TA.AperFunction,Conductor*
G36*
X-9191520Y12329815D02*
G01*
X-9145765Y12277011D01*
X-9135821Y12207853D01*
X-9145765Y12173988D01*
X-9160166Y12142457D01*
X-9180647Y12000000D01*
X-9160166Y11857544D01*
X-9101291Y11728628D01*
X-9100377Y11726627D01*
X-9006128Y11617857D01*
X-8885053Y11540047D01*
X-8885050Y11540046D01*
X-8885051Y11540046D01*
X-8797703Y11514399D01*
X-8747554Y11499674D01*
X-8746964Y11499501D01*
X-8746962Y11499500D01*
X-8746961Y11499500D01*
X-8603038Y11499500D01*
X-8603038Y11499501D01*
X-8464947Y11540047D01*
X-8343872Y11617857D01*
X-8343872Y11617858D01*
X-8336411Y11622652D01*
X-8334804Y11620152D01*
X-8284854Y11642987D01*
X-8215692Y11633071D01*
X-8179477Y11607937D01*
X-8118316Y11546776D01*
X-8009487Y11496028D01*
X-7959901Y11489500D01*
X-7600100Y11489501D01*
X-7590466Y11490770D01*
X-7521435Y11480006D01*
X-7475962Y11439649D01*
X-7474498Y11440783D01*
X-7469717Y11434619D01*
X-7355384Y11320286D01*
X-7355375Y11320279D01*
X-7216196Y11237969D01*
X-7070000Y11195496D01*
X-7070000Y11876000D01*
X-7050315Y11943039D01*
X-6997511Y11988794D01*
X-6946000Y12000000D01*
X-6694000Y12000000D01*
X-6626961Y11980315D01*
X-6581206Y11927511D01*
X-6570000Y11876000D01*
X-6570000Y11195497D01*
X-6423805Y11237969D01*
X-6284626Y11320279D01*
X-6284617Y11320286D01*
X-6170286Y11434617D01*
X-6170279Y11434626D01*
X-6087970Y11573804D01*
X-6042855Y11729090D01*
X-6042855Y11729093D01*
X-6040001Y11765356D01*
X-6040001Y11840339D01*
X-6020317Y11907379D01*
X-5967514Y11953135D01*
X-5898356Y11963079D01*
X-5834799Y11934055D01*
X-5814569Y11909269D01*
X-5814046Y11909664D01*
X-5717565Y11782436D01*
X-5647400Y11729227D01*
X-5605877Y11673034D01*
X-5601326Y11603313D01*
X-5607765Y11582969D01*
X-5608557Y11581059D01*
X-5608557Y11581058D01*
X-5625545Y11540046D01*
X-5649402Y11482450D01*
X-5650500Y11479800D01*
X-5650500Y11370200D01*
X-5626732Y11312819D01*
X-5621631Y11300506D01*
X-5614162Y11231036D01*
X-5645436Y11168557D01*
X-5648510Y11165372D01*
X-5756058Y11057822D01*
X-5756058Y11057821D01*
X-5833557Y10980322D01*
X-5875500Y10879065D01*
X-5875500Y8141214D01*
X-5895185Y8074175D01*
X-5911819Y8053533D01*
X-11528532Y2436819D01*
X-11589855Y2403334D01*
X-11616213Y2400500D01*
X-16920199Y2400500D01*
X-17029799Y2400500D01*
X-17029801Y2400500D01*
X-17029803Y2400499D01*
X-17131055Y2358561D01*
X-17131057Y2358559D01*
X-17656057Y1833558D01*
X-17656066Y1833549D01*
X-17661031Y1828585D01*
X-17722357Y1795106D01*
X-17730822Y1793571D01*
X-17751391Y1790574D01*
X-17751393Y1790573D01*
X-17856486Y1739197D01*
X-17912319Y1683363D01*
X-17973642Y1649878D01*
X-18043334Y1654862D01*
X-18087681Y1683363D01*
X-18143516Y1739198D01*
X-18154961Y1744793D01*
X-18206543Y1791921D01*
X-18224500Y1856193D01*
X-18224500Y4014399D01*
X-18204815Y4081438D01*
X-18174937Y4111315D01*
X-18175574Y4112050D01*
X-18168880Y4117853D01*
X-18168872Y4117857D01*
X-18074623Y4226627D01*
X-18014835Y4357543D01*
X-17994353Y4500000D01*
X-18014835Y4642457D01*
X-18074623Y4773373D01*
X-18168872Y4882143D01*
X-18168875Y4882145D01*
X-18175577Y4887953D01*
X-18174448Y4889257D01*
X-18213299Y4934102D01*
X-18224500Y4985603D01*
X-18224500Y6504270D01*
X-14000500Y6504270D01*
X-14000500Y5095731D01*
X-13997647Y5065301D01*
X-13997647Y5065299D01*
X-13952794Y4937120D01*
X-13952793Y4937118D01*
X-13872150Y4827850D01*
X-13762882Y4747207D01*
X-13720155Y4732256D01*
X-13634701Y4702354D01*
X-13604270Y4699500D01*
X-13604266Y4699500D01*
X-12795730Y4699500D01*
X-12765301Y4702354D01*
X-12765299Y4702354D01*
X-12699236Y4725471D01*
X-12637118Y4747207D01*
X-12527850Y4827850D01*
X-12447207Y4937118D01*
X-12413373Y5033809D01*
X-12402354Y5065299D01*
X-12402354Y5065301D01*
X-12399500Y5095731D01*
X-12399500Y6504270D01*
X-12402354Y6534700D01*
X-12402354Y6534702D01*
X-12439950Y6642143D01*
X-12447207Y6662882D01*
X-12527850Y6772150D01*
X-12637118Y6852793D01*
X-12637120Y6852794D01*
X-12765300Y6897647D01*
X-12795730Y6900500D01*
X-12795734Y6900500D01*
X-13604266Y6900500D01*
X-13604270Y6900500D01*
X-13634700Y6897647D01*
X-13634702Y6897647D01*
X-13762881Y6852794D01*
X-13762883Y6852793D01*
X-13872150Y6772150D01*
X-13952793Y6662883D01*
X-13952794Y6662881D01*
X-13997647Y6534702D01*
X-13997647Y6534700D01*
X-14000500Y6504270D01*
X-18224500Y6504270D01*
X-18224500Y7293808D01*
X-18204815Y7360847D01*
X-18154961Y7405208D01*
X-18143517Y7410802D01*
X-18119796Y7434523D01*
X-18087681Y7466637D01*
X-18026358Y7500122D01*
X-17956666Y7495138D01*
X-17912319Y7466637D01*
X-17856486Y7410804D01*
X-17856485Y7410804D01*
X-17856483Y7410802D01*
X-17751393Y7359427D01*
X-17717327Y7354464D01*
X-17683261Y7349500D01*
X-17683260Y7349500D01*
X-17316739Y7349500D01*
X-17294029Y7352809D01*
X-17248607Y7359427D01*
X-17143517Y7410802D01*
X-17119796Y7434523D01*
X-17087681Y7466637D01*
X-17026358Y7500122D01*
X-16956666Y7495138D01*
X-16912319Y7466637D01*
X-16856486Y7410804D01*
X-16856485Y7410804D01*
X-16856483Y7410802D01*
X-16751393Y7359427D01*
X-16717327Y7354464D01*
X-16683261Y7349500D01*
X-16683260Y7349500D01*
X-16316739Y7349500D01*
X-16294029Y7352809D01*
X-16248607Y7359427D01*
X-16143517Y7410802D01*
X-16119796Y7434523D01*
X-16087681Y7466637D01*
X-16026358Y7500122D01*
X-15956666Y7495138D01*
X-15912319Y7466637D01*
X-15856486Y7410804D01*
X-15856485Y7410804D01*
X-15856483Y7410802D01*
X-15751393Y7359427D01*
X-15717327Y7354464D01*
X-15683261Y7349500D01*
X-15683260Y7349500D01*
X-15316739Y7349500D01*
X-15294029Y7352809D01*
X-15248607Y7359427D01*
X-15143517Y7410802D01*
X-15119796Y7434523D01*
X-15087681Y7466637D01*
X-15026358Y7500122D01*
X-14956666Y7495138D01*
X-14912319Y7466637D01*
X-14856486Y7410804D01*
X-14856485Y7410804D01*
X-14856483Y7410802D01*
X-14751393Y7359427D01*
X-14717327Y7354464D01*
X-14683261Y7349500D01*
X-14683260Y7349500D01*
X-14316739Y7349500D01*
X-14294029Y7352809D01*
X-14248607Y7359427D01*
X-14143517Y7410802D01*
X-14060802Y7493517D01*
X-14009427Y7598607D01*
X-13999500Y7666740D01*
X-13999500Y8384523D01*
X-13979815Y8451562D01*
X-13963181Y8472204D01*
X-10122203Y12313181D01*
X-10060880Y12346666D01*
X-10034522Y12349500D01*
X-9258559Y12349500D01*
X-9191520Y12329815D01*
G37*
G04 #@! TD.AperFunction*
G04 #@! TA.AperFunction,Conductor*
G36*
X3685143Y12304815D02*
G01*
X3709161Y12284671D01*
X3741210Y12250000D01*
X4396000Y12250000D01*
X4463039Y12230315D01*
X4508794Y12177511D01*
X4520000Y12126000D01*
X4520000Y12000000D01*
X4646000Y12000000D01*
X4713039Y11980315D01*
X4758794Y11927511D01*
X4770000Y11876000D01*
X4770000Y11195497D01*
X4916195Y11237969D01*
X5055374Y11320279D01*
X5055383Y11320286D01*
X5169714Y11434617D01*
X5174499Y11440785D01*
X5176459Y11439265D01*
X5218583Y11478618D01*
X5287321Y11491142D01*
X5290443Y11490772D01*
X5300099Y11489500D01*
X5659900Y11489501D01*
X5709487Y11496028D01*
X5818316Y11546776D01*
X5879479Y11607940D01*
X5940798Y11641422D01*
X6010490Y11636438D01*
X6035667Y11621496D01*
X6036411Y11622652D01*
X6043871Y11617858D01*
X6043872Y11617857D01*
X6164947Y11540047D01*
X6164950Y11540046D01*
X6164949Y11540046D01*
X6252297Y11514399D01*
X6302446Y11499674D01*
X6303036Y11499501D01*
X6303038Y11499500D01*
X6303039Y11499500D01*
X6446962Y11499500D01*
X6446962Y11499501D01*
X6585053Y11540047D01*
X6706128Y11617857D01*
X6800377Y11726627D01*
X6860165Y11857543D01*
X6880647Y12000000D01*
X6860165Y12142457D01*
X6857183Y12148987D01*
X6847238Y12218145D01*
X6876262Y12281701D01*
X6935039Y12319477D01*
X6969976Y12324500D01*
X7813201Y12324500D01*
X7880240Y12304815D01*
X7900882Y12288181D01*
X10376882Y9812181D01*
X10410367Y9750858D01*
X10405383Y9681166D01*
X10363511Y9625233D01*
X10298047Y9600816D01*
X10289201Y9600500D01*
X9395730Y9600500D01*
X9365300Y9597647D01*
X9365298Y9597647D01*
X9237119Y9552794D01*
X9237117Y9552793D01*
X9127850Y9472150D01*
X9047207Y9362883D01*
X9047206Y9362881D01*
X9002353Y9234702D01*
X9002353Y9234700D01*
X8999500Y9204270D01*
X8999500Y8395731D01*
X9002353Y8365301D01*
X9002353Y8365299D01*
X9047206Y8237120D01*
X9047207Y8237118D01*
X9127850Y8127850D01*
X9237118Y8047207D01*
X9279845Y8032256D01*
X9365299Y8002354D01*
X9395730Y7999500D01*
X9395734Y7999500D01*
X10804270Y7999500D01*
X10834699Y8002354D01*
X10834701Y8002354D01*
X10899418Y8025000D01*
X10962882Y8047207D01*
X11072150Y8127850D01*
X11152793Y8237118D01*
X11175219Y8301210D01*
X11197646Y8365299D01*
X11197646Y8365301D01*
X11200500Y8395731D01*
X11200500Y8689201D01*
X11220185Y8756240D01*
X11272989Y8801995D01*
X11342147Y8811939D01*
X11405703Y8782914D01*
X11412181Y8776882D01*
X12159009Y8030054D01*
X12192494Y7968731D01*
X12187510Y7899039D01*
X12165926Y7865452D01*
X12166773Y7864847D01*
X12160804Y7856487D01*
X12109426Y7751392D01*
X12099500Y7683261D01*
X12099500Y7316740D01*
X12109426Y7248609D01*
X12160803Y7143515D01*
X12216637Y7087681D01*
X12250122Y7026358D01*
X12245138Y6956666D01*
X12216637Y6912319D01*
X12160803Y6856486D01*
X12158593Y6853390D01*
X12154490Y6850173D01*
X12153536Y6849218D01*
X12153420Y6849334D01*
X12103615Y6810271D01*
X12034053Y6803721D01*
X11971992Y6835817D01*
X11963967Y6844245D01*
X11931127Y6882144D01*
X11842065Y6939380D01*
X11810053Y6959953D01*
X11810051Y6959954D01*
X11810049Y6959955D01*
X11810050Y6959955D01*
X11671963Y7000500D01*
X11671961Y7000500D01*
X11528039Y7000500D01*
X11528036Y7000500D01*
X11389949Y6959955D01*
X11268873Y6882144D01*
X11268872Y6882144D01*
X11268872Y6882143D01*
X11240343Y6849218D01*
X11235212Y6843297D01*
X11176433Y6805523D01*
X11141499Y6800500D01*
X8592997Y6800500D01*
X8525958Y6820185D01*
X8492077Y6852450D01*
X8489194Y6856488D01*
X8433363Y6912319D01*
X8399878Y6973642D01*
X8404862Y7043334D01*
X8433363Y7087681D01*
X8489196Y7143515D01*
X8489198Y7143517D01*
X8540573Y7248607D01*
X8550500Y7316740D01*
X8550500Y7683260D01*
X8540573Y7751393D01*
X8489198Y7856483D01*
X8489196Y7856485D01*
X8489196Y7856486D01*
X8406485Y7939197D01*
X8403901Y7940460D01*
X8301393Y7990573D01*
X8301391Y7990574D01*
X8233261Y8000500D01*
X8233260Y8000500D01*
X7550833Y8000500D01*
X7483794Y8020185D01*
X7463152Y8036819D01*
X4306319Y11193652D01*
X4272834Y11254975D01*
X4270000Y11281333D01*
X4270000Y11750000D01*
X3801333Y11750000D01*
X3734294Y11769685D01*
X3713652Y11786319D01*
X3434512Y12065459D01*
X3434507Y12065463D01*
X3386615Y12093113D01*
X3338400Y12143680D01*
X3325176Y12212287D01*
X3351144Y12277152D01*
X3408058Y12317680D01*
X3448615Y12324500D01*
X3618104Y12324500D01*
X3685143Y12304815D01*
G37*
G04 #@! TD.AperFunction*
G04 #@! TA.AperFunction,Conductor*
G36*
X-853635Y18533961D02*
G01*
X-809872Y18479496D01*
X-800500Y18432206D01*
X-800500Y17724000D01*
X-820185Y17656961D01*
X-872989Y17611206D01*
X-924500Y17600000D01*
X-993055Y17600000D01*
X-1085217Y17588934D01*
X-1114783Y17588934D01*
X-1168234Y17595352D01*
X-1232448Y17622889D01*
X-1271582Y17680771D01*
X-1273210Y17750622D01*
X-1266250Y17769968D01*
X-1214835Y17882549D01*
X-1194353Y18025006D01*
X-1214835Y18167463D01*
X-1256863Y18259491D01*
X-1267921Y18283704D01*
X-1277865Y18352863D01*
X-1248840Y18416418D01*
X-1190062Y18454193D01*
X-1189721Y18454293D01*
X-1073807Y18487969D01*
X-987622Y18538938D01*
X-919898Y18556121D01*
X-853635Y18533961D01*
G37*
G04 #@! TD.AperFunction*
G04 #@! TA.AperFunction,Conductor*
G36*
X22642539Y29679815D02*
G01*
X22688294Y29627011D01*
X22699500Y29575500D01*
X22699500Y-3575500D01*
X22679815Y-3642539D01*
X22627011Y-3688294D01*
X22575500Y-3699500D01*
X-22575500Y-3699500D01*
X-22642539Y-3679815D01*
X-22688294Y-3627011D01*
X-22699500Y-3575500D01*
X-22699500Y-995730D01*
X-21600500Y-995730D01*
X-21600500Y-2404269D01*
X-21597647Y-2434699D01*
X-21597647Y-2434701D01*
X-21552794Y-2562880D01*
X-21552793Y-2562882D01*
X-21472150Y-2672150D01*
X-21362882Y-2752793D01*
X-21320155Y-2767744D01*
X-21234701Y-2797646D01*
X-21204270Y-2800500D01*
X-21204266Y-2800500D01*
X-20395730Y-2800500D01*
X-20365301Y-2797646D01*
X-20365299Y-2797646D01*
X-20301210Y-2775219D01*
X-20237118Y-2752793D01*
X-20127850Y-2672150D01*
X-20047207Y-2562882D01*
X-20024781Y-2498790D01*
X-20002354Y-2434701D01*
X-20002354Y-2434699D01*
X-19999500Y-2404269D01*
X-19999500Y-995730D01*
X-20002354Y-965300D01*
X-20002354Y-965298D01*
X-20047207Y-837119D01*
X-20047208Y-837117D01*
X-20062247Y-816740D01*
X-20127850Y-727850D01*
X-20237118Y-647207D01*
X-20237120Y-647206D01*
X-20365300Y-602353D01*
X-20395730Y-599500D01*
X-20395734Y-599500D01*
X-21204266Y-599500D01*
X-21204270Y-599500D01*
X-21234700Y-602353D01*
X-21234702Y-602353D01*
X-21362881Y-647206D01*
X-21362883Y-647207D01*
X-21472150Y-727850D01*
X-21552793Y-837117D01*
X-21552794Y-837119D01*
X-21597647Y-965298D01*
X-21597647Y-965300D01*
X-21600500Y-995730D01*
X-22699500Y-995730D01*
X-22699500Y134351D01*
X-20300000Y134351D01*
X-20297101Y97511D01*
X-20297100Y97505D01*
X-20251284Y-60193D01*
X-20251283Y-60196D01*
X-20167686Y-201552D01*
X-20167679Y-201561D01*
X-20051562Y-317678D01*
X-20051553Y-317685D01*
X-19910199Y-401281D01*
X-19752486Y-447100D01*
X-19752489Y-447100D01*
X-19750002Y-447295D01*
X-19750000Y-447295D01*
X-19750000Y575000D01*
X-20300000Y575000D01*
X-20300000Y134351D01*
X-22699500Y134351D01*
X-22699500Y1515650D01*
X-20300000Y1515650D01*
X-20300000Y1075000D01*
X-19750000Y1075000D01*
X-19750000Y2097297D01*
X-19752497Y2097100D01*
X-19910194Y2051284D01*
X-19910197Y2051283D01*
X-20051553Y1967686D01*
X-20051562Y1967679D01*
X-20167679Y1851562D01*
X-20167686Y1851553D01*
X-20251283Y1710197D01*
X-20251284Y1710194D01*
X-20297100Y1552496D01*
X-20297101Y1552490D01*
X-20300000Y1515650D01*
X-22699500Y1515650D01*
X-22699500Y6504270D01*
X-21600500Y6504270D01*
X-21600500Y5095731D01*
X-21597647Y5065301D01*
X-21597647Y5065299D01*
X-21552794Y4937120D01*
X-21552793Y4937118D01*
X-21472150Y4827850D01*
X-21362882Y4747207D01*
X-21320155Y4732256D01*
X-21234701Y4702354D01*
X-21204270Y4699500D01*
X-21204266Y4699500D01*
X-20395730Y4699500D01*
X-20365301Y4702354D01*
X-20365299Y4702354D01*
X-20299236Y4725471D01*
X-20237118Y4747207D01*
X-20127850Y4827850D01*
X-20047207Y4937118D01*
X-20013373Y5033809D01*
X-20002354Y5065299D01*
X-20002354Y5065301D01*
X-19999500Y5095731D01*
X-19999500Y6504270D01*
X-20002354Y6534700D01*
X-20002354Y6534702D01*
X-20039950Y6642143D01*
X-20047207Y6662882D01*
X-20127850Y6772150D01*
X-20237118Y6852793D01*
X-20237120Y6852794D01*
X-20365300Y6897647D01*
X-20395730Y6900500D01*
X-20395734Y6900500D01*
X-21204266Y6900500D01*
X-21204270Y6900500D01*
X-21234700Y6897647D01*
X-21234702Y6897647D01*
X-21362881Y6852794D01*
X-21362883Y6852793D01*
X-21472150Y6772150D01*
X-21552793Y6662883D01*
X-21552794Y6662881D01*
X-21597647Y6534702D01*
X-21597647Y6534700D01*
X-21600500Y6504270D01*
X-22699500Y6504270D01*
X-22699500Y7634351D01*
X-20300000Y7634351D01*
X-20297101Y7597511D01*
X-20297100Y7597505D01*
X-20251284Y7439807D01*
X-20251283Y7439804D01*
X-20167686Y7298448D01*
X-20167679Y7298439D01*
X-20051562Y7182322D01*
X-20051553Y7182315D01*
X-19910199Y7098719D01*
X-19752486Y7052900D01*
X-19752489Y7052900D01*
X-19750002Y7052705D01*
X-19750000Y7052705D01*
X-19750000Y8075000D01*
X-20300000Y8075000D01*
X-20300000Y7634351D01*
X-22699500Y7634351D01*
X-22699500Y9015650D01*
X-20300000Y9015650D01*
X-20300000Y8575000D01*
X-19750000Y8575000D01*
X-19750000Y9597297D01*
X-19752497Y9597100D01*
X-19910194Y9551284D01*
X-19910197Y9551283D01*
X-20051553Y9467686D01*
X-20051562Y9467679D01*
X-20167679Y9351562D01*
X-20167686Y9351553D01*
X-20251283Y9210197D01*
X-20251284Y9210194D01*
X-20297100Y9052496D01*
X-20297101Y9052490D01*
X-20300000Y9015650D01*
X-22699500Y9015650D01*
X-22699500Y14004270D01*
X-21600500Y14004270D01*
X-21600500Y12595731D01*
X-21597647Y12565301D01*
X-21597647Y12565299D01*
X-21552794Y12437120D01*
X-21552793Y12437118D01*
X-21472150Y12327850D01*
X-21362882Y12247207D01*
X-21320155Y12232256D01*
X-21234701Y12202354D01*
X-21204270Y12199500D01*
X-21204266Y12199500D01*
X-20395730Y12199500D01*
X-20365301Y12202354D01*
X-20365299Y12202354D01*
X-20285393Y12230315D01*
X-20237118Y12247207D01*
X-20127850Y12327850D01*
X-20047207Y12437118D01*
X-20011970Y12537819D01*
X-20002354Y12565299D01*
X-20002354Y12565301D01*
X-19999500Y12595731D01*
X-19999500Y14004270D01*
X-20002354Y14034700D01*
X-20002354Y14034702D01*
X-20042813Y14150324D01*
X-20047207Y14162882D01*
X-20127850Y14272150D01*
X-20237118Y14352793D01*
X-20237120Y14352794D01*
X-20365300Y14397647D01*
X-20395730Y14400500D01*
X-20395734Y14400500D01*
X-21204266Y14400500D01*
X-21204270Y14400500D01*
X-21234700Y14397647D01*
X-21234702Y14397647D01*
X-21362881Y14352794D01*
X-21362883Y14352793D01*
X-21472150Y14272150D01*
X-21552793Y14162883D01*
X-21552794Y14162881D01*
X-21597647Y14034702D01*
X-21597647Y14034700D01*
X-21600500Y14004270D01*
X-22699500Y14004270D01*
X-22699500Y15134351D01*
X-20300000Y15134351D01*
X-20297101Y15097511D01*
X-20297100Y15097505D01*
X-20251284Y14939807D01*
X-20251283Y14939804D01*
X-20167686Y14798448D01*
X-20167679Y14798439D01*
X-20051562Y14682322D01*
X-20051553Y14682315D01*
X-19910199Y14598719D01*
X-19752486Y14552900D01*
X-19752489Y14552900D01*
X-19750002Y14552705D01*
X-19750000Y14552705D01*
X-19750000Y15575000D01*
X-20300000Y15575000D01*
X-20300000Y15134351D01*
X-22699500Y15134351D01*
X-22699500Y16515650D01*
X-20300000Y16515650D01*
X-20300000Y16075000D01*
X-19624000Y16075000D01*
X-19556961Y16055315D01*
X-19511206Y16002511D01*
X-19500000Y15951000D01*
X-19500000Y15825000D01*
X-19374000Y15825000D01*
X-19306961Y15805315D01*
X-19261206Y15752511D01*
X-19250000Y15701000D01*
X-19250000Y14552705D01*
X-19249999Y14552705D01*
X-19247514Y14552900D01*
X-19089802Y14598719D01*
X-18962621Y14673933D01*
X-18894897Y14691116D01*
X-18828635Y14668956D01*
X-18784871Y14614490D01*
X-18775500Y14567201D01*
X-18775500Y12485603D01*
X-18795185Y12418564D01*
X-18825059Y12388687D01*
X-18824423Y12387953D01*
X-18831126Y12382145D01*
X-18925377Y12273374D01*
X-18925378Y12273372D01*
X-18985166Y12142457D01*
X-19005647Y12000000D01*
X-18985166Y11857544D01*
X-18926291Y11728628D01*
X-18925377Y11726627D01*
X-18831128Y11617857D01*
X-18831126Y11617856D01*
X-18824426Y11612050D01*
X-18825558Y11610745D01*
X-18786709Y11565918D01*
X-18775500Y11514399D01*
X-18775500Y9582800D01*
X-18795185Y9515761D01*
X-18847989Y9470006D01*
X-18917147Y9460062D01*
X-18962621Y9476068D01*
X-19089804Y9551283D01*
X-19089807Y9551284D01*
X-19247506Y9597100D01*
X-19247503Y9597100D01*
X-19250000Y9597297D01*
X-19250000Y7052705D01*
X-19249999Y7052705D01*
X-19247514Y7052900D01*
X-19089802Y7098719D01*
X-18962621Y7173933D01*
X-18894897Y7191116D01*
X-18828635Y7168956D01*
X-18784871Y7114490D01*
X-18775500Y7067201D01*
X-18775500Y4985603D01*
X-18795185Y4918564D01*
X-18825059Y4888687D01*
X-18824423Y4887953D01*
X-18831126Y4882145D01*
X-18831128Y4882144D01*
X-18831128Y4882143D01*
X-18853328Y4856524D01*
X-18925377Y4773374D01*
X-18925378Y4773372D01*
X-18985166Y4642457D01*
X-19005647Y4500000D01*
X-18985166Y4357544D01*
X-18925378Y4226629D01*
X-18925377Y4226627D01*
X-18831128Y4117857D01*
X-18831126Y4117856D01*
X-18824426Y4112050D01*
X-18825558Y4110745D01*
X-18786709Y4065918D01*
X-18775500Y4014399D01*
X-18775500Y2082800D01*
X-18795185Y2015761D01*
X-18847989Y1970006D01*
X-18917147Y1960062D01*
X-18962621Y1976068D01*
X-19089804Y2051283D01*
X-19089807Y2051284D01*
X-19247506Y2097100D01*
X-19247503Y2097100D01*
X-19250000Y2097297D01*
X-19250000Y-447295D01*
X-19249999Y-447295D01*
X-19247514Y-447100D01*
X-19089802Y-401281D01*
X-18948448Y-317685D01*
X-18948439Y-317678D01*
X-18832324Y-201563D01*
X-18827540Y-195396D01*
X-18825347Y-197097D01*
X-18783966Y-158450D01*
X-18715226Y-145938D01*
X-18710422Y-146542D01*
X-18683260Y-150500D01*
X-18683259Y-150500D01*
X-18316739Y-150500D01*
X-18294029Y-147191D01*
X-18248607Y-140573D01*
X-18143517Y-89198D01*
X-18137072Y-82753D01*
X-18087681Y-33363D01*
X-18026358Y122D01*
X-17956666Y-4862D01*
X-17912319Y-33363D01*
X-17856486Y-89196D01*
X-17856485Y-89196D01*
X-17856483Y-89198D01*
X-17751393Y-140573D01*
X-17717327Y-145536D01*
X-17683261Y-150500D01*
X-17683260Y-150500D01*
X-17316739Y-150500D01*
X-17294029Y-147191D01*
X-17248607Y-140573D01*
X-17143517Y-89198D01*
X-17137072Y-82753D01*
X-17087681Y-33363D01*
X-17026358Y122D01*
X-16956666Y-4862D01*
X-16912319Y-33363D01*
X-16856486Y-89196D01*
X-16856485Y-89196D01*
X-16856483Y-89198D01*
X-16751393Y-140573D01*
X-16717327Y-145536D01*
X-16683261Y-150500D01*
X-16683260Y-150500D01*
X-16316739Y-150500D01*
X-16294029Y-147191D01*
X-16248607Y-140573D01*
X-16143517Y-89198D01*
X-16137072Y-82753D01*
X-16087681Y-33363D01*
X-16026358Y122D01*
X-15956666Y-4862D01*
X-15912319Y-33363D01*
X-15856486Y-89196D01*
X-15856487Y-89196D01*
X-15856484Y-89197D01*
X-15856483Y-89198D01*
X-15831160Y-101577D01*
X-15779577Y-148704D01*
X-15771058Y-165524D01*
X-15735489Y-251393D01*
X-15735488Y-251397D01*
X-15733559Y-256054D01*
X-15733557Y-256058D01*
X-15658557Y-331058D01*
X-15581058Y-408557D01*
X-15479800Y-450500D01*
X-15479799Y-450500D01*
X-13873185Y-450500D01*
X-13806146Y-470185D01*
X-13760391Y-522989D01*
X-13750447Y-592147D01*
X-13779472Y-655703D01*
X-13799550Y-674269D01*
X-13860805Y-719477D01*
X-13872150Y-727850D01*
X-13952793Y-837117D01*
X-13952794Y-837119D01*
X-13997647Y-965298D01*
X-13997647Y-965300D01*
X-14000500Y-995730D01*
X-14000500Y-2404269D01*
X-13997647Y-2434699D01*
X-13997647Y-2434701D01*
X-13952794Y-2562880D01*
X-13952793Y-2562882D01*
X-13872150Y-2672150D01*
X-13762882Y-2752793D01*
X-13720155Y-2767744D01*
X-13634701Y-2797646D01*
X-13604270Y-2800500D01*
X-13604266Y-2800500D01*
X-12795730Y-2800500D01*
X-12765301Y-2797646D01*
X-12765299Y-2797646D01*
X-12701210Y-2775219D01*
X-12637118Y-2752793D01*
X-12527850Y-2672150D01*
X-12447207Y-2562882D01*
X-12424781Y-2498790D01*
X-12402354Y-2434701D01*
X-12402354Y-2434699D01*
X-12399500Y-2404269D01*
X-12399500Y-995730D01*
X-12402354Y-965300D01*
X-12402354Y-965298D01*
X-12414619Y-930247D01*
X-3850500Y-930247D01*
X-3850500Y-2669752D01*
X-3838869Y-2728229D01*
X-3838868Y-2728230D01*
X-3794553Y-2794552D01*
X-3728231Y-2838867D01*
X-3728230Y-2838868D01*
X-3669753Y-2850499D01*
X-3669750Y-2850500D01*
X-3669748Y-2850500D01*
X-2730250Y-2850500D01*
X-2730249Y-2850499D01*
X-2715432Y-2847552D01*
X-2671771Y-2838868D01*
X-2671771Y-2838867D01*
X-2671769Y-2838867D01*
X-2605448Y-2794552D01*
X-2561133Y-2728231D01*
X-2561133Y-2728229D01*
X-2561132Y-2728229D01*
X-2549501Y-2669752D01*
X-2549500Y-2669750D01*
X-2549500Y-2262584D01*
X-2529815Y-2195545D01*
X-2477011Y-2149790D01*
X-2407853Y-2139846D01*
X-2344297Y-2168871D01*
X-2331791Y-2181378D01*
X-2331128Y-2182143D01*
X-2331127Y-2182144D01*
X-2310274Y-2195545D01*
X-2210053Y-2259953D01*
X-2210050Y-2259954D01*
X-2210051Y-2259954D01*
X-2071964Y-2300499D01*
X-2071962Y-2300500D01*
X-2071961Y-2300500D01*
X-1928038Y-2300500D01*
X-1928038Y-2300499D01*
X-1789947Y-2259953D01*
X-1668872Y-2182143D01*
X-1574623Y-2073373D01*
X-1514835Y-1942457D01*
X-1494353Y-1800000D01*
X-1514835Y-1657543D01*
X-1574623Y-1526627D01*
X-1668872Y-1417857D01*
X-1789947Y-1340047D01*
X-1789949Y-1340046D01*
X-1789951Y-1340045D01*
X-1789950Y-1340045D01*
X-1928037Y-1299500D01*
X-1928039Y-1299500D01*
X-2071961Y-1299500D01*
X-2071964Y-1299500D01*
X-2210051Y-1340045D01*
X-2331128Y-1417857D01*
X-2331789Y-1418620D01*
X-2332638Y-1419165D01*
X-2337828Y-1423663D01*
X-2338475Y-1422916D01*
X-2390568Y-1456393D01*
X-2460437Y-1456391D01*
X-2519215Y-1418616D01*
X-2548238Y-1355059D01*
X-2549500Y-1337415D01*
X-2549500Y-930249D01*
X-2549501Y-930247D01*
X-2561132Y-871770D01*
X-2561133Y-871769D01*
X-2605448Y-805447D01*
X-2671770Y-761132D01*
X-2671771Y-761131D01*
X-2730248Y-749500D01*
X-2730252Y-749500D01*
X-3669748Y-749500D01*
X-3669753Y-749500D01*
X-3728230Y-761131D01*
X-3728231Y-761132D01*
X-3794553Y-805447D01*
X-3838868Y-871769D01*
X-3838869Y-871770D01*
X-3850500Y-930247D01*
X-12414619Y-930247D01*
X-12447207Y-837119D01*
X-12447208Y-837117D01*
X-12462247Y-816740D01*
X-12527850Y-727850D01*
X-12600450Y-674269D01*
X-12642699Y-618623D01*
X-12648158Y-548966D01*
X-12615090Y-487417D01*
X-12553996Y-453516D01*
X-12526815Y-450500D01*
X-12370201Y-450500D01*
X-12370200Y-450500D01*
X-12268942Y-408557D01*
X-12191443Y-331058D01*
X-12191444Y-331058D01*
X-12132875Y-272489D01*
X-12132876Y-272489D01*
X-3448341Y8412045D01*
X-3387020Y8445528D01*
X-3317328Y8440544D01*
X-3261395Y8398672D01*
X-3247868Y8375874D01*
X-3225377Y8326627D01*
X-3131128Y8217857D01*
X-3131126Y8217856D01*
X-3131124Y8217854D01*
X-3124202Y8213405D01*
X-3078448Y8160601D01*
X-3068505Y8091442D01*
X-3097531Y8027887D01*
X-3103556Y8021417D01*
X-3184511Y7940460D01*
X-3240459Y7884513D01*
X-3240465Y7884505D01*
X-3280018Y7815996D01*
X-3280021Y7815991D01*
X-3300500Y7739561D01*
X-3300500Y6953651D01*
X-3320185Y6886612D01*
X-3336819Y6865970D01*
X-5100459Y5102331D01*
X-5100465Y5102323D01*
X-5140018Y5033814D01*
X-5140021Y5033809D01*
X-5149641Y4997905D01*
X-5160500Y4957380D01*
X-5160500Y3460438D01*
X-5149665Y3420001D01*
X-5140021Y3384010D01*
X-5128020Y3363224D01*
X-5103353Y3320500D01*
X-5100460Y3315489D01*
X-5100458Y3315486D01*
X-5100457Y3315485D01*
X-4846819Y3061848D01*
X-4813334Y3000525D01*
X-4810500Y2974168D01*
X-4810500Y2760106D01*
X-4810499Y2760100D01*
X-4803972Y2710513D01*
X-4803971Y2710511D01*
X-4803971Y2710510D01*
X-4761679Y2619815D01*
X-4753224Y2601684D01*
X-4668316Y2516776D01*
X-4559487Y2466028D01*
X-4509901Y2459500D01*
X-4090100Y2459501D01*
X-4040513Y2466028D01*
X-3931684Y2516776D01*
X-3846776Y2601684D01*
X-3846776Y2601685D01*
X-3845279Y2603181D01*
X-3783956Y2636666D01*
X-3757598Y2639500D01*
X-3624500Y2639500D01*
X-3557461Y2619815D01*
X-3511706Y2567011D01*
X-3500500Y2515500D01*
X-3500500Y1980248D01*
X-3488869Y1921771D01*
X-3488868Y1921770D01*
X-3444553Y1855448D01*
X-3378231Y1811133D01*
X-3378230Y1811132D01*
X-3319753Y1799501D01*
X-3319750Y1799500D01*
X-3319748Y1799500D01*
X-1880250Y1799500D01*
X-1880249Y1799501D01*
X-1865432Y1802448D01*
X-1821771Y1811132D01*
X-1821771Y1811133D01*
X-1821769Y1811133D01*
X-1755448Y1855448D01*
X-1711133Y1921769D01*
X-1711133Y1921771D01*
X-1711132Y1921771D01*
X-1699501Y1980248D01*
X-1699500Y1980250D01*
X-1699500Y3219751D01*
X-1699501Y3219753D01*
X-1711132Y3278230D01*
X-1711133Y3278231D01*
X-1755448Y3344553D01*
X-1758957Y3346897D01*
X-1803763Y3400508D01*
X-1812472Y3469833D01*
X-1782318Y3532861D01*
X-1758957Y3553103D01*
X-1755448Y3555448D01*
X-1751281Y3561684D01*
X-1711133Y3621769D01*
X-1711133Y3621771D01*
X-1711132Y3621771D01*
X-1699501Y3680248D01*
X-1699500Y3680250D01*
X-1699500Y4875167D01*
X-1679815Y4942206D01*
X-1627011Y4987961D01*
X-1557853Y4997905D01*
X-1494297Y4968880D01*
X-1487819Y4962848D01*
X-1336819Y4811848D01*
X-1303334Y4750525D01*
X-1300500Y4724167D01*
X-1300500Y3680248D01*
X-1288869Y3621771D01*
X-1288868Y3621770D01*
X-1244552Y3555447D01*
X-1241041Y3553101D01*
X-1196236Y3499488D01*
X-1187530Y3430163D01*
X-1217686Y3367136D01*
X-1241041Y3346899D01*
X-1244552Y3344554D01*
X-1288868Y3278231D01*
X-1288869Y3278230D01*
X-1300500Y3219753D01*
X-1300500Y1980248D01*
X-1288869Y1921771D01*
X-1288868Y1921770D01*
X-1244553Y1855448D01*
X-1178231Y1811133D01*
X-1178230Y1811132D01*
X-1119753Y1799501D01*
X-1119750Y1799500D01*
X-1119748Y1799500D01*
X319750Y1799500D01*
X319751Y1799501D01*
X334568Y1802448D01*
X378229Y1811132D01*
X378231Y1811133D01*
X454600Y1862162D01*
X521277Y1883041D01*
X588658Y1864557D01*
X635348Y1812579D01*
X636273Y1810599D01*
X674623Y1726627D01*
X768872Y1617857D01*
X889947Y1540047D01*
X889950Y1540046D01*
X889949Y1540046D01*
X997107Y1508583D01*
X1011909Y1504236D01*
X1028036Y1499501D01*
X1028038Y1499500D01*
X1028039Y1499500D01*
X1171962Y1499500D01*
X1171962Y1499501D01*
X1310053Y1540047D01*
X1431128Y1617857D01*
X1525377Y1726627D01*
X1585165Y1857543D01*
X1605647Y2000000D01*
X1585165Y2142457D01*
X1525377Y2273373D01*
X1472585Y2334299D01*
X1443561Y2397855D01*
X1453505Y2467013D01*
X1499260Y2519817D01*
X1566299Y2539501D01*
X1609895Y2539501D01*
X1609900Y2539501D01*
X1659487Y2546028D01*
X1768316Y2596776D01*
X1853224Y2681684D01*
X1903972Y2790513D01*
X1910500Y2840099D01*
X1910499Y3199900D01*
X1903972Y3249487D01*
X1853224Y3358316D01*
X1799221Y3412319D01*
X1765736Y3473642D01*
X1770720Y3543334D01*
X1799221Y3587681D01*
X1853224Y3641684D01*
X1903972Y3750513D01*
X1910500Y3800099D01*
X1910499Y4159900D01*
X1903972Y4209487D01*
X1853224Y4318316D01*
X1768316Y4403224D01*
X1659487Y4453972D01*
X1659485Y4453973D01*
X1659486Y4453973D01*
X1609901Y4460500D01*
X1190105Y4460500D01*
X1174386Y4458431D01*
X1140513Y4453972D01*
X1140511Y4453971D01*
X1140509Y4453971D01*
X1031683Y4403224D01*
X945279Y4316819D01*
X883956Y4283334D01*
X857598Y4280500D01*
X624500Y4280500D01*
X557461Y4300185D01*
X511706Y4352989D01*
X500500Y4404500D01*
X500500Y4919751D01*
X500499Y4919753D01*
X488868Y4978230D01*
X488867Y4978231D01*
X444552Y5044553D01*
X378230Y5088868D01*
X378229Y5088869D01*
X319752Y5100500D01*
X319748Y5100500D01*
X-724167Y5100500D01*
X-791206Y5120185D01*
X-811848Y5136819D01*
X-1242849Y5567820D01*
X-1276334Y5629143D01*
X-1271350Y5698835D01*
X-1229478Y5754768D01*
X-1164014Y5779185D01*
X-1155185Y5779501D01*
X-909100Y5779501D01*
X-859513Y5786028D01*
X-750684Y5836776D01*
X-665776Y5921684D01*
X-665773Y5921693D01*
X-661075Y5928399D01*
X-606498Y5972024D01*
X-536999Y5979216D01*
X-474645Y5947694D01*
X-457925Y5928399D01*
X-453226Y5921688D01*
X-453224Y5921684D01*
X-368316Y5836776D01*
X-259487Y5786028D01*
X-209901Y5779500D01*
X209900Y5779501D01*
X259487Y5786028D01*
X368316Y5836776D01*
X432810Y5901271D01*
X494129Y5934753D01*
X563821Y5929769D01*
X614198Y5894791D01*
X628872Y5877857D01*
X749947Y5800047D01*
X749950Y5800046D01*
X749949Y5800046D01*
X819921Y5779501D01*
X876517Y5762883D01*
X888036Y5759501D01*
X888038Y5759500D01*
X888039Y5759500D01*
X1031962Y5759500D01*
X1031962Y5759501D01*
X1170053Y5800047D01*
X1291128Y5877857D01*
X1385377Y5986627D01*
X1445165Y6117543D01*
X1465647Y6260000D01*
X1445165Y6402457D01*
X1385377Y6533373D01*
X1291128Y6642143D01*
X1170053Y6719953D01*
X1170051Y6719954D01*
X1170049Y6719955D01*
X1170050Y6719955D01*
X1031963Y6760500D01*
X1031961Y6760500D01*
X888039Y6760500D01*
X888036Y6760500D01*
X749949Y6719955D01*
X628873Y6642144D01*
X628872Y6642144D01*
X628872Y6642143D01*
X614199Y6625211D01*
X555423Y6587437D01*
X485553Y6587437D01*
X432807Y6618733D01*
X399221Y6652319D01*
X365736Y6713642D01*
X370720Y6783334D01*
X399221Y6827681D01*
X424930Y6853390D01*
X453224Y6881684D01*
X503972Y6990513D01*
X510500Y7040099D01*
X510499Y7399900D01*
X503972Y7449487D01*
X453224Y7558316D01*
X368316Y7643224D01*
X259487Y7693972D01*
X259485Y7693973D01*
X259486Y7693973D01*
X209902Y7700500D01*
X209901Y7700500D01*
X100833Y7700500D01*
X33794Y7720185D01*
X13152Y7736819D01*
X-160605Y7910576D01*
X-194090Y7971899D01*
X-195661Y8015906D01*
X-194353Y8025000D01*
X-214835Y8167457D01*
X-274623Y8298373D01*
X-368872Y8407143D01*
X-489947Y8484953D01*
X-489949Y8484954D01*
X-510438Y8490970D01*
X-569215Y8528745D01*
X-598238Y8592302D01*
X-599500Y8609946D01*
X-599500Y9025500D01*
X-579815Y9092539D01*
X-527011Y9138294D01*
X-475500Y9149500D01*
X-425324Y9149500D01*
X-425323Y9149501D01*
X-398370Y9154862D01*
X-352268Y9164032D01*
X-352267Y9164033D01*
X-352260Y9164034D01*
X-352255Y9164038D01*
X-347461Y9166023D01*
X-277992Y9173496D01*
X-252539Y9166023D01*
X-247744Y9164037D01*
X-247740Y9164034D01*
X-247736Y9164034D01*
X-247733Y9164032D01*
X-174679Y9149501D01*
X-174676Y9149500D01*
X-91506Y9149500D01*
X-24467Y9129815D01*
X21288Y9077011D01*
X23055Y9072953D01*
X24500Y9069465D01*
X24500Y9069464D01*
X40514Y9030804D01*
X66443Y8968206D01*
X66444Y8968205D01*
X2388181Y6646468D01*
X2421666Y6585145D01*
X2424500Y6558787D01*
X2424500Y1365479D01*
X2404815Y1298440D01*
X2388182Y1277798D01*
X2322204Y1211819D01*
X2260881Y1178334D01*
X2234522Y1175500D01*
X145199Y1175500D01*
X43940Y1133556D01*
X-33556Y1056060D01*
X-75500Y954801D01*
X-75500Y-625500D01*
X-95185Y-692539D01*
X-147989Y-738294D01*
X-199500Y-749500D01*
X-269753Y-749500D01*
X-328230Y-761131D01*
X-328231Y-761132D01*
X-394553Y-805447D01*
X-438868Y-871769D01*
X-438869Y-871770D01*
X-450500Y-930247D01*
X-450500Y-2669752D01*
X-438869Y-2728229D01*
X-438868Y-2728230D01*
X-394553Y-2794552D01*
X-328231Y-2838867D01*
X-328230Y-2838868D01*
X-269753Y-2850499D01*
X-269750Y-2850500D01*
X-269748Y-2850500D01*
X669750Y-2850500D01*
X669751Y-2850499D01*
X684568Y-2847552D01*
X728229Y-2838868D01*
X728229Y-2838867D01*
X728231Y-2838867D01*
X794552Y-2794552D01*
X838867Y-2728231D01*
X838867Y-2728229D01*
X838868Y-2728229D01*
X850499Y-2669752D01*
X850500Y-2669750D01*
X850500Y-930249D01*
X850499Y-930247D01*
X838868Y-871770D01*
X838867Y-871769D01*
X794552Y-805447D01*
X728230Y-761132D01*
X728229Y-761131D01*
X669752Y-749500D01*
X669748Y-749500D01*
X599500Y-749500D01*
X532461Y-729815D01*
X486706Y-677011D01*
X475500Y-625500D01*
X475500Y500500D01*
X495185Y567539D01*
X547989Y613294D01*
X599500Y624500D01*
X2229456Y624500D01*
X2296495Y604815D01*
X2342250Y552011D01*
X2352194Y482853D01*
X2323169Y419297D01*
X2317137Y412819D01*
X2260803Y356486D01*
X2209426Y251392D01*
X2199500Y183261D01*
X2199500Y-183260D01*
X2209426Y-251391D01*
X2260803Y-356485D01*
X2316637Y-412319D01*
X2350122Y-473642D01*
X2345138Y-543334D01*
X2316637Y-587681D01*
X2260803Y-643514D01*
X2209426Y-748608D01*
X2199500Y-816739D01*
X2199500Y-1183260D01*
X2209426Y-1251391D01*
X2260803Y-1356485D01*
X2343514Y-1439196D01*
X2343515Y-1439196D01*
X2343517Y-1439198D01*
X2448607Y-1490573D01*
X2482673Y-1495536D01*
X2516739Y-1500500D01*
X2516740Y-1500500D01*
X3833261Y-1500500D01*
X3855971Y-1497191D01*
X3901393Y-1490573D01*
X4006483Y-1439198D01*
X4089198Y-1356483D01*
X4092356Y-1350022D01*
X4094793Y-1345039D01*
X4141921Y-1293457D01*
X4206193Y-1275500D01*
X4883800Y-1275500D01*
X4950839Y-1295185D01*
X4996594Y-1347989D01*
X5006538Y-1417147D01*
X4977513Y-1480703D01*
X4924755Y-1516541D01*
X4837119Y-1547206D01*
X4837117Y-1547207D01*
X4727850Y-1627850D01*
X4647207Y-1737117D01*
X4647206Y-1737119D01*
X4602353Y-1865298D01*
X4602353Y-1865300D01*
X4599500Y-1895730D01*
X4599500Y-2704269D01*
X4602353Y-2734699D01*
X4602353Y-2734701D01*
X4638804Y-2838868D01*
X4647207Y-2862882D01*
X4727850Y-2972150D01*
X4837118Y-3052793D01*
X4879845Y-3067744D01*
X4965299Y-3097646D01*
X4995730Y-3100500D01*
X4995734Y-3100500D01*
X6404270Y-3100500D01*
X6434699Y-3097646D01*
X6434701Y-3097646D01*
X6498790Y-3075219D01*
X6562882Y-3052793D01*
X6672150Y-2972150D01*
X6752793Y-2862882D01*
X6791315Y-2752793D01*
X6797646Y-2734701D01*
X6797646Y-2734699D01*
X6800500Y-2704269D01*
X6800500Y-1895730D01*
X6797646Y-1865300D01*
X6797646Y-1865298D01*
X6752793Y-1737119D01*
X6752792Y-1737117D01*
X6672150Y-1627850D01*
X6562882Y-1547207D01*
X6562880Y-1547206D01*
X6475245Y-1516541D01*
X6418469Y-1475819D01*
X6392722Y-1410866D01*
X6406179Y-1342305D01*
X6454566Y-1291902D01*
X6516200Y-1275500D01*
X6619837Y-1275500D01*
X6686876Y-1295185D01*
X6713548Y-1318295D01*
X6768872Y-1382143D01*
X6889947Y-1459953D01*
X6889950Y-1459954D01*
X6889949Y-1459954D01*
X6994230Y-1490573D01*
X7024633Y-1499500D01*
X7028036Y-1500499D01*
X7028038Y-1500500D01*
X7028039Y-1500500D01*
X7171962Y-1500500D01*
X7171962Y-1500499D01*
X7310053Y-1459953D01*
X7431128Y-1382143D01*
X7463968Y-1344242D01*
X7522743Y-1306470D01*
X7592612Y-1306469D01*
X7651391Y-1344243D01*
X7658599Y-1353397D01*
X7660805Y-1356487D01*
X7743514Y-1439196D01*
X7743515Y-1439196D01*
X7743517Y-1439198D01*
X7848607Y-1490573D01*
X7882673Y-1495536D01*
X7916739Y-1500500D01*
X7916740Y-1500500D01*
X9233261Y-1500500D01*
X9255971Y-1497191D01*
X9301393Y-1490573D01*
X9406483Y-1439198D01*
X9489198Y-1356483D01*
X9492356Y-1350022D01*
X9494793Y-1345039D01*
X9541921Y-1293457D01*
X9606193Y-1275500D01*
X10283800Y-1275500D01*
X10350839Y-1295185D01*
X10396594Y-1347989D01*
X10406538Y-1417147D01*
X10377513Y-1480703D01*
X10324755Y-1516541D01*
X10237119Y-1547206D01*
X10237117Y-1547207D01*
X10127850Y-1627850D01*
X10047207Y-1737117D01*
X10047206Y-1737119D01*
X10002353Y-1865298D01*
X10002353Y-1865300D01*
X9999500Y-1895730D01*
X9999500Y-2704269D01*
X10002353Y-2734699D01*
X10002353Y-2734701D01*
X10038804Y-2838868D01*
X10047207Y-2862882D01*
X10127850Y-2972150D01*
X10237118Y-3052793D01*
X10279845Y-3067744D01*
X10365299Y-3097646D01*
X10395730Y-3100500D01*
X10395734Y-3100500D01*
X11804270Y-3100500D01*
X11834699Y-3097646D01*
X11834701Y-3097646D01*
X11898790Y-3075219D01*
X11962882Y-3052793D01*
X12072150Y-2972150D01*
X12152793Y-2862882D01*
X12191315Y-2752793D01*
X12197646Y-2734701D01*
X12197646Y-2734699D01*
X12200500Y-2704269D01*
X12200500Y-1895730D01*
X15399500Y-1895730D01*
X15399500Y-2704269D01*
X15402353Y-2734699D01*
X15402353Y-2734701D01*
X15438804Y-2838868D01*
X15447207Y-2862882D01*
X15527850Y-2972150D01*
X15637118Y-3052793D01*
X15679845Y-3067744D01*
X15765299Y-3097646D01*
X15795730Y-3100500D01*
X15795734Y-3100500D01*
X17204270Y-3100500D01*
X17234699Y-3097646D01*
X17234701Y-3097646D01*
X17298790Y-3075219D01*
X17362882Y-3052793D01*
X17472150Y-2972150D01*
X17552793Y-2862882D01*
X17591315Y-2752793D01*
X17597646Y-2734701D01*
X17597646Y-2734699D01*
X17600500Y-2704269D01*
X17600500Y-1895730D01*
X17597646Y-1865300D01*
X17597646Y-1865298D01*
X17552793Y-1737119D01*
X17552792Y-1737117D01*
X17472150Y-1627850D01*
X17362882Y-1547207D01*
X17362880Y-1547206D01*
X17234700Y-1502353D01*
X17204270Y-1499500D01*
X17204266Y-1499500D01*
X15795734Y-1499500D01*
X15795730Y-1499500D01*
X15765300Y-1502353D01*
X15765298Y-1502353D01*
X15637119Y-1547206D01*
X15637117Y-1547207D01*
X15527850Y-1627850D01*
X15447207Y-1737117D01*
X15447206Y-1737119D01*
X15402353Y-1865298D01*
X15402353Y-1865300D01*
X15399500Y-1895730D01*
X12200500Y-1895730D01*
X12197646Y-1865300D01*
X12197646Y-1865298D01*
X12152793Y-1737119D01*
X12152792Y-1737117D01*
X12072150Y-1627850D01*
X11962882Y-1547207D01*
X11962880Y-1547206D01*
X11875245Y-1516541D01*
X11818469Y-1475819D01*
X11792722Y-1410866D01*
X11806179Y-1342305D01*
X11854566Y-1291902D01*
X11916200Y-1275500D01*
X12019837Y-1275500D01*
X12086876Y-1295185D01*
X12113548Y-1318295D01*
X12168872Y-1382143D01*
X12289947Y-1459953D01*
X12289950Y-1459954D01*
X12289949Y-1459954D01*
X12394230Y-1490573D01*
X12424633Y-1499500D01*
X12428036Y-1500499D01*
X12428038Y-1500500D01*
X12428039Y-1500500D01*
X12571962Y-1500500D01*
X12571962Y-1500499D01*
X12710053Y-1459953D01*
X12831128Y-1382143D01*
X12863968Y-1344242D01*
X12922743Y-1306470D01*
X12992612Y-1306469D01*
X13051391Y-1344243D01*
X13058599Y-1353397D01*
X13060805Y-1356487D01*
X13143514Y-1439196D01*
X13143515Y-1439196D01*
X13143517Y-1439198D01*
X13248607Y-1490573D01*
X13282673Y-1495536D01*
X13316739Y-1500500D01*
X13316740Y-1500500D01*
X14633261Y-1500500D01*
X14655971Y-1497191D01*
X14701393Y-1490573D01*
X14806483Y-1439198D01*
X14889198Y-1356483D01*
X14919884Y-1293713D01*
X19049500Y-1293713D01*
X19049500Y-1506287D01*
X19082754Y-1716243D01*
X19141074Y-1895734D01*
X19148444Y-1918414D01*
X19244951Y-2107820D01*
X19369890Y-2279786D01*
X19520213Y-2430109D01*
X19692179Y-2555048D01*
X19692181Y-2555049D01*
X19692184Y-2555051D01*
X19881588Y-2651557D01*
X20083757Y-2717246D01*
X20293713Y-2750500D01*
X20293714Y-2750500D01*
X20506286Y-2750500D01*
X20506287Y-2750500D01*
X20716243Y-2717246D01*
X20918412Y-2651557D01*
X21107816Y-2555051D01*
X21129789Y-2539086D01*
X21279786Y-2430109D01*
X21279788Y-2430106D01*
X21279792Y-2430104D01*
X21430104Y-2279792D01*
X21430106Y-2279788D01*
X21430109Y-2279786D01*
X21555048Y-2107820D01*
X21555047Y-2107820D01*
X21555051Y-2107816D01*
X21651557Y-1918412D01*
X21717246Y-1716243D01*
X21750500Y-1506287D01*
X21750500Y-1293713D01*
X21717246Y-1083757D01*
X21651557Y-881588D01*
X21555051Y-692184D01*
X21555049Y-692181D01*
X21555048Y-692179D01*
X21430109Y-520213D01*
X21279786Y-369890D01*
X21107820Y-244951D01*
X20918414Y-148444D01*
X20918413Y-148443D01*
X20918412Y-148443D01*
X20716243Y-82754D01*
X20716241Y-82753D01*
X20716240Y-82753D01*
X20554957Y-57208D01*
X20506287Y-49500D01*
X20293713Y-49500D01*
X20245042Y-57208D01*
X20083760Y-82753D01*
X20025826Y-101577D01*
X19887433Y-146544D01*
X19881585Y-148444D01*
X19692179Y-244951D01*
X19520213Y-369890D01*
X19369890Y-520213D01*
X19244951Y-692179D01*
X19148444Y-881585D01*
X19082753Y-1083760D01*
X19066994Y-1183260D01*
X19049500Y-1293713D01*
X14919884Y-1293713D01*
X14940573Y-1251393D01*
X14950500Y-1183260D01*
X14950500Y-816740D01*
X14940573Y-748607D01*
X14889198Y-643517D01*
X14889196Y-643515D01*
X14889196Y-643514D01*
X14833363Y-587681D01*
X14799878Y-526358D01*
X14804862Y-456666D01*
X14833363Y-412319D01*
X14889196Y-356485D01*
X14889198Y-356483D01*
X14940573Y-251393D01*
X14950500Y-183260D01*
X14950500Y183260D01*
X14940573Y251393D01*
X14889198Y356483D01*
X14889196Y356485D01*
X14889196Y356486D01*
X14806485Y439197D01*
X14701391Y490574D01*
X14633261Y500500D01*
X14633260Y500500D01*
X14215476Y500500D01*
X14148437Y520185D01*
X14135662Y530479D01*
X14131059Y533555D01*
X14131058Y533556D01*
X14029800Y575499D01*
X14014868Y575499D01*
X13947829Y595184D01*
X13927187Y611818D01*
X12834735Y1704270D01*
X15399500Y1704270D01*
X15399500Y895731D01*
X15402353Y865301D01*
X15402353Y865299D01*
X15444819Y743942D01*
X15447207Y737118D01*
X15527850Y627850D01*
X15637118Y547207D01*
X15676133Y533555D01*
X15765299Y502354D01*
X15795730Y499500D01*
X15795734Y499500D01*
X17204270Y499500D01*
X17234699Y502354D01*
X17234701Y502354D01*
X17313178Y529815D01*
X17362882Y547207D01*
X17472150Y627850D01*
X17552793Y737118D01*
X17575219Y801210D01*
X17597646Y865299D01*
X17597646Y865301D01*
X17600500Y895731D01*
X17600500Y1704270D01*
X17597646Y1734700D01*
X17597646Y1734702D01*
X17563054Y1833558D01*
X17552793Y1862882D01*
X17472150Y1972150D01*
X17362882Y2052793D01*
X17362880Y2052794D01*
X17234700Y2097647D01*
X17204270Y2100500D01*
X17204266Y2100500D01*
X15795734Y2100500D01*
X15795730Y2100500D01*
X15765300Y2097647D01*
X15765298Y2097647D01*
X15637119Y2052794D01*
X15637117Y2052793D01*
X15527850Y1972150D01*
X15447207Y1862883D01*
X15447206Y1862881D01*
X15402353Y1734702D01*
X15402353Y1734700D01*
X15399500Y1704270D01*
X12834735Y1704270D01*
X12098547Y2440458D01*
X12098545Y2440460D01*
X12092514Y2443942D01*
X12030025Y2480020D01*
X12030024Y2480021D01*
X12004547Y2486848D01*
X11953596Y2500500D01*
X11953594Y2500500D01*
X10675833Y2500500D01*
X10608794Y2520185D01*
X10588152Y2536819D01*
X7337152Y5787819D01*
X7303667Y5849142D01*
X7308651Y5918834D01*
X7350523Y5974767D01*
X7415987Y5999184D01*
X7424833Y5999500D01*
X8233261Y5999500D01*
X8255971Y6002809D01*
X8301393Y6009427D01*
X8406483Y6060802D01*
X8489198Y6143517D01*
X8489200Y6143523D01*
X8492077Y6147550D01*
X8547051Y6190674D01*
X8592997Y6199500D01*
X9212356Y6199500D01*
X9279395Y6179815D01*
X9325150Y6127011D01*
X9335094Y6057853D01*
X9306069Y5994297D01*
X9253311Y5958459D01*
X9237119Y5952794D01*
X9237117Y5952793D01*
X9127850Y5872150D01*
X9047207Y5762883D01*
X9047206Y5762881D01*
X9002353Y5634702D01*
X9002353Y5634700D01*
X8999500Y5604270D01*
X8999500Y4795731D01*
X9002353Y4765301D01*
X9002353Y4765299D01*
X9047206Y4637120D01*
X9047207Y4637118D01*
X9127850Y4527850D01*
X9237118Y4447207D01*
X9279845Y4432256D01*
X9365299Y4402354D01*
X9395730Y4399500D01*
X9395734Y4399500D01*
X10804270Y4399500D01*
X10834699Y4402354D01*
X10834701Y4402354D01*
X10898790Y4424781D01*
X10962882Y4447207D01*
X11072150Y4527850D01*
X11152793Y4637118D01*
X11191315Y4747207D01*
X11197646Y4765299D01*
X11197646Y4765301D01*
X11200500Y4795731D01*
X11200500Y5604270D01*
X11197646Y5634700D01*
X11197646Y5634702D01*
X11152793Y5762881D01*
X11152792Y5762883D01*
X11072150Y5872150D01*
X10962882Y5952793D01*
X10962880Y5952794D01*
X10946689Y5958459D01*
X10889913Y5999180D01*
X10864166Y6064133D01*
X10877622Y6132695D01*
X10926010Y6183097D01*
X10987644Y6199500D01*
X11141499Y6199500D01*
X11208538Y6179815D01*
X11235211Y6156704D01*
X11268872Y6117857D01*
X11389947Y6040047D01*
X11389950Y6040046D01*
X11389949Y6040046D01*
X11494230Y6009427D01*
X11524633Y6000500D01*
X11528036Y5999501D01*
X11528038Y5999500D01*
X11528039Y5999500D01*
X11671962Y5999500D01*
X11671962Y5999501D01*
X11810053Y6040047D01*
X11931128Y6117857D01*
X11963967Y6155757D01*
X12022744Y6193529D01*
X12092614Y6193529D01*
X12151392Y6155755D01*
X12158596Y6146606D01*
X12160802Y6143516D01*
X12243514Y6060804D01*
X12243515Y6060804D01*
X12243517Y6060802D01*
X12348607Y6009427D01*
X12382673Y6004464D01*
X12416739Y5999500D01*
X12416740Y5999500D01*
X13733261Y5999500D01*
X13755971Y6002809D01*
X13801393Y6009427D01*
X13906483Y6060802D01*
X13989198Y6143517D01*
X13989200Y6143523D01*
X13992077Y6147550D01*
X14047051Y6190674D01*
X14092997Y6199500D01*
X14712356Y6199500D01*
X14779395Y6179815D01*
X14825150Y6127011D01*
X14835094Y6057853D01*
X14806069Y5994297D01*
X14753311Y5958459D01*
X14737119Y5952794D01*
X14737117Y5952793D01*
X14627850Y5872150D01*
X14547207Y5762883D01*
X14547206Y5762881D01*
X14502353Y5634702D01*
X14502353Y5634700D01*
X14499500Y5604270D01*
X14499500Y4795731D01*
X14502353Y4765301D01*
X14502353Y4765299D01*
X14547206Y4637120D01*
X14547207Y4637118D01*
X14627850Y4527850D01*
X14737118Y4447207D01*
X14779845Y4432256D01*
X14865299Y4402354D01*
X14895730Y4399500D01*
X14895734Y4399500D01*
X16304270Y4399500D01*
X16334699Y4402354D01*
X16334701Y4402354D01*
X16398790Y4424781D01*
X16462882Y4447207D01*
X16572150Y4527850D01*
X16652793Y4637118D01*
X16691315Y4747207D01*
X16697646Y4765299D01*
X16697646Y4765301D01*
X16700500Y4795731D01*
X16700500Y5604270D01*
X19899500Y5604270D01*
X19899500Y4795731D01*
X19902353Y4765301D01*
X19902353Y4765299D01*
X19947206Y4637120D01*
X19947207Y4637118D01*
X20027850Y4527850D01*
X20137118Y4447207D01*
X20179845Y4432256D01*
X20265299Y4402354D01*
X20295730Y4399500D01*
X20295734Y4399500D01*
X21704270Y4399500D01*
X21734699Y4402354D01*
X21734701Y4402354D01*
X21798790Y4424781D01*
X21862882Y4447207D01*
X21972150Y4527850D01*
X22052793Y4637118D01*
X22091315Y4747207D01*
X22097646Y4765299D01*
X22097646Y4765301D01*
X22100500Y4795731D01*
X22100500Y5604270D01*
X22097646Y5634700D01*
X22097646Y5634702D01*
X22052793Y5762881D01*
X22052792Y5762883D01*
X21972150Y5872150D01*
X21862882Y5952793D01*
X21862880Y5952794D01*
X21734700Y5997647D01*
X21704270Y6000500D01*
X21704266Y6000500D01*
X20295734Y6000500D01*
X20295730Y6000500D01*
X20265300Y5997647D01*
X20265298Y5997647D01*
X20137119Y5952794D01*
X20137117Y5952793D01*
X20027850Y5872150D01*
X19947207Y5762883D01*
X19947206Y5762881D01*
X19902353Y5634702D01*
X19902353Y5634700D01*
X19899500Y5604270D01*
X16700500Y5604270D01*
X16697646Y5634700D01*
X16697646Y5634702D01*
X16652793Y5762881D01*
X16652792Y5762883D01*
X16572150Y5872150D01*
X16462882Y5952793D01*
X16462880Y5952794D01*
X16446689Y5958459D01*
X16389913Y5999180D01*
X16364166Y6064133D01*
X16377622Y6132695D01*
X16426010Y6183097D01*
X16487644Y6199500D01*
X16641499Y6199500D01*
X16708538Y6179815D01*
X16735211Y6156704D01*
X16768872Y6117857D01*
X16889947Y6040047D01*
X16889950Y6040046D01*
X16889949Y6040046D01*
X16994230Y6009427D01*
X17024633Y6000500D01*
X17028036Y5999501D01*
X17028038Y5999500D01*
X17028039Y5999500D01*
X17171962Y5999500D01*
X17171962Y5999501D01*
X17310053Y6040047D01*
X17431128Y6117857D01*
X17431128Y6117858D01*
X17438589Y6122652D01*
X17440100Y6120300D01*
X17490630Y6143388D01*
X17559790Y6133459D01*
X17595983Y6108335D01*
X17643514Y6060804D01*
X17643515Y6060804D01*
X17643517Y6060802D01*
X17748607Y6009427D01*
X17782673Y6004464D01*
X17816739Y5999500D01*
X17816740Y5999500D01*
X19133261Y5999500D01*
X19155971Y6002809D01*
X19201393Y6009427D01*
X19306483Y6060802D01*
X19389198Y6143517D01*
X19440573Y6248607D01*
X19450500Y6316740D01*
X19450500Y6683260D01*
X19440573Y6751393D01*
X19389198Y6856483D01*
X19389196Y6856485D01*
X19389196Y6856486D01*
X19333363Y6912319D01*
X19299878Y6973642D01*
X19304862Y7043334D01*
X19333363Y7087681D01*
X19389196Y7143515D01*
X19389198Y7143517D01*
X19440573Y7248607D01*
X19450500Y7316740D01*
X19450500Y7683260D01*
X19440573Y7751393D01*
X19389198Y7856483D01*
X19389196Y7856485D01*
X19389196Y7856486D01*
X19306485Y7939197D01*
X19303901Y7940460D01*
X19201393Y7990573D01*
X19201391Y7990574D01*
X19133261Y8000500D01*
X19133260Y8000500D01*
X17816740Y8000500D01*
X17816739Y8000500D01*
X17748608Y7990574D01*
X17643514Y7939197D01*
X17560805Y7856488D01*
X17557923Y7852450D01*
X17502949Y7809326D01*
X17457003Y7800500D01*
X16487644Y7800500D01*
X16420605Y7820185D01*
X16374850Y7872989D01*
X16364906Y7942147D01*
X16393931Y8005703D01*
X16446689Y8041541D01*
X16462882Y8047207D01*
X16572150Y8127850D01*
X16652793Y8237118D01*
X16675219Y8301210D01*
X16697646Y8365299D01*
X16697646Y8365301D01*
X16700500Y8395731D01*
X16700500Y9204270D01*
X19899500Y9204270D01*
X19899500Y8395731D01*
X19902353Y8365301D01*
X19902353Y8365299D01*
X19947206Y8237120D01*
X19947207Y8237118D01*
X20027850Y8127850D01*
X20137118Y8047207D01*
X20179845Y8032256D01*
X20265299Y8002354D01*
X20295730Y7999500D01*
X20295734Y7999500D01*
X21704270Y7999500D01*
X21734699Y8002354D01*
X21734701Y8002354D01*
X21799418Y8025000D01*
X21862882Y8047207D01*
X21972150Y8127850D01*
X22052793Y8237118D01*
X22075219Y8301210D01*
X22097646Y8365299D01*
X22097646Y8365301D01*
X22100500Y8395731D01*
X22100500Y9204270D01*
X22097646Y9234700D01*
X22097646Y9234702D01*
X22056754Y9351562D01*
X22052793Y9362882D01*
X21972150Y9472150D01*
X21862882Y9552793D01*
X21862880Y9552794D01*
X21734700Y9597647D01*
X21704270Y9600500D01*
X21704266Y9600500D01*
X20295734Y9600500D01*
X20295730Y9600500D01*
X20265300Y9597647D01*
X20265298Y9597647D01*
X20137119Y9552794D01*
X20137117Y9552793D01*
X20027850Y9472150D01*
X19947207Y9362883D01*
X19947206Y9362881D01*
X19902353Y9234702D01*
X19902353Y9234700D01*
X19899500Y9204270D01*
X16700500Y9204270D01*
X16697646Y9234700D01*
X16697646Y9234702D01*
X16656754Y9351562D01*
X16652793Y9362882D01*
X16572150Y9472150D01*
X16462882Y9552793D01*
X16462880Y9552794D01*
X16334700Y9597647D01*
X16304270Y9600500D01*
X16304266Y9600500D01*
X14895734Y9600500D01*
X14895730Y9600500D01*
X14865300Y9597647D01*
X14865298Y9597647D01*
X14737119Y9552794D01*
X14737117Y9552793D01*
X14627850Y9472150D01*
X14547207Y9362883D01*
X14547206Y9362881D01*
X14502353Y9234702D01*
X14502353Y9234700D01*
X14499500Y9204270D01*
X14499500Y8910799D01*
X14479815Y8843760D01*
X14427011Y8798005D01*
X14357853Y8788061D01*
X14294297Y8817086D01*
X14287819Y8823118D01*
X10198118Y12912819D01*
X10164633Y12974142D01*
X10169617Y13043834D01*
X10211489Y13099767D01*
X10276953Y13124184D01*
X10285799Y13124500D01*
X10764560Y13124500D01*
X10764562Y13124500D01*
X10840989Y13144979D01*
X10909511Y13184540D01*
X10938152Y13213181D01*
X10999475Y13246666D01*
X11025833Y13249500D01*
X11121962Y13249500D01*
X11121962Y13249501D01*
X11260053Y13290047D01*
X11381128Y13367857D01*
X11475377Y13476627D01*
X11535165Y13607543D01*
X11555647Y13750000D01*
X11535165Y13892457D01*
X11475377Y14023373D01*
X11381128Y14132143D01*
X11260053Y14209953D01*
X11260051Y14209954D01*
X11260049Y14209955D01*
X11260050Y14209955D01*
X11121963Y14250500D01*
X11121961Y14250500D01*
X11085799Y14250500D01*
X11018760Y14270185D01*
X10973005Y14322989D01*
X10963061Y14392147D01*
X10992086Y14455703D01*
X10998118Y14462181D01*
X12187819Y15651882D01*
X12249142Y15685367D01*
X12318834Y15680383D01*
X12374767Y15638511D01*
X12399184Y15573047D01*
X12399500Y15564201D01*
X12399500Y14670731D01*
X12402353Y14640301D01*
X12402353Y14640299D01*
X12447206Y14512120D01*
X12447207Y14512118D01*
X12527850Y14402850D01*
X12637118Y14322207D01*
X12679845Y14307256D01*
X12765299Y14277354D01*
X12795730Y14274500D01*
X12795734Y14274500D01*
X13604270Y14274500D01*
X13634699Y14277354D01*
X13634701Y14277354D01*
X13698790Y14299781D01*
X13762882Y14322207D01*
X13872150Y14402850D01*
X13952793Y14512118D01*
X13958459Y14528312D01*
X13999180Y14585087D01*
X14064133Y14610834D01*
X14132695Y14597378D01*
X14183097Y14548990D01*
X14199500Y14487356D01*
X14199500Y13867998D01*
X14179815Y13800959D01*
X14147555Y13767082D01*
X14143516Y13764199D01*
X14060803Y13681486D01*
X14009426Y13576392D01*
X13999500Y13508261D01*
X13999500Y12191740D01*
X14009426Y12123609D01*
X14060803Y12018515D01*
X14143514Y11935804D01*
X14143515Y11935804D01*
X14143517Y11935802D01*
X14248607Y11884427D01*
X14282673Y11879464D01*
X14316739Y11874500D01*
X14316740Y11874500D01*
X14683261Y11874500D01*
X14705971Y11877809D01*
X14751393Y11884427D01*
X14856483Y11935802D01*
X14883760Y11963079D01*
X14912319Y11991637D01*
X14973642Y12025122D01*
X15043334Y12020138D01*
X15087681Y11991637D01*
X15143514Y11935804D01*
X15143515Y11935804D01*
X15143517Y11935802D01*
X15248607Y11884427D01*
X15282673Y11879464D01*
X15316739Y11874500D01*
X15316740Y11874500D01*
X15683261Y11874500D01*
X15705971Y11877809D01*
X15751393Y11884427D01*
X15856483Y11935802D01*
X15883760Y11963079D01*
X15912319Y11991637D01*
X15973642Y12025122D01*
X16043334Y12020138D01*
X16087681Y11991637D01*
X16143514Y11935804D01*
X16143515Y11935804D01*
X16143517Y11935802D01*
X16248607Y11884427D01*
X16282673Y11879464D01*
X16316739Y11874500D01*
X16316740Y11874500D01*
X16683261Y11874500D01*
X16705971Y11877809D01*
X16751393Y11884427D01*
X16856483Y11935802D01*
X16883760Y11963079D01*
X16912319Y11991637D01*
X16973642Y12025122D01*
X17043334Y12020138D01*
X17087681Y11991637D01*
X17143514Y11935804D01*
X17143515Y11935804D01*
X17143517Y11935802D01*
X17248607Y11884427D01*
X17282673Y11879464D01*
X17316739Y11874500D01*
X17316740Y11874500D01*
X17683261Y11874500D01*
X17705971Y11877809D01*
X17751393Y11884427D01*
X17856483Y11935802D01*
X17883760Y11963079D01*
X17912319Y11991637D01*
X17973642Y12025122D01*
X18043334Y12020138D01*
X18087681Y11991637D01*
X18143514Y11935804D01*
X18143515Y11935804D01*
X18143517Y11935802D01*
X18248607Y11884427D01*
X18282673Y11879464D01*
X18316739Y11874500D01*
X18316740Y11874500D01*
X18683259Y11874500D01*
X18683260Y11874500D01*
X18710410Y11878456D01*
X18779586Y11868644D01*
X18826100Y11828493D01*
X18827537Y11829607D01*
X18832321Y11823439D01*
X18948438Y11707322D01*
X18948447Y11707315D01*
X19089801Y11623719D01*
X19247514Y11577900D01*
X19247511Y11577900D01*
X19249998Y11577705D01*
X19250000Y11577705D01*
X19750000Y11577705D01*
X19750001Y11577705D01*
X19752486Y11577900D01*
X19910198Y11623719D01*
X20051552Y11707315D01*
X20051561Y11707322D01*
X20167678Y11823439D01*
X20167685Y11823448D01*
X20251282Y11964804D01*
X20251283Y11964807D01*
X20297099Y12122505D01*
X20297100Y12122511D01*
X20299999Y12159351D01*
X20300000Y12159366D01*
X20300000Y12600000D01*
X19750000Y12600000D01*
X19750000Y11577705D01*
X19250000Y11577705D01*
X19250000Y13100000D01*
X19750000Y13100000D01*
X20300000Y13100000D01*
X20300000Y13540635D01*
X20299999Y13540650D01*
X20297100Y13577490D01*
X20297099Y13577496D01*
X20251283Y13735194D01*
X20251282Y13735197D01*
X20167685Y13876553D01*
X20167678Y13876562D01*
X20051561Y13992679D01*
X20051552Y13992686D01*
X19910196Y14076283D01*
X19910193Y14076284D01*
X19752494Y14122100D01*
X19752497Y14122100D01*
X19750000Y14122297D01*
X19750000Y13100000D01*
X19250000Y13100000D01*
X19250000Y14122297D01*
X19247507Y14122100D01*
X19133473Y14088970D01*
X19063604Y14089170D01*
X19004934Y14127113D01*
X18976091Y14190751D01*
X18984481Y14248504D01*
X18982667Y14249036D01*
X18985165Y14257543D01*
X18994462Y14322208D01*
X19005647Y14400000D01*
X18985165Y14542457D01*
X18925377Y14673373D01*
X18831128Y14782143D01*
X18710053Y14859953D01*
X18710051Y14859954D01*
X18710049Y14859955D01*
X18710050Y14859955D01*
X18571963Y14900500D01*
X18571961Y14900500D01*
X18428039Y14900500D01*
X18428036Y14900500D01*
X18289949Y14859955D01*
X18168873Y14782144D01*
X18168872Y14782144D01*
X18168872Y14782143D01*
X18164883Y14777539D01*
X18074623Y14673374D01*
X18074622Y14673372D01*
X18014834Y14542457D01*
X18003869Y14466189D01*
X17974844Y14402633D01*
X17916066Y14364859D01*
X17846196Y14364859D01*
X17787418Y14402634D01*
X17773745Y14421834D01*
X17740460Y14479486D01*
X17684511Y14535435D01*
X16140676Y16079270D01*
X19999500Y16079270D01*
X19999500Y14670731D01*
X20002353Y14640301D01*
X20002353Y14640299D01*
X20047206Y14512120D01*
X20047207Y14512118D01*
X20127850Y14402850D01*
X20237118Y14322207D01*
X20279845Y14307256D01*
X20365299Y14277354D01*
X20395730Y14274500D01*
X20395734Y14274500D01*
X21204270Y14274500D01*
X21234699Y14277354D01*
X21234701Y14277354D01*
X21298790Y14299781D01*
X21362882Y14322207D01*
X21472150Y14402850D01*
X21552793Y14512118D01*
X21587335Y14610834D01*
X21597646Y14640299D01*
X21597646Y14640301D01*
X21600500Y14670731D01*
X21600500Y16079270D01*
X21597646Y16109700D01*
X21597646Y16109702D01*
X21564006Y16205837D01*
X21552793Y16237882D01*
X21472150Y16347150D01*
X21362882Y16427793D01*
X21362880Y16427794D01*
X21234700Y16472647D01*
X21204270Y16475500D01*
X21204266Y16475500D01*
X20395734Y16475500D01*
X20395730Y16475500D01*
X20365300Y16472647D01*
X20365298Y16472647D01*
X20237119Y16427794D01*
X20237117Y16427793D01*
X20127850Y16347150D01*
X20047207Y16237883D01*
X20047206Y16237881D01*
X20002353Y16109702D01*
X20002353Y16109700D01*
X19999500Y16079270D01*
X16140676Y16079270D01*
X14404486Y17815460D01*
X14404485Y17815461D01*
X14390422Y17823580D01*
X14376359Y17831699D01*
X14343175Y17850858D01*
X14335965Y17855021D01*
X14296946Y17865476D01*
X14259537Y17875500D01*
X12161480Y17875500D01*
X12153352Y17875500D01*
X12153352Y17877916D01*
X12096428Y17886803D01*
X12044181Y17933192D01*
X12025307Y18000464D01*
X12045800Y18067261D01*
X12061610Y18086641D01*
X12790460Y18815489D01*
X12817992Y18863176D01*
X12830021Y18884011D01*
X12850500Y18960438D01*
X12850500Y21075500D01*
X12870185Y21142539D01*
X12922989Y21188294D01*
X12974500Y21199500D01*
X13219750Y21199500D01*
X13219751Y21199501D01*
X13234568Y21202448D01*
X13278229Y21211132D01*
X13278229Y21211133D01*
X13278231Y21211133D01*
X13344552Y21255448D01*
X13388867Y21321769D01*
X13388867Y21321771D01*
X13388868Y21321771D01*
X13400499Y21380248D01*
X13400500Y21380250D01*
X13400500Y23100000D01*
X19094353Y23100000D01*
X19114834Y22957544D01*
X19169837Y22837107D01*
X19174623Y22826627D01*
X19268872Y22717857D01*
X19389947Y22640047D01*
X19389950Y22640046D01*
X19389949Y22640046D01*
X19528036Y22599501D01*
X19528038Y22599500D01*
X19528039Y22599500D01*
X19671962Y22599500D01*
X19671962Y22599501D01*
X19810053Y22640047D01*
X19931128Y22717857D01*
X19964788Y22756704D01*
X20023567Y22794477D01*
X20058501Y22799500D01*
X20275500Y22799500D01*
X20342539Y22779815D01*
X20388294Y22727011D01*
X20399500Y22675500D01*
X20399500Y21380248D01*
X20411131Y21321771D01*
X20411132Y21321770D01*
X20455447Y21255448D01*
X20521769Y21211133D01*
X20521770Y21211132D01*
X20580247Y21199501D01*
X20580250Y21199500D01*
X20580252Y21199500D01*
X21919750Y21199500D01*
X21919751Y21199501D01*
X21934568Y21202448D01*
X21978229Y21211132D01*
X21978229Y21211133D01*
X21978231Y21211133D01*
X22044552Y21255448D01*
X22088867Y21321769D01*
X22088867Y21321771D01*
X22088868Y21321771D01*
X22100499Y21380248D01*
X22100500Y21380250D01*
X22100500Y24819751D01*
X22100499Y24819753D01*
X22088868Y24878230D01*
X22088867Y24878231D01*
X22044552Y24944553D01*
X21978230Y24988868D01*
X21978229Y24988869D01*
X21919752Y25000500D01*
X21919748Y25000500D01*
X20580252Y25000500D01*
X20580247Y25000500D01*
X20521770Y24988869D01*
X20521769Y24988868D01*
X20455447Y24944553D01*
X20411132Y24878231D01*
X20411131Y24878230D01*
X20399500Y24819753D01*
X20399500Y23524500D01*
X20379815Y23457461D01*
X20327011Y23411706D01*
X20275500Y23400500D01*
X20058501Y23400500D01*
X19991462Y23420185D01*
X19964788Y23443297D01*
X19952515Y23457461D01*
X19931128Y23482143D01*
X19810053Y23559953D01*
X19810051Y23559954D01*
X19810049Y23559955D01*
X19810050Y23559955D01*
X19671963Y23600500D01*
X19671961Y23600500D01*
X19528039Y23600500D01*
X19528036Y23600500D01*
X19389949Y23559955D01*
X19268873Y23482144D01*
X19174623Y23373374D01*
X19174622Y23373372D01*
X19114834Y23242457D01*
X19094353Y23100000D01*
X13400500Y23100000D01*
X13400500Y24819751D01*
X13400499Y24819753D01*
X13388868Y24878230D01*
X13388867Y24878231D01*
X13344552Y24944553D01*
X13278230Y24988868D01*
X13278229Y24988869D01*
X13219752Y25000500D01*
X13219748Y25000500D01*
X11880252Y25000500D01*
X11880247Y25000500D01*
X11821770Y24988869D01*
X11821769Y24988868D01*
X11755447Y24944553D01*
X11711132Y24878231D01*
X11711131Y24878230D01*
X11699500Y24819753D01*
X11699500Y21380248D01*
X11711131Y21321771D01*
X11711132Y21321770D01*
X11755447Y21255448D01*
X11821769Y21211133D01*
X11821770Y21211132D01*
X11880247Y21199501D01*
X11880250Y21199500D01*
X11880252Y21199500D01*
X12125500Y21199500D01*
X12192539Y21179815D01*
X12238294Y21127011D01*
X12249500Y21075500D01*
X12249500Y19175834D01*
X12229815Y19108795D01*
X12213181Y19088153D01*
X11161847Y18036819D01*
X11100524Y18003334D01*
X11074166Y18000500D01*
X10978036Y18000500D01*
X10839949Y17959955D01*
X10718873Y17882144D01*
X10624623Y17773374D01*
X10624622Y17773372D01*
X10564834Y17642457D01*
X10544353Y17500000D01*
X10564834Y17357544D01*
X10613189Y17251664D01*
X10624623Y17226627D01*
X10718872Y17117857D01*
X10839947Y17040047D01*
X10949537Y17007869D01*
X11008312Y16970097D01*
X11037338Y16906541D01*
X11027395Y16837383D01*
X11002281Y16801212D01*
X9962891Y15761819D01*
X9901568Y15728334D01*
X9875210Y15725500D01*
X1525323Y15725500D01*
X1452264Y15710968D01*
X1452260Y15710967D01*
X1369399Y15655601D01*
X1314033Y15572740D01*
X1314032Y15572736D01*
X1299500Y15499679D01*
X1299500Y15499674D01*
X1299500Y15350326D01*
X1299500Y15350324D01*
X1299499Y15350324D01*
X1314033Y15277260D01*
X1316025Y15272452D01*
X1323494Y15202983D01*
X1316025Y15177548D01*
X1314033Y15172741D01*
X1299500Y15099677D01*
X1299500Y15099674D01*
X1299500Y14950326D01*
X1299500Y14950324D01*
X1299499Y14950324D01*
X1314033Y14877260D01*
X1316025Y14872452D01*
X1323494Y14802983D01*
X1316025Y14777548D01*
X1314033Y14772741D01*
X1299500Y14699677D01*
X1299500Y14699674D01*
X1299500Y14550326D01*
X1299500Y14550324D01*
X1299499Y14550324D01*
X1314033Y14477260D01*
X1316025Y14472452D01*
X1323494Y14402983D01*
X1316025Y14377548D01*
X1314033Y14372741D01*
X1299500Y14299677D01*
X1299500Y14299674D01*
X1299500Y14150326D01*
X1299500Y14150324D01*
X1299499Y14150324D01*
X1314033Y14077260D01*
X1316025Y14072452D01*
X1323494Y14002983D01*
X1316025Y13977548D01*
X1314033Y13972741D01*
X1299500Y13899677D01*
X1299500Y13899674D01*
X1299500Y13750326D01*
X1299500Y13750324D01*
X1299499Y13750324D01*
X1314033Y13677260D01*
X1316025Y13672452D01*
X1323494Y13602983D01*
X1316025Y13577548D01*
X1314033Y13572741D01*
X1299500Y13499677D01*
X1299500Y13499674D01*
X1299500Y13350326D01*
X1299500Y13350324D01*
X1299499Y13350324D01*
X1314033Y13277260D01*
X1316025Y13272452D01*
X1323494Y13202983D01*
X1316025Y13177548D01*
X1314033Y13172741D01*
X1299500Y13099677D01*
X1299500Y13099674D01*
X1299500Y12950326D01*
X1299500Y12950324D01*
X1299499Y12950324D01*
X1314613Y12874347D01*
X1308386Y12804755D01*
X1267922Y12751352D01*
X1157437Y12667568D01*
X1066079Y12547096D01*
X1010613Y12406444D01*
X1000000Y12318054D01*
X1000000Y12131947D01*
X1010613Y12043557D01*
X1066079Y11902905D01*
X1157436Y11782434D01*
X1267921Y11698650D01*
X1309445Y11642457D01*
X1314613Y11575655D01*
X1299500Y11499679D01*
X1299500Y11499676D01*
X1299500Y11499674D01*
X1299500Y11350326D01*
X1299500Y11350324D01*
X1299499Y11350324D01*
X1314033Y11277260D01*
X1316025Y11272452D01*
X1323494Y11202983D01*
X1316025Y11177548D01*
X1314033Y11172741D01*
X1299500Y11099677D01*
X1299500Y11099674D01*
X1299500Y10950326D01*
X1299500Y10950324D01*
X1299499Y10950324D01*
X1314033Y10877260D01*
X1316025Y10872452D01*
X1323494Y10802983D01*
X1316025Y10777548D01*
X1314033Y10772741D01*
X1299500Y10699677D01*
X1299500Y10549500D01*
X1279815Y10482461D01*
X1227011Y10436706D01*
X1175500Y10425500D01*
X1025324Y10425500D01*
X952259Y10410967D01*
X947452Y10408975D01*
X877983Y10401506D01*
X852548Y10408975D01*
X847740Y10410967D01*
X774676Y10425500D01*
X774674Y10425500D01*
X625326Y10425500D01*
X625324Y10425500D01*
X552259Y10410967D01*
X547452Y10408975D01*
X477983Y10401506D01*
X452548Y10408975D01*
X447740Y10410967D01*
X374676Y10425500D01*
X374674Y10425500D01*
X225326Y10425500D01*
X225324Y10425500D01*
X152259Y10410967D01*
X147452Y10408975D01*
X77983Y10401506D01*
X52548Y10408975D01*
X47740Y10410967D01*
X-25324Y10425500D01*
X-25326Y10425500D01*
X-174674Y10425500D01*
X-174676Y10425500D01*
X-247741Y10410967D01*
X-252548Y10408975D01*
X-322017Y10401506D01*
X-347452Y10408975D01*
X-352260Y10410967D01*
X-425324Y10425500D01*
X-425326Y10425500D01*
X-574674Y10425500D01*
X-574677Y10425500D01*
X-650655Y10410387D01*
X-720246Y10416614D01*
X-773649Y10457078D01*
X-778767Y10463827D01*
X-803591Y10529138D01*
X-789163Y10597502D01*
X-740066Y10647214D01*
X-714900Y10657730D01*
X-689977Y10665047D01*
X-568902Y10742857D01*
X-474653Y10851627D01*
X-414865Y10982543D01*
X-394383Y11125000D01*
X-414865Y11267457D01*
X-416127Y11276235D01*
X-414309Y11276497D01*
X-414312Y11335428D01*
X-376542Y11394208D01*
X-312988Y11423238D01*
X-295333Y11424501D01*
X-3636Y11424501D01*
X10698Y11426389D01*
X46539Y11431106D01*
X156645Y11482449D01*
X242551Y11568355D01*
X293894Y11678461D01*
X300500Y11728637D01*
X300499Y14721362D01*
X293894Y14771539D01*
X242551Y14881645D01*
X156645Y14967551D01*
X156644Y14967552D01*
X46538Y15018895D01*
X-3628Y15025499D01*
X-3631Y15025500D01*
X-3637Y15025500D01*
X-3644Y15025500D01*
X-149517Y15025500D01*
X-216556Y15045185D01*
X-262311Y15097989D01*
X-272255Y15167147D01*
X-243230Y15230703D01*
X-237198Y15237181D01*
X123994Y15598373D01*
X540460Y16014839D01*
X580022Y16083362D01*
X600500Y16159788D01*
X600500Y16238912D01*
X600500Y16650000D01*
X2441210Y16650000D01*
X2442854Y16629090D01*
X2487968Y16473805D01*
X2570278Y16334626D01*
X2570285Y16334617D01*
X2684616Y16220286D01*
X2684625Y16220279D01*
X2823804Y16137969D01*
X2970000Y16095496D01*
X2970000Y16650000D01*
X2441210Y16650000D01*
X600500Y16650000D01*
X600500Y16702062D01*
X600500Y17074674D01*
X600500Y17150001D01*
X2441209Y17150001D01*
X2441210Y17150000D01*
X2970000Y17150000D01*
X2970000Y17750000D01*
X2441210Y17750000D01*
X2442854Y17729090D01*
X2487968Y17573805D01*
X2487970Y17573801D01*
X2523856Y17513120D01*
X2541039Y17445396D01*
X2523856Y17386880D01*
X2487970Y17326200D01*
X2487966Y17326191D01*
X2442855Y17170919D01*
X2442854Y17170913D01*
X2441209Y17150001D01*
X600500Y17150001D01*
X600500Y17249167D01*
X620185Y17316206D01*
X636819Y17336848D01*
X1740457Y18440486D01*
X1740460Y18440489D01*
X1745086Y18448502D01*
X1780021Y18509011D01*
X1780020Y18509011D01*
X1784086Y18516051D01*
X1785541Y18515211D01*
X1823302Y18562076D01*
X1889594Y18584147D01*
X1957152Y18566958D01*
X2073805Y18497969D01*
X2229090Y18452855D01*
X2265362Y18450001D01*
X2329729Y18450001D01*
X2396769Y18430317D01*
X2442525Y18377514D01*
X2452469Y18308356D01*
X2448809Y18291410D01*
X2442854Y18270913D01*
X2441209Y18250001D01*
X2441210Y18250000D01*
X3096000Y18250000D01*
X3163039Y18230315D01*
X3208794Y18177511D01*
X3220000Y18126000D01*
X3220000Y18000000D01*
X3346000Y18000000D01*
X3413039Y17980315D01*
X3458794Y17927511D01*
X3470000Y17876000D01*
X3470000Y16095497D01*
X3616195Y16137969D01*
X3755374Y16220279D01*
X3755383Y16220286D01*
X3869714Y16334617D01*
X3874499Y16340785D01*
X3876459Y16339265D01*
X3918583Y16378618D01*
X3987321Y16391142D01*
X3990443Y16390772D01*
X4000099Y16389500D01*
X4359900Y16389501D01*
X4409487Y16396028D01*
X4518316Y16446776D01*
X4603224Y16531684D01*
X4653972Y16640513D01*
X4660500Y16690099D01*
X4660499Y17109900D01*
X4653972Y17159487D01*
X4603224Y17268316D01*
X4518316Y17353224D01*
X4510645Y17360895D01*
X4513175Y17363426D01*
X4481537Y17403020D01*
X4474355Y17472520D01*
X4505887Y17534869D01*
X4510705Y17539043D01*
X4510644Y17539104D01*
X4518316Y17546776D01*
X4603224Y17631684D01*
X4653972Y17740513D01*
X4660500Y17790099D01*
X4660499Y18209900D01*
X4653972Y18259487D01*
X4603224Y18368316D01*
X4528954Y18442586D01*
X4495469Y18503909D01*
X4500453Y18573601D01*
X4522918Y18611465D01*
X4605377Y18706627D01*
X4665165Y18837543D01*
X4685647Y18980000D01*
X4665165Y19122457D01*
X4605377Y19253373D01*
X4511128Y19362143D01*
X4390053Y19439953D01*
X4390051Y19439954D01*
X4390049Y19439955D01*
X4390050Y19439955D01*
X4251963Y19480500D01*
X4251961Y19480500D01*
X4108039Y19480500D01*
X4108036Y19480500D01*
X3969949Y19439955D01*
X3848873Y19362144D01*
X3754623Y19253374D01*
X3754622Y19253372D01*
X3694834Y19122457D01*
X3674353Y18980000D01*
X3682220Y18925283D01*
X3672276Y18856124D01*
X3626521Y18803320D01*
X3559482Y18783636D01*
X3524888Y18788559D01*
X3460914Y18807145D01*
X3460907Y18807146D01*
X3424644Y18810000D01*
X3420268Y18810000D01*
X3353229Y18829685D01*
X3307474Y18882489D01*
X3297530Y18951647D01*
X3301191Y18968594D01*
X3304505Y18980000D01*
X2624000Y18980000D01*
X2556961Y18999685D01*
X2511206Y19052489D01*
X2500000Y19104000D01*
X2500000Y19356000D01*
X2519685Y19423039D01*
X2572489Y19468794D01*
X2624000Y19480000D01*
X3304504Y19480000D01*
X3262031Y19626196D01*
X3179721Y19765375D01*
X3179714Y19765384D01*
X3065381Y19879717D01*
X3059217Y19884498D01*
X3060733Y19886453D01*
X3021363Y19928622D01*
X3008862Y19997365D01*
X3009226Y20000424D01*
X3010500Y20010099D01*
X3010499Y20369900D01*
X3003972Y20419487D01*
X2953224Y20528316D01*
X2868316Y20613224D01*
X2868315Y20613225D01*
X2863953Y20615259D01*
X2811516Y20661433D01*
X2792366Y20728627D01*
X2812584Y20795508D01*
X2825852Y20810694D01*
X2825320Y20811155D01*
X2831126Y20817856D01*
X2831128Y20817857D01*
X2925377Y20926627D01*
X2985165Y21057543D01*
X3005647Y21200000D01*
X2985165Y21342457D01*
X2925377Y21473373D01*
X2831128Y21582143D01*
X2710053Y21659953D01*
X2710051Y21659954D01*
X2710049Y21659955D01*
X2710050Y21659955D01*
X2571963Y21700500D01*
X2571961Y21700500D01*
X2428039Y21700500D01*
X2428036Y21700500D01*
X2289949Y21659955D01*
X2168873Y21582144D01*
X2074623Y21473374D01*
X2074622Y21473372D01*
X2014834Y21342457D01*
X1994353Y21200000D01*
X2014834Y21057544D01*
X2034126Y21015301D01*
X2074623Y20926627D01*
X2168872Y20817857D01*
X2168873Y20817857D01*
X2174680Y20811155D01*
X2172566Y20809324D01*
X2202610Y20762588D01*
X2202618Y20692719D01*
X2164851Y20633936D01*
X2136049Y20615260D01*
X2131684Y20613225D01*
X2087681Y20569221D01*
X2026358Y20535736D01*
X1956666Y20540720D01*
X1912319Y20569221D01*
X1868316Y20613224D01*
X1847461Y20622949D01*
X1759487Y20663972D01*
X1759485Y20663973D01*
X1759486Y20663973D01*
X1709901Y20670500D01*
X1290103Y20670500D01*
X1248479Y20665021D01*
X1240680Y20663995D01*
X1171646Y20674762D01*
X1119392Y20721144D01*
X1100500Y20786934D01*
X1100500Y25323314D01*
X1120185Y25390353D01*
X1172989Y25436108D01*
X1236653Y25446717D01*
X1260000Y25444417D01*
X1465934Y25464700D01*
X1663954Y25524768D01*
X1846450Y25622315D01*
X2006410Y25753590D01*
X2137685Y25913550D01*
X2235232Y26096046D01*
X2295300Y26294066D01*
X2315583Y26500000D01*
X2295300Y26705934D01*
X2235232Y26903954D01*
X2137685Y27086450D01*
X2085702Y27149791D01*
X2006410Y27246411D01*
X1879575Y27350500D01*
X1856115Y27369753D01*
X2749500Y27369753D01*
X2749500Y25630248D01*
X2761131Y25571771D01*
X2761132Y25571770D01*
X2805447Y25505448D01*
X2871769Y25461133D01*
X2871770Y25461132D01*
X2930247Y25449501D01*
X2930250Y25449500D01*
X2930252Y25449500D01*
X4669750Y25449500D01*
X4669751Y25449501D01*
X4684568Y25452448D01*
X4728229Y25461132D01*
X4728229Y25461133D01*
X4728231Y25461133D01*
X4794552Y25505448D01*
X4838867Y25571769D01*
X4838867Y25571771D01*
X4838868Y25571771D01*
X4850499Y25630248D01*
X4850500Y25630250D01*
X4850500Y26075500D01*
X4870185Y26142539D01*
X4922989Y26188294D01*
X4974500Y26199500D01*
X5274168Y26199500D01*
X5341207Y26179815D01*
X5361849Y26163181D01*
X6580103Y24944927D01*
X6603359Y24906360D01*
X6605198Y24907258D01*
X6660803Y24793515D01*
X6743514Y24710804D01*
X6743515Y24710804D01*
X6743517Y24710802D01*
X6848607Y24659427D01*
X6882673Y24654464D01*
X6916739Y24649500D01*
X6916740Y24649500D01*
X7075500Y24649500D01*
X7142539Y24629815D01*
X7188294Y24577011D01*
X7199500Y24525500D01*
X7199500Y24074500D01*
X7179815Y24007461D01*
X7127011Y23961706D01*
X7075500Y23950500D01*
X6970730Y23950500D01*
X6940300Y23947647D01*
X6940298Y23947647D01*
X6812119Y23902794D01*
X6812117Y23902793D01*
X6702850Y23822150D01*
X6622207Y23712883D01*
X6622206Y23712881D01*
X6577353Y23584702D01*
X6577353Y23584700D01*
X6574500Y23554270D01*
X6574500Y22945731D01*
X6577353Y22915301D01*
X6577353Y22915299D01*
X6622206Y22787120D01*
X6622207Y22787118D01*
X6702850Y22677850D01*
X6812118Y22597207D01*
X6854845Y22582256D01*
X6940299Y22552354D01*
X6970730Y22549500D01*
X6970734Y22549500D01*
X8029270Y22549500D01*
X8059699Y22552354D01*
X8059701Y22552354D01*
X8127616Y22576119D01*
X8187882Y22597207D01*
X8297150Y22677850D01*
X8377793Y22787118D01*
X8377796Y22787129D01*
X8381835Y22794769D01*
X8430562Y22844845D01*
X8498625Y22860627D01*
X8564417Y22837107D01*
X8607048Y22781750D01*
X8609175Y22775839D01*
X8640642Y22680879D01*
X8640643Y22680876D01*
X8732684Y22531655D01*
X8856654Y22407685D01*
X9005875Y22315644D01*
X9005882Y22315641D01*
X9174081Y22259906D01*
X9231526Y22220134D01*
X9258350Y22155618D01*
X9246035Y22086842D01*
X9198493Y22035642D01*
X9176035Y22025159D01*
X9134422Y22010598D01*
X9112118Y22002793D01*
X9112117Y22002793D01*
X9112116Y22002792D01*
X9002850Y21922150D01*
X8922207Y21812883D01*
X8885697Y21708544D01*
X8844975Y21651769D01*
X8780022Y21626022D01*
X8768656Y21625500D01*
X8531344Y21625500D01*
X8464305Y21645185D01*
X8418550Y21697989D01*
X8414303Y21708544D01*
X8377793Y21812881D01*
X8377793Y21812882D01*
X8297150Y21922150D01*
X8187882Y22002793D01*
X8187880Y22002794D01*
X8059700Y22047647D01*
X8029270Y22050500D01*
X8029266Y22050500D01*
X6970734Y22050500D01*
X6970730Y22050500D01*
X6940300Y22047647D01*
X6940298Y22047647D01*
X6812119Y22002794D01*
X6812117Y22002793D01*
X6702850Y21922150D01*
X6622207Y21812883D01*
X6622206Y21812881D01*
X6577353Y21684702D01*
X6577353Y21684700D01*
X6574500Y21654270D01*
X6574500Y21045731D01*
X6577353Y21015301D01*
X6577353Y21015299D01*
X6622206Y20887120D01*
X6622207Y20887118D01*
X6702850Y20777850D01*
X6812118Y20697207D01*
X6840454Y20687292D01*
X6940299Y20652354D01*
X6970730Y20649500D01*
X6970734Y20649500D01*
X8029270Y20649500D01*
X8053612Y20651784D01*
X8059699Y20652354D01*
X8159546Y20687293D01*
X8229323Y20690855D01*
X8289951Y20656126D01*
X8322178Y20594133D01*
X8324500Y20570251D01*
X8324500Y20385603D01*
X8304815Y20318564D01*
X8274941Y20288687D01*
X8275577Y20287953D01*
X8268874Y20282145D01*
X8174623Y20173374D01*
X8174622Y20173372D01*
X8114834Y20042457D01*
X8094353Y19900000D01*
X8114834Y19757544D01*
X8143867Y19693972D01*
X8174623Y19626627D01*
X8268872Y19517857D01*
X8389947Y19440047D01*
X8389950Y19440046D01*
X8389949Y19440046D01*
X8528036Y19399501D01*
X8528038Y19399500D01*
X8528039Y19399500D01*
X8671962Y19399500D01*
X8671962Y19399501D01*
X8798889Y19436769D01*
X8810050Y19440046D01*
X8810050Y19440047D01*
X8810053Y19440047D01*
X8931128Y19517857D01*
X9025377Y19626627D01*
X9085165Y19757543D01*
X9105647Y19900000D01*
X9085165Y20042457D01*
X9025377Y20173373D01*
X8931128Y20282143D01*
X8931125Y20282145D01*
X8924423Y20287953D01*
X8925552Y20289257D01*
X8886701Y20334102D01*
X8875500Y20385603D01*
X8875500Y20626209D01*
X8895185Y20693248D01*
X8947989Y20739003D01*
X9017147Y20748947D01*
X9073131Y20725980D01*
X9112118Y20697207D01*
X9140454Y20687292D01*
X9240299Y20652354D01*
X9270730Y20649500D01*
X9270734Y20649500D01*
X10329270Y20649500D01*
X10359699Y20652354D01*
X10359701Y20652354D01*
X10426338Y20675672D01*
X10487882Y20697207D01*
X10597150Y20777850D01*
X10677793Y20887118D01*
X10708486Y20974834D01*
X10722646Y21015299D01*
X10722646Y21015301D01*
X10725500Y21045731D01*
X10725500Y21654270D01*
X10722646Y21684700D01*
X10722646Y21684702D01*
X10677793Y21812881D01*
X10677792Y21812883D01*
X10597150Y21922150D01*
X10487882Y22002793D01*
X10487880Y22002794D01*
X10423967Y22025158D01*
X10367191Y22065880D01*
X10341444Y22130832D01*
X10354901Y22199394D01*
X10403288Y22249797D01*
X10425918Y22259905D01*
X10594119Y22315642D01*
X10594124Y22315644D01*
X10743345Y22407685D01*
X10867315Y22531655D01*
X10959356Y22680876D01*
X10959358Y22680881D01*
X11014505Y22847303D01*
X11014506Y22847310D01*
X11024999Y22950014D01*
X11025000Y22950027D01*
X11025000Y23000000D01*
X9924000Y23000000D01*
X9856961Y23019685D01*
X9811206Y23072489D01*
X9800000Y23124000D01*
X9800000Y23250000D01*
X9674000Y23250000D01*
X9606961Y23269685D01*
X9561206Y23322489D01*
X9550000Y23374000D01*
X9550000Y23500000D01*
X10050000Y23500000D01*
X11024999Y23500000D01*
X11024999Y23549972D01*
X11024998Y23549987D01*
X11014505Y23652698D01*
X10959358Y23819120D01*
X10959356Y23819125D01*
X10867315Y23968346D01*
X10743345Y24092316D01*
X10594124Y24184357D01*
X10594119Y24184359D01*
X10427697Y24239506D01*
X10427690Y24239507D01*
X10324986Y24250000D01*
X10050000Y24250000D01*
X10050000Y23500000D01*
X9550000Y23500000D01*
X9550000Y24250000D01*
X9275029Y24250000D01*
X9275012Y24249999D01*
X9172302Y24239506D01*
X9005880Y24184359D01*
X9005875Y24184357D01*
X8856654Y24092316D01*
X8732684Y23968346D01*
X8640643Y23819125D01*
X8640642Y23819122D01*
X8609175Y23724161D01*
X8569402Y23666717D01*
X8504886Y23639894D01*
X8436110Y23652209D01*
X8384910Y23699753D01*
X8381835Y23705231D01*
X8377795Y23712875D01*
X8377793Y23712882D01*
X8297150Y23822150D01*
X8187882Y23902793D01*
X8187880Y23902794D01*
X8059700Y23947647D01*
X8029270Y23950500D01*
X8029266Y23950500D01*
X7924500Y23950500D01*
X7857461Y23970185D01*
X7811706Y24022989D01*
X7800500Y24074500D01*
X7800500Y24525500D01*
X7820185Y24592539D01*
X7872989Y24638294D01*
X7924500Y24649500D01*
X8008261Y24649500D01*
X8030971Y24652809D01*
X8076393Y24659427D01*
X8181483Y24710802D01*
X8264198Y24793517D01*
X8315573Y24898607D01*
X8325500Y24966740D01*
X8325500Y25333260D01*
X8315573Y25401393D01*
X8264198Y25506483D01*
X8264197Y25506484D01*
X8260497Y25514053D01*
X8248737Y25582927D01*
X8276081Y25647224D01*
X8333845Y25686531D01*
X8403690Y25688369D01*
X8438936Y25672829D01*
X8489944Y25640048D01*
X8489949Y25640046D01*
X8628036Y25599501D01*
X8628038Y25599500D01*
X8780830Y25599500D01*
X8780830Y25596253D01*
X8834250Y25588586D01*
X8887065Y25542845D01*
X8906767Y25475810D01*
X8894168Y25421320D01*
X8884426Y25401394D01*
X8884426Y25401393D01*
X8874500Y25333261D01*
X8874500Y24966740D01*
X8884426Y24898609D01*
X8935803Y24793515D01*
X9018514Y24710804D01*
X9018515Y24710804D01*
X9018517Y24710802D01*
X9123607Y24659427D01*
X9157673Y24654464D01*
X9191739Y24649500D01*
X9191740Y24649500D01*
X10283261Y24649500D01*
X10305971Y24652809D01*
X10351393Y24659427D01*
X10456483Y24710802D01*
X10539198Y24793517D01*
X10590573Y24898607D01*
X10600500Y24966740D01*
X10600500Y25333260D01*
X10590573Y25401393D01*
X10539198Y25506483D01*
X10539196Y25506485D01*
X10539196Y25506486D01*
X10456485Y25589197D01*
X10351391Y25640574D01*
X10283261Y25650500D01*
X10283260Y25650500D01*
X9237890Y25650500D01*
X9170851Y25670185D01*
X9125096Y25722989D01*
X9115152Y25792147D01*
X9125096Y25826012D01*
X9165073Y25913548D01*
X9185165Y25957543D01*
X9205647Y26100000D01*
X9204446Y26108354D01*
X9214390Y26177512D01*
X9260145Y26230316D01*
X9327184Y26250000D01*
X9487500Y26250000D01*
X9987500Y26250000D01*
X10315634Y26250000D01*
X10315649Y26250001D01*
X10352489Y26252900D01*
X10352495Y26252901D01*
X10510193Y26298717D01*
X10510196Y26298718D01*
X10651552Y26382315D01*
X10651561Y26382322D01*
X10767678Y26498439D01*
X10767685Y26498448D01*
X10851281Y26639802D01*
X10897100Y26797514D01*
X10897295Y26799999D01*
X10897295Y26800000D01*
X9987500Y26800000D01*
X9987500Y26250000D01*
X9487500Y26250000D01*
X9487500Y26800000D01*
X8577705Y26800000D01*
X8577704Y26799999D01*
X8577899Y26797512D01*
X8600082Y26721157D01*
X8599882Y26651287D01*
X8561939Y26592618D01*
X8515941Y26567586D01*
X8489946Y26559954D01*
X8489946Y26559953D01*
X8438935Y26527171D01*
X8371895Y26507487D01*
X8304856Y26527172D01*
X8259102Y26579977D01*
X8249159Y26649136D01*
X8260497Y26685948D01*
X8264196Y26693516D01*
X8264198Y26693517D01*
X8315573Y26798607D01*
X8325500Y26866740D01*
X8325500Y27233260D01*
X8315776Y27300002D01*
X8577704Y27300002D01*
X8577705Y27300000D01*
X9487500Y27300000D01*
X9987500Y27300000D01*
X10897295Y27300000D01*
X10897295Y27300002D01*
X10897100Y27302487D01*
X10851281Y27460199D01*
X10767685Y27601553D01*
X10767678Y27601562D01*
X10651561Y27717679D01*
X10651552Y27717686D01*
X10510196Y27801283D01*
X10510193Y27801284D01*
X10352495Y27847100D01*
X10352489Y27847101D01*
X10315649Y27850000D01*
X9987500Y27850000D01*
X9987500Y27300000D01*
X9487500Y27300000D01*
X9487500Y27850000D01*
X9159350Y27850000D01*
X9122510Y27847101D01*
X9122504Y27847100D01*
X8964806Y27801284D01*
X8964803Y27801283D01*
X8823447Y27717686D01*
X8823438Y27717679D01*
X8707321Y27601562D01*
X8707314Y27601553D01*
X8623718Y27460199D01*
X8577899Y27302487D01*
X8577704Y27300002D01*
X8315776Y27300002D01*
X8315573Y27301393D01*
X8264198Y27406483D01*
X8264196Y27406485D01*
X8264196Y27406486D01*
X8181485Y27489197D01*
X8076391Y27540574D01*
X8008261Y27550500D01*
X8008260Y27550500D01*
X6916740Y27550500D01*
X6916739Y27550500D01*
X6848608Y27540574D01*
X6743514Y27489197D01*
X6660805Y27406488D01*
X6657923Y27402450D01*
X6602949Y27359326D01*
X6557003Y27350500D01*
X6210438Y27350500D01*
X6179867Y27342309D01*
X6134008Y27330021D01*
X6134007Y27330020D01*
X6084427Y27301394D01*
X6084426Y27301393D01*
X6065490Y27290461D01*
X6065487Y27290459D01*
X5611848Y26836819D01*
X5550525Y26803334D01*
X5524167Y26800500D01*
X4974500Y26800500D01*
X4907461Y26820185D01*
X4861706Y26872989D01*
X4850500Y26924500D01*
X4850500Y27369751D01*
X4850499Y27369753D01*
X4838868Y27428230D01*
X4838867Y27428231D01*
X4794552Y27494553D01*
X4728230Y27538868D01*
X4728229Y27538869D01*
X4669752Y27550500D01*
X4669748Y27550500D01*
X2930252Y27550500D01*
X2930247Y27550500D01*
X2871770Y27538869D01*
X2871769Y27538868D01*
X2805447Y27494553D01*
X2761132Y27428231D01*
X2761131Y27428230D01*
X2749500Y27369753D01*
X1856115Y27369753D01*
X1846450Y27377685D01*
X1663954Y27475232D01*
X1465934Y27535300D01*
X1465932Y27535301D01*
X1465934Y27535301D01*
X1260000Y27555583D01*
X1054067Y27535301D01*
X856043Y27475231D01*
X827921Y27460199D01*
X673550Y27377685D01*
X673548Y27377684D01*
X673547Y27377683D01*
X513589Y27246411D01*
X382317Y27086453D01*
X284769Y26903957D01*
X224699Y26705933D01*
X204417Y26500000D01*
X217169Y26370518D01*
X204150Y26301872D01*
X181448Y26270685D01*
X131287Y26220523D01*
X131283Y26220519D01*
X77680Y26166917D01*
X16357Y26133433D01*
X-53335Y26138418D01*
X-97681Y26166918D01*
X-110603Y26179840D01*
X-110626Y26179861D01*
X-201449Y26270684D01*
X-234934Y26332007D01*
X-237171Y26370515D01*
X-224417Y26500000D01*
X-244700Y26705934D01*
X-304768Y26903954D01*
X-402315Y27086450D01*
X-454298Y27149791D01*
X-533590Y27246411D01*
X-660425Y27350500D01*
X-693550Y27377685D01*
X-876046Y27475232D01*
X-1074066Y27535300D01*
X-1074068Y27535301D01*
X-1074066Y27535301D01*
X-1280000Y27555583D01*
X-1485933Y27535301D01*
X-1683957Y27475231D01*
X-1712079Y27460199D01*
X-1866450Y27377685D01*
X-1866452Y27377684D01*
X-1866453Y27377683D01*
X-2026411Y27246411D01*
X-2157683Y27086453D01*
X-2255231Y26903957D01*
X-2315301Y26705933D01*
X-2335583Y26500000D01*
X-2315301Y26294068D01*
X-2286614Y26199500D01*
X-2255232Y26096046D01*
X-2157685Y25913550D01*
X-2157683Y25913548D01*
X-2026411Y25753590D01*
X-1970472Y25707683D01*
X-1866450Y25622315D01*
X-1683954Y25524768D01*
X-1485934Y25464700D01*
X-1485935Y25464700D01*
X-1465652Y25462703D01*
X-1280000Y25444417D01*
X-1211654Y25451149D01*
X-1143009Y25438130D01*
X-1092298Y25390066D01*
X-1075500Y25327746D01*
X-1075500Y20771178D01*
X-1095185Y20704139D01*
X-1147989Y20658384D01*
X-1217147Y20648440D01*
X-1234198Y20652132D01*
X-1240511Y20653972D01*
X-1290099Y20660500D01*
X-1709895Y20660500D01*
X-1725614Y20658431D01*
X-1759487Y20653972D01*
X-1759489Y20653971D01*
X-1759491Y20653971D01*
X-1868317Y20603224D01*
X-1912319Y20559221D01*
X-1973642Y20525736D01*
X-2043334Y20530720D01*
X-2087681Y20559221D01*
X-2131685Y20603225D01*
X-2143545Y20608755D01*
X-2195985Y20654927D01*
X-2215137Y20722120D01*
X-2194922Y20789002D01*
X-2172339Y20814854D01*
X-2168881Y20817852D01*
X-2168872Y20817857D01*
X-2074623Y20926627D01*
X-2014835Y21057543D01*
X-1994353Y21200000D01*
X-2014835Y21342457D01*
X-2074623Y21473373D01*
X-2168872Y21582143D01*
X-2289947Y21659953D01*
X-2289949Y21659954D01*
X-2289951Y21659955D01*
X-2289950Y21659955D01*
X-2428037Y21700500D01*
X-2428039Y21700500D01*
X-2571961Y21700500D01*
X-2571964Y21700500D01*
X-2710051Y21659955D01*
X-2831127Y21582144D01*
X-2925377Y21473374D01*
X-2925378Y21473372D01*
X-2985166Y21342457D01*
X-3005647Y21200000D01*
X-2985166Y21057544D01*
X-2965874Y21015301D01*
X-2925377Y20926627D01*
X-2831128Y20817857D01*
X-2831124Y20817855D01*
X-2827657Y20814850D01*
X-2789883Y20756072D01*
X-2789883Y20686202D01*
X-2827658Y20627424D01*
X-2856454Y20608756D01*
X-2868314Y20603226D01*
X-2935604Y20535936D01*
X-2996928Y20502452D01*
X-3066619Y20507437D01*
X-3110966Y20535937D01*
X-3803349Y21228320D01*
X-3836834Y21289643D01*
X-3831850Y21359335D01*
X-3789978Y21415268D01*
X-3724514Y21439685D01*
X-3715668Y21440001D01*
X-3665376Y21440001D01*
X-3665351Y21440002D01*
X-3629090Y21442855D01*
X-3473804Y21487970D01*
X-3334626Y21570279D01*
X-3334617Y21570286D01*
X-3220286Y21684617D01*
X-3220279Y21684626D01*
X-3137969Y21823805D01*
X-3095496Y21970000D01*
X-3776000Y21970000D01*
X-3843039Y21989685D01*
X-3888794Y22042489D01*
X-3900000Y22094000D01*
X-3900000Y22346000D01*
X-3880315Y22413039D01*
X-3827511Y22458794D01*
X-3776000Y22470000D01*
X-3095496Y22470000D01*
X-3137969Y22616196D01*
X-3220279Y22755375D01*
X-3220286Y22755384D01*
X-3334619Y22869717D01*
X-3340783Y22874498D01*
X-3339267Y22876453D01*
X-3378637Y22918622D01*
X-3391138Y22987365D01*
X-3390774Y22990424D01*
X-3389500Y23000099D01*
X-3389501Y23359900D01*
X-3396028Y23409487D01*
X-3446776Y23518316D01*
X-3531684Y23603224D01*
X-3531685Y23603225D01*
X-3552907Y23613121D01*
X-3605345Y23659294D01*
X-3624500Y23725502D01*
X-3624500Y25369570D01*
X-3604815Y25436609D01*
X-3552011Y25482364D01*
X-3536500Y25488230D01*
X-3416046Y25524768D01*
X-3233550Y25622315D01*
X-3073590Y25753590D01*
X-2942315Y25913550D01*
X-2844768Y26096046D01*
X-2784700Y26294066D01*
X-2764417Y26500000D01*
X-2784700Y26705934D01*
X-2844768Y26903954D01*
X-2942315Y27086450D01*
X-2994298Y27149791D01*
X-3073590Y27246411D01*
X-3200425Y27350500D01*
X-3233550Y27377685D01*
X-3416046Y27475232D01*
X-3614066Y27535300D01*
X-3614068Y27535301D01*
X-3614066Y27535301D01*
X-3820000Y27555583D01*
X-4025933Y27535301D01*
X-4223957Y27475231D01*
X-4252079Y27460199D01*
X-4406450Y27377685D01*
X-4406452Y27377684D01*
X-4406453Y27377683D01*
X-4566411Y27246411D01*
X-4697683Y27086453D01*
X-4795233Y26903953D01*
X-4807503Y26863504D01*
X-4845801Y26805065D01*
X-4909613Y26776609D01*
X-4926163Y26775500D01*
X-5119837Y26775500D01*
X-5186876Y26795185D01*
X-5213550Y26818297D01*
X-5268872Y26882143D01*
X-5389947Y26959953D01*
X-5389949Y26959954D01*
X-5389951Y26959955D01*
X-5389950Y26959955D01*
X-5528037Y27000500D01*
X-5528039Y27000500D01*
X-5671961Y27000500D01*
X-5671964Y27000500D01*
X-5810051Y26959955D01*
X-5931127Y26882144D01*
X-5931128Y26882144D01*
X-5931128Y26882143D01*
X-5984814Y26820185D01*
X-5986450Y26818297D01*
X-6045228Y26780523D01*
X-6080163Y26775500D01*
X-7125500Y26775500D01*
X-7192539Y26795185D01*
X-7238294Y26847989D01*
X-7249500Y26899500D01*
X-7249500Y27369751D01*
X-7249501Y27369753D01*
X-7261132Y27428230D01*
X-7261133Y27428231D01*
X-7305448Y27494553D01*
X-7371770Y27538868D01*
X-7371771Y27538869D01*
X-7430248Y27550500D01*
X-7430252Y27550500D01*
X-8369748Y27550500D01*
X-8369753Y27550500D01*
X-8428232Y27538868D01*
X-8437257Y27535129D01*
X-8506726Y27527659D01*
X-8569206Y27558933D01*
X-8572392Y27562008D01*
X-9693941Y28683556D01*
X-9693942Y28683557D01*
X-9795200Y28725500D01*
X-12568656Y28725500D01*
X-12635695Y28745185D01*
X-12681450Y28797989D01*
X-12685697Y28808544D01*
X-12722207Y28912881D01*
X-12722207Y28912882D01*
X-12802850Y29022150D01*
X-12912118Y29102793D01*
X-12912120Y29102794D01*
X-13040300Y29147647D01*
X-13070730Y29150500D01*
X-13070734Y29150500D01*
X-14129266Y29150500D01*
X-14129270Y29150500D01*
X-14159700Y29147647D01*
X-14159702Y29147647D01*
X-14287881Y29102794D01*
X-14287883Y29102793D01*
X-14397150Y29022150D01*
X-14477793Y28912883D01*
X-14477794Y28912881D01*
X-14522647Y28784702D01*
X-14522647Y28784700D01*
X-14525500Y28754270D01*
X-14525500Y28145731D01*
X-14522647Y28115301D01*
X-14522647Y28115299D01*
X-14477794Y27987120D01*
X-14477793Y27987118D01*
X-14397150Y27877850D01*
X-14287882Y27797207D01*
X-14223967Y27774842D01*
X-14167193Y27734122D01*
X-14141445Y27669170D01*
X-14154901Y27600608D01*
X-14203288Y27550205D01*
X-14225918Y27540096D01*
X-14394122Y27484358D01*
X-14394125Y27484357D01*
X-14543346Y27392316D01*
X-14667316Y27268346D01*
X-14759357Y27119125D01*
X-14759359Y27119120D01*
X-14814506Y26952698D01*
X-14814507Y26952691D01*
X-14825000Y26849987D01*
X-14825000Y26800000D01*
X-12375001Y26800000D01*
X-12375001Y26849972D01*
X-12375002Y26849987D01*
X-12385495Y26952698D01*
X-12440642Y27119120D01*
X-12440644Y27119125D01*
X-12532685Y27268346D01*
X-12656655Y27392316D01*
X-12805876Y27484357D01*
X-12805881Y27484359D01*
X-12974083Y27540095D01*
X-13031528Y27579867D01*
X-13058351Y27644383D01*
X-13046036Y27713159D01*
X-12998493Y27764359D01*
X-12976034Y27774842D01*
X-12976028Y27774844D01*
X-12912118Y27797207D01*
X-12802850Y27877850D01*
X-12722207Y27987118D01*
X-12700661Y28048695D01*
X-12685697Y28091456D01*
X-12644975Y28148231D01*
X-12580022Y28173978D01*
X-12568656Y28174500D01*
X-10015477Y28174500D01*
X-9948438Y28154815D01*
X-9927796Y28138181D01*
X-8586819Y26797204D01*
X-8553334Y26735881D01*
X-8550500Y26709523D01*
X-8550500Y25630248D01*
X-8538869Y25571771D01*
X-8538868Y25571770D01*
X-8494553Y25505448D01*
X-8428231Y25461133D01*
X-8428230Y25461132D01*
X-8369753Y25449501D01*
X-8369750Y25449500D01*
X-8369748Y25449500D01*
X-7430250Y25449500D01*
X-7430249Y25449501D01*
X-7415432Y25452448D01*
X-7371771Y25461132D01*
X-7371771Y25461133D01*
X-7371769Y25461133D01*
X-7305448Y25505448D01*
X-7261133Y25571769D01*
X-7261133Y25571771D01*
X-7261132Y25571771D01*
X-7249501Y25630248D01*
X-7249500Y25630250D01*
X-7249500Y26100500D01*
X-7229815Y26167539D01*
X-7177011Y26213294D01*
X-7125500Y26224500D01*
X-6080163Y26224500D01*
X-6013124Y26204815D01*
X-5986452Y26181705D01*
X-5931128Y26117857D01*
X-5810053Y26040047D01*
X-5810050Y26040046D01*
X-5810051Y26040046D01*
X-5732835Y26017374D01*
X-5700212Y26007795D01*
X-5671964Y25999501D01*
X-5671962Y25999500D01*
X-5671961Y25999500D01*
X-5528038Y25999500D01*
X-5528038Y25999501D01*
X-5389947Y26040047D01*
X-5268872Y26117857D01*
X-5213549Y26181704D01*
X-5154772Y26219477D01*
X-5119837Y26224500D01*
X-4926163Y26224500D01*
X-4859124Y26204815D01*
X-4813369Y26152011D01*
X-4807503Y26136496D01*
X-4795233Y26096048D01*
X-4795232Y26096046D01*
X-4697685Y25913550D01*
X-4697683Y25913548D01*
X-4566411Y25753590D01*
X-4510472Y25707683D01*
X-4406450Y25622315D01*
X-4257773Y25542845D01*
X-4241046Y25533904D01*
X-4191202Y25484941D01*
X-4175500Y25424546D01*
X-4175500Y23725502D01*
X-4195185Y23658463D01*
X-4247063Y23613135D01*
X-4248564Y23612435D01*
X-4317637Y23601923D01*
X-4381429Y23630424D01*
X-4419686Y23688889D01*
X-4425000Y23724802D01*
X-4425000Y23758106D01*
X-4425001Y23758119D01*
X-4427789Y23793548D01*
X-4427790Y23793554D01*
X-4471844Y23945186D01*
X-4471845Y23945189D01*
X-4552227Y24081109D01*
X-4552233Y24081117D01*
X-4663884Y24192768D01*
X-4663892Y24192774D01*
X-4799812Y24273156D01*
X-4799815Y24273157D01*
X-4951447Y24317211D01*
X-4951453Y24317212D01*
X-4986882Y24320000D01*
X-5050000Y24320000D01*
X-5050000Y23694000D01*
X-5069685Y23626961D01*
X-5122489Y23581206D01*
X-5174000Y23570000D01*
X-5426000Y23570000D01*
X-5493039Y23589685D01*
X-5538794Y23642489D01*
X-5550000Y23694000D01*
X-5550000Y24320000D01*
X-5613119Y24320000D01*
X-5648548Y24317212D01*
X-5648554Y24317211D01*
X-5800186Y24273157D01*
X-5800189Y24273156D01*
X-5936109Y24192774D01*
X-5936117Y24192768D01*
X-6047768Y24081117D01*
X-6047775Y24081108D01*
X-6063930Y24053791D01*
X-6115000Y24006108D01*
X-6183742Y23993606D01*
X-6218117Y24002354D01*
X-6221774Y24003869D01*
X-6280248Y24015500D01*
X-6280252Y24015500D01*
X-9719748Y24015500D01*
X-9719753Y24015500D01*
X-9778230Y24003869D01*
X-9778231Y24003868D01*
X-9844553Y23959553D01*
X-9888868Y23893231D01*
X-9888869Y23893230D01*
X-9900500Y23834755D01*
X-9900668Y23833043D01*
X-9901007Y23832205D01*
X-9901689Y23828774D01*
X-9902340Y23828904D01*
X-9926831Y23768256D01*
X-9983867Y23727899D01*
X-10053667Y23724784D01*
X-10114071Y23759900D01*
X-10136453Y23792795D01*
X-10156020Y23834755D01*
X-10179253Y23884579D01*
X-10260421Y23965747D01*
X-10364455Y24014259D01*
X-10364457Y24014260D01*
X-10364456Y24014260D01*
X-10411860Y24020500D01*
X-10411861Y24020500D01*
X-10692333Y24020500D01*
X-10754332Y24037112D01*
X-10794012Y24060021D01*
X-10870438Y24080500D01*
X-10949562Y24080500D01*
X-11025988Y24060021D01*
X-11025989Y24060021D01*
X-11094510Y24020461D01*
X-11150461Y23964511D01*
X-11150462Y23964509D01*
X-11151624Y23962496D01*
X-11153049Y23961138D01*
X-11155408Y23958063D01*
X-11155888Y23958432D01*
X-11202193Y23914283D01*
X-11259009Y23900500D01*
X-11459679Y23900500D01*
X-11526718Y23920185D01*
X-11572061Y23972096D01*
X-11575935Y23980404D01*
X-11659596Y24064065D01*
X-11766827Y24114068D01*
X-11766829Y24114069D01*
X-11766828Y24114069D01*
X-11815683Y24120500D01*
X-11815684Y24120500D01*
X-12069523Y24120500D01*
X-12136562Y24140185D01*
X-12157204Y24156819D01*
X-12378941Y24378556D01*
X-12378942Y24378557D01*
X-12480200Y24420500D01*
X-12667142Y24420500D01*
X-12734181Y24440185D01*
X-12779936Y24492989D01*
X-12789880Y24562147D01*
X-12768717Y24615624D01*
X-12765942Y24619590D01*
X-12765935Y24619596D01*
X-12730648Y24695271D01*
X-12684479Y24747706D01*
X-12665726Y24757420D01*
X-12643942Y24766443D01*
X-12566443Y24843942D01*
X-12566444Y24843942D01*
X-12507875Y24902511D01*
X-11972392Y25437995D01*
X-11911071Y25471478D01*
X-11841379Y25466494D01*
X-11837258Y25464872D01*
X-11828229Y25461132D01*
X-11769753Y25449501D01*
X-11769750Y25449500D01*
X-11769748Y25449500D01*
X-10830250Y25449500D01*
X-10830249Y25449501D01*
X-10815432Y25452448D01*
X-10771771Y25461132D01*
X-10771771Y25461133D01*
X-10771769Y25461133D01*
X-10705448Y25505448D01*
X-10661133Y25571769D01*
X-10661133Y25571771D01*
X-10661132Y25571771D01*
X-10649501Y25630248D01*
X-10649500Y25630250D01*
X-10649500Y27369751D01*
X-10649501Y27369753D01*
X-10661132Y27428230D01*
X-10661133Y27428231D01*
X-10705448Y27494553D01*
X-10771770Y27538868D01*
X-10771771Y27538869D01*
X-10830248Y27550500D01*
X-10830252Y27550500D01*
X-11769748Y27550500D01*
X-11769753Y27550500D01*
X-11828230Y27538869D01*
X-11828231Y27538868D01*
X-11894553Y27494553D01*
X-11938868Y27428231D01*
X-11938869Y27428230D01*
X-11950500Y27369753D01*
X-11950500Y26290479D01*
X-11970185Y26223440D01*
X-11986819Y26202798D01*
X-12185614Y26004003D01*
X-12246937Y25970518D01*
X-12316629Y25975502D01*
X-12372562Y26017374D01*
X-12396979Y26082838D01*
X-12391000Y26130691D01*
X-12385495Y26147304D01*
X-12385494Y26147310D01*
X-12375001Y26250014D01*
X-12375000Y26250027D01*
X-12375000Y26300000D01*
X-14824999Y26300000D01*
X-14824999Y26250014D01*
X-14814506Y26147303D01*
X-14759359Y25980881D01*
X-14759357Y25980876D01*
X-14667316Y25831655D01*
X-14543344Y25707683D01*
X-14508584Y25686243D01*
X-14461859Y25634295D01*
X-14450636Y25565333D01*
X-14478479Y25501251D01*
X-14521274Y25468323D01*
X-14530403Y25464067D01*
X-14614065Y25380405D01*
X-14664069Y25273172D01*
X-14670500Y25224317D01*
X-14670500Y24775684D01*
X-14664069Y24726829D01*
X-14664068Y24726827D01*
X-14614065Y24619596D01*
X-14530404Y24535935D01*
X-14423173Y24485932D01*
X-14374317Y24479500D01*
X-14374316Y24479500D01*
X-14120477Y24479500D01*
X-14053438Y24459815D01*
X-14032797Y24443182D01*
X-13760704Y24171088D01*
X-13727219Y24109766D01*
X-13731700Y24047112D01*
X-13730230Y24046684D01*
X-13777167Y23885129D01*
X-13777168Y23885123D01*
X-13779931Y23850000D01*
X-13134000Y23850000D01*
X-13066961Y23830315D01*
X-13021206Y23777511D01*
X-13010000Y23726000D01*
X-13010000Y23600000D01*
X-12884000Y23600000D01*
X-12816961Y23580315D01*
X-12771206Y23527511D01*
X-12760000Y23476000D01*
X-12760000Y22787157D01*
X-12620806Y22827596D01*
X-12482715Y22909262D01*
X-12482706Y22909269D01*
X-12369269Y23022706D01*
X-12369265Y23022712D01*
X-12363432Y23032574D01*
X-12312366Y23080260D01*
X-12243624Y23092767D01*
X-12221998Y23088504D01*
X-12213173Y23085932D01*
X-12164317Y23079500D01*
X-11914833Y23079500D01*
X-11847794Y23059815D01*
X-11802039Y23007011D01*
X-11792095Y22937853D01*
X-11821120Y22874297D01*
X-11827152Y22867819D01*
X-13290459Y21404513D01*
X-13290465Y21404505D01*
X-13330018Y21335996D01*
X-13330021Y21335991D01*
X-13338025Y21306120D01*
X-13350500Y21259562D01*
X-13350500Y19202671D01*
X-13330021Y19126244D01*
X-13319947Y19108795D01*
X-13317773Y19105031D01*
X-13317772Y19105027D01*
X-13317771Y19105027D01*
X-13290460Y19057722D01*
X-12030740Y17798002D01*
X-11974791Y17742053D01*
X-11974789Y17742052D01*
X-11974785Y17742049D01*
X-11906276Y17702496D01*
X-11906269Y17702492D01*
X-11829842Y17682013D01*
X-11750718Y17682013D01*
X-6952446Y17682013D01*
X-6885407Y17662328D01*
X-6839652Y17609524D01*
X-6829708Y17540366D01*
X-6858733Y17476810D01*
X-6864765Y17470332D01*
X-6869715Y17465383D01*
X-6874501Y17459212D01*
X-6876456Y17460728D01*
X-6918638Y17421356D01*
X-6987382Y17408865D01*
X-6990463Y17409232D01*
X-7000096Y17410500D01*
X-7359895Y17410500D01*
X-7372314Y17408865D01*
X-7409487Y17403972D01*
X-7409489Y17403971D01*
X-7409491Y17403971D01*
X-7518315Y17353225D01*
X-7591377Y17280163D01*
X-7652701Y17246679D01*
X-7722392Y17251664D01*
X-7760579Y17278177D01*
X-7762172Y17276337D01*
X-7768869Y17282140D01*
X-7768872Y17282143D01*
X-7889947Y17359953D01*
X-7889949Y17359954D01*
X-7889951Y17359955D01*
X-7889950Y17359955D01*
X-8028037Y17400500D01*
X-8028039Y17400500D01*
X-8171961Y17400500D01*
X-8171964Y17400500D01*
X-8310051Y17359955D01*
X-8431127Y17282144D01*
X-8431128Y17282144D01*
X-8431128Y17282143D01*
X-8436159Y17276337D01*
X-8525377Y17173374D01*
X-8525378Y17173372D01*
X-8585166Y17042457D01*
X-8605647Y16900000D01*
X-8585166Y16757544D01*
X-8531720Y16640515D01*
X-8525377Y16626627D01*
X-8431128Y16517857D01*
X-8310053Y16440047D01*
X-8310050Y16440046D01*
X-8310051Y16440046D01*
X-8171964Y16399501D01*
X-8171962Y16399500D01*
X-8171961Y16399500D01*
X-8028038Y16399500D01*
X-8028038Y16399501D01*
X-7889947Y16440047D01*
X-7768872Y16517857D01*
X-7768866Y16517865D01*
X-7762172Y16523663D01*
X-7760226Y16521417D01*
X-7714017Y16551126D01*
X-7644147Y16551140D01*
X-7591377Y16519837D01*
X-7518316Y16446776D01*
X-7409487Y16396028D01*
X-7359901Y16389500D01*
X-7000100Y16389501D01*
X-6990466Y16390770D01*
X-6921435Y16380006D01*
X-6875962Y16339649D01*
X-6874498Y16340783D01*
X-6869717Y16334619D01*
X-6755384Y16220286D01*
X-6755375Y16220279D01*
X-6616196Y16137969D01*
X-6470000Y16095496D01*
X-6470000Y16095497D01*
X-5970000Y16095497D01*
X-5823805Y16137969D01*
X-5684626Y16220279D01*
X-5684617Y16220286D01*
X-5570286Y16334617D01*
X-5570279Y16334626D01*
X-5487969Y16473805D01*
X-5487967Y16473810D01*
X-5442856Y16629082D01*
X-5442855Y16629088D01*
X-5441210Y16650000D01*
X-5970000Y16650000D01*
X-5970000Y16095497D01*
X-6470000Y16095497D01*
X-6470000Y16776000D01*
X-6450315Y16843039D01*
X-6397511Y16888794D01*
X-6346000Y16900000D01*
X-6220000Y16900000D01*
X-6220000Y17026000D01*
X-6200315Y17093039D01*
X-6147511Y17138794D01*
X-6096000Y17150000D01*
X-5441210Y17150000D01*
X-5442856Y17170914D01*
X-5475794Y17284290D01*
X-5475595Y17354159D01*
X-5437653Y17412829D01*
X-5374015Y17441673D01*
X-5304885Y17431532D01*
X-5269037Y17406566D01*
X-4436819Y16574348D01*
X-4403334Y16513025D01*
X-4400500Y16486667D01*
X-4400500Y16250322D01*
X-4385968Y16177265D01*
X-4385967Y16177261D01*
X-4374292Y16159788D01*
X-4330601Y16094399D01*
X-4270249Y16054074D01*
X-4247740Y16039034D01*
X-4247736Y16039033D01*
X-4174679Y16024501D01*
X-4174676Y16024500D01*
X-4174674Y16024500D01*
X-4025324Y16024500D01*
X-4025323Y16024501D01*
X-4000971Y16029345D01*
X-3952268Y16039032D01*
X-3952267Y16039033D01*
X-3952260Y16039034D01*
X-3952255Y16039038D01*
X-3947461Y16041023D01*
X-3877992Y16048496D01*
X-3852539Y16041023D01*
X-3847744Y16039037D01*
X-3847740Y16039034D01*
X-3847736Y16039034D01*
X-3847733Y16039032D01*
X-3774679Y16024501D01*
X-3774676Y16024500D01*
X-3774674Y16024500D01*
X-3625324Y16024500D01*
X-3625323Y16024501D01*
X-3600971Y16029345D01*
X-3552268Y16039032D01*
X-3552267Y16039033D01*
X-3552260Y16039034D01*
X-3552255Y16039038D01*
X-3547461Y16041023D01*
X-3477992Y16048496D01*
X-3452539Y16041023D01*
X-3447744Y16039037D01*
X-3447740Y16039034D01*
X-3447736Y16039034D01*
X-3447733Y16039032D01*
X-3374679Y16024501D01*
X-3374676Y16024500D01*
X-3374674Y16024500D01*
X-3225324Y16024500D01*
X-3225323Y16024501D01*
X-3200971Y16029345D01*
X-3152268Y16039032D01*
X-3152267Y16039033D01*
X-3152260Y16039034D01*
X-3152255Y16039038D01*
X-3147461Y16041023D01*
X-3077992Y16048496D01*
X-3052539Y16041023D01*
X-3047744Y16039037D01*
X-3047740Y16039034D01*
X-3047736Y16039034D01*
X-3047733Y16039032D01*
X-2974679Y16024501D01*
X-2974676Y16024500D01*
X-2974674Y16024500D01*
X-2825324Y16024500D01*
X-2825323Y16024501D01*
X-2800971Y16029345D01*
X-2752268Y16039032D01*
X-2752267Y16039033D01*
X-2752260Y16039034D01*
X-2752255Y16039038D01*
X-2747461Y16041023D01*
X-2677992Y16048496D01*
X-2652539Y16041023D01*
X-2647744Y16039037D01*
X-2647740Y16039034D01*
X-2647736Y16039034D01*
X-2647733Y16039032D01*
X-2574679Y16024501D01*
X-2574676Y16024500D01*
X-2574674Y16024500D01*
X-2425324Y16024500D01*
X-2425323Y16024501D01*
X-2400971Y16029345D01*
X-2352268Y16039032D01*
X-2352267Y16039033D01*
X-2352260Y16039034D01*
X-2352255Y16039038D01*
X-2347461Y16041023D01*
X-2277992Y16048496D01*
X-2252539Y16041023D01*
X-2247744Y16039037D01*
X-2247740Y16039034D01*
X-2247736Y16039034D01*
X-2247733Y16039032D01*
X-2174679Y16024501D01*
X-2174676Y16024500D01*
X-2174674Y16024500D01*
X-2025325Y16024500D01*
X-2009507Y16027647D01*
X-1952260Y16039034D01*
X-1952259Y16039036D01*
X-1949348Y16039614D01*
X-1879756Y16033388D01*
X-1826351Y15992923D01*
X-1742565Y15882436D01*
X-1622096Y15791080D01*
X-1481444Y15735614D01*
X-1393054Y15725000D01*
X-1360496Y15725000D01*
X-1293457Y15705315D01*
X-1247702Y15652511D01*
X-1237758Y15583353D01*
X-1247702Y15549488D01*
X-1285166Y15467457D01*
X-1305647Y15325000D01*
X-1283903Y15173765D01*
X-1285721Y15173504D01*
X-1285722Y15114562D01*
X-1323498Y15055785D01*
X-1387055Y15026762D01*
X-1404698Y15025500D01*
X-2996365Y15025500D01*
X-3046535Y15018895D01*
X-3046543Y15018893D01*
X-3156646Y14967551D01*
X-3242552Y14881645D01*
X-3293895Y14771540D01*
X-3293895Y14771538D01*
X-3300499Y14721373D01*
X-3300500Y14721357D01*
X-3300500Y11728636D01*
X-3293895Y11678466D01*
X-3293893Y11678458D01*
X-3247002Y11577900D01*
X-3242551Y11568355D01*
X-3156645Y11482449D01*
X-3046539Y11431106D01*
X-2996363Y11424500D01*
X-1504728Y11424501D01*
X-1437689Y11404816D01*
X-1391934Y11352013D01*
X-1381990Y11282854D01*
X-1384915Y11269406D01*
X-1405677Y11125000D01*
X-1385196Y10982543D01*
X-1385195Y10982542D01*
X-1344611Y10893675D01*
X-1334667Y10824517D01*
X-1363692Y10760961D01*
X-1422470Y10723187D01*
X-1442621Y10719048D01*
X-1481444Y10714387D01*
X-1622096Y10658921D01*
X-1742568Y10567563D01*
X-1826352Y10457078D01*
X-1882544Y10415555D01*
X-1949347Y10410387D01*
X-2025324Y10425500D01*
X-2025326Y10425500D01*
X-2174674Y10425500D01*
X-2174676Y10425500D01*
X-2247741Y10410967D01*
X-2252548Y10408975D01*
X-2322017Y10401506D01*
X-2347452Y10408975D01*
X-2352260Y10410967D01*
X-2425324Y10425500D01*
X-2425326Y10425500D01*
X-2574674Y10425500D01*
X-2574676Y10425500D01*
X-2647741Y10410967D01*
X-2652548Y10408975D01*
X-2722017Y10401506D01*
X-2747452Y10408975D01*
X-2752260Y10410967D01*
X-2825324Y10425500D01*
X-2825326Y10425500D01*
X-2974674Y10425500D01*
X-2974676Y10425500D01*
X-3047741Y10410967D01*
X-3052548Y10408975D01*
X-3122017Y10401506D01*
X-3147452Y10408975D01*
X-3152260Y10410967D01*
X-3225324Y10425500D01*
X-3225326Y10425500D01*
X-3374674Y10425500D01*
X-3374676Y10425500D01*
X-3447741Y10410967D01*
X-3452548Y10408975D01*
X-3522017Y10401506D01*
X-3547452Y10408975D01*
X-3552260Y10410967D01*
X-3625324Y10425500D01*
X-3625326Y10425500D01*
X-3774674Y10425500D01*
X-3774676Y10425500D01*
X-3847741Y10410967D01*
X-3852548Y10408975D01*
X-3922017Y10401506D01*
X-3947452Y10408975D01*
X-3952260Y10410967D01*
X-4025324Y10425500D01*
X-4025326Y10425500D01*
X-4174674Y10425500D01*
X-4175500Y10425500D01*
X-4242539Y10445185D01*
X-4288294Y10497989D01*
X-4299500Y10549500D01*
X-4299500Y10699676D01*
X-4310779Y10756374D01*
X-4304552Y10825966D01*
X-4276841Y10868251D01*
X-4276149Y10868942D01*
X-4234206Y10970200D01*
X-4234206Y11079800D01*
X-4276149Y11181058D01*
X-4276843Y11181752D01*
X-4277872Y11183635D01*
X-4282934Y11191212D01*
X-4282256Y11191666D01*
X-4310328Y11243075D01*
X-4310779Y11293626D01*
X-4305475Y11320286D01*
X-4299500Y11350326D01*
X-4299500Y11499674D01*
X-4300523Y11504815D01*
X-4307531Y11540047D01*
X-4314034Y11572740D01*
X-4314035Y11572742D01*
X-4314614Y11575653D01*
X-4308387Y11645245D01*
X-4267922Y11698650D01*
X-4157437Y11782434D01*
X-4066080Y11902905D01*
X-4010614Y12043557D01*
X-4000000Y12131947D01*
X-4000000Y12318054D01*
X-4010614Y12406444D01*
X-4066080Y12547096D01*
X-4157436Y12667565D01*
X-4267923Y12751351D01*
X-4309446Y12807544D01*
X-4314614Y12874348D01*
X-4314036Y12877259D01*
X-4314034Y12877260D01*
X-4299500Y12950326D01*
X-4299500Y13099674D01*
X-4299500Y13099677D01*
X-4299501Y13099679D01*
X-4299519Y13099767D01*
X-4308512Y13144980D01*
X-4314032Y13172733D01*
X-4314034Y13172736D01*
X-4314034Y13172740D01*
X-4314037Y13172744D01*
X-4316023Y13177539D01*
X-4323496Y13247008D01*
X-4316023Y13272461D01*
X-4314038Y13277255D01*
X-4314034Y13277260D01*
X-4311490Y13290046D01*
X-4299501Y13350322D01*
X-4299500Y13350324D01*
X-4299500Y13499677D01*
X-4299501Y13499679D01*
X-4314032Y13572733D01*
X-4314034Y13572736D01*
X-4314034Y13572740D01*
X-4314037Y13572744D01*
X-4316023Y13577539D01*
X-4323496Y13647008D01*
X-4316023Y13672461D01*
X-4314038Y13677255D01*
X-4314034Y13677260D01*
X-4299500Y13750326D01*
X-4299500Y13899674D01*
X-4299500Y13899677D01*
X-4299501Y13899679D01*
X-4314032Y13972733D01*
X-4314034Y13972736D01*
X-4314034Y13972740D01*
X-4314037Y13972744D01*
X-4316023Y13977539D01*
X-4323496Y14047008D01*
X-4316023Y14072461D01*
X-4314038Y14077255D01*
X-4314034Y14077260D01*
X-4311704Y14088970D01*
X-4299501Y14150322D01*
X-4299500Y14150324D01*
X-4299500Y14299677D01*
X-4299501Y14299679D01*
X-4314032Y14372733D01*
X-4314034Y14372736D01*
X-4314034Y14372740D01*
X-4314037Y14372744D01*
X-4316023Y14377539D01*
X-4323496Y14447008D01*
X-4316023Y14472461D01*
X-4314038Y14477255D01*
X-4314034Y14477260D01*
X-4313590Y14479488D01*
X-4299501Y14550322D01*
X-4299500Y14550324D01*
X-4299500Y14699677D01*
X-4299501Y14699679D01*
X-4314032Y14772733D01*
X-4314034Y14772736D01*
X-4314034Y14772740D01*
X-4314037Y14772744D01*
X-4316023Y14777539D01*
X-4323496Y14847008D01*
X-4316023Y14872461D01*
X-4314038Y14877255D01*
X-4314034Y14877260D01*
X-4313161Y14881645D01*
X-4301593Y14939804D01*
X-4299500Y14950326D01*
X-4299500Y15099674D01*
X-4299500Y15099677D01*
X-4299501Y15099679D01*
X-4314032Y15172733D01*
X-4314034Y15172736D01*
X-4314034Y15172740D01*
X-4314037Y15172744D01*
X-4316023Y15177539D01*
X-4323496Y15247008D01*
X-4316023Y15272461D01*
X-4314038Y15277255D01*
X-4314034Y15277260D01*
X-4299500Y15350326D01*
X-4299500Y15499674D01*
X-4299500Y15499677D01*
X-4299501Y15499679D01*
X-4314033Y15572736D01*
X-4314034Y15572740D01*
X-4331161Y15598373D01*
X-4369399Y15655601D01*
X-4436596Y15700500D01*
X-4452261Y15710967D01*
X-4452265Y15710968D01*
X-4525323Y15725500D01*
X-4525326Y15725500D01*
X-5349674Y15725500D01*
X-5349676Y15725500D01*
X-5422739Y15710967D01*
X-5425222Y15709938D01*
X-5472673Y15700500D01*
X-10883786Y15700500D01*
X-10950825Y15720185D01*
X-10971467Y15736819D01*
X-12388181Y17153533D01*
X-12421666Y17214856D01*
X-12424500Y17241214D01*
X-12424500Y17379062D01*
X-12424500Y17379064D01*
X-12454159Y17450665D01*
X-12466443Y17480323D01*
X-12466445Y17480325D01*
X-12466445Y17480326D01*
X-16119677Y21133556D01*
X-16119678Y21133557D01*
X-16149689Y21145988D01*
X-16220936Y21175500D01*
X-17429799Y21175500D01*
X-17429800Y21175500D01*
X-17465422Y21160745D01*
X-17501044Y21145989D01*
X-17501046Y21145988D01*
X-17531058Y21133558D01*
X-17748003Y20916612D01*
X-17809326Y20883127D01*
X-17879018Y20888111D01*
X-17925530Y20922311D01*
X-17926800Y20921040D01*
X-18048439Y21042679D01*
X-18048448Y21042686D01*
X-18189804Y21126283D01*
X-18189807Y21126284D01*
X-18347506Y21172100D01*
X-18347503Y21172100D01*
X-18350000Y21172297D01*
X-18350000Y18627705D01*
X-18349999Y18627705D01*
X-18347514Y18627900D01*
X-18189802Y18673719D01*
X-18048448Y18757315D01*
X-18048439Y18757322D01*
X-17932324Y18873437D01*
X-17927540Y18879604D01*
X-17925347Y18877903D01*
X-17883966Y18916550D01*
X-17815226Y18929062D01*
X-17810422Y18928458D01*
X-17783260Y18924500D01*
X-17783259Y18924500D01*
X-17416739Y18924500D01*
X-17394029Y18927809D01*
X-17348607Y18934427D01*
X-17243517Y18985802D01*
X-17221573Y19007746D01*
X-17187681Y19041637D01*
X-17126358Y19075122D01*
X-17056666Y19070138D01*
X-17012319Y19041637D01*
X-16956486Y18985804D01*
X-16956485Y18985804D01*
X-16956483Y18985802D01*
X-16851393Y18934427D01*
X-16817327Y18929464D01*
X-16783261Y18924500D01*
X-16783260Y18924500D01*
X-16416739Y18924500D01*
X-16394029Y18927809D01*
X-16348607Y18934427D01*
X-16243517Y18985802D01*
X-16160802Y19068517D01*
X-16109427Y19173607D01*
X-16099500Y19241740D01*
X-16099500Y19361995D01*
X-16079815Y19429034D01*
X-16027011Y19474789D01*
X-15957853Y19484733D01*
X-15894297Y19455708D01*
X-15887819Y19449676D01*
X-14350324Y17912181D01*
X-14316839Y17850858D01*
X-14321823Y17781166D01*
X-14363695Y17725233D01*
X-14429159Y17700816D01*
X-14438005Y17700500D01*
X-16620199Y17700500D01*
X-16729799Y17700500D01*
X-16729801Y17700500D01*
X-16729803Y17700499D01*
X-16831055Y17658561D01*
X-16831057Y17658559D01*
X-17656057Y16833558D01*
X-17656066Y16833549D01*
X-17661031Y16828585D01*
X-17722357Y16795106D01*
X-17730822Y16793571D01*
X-17751391Y16790574D01*
X-17751393Y16790573D01*
X-17856486Y16739197D01*
X-17912319Y16683363D01*
X-17973642Y16649878D01*
X-18043334Y16654862D01*
X-18087681Y16683363D01*
X-18143515Y16739197D01*
X-18181045Y16757544D01*
X-18248607Y16790573D01*
X-18248609Y16790574D01*
X-18248611Y16790574D01*
X-18269179Y16793571D01*
X-18332679Y16822716D01*
X-18338980Y16828594D01*
X-19288181Y17777795D01*
X-19321666Y17839118D01*
X-19324500Y17865476D01*
X-19324500Y18642201D01*
X-19304815Y18709240D01*
X-19252011Y18754995D01*
X-19182853Y18764939D01*
X-19137379Y18748933D01*
X-19010199Y18673719D01*
X-18852486Y18627900D01*
X-18852489Y18627900D01*
X-18850002Y18627705D01*
X-18850000Y18627705D01*
X-18850000Y21172297D01*
X-18852497Y21172100D01*
X-19010194Y21126284D01*
X-19010197Y21126283D01*
X-19151553Y21042686D01*
X-19151562Y21042679D01*
X-19267679Y20926562D01*
X-19272463Y20920393D01*
X-19274652Y20922091D01*
X-19316073Y20883432D01*
X-19384818Y20870944D01*
X-19389588Y20871544D01*
X-19391935Y20871886D01*
X-19416740Y20875500D01*
X-19783260Y20875500D01*
X-19783261Y20875500D01*
X-19851392Y20865574D01*
X-19956486Y20814197D01*
X-20039197Y20731486D01*
X-20090574Y20626392D01*
X-20100500Y20558261D01*
X-20100500Y19241740D01*
X-20090574Y19173609D01*
X-20039197Y19068515D01*
X-19956486Y18985804D01*
X-19956485Y18985804D01*
X-19956483Y18985802D01*
X-19945040Y18980208D01*
X-19893458Y18933082D01*
X-19875500Y18868808D01*
X-19875500Y17645199D01*
X-19844573Y17570535D01*
X-19842498Y17565527D01*
X-19842498Y17565526D01*
X-19833557Y17543940D01*
X-19601297Y17311681D01*
X-19567812Y17250358D01*
X-19572796Y17180667D01*
X-19614667Y17124733D01*
X-19680132Y17100316D01*
X-19688978Y17100000D01*
X-19715650Y17100000D01*
X-19752490Y17097101D01*
X-19752496Y17097100D01*
X-19910194Y17051284D01*
X-19910197Y17051283D01*
X-20051553Y16967686D01*
X-20051562Y16967679D01*
X-20167679Y16851562D01*
X-20167686Y16851553D01*
X-20251283Y16710197D01*
X-20251284Y16710194D01*
X-20297100Y16552496D01*
X-20297101Y16552490D01*
X-20300000Y16515650D01*
X-22699500Y16515650D01*
X-22699500Y23129270D01*
X-21700500Y23129270D01*
X-21700500Y21720731D01*
X-21697647Y21690301D01*
X-21697647Y21690299D01*
X-21655651Y21570286D01*
X-21652793Y21562118D01*
X-21572150Y21452850D01*
X-21462882Y21372207D01*
X-21426096Y21359335D01*
X-21334701Y21327354D01*
X-21304270Y21324500D01*
X-21304266Y21324500D01*
X-20495730Y21324500D01*
X-20465301Y21327354D01*
X-20465299Y21327354D01*
X-20401210Y21349781D01*
X-20337118Y21372207D01*
X-20227850Y21452850D01*
X-20147207Y21562118D01*
X-20114963Y21654266D01*
X-20102354Y21690299D01*
X-20102354Y21690301D01*
X-20099500Y21720731D01*
X-20099500Y23129270D01*
X-16100500Y23129270D01*
X-16100500Y21720731D01*
X-16097647Y21690301D01*
X-16097647Y21690299D01*
X-16055651Y21570286D01*
X-16052793Y21562118D01*
X-15972150Y21452850D01*
X-15862882Y21372207D01*
X-15826096Y21359335D01*
X-15734701Y21327354D01*
X-15704270Y21324500D01*
X-15704266Y21324500D01*
X-14895730Y21324500D01*
X-14865301Y21327354D01*
X-14865299Y21327354D01*
X-14801210Y21349781D01*
X-14737118Y21372207D01*
X-14627850Y21452850D01*
X-14547207Y21562118D01*
X-14514963Y21654266D01*
X-14502354Y21690299D01*
X-14502354Y21690301D01*
X-14499500Y21720731D01*
X-14499500Y23129270D01*
X-14502354Y23159700D01*
X-14502354Y23159702D01*
X-14547207Y23287881D01*
X-14547208Y23287883D01*
X-14551635Y23293882D01*
X-14593052Y23350000D01*
X-13779931Y23350000D01*
X-13777168Y23314878D01*
X-13777167Y23314872D01*
X-13732408Y23160812D01*
X-13732407Y23160809D01*
X-13650739Y23022715D01*
X-13650732Y23022706D01*
X-13537295Y22909269D01*
X-13537286Y22909262D01*
X-13399195Y22827596D01*
X-13260000Y22787156D01*
X-13260000Y23350000D01*
X-13779931Y23350000D01*
X-14593052Y23350000D01*
X-14627850Y23397150D01*
X-14737118Y23477793D01*
X-14737120Y23477794D01*
X-14865300Y23522647D01*
X-14895730Y23525500D01*
X-14895734Y23525500D01*
X-15704266Y23525500D01*
X-15704270Y23525500D01*
X-15734700Y23522647D01*
X-15734702Y23522647D01*
X-15862881Y23477794D01*
X-15862883Y23477793D01*
X-15972150Y23397150D01*
X-16052793Y23287883D01*
X-16052794Y23287881D01*
X-16097647Y23159702D01*
X-16097647Y23159700D01*
X-16100500Y23129270D01*
X-20099500Y23129270D01*
X-20102354Y23159700D01*
X-20102354Y23159702D01*
X-20147207Y23287881D01*
X-20147208Y23287883D01*
X-20151635Y23293882D01*
X-20227850Y23397150D01*
X-20337118Y23477793D01*
X-20337120Y23477794D01*
X-20465300Y23522647D01*
X-20495730Y23525500D01*
X-20495734Y23525500D01*
X-21304266Y23525500D01*
X-21304270Y23525500D01*
X-21334700Y23522647D01*
X-21334702Y23522647D01*
X-21462881Y23477794D01*
X-21462883Y23477793D01*
X-21572150Y23397150D01*
X-21652793Y23287883D01*
X-21652794Y23287881D01*
X-21697647Y23159702D01*
X-21697647Y23159700D01*
X-21700500Y23129270D01*
X-22699500Y23129270D01*
X-22699500Y27506287D01*
X-21750500Y27506287D01*
X-21750500Y27293713D01*
X-21717246Y27083757D01*
X-21651738Y26882144D01*
X-21651556Y26881586D01*
X-21555049Y26692180D01*
X-21430110Y26520214D01*
X-21279787Y26369891D01*
X-21107821Y26244952D01*
X-21107819Y26244951D01*
X-21107816Y26244949D01*
X-20918412Y26148443D01*
X-20716243Y26082754D01*
X-20506287Y26049500D01*
X-20506286Y26049500D01*
X-20293714Y26049500D01*
X-20293713Y26049500D01*
X-20083757Y26082754D01*
X-19881588Y26148443D01*
X-19692184Y26244949D01*
X-19670211Y26260914D01*
X-19520214Y26369891D01*
X-19520212Y26369894D01*
X-19520208Y26369896D01*
X-19369896Y26520208D01*
X-19369894Y26520212D01*
X-19369891Y26520214D01*
X-19244952Y26692180D01*
X-19244953Y26692180D01*
X-19244949Y26692184D01*
X-19148443Y26881588D01*
X-19082754Y27083757D01*
X-19049500Y27293713D01*
X-19049500Y27506287D01*
X-19082754Y27716243D01*
X-19148443Y27918412D01*
X-19244949Y28107816D01*
X-19244951Y28107819D01*
X-19244952Y28107821D01*
X-19369891Y28279787D01*
X-19520214Y28430110D01*
X-19692180Y28555049D01*
X-19881586Y28651556D01*
X-19881587Y28651557D01*
X-19881588Y28651557D01*
X-20083757Y28717246D01*
X-20083759Y28717247D01*
X-20083760Y28717247D01*
X-20260156Y28745185D01*
X-20293713Y28750500D01*
X-20506287Y28750500D01*
X-20539844Y28745185D01*
X-20716240Y28717247D01*
X-20918415Y28651556D01*
X-21107821Y28555049D01*
X-21279787Y28430110D01*
X-21430110Y28279787D01*
X-21555049Y28107821D01*
X-21651556Y27918415D01*
X-21717247Y27716240D01*
X-21745340Y27538868D01*
X-21750500Y27506287D01*
X-22699500Y27506287D01*
X-22699500Y29575500D01*
X-22679815Y29642539D01*
X-22627011Y29688294D01*
X-22575500Y29699500D01*
X22575500Y29699500D01*
X22642539Y29679815D01*
G37*
G04 #@! TD.AperFunction*
G04 #@! TA.AperFunction,Conductor*
G36*
X444985Y2735534D02*
G01*
X485444Y2710871D01*
X528505Y2692431D01*
X539026Y2687165D01*
X577912Y2664714D01*
X618088Y2646941D01*
X618101Y2646937D01*
X629480Y2643299D01*
X654466Y2625327D01*
X672160Y2628129D01*
X672162Y2628168D01*
X672364Y2628162D01*
X674738Y2628537D01*
X674933Y2628506D01*
X678340Y2627960D01*
X678351Y2627957D01*
X769754Y2624846D01*
X797483Y2630190D01*
X858198Y2622635D01*
X895868Y2591767D01*
X915354Y2565365D01*
X915360Y2565359D01*
X1022079Y2486595D01*
X1147273Y2442788D01*
X1158427Y2441742D01*
X1214599Y2417486D01*
X1245786Y2364845D01*
X1246134Y2363229D01*
X1256628Y2312496D01*
X1256632Y2312485D01*
X1285655Y2248932D01*
X1285659Y2248925D01*
X1317271Y2199736D01*
X1317273Y2199734D01*
X1317278Y2199726D01*
X1341402Y2171885D01*
X1356632Y2148185D01*
X1380048Y2096912D01*
X1387987Y2069875D01*
X1396008Y2014091D01*
X1396008Y1985912D01*
X1387988Y1930129D01*
X1380049Y1903091D01*
X1356633Y1851818D01*
X1341398Y1828113D01*
X1304490Y1785520D01*
X1283197Y1767069D01*
X1235780Y1736595D01*
X1210147Y1724888D01*
X1183109Y1716949D01*
X1156070Y1709010D01*
X1128180Y1705000D01*
X1071822Y1705000D01*
X1043934Y1709010D01*
X989848Y1724891D01*
X964218Y1736596D01*
X916801Y1767069D01*
X895505Y1785522D01*
X892847Y1788589D01*
X858597Y1828116D01*
X843365Y1851817D01*
X823201Y1895969D01*
X822458Y1897579D01*
X821533Y1899559D01*
X819196Y1903091D01*
X788231Y1949899D01*
X788230Y1949900D01*
X788227Y1949905D01*
X741537Y2001883D01*
X723625Y2019522D01*
X698434Y2033028D01*
X652220Y2057805D01*
X609869Y2101964D01*
X599999Y2145056D01*
X599999Y2450000D01*
X599907Y2450092D01*
X599336Y2450000D01*
X-301000Y2450000D01*
X-359191Y2468907D01*
X-395155Y2518407D01*
X-400000Y2549000D01*
X-400000Y2651000D01*
X-381093Y2709191D01*
X-331593Y2745155D01*
X-301000Y2750000D01*
X393458Y2750000D01*
X444985Y2735534D01*
G37*
G04 #@! TD.AperFunction*
G04 #@! TA.AperFunction,Conductor*
G36*
X-4027808Y5228298D02*
G01*
X-3997933Y5204919D01*
X-3978478Y5182466D01*
X-3978471Y5182460D01*
X-3978468Y5182457D01*
X-3934277Y5144164D01*
X-3934274Y5144162D01*
X-3916808Y5132938D01*
X-3895510Y5114483D01*
X-3884417Y5101682D01*
X-3858600Y5071886D01*
X-3843368Y5048185D01*
X-3823161Y5003941D01*
X-3822352Y5002189D01*
X-3821486Y5000339D01*
X-3821486Y5000338D01*
X-3821485Y5000337D01*
X-3788230Y4950100D01*
X-3747719Y4905000D01*
X-3741530Y4898110D01*
X-3723631Y4880483D01*
X-3723629Y4880481D01*
X-3652221Y4842196D01*
X-3609870Y4798037D01*
X-3600000Y4754945D01*
X-3600000Y4450001D01*
X-3599999Y4450000D01*
X-2699000Y4450000D01*
X-2640809Y4431093D01*
X-2604845Y4381593D01*
X-2600000Y4351000D01*
X-2600000Y4249000D01*
X-2618907Y4190809D01*
X-2668407Y4154845D01*
X-2699000Y4150000D01*
X-3393454Y4150000D01*
X-3444976Y4164464D01*
X-3485454Y4189135D01*
X-3539218Y4212157D01*
X-3539220Y4212158D01*
X-3539221Y4212158D01*
X-3556433Y4216771D01*
X-3562857Y4218728D01*
X-3563685Y4219012D01*
X-3563710Y4219019D01*
X-3593493Y4227189D01*
X-3681412Y4232687D01*
X-3738310Y4255190D01*
X-3754888Y4272706D01*
X-3815356Y4354637D01*
X-3815361Y4354642D01*
X-3922080Y4433406D01*
X-4047273Y4477213D01*
X-4077000Y4480000D01*
X-4149999Y4480000D01*
X-4150000Y4479999D01*
X-4150000Y3999000D01*
X-4168907Y3940809D01*
X-4218407Y3904845D01*
X-4249000Y3900000D01*
X-4351000Y3900000D01*
X-4409191Y3918907D01*
X-4445155Y3968407D01*
X-4450000Y3999000D01*
X-4450000Y4480001D01*
X-4460500Y4480001D01*
X-4518691Y4498908D01*
X-4554655Y4548408D01*
X-4559500Y4579001D01*
X-4559500Y4752340D01*
X-4540593Y4810531D01*
X-4530504Y4822343D01*
X-4348906Y5003941D01*
X-4142757Y5210092D01*
X-4088240Y5237869D01*
X-4027808Y5228298D01*
G37*
G04 #@! TD.AperFunction*
G04 #@! TA.AperFunction,Conductor*
G36*
X1016075Y6550990D02*
G01*
X1070145Y6535114D01*
X1095777Y6523408D01*
X1143194Y6492935D01*
X1164489Y6474483D01*
X1201398Y6431889D01*
X1216633Y6408184D01*
X1240049Y6356911D01*
X1247988Y6329873D01*
X1256008Y6274090D01*
X1256008Y6245912D01*
X1247988Y6190129D01*
X1240049Y6163091D01*
X1216633Y6111818D01*
X1201398Y6088113D01*
X1164490Y6045520D01*
X1143197Y6027069D01*
X1095780Y5996595D01*
X1070147Y5984888D01*
X1069010Y5984554D01*
X1016070Y5969010D01*
X988180Y5965000D01*
X931820Y5965000D01*
X903928Y5969010D01*
X871027Y5978671D01*
X871018Y5978673D01*
X849849Y5984889D01*
X824220Y5996594D01*
X766848Y6033464D01*
X754219Y6043096D01*
X738537Y6057182D01*
X731401Y6063592D01*
X681024Y6098570D01*
X665964Y6108086D01*
X665962Y6108087D01*
X665960Y6108088D01*
X665961Y6108088D01*
X578483Y6134746D01*
X508796Y6139730D01*
X486447Y6139958D01*
X483655Y6139986D01*
X483654Y6139986D01*
X390736Y6113730D01*
X363816Y6110000D01*
X-320848Y6110000D01*
X-377857Y6128523D01*
X-377864Y6128511D01*
X-377910Y6128541D01*
X-379039Y6128907D01*
X-381739Y6130941D01*
X-381930Y6131090D01*
X-444281Y6162611D01*
X-467368Y6172560D01*
X-558152Y6183624D01*
X-558154Y6183624D01*
X-627640Y6176434D01*
X-627660Y6176431D01*
X-652449Y6172322D01*
X-652453Y6172321D01*
X-734808Y6132545D01*
X-735899Y6131672D01*
X-736632Y6131397D01*
X-739513Y6129581D01*
X-739885Y6130171D01*
X-793157Y6110105D01*
X-797716Y6110000D01*
X-1020000Y6110000D01*
X-1078191Y6128907D01*
X-1114155Y6178407D01*
X-1119000Y6209000D01*
X-1119000Y6311000D01*
X-1100093Y6369191D01*
X-1050593Y6405155D01*
X-1020000Y6410000D01*
X357867Y6410000D01*
X392586Y6403713D01*
X396386Y6402290D01*
X396390Y6402288D01*
X396393Y6402288D01*
X396394Y6402287D01*
X420982Y6396675D01*
X485553Y6381937D01*
X555411Y6381937D01*
X555423Y6381937D01*
X580516Y6383475D01*
X666527Y6414561D01*
X725303Y6452335D01*
X753490Y6476760D01*
X764765Y6485200D01*
X824222Y6523410D01*
X849850Y6535113D01*
X849854Y6535114D01*
X857307Y6537303D01*
X903925Y6550990D01*
X931815Y6555000D01*
X988184Y6555000D01*
X1016075Y6550990D01*
G37*
G04 #@! TD.AperFunction*
M02*
