G04 #@! TF.GenerationSoftware,KiCad,Pcbnew,8.0.7*
G04 #@! TF.CreationDate,2025-01-02T16:39:49-08:00*
G04 #@! TF.ProjectId,RP2040_minimal_r2,52503230-3430-45f6-9d69-6e696d616c5f,REV2*
G04 #@! TF.SameCoordinates,PX5f5e100PY5f5e100*
G04 #@! TF.FileFunction,Copper,L2,Bot*
G04 #@! TF.FilePolarity,Positive*
%FSLAX46Y46*%
G04 Gerber Fmt 4.6, Leading zero omitted, Abs format (unit mm)*
G04 Created by KiCad (PCBNEW 8.0.7) date 2025-01-02 16:39:49*
%MOMM*%
%LPD*%
G01*
G04 APERTURE LIST*
G04 #@! TA.AperFunction,ComponentPad*
%ADD10C,0.600000*%
G04 #@! TD*
G04 #@! TA.AperFunction,ComponentPad*
%ADD11R,1.700000X1.700000*%
G04 #@! TD*
G04 #@! TA.AperFunction,ComponentPad*
%ADD12O,1.700000X1.700000*%
G04 #@! TD*
G04 #@! TA.AperFunction,ViaPad*
%ADD13C,0.600000*%
G04 #@! TD*
G04 #@! TA.AperFunction,Conductor*
%ADD14C,0.150000*%
G04 #@! TD*
G04 #@! TA.AperFunction,Conductor*
%ADD15C,0.200000*%
G04 #@! TD*
G04 #@! TA.AperFunction,Conductor*
%ADD16C,0.400000*%
G04 #@! TD*
G04 APERTURE END LIST*
D10*
X-2775000Y14500000D03*
X-2775000Y13225000D03*
X-2775000Y11950000D03*
X-1500000Y14500000D03*
X-1500000Y13225000D03*
X-1500000Y11950000D03*
X-225000Y14500000D03*
X-225000Y13225000D03*
X-225000Y11950000D03*
D11*
X3800000Y26500000D03*
D12*
X1260000Y26500000D03*
X-1280000Y26500000D03*
X-3820000Y26500000D03*
D13*
X-14950000Y28450000D03*
X-9000000Y26500000D03*
X-6500000Y5000000D03*
X15500000Y-1000000D03*
X10000000Y-1000000D03*
X4500000Y-1000000D03*
X9000000Y6500000D03*
X14500000Y6500000D03*
X20000000Y6500000D03*
X-7950000Y-950000D03*
X-18500000Y-500000D03*
X-18500000Y7000000D03*
X-18500000Y14500000D03*
X-19600000Y21400000D03*
X-4937500Y9500000D03*
X960000Y6260000D03*
X19600000Y23100000D03*
X-5600000Y26500000D03*
X-2000000Y-1800000D03*
X2500000Y21200000D03*
X4180000Y18980000D03*
X18500000Y14400000D03*
X-11800000Y19760000D03*
X6375000Y12000000D03*
X1100000Y2000000D03*
X-8675000Y12000000D03*
X-8100000Y16900000D03*
X-4100000Y4900000D03*
X-2500000Y21200000D03*
X-2800000Y8600000D03*
X8700000Y26100000D03*
X-1700000Y18025006D03*
X-800000Y15325000D03*
X-700000Y8025000D03*
X-900030Y11125000D03*
X11050000Y17500000D03*
X11050000Y13750000D03*
X8600000Y19900000D03*
D14*
X-4937500Y6562500D02*
X-6500000Y5000000D01*
X-4937500Y9500000D02*
X-4937500Y6562500D01*
D15*
X2500000Y20225000D02*
X2300000Y20225000D01*
D16*
X-700000Y8025000D02*
X-910000Y8235000D01*
X-910000Y8235000D02*
X-910000Y11115030D01*
X184620Y11125000D02*
X-900030Y11125000D01*
X625000Y11565380D02*
X184620Y11125000D01*
X-800000Y15325000D02*
X334620Y15325000D01*
X-910000Y11115030D02*
X-900030Y11125000D01*
X625000Y15034620D02*
X625000Y11565380D01*
X-1700000Y16215000D02*
X-810000Y15325000D01*
X-1700000Y18025006D02*
X-1700000Y16215000D01*
X-810000Y15325000D02*
X-800000Y15325000D01*
X334620Y15325000D02*
X625000Y15034620D01*
D15*
X11050000Y13750000D02*
X11050000Y17500000D01*
X11050000Y17500000D02*
X11050000Y17550000D01*
G04 #@! TA.AperFunction,Conductor*
G36*
X22658691Y29680593D02*
G01*
X22694655Y29631093D01*
X22699500Y29600500D01*
X22699500Y-3600500D01*
X22680593Y-3658691D01*
X22631093Y-3694655D01*
X22600500Y-3699500D01*
X-22600500Y-3699500D01*
X-22658691Y-3680593D01*
X-22694655Y-3631093D01*
X-22699500Y-3600500D01*
X-22699500Y-1293709D01*
X19049500Y-1293709D01*
X19049500Y-1506290D01*
X19082752Y-1716238D01*
X19148443Y-1918412D01*
X19244948Y-2107815D01*
X19244950Y-2107819D01*
X19369891Y-2279786D01*
X19369893Y-2279788D01*
X19369896Y-2279792D01*
X19520208Y-2430104D01*
X19520211Y-2430106D01*
X19520213Y-2430108D01*
X19692180Y-2555049D01*
X19692184Y-2555051D01*
X19881588Y-2651557D01*
X20083757Y-2717246D01*
X20083758Y-2717246D01*
X20083761Y-2717247D01*
X20293710Y-2750500D01*
X20293713Y-2750500D01*
X20506290Y-2750500D01*
X20716238Y-2717247D01*
X20716239Y-2717246D01*
X20716243Y-2717246D01*
X20918412Y-2651557D01*
X21107816Y-2555051D01*
X21279792Y-2430104D01*
X21430104Y-2279792D01*
X21555051Y-2107816D01*
X21651557Y-1918412D01*
X21717246Y-1716243D01*
X21750500Y-1506287D01*
X21750500Y-1293713D01*
X21750500Y-1293709D01*
X21717247Y-1083761D01*
X21717246Y-1083757D01*
X21651557Y-881588D01*
X21555051Y-692184D01*
X21555049Y-692180D01*
X21430108Y-520213D01*
X21430106Y-520211D01*
X21430104Y-520208D01*
X21279792Y-369896D01*
X21279788Y-369893D01*
X21279786Y-369891D01*
X21107819Y-244950D01*
X21107815Y-244948D01*
X20918412Y-148443D01*
X20716238Y-82752D01*
X20506290Y-49500D01*
X20506287Y-49500D01*
X20293713Y-49500D01*
X20293710Y-49500D01*
X20083761Y-82752D01*
X19881587Y-148443D01*
X19692184Y-244948D01*
X19692180Y-244950D01*
X19520213Y-369891D01*
X19369891Y-520213D01*
X19244950Y-692180D01*
X19244948Y-692184D01*
X19148443Y-881587D01*
X19082752Y-1083761D01*
X19049500Y-1293709D01*
X-22699500Y-1293709D01*
X-22699500Y5000003D01*
X-7005647Y5000003D01*
X-7005647Y4999998D01*
X-6985166Y4857544D01*
X-6925378Y4726629D01*
X-6925377Y4726627D01*
X-6831128Y4617857D01*
X-6831127Y4617856D01*
X-6710058Y4540050D01*
X-6710053Y4540047D01*
X-6603597Y4508789D01*
X-6571965Y4499501D01*
X-6571964Y4499501D01*
X-6571961Y4499500D01*
X-6571959Y4499500D01*
X-6428041Y4499500D01*
X-6428039Y4499500D01*
X-6289947Y4540047D01*
X-6168872Y4617857D01*
X-6074623Y4726627D01*
X-6014835Y4857543D01*
X-5994353Y5000000D01*
X-6001887Y5052397D01*
X-5991455Y5112682D01*
X-5973902Y5136484D01*
X-4703942Y6406442D01*
X-4662000Y6507700D01*
X-4662000Y6617300D01*
X-4662000Y9028049D01*
X-4643093Y9086240D01*
X-4616522Y9111334D01*
X-4615377Y9112071D01*
X-4606372Y9117857D01*
X-4512123Y9226627D01*
X-4452335Y9357543D01*
X-4431853Y9500000D01*
X-4452335Y9642457D01*
X-4512123Y9773373D01*
X-4606372Y9882143D01*
X-4606373Y9882144D01*
X-4606374Y9882145D01*
X-4727443Y9959951D01*
X-4727446Y9959953D01*
X-4727447Y9959953D01*
X-4727450Y9959954D01*
X-4865536Y10000500D01*
X-4865539Y10000500D01*
X-5009461Y10000500D01*
X-5009465Y10000500D01*
X-5147551Y9959954D01*
X-5147558Y9959951D01*
X-5268627Y9882145D01*
X-5362878Y9773372D01*
X-5422666Y9642457D01*
X-5443147Y9500003D01*
X-5443147Y9499998D01*
X-5422666Y9357544D01*
X-5362877Y9226627D01*
X-5268628Y9117857D01*
X-5260537Y9112657D01*
X-5258478Y9111334D01*
X-5219746Y9063968D01*
X-5213000Y9028049D01*
X-5213000Y6717625D01*
X-5231907Y6659434D01*
X-5241996Y6647621D01*
X-6360121Y5529496D01*
X-6414638Y5501719D01*
X-6430125Y5500500D01*
X-6571965Y5500500D01*
X-6710051Y5459954D01*
X-6710058Y5459951D01*
X-6831127Y5382145D01*
X-6925378Y5273372D01*
X-6985166Y5142457D01*
X-7005647Y5000003D01*
X-22699500Y5000003D01*
X-22699500Y18025009D01*
X-2205647Y18025009D01*
X-2205647Y18025004D01*
X-2185166Y17882550D01*
X-2125377Y17751633D01*
X-2124684Y17750833D01*
X-2124340Y17750017D01*
X-2121547Y17745672D01*
X-2122299Y17745190D01*
X-2100864Y17694475D01*
X-2100500Y17685998D01*
X-2100500Y16267727D01*
X-2100500Y16162273D01*
X-2076430Y16072441D01*
X-2073206Y16060408D01*
X-2020484Y15969092D01*
X-2020483Y15969091D01*
X-2020482Y15969090D01*
X-2020480Y15969087D01*
X-1406493Y15355100D01*
X-1317067Y15265674D01*
X-1289290Y15211157D01*
X-1289079Y15209763D01*
X-1285165Y15182543D01*
X-1225377Y15051627D01*
X-1131128Y14942857D01*
X-1131127Y14942856D01*
X-1010058Y14865050D01*
X-1010053Y14865047D01*
X-903597Y14833789D01*
X-871965Y14824501D01*
X-871964Y14824501D01*
X-871961Y14824500D01*
X-871959Y14824500D01*
X-728041Y14824500D01*
X-728039Y14824500D01*
X-589947Y14865047D01*
X-521890Y14908785D01*
X-468368Y14924500D01*
X125500Y14924500D01*
X183691Y14905593D01*
X219655Y14856093D01*
X224500Y14825500D01*
X224500Y11772281D01*
X205593Y11714090D01*
X195504Y11702277D01*
X47723Y11554496D01*
X-6794Y11526719D01*
X-22281Y11525500D01*
X-568398Y11525500D01*
X-621920Y11541216D01*
X-689977Y11584953D01*
X-689980Y11584954D01*
X-828066Y11625500D01*
X-828069Y11625500D01*
X-971991Y11625500D01*
X-971995Y11625500D01*
X-1110081Y11584954D01*
X-1110088Y11584951D01*
X-1231157Y11507145D01*
X-1325408Y11398372D01*
X-1385196Y11267457D01*
X-1405677Y11125003D01*
X-1405677Y11124998D01*
X-1385196Y10982544D01*
X-1385196Y10982542D01*
X-1322466Y10845185D01*
X-1323780Y10844585D01*
X-1310500Y10799362D01*
X-1310500Y8287727D01*
X-1310500Y8182273D01*
X-1306530Y8167457D01*
X-1283206Y8080408D01*
X-1230484Y7989092D01*
X-1230482Y7989090D01*
X-1230480Y7989087D01*
X-1218745Y7977352D01*
X-1190969Y7922837D01*
X-1190758Y7921439D01*
X-1185166Y7882544D01*
X-1125378Y7751629D01*
X-1125377Y7751627D01*
X-1031128Y7642857D01*
X-1031127Y7642856D01*
X-910058Y7565050D01*
X-910053Y7565047D01*
X-803597Y7533789D01*
X-771965Y7524501D01*
X-771964Y7524501D01*
X-771961Y7524500D01*
X-771959Y7524500D01*
X-628041Y7524500D01*
X-628039Y7524500D01*
X-489947Y7565047D01*
X-368872Y7642857D01*
X-274623Y7751627D01*
X-214835Y7882543D01*
X-194353Y8025000D01*
X-214835Y8167457D01*
X-274623Y8298373D01*
X-368872Y8407143D01*
X-415728Y8437256D01*
X-464024Y8468294D01*
X-502755Y8515661D01*
X-509500Y8551578D01*
X-509500Y10625500D01*
X-490593Y10683691D01*
X-441093Y10719655D01*
X-410500Y10724500D01*
X237345Y10724500D01*
X237347Y10724500D01*
X339208Y10751793D01*
X339210Y10751795D01*
X339212Y10751795D01*
X430528Y10804517D01*
X430528Y10804518D01*
X430533Y10804520D01*
X945480Y11319467D01*
X976105Y11372513D01*
X998169Y11410727D01*
X998179Y11410746D01*
X998206Y11410792D01*
X998207Y11410793D01*
X1025500Y11512653D01*
X1025500Y15087347D01*
X998207Y15189207D01*
X967510Y15242375D01*
X945480Y15280533D01*
X870914Y15355100D01*
X580533Y15645480D01*
X580528Y15645484D01*
X489211Y15698206D01*
X489213Y15698206D01*
X449690Y15708796D01*
X387347Y15725500D01*
X387345Y15725500D01*
X-468368Y15725500D01*
X-521890Y15741216D01*
X-589947Y15784953D01*
X-726540Y15825060D01*
X-768653Y15850046D01*
X-1270504Y16351897D01*
X-1298281Y16406414D01*
X-1299500Y16421901D01*
X-1299500Y17500003D01*
X10544353Y17500003D01*
X10544353Y17499998D01*
X10564834Y17357544D01*
X10624623Y17226627D01*
X10723509Y17112506D01*
X10721471Y17110741D01*
X10746925Y17068542D01*
X10749500Y17046107D01*
X10749500Y14203895D01*
X10730593Y14145704D01*
X10723258Y14137711D01*
X10723509Y14137494D01*
X10624622Y14023372D01*
X10564834Y13892457D01*
X10544353Y13750003D01*
X10544353Y13749998D01*
X10564834Y13607544D01*
X10624622Y13476629D01*
X10624623Y13476627D01*
X10718872Y13367857D01*
X10718873Y13367856D01*
X10839942Y13290050D01*
X10839947Y13290047D01*
X10946403Y13258789D01*
X10978035Y13249501D01*
X10978036Y13249501D01*
X10978039Y13249500D01*
X10978041Y13249500D01*
X11121959Y13249500D01*
X11121961Y13249500D01*
X11260053Y13290047D01*
X11381128Y13367857D01*
X11475377Y13476627D01*
X11535165Y13607543D01*
X11555647Y13750000D01*
X11535165Y13892457D01*
X11475377Y14023373D01*
X11381128Y14132143D01*
X11381127Y14132144D01*
X11376491Y14137494D01*
X11378524Y14139257D01*
X11353067Y14181495D01*
X11350500Y14203895D01*
X11350500Y17046107D01*
X11369407Y17104298D01*
X11376741Y17112289D01*
X11376491Y17112506D01*
X11381128Y17117857D01*
X11475377Y17226627D01*
X11535165Y17357543D01*
X11555647Y17500000D01*
X11535165Y17642457D01*
X11475377Y17773373D01*
X11381128Y17882143D01*
X11381127Y17882144D01*
X11381126Y17882145D01*
X11260057Y17959951D01*
X11260054Y17959953D01*
X11260053Y17959953D01*
X11260050Y17959954D01*
X11121964Y18000500D01*
X11121961Y18000500D01*
X10978039Y18000500D01*
X10978035Y18000500D01*
X10839949Y17959954D01*
X10839942Y17959951D01*
X10718873Y17882145D01*
X10624622Y17773372D01*
X10564834Y17642457D01*
X10544353Y17500003D01*
X-1299500Y17500003D01*
X-1299500Y17685998D01*
X-1280593Y17744189D01*
X-1275316Y17750833D01*
X-1275193Y17750977D01*
X-1274623Y17751633D01*
X-1214835Y17882549D01*
X-1194353Y18025006D01*
X-1214835Y18167463D01*
X-1274623Y18298379D01*
X-1368872Y18407149D01*
X-1368873Y18407150D01*
X-1368874Y18407151D01*
X-1489943Y18484957D01*
X-1489946Y18484959D01*
X-1489947Y18484959D01*
X-1489950Y18484960D01*
X-1628036Y18525506D01*
X-1628039Y18525506D01*
X-1771961Y18525506D01*
X-1771965Y18525506D01*
X-1910051Y18484960D01*
X-1910058Y18484957D01*
X-2031127Y18407151D01*
X-2125378Y18298378D01*
X-2185166Y18167463D01*
X-2205647Y18025009D01*
X-22699500Y18025009D01*
X-22699500Y27506291D01*
X-21750500Y27506291D01*
X-21750500Y27293710D01*
X-21717248Y27083762D01*
X-21651557Y26881588D01*
X-21555052Y26692185D01*
X-21555050Y26692181D01*
X-21430109Y26520214D01*
X-21430107Y26520212D01*
X-21430104Y26520208D01*
X-21279792Y26369896D01*
X-21279789Y26369894D01*
X-21279787Y26369892D01*
X-21107820Y26244951D01*
X-21107816Y26244949D01*
X-20918412Y26148443D01*
X-20716243Y26082754D01*
X-20716242Y26082754D01*
X-20716239Y26082753D01*
X-20506290Y26049500D01*
X-20506287Y26049500D01*
X-20293710Y26049500D01*
X-20083762Y26082753D01*
X-20083761Y26082754D01*
X-20083757Y26082754D01*
X-19881588Y26148443D01*
X-19692184Y26244949D01*
X-19520208Y26369896D01*
X-19369896Y26520208D01*
X-19275597Y26650000D01*
X-4961027Y26650000D01*
X-4297445Y26650000D01*
X-4320000Y26565826D01*
X-4320000Y26434174D01*
X-4297445Y26350000D01*
X-4961027Y26350000D01*
X-4955262Y26287784D01*
X-4896936Y26082790D01*
X-4801943Y25892017D01*
X-4801938Y25892008D01*
X-4673504Y25721936D01*
X-4673494Y25721925D01*
X-4516005Y25578353D01*
X-4516006Y25578353D01*
X-4334794Y25466153D01*
X-4136059Y25389162D01*
X-3970001Y25358120D01*
X-3970000Y25358120D01*
X-3970000Y26022555D01*
X-3885826Y26000000D01*
X-3754174Y26000000D01*
X-3670000Y26022555D01*
X-3670000Y25358120D01*
X-3503942Y25389162D01*
X-3305207Y25466153D01*
X-3123996Y25578353D01*
X-2966507Y25721925D01*
X-2966497Y25721936D01*
X-2838063Y25892008D01*
X-2838058Y25892017D01*
X-2743065Y26082790D01*
X-2684739Y26287784D01*
X-2678973Y26350000D01*
X-3342555Y26350000D01*
X-3320000Y26434174D01*
X-3320000Y26500004D01*
X-2335583Y26500004D01*
X-2335583Y26499997D01*
X-2315302Y26294071D01*
X-2315301Y26294066D01*
X-2255232Y26096046D01*
X-2157684Y25913548D01*
X-2026415Y25753596D01*
X-2026410Y25753590D01*
X-2026405Y25753586D01*
X-1866453Y25622317D01*
X-1866452Y25622317D01*
X-1866450Y25622315D01*
X-1683954Y25524768D01*
X-1546003Y25482922D01*
X-1485935Y25464700D01*
X-1485930Y25464699D01*
X-1280003Y25444417D01*
X-1280000Y25444417D01*
X-1279997Y25444417D01*
X-1074071Y25464699D01*
X-1074066Y25464700D01*
X-1069276Y25466153D01*
X-876046Y25524768D01*
X-693550Y25622315D01*
X-533590Y25753590D01*
X-402315Y25913550D01*
X-304768Y26096046D01*
X-244700Y26294066D01*
X-244699Y26294071D01*
X-224417Y26499997D01*
X-224417Y26500004D01*
X204417Y26500004D01*
X204417Y26499997D01*
X224698Y26294071D01*
X224699Y26294066D01*
X284768Y26096046D01*
X382316Y25913548D01*
X513585Y25753596D01*
X513590Y25753590D01*
X513595Y25753586D01*
X673547Y25622317D01*
X673548Y25622317D01*
X673550Y25622315D01*
X856046Y25524768D01*
X993997Y25482922D01*
X1054065Y25464700D01*
X1054070Y25464699D01*
X1259997Y25444417D01*
X1260000Y25444417D01*
X1260003Y25444417D01*
X1465929Y25464699D01*
X1465934Y25464700D01*
X1470724Y25466153D01*
X1663954Y25524768D01*
X1846450Y25622315D01*
X2006410Y25753590D01*
X2137685Y25913550D01*
X2235232Y26096046D01*
X2295300Y26294066D01*
X2295301Y26294071D01*
X2315583Y26499997D01*
X2315583Y26500004D01*
X2295301Y26705930D01*
X2295300Y26705935D01*
X2264640Y26807007D01*
X2235232Y26903954D01*
X2137685Y27086450D01*
X2120005Y27107993D01*
X2006414Y27246405D01*
X2006410Y27246410D01*
X1967825Y27278076D01*
X1856123Y27369747D01*
X2749500Y27369747D01*
X2749500Y25630254D01*
X2749501Y25630242D01*
X2761132Y25571773D01*
X2761134Y25571767D01*
X2805445Y25505452D01*
X2805448Y25505448D01*
X2871769Y25461133D01*
X2916231Y25452289D01*
X2930241Y25449502D01*
X2930246Y25449502D01*
X2930252Y25449500D01*
X2930253Y25449500D01*
X4669747Y25449500D01*
X4669748Y25449500D01*
X4728231Y25461133D01*
X4794552Y25505448D01*
X4838867Y25571769D01*
X4850500Y25630252D01*
X4850500Y27369748D01*
X4848921Y27377684D01*
X4840176Y27421648D01*
X4838867Y27428231D01*
X4794552Y27494552D01*
X4776984Y27506291D01*
X4728233Y27538866D01*
X4728231Y27538867D01*
X4728228Y27538868D01*
X4728227Y27538868D01*
X4669758Y27550499D01*
X4669748Y27550500D01*
X2930252Y27550500D01*
X2930251Y27550500D01*
X2930241Y27550499D01*
X2871772Y27538868D01*
X2871766Y27538866D01*
X2805451Y27494555D01*
X2805445Y27494549D01*
X2761134Y27428234D01*
X2761132Y27428228D01*
X2749501Y27369759D01*
X2749500Y27369747D01*
X1856123Y27369747D01*
X1846452Y27377684D01*
X1663954Y27475232D01*
X1465934Y27535301D01*
X1465929Y27535302D01*
X1260003Y27555583D01*
X1259997Y27555583D01*
X1054070Y27535302D01*
X1054065Y27535301D01*
X856045Y27475232D01*
X673547Y27377684D01*
X513595Y27246415D01*
X513585Y27246405D01*
X382316Y27086453D01*
X284768Y26903955D01*
X224699Y26705935D01*
X224698Y26705930D01*
X204417Y26500004D01*
X-224417Y26500004D01*
X-244699Y26705930D01*
X-244700Y26705935D01*
X-275360Y26807007D01*
X-304768Y26903954D01*
X-402315Y27086450D01*
X-419995Y27107993D01*
X-533586Y27246405D01*
X-533590Y27246410D01*
X-572175Y27278076D01*
X-693548Y27377684D01*
X-876046Y27475232D01*
X-1074066Y27535301D01*
X-1074071Y27535302D01*
X-1279997Y27555583D01*
X-1280003Y27555583D01*
X-1485930Y27535302D01*
X-1485935Y27535301D01*
X-1683955Y27475232D01*
X-1866453Y27377684D01*
X-2026405Y27246415D01*
X-2026415Y27246405D01*
X-2157684Y27086453D01*
X-2255232Y26903955D01*
X-2315301Y26705935D01*
X-2315302Y26705930D01*
X-2335583Y26500004D01*
X-3320000Y26500004D01*
X-3320000Y26565826D01*
X-3342555Y26650000D01*
X-2678974Y26650000D01*
X-2684739Y26712217D01*
X-2743065Y26917211D01*
X-2838058Y27107984D01*
X-2838063Y27107993D01*
X-2966497Y27278065D01*
X-2966507Y27278076D01*
X-3123996Y27421648D01*
X-3123995Y27421648D01*
X-3305207Y27533848D01*
X-3503939Y27610838D01*
X-3503945Y27610840D01*
X-3670000Y27641882D01*
X-3670000Y26977446D01*
X-3754174Y27000000D01*
X-3885826Y27000000D01*
X-3970000Y26977446D01*
X-3970000Y27641881D01*
X-3970001Y27641882D01*
X-4136056Y27610840D01*
X-4136062Y27610838D01*
X-4334794Y27533848D01*
X-4516005Y27421648D01*
X-4673494Y27278076D01*
X-4673504Y27278065D01*
X-4801938Y27107993D01*
X-4801943Y27107984D01*
X-4896936Y26917211D01*
X-4955262Y26712217D01*
X-4961027Y26650000D01*
X-19275597Y26650000D01*
X-19244951Y26692181D01*
X-19244949Y26692184D01*
X-19148443Y26881588D01*
X-19082754Y27083757D01*
X-19078915Y27107993D01*
X-19049500Y27293710D01*
X-19049500Y27506291D01*
X-19082753Y27716239D01*
X-19082754Y27716243D01*
X-19148443Y27918412D01*
X-19244949Y28107816D01*
X-19244951Y28107820D01*
X-19369892Y28279787D01*
X-19369894Y28279789D01*
X-19369896Y28279792D01*
X-19520208Y28430104D01*
X-19520212Y28430107D01*
X-19520214Y28430109D01*
X-19692181Y28555050D01*
X-19692185Y28555052D01*
X-19881588Y28651557D01*
X-20083762Y28717248D01*
X-20293710Y28750500D01*
X-20293713Y28750500D01*
X-20506287Y28750500D01*
X-20506290Y28750500D01*
X-20716239Y28717248D01*
X-20918413Y28651557D01*
X-21107816Y28555052D01*
X-21107820Y28555050D01*
X-21279787Y28430109D01*
X-21430109Y28279787D01*
X-21555050Y28107820D01*
X-21555052Y28107816D01*
X-21651557Y27918413D01*
X-21717248Y27716239D01*
X-21750500Y27506291D01*
X-22699500Y27506291D01*
X-22699500Y29600500D01*
X-22680593Y29658691D01*
X-22631093Y29694655D01*
X-22600500Y29699500D01*
X22600500Y29699500D01*
X22658691Y29680593D01*
G37*
G04 #@! TD.AperFunction*
M02*
