G04 #@! TF.GenerationSoftware,KiCad,Pcbnew,8.0.7*
G04 #@! TF.CreationDate,2025-01-01T17:44:55-08:00*
G04 #@! TF.ProjectId,RP2040_minimal_r2,52503230-3430-45f6-9d69-6e696d616c5f,REV2*
G04 #@! TF.SameCoordinates,PX5f5e100PY5f5e100*
G04 #@! TF.FileFunction,Soldermask,Bot*
G04 #@! TF.FilePolarity,Negative*
%FSLAX46Y46*%
G04 Gerber Fmt 4.6, Leading zero omitted, Abs format (unit mm)*
G04 Created by KiCad (PCBNEW 8.0.7) date 2025-01-01 17:44:55*
%MOMM*%
%LPD*%
G01*
G04 APERTURE LIST*
G04 APERTURE END LIST*
G36*
X20714986Y-292939D02*
G01*
X20913045Y-369667D01*
X21093632Y-481482D01*
X21250599Y-624576D01*
X21378600Y-794077D01*
X21473276Y-984211D01*
X21531402Y-1188504D01*
X21551000Y-1400000D01*
X21531402Y-1611496D01*
X21473276Y-1815789D01*
X21378600Y-2005923D01*
X21250599Y-2175424D01*
X21093632Y-2318518D01*
X20913045Y-2430333D01*
X20714986Y-2507061D01*
X20506201Y-2546090D01*
X20293799Y-2546090D01*
X20085014Y-2507061D01*
X19886955Y-2430333D01*
X19706368Y-2318518D01*
X19549401Y-2175424D01*
X19421400Y-2005923D01*
X19326724Y-1815789D01*
X19268598Y-1611496D01*
X19249000Y-1400000D01*
X19268598Y-1188504D01*
X19326724Y-984211D01*
X19421400Y-794077D01*
X19549401Y-624576D01*
X19706368Y-481482D01*
X19886955Y-369667D01*
X20085014Y-292939D01*
X20293799Y-253910D01*
X20506201Y-253910D01*
X20714986Y-292939D01*
G37*
G36*
X4669517Y27397118D02*
G01*
X4686062Y27386062D01*
X4697118Y27369517D01*
X4701000Y27350000D01*
X4701000Y25650000D01*
X4697118Y25630483D01*
X4686062Y25613938D01*
X4669517Y25602882D01*
X4650000Y25599000D01*
X2950000Y25599000D01*
X2930483Y25602882D01*
X2913938Y25613938D01*
X2902882Y25630483D01*
X2899000Y25650000D01*
X2899000Y27350000D01*
X2902882Y27369517D01*
X2913938Y27386062D01*
X2930483Y27397118D01*
X2950000Y27401000D01*
X4650000Y27401000D01*
X4669517Y27397118D01*
G37*
G36*
X-3772087Y27396064D02*
G01*
X-3725820Y27396064D01*
X-3685871Y27387573D01*
X-3644267Y27383475D01*
X-3592002Y27367621D01*
X-3541576Y27356902D01*
X-3509306Y27342535D01*
X-3475288Y27332215D01*
X-3421233Y27303322D01*
X-3369500Y27280289D01*
X-3345449Y27262815D01*
X-3319553Y27248973D01*
X-3266729Y27205622D01*
X-3217113Y27169573D01*
X-3201004Y27151682D01*
X-3183052Y27136949D01*
X-3134812Y27078169D01*
X-3091076Y27029595D01*
X-3081889Y27013681D01*
X-3071028Y27000448D01*
X-3030851Y26925281D01*
X-2996896Y26866470D01*
X-2992991Y26854450D01*
X-2987786Y26844713D01*
X-2959087Y26750104D01*
X-2938689Y26687328D01*
X-2937972Y26680498D01*
X-2936526Y26675734D01*
X-2922464Y26532958D01*
X-2919000Y26500000D01*
X-2922465Y26467041D01*
X-2936526Y26324267D01*
X-2937971Y26319504D01*
X-2938689Y26312672D01*
X-2959091Y26249883D01*
X-2987786Y26155288D01*
X-2992990Y26145553D01*
X-2996896Y26133530D01*
X-3030858Y26074707D01*
X-3071028Y25999553D01*
X-3081887Y25986323D01*
X-3091076Y25970405D01*
X-3134822Y25921822D01*
X-3183052Y25863052D01*
X-3201000Y25848323D01*
X-3217113Y25830427D01*
X-3266740Y25794372D01*
X-3319553Y25751028D01*
X-3345443Y25737190D01*
X-3369500Y25719711D01*
X-3421244Y25696674D01*
X-3475288Y25667786D01*
X-3509299Y25657469D01*
X-3541576Y25643098D01*
X-3592013Y25632378D01*
X-3644267Y25616526D01*
X-3685862Y25612430D01*
X-3725820Y25603936D01*
X-3772097Y25603936D01*
X-3820000Y25599218D01*
X-3867903Y25603936D01*
X-3914180Y25603936D01*
X-3954138Y25612430D01*
X-3995734Y25616526D01*
X-4047991Y25632379D01*
X-4098424Y25643098D01*
X-4130700Y25657468D01*
X-4164713Y25667786D01*
X-4218763Y25696677D01*
X-4270500Y25719711D01*
X-4294555Y25737188D01*
X-4320448Y25751028D01*
X-4373270Y25794378D01*
X-4422887Y25830427D01*
X-4438998Y25848320D01*
X-4456949Y25863052D01*
X-4505191Y25921834D01*
X-4548924Y25970405D01*
X-4558112Y25986319D01*
X-4568973Y25999553D01*
X-4609156Y26074731D01*
X-4643104Y26133530D01*
X-4647009Y26145549D01*
X-4652215Y26155288D01*
X-4680925Y26249929D01*
X-4701311Y26312672D01*
X-4702029Y26319499D01*
X-4703475Y26324267D01*
X-4717552Y26467192D01*
X-4721000Y26500000D01*
X-4717552Y26532806D01*
X-4703475Y26675734D01*
X-4702029Y26680503D01*
X-4701311Y26687328D01*
X-4680929Y26750058D01*
X-4652215Y26844713D01*
X-4647009Y26854455D01*
X-4643104Y26866470D01*
X-4609164Y26925258D01*
X-4568973Y27000448D01*
X-4558110Y27013686D01*
X-4548924Y27029595D01*
X-4505200Y27078157D01*
X-4456949Y27136949D01*
X-4438995Y27151685D01*
X-4422887Y27169573D01*
X-4373280Y27205615D01*
X-4320448Y27248973D01*
X-4294550Y27262817D01*
X-4270500Y27280289D01*
X-4218774Y27303319D01*
X-4164713Y27332215D01*
X-4130693Y27342536D01*
X-4098424Y27356902D01*
X-4048002Y27367620D01*
X-3995734Y27383475D01*
X-3954129Y27387573D01*
X-3914180Y27396064D01*
X-3867914Y27396064D01*
X-3820000Y27400783D01*
X-3772087Y27396064D01*
G37*
G36*
X-1232087Y27396064D02*
G01*
X-1185820Y27396064D01*
X-1145871Y27387573D01*
X-1104267Y27383475D01*
X-1052002Y27367621D01*
X-1001576Y27356902D01*
X-969306Y27342535D01*
X-935288Y27332215D01*
X-881233Y27303322D01*
X-829500Y27280289D01*
X-805449Y27262815D01*
X-779553Y27248973D01*
X-726729Y27205622D01*
X-677113Y27169573D01*
X-661004Y27151682D01*
X-643052Y27136949D01*
X-594812Y27078169D01*
X-551076Y27029595D01*
X-541889Y27013681D01*
X-531028Y27000448D01*
X-490851Y26925281D01*
X-456896Y26866470D01*
X-452991Y26854450D01*
X-447786Y26844713D01*
X-419087Y26750104D01*
X-398689Y26687328D01*
X-397972Y26680498D01*
X-396526Y26675734D01*
X-382464Y26532958D01*
X-379000Y26500000D01*
X-382465Y26467041D01*
X-396526Y26324267D01*
X-397971Y26319504D01*
X-398689Y26312672D01*
X-419091Y26249883D01*
X-447786Y26155288D01*
X-452990Y26145553D01*
X-456896Y26133530D01*
X-490858Y26074707D01*
X-531028Y25999553D01*
X-541887Y25986323D01*
X-551076Y25970405D01*
X-594822Y25921822D01*
X-643052Y25863052D01*
X-661000Y25848323D01*
X-677113Y25830427D01*
X-726740Y25794372D01*
X-779553Y25751028D01*
X-805443Y25737190D01*
X-829500Y25719711D01*
X-881244Y25696674D01*
X-935288Y25667786D01*
X-969299Y25657469D01*
X-1001576Y25643098D01*
X-1052013Y25632378D01*
X-1104267Y25616526D01*
X-1145862Y25612430D01*
X-1185820Y25603936D01*
X-1232097Y25603936D01*
X-1280000Y25599218D01*
X-1327903Y25603936D01*
X-1374180Y25603936D01*
X-1414138Y25612430D01*
X-1455734Y25616526D01*
X-1507991Y25632379D01*
X-1558424Y25643098D01*
X-1590700Y25657468D01*
X-1624713Y25667786D01*
X-1678763Y25696677D01*
X-1730500Y25719711D01*
X-1754555Y25737188D01*
X-1780448Y25751028D01*
X-1833270Y25794378D01*
X-1882887Y25830427D01*
X-1898998Y25848320D01*
X-1916949Y25863052D01*
X-1965191Y25921834D01*
X-2008924Y25970405D01*
X-2018112Y25986319D01*
X-2028973Y25999553D01*
X-2069156Y26074731D01*
X-2103104Y26133530D01*
X-2107009Y26145549D01*
X-2112215Y26155288D01*
X-2140925Y26249929D01*
X-2161311Y26312672D01*
X-2162029Y26319499D01*
X-2163475Y26324267D01*
X-2177552Y26467192D01*
X-2181000Y26500000D01*
X-2177552Y26532806D01*
X-2163475Y26675734D01*
X-2162029Y26680503D01*
X-2161311Y26687328D01*
X-2140929Y26750058D01*
X-2112215Y26844713D01*
X-2107009Y26854455D01*
X-2103104Y26866470D01*
X-2069164Y26925258D01*
X-2028973Y27000448D01*
X-2018110Y27013686D01*
X-2008924Y27029595D01*
X-1965200Y27078157D01*
X-1916949Y27136949D01*
X-1898995Y27151685D01*
X-1882887Y27169573D01*
X-1833280Y27205615D01*
X-1780448Y27248973D01*
X-1754550Y27262817D01*
X-1730500Y27280289D01*
X-1678774Y27303319D01*
X-1624713Y27332215D01*
X-1590693Y27342536D01*
X-1558424Y27356902D01*
X-1508002Y27367620D01*
X-1455734Y27383475D01*
X-1414129Y27387573D01*
X-1374180Y27396064D01*
X-1327914Y27396064D01*
X-1280000Y27400783D01*
X-1232087Y27396064D01*
G37*
G36*
X1307913Y27396064D02*
G01*
X1354180Y27396064D01*
X1394129Y27387573D01*
X1435733Y27383475D01*
X1487998Y27367621D01*
X1538424Y27356902D01*
X1570694Y27342535D01*
X1604712Y27332215D01*
X1658767Y27303322D01*
X1710500Y27280289D01*
X1734551Y27262815D01*
X1760447Y27248973D01*
X1813271Y27205622D01*
X1862887Y27169573D01*
X1878996Y27151682D01*
X1896948Y27136949D01*
X1945188Y27078169D01*
X1988924Y27029595D01*
X1998111Y27013681D01*
X2008972Y27000448D01*
X2049149Y26925281D01*
X2083104Y26866470D01*
X2087009Y26854450D01*
X2092214Y26844713D01*
X2120913Y26750104D01*
X2141311Y26687328D01*
X2142028Y26680498D01*
X2143474Y26675734D01*
X2157536Y26532958D01*
X2161000Y26500000D01*
X2157535Y26467041D01*
X2143474Y26324267D01*
X2142029Y26319504D01*
X2141311Y26312672D01*
X2120909Y26249883D01*
X2092214Y26155288D01*
X2087010Y26145553D01*
X2083104Y26133530D01*
X2049142Y26074707D01*
X2008972Y25999553D01*
X1998113Y25986323D01*
X1988924Y25970405D01*
X1945178Y25921822D01*
X1896948Y25863052D01*
X1879000Y25848323D01*
X1862887Y25830427D01*
X1813260Y25794372D01*
X1760447Y25751028D01*
X1734557Y25737190D01*
X1710500Y25719711D01*
X1658756Y25696674D01*
X1604712Y25667786D01*
X1570701Y25657469D01*
X1538424Y25643098D01*
X1487987Y25632378D01*
X1435733Y25616526D01*
X1394138Y25612430D01*
X1354180Y25603936D01*
X1307903Y25603936D01*
X1260000Y25599218D01*
X1212097Y25603936D01*
X1165820Y25603936D01*
X1125862Y25612430D01*
X1084266Y25616526D01*
X1032009Y25632379D01*
X981576Y25643098D01*
X949300Y25657468D01*
X915287Y25667786D01*
X861237Y25696677D01*
X809500Y25719711D01*
X785445Y25737188D01*
X759552Y25751028D01*
X706730Y25794378D01*
X657113Y25830427D01*
X641002Y25848320D01*
X623051Y25863052D01*
X574809Y25921834D01*
X531076Y25970405D01*
X521888Y25986319D01*
X511027Y25999553D01*
X470844Y26074731D01*
X436896Y26133530D01*
X432991Y26145549D01*
X427785Y26155288D01*
X399075Y26249929D01*
X378689Y26312672D01*
X377971Y26319499D01*
X376525Y26324267D01*
X362448Y26467192D01*
X359000Y26500000D01*
X362448Y26532806D01*
X376525Y26675734D01*
X377971Y26680503D01*
X378689Y26687328D01*
X399071Y26750058D01*
X427785Y26844713D01*
X432991Y26854455D01*
X436896Y26866470D01*
X470836Y26925258D01*
X511027Y27000448D01*
X521890Y27013686D01*
X531076Y27029595D01*
X574800Y27078157D01*
X623051Y27136949D01*
X641005Y27151685D01*
X657113Y27169573D01*
X706720Y27205615D01*
X759552Y27248973D01*
X785450Y27262817D01*
X809500Y27280289D01*
X861226Y27303319D01*
X915287Y27332215D01*
X949307Y27342536D01*
X981576Y27356902D01*
X1031998Y27367620D01*
X1084266Y27383475D01*
X1125871Y27387573D01*
X1165820Y27396064D01*
X1212086Y27396064D01*
X1260000Y27400783D01*
X1307913Y27396064D01*
G37*
G36*
X-20085014Y28507061D02*
G01*
X-19886955Y28430333D01*
X-19706368Y28318518D01*
X-19549401Y28175424D01*
X-19421400Y28005923D01*
X-19326724Y27815789D01*
X-19268598Y27611496D01*
X-19249000Y27400000D01*
X-19268598Y27188504D01*
X-19326724Y26984211D01*
X-19421400Y26794077D01*
X-19549401Y26624576D01*
X-19706368Y26481482D01*
X-19886955Y26369667D01*
X-20085014Y26292939D01*
X-20293799Y26253910D01*
X-20506201Y26253910D01*
X-20714986Y26292939D01*
X-20913045Y26369667D01*
X-21093632Y26481482D01*
X-21250599Y26624576D01*
X-21378600Y26794077D01*
X-21473276Y26984211D01*
X-21531402Y27188504D01*
X-21551000Y27400000D01*
X-21531402Y27611496D01*
X-21473276Y27815789D01*
X-21378600Y28005923D01*
X-21250599Y28175424D01*
X-21093632Y28318518D01*
X-20913045Y28430333D01*
X-20714986Y28507061D01*
X-20506201Y28546090D01*
X-20293799Y28546090D01*
X-20085014Y28507061D01*
G37*
M02*
