G04 #@! TF.GenerationSoftware,KiCad,Pcbnew,8.0.7*
G04 #@! TF.CreationDate,2025-01-15T17:40:26-08:00*
G04 #@! TF.ProjectId,RP2040_minimal_r2,52503230-3430-45f6-9d69-6e696d616c5f,REV2*
G04 #@! TF.SameCoordinates,PX5f5e100PY5f5e100*
G04 #@! TF.FileFunction,Soldermask,Bot*
G04 #@! TF.FilePolarity,Negative*
%FSLAX46Y46*%
G04 Gerber Fmt 4.6, Leading zero omitted, Abs format (unit mm)*
G04 Created by KiCad (PCBNEW 8.0.7) date 2025-01-15 17:40:26*
%MOMM*%
%LPD*%
G01*
G04 APERTURE LIST*
G04 APERTURE END LIST*
G36*
X20714986Y-292939D02*
G01*
X20913045Y-369667D01*
X21093632Y-481482D01*
X21250599Y-624576D01*
X21378600Y-794077D01*
X21473276Y-984211D01*
X21531402Y-1188504D01*
X21551000Y-1400000D01*
X21531402Y-1611496D01*
X21473276Y-1815789D01*
X21378600Y-2005923D01*
X21250599Y-2175424D01*
X21093632Y-2318518D01*
X20913045Y-2430333D01*
X20714986Y-2507061D01*
X20506201Y-2546090D01*
X20293799Y-2546090D01*
X20085014Y-2507061D01*
X19886955Y-2430333D01*
X19706368Y-2318518D01*
X19549401Y-2175424D01*
X19421400Y-2005923D01*
X19326724Y-1815789D01*
X19268598Y-1611496D01*
X19249000Y-1400000D01*
X19268598Y-1188504D01*
X19326724Y-984211D01*
X19421400Y-794077D01*
X19549401Y-624576D01*
X19706368Y-481482D01*
X19886955Y-369667D01*
X20085014Y-292939D01*
X20293799Y-253910D01*
X20506201Y-253910D01*
X20714986Y-292939D01*
G37*
G36*
X-20085014Y28507061D02*
G01*
X-19886955Y28430333D01*
X-19706368Y28318518D01*
X-19549401Y28175424D01*
X-19421400Y28005923D01*
X-19326724Y27815789D01*
X-19268598Y27611496D01*
X-19249000Y27400000D01*
X-19268598Y27188504D01*
X-19326724Y26984211D01*
X-19421400Y26794077D01*
X-19549401Y26624576D01*
X-19706368Y26481482D01*
X-19886955Y26369667D01*
X-20085014Y26292939D01*
X-20293799Y26253910D01*
X-20506201Y26253910D01*
X-20714986Y26292939D01*
X-20913045Y26369667D01*
X-21093632Y26481482D01*
X-21250599Y26624576D01*
X-21378600Y26794077D01*
X-21473276Y26984211D01*
X-21531402Y27188504D01*
X-21551000Y27400000D01*
X-21531402Y27611496D01*
X-21473276Y27815789D01*
X-21378600Y28005923D01*
X-21250599Y28175424D01*
X-21093632Y28318518D01*
X-20913045Y28430333D01*
X-20714986Y28507061D01*
X-20506201Y28546090D01*
X-20293799Y28546090D01*
X-20085014Y28507061D01*
G37*
G36*
X-3081086Y28318005D02*
G01*
X-3076355Y28315916D01*
X-3073189Y28315499D01*
X-3033558Y28297019D01*
X-2979894Y28273324D01*
X-2901676Y28195106D01*
X-2877972Y28141421D01*
X-2859502Y28101812D01*
X-2859086Y28098649D01*
X-2856995Y28093914D01*
X-2849000Y28025000D01*
X-2849000Y26575000D01*
X-2856995Y26506086D01*
X-2859086Y26501352D01*
X-2859502Y26498189D01*
X-2877964Y26458598D01*
X-2901676Y26404894D01*
X-2979894Y26326676D01*
X-3033598Y26302964D01*
X-3073189Y26284502D01*
X-3076352Y26284086D01*
X-3081086Y26281995D01*
X-3150000Y26274000D01*
X-4350000Y26274000D01*
X-4418914Y26281995D01*
X-4423649Y26284086D01*
X-4426812Y26284502D01*
X-4466421Y26302972D01*
X-4520106Y26326676D01*
X-4598324Y26404894D01*
X-4622019Y26458558D01*
X-4640499Y26498189D01*
X-4640916Y26501355D01*
X-4643005Y26506086D01*
X-4651000Y26575000D01*
X-4651000Y28025000D01*
X-4643005Y28093914D01*
X-4640916Y28098646D01*
X-4640499Y28101812D01*
X-4622011Y28141462D01*
X-4598324Y28195106D01*
X-4520106Y28273324D01*
X-4466462Y28297011D01*
X-4426812Y28315499D01*
X-4423646Y28315916D01*
X-4418914Y28318005D01*
X-4350000Y28326000D01*
X-3150000Y28326000D01*
X-3081086Y28318005D01*
G37*
G36*
X-988454Y28287203D02*
G01*
X-825272Y28219611D01*
X-678412Y28121482D01*
X-553518Y27996588D01*
X-455389Y27849728D01*
X-387797Y27686546D01*
X-353339Y27513313D01*
X-349000Y27425000D01*
X-349000Y27175000D01*
X-353339Y27086687D01*
X-387797Y26913454D01*
X-455389Y26750272D01*
X-553518Y26603412D01*
X-678412Y26478518D01*
X-825272Y26380389D01*
X-988454Y26312797D01*
X-1161687Y26278339D01*
X-1338313Y26278339D01*
X-1511546Y26312797D01*
X-1674728Y26380389D01*
X-1821588Y26478518D01*
X-1946482Y26603412D01*
X-2044611Y26750272D01*
X-2112203Y26913454D01*
X-2146661Y27086687D01*
X-2151000Y27175000D01*
X-2151000Y27425000D01*
X-2146661Y27513313D01*
X-2112203Y27686546D01*
X-2044611Y27849728D01*
X-1946482Y27996588D01*
X-1821588Y28121482D01*
X-1674728Y28219611D01*
X-1511546Y28287203D01*
X-1338313Y28321661D01*
X-1161687Y28321661D01*
X-988454Y28287203D01*
G37*
G36*
X1511546Y28287203D02*
G01*
X1674728Y28219611D01*
X1821588Y28121482D01*
X1946482Y27996588D01*
X2044611Y27849728D01*
X2112203Y27686546D01*
X2146661Y27513313D01*
X2151000Y27425000D01*
X2151000Y27175000D01*
X2146661Y27086687D01*
X2112203Y26913454D01*
X2044611Y26750272D01*
X1946482Y26603412D01*
X1821588Y26478518D01*
X1674728Y26380389D01*
X1511546Y26312797D01*
X1338313Y26278339D01*
X1161687Y26278339D01*
X988454Y26312797D01*
X825272Y26380389D01*
X678412Y26478518D01*
X553518Y26603412D01*
X455389Y26750272D01*
X387797Y26913454D01*
X353339Y27086687D01*
X349000Y27175000D01*
X349000Y27425000D01*
X353339Y27513313D01*
X387797Y27686546D01*
X455389Y27849728D01*
X553518Y27996588D01*
X678412Y28121482D01*
X825272Y28219611D01*
X988454Y28287203D01*
X1161687Y28321661D01*
X1338313Y28321661D01*
X1511546Y28287203D01*
G37*
G36*
X4011546Y28287203D02*
G01*
X4174728Y28219611D01*
X4321588Y28121482D01*
X4446482Y27996588D01*
X4544611Y27849728D01*
X4612203Y27686546D01*
X4646661Y27513313D01*
X4651000Y27425000D01*
X4651000Y27175000D01*
X4646661Y27086687D01*
X4612203Y26913454D01*
X4544611Y26750272D01*
X4446482Y26603412D01*
X4321588Y26478518D01*
X4174728Y26380389D01*
X4011546Y26312797D01*
X3838313Y26278339D01*
X3661687Y26278339D01*
X3488454Y26312797D01*
X3325272Y26380389D01*
X3178412Y26478518D01*
X3053518Y26603412D01*
X2955389Y26750272D01*
X2887797Y26913454D01*
X2853339Y27086687D01*
X2849000Y27175000D01*
X2849000Y27425000D01*
X2853339Y27513313D01*
X2887797Y27686546D01*
X2955389Y27849728D01*
X3053518Y27996588D01*
X3178412Y28121482D01*
X3325272Y28219611D01*
X3488454Y28287203D01*
X3661687Y28321661D01*
X3838313Y28321661D01*
X4011546Y28287203D01*
G37*
M02*
